G04*
G04 #@! TF.GenerationSoftware,Altium Limited,Altium Designer,23.0.1 (38)*
G04*
G04 Layer_Color=128*
%FSTAX44Y44*%
%MOMM*%
G71*
G04*
G04 #@! TF.SameCoordinates,70A70F08-58DB-409B-8D52-4F46F491BF6E*
G04*
G04*
G04 #@! TF.FilePolarity,Positive*
G04*
G01*
G75*
G04:AMPARAMS|DCode=27|XSize=1.5mm|YSize=2.5mm|CornerRadius=0.375mm|HoleSize=0mm|Usage=FLASHONLY|Rotation=180.000|XOffset=0mm|YOffset=0mm|HoleType=Round|Shape=RoundedRectangle|*
%AMROUNDEDRECTD27*
21,1,1.5000,1.7500,0,0,180.0*
21,1,0.7500,2.5000,0,0,180.0*
1,1,0.7500,-0.3750,0.8750*
1,1,0.7500,0.3750,0.8750*
1,1,0.7500,0.3750,-0.8750*
1,1,0.7500,-0.3750,-0.8750*
%
%ADD27ROUNDEDRECTD27*%
%ADD41R,1.1500X0.2980*%
%ADD42R,1.1500X0.5900*%
%ADD43C,1.0000*%
%ADD44R,3.1900X1.8600*%
%ADD45R,0.9000X1.8600*%
D27*
X00034544Y-0001397D02*
D03*
X00059944D02*
D03*
X00085344D02*
D03*
X00110744D02*
D03*
X00009144D02*
D03*
X00136144D02*
D03*
X00339344D02*
D03*
X00313944D02*
D03*
X00288544D02*
D03*
X00263144D02*
D03*
X00237744D02*
D03*
X00212344D02*
D03*
X00186944D02*
D03*
X00161544D02*
D03*
X00364744D02*
D03*
D41*
X00009104Y00061508D02*
D03*
Y00066508D02*
D03*
Y00071508D02*
D03*
Y00056508D02*
D03*
Y00051508D02*
D03*
Y00076508D02*
D03*
Y00081508D02*
D03*
Y00046508D02*
D03*
D42*
Y00040008D02*
D03*
Y00088008D02*
D03*
Y00096008D02*
D03*
Y00032008D02*
D03*
D43*
X00045974Y00138662D02*
D03*
X00368766Y00174764D02*
D03*
X00058674Y00313662D02*
D03*
X00071374D02*
D03*
X00033274Y00138662D02*
D03*
X0026758Y00049784D02*
D03*
X00283482D02*
D03*
X00329044Y00016002D02*
D03*
X00347726D02*
D03*
X-0001009Y00008382D02*
D03*
X00181866Y00112412D02*
D03*
D44*
X00209944Y00112554D02*
D03*
D45*
X00186944Y00051054D02*
D03*
X00209944D02*
D03*
X00232944D02*
D03*
M02*
