G04*
G04 #@! TF.GenerationSoftware,Altium Limited,Altium Designer,23.0.1 (38)*
G04*
G04 Layer_Physical_Order=2*
G04 Layer_Color=16711680*
%FSTAX43Y43*%
%MOMM*%
G71*
G04*
G04 #@! TF.SameCoordinates,B778C3FE-ACB6-4B2B-825A-9079CAA5F4FE*
G04*
G04*
G04 #@! TF.FilePolarity,Positive*
G04*
G01*
G75*
G04:AMPARAMS|DCode=27|XSize=1.5mm|YSize=2.5mm|CornerRadius=0.375mm|HoleSize=0mm|Usage=FLASHONLY|Rotation=180.000|XOffset=0mm|YOffset=0mm|HoleType=Round|Shape=RoundedRectangle|*
%AMROUNDEDRECTD27*
21,1,1.500,1.750,0,0,180.0*
21,1,0.750,2.500,0,0,180.0*
1,1,0.750,-0.375,0.875*
1,1,0.750,0.375,0.875*
1,1,0.750,0.375,-0.875*
1,1,0.750,-0.375,-0.875*
%
%ADD27ROUNDEDRECTD27*%
%ADD35C,0.700*%
%ADD36C,0.150*%
%ADD38O,2.200X1.000*%
%ADD39O,1.800X1.000*%
%ADD40C,0.500*%
%ADD41R,1.150X0.590*%
%ADD42R,1.150X0.298*%
%ADD43C,1.000*%
%ADD44R,0.900X1.860*%
%ADD45R,3.190X1.860*%
G36*
X0018414Y003127D02*
X0018395Y0031289D01*
X0018375Y0031306D01*
X0018354Y0031321D01*
X0018334Y0031334D01*
X0018313Y0031345D01*
X0018292Y0031354D01*
X001827Y0031361D01*
X0018249Y0031366D01*
X0018227Y0031369D01*
X0018204Y003137D01*
Y003152D01*
X0018227Y0031521D01*
X0018249Y0031524D01*
X001827Y0031529D01*
X0018292Y0031536D01*
X0018313Y0031545D01*
X0018334Y0031556D01*
X0018354Y0031569D01*
X0018375Y0031584D01*
X0018395Y0031601D01*
X0018414Y003162D01*
Y003127D01*
D02*
G37*
G36*
X0022647Y0022432D02*
X0022694Y0022317D01*
X0022809Y002227D01*
X0023986D01*
X0024005Y0022225D01*
X0024082Y0022193D01*
X0037082D01*
X0037158Y0022225D01*
X0037177Y002227D01*
X0038192D01*
Y0000188D01*
X0037389D01*
X0037345Y0000217D01*
Y0011709D01*
X0037313Y0011786D01*
X003711Y0011989D01*
X0037033Y0012021D01*
X0023286Y0012021D01*
X0023044Y0012262D01*
X0023044Y0015113D01*
X0023013Y001519D01*
X0023013Y001519D01*
X002281Y0015393D01*
X002281Y0015393D01*
X0022733Y0015424D01*
X0021025Y0015424D01*
X0020936Y0015513D01*
Y0016586D01*
X0020936Y0016586D01*
X0020905Y0016663D01*
X0020905Y0016663D01*
X0020391Y0017176D01*
X0020439Y0017294D01*
X0025136D01*
X0025492Y0016937D01*
Y0013625D01*
X0025489Y0013616D01*
X0025484Y0013603D01*
X0025477Y001359D01*
X0025468Y0013576D01*
X0025458Y0013562D01*
X0025445Y0013547D01*
X0025429Y001353D01*
X0025421Y0013511D01*
X0025332Y0013421D01*
Y0013131D01*
X0025537Y0012926D01*
X0025827D01*
X0026032Y0013131D01*
Y0013421D01*
X0025942Y0013511D01*
X0025935Y001353D01*
X0025918Y0013547D01*
X0025905Y0013562D01*
X0025895Y0013576D01*
X0025886Y001359D01*
X0025879Y0013603D01*
X0025874Y0013616D01*
X0025871Y0013625D01*
Y0017016D01*
X0025871Y0017016D01*
X0025816Y001715D01*
X0025816Y001715D01*
X0025539Y0017426D01*
X0025587Y0017544D01*
X002613D01*
X0026892Y0016782D01*
Y0013625D01*
X0026889Y0013616D01*
X0026884Y0013603D01*
X0026877Y001359D01*
X0026868Y0013576D01*
X0026858Y0013562D01*
X0026845Y0013547D01*
X0026829Y001353D01*
X0026821Y0013511D01*
X0026732Y0013421D01*
Y0013131D01*
X0026937Y0012926D01*
X0027227D01*
X0027432Y0013131D01*
Y0013421D01*
X0027342Y0013511D01*
X0027335Y001353D01*
X0027318Y0013547D01*
X0027305Y0013562D01*
X0027295Y0013576D01*
X0027286Y001359D01*
X0027279Y0013603D01*
X0027274Y0013616D01*
X0027271Y0013625D01*
Y001686D01*
X0027216Y0016994D01*
X0027216Y0016994D01*
X0026533Y0017676D01*
X0026582Y0017794D01*
X0027481D01*
X0028292Y0016982D01*
Y0013625D01*
X0028289Y0013616D01*
X0028284Y0013603D01*
X0028277Y001359D01*
X0028268Y0013576D01*
X0028258Y0013562D01*
X0028245Y0013547D01*
X0028229Y001353D01*
X0028221Y0013511D01*
X0028132Y0013421D01*
Y0013131D01*
X0028337Y0012926D01*
X0028627D01*
X0028832Y0013131D01*
Y0013421D01*
X0028742Y0013511D01*
X0028735Y001353D01*
X0028718Y0013547D01*
X0028705Y0013562D01*
X0028695Y0013576D01*
X0028686Y001359D01*
X0028679Y0013603D01*
X0028674Y0013616D01*
X0028671Y0013625D01*
Y0017061D01*
X0028616Y0017195D01*
X0027693Y0018117D01*
X0027559Y0018173D01*
X0020406D01*
X0020371Y0018187D01*
X0018276D01*
X0018046Y0018417D01*
Y0022553D01*
X001849Y0022998D01*
X0019508D01*
X0019516Y0022996D01*
X0019554Y0022983D01*
X001957Y0022976D01*
X0019613Y0022955D01*
X0019625Y0022949D01*
X0019672Y0022901D01*
X0019962D01*
X0020167Y0023106D01*
Y0023396D01*
X0019962Y0023601D01*
X0019672D01*
X0019467Y0023396D01*
Y0023384D01*
X0019466Y0023383D01*
X0019458Y0023378D01*
X0019453Y0023377D01*
X0018412D01*
X0018278Y0023321D01*
X0017913Y0022956D01*
X0017796Y0023005D01*
Y0023578D01*
X0018549Y0024332D01*
X0019469D01*
X0019478Y0024329D01*
X0019491Y0024323D01*
X0019504Y0024316D01*
X0019518Y0024308D01*
X0019532Y0024297D01*
X0019547Y0024285D01*
X0019564Y0024268D01*
X0019583Y0024261D01*
X0019672Y0024171D01*
X0019962D01*
X0020167Y0024376D01*
Y0024666D01*
X0019962Y0024871D01*
X0019672D01*
X0019583Y0024782D01*
X0019564Y0024774D01*
X0019547Y0024758D01*
X0019532Y0024745D01*
X0019518Y0024735D01*
X0019504Y0024726D01*
X0019491Y0024719D01*
X0019478Y0024714D01*
X0019469Y0024711D01*
X0018471D01*
X0018337Y0024655D01*
X0017663Y0023981D01*
X0017546Y002403D01*
Y0024681D01*
X0018466Y0025602D01*
X0019469D01*
X0019478Y0025599D01*
X0019491Y0025593D01*
X0019504Y0025586D01*
X0019518Y0025578D01*
X0019532Y0025567D01*
X0019547Y0025555D01*
X0019564Y0025538D01*
X0019583Y0025531D01*
X0019672Y0025441D01*
X0019962D01*
X0020167Y0025646D01*
Y0025936D01*
X0019962Y0026141D01*
X0019672D01*
X0019583Y0026052D01*
X0019564Y0026044D01*
X0019547Y0026028D01*
X0019532Y0026015D01*
X0019518Y0026005D01*
X0019504Y0025996D01*
X0019491Y0025989D01*
X0019478Y0025984D01*
X0019469Y0025981D01*
X0018388D01*
X0018254Y0025925D01*
X0017401Y0025072D01*
X0017284Y0025121D01*
Y0030757D01*
X0017782Y0031256D01*
X0018244D01*
X0018254Y0031253D01*
X0018266Y0031247D01*
X0018279Y003124D01*
X0018293Y0031232D01*
X0018307Y0031221D01*
X0018322Y0031209D01*
X0018339Y0031192D01*
X0018358Y0031185D01*
X0018448Y0031095D01*
X0018738D01*
X0018943Y00313D01*
Y003159D01*
X0018738Y0031795D01*
X0018448D01*
X0018358Y0031706D01*
X0018339Y0031698D01*
X0018322Y0031682D01*
X0018307Y0031669D01*
X0018293Y0031659D01*
X0018279Y003165D01*
X0018266Y0031643D01*
X0018254Y0031638D01*
X0018244Y0031635D01*
X0017704D01*
X001757Y0031579D01*
X001696Y003097D01*
X0016905Y0030836D01*
Y0018163D01*
X0016429Y0017687D01*
X0002944D01*
X000281Y0017632D01*
X000155Y0016372D01*
X0001432Y001642D01*
Y0032172D01*
X0022647D01*
Y0022432D01*
D02*
G37*
G36*
X0019639Y0025616D02*
X0019619Y0025635D01*
X0019599Y0025652D01*
X0019579Y0025667D01*
X0019558Y002568D01*
X0019537Y0025691D01*
X0019516Y00257D01*
X0019495Y0025707D01*
X0019473Y0025712D01*
X0019451Y0025715D01*
X0019429Y0025716D01*
Y0025866D01*
X0019451Y0025867D01*
X0019473Y002587D01*
X0019495Y0025875D01*
X0019516Y0025882D01*
X0019537Y0025891D01*
X0019558Y0025902D01*
X0019579Y0025915D01*
X0019599Y002593D01*
X0019619Y0025947D01*
X0019639Y0025966D01*
Y0025616D01*
D02*
G37*
G36*
Y0024346D02*
X0019619Y0024365D01*
X0019599Y0024382D01*
X0019579Y0024397D01*
X0019558Y002441D01*
X0019537Y0024421D01*
X0019516Y002443D01*
X0019495Y0024437D01*
X0019473Y0024442D01*
X0019451Y0024445D01*
X0019429Y0024446D01*
Y0024596D01*
X0019451Y0024597D01*
X0019473Y00246D01*
X0019495Y0024605D01*
X0019516Y0024612D01*
X0019537Y0024621D01*
X0019558Y0024632D01*
X0019579Y0024645D01*
X0019599Y002466D01*
X0019619Y0024677D01*
X0019639Y0024696D01*
Y0024346D01*
D02*
G37*
G36*
X001969Y0023036D02*
X0019664Y0023051D01*
X0019615Y0023075D01*
X0019592Y0023085D01*
X0019546Y00231D01*
X0019523Y0023105D01*
X0019502Y0023109D01*
X001948Y0023111D01*
X001946Y0023112D01*
X0019418Y0023262D01*
X0019441Y0023263D01*
X0019463Y0023267D01*
X0019484Y0023272D01*
X0019504Y002328D01*
X0019522Y002329D01*
X001954Y0023303D01*
X0019557Y0023317D01*
X0019572Y0023334D01*
X0019587Y0023353D01*
X00196Y0023375D01*
X001969Y0023036D01*
D02*
G37*
G36*
X0006658Y0014772D02*
X0006641Y0014752D01*
X0006626Y0014731D01*
X0006613Y0014711D01*
X0006602Y001469D01*
X0006593Y0014669D01*
X0006586Y0014647D01*
X0006581Y0014626D01*
X0006578Y0014604D01*
X0006577Y0014581D01*
X0006427D01*
X0006426Y0014604D01*
X0006423Y0014626D01*
X0006418Y0014647D01*
X0006411Y0014669D01*
X0006402Y001469D01*
X0006391Y0014711D01*
X0006378Y0014731D01*
X0006363Y0014752D01*
X0006346Y0014772D01*
X0006327Y0014791D01*
X0006677D01*
X0006658Y0014772D01*
D02*
G37*
G36*
X0005465D02*
X0005448Y0014752D01*
X0005433Y0014731D01*
X000542Y0014711D01*
X0005409Y001469D01*
X00054Y0014669D01*
X0005393Y0014647D01*
X0005388Y0014626D01*
X0005385Y0014604D01*
X0005384Y0014581D01*
X0005234D01*
X0005233Y0014604D01*
X000523Y0014626D01*
X0005225Y0014647D01*
X0005218Y0014669D01*
X0005209Y001469D01*
X0005198Y0014711D01*
X0005185Y0014731D01*
X000517Y0014752D01*
X0005153Y0014772D01*
X0005134Y0014791D01*
X0005484D01*
X0005465Y0014772D01*
D02*
G37*
G36*
X0018643Y0014232D02*
X0018646Y001421D01*
X0018651Y0014189D01*
X0018658Y0014167D01*
X0018667Y0014146D01*
X0018678Y0014125D01*
X0018691Y0014105D01*
X0018706Y0014085D01*
X0018723Y0014064D01*
X0018742Y0014045D01*
X0018392D01*
X0018411Y0014064D01*
X0018428Y0014085D01*
X0018443Y0014105D01*
X0018456Y0014125D01*
X0018467Y0014146D01*
X0018476Y0014167D01*
X0018483Y0014189D01*
X0018488Y001421D01*
X0018491Y0014232D01*
X0018492Y0014255D01*
X0018642D01*
X0018643Y0014232D01*
D02*
G37*
G36*
X0017398Y0014245D02*
X0017399Y0014223D01*
X0017401Y0014202D01*
X0017406Y001418D01*
X0017412Y0014158D01*
X0017421Y0014136D01*
X0017431Y0014114D01*
X0017443Y0014092D01*
X0017457Y001407D01*
X0017472Y0014048D01*
X001749Y0014026D01*
X0017141Y0014062D01*
X0017162Y0014079D01*
X001718Y0014097D01*
X0017196Y0014115D01*
X001721Y0014134D01*
X0017221Y0014154D01*
X0017231Y0014174D01*
X0017238Y0014195D01*
X0017244Y0014217D01*
X0017247Y0014239D01*
X0017248Y0014261D01*
X0017398Y0014245D01*
D02*
G37*
G36*
X0018378Y0014831D02*
Y0014215D01*
X0018375Y0014205D01*
X001837Y0014193D01*
X0018363Y001418D01*
X0018354Y0014166D01*
X0018344Y0014152D01*
X0018331Y0014137D01*
X0018314Y001412D01*
X0018307Y0014101D01*
X0018217Y0014011D01*
Y0013721D01*
X0018422Y0013516D01*
X0018712D01*
X0018772Y0013576D01*
X0018889Y0013527D01*
X0018891Y0011543D01*
X0018764Y0011512D01*
X0018435Y0011841D01*
X0017938D01*
X0017587Y001149D01*
Y0010993D01*
X0017938Y0010641D01*
X0018435D01*
X0018765Y0010971D01*
X0018892Y0010941D01*
X0018892Y0010718D01*
X0018892Y0010718D01*
X0018892Y0010718D01*
Y0010717D01*
X0018908Y001068D01*
X0018924Y0010641D01*
X0018924Y0010641D01*
X0018924Y0010641D01*
X0018924Y0010641D01*
X0019299Y0010266D01*
X0019299Y0010225D01*
X0019222Y0010131D01*
X0018535D01*
X0018526Y0010134D01*
X0018513Y0010139D01*
X00185Y0010146D01*
X0018486Y0010155D01*
X0018472Y0010165D01*
X0018457Y0010178D01*
X001844Y0010194D01*
X0018421Y0010202D01*
X0018332Y0010291D01*
X0018042D01*
X0017837Y0010086D01*
Y0009796D01*
X0018017Y0009616D01*
X0017837Y0009436D01*
Y0009146D01*
X0018017Y0008966D01*
X0017837Y0008786D01*
Y0008496D01*
X0018017Y0008316D01*
X0017837Y0008136D01*
Y0007846D01*
X0018042Y0007641D01*
X0018332D01*
X0018421Y0007731D01*
X001844Y0007738D01*
X0018457Y0007755D01*
X0018472Y0007767D01*
X0018486Y0007778D01*
X00185Y0007786D01*
X0018513Y0007793D01*
X0018526Y0007799D01*
X0018535Y0007802D01*
X0026398D01*
X0026569Y0007631D01*
Y0005578D01*
X0026509D01*
X0026158Y0005227D01*
Y000473D01*
X0026509Y0004378D01*
X0027007D01*
X0027358Y000473D01*
Y0005227D01*
X0027007Y0005578D01*
X0026947D01*
Y000771D01*
X0026892Y0007844D01*
X0026611Y0008125D01*
X0026477Y0008181D01*
X0018535D01*
X0018526Y0008184D01*
X0018513Y0008189D01*
X00185Y0008196D01*
X0018486Y0008205D01*
X0018472Y0008215D01*
X0018457Y0008228D01*
X0018452Y0008232D01*
X0018435Y0008267D01*
X0018422Y0008316D01*
X0018434Y0008365D01*
X0018452Y00084D01*
X0018457Y0008405D01*
X0018472Y0008417D01*
X0018486Y0008428D01*
X00185Y0008436D01*
X0018513Y0008443D01*
X0018526Y0008449D01*
X0018535Y0008452D01*
X0027704D01*
X0028159Y0007997D01*
Y0005578D01*
X00281D01*
X0027748Y0005227D01*
Y000473D01*
X00281Y0004378D01*
X0028597D01*
X0028948Y000473D01*
Y0005227D01*
X0028597Y0005578D01*
X0028538D01*
Y0008075D01*
X0028482Y0008209D01*
X0027916Y0008775D01*
X0027782Y0008831D01*
X0018535D01*
X0018526Y0008834D01*
X0018513Y0008839D01*
X00185Y0008846D01*
X0018486Y0008855D01*
X0018472Y0008865D01*
X0018458Y0008878D01*
X0018452Y0008882D01*
X0018434Y0008917D01*
X0018422Y0008966D01*
X0018434Y0009015D01*
X0018452Y000905D01*
X0018457Y0009055D01*
X0018472Y0009067D01*
X0018486Y0009078D01*
X00185Y0009086D01*
X0018513Y0009093D01*
X0018526Y0009099D01*
X0018535Y0009102D01*
X0032058D01*
X0032715Y0008445D01*
Y00022D01*
X0032656D01*
X0032304Y0001849D01*
Y0001352D01*
X0032656Y0001D01*
X0033153D01*
X0033504Y0001352D01*
Y0001849D01*
X0033153Y00022D01*
X0033094D01*
Y0008523D01*
X0033038Y0008657D01*
X003227Y0009425D01*
X0032136Y0009481D01*
X0018535D01*
X0018526Y0009484D01*
X0018513Y0009489D01*
X00185Y0009496D01*
X0018486Y0009505D01*
X0018472Y0009515D01*
X0018458Y0009528D01*
X0018452Y0009532D01*
X0018434Y0009567D01*
X0018422Y0009616D01*
X0018435Y0009665D01*
X0018452Y00097D01*
X0018457Y0009705D01*
X0018472Y0009717D01*
X0018486Y0009728D01*
X00185Y0009736D01*
X0018513Y0009743D01*
X0018526Y0009749D01*
X0018535Y0009752D01*
X0033973D01*
X0034583Y0009142D01*
Y00022D01*
X0034524D01*
X0034173Y0001849D01*
Y0001352D01*
X0034524Y0001D01*
X0035021D01*
X0035373Y0001352D01*
Y0001849D01*
X0035021Y00022D01*
X0034962D01*
Y000922D01*
X0034907Y0009354D01*
X0034209Y0010052D01*
X0034238Y0010162D01*
X0034248Y0010179D01*
X0035287Y0010179D01*
X0035604Y0009861D01*
X0035604Y0000025D01*
X0019565D01*
Y0006121D01*
X0019565Y0006121D01*
X0019533Y0006198D01*
X0019177Y0006554D01*
X0019101Y0006585D01*
X0018263D01*
X0018263Y0006585D01*
X0018186Y0006554D01*
X0018186Y0006554D01*
X0017856Y0006223D01*
X0017824Y0006147D01*
Y0000025D01*
X0016344D01*
Y0007643D01*
X0016347Y0007652D01*
X0016352Y0007665D01*
X0016359Y0007678D01*
X0016368Y0007691D01*
X0016378Y0007706D01*
X0016391Y000772D01*
X0016407Y0007738D01*
X0016415Y0007757D01*
X0016504Y0007846D01*
Y0008136D01*
X0016299Y0008341D01*
X0016009D01*
X0015804Y0008136D01*
Y0007846D01*
X0015894Y0007757D01*
X0015901Y0007738D01*
X0015918Y000772D01*
X0015931Y0007706D01*
X0015941Y0007691D01*
X001595Y0007678D01*
X0015957Y0007665D01*
X0015962Y0007652D01*
X0015965Y0007643D01*
Y0000025D01*
X0013804D01*
Y0007643D01*
X0013807Y0007652D01*
X0013812Y0007665D01*
X0013819Y0007678D01*
X0013828Y0007691D01*
X0013838Y0007706D01*
X0013851Y000772D01*
X0013867Y0007738D01*
X0013875Y0007757D01*
X0013964Y0007846D01*
Y0008136D01*
X0013924Y0008177D01*
X0013972Y0008294D01*
X0014681D01*
X0014815Y000835D01*
X0016161Y0009696D01*
X0016217Y000983D01*
Y0013518D01*
X001622Y0013527D01*
X0016225Y001354D01*
X0016232Y0013553D01*
X0016241Y0013566D01*
X0016251Y0013581D01*
X0016264Y0013595D01*
X001628Y0013613D01*
X0016288Y0013632D01*
X0016377Y0013721D01*
Y0014011D01*
X0016172Y0014216D01*
X0015882D01*
X0015677Y0014011D01*
Y0013721D01*
X0015767Y0013632D01*
X0015774Y0013613D01*
X0015791Y0013595D01*
X0015804Y0013581D01*
X0015814Y0013566D01*
X0015823Y0013553D01*
X001583Y001354D01*
X0015835Y0013527D01*
X0015838Y0013518D01*
Y0009908D01*
X0014603Y0008673D01*
X0014009D01*
X001396Y000879D01*
X0014891Y0009721D01*
X0014947Y0009855D01*
Y0013518D01*
X001495Y0013527D01*
X0014955Y001354D01*
X0014962Y0013553D01*
X0014971Y0013566D01*
X0014981Y0013581D01*
X0014994Y0013595D01*
X001501Y0013613D01*
X0015018Y0013632D01*
X0015107Y0013721D01*
Y0014011D01*
X0014902Y0014216D01*
X0014612D01*
X0014407Y0014011D01*
Y0013721D01*
X0014497Y0013632D01*
X0014504Y0013613D01*
X0014521Y0013595D01*
X0014534Y0013581D01*
X0014544Y0013566D01*
X0014553Y0013553D01*
X001456Y001354D01*
X0014565Y0013527D01*
X0014568Y0013518D01*
Y0009934D01*
X0013569Y0008935D01*
X0013077D01*
X0013029Y0009052D01*
X0013621Y0009645D01*
X0013677Y0009779D01*
Y0013518D01*
X001368Y0013527D01*
X0013685Y001354D01*
X0013692Y0013553D01*
X0013701Y0013566D01*
X0013711Y0013581D01*
X0013724Y0013595D01*
X001374Y0013613D01*
X0013748Y0013632D01*
X0013837Y0013721D01*
Y0014011D01*
X0013632Y0014216D01*
X0013342D01*
X0013137Y0014011D01*
Y0013721D01*
X0013227Y0013632D01*
X0013234Y0013613D01*
X0013251Y0013595D01*
X0013264Y0013581D01*
X0013274Y0013566D01*
X0013283Y0013553D01*
X001329Y001354D01*
X0013295Y0013527D01*
X0013298Y0013518D01*
Y0009857D01*
X0012626Y0009185D01*
X0011981D01*
X0011932Y0009302D01*
X0012351Y0009721D01*
X0012407Y0009855D01*
Y0013518D01*
X001241Y0013527D01*
X0012415Y001354D01*
X0012422Y0013553D01*
X0012431Y0013566D01*
X0012441Y0013581D01*
X0012454Y0013595D01*
X001247Y0013613D01*
X0012478Y0013632D01*
X0012567Y0013721D01*
Y0014011D01*
X0012362Y0014216D01*
X0012072D01*
X0011867Y0014011D01*
Y0013721D01*
X0011957Y0013632D01*
X0011964Y0013613D01*
X0011981Y0013595D01*
X0011994Y0013581D01*
X0012004Y0013566D01*
X0012013Y0013553D01*
X001202Y001354D01*
X0012025Y0013527D01*
X0012028Y0013518D01*
Y0009934D01*
X0011529Y0009435D01*
X0010202D01*
X0010202Y0009435D01*
X0010068Y000938D01*
X0009073Y0008384D01*
X0009017Y0008251D01*
Y000438D01*
X0008511D01*
X0008401Y0004491D01*
Y0004847D01*
X0008404Y0004856D01*
X0008409Y0004869D01*
X0008416Y0004882D01*
X0008425Y0004896D01*
X0008435Y000491D01*
X0008448Y0004925D01*
X0008464Y0004942D01*
X0008472Y0004961D01*
X0008561Y0005051D01*
Y0005341D01*
X0008356Y0005546D01*
X0008066D01*
X0007861Y0005341D01*
Y0005051D01*
X0007951Y0004961D01*
X0007958Y0004942D01*
X0007975Y0004925D01*
X0007987Y000491D01*
X0007998Y0004896D01*
X0008007Y0004882D01*
X0008013Y0004869D01*
X0008019Y0004856D01*
X0008022Y0004847D01*
Y0004412D01*
X0008077Y0004279D01*
X0008108Y0004248D01*
X000806Y000413D01*
X0007448D01*
X0007298Y0004281D01*
Y0004847D01*
X0007301Y0004856D01*
X0007306Y0004869D01*
X0007313Y0004882D01*
X0007322Y0004896D01*
X0007332Y000491D01*
X0007345Y0004925D01*
X0007361Y0004942D01*
X0007369Y0004961D01*
X0007458Y0005051D01*
Y0005341D01*
X0007253Y0005546D01*
X0006963D01*
X0006758Y0005341D01*
Y0005051D01*
X0006848Y0004961D01*
X0006855Y0004942D01*
X0006872Y0004925D01*
X0006884Y000491D01*
X0006895Y0004896D01*
X0006904Y0004882D01*
X000691Y0004869D01*
X0006916Y0004856D01*
X0006919Y0004847D01*
Y0004203D01*
X0006974Y0004069D01*
X0007045Y0003998D01*
X0006997Y000388D01*
X0006649D01*
X0006195Y0004335D01*
Y0006407D01*
X0006198Y0006416D01*
X0006203Y0006429D01*
X000621Y0006442D01*
X0006219Y0006456D01*
X0006229Y000647D01*
X0006242Y0006485D01*
X0006258Y0006502D01*
X0006266Y0006521D01*
X0006355Y0006611D01*
Y0006901D01*
X000615Y0007106D01*
X000586D01*
X0005655Y0006901D01*
Y0006611D01*
X0005745Y0006521D01*
X0005752Y0006502D01*
X0005769Y0006485D01*
X0005781Y000647D01*
X0005792Y0006456D01*
X00058Y0006442D01*
X0005807Y0006429D01*
X0005813Y0006416D01*
X0005816Y0006407D01*
Y0004256D01*
X0005871Y0004122D01*
X0006246Y0003748D01*
X0006197Y000363D01*
X0005604D01*
X0005092Y0004142D01*
Y0006407D01*
X0005095Y0006416D01*
X00051Y0006429D01*
X0005107Y0006442D01*
X0005116Y0006456D01*
X0005126Y000647D01*
X0005139Y0006485D01*
X0005155Y0006502D01*
X0005163Y0006521D01*
X0005252Y0006611D01*
Y0006901D01*
X0005047Y0007106D01*
X0004757D01*
X0004552Y0006901D01*
Y0006611D01*
X0004642Y0006521D01*
X0004649Y0006502D01*
X0004666Y0006485D01*
X0004678Y000647D01*
X0004689Y0006456D01*
X0004697Y0006442D01*
X0004704Y0006429D01*
X000471Y0006416D01*
X0004713Y0006407D01*
Y0004064D01*
X0004768Y000393D01*
X0005391Y0003307D01*
X0005525Y0003252D01*
X0005525Y0003252D01*
X000943D01*
X0009564Y0003307D01*
X0010091Y0003834D01*
X0010146Y0003968D01*
Y0007861D01*
X0010579Y0008294D01*
X0013256D01*
X0013305Y0008177D01*
X0013264Y0008136D01*
Y0007846D01*
X0013354Y0007757D01*
X0013361Y0007738D01*
X0013378Y000772D01*
X0013391Y0007706D01*
X0013401Y0007691D01*
X001341Y0007678D01*
X0013417Y0007665D01*
X0013422Y0007652D01*
X0013425Y0007643D01*
Y0000025D01*
X0002898D01*
X0002868Y0000064D01*
X0002831Y0000152D01*
X0002851Y0000203D01*
X0002851Y0004115D01*
X0002851Y0004115D01*
X000282Y0004191D01*
X000282Y0004191D01*
X0002617Y0004395D01*
X0002617Y0004395D01*
X000254Y0004426D01*
X0001585Y0004426D01*
Y00049D01*
X0001585D01*
Y0004902D01*
X0001585D01*
Y00054D01*
X0001687Y0005461D01*
X0001716D01*
X0001849Y0005517D01*
X0002129Y0005796D01*
X0002184Y000593D01*
X0002184Y000593D01*
Y0009188D01*
X0002275Y0009226D01*
X0002565D01*
X000277Y0009431D01*
Y0009721D01*
X0002647Y0009844D01*
X0002638Y000986D01*
X0002621Y0009874D01*
X0002609Y0009885D01*
X0002599Y0009896D01*
X0002591Y0009907D01*
X0002585Y0009917D01*
X000258Y0009928D01*
X0002577Y0009935D01*
Y0010336D01*
X0005443Y0013201D01*
X0005443Y0013201D01*
X0005498Y0013335D01*
X0005498Y0013335D01*
Y0014621D01*
X0005501Y0014631D01*
X0005506Y0014643D01*
X0005513Y0014656D01*
X0005522Y001467D01*
X0005532Y0014684D01*
X0005545Y0014699D01*
X0005562Y0014716D01*
X0005569Y0014735D01*
X0005659Y0014825D01*
Y0015115D01*
X0005564Y001521D01*
X0005616Y0015337D01*
X0006195D01*
X0006247Y001521D01*
X0006152Y0015115D01*
Y0014825D01*
X0006242Y0014735D01*
X0006249Y0014716D01*
X0006266Y0014699D01*
X0006279Y0014684D01*
X0006289Y001467D01*
X0006298Y0014656D01*
X0006305Y0014643D01*
X000631Y0014631D01*
X0006313Y0014621D01*
Y0013388D01*
X000327Y0010345D01*
X0003214Y0010211D01*
Y0009863D01*
X0003212Y0009853D01*
X0003206Y0009837D01*
X00032Y000982D01*
X0003192Y0009803D01*
X0003169Y0009762D01*
X0003156Y0009741D01*
X0003155Y0009739D01*
X0003104Y0009688D01*
Y0009398D01*
X0003309Y0009193D01*
X0003599D01*
X0003804Y0009398D01*
Y0009688D01*
X0003653Y0009839D01*
X0003651Y0009843D01*
X0003648Y0009845D01*
X0003599Y0009893D01*
X0003599D01*
X0003595Y00099D01*
X0003593Y0009906D01*
Y0010132D01*
X0006636Y0013176D01*
X0006636Y0013176D01*
X0006692Y001331D01*
X0006692Y001331D01*
Y0014621D01*
X0006695Y0014631D01*
X00067Y0014643D01*
X0006707Y0014656D01*
X0006716Y001467D01*
X0006726Y0014684D01*
X0006739Y0014699D01*
X0006755Y0014716D01*
X0006763Y0014735D01*
X0006852Y0014825D01*
Y0015115D01*
X0006757Y001521D01*
X000681Y0015337D01*
X0016526D01*
X0017133Y001473D01*
Y0014223D01*
X0017131Y0014216D01*
X0017126Y0014205D01*
X0017119Y0014194D01*
X0017111Y0014182D01*
X0017101Y0014171D01*
X0017088Y0014159D01*
X0017071Y0014144D01*
X0017062Y0014126D01*
X0016947Y0014011D01*
Y0013721D01*
X0017152Y0013516D01*
X0017442D01*
X0017647Y0013721D01*
Y0014011D01*
X0017578Y001408D01*
X0017575Y0014093D01*
X0017559Y0014113D01*
X0017547Y001413D01*
X0017536Y0014147D01*
X0017528Y0014163D01*
X0017521Y0014178D01*
X0017515Y0014192D01*
X0017512Y0014202D01*
Y0014808D01*
X0017457Y0014942D01*
X0016929Y0015469D01*
X0016978Y0015587D01*
X0017623D01*
X0018378Y0014831D01*
D02*
G37*
G36*
X0016183Y0013668D02*
X0016166Y0013648D01*
X0016151Y0013628D01*
X0016138Y0013607D01*
X0016127Y0013586D01*
X0016118Y0013565D01*
X0016111Y0013544D01*
X0016106Y0013522D01*
X0016103Y00135D01*
X0016102Y0013478D01*
X0015952D01*
X0015951Y00135D01*
X0015948Y0013522D01*
X0015943Y0013544D01*
X0015936Y0013565D01*
X0015927Y0013586D01*
X0015916Y0013607D01*
X0015903Y0013628D01*
X0015888Y0013648D01*
X0015871Y0013668D01*
X0015852Y0013688D01*
X0016202D01*
X0016183Y0013668D01*
D02*
G37*
G36*
X0014913D02*
X0014896Y0013648D01*
X0014881Y0013628D01*
X0014868Y0013607D01*
X0014857Y0013586D01*
X0014848Y0013565D01*
X0014841Y0013544D01*
X0014836Y0013522D01*
X0014833Y00135D01*
X0014832Y0013478D01*
X0014682D01*
X0014681Y00135D01*
X0014678Y0013522D01*
X0014673Y0013544D01*
X0014666Y0013565D01*
X0014657Y0013586D01*
X0014646Y0013607D01*
X0014633Y0013628D01*
X0014618Y0013648D01*
X0014601Y0013668D01*
X0014582Y0013688D01*
X0014932D01*
X0014913Y0013668D01*
D02*
G37*
G36*
X0013643D02*
X0013626Y0013648D01*
X0013611Y0013628D01*
X0013598Y0013607D01*
X0013587Y0013586D01*
X0013578Y0013565D01*
X0013571Y0013544D01*
X0013566Y0013522D01*
X0013563Y00135D01*
X0013562Y0013478D01*
X0013412D01*
X0013411Y00135D01*
X0013408Y0013522D01*
X0013403Y0013544D01*
X0013396Y0013565D01*
X0013387Y0013586D01*
X0013376Y0013607D01*
X0013363Y0013628D01*
X0013348Y0013648D01*
X0013331Y0013668D01*
X0013312Y0013688D01*
X0013662D01*
X0013643Y0013668D01*
D02*
G37*
G36*
X0012373D02*
X0012356Y0013648D01*
X0012341Y0013628D01*
X0012328Y0013607D01*
X0012317Y0013586D01*
X0012308Y0013565D01*
X0012301Y0013544D01*
X0012296Y0013522D01*
X0012293Y00135D01*
X0012292Y0013478D01*
X0012142D01*
X0012141Y00135D01*
X0012138Y0013522D01*
X0012133Y0013544D01*
X0012126Y0013565D01*
X0012117Y0013586D01*
X0012106Y0013607D01*
X0012093Y0013628D01*
X0012078Y0013648D01*
X0012061Y0013668D01*
X0012042Y0013688D01*
X0012392D01*
X0012373Y0013668D01*
D02*
G37*
G36*
X0028558Y0013643D02*
X0028561Y0013621D01*
X0028566Y0013599D01*
X0028573Y0013578D01*
X0028582Y0013556D01*
X0028593Y0013536D01*
X0028606Y0013515D01*
X0028621Y0013495D01*
X0028638Y0013475D01*
X0028657Y0013455D01*
X0028307D01*
X0028326Y0013475D01*
X0028343Y0013495D01*
X0028358Y0013515D01*
X0028371Y0013536D01*
X0028382Y0013556D01*
X0028391Y0013578D01*
X0028398Y0013599D01*
X0028403Y0013621D01*
X0028406Y0013643D01*
X0028407Y0013665D01*
X0028557D01*
X0028558Y0013643D01*
D02*
G37*
G36*
X0027158D02*
X0027161Y0013621D01*
X0027166Y0013599D01*
X0027173Y0013578D01*
X0027182Y0013556D01*
X0027193Y0013536D01*
X0027206Y0013515D01*
X0027221Y0013495D01*
X0027238Y0013475D01*
X0027257Y0013455D01*
X0026907D01*
X0026926Y0013475D01*
X0026943Y0013495D01*
X0026958Y0013515D01*
X0026971Y0013536D01*
X0026982Y0013556D01*
X0026991Y0013578D01*
X0026998Y0013599D01*
X0027003Y0013621D01*
X0027006Y0013643D01*
X0027007Y0013665D01*
X0027157D01*
X0027158Y0013643D01*
D02*
G37*
G36*
X0025758D02*
X0025761Y0013621D01*
X0025766Y0013599D01*
X0025773Y0013578D01*
X0025782Y0013556D01*
X0025793Y0013536D01*
X0025806Y0013515D01*
X0025821Y0013495D01*
X0025838Y0013475D01*
X0025857Y0013455D01*
X0025507D01*
X0025526Y0013475D01*
X0025543Y0013495D01*
X0025558Y0013515D01*
X0025571Y0013536D01*
X0025582Y0013556D01*
X0025591Y0013578D01*
X0025598Y0013599D01*
X0025603Y0013621D01*
X0025606Y0013643D01*
X0025607Y0013665D01*
X0025757D01*
X0025758Y0013643D01*
D02*
G37*
G36*
X0001306Y0012793D02*
Y0011876D01*
X00011Y001167D01*
X-0000813D01*
X-0000813Y001167D01*
X-0000947Y0011615D01*
X-0000947Y0011615D01*
X-0001143Y0011419D01*
X-0001198Y0011285D01*
Y0001438D01*
X-0001258D01*
X-0001609Y0001087D01*
Y000059D01*
X-0001309Y0000289D01*
X-0001361Y0000162D01*
X-0005426D01*
Y0012817D01*
X000127D01*
X0001306Y0012793D01*
D02*
G37*
G36*
X0018385Y0010097D02*
X0018405Y001008D01*
X0018425Y0010065D01*
X0018446Y0010052D01*
X0018467Y0010041D01*
X0018488Y0010032D01*
X0018509Y0010025D01*
X0018531Y001002D01*
X0018553Y0010017D01*
X0018575Y0010016D01*
Y0009866D01*
X0018553Y0009865D01*
X0018531Y0009862D01*
X0018509Y0009857D01*
X0018488Y000985D01*
X0018467Y0009841D01*
X0018446Y000983D01*
X0018425Y0009817D01*
X0018405Y0009802D01*
X0018385Y0009785D01*
X0018365Y0009766D01*
Y0010116D01*
X0018385Y0010097D01*
D02*
G37*
G36*
X0002464Y0009949D02*
X0002467Y0009927D01*
X0002472Y0009906D01*
X000248Y0009885D01*
X000249Y0009865D01*
X0002501Y0009846D01*
X0002515Y0009827D01*
X0002532Y0009809D01*
X000255Y0009792D01*
X000257Y0009776D01*
X0002223Y000973D01*
X000224Y0009753D01*
X0002269Y0009798D01*
X000228Y000982D01*
X000229Y0009842D01*
X0002298Y0009864D01*
X0002305Y0009886D01*
X0002309Y0009908D01*
X0002312Y000993D01*
X0002313Y0009952D01*
X0002463Y0009972D01*
X0002464Y0009949D01*
D02*
G37*
G36*
X000348Y0009919D02*
X0003483Y0009897D01*
X0003489Y0009876D01*
X0003496Y0009856D01*
X0003506Y0009836D01*
X0003519Y0009818D01*
X0003533Y0009801D01*
X000355Y0009784D01*
X0003568Y0009768D01*
X0003589Y0009754D01*
X0003247Y0009683D01*
X0003262Y0009707D01*
X0003289Y0009754D01*
X0003299Y0009778D01*
X0003308Y00098D01*
X0003316Y0009823D01*
X0003321Y0009845D01*
X0003325Y0009867D01*
X0003328Y0009888D01*
X0003329Y0009909D01*
X0003479Y0009942D01*
X000348Y0009919D01*
D02*
G37*
G36*
X0001556Y0011424D02*
Y000933D01*
X000155Y0009319D01*
X0001473Y0009227D01*
X0001473Y0009227D01*
X-0000635Y0009227D01*
X-0000635Y0009227D01*
X-0000693Y0009203D01*
X-000082Y0009253D01*
Y0011206D01*
X-0000734Y0011291D01*
X0001178D01*
X0001312Y0011347D01*
X0001438Y0011473D01*
X0001556Y0011424D01*
D02*
G37*
G36*
X0018385Y0009447D02*
X0018405Y000943D01*
X0018425Y0009415D01*
X0018446Y0009402D01*
X0018467Y0009391D01*
X0018488Y0009382D01*
X0018509Y0009375D01*
X0018531Y000937D01*
X0018553Y0009367D01*
X0018575Y0009366D01*
Y0009216D01*
X0018553Y0009215D01*
X0018531Y0009212D01*
X0018509Y0009207D01*
X0018488Y00092D01*
X0018467Y0009191D01*
X0018446Y000918D01*
X0018425Y0009167D01*
X0018405Y0009152D01*
X0018385Y0009135D01*
X0018365Y0009116D01*
Y0009466D01*
X0018385Y0009447D01*
D02*
G37*
G36*
Y0008797D02*
X0018405Y000878D01*
X0018425Y0008765D01*
X0018446Y0008752D01*
X0018467Y0008741D01*
X0018488Y0008732D01*
X0018509Y0008725D01*
X0018531Y000872D01*
X0018553Y0008717D01*
X0018575Y0008716D01*
Y0008566D01*
X0018553Y0008565D01*
X0018531Y0008562D01*
X0018509Y0008557D01*
X0018488Y000855D01*
X0018467Y0008541D01*
X0018446Y000853D01*
X0018425Y0008517D01*
X0018405Y0008502D01*
X0018385Y0008485D01*
X0018365Y0008466D01*
Y0008816D01*
X0018385Y0008797D01*
D02*
G37*
G36*
Y0008147D02*
X0018405Y000813D01*
X0018425Y0008115D01*
X0018446Y0008102D01*
X0018467Y0008091D01*
X0018488Y0008082D01*
X0018509Y0008075D01*
X0018531Y000807D01*
X0018553Y0008067D01*
X0018575Y0008066D01*
Y0007916D01*
X0018553Y0007915D01*
X0018531Y0007912D01*
X0018509Y0007907D01*
X0018488Y00079D01*
X0018467Y0007891D01*
X0018446Y000788D01*
X0018425Y0007867D01*
X0018405Y0007852D01*
X0018385Y0007835D01*
X0018365Y0007816D01*
Y0008166D01*
X0018385Y0008147D01*
D02*
G37*
G36*
X001631Y0007793D02*
X0016293Y0007773D01*
X0016278Y0007753D01*
X0016265Y0007732D01*
X0016254Y0007711D01*
X0016245Y000769D01*
X0016238Y0007669D01*
X0016233Y0007647D01*
X001623Y0007625D01*
X0016229Y0007603D01*
X0016079D01*
X0016078Y0007625D01*
X0016075Y0007647D01*
X001607Y0007669D01*
X0016063Y000769D01*
X0016054Y0007711D01*
X0016043Y0007732D01*
X001603Y0007753D01*
X0016015Y0007773D01*
X0015998Y0007793D01*
X0015979Y0007813D01*
X0016329D01*
X001631Y0007793D01*
D02*
G37*
G36*
X001377D02*
X0013753Y0007773D01*
X0013738Y0007753D01*
X0013725Y0007732D01*
X0013714Y0007711D01*
X0013705Y000769D01*
X0013698Y0007669D01*
X0013693Y0007647D01*
X001369Y0007625D01*
X0013689Y0007603D01*
X0013539D01*
X0013538Y0007625D01*
X0013535Y0007647D01*
X001353Y0007669D01*
X0013523Y000769D01*
X0013514Y0007711D01*
X0013503Y0007732D01*
X001349Y0007753D01*
X0013475Y0007773D01*
X0013458Y0007793D01*
X0013439Y0007813D01*
X0013789D01*
X001377Y0007793D01*
D02*
G37*
G36*
X000182Y0007137D02*
X000167Y0006912D01*
X0001668Y0006941D01*
X0001664Y0006966D01*
X0001656Y0006989D01*
X0001646Y0007008D01*
X0001633Y0007025D01*
X0001616Y0007038D01*
X0001597Y0007049D01*
X0001574Y0007056D01*
X0001565Y0007058D01*
X0001556Y0007057D01*
X0001536Y0007053D01*
X000152Y0007048D01*
X0001506Y0007042D01*
X0001496Y0007034D01*
X0001488Y0007026D01*
X0001484Y0007016D01*
X0001482Y0007005D01*
Y0007287D01*
X0001484Y0007273D01*
X0001488Y000726D01*
X0001496Y0007249D01*
X0001506Y0007239D01*
X000152Y0007231D01*
X0001536Y0007224D01*
X0001556Y0007219D01*
X0001567Y0007217D01*
X0001574Y0007218D01*
X0001597Y0007226D01*
X0001616Y0007236D01*
X0001633Y000725D01*
X0001646Y0007266D01*
X0001656Y0007286D01*
X0001664Y0007308D01*
X0001668Y0007334D01*
X000167Y0007362D01*
X000182Y0007137D01*
D02*
G37*
G36*
X0000338Y0006505D02*
X0000337Y0006518D01*
X0000332Y000653D01*
X0000325Y0006541D01*
X0000314Y000655D01*
X0000301Y0006558D01*
X0000284Y0006564D01*
X0000265Y0006569D01*
X0000242Y0006573D01*
X0000217Y0006575D01*
X0000188Y0006576D01*
Y0006726D01*
X0000217Y0006727D01*
X0000242Y0006729D01*
X0000265Y0006732D01*
X0000284Y0006737D01*
X0000301Y0006744D01*
X0000314Y0006751D01*
X0000325Y0006761D01*
X0000332Y0006771D01*
X0000337Y0006783D01*
X0000338Y0006797D01*
Y0006505D01*
D02*
G37*
G36*
X0006161Y0006557D02*
X0006144Y0006537D01*
X0006129Y0006517D01*
X0006116Y0006496D01*
X0006105Y0006476D01*
X0006096Y0006454D01*
X0006089Y0006433D01*
X0006084Y0006411D01*
X0006081Y0006389D01*
X000608Y0006367D01*
X000593D01*
X0005929Y0006389D01*
X0005926Y0006411D01*
X0005921Y0006433D01*
X0005914Y0006454D01*
X0005905Y0006476D01*
X0005894Y0006496D01*
X0005881Y0006517D01*
X0005866Y0006537D01*
X0005849Y0006557D01*
X000583Y0006577D01*
X000618D01*
X0006161Y0006557D01*
D02*
G37*
G36*
X0005058D02*
X0005041Y0006537D01*
X0005026Y0006517D01*
X0005013Y0006496D01*
X0005002Y0006476D01*
X0004993Y0006454D01*
X0004986Y0006433D01*
X0004981Y0006411D01*
X0004978Y0006389D01*
X0004977Y0006367D01*
X0004827D01*
X0004826Y0006389D01*
X0004823Y0006411D01*
X0004818Y0006433D01*
X0004811Y0006454D01*
X0004802Y0006476D01*
X0004791Y0006496D01*
X0004778Y0006517D01*
X0004763Y0006537D01*
X0004746Y0006557D01*
X0004727Y0006577D01*
X0005077D01*
X0005058Y0006557D01*
D02*
G37*
G36*
X0001484Y0006277D02*
X0001488Y0006265D01*
X0001495Y0006255D01*
X0001505Y0006246D01*
X0001518Y0006239D01*
X0001534Y0006233D01*
X0001553Y0006228D01*
X0001574Y0006225D01*
X0001598Y0006222D01*
X0001626Y0006222D01*
Y0006072D01*
X0001598Y0006071D01*
X0001574Y0006069D01*
X0001553Y0006066D01*
X0001534Y0006061D01*
X0001518Y0006055D01*
X0001505Y0006048D01*
X0001495Y0006039D01*
X0001488Y0006029D01*
X0001484Y0006018D01*
X0001482Y0006005D01*
Y000629D01*
X0001484Y0006277D01*
D02*
G37*
G36*
X0001484Y0005783D02*
X0001488Y0005771D01*
X0001496Y0005761D01*
X0001506Y0005751D01*
X000152Y0005744D01*
X0001536Y0005737D01*
X0001556Y0005732D01*
X0001578Y0005729D01*
X0001604Y0005727D01*
X0001632Y0005726D01*
Y0005576D01*
X0001604Y0005575D01*
X0001578Y0005573D01*
X0001556Y0005569D01*
X0001536Y0005564D01*
X000152Y0005558D01*
X0001506Y000555D01*
X0001496Y0005541D01*
X0001488Y000553D01*
X0001484Y0005518D01*
X0001482Y0005505D01*
Y0005797D01*
X0001484Y0005783D01*
D02*
G37*
G36*
X0000338Y0005505D02*
X0000337Y0005518D01*
X0000332Y000553D01*
X0000325Y0005541D01*
X0000314Y000555D01*
X0000301Y0005558D01*
X0000284Y0005564D01*
X0000265Y0005569D01*
X0000242Y0005573D01*
X0000217Y0005575D01*
X0000188Y0005576D01*
Y0005726D01*
X0000217Y0005727D01*
X0000242Y0005729D01*
X0000265Y0005732D01*
X0000284Y0005737D01*
X0000301Y0005744D01*
X0000314Y0005751D01*
X0000325Y0005761D01*
X0000332Y0005771D01*
X0000337Y0005783D01*
X0000338Y0005797D01*
Y0005505D01*
D02*
G37*
G36*
X0028424Y0005595D02*
X0028426Y000557D01*
X002843Y0005547D01*
X0028435Y0005527D01*
X0028442Y0005509D01*
X002845Y0005493D01*
X002846Y000548D01*
X0028471Y000547D01*
X0028484Y0005461D01*
X0028498Y0005455D01*
X0028198D01*
X0028212Y0005461D01*
X0028225Y000547D01*
X0028236Y000548D01*
X0028246Y0005493D01*
X0028254Y0005509D01*
X0028261Y0005527D01*
X0028266Y0005547D01*
X002827Y000557D01*
X0028272Y0005595D01*
X0028273Y0005623D01*
X0028423D01*
X0028424Y0005595D01*
D02*
G37*
G36*
X0026834D02*
X0026836Y000557D01*
X002684Y0005547D01*
X0026845Y0005527D01*
X0026852Y0005509D01*
X002686Y0005493D01*
X002687Y000548D01*
X0026881Y000547D01*
X0026894Y0005461D01*
X0026908Y0005455D01*
X0026608D01*
X0026622Y0005461D01*
X0026635Y000547D01*
X0026646Y000548D01*
X0026656Y0005493D01*
X0026664Y0005509D01*
X0026671Y0005527D01*
X0026676Y0005547D01*
X002668Y000557D01*
X0026682Y0005595D01*
X0026683Y0005623D01*
X0026833D01*
X0026834Y0005595D01*
D02*
G37*
G36*
X0028424Y0005345D02*
X0028427Y0005323D01*
X0028432Y0005301D01*
X0028439Y000528D01*
X0028448Y0005258D01*
X0028459Y0005238D01*
X0028472Y0005217D01*
X0028487Y0005197D01*
X0028504Y0005177D01*
X0028523Y0005157D01*
X0028173D01*
X0028192Y0005177D01*
X0028209Y0005197D01*
X0028224Y0005217D01*
X0028237Y0005238D01*
X0028248Y0005258D01*
X0028257Y000528D01*
X0028264Y0005301D01*
X0028269Y0005323D01*
X0028272Y0005345D01*
X0028273Y0005367D01*
X0028423D01*
X0028424Y0005345D01*
D02*
G37*
G36*
X0026834D02*
X0026837Y0005323D01*
X0026842Y0005301D01*
X0026849Y000528D01*
X0026858Y0005258D01*
X0026869Y0005238D01*
X0026882Y0005217D01*
X0026897Y0005197D01*
X0026914Y0005177D01*
X0026933Y0005157D01*
X0026583D01*
X0026602Y0005177D01*
X0026619Y0005197D01*
X0026634Y0005217D01*
X0026647Y0005238D01*
X0026658Y0005258D01*
X0026667Y000528D01*
X0026674Y0005301D01*
X0026679Y0005323D01*
X0026682Y0005345D01*
X0026683Y0005367D01*
X0026833D01*
X0026834Y0005345D01*
D02*
G37*
G36*
X0008367Y0004997D02*
X000835Y0004977D01*
X0008335Y0004957D01*
X0008322Y0004936D01*
X0008311Y0004916D01*
X0008302Y0004894D01*
X0008295Y0004873D01*
X000829Y0004851D01*
X0008287Y0004829D01*
X0008286Y0004807D01*
X0008136D01*
X0008135Y0004829D01*
X0008132Y0004851D01*
X0008127Y0004873D01*
X000812Y0004894D01*
X0008111Y0004916D01*
X00081Y0004936D01*
X0008087Y0004957D01*
X0008072Y0004977D01*
X0008055Y0004997D01*
X0008036Y0005017D01*
X0008386D01*
X0008367Y0004997D01*
D02*
G37*
G36*
X0007264D02*
X0007247Y0004977D01*
X0007232Y0004957D01*
X0007219Y0004936D01*
X0007208Y0004916D01*
X0007199Y0004894D01*
X0007192Y0004873D01*
X0007187Y0004851D01*
X0007184Y0004829D01*
X0007183Y0004807D01*
X0007033D01*
X0007032Y0004829D01*
X0007029Y0004851D01*
X0007024Y0004873D01*
X0007017Y0004894D01*
X0007008Y0004916D01*
X0006997Y0004936D01*
X0006984Y0004957D01*
X0006969Y0004977D01*
X0006952Y0004997D01*
X0006933Y0005017D01*
X0007283D01*
X0007264Y0004997D01*
D02*
G37*
G36*
X0034848Y0002217D02*
X0034851Y0002192D01*
X0034854Y0002169D01*
X003486Y0002149D01*
X0034866Y0002131D01*
X0034875Y0002115D01*
X0034884Y0002102D01*
X0034896Y0002091D01*
X0034908Y0002083D01*
X0034923Y0002077D01*
X0034623D01*
X0034637Y0002083D01*
X003465Y0002091D01*
X0034661Y0002102D01*
X0034671Y0002115D01*
X0034679Y0002131D01*
X0034686Y0002149D01*
X0034691Y0002169D01*
X0034695Y0002192D01*
X0034697Y0002217D01*
X0034698Y0002245D01*
X0034848D01*
X0034848Y0002217D01*
D02*
G37*
G36*
X003298D02*
X0032982Y0002192D01*
X0032986Y0002169D01*
X0032991Y0002149D01*
X0032998Y0002131D01*
X0033006Y0002115D01*
X0033016Y0002102D01*
X0033027Y0002091D01*
X003304Y0002083D01*
X0033054Y0002077D01*
X0032754D01*
X0032769Y0002083D01*
X0032781Y0002091D01*
X0032793Y0002102D01*
X0032802Y0002115D01*
X0032811Y0002131D01*
X0032817Y0002149D01*
X0032823Y0002169D01*
X0032826Y0002192D01*
X0032829Y0002217D01*
X0032829Y0002245D01*
X0032979D01*
X003298Y0002217D01*
D02*
G37*
G36*
X003298Y0001966D02*
X0032983Y0001944D01*
X0032988Y0001923D01*
X0032995Y0001901D01*
X0033004Y000188D01*
X0033015Y0001859D01*
X0033028Y0001839D01*
X0033043Y0001819D01*
X003306Y0001798D01*
X0033079Y0001779D01*
X0032729D01*
X0032748Y0001798D01*
X0032765Y0001819D01*
X003278Y0001839D01*
X0032793Y0001859D01*
X0032804Y000188D01*
X0032813Y0001901D01*
X003282Y0001923D01*
X0032825Y0001944D01*
X0032828Y0001966D01*
X0032829Y0001989D01*
X0032979D01*
X003298Y0001966D01*
D02*
G37*
G36*
X0034849Y0001967D02*
X0034852Y0001945D01*
X0034857Y0001923D01*
X0034864Y0001902D01*
X0034873Y0001881D01*
X0034884Y000186D01*
X0034897Y000184D01*
X0034912Y0001819D01*
X0034929Y00018D01*
X0034948Y000178D01*
X0034598Y0001777D01*
X0034617Y0001797D01*
X0034634Y0001818D01*
X0034649Y0001838D01*
X0034662Y0001859D01*
X0034673Y000188D01*
X0034682Y0001901D01*
X0034689Y0001922D01*
X0034694Y0001944D01*
X0034697Y0001966D01*
X0034698Y0001988D01*
X0034848Y0001989D01*
X0034849Y0001967D01*
D02*
G37*
G36*
X-0000933Y0001455D02*
X-0000931Y000143D01*
X-0000927Y0001407D01*
X-0000922Y0001387D01*
X-0000915Y0001369D01*
X-0000907Y0001353D01*
X-0000897Y000134D01*
X-0000886Y0001329D01*
X-0000873Y0001321D01*
X-0000859Y0001315D01*
X-0001159D01*
X-0001145Y0001321D01*
X-0001132Y0001329D01*
X-0001121Y000134D01*
X-0001111Y0001353D01*
X-0001103Y0001369D01*
X-0001096Y0001387D01*
X-0001091Y0001407D01*
X-0001087Y000143D01*
X-0001085Y0001455D01*
X-0001084Y0001483D01*
X-0000934D01*
X-0000933Y0001455D01*
D02*
G37*
G36*
X-0000933Y0001204D02*
X-000093Y0001182D01*
X-0000925Y0001161D01*
X-0000918Y0001139D01*
X-0000909Y0001118D01*
X-0000898Y0001097D01*
X-0000885Y0001077D01*
X-000087Y0001056D01*
X-0000853Y0001036D01*
X-0000834Y0001017D01*
X-0001184D01*
X-0001165Y0001036D01*
X-0001148Y0001056D01*
X-0001133Y0001077D01*
X-000112Y0001097D01*
X-0001109Y0001118D01*
X-00011Y0001139D01*
X-0001093Y0001161D01*
X-0001088Y0001182D01*
X-0001085Y0001204D01*
X-0001084Y0001227D01*
X-0000934D01*
X-0000933Y0001204D01*
D02*
G37*
G36*
X0001499Y0009093D02*
X0001499Y0008509D01*
X0001473Y0008484D01*
X-0000025D01*
X-0000152Y0008357D01*
X-0000152Y0004369D01*
X-0000102Y0004318D01*
X000254Y0004318D01*
X0002743Y0004115D01*
X0002743Y0000203D01*
X0002693Y0000152D01*
X0001854D01*
X0001778Y0000229D01*
Y0003632D01*
X0001727Y0003683D01*
X-0000711Y0003683D01*
X-0000787Y0003759D01*
Y0008966D01*
X-0000635Y0009119D01*
X0001473Y0009119D01*
X0001499Y0009093D01*
D02*
G37*
G36*
X001623Y-0000026D02*
X0016232Y-0000052D01*
X0016236Y-0000075D01*
X0016241Y-0000095D01*
X0016248Y-0000112D01*
X0016256Y-0000125D01*
X0016266Y-0000136D01*
X0016277Y-0000144D01*
X001629Y-0000148D01*
X0016304Y-000015D01*
X0016004D01*
X0016019Y-0000148D01*
X0016031Y-0000144D01*
X0016043Y-0000136D01*
X0016052Y-0000125D01*
X0016061Y-0000112D01*
X0016067Y-0000095D01*
X0016073Y-0000075D01*
X0016076Y-0000052D01*
X0016079Y-0000026D01*
X0016079Y0000003D01*
X0016229D01*
X001623Y-0000026D01*
D02*
G37*
G36*
X001369D02*
X0013692Y-0000052D01*
X0013696Y-0000075D01*
X0013701Y-0000095D01*
X0013708Y-0000112D01*
X0013716Y-0000125D01*
X0013726Y-0000136D01*
X0013737Y-0000144D01*
X001375Y-0000148D01*
X0013764Y-000015D01*
X0013464D01*
X0013479Y-0000148D01*
X0013491Y-0000144D01*
X0013503Y-0000136D01*
X0013512Y-0000125D01*
X0013521Y-0000112D01*
X0013527Y-0000095D01*
X0013533Y-0000075D01*
X0013536Y-0000052D01*
X0013539Y-0000026D01*
X0013539Y0000003D01*
X0013689D01*
X001369Y-0000026D01*
D02*
G37*
G36*
X001623Y-0001031D02*
X0016233Y-0001053D01*
X0016238Y-0001074D01*
X0016245Y-0001096D01*
X0016254Y-0001117D01*
X0016265Y-0001138D01*
X0016278Y-0001158D01*
X0016293Y-0001179D01*
X001631Y-0001199D01*
X0016329Y-0001218D01*
X0015979D01*
X0015998Y-0001199D01*
X0016015Y-0001179D01*
X001603Y-0001158D01*
X0016043Y-0001138D01*
X0016054Y-0001117D01*
X0016063Y-0001096D01*
X001607Y-0001074D01*
X0016075Y-0001053D01*
X0016078Y-0001031D01*
X0016079Y-0001009D01*
X0016229D01*
X001623Y-0001031D01*
D02*
G37*
G36*
X001369D02*
X0013693Y-0001053D01*
X0013698Y-0001074D01*
X0013705Y-0001096D01*
X0013714Y-0001117D01*
X0013725Y-0001138D01*
X0013738Y-0001158D01*
X0013753Y-0001179D01*
X001377Y-0001199D01*
X0013789Y-0001218D01*
X0013439D01*
X0013458Y-0001199D01*
X0013475Y-0001179D01*
X001349Y-0001158D01*
X0013503Y-0001138D01*
X0013514Y-0001117D01*
X0013523Y-0001096D01*
X001353Y-0001074D01*
X0013535Y-0001053D01*
X0013538Y-0001031D01*
X0013539Y-0001009D01*
X0013689D01*
X001369Y-0001031D01*
D02*
G37*
G36*
X0020091Y0017323D02*
X0020828Y0016586D01*
Y0015469D01*
X002098Y0015316D01*
X0022733Y0015316D01*
X0022936Y0015113D01*
X0022936Y0012217D01*
X0023241Y0011913D01*
X0037033Y0011913D01*
X0037236Y0011709D01*
Y-0002464D01*
X0037059Y-0002642D01*
X0035916D01*
X0035712Y-0002438D01*
X0035712Y0009906D01*
X0035331Y0010287D01*
X0019431Y0010287D01*
X0019Y0010718D01*
X0018996Y0015167D01*
X0018211Y0015951D01*
X0003023Y0015951D01*
X000287Y0016104D01*
X000287Y0017145D01*
X0003048Y0017323D01*
X0020091Y0017323D01*
D02*
G37*
G36*
X0019456Y0006121D02*
Y-0002489D01*
X0019279Y-0002667D01*
X0018085D01*
X0017932Y-0002515D01*
Y0006147D01*
X0018263Y0006477D01*
X0019101D01*
X0019456Y0006121D01*
D02*
G37*
G36*
X000167Y0003575D02*
Y0000483D01*
X0001676D01*
Y0000213D01*
X0001701Y0000152D01*
X0001701Y0000152D01*
X0001676Y0000092D01*
X0001676Y-0002565D01*
X0001549Y-0002692D01*
X0000279Y-0002692D01*
X0000151Y-0002564D01*
X0000151Y0000028D01*
X0000115Y0000115D01*
X0Y0000162D01*
X-0000657D01*
X-0000709Y0000289D01*
X-0000409Y000059D01*
Y0001087D01*
X-000076Y0001438D01*
X-000082D01*
Y0003482D01*
X-0000779Y0003531D01*
X-0000733Y000356D01*
X-0000693Y0003575D01*
X000167Y0003575D01*
D02*
G37*
%LPC*%
G36*
X0007386Y0031966D02*
X0006889D01*
X0006578Y0031655D01*
X0006502Y0031628D01*
X0006427Y0031655D01*
X0006116Y0031966D01*
X0005619D01*
X0005267Y0031615D01*
Y0031118D01*
X0005619Y0030766D01*
X0006116D01*
X0006427Y0031077D01*
X0006502Y0031105D01*
X0006578Y0031077D01*
X0006889Y0030766D01*
X0007386D01*
X0007737Y0031118D01*
Y0031615D01*
X0007386Y0031966D01*
D02*
G37*
G36*
X0019962Y0028681D02*
X0019672D01*
X0019467Y0028476D01*
Y0028186D01*
X0019672Y0027981D01*
X0019962D01*
X0020096Y0028115D01*
X0020108Y0028122D01*
X0020121Y0028139D01*
X0020127Y0028146D01*
X0020142Y0028161D01*
X0020152Y0028169D01*
X0020162Y0028175D01*
X0020172Y002818D01*
X0020178Y0028182D01*
X0020419D01*
X0020588Y0028014D01*
Y0019177D01*
X0020643Y0019043D01*
X0020944Y0018742D01*
X0020944Y0018742D01*
X0021078Y0018687D01*
X0021078Y0018687D01*
X0036528D01*
X0036537Y0018684D01*
X003655Y0018679D01*
X0036563Y0018672D01*
X0036577Y0018663D01*
X0036591Y0018653D01*
X0036606Y001864D01*
X0036623Y0018623D01*
X0036642Y0018616D01*
X0036732Y0018526D01*
X0037022D01*
X0037227Y0018731D01*
Y0019021D01*
X0037022Y0019226D01*
X0036732D01*
X0036642Y0019137D01*
X0036623Y0019129D01*
X0036606Y0019113D01*
X0036591Y00191D01*
X0036577Y001909D01*
X0036563Y0019081D01*
X003655Y0019074D01*
X0036537Y0019069D01*
X0036528Y0019066D01*
X0021156D01*
X0020967Y0019255D01*
Y0028092D01*
X0020911Y0028226D01*
X0020911Y0028226D01*
X0020632Y0028506D01*
X0020498Y0028561D01*
X0020144D01*
X0020134Y0028564D01*
X0020119Y0028569D01*
X0020102Y0028576D01*
X0020086Y0028584D01*
X0020047Y0028607D01*
X0020027Y0028622D01*
X0020021Y0028623D01*
X0019962Y0028681D01*
D02*
G37*
%LPD*%
G36*
X0019989Y0028517D02*
X0020035Y0028489D01*
X0020057Y0028478D01*
X002008Y0028468D01*
X0020102Y0028461D01*
X0020124Y0028455D01*
X0020146Y002845D01*
X0020168Y0028448D01*
X0020189Y0028447D01*
X0020215Y0028297D01*
X0020192Y0028296D01*
X002017Y0028292D01*
X0020149Y0028287D01*
X0020128Y0028279D01*
X0020109Y0028269D01*
X002009Y0028257D01*
X0020072Y0028243D01*
X0020054Y0028227D01*
X0020038Y0028208D01*
X0020022Y0028188D01*
X0019965Y0028533D01*
X0019989Y0028517D01*
D02*
G37*
G36*
X0036698Y0018701D02*
X0036678Y001872D01*
X0036658Y0018737D01*
X0036638Y0018752D01*
X0036617Y0018765D01*
X0036597Y0018776D01*
X0036575Y0018785D01*
X0036554Y0018792D01*
X0036532Y0018797D01*
X003651Y00188D01*
X0036488Y0018801D01*
Y0018951D01*
X003651Y0018952D01*
X0036532Y0018955D01*
X0036554Y001896D01*
X0036575Y0018967D01*
X0036597Y0018976D01*
X0036617Y0018987D01*
X0036638Y0019D01*
X0036658Y0019015D01*
X0036678Y0019032D01*
X0036698Y0019051D01*
Y0018701D01*
D02*
G37*
%LPC*%
G36*
X0011372Y0012241D02*
X0011082D01*
X0010993Y0012152D01*
X0010974Y0012144D01*
X0010957Y0012128D01*
X0010942Y0012115D01*
X0010928Y0012105D01*
X0010914Y0012096D01*
X0010901Y0012089D01*
X0010888Y0012084D01*
X0010879Y0012081D01*
X000646D01*
X0006326Y0012025D01*
X0004768Y0010467D01*
X0004713Y0010333D01*
Y0009375D01*
X000471Y0009365D01*
X0004704Y0009353D01*
X0004697Y000934D01*
X0004689Y0009326D01*
X0004678Y0009312D01*
X0004666Y0009297D01*
X0004649Y000928D01*
X0004642Y0009261D01*
X0004552Y0009171D01*
Y0008881D01*
X0004757Y0008676D01*
X0005047D01*
X0005252Y0008881D01*
Y0009171D01*
X0005163Y0009261D01*
X0005155Y000928D01*
X0005139Y0009297D01*
X0005126Y0009312D01*
X0005116Y0009326D01*
X0005107Y000934D01*
X00051Y0009353D01*
X0005095Y0009365D01*
X0005092Y0009375D01*
Y0010255D01*
X0006539Y0011702D01*
X0010879D01*
X0010888Y0011699D01*
X0010901Y0011693D01*
X0010914Y0011686D01*
X0010928Y0011678D01*
X0010942Y0011667D01*
X0010948Y0011662D01*
X0010957Y0011649D01*
X0010972Y0011545D01*
X0010949Y0011495D01*
X0010948Y0011494D01*
X0010931Y0011478D01*
X0010916Y0011465D01*
X0010902Y0011455D01*
X0010888Y0011446D01*
X0010875Y0011439D01*
X0010862Y0011434D01*
X0010853Y0011431D01*
X0006847D01*
X0006713Y0011375D01*
X0005871Y0010533D01*
X0005816Y0010399D01*
Y0009375D01*
X0005813Y0009365D01*
X0005807Y0009353D01*
X00058Y000934D01*
X0005792Y0009326D01*
X0005781Y0009312D01*
X0005769Y0009297D01*
X0005752Y000928D01*
X0005745Y0009261D01*
X0005655Y0009171D01*
Y0008881D01*
X000586Y0008676D01*
X000615D01*
X0006355Y0008881D01*
Y0009171D01*
X0006266Y0009261D01*
X0006258Y000928D01*
X0006242Y0009297D01*
X0006229Y0009312D01*
X0006219Y0009326D01*
X000621Y000934D01*
X0006203Y0009353D01*
X0006198Y0009365D01*
X0006195Y0009375D01*
Y0010321D01*
X0006925Y0011052D01*
X0010853D01*
X0010862Y0011049D01*
X0010875Y0011043D01*
X0010888Y0011036D01*
X0010902Y0011028D01*
X0010916Y0011017D01*
X001093Y0011005D01*
X0010948Y0010988D01*
X0010949Y0010988D01*
X0010972Y0010938D01*
X0010957Y0010834D01*
X0010948Y001082D01*
X0010942Y0010815D01*
X0010928Y0010805D01*
X0010914Y0010796D01*
X0010901Y0010789D01*
X0010888Y0010784D01*
X0010879Y0010781D01*
X0007196D01*
X0007062Y0010725D01*
X0006974Y0010637D01*
X0006919Y0010503D01*
Y0007865D01*
X0006916Y0007855D01*
X000691Y0007843D01*
X0006904Y000783D01*
X0006895Y0007816D01*
X0006884Y0007802D01*
X0006872Y0007787D01*
X0006855Y000777D01*
X0006848Y0007751D01*
X0006758Y0007661D01*
Y0007371D01*
X0006963Y0007166D01*
X0007253D01*
X0007458Y0007371D01*
Y0007661D01*
X0007369Y0007751D01*
X0007361Y000777D01*
X0007345Y0007787D01*
X0007332Y0007802D01*
X0007322Y0007816D01*
X0007313Y000783D01*
X0007306Y0007843D01*
X0007301Y0007855D01*
X0007298Y0007865D01*
Y0010402D01*
X0010879D01*
X0010888Y0010399D01*
X0010901Y0010393D01*
X0010914Y0010386D01*
X0010928Y0010378D01*
X0010935Y0010372D01*
X0010943Y0010364D01*
X0010958Y0010303D01*
X001096Y0010241D01*
X0010955Y0010213D01*
X0010936Y0010193D01*
X001093Y0010189D01*
X0010925Y0010182D01*
X0010881Y0010138D01*
X001088Y0010137D01*
X0010871Y0010133D01*
X0010865Y0010131D01*
X0008299D01*
X0008165Y0010075D01*
X0008077Y0009987D01*
X0008022Y0009853D01*
Y0007865D01*
X0008019Y0007855D01*
X0008013Y0007843D01*
X0008007Y000783D01*
X0007998Y0007816D01*
X0007987Y0007802D01*
X0007975Y0007787D01*
X0007958Y000777D01*
X0007951Y0007751D01*
X0007861Y0007661D01*
Y0007371D01*
X0008066Y0007166D01*
X0008356D01*
X0008561Y0007371D01*
Y0007661D01*
X0008472Y0007751D01*
X0008464Y000777D01*
X0008448Y0007787D01*
X0008435Y0007802D01*
X0008425Y0007816D01*
X0008416Y000783D01*
X0008409Y0007843D01*
X0008404Y0007855D01*
X0008401Y0007865D01*
Y0009752D01*
X0010906D01*
X0010916Y0009749D01*
X0010932Y0009744D01*
X0010949Y0009737D01*
X0010965Y0009729D01*
X0011006Y0009707D01*
X0011027Y0009693D01*
X001103Y0009692D01*
X0011082Y000964D01*
X0011372D01*
X0011577Y0009845D01*
Y0010135D01*
X0011422Y001029D01*
X0011577Y0010446D01*
Y0010736D01*
X0011384Y0010929D01*
X0011551Y0011096D01*
Y0011386D01*
X0011384Y0011553D01*
X0011577Y0011746D01*
Y0012036D01*
X0011372Y0012241D01*
D02*
G37*
G36*
X0021544Y0006135D02*
X0020444D01*
Y0004075D01*
X0021544D01*
Y0006135D01*
D02*
G37*
%LPD*%
G36*
X0011049Y0011716D02*
X0011029Y0011735D01*
X0011009Y0011752D01*
X0010989Y0011767D01*
X0010968Y001178D01*
X0010947Y0011791D01*
X0010926Y00118D01*
X0010905Y0011807D01*
X0010883Y0011812D01*
X0010861Y0011815D01*
X0010839Y0011816D01*
Y0011966D01*
X0010861Y0011967D01*
X0010883Y001197D01*
X0010905Y0011975D01*
X0010926Y0011982D01*
X0010947Y0011991D01*
X0010968Y0012002D01*
X0010989Y0012015D01*
X0011009Y001203D01*
X0011029Y0012047D01*
X0011049Y0012066D01*
Y0011716D01*
D02*
G37*
G36*
X0011023Y0011066D02*
X0011003Y0011085D01*
X0010983Y0011102D01*
X0010963Y0011117D01*
X0010942Y001113D01*
X0010921Y0011141D01*
X00109Y001115D01*
X0010879Y0011157D01*
X0010857Y0011162D01*
X0010835Y0011165D01*
X0010813Y0011166D01*
Y0011316D01*
X0010835Y0011317D01*
X0010857Y001132D01*
X0010879Y0011325D01*
X00109Y0011332D01*
X0010921Y0011341D01*
X0010942Y0011352D01*
X0010963Y0011365D01*
X0010983Y001138D01*
X0011003Y0011397D01*
X0011023Y0011416D01*
Y0011066D01*
D02*
G37*
G36*
X0011049Y0010416D02*
X0011029Y0010435D01*
X0011009Y0010452D01*
X0010989Y0010467D01*
X0010968Y001048D01*
X0010947Y0010491D01*
X0010926Y00105D01*
X0010905Y0010507D01*
X0010883Y0010512D01*
X0010861Y0010515D01*
X0010839Y0010516D01*
Y0010666D01*
X0010861Y0010667D01*
X0010883Y001067D01*
X0010905Y0010675D01*
X0010926Y0010682D01*
X0010947Y0010691D01*
X0010968Y0010702D01*
X0010989Y0010715D01*
X0011009Y001073D01*
X0011029Y0010747D01*
X0011049Y0010766D01*
Y0010416D01*
D02*
G37*
G36*
X0011086Y0009783D02*
X0011062Y0009799D01*
X0011015Y0009826D01*
X0010992Y0009836D01*
X0010969Y0009845D01*
X0010947Y0009853D01*
X0010925Y0009859D01*
X0010903Y0009863D01*
X0010881Y0009865D01*
X001086Y0009866D01*
X0010829Y0010016D01*
X0010852Y0010017D01*
X0010874Y0010021D01*
X0010895Y0010026D01*
X0010915Y0010034D01*
X0010935Y0010044D01*
X0010953Y0010056D01*
X0010971Y001007D01*
X0010988Y0010087D01*
X0011003Y0010106D01*
X0011018Y0010127D01*
X0011086Y0009783D01*
D02*
G37*
G36*
X0006081Y0009392D02*
X0006084Y000937D01*
X0006089Y0009349D01*
X0006096Y0009327D01*
X0006105Y0009306D01*
X0006116Y0009285D01*
X0006129Y0009265D01*
X0006144Y0009245D01*
X0006161Y0009224D01*
X000618Y0009205D01*
X000583D01*
X0005849Y0009224D01*
X0005866Y0009245D01*
X0005881Y0009265D01*
X0005894Y0009285D01*
X0005905Y0009306D01*
X0005914Y0009327D01*
X0005921Y0009349D01*
X0005926Y000937D01*
X0005929Y0009392D01*
X000593Y0009415D01*
X000608D01*
X0006081Y0009392D01*
D02*
G37*
G36*
X0004978D02*
X0004981Y000937D01*
X0004986Y0009349D01*
X0004993Y0009327D01*
X0005002Y0009306D01*
X0005013Y0009285D01*
X0005026Y0009265D01*
X0005041Y0009245D01*
X0005058Y0009224D01*
X0005077Y0009205D01*
X0004727D01*
X0004746Y0009224D01*
X0004763Y0009245D01*
X0004778Y0009265D01*
X0004791Y0009285D01*
X0004802Y0009306D01*
X0004811Y0009327D01*
X0004818Y0009349D01*
X0004823Y000937D01*
X0004826Y0009392D01*
X0004827Y0009415D01*
X0004977D01*
X0004978Y0009392D01*
D02*
G37*
G36*
X0008287Y0007882D02*
X000829Y000786D01*
X0008295Y0007839D01*
X0008302Y0007817D01*
X0008311Y0007796D01*
X0008322Y0007775D01*
X0008335Y0007755D01*
X000835Y0007734D01*
X0008367Y0007714D01*
X0008386Y0007695D01*
X0008036D01*
X0008055Y0007714D01*
X0008072Y0007734D01*
X0008087Y0007755D01*
X00081Y0007775D01*
X0008111Y0007796D01*
X000812Y0007817D01*
X0008127Y0007839D01*
X0008132Y000786D01*
X0008135Y0007882D01*
X0008136Y0007905D01*
X0008286D01*
X0008287Y0007882D01*
D02*
G37*
G36*
X0007184D02*
X0007187Y000786D01*
X0007192Y0007839D01*
X0007199Y0007817D01*
X0007208Y0007796D01*
X0007219Y0007775D01*
X0007232Y0007755D01*
X0007247Y0007734D01*
X0007264Y0007714D01*
X0007283Y0007695D01*
X0006933D01*
X0006952Y0007714D01*
X0006969Y0007734D01*
X0006984Y0007755D01*
X0006997Y0007775D01*
X0007008Y0007796D01*
X0007017Y0007817D01*
X0007024Y0007839D01*
X0007029Y000786D01*
X0007032Y0007882D01*
X0007033Y0007905D01*
X0007183D01*
X0007184Y0007882D01*
D02*
G37*
%LPC*%
G36*
X-0002597Y0008476D02*
X-0002969D01*
X-0003233Y0008213D01*
Y000784D01*
X-0002969Y0007576D01*
X-0002597D01*
X-0002333Y000784D01*
Y0008213D01*
X-0002597Y0008476D01*
D02*
G37*
G36*
X-0004397D02*
X-0004769D01*
X-0005033Y0008213D01*
Y000784D01*
X-0004769Y0007576D01*
X-0004397D01*
X-0004133Y000784D01*
Y0008213D01*
X-0004397Y0008476D01*
D02*
G37*
%LPD*%
D27*
X0036474Y-0001397D02*
D03*
X0016154D02*
D03*
X0018694D02*
D03*
X0021234D02*
D03*
X0023774D02*
D03*
X0026314D02*
D03*
X0028854D02*
D03*
X0031394D02*
D03*
X0033934D02*
D03*
X0013614D02*
D03*
X0000914D02*
D03*
X0011074D02*
D03*
X0008534D02*
D03*
X0005994D02*
D03*
X0003454D02*
D03*
D35*
X-0002783Y0008026D02*
D03*
X-0004583D02*
D03*
D36*
X0020777Y0019177D02*
X0021078Y0018876D01*
X0036877D01*
X0020777Y0019177D02*
Y0028092D01*
X0019817Y0028331D02*
X0019858Y0028372D01*
X0020498D01*
X0020777Y0028092D01*
X0018412Y0023187D02*
X0019753D01*
X0018471Y0024521D02*
X0019817D01*
X0018388Y0025791D02*
X0019817D01*
X0019753Y0023187D02*
X0019817Y0023251D01*
X0016154Y-0001397D02*
Y0007991D01*
X0013614D02*
Y0008074D01*
Y-0001397D02*
Y0007991D01*
X0006502Y001331D02*
Y001497D01*
X0001995Y000593D02*
Y0015152D01*
X0002388Y0009608D02*
Y0010414D01*
Y0009608D02*
X000242Y0009576D01*
X000091Y0006151D02*
X0001336D01*
X0001745Y0007137D02*
Y0015256D01*
X0001716Y0005651D02*
X0001995Y000593D01*
X0008211Y0007516D02*
Y0009853D01*
X0007108Y0007516D02*
Y0010503D01*
X0006005Y0009026D02*
Y0010399D01*
X0004902Y0009026D02*
Y0010333D01*
X0017856Y0018339D02*
Y0022631D01*
X0018412Y0023187D01*
X0010501Y0008484D02*
X0014681D01*
X0016027Y000983D02*
Y0013866D01*
X0014681Y0008484D02*
X0016027Y000983D01*
X0001745Y0006266D02*
Y0007137D01*
X0000924D02*
X0001745D01*
X000091Y0007151D02*
X0000924Y0007137D01*
X0001626Y0006147D02*
X0001745Y0006266D01*
X0001995Y0015152D02*
X0002369Y0015526D01*
X0000914Y0006147D02*
X0001626D01*
X000091Y0006151D02*
X0000914Y0006147D01*
X0001745Y0015256D02*
X0002265Y0015776D01*
X0002369Y0015526D02*
X0016605D01*
X0002265Y0015776D02*
X0017701D01*
X0018567Y001491D01*
X0016605Y0015526D02*
X0017323Y0014808D01*
X0001495Y0011798D02*
Y0016049D01*
X0002944Y0017498D02*
X0016507D01*
X0001495Y0016049D02*
X0002944Y0017498D01*
X0001178Y0011481D02*
X0001495Y0011798D01*
X0020385Y0017983D02*
X0027559D01*
X0028482Y0017061D01*
X0025214Y0017483D02*
X0025682Y0017016D01*
Y0013276D02*
Y0017016D01*
X0020178Y0017483D02*
X0025214D01*
X0026209Y0017733D02*
X0027082Y001686D01*
X0020282Y0017733D02*
X0026209D01*
X0017094Y0018085D02*
Y0030836D01*
X0016507Y0017498D02*
X0017094Y0018085D01*
X0017606Y0018235D02*
X0018094Y0017748D01*
X0018856D01*
X0017356Y0018132D02*
Y0018894D01*
Y0018132D02*
X001799Y0017498D01*
X0018752D01*
X0018197Y0017998D02*
X0020371D01*
X0017856Y0018339D02*
X0018197Y0017998D01*
X0017606Y0018235D02*
Y0018997D01*
X0018856Y0017748D02*
X0020267D01*
X0018752Y0017498D02*
X0020164D01*
X0017356Y0018894D02*
Y0024759D01*
X0017606Y0018997D02*
Y0023657D01*
X0017094Y0030836D02*
X0017704Y0031445D01*
X0020371Y0017998D02*
X0020385Y0017983D01*
X0020164Y0017498D02*
X0020178Y0017483D01*
X0020267Y0017748D02*
X0020282Y0017733D01*
X-0001009Y0011285D02*
X-0000813Y0011481D01*
X0001178D01*
X-0001009Y0000838D02*
Y0011285D01*
X0009222Y0003941D02*
X0009457Y0004175D01*
X0009957Y0003968D02*
Y000794D01*
X0005525Y0003441D02*
X000943D01*
X0006571Y0003691D02*
X0009326D01*
X0008433Y0004191D02*
X0009119D01*
X0009707Y0004072D02*
Y0008043D01*
X0009119Y0004191D02*
X0009207Y0004279D01*
X000737Y0003941D02*
X0009222D01*
X000943Y0003441D02*
X0009957Y0003968D01*
X0004902Y0004064D02*
X0005525Y0003441D01*
X0008211Y0004412D02*
Y0005196D01*
Y0004412D02*
X0008433Y0004191D01*
X0006005Y0004256D02*
X0006571Y0003691D01*
X0009207Y0004279D02*
Y0008251D01*
X0009457Y0004175D02*
Y0008147D01*
X0009326Y0003691D02*
X0009707Y0004072D01*
X0007108Y0004203D02*
X000737Y0003941D01*
X0006005Y0004256D02*
Y0006756D01*
X0004902Y0004064D02*
Y0006756D01*
X0009207Y0008251D02*
X0010202Y0009246D01*
X0009457Y0008147D02*
X0010305Y0008996D01*
X0009707Y0008043D02*
X0010409Y0008746D01*
X0009957Y000794D02*
X0010501Y0008484D01*
X0007108Y0004203D02*
Y0005196D01*
X0010202Y0009246D02*
X0011608D01*
X0012217Y0009855D01*
X0013648Y0008746D02*
X0014757Y0009855D01*
X0010409Y0008746D02*
X0013648D01*
X0012704Y0008996D02*
X0013487Y0009779D01*
X0010305Y0008996D02*
X0012704D01*
X0012217Y0009855D02*
Y0013866D01*
X0013487Y0009779D02*
Y0013866D01*
X0008299Y0009941D02*
X0011179D01*
X0011227Y000999D01*
X0014757Y0009855D02*
Y0013866D01*
X0008211Y0009853D02*
X0008299Y0009941D01*
X000646Y0011891D02*
X0011227D01*
X0004902Y0010333D02*
X000646Y0011891D01*
X0006847Y0011241D02*
X0011201D01*
X0006005Y0010399D02*
X0006847Y0011241D01*
X0007196Y0010591D02*
X0011227D01*
X0007108Y0010503D02*
X0007196Y0010591D01*
X0003404Y0009594D02*
X0003454Y0009543D01*
X0003404Y0009594D02*
Y0010211D01*
X0002388Y0010414D02*
X0005309Y0013335D01*
Y001497D01*
X0017356Y0024759D02*
X0018388Y0025791D01*
X0017606Y0023657D02*
X0018471Y0024521D01*
X0000023Y000574D02*
X0000112Y0005651D01*
X000091D01*
X0000023Y0006563D02*
X000011Y0006651D01*
X0000023Y000574D02*
Y0006563D01*
X000011Y0006651D02*
X000091D01*
Y0005651D02*
X0001716D01*
X0017704Y0031445D02*
X0018593D01*
X0003404Y0010211D02*
X0006502Y001331D01*
X0018187Y0009941D02*
X0034052D01*
X0018187Y0009291D02*
X0032136D01*
X0018187Y0008641D02*
X0027782D01*
X0018187Y0007991D02*
X0026477D01*
X0026758Y000771D01*
X0027782Y0008641D02*
X0028348Y0008075D01*
X0032136Y0009291D02*
X0032904Y0008523D01*
X0034052Y0009941D02*
X0034773Y000922D01*
X0027082Y0013276D02*
Y001686D01*
X0017297Y0013866D02*
X0017323Y0013892D01*
Y0014808D01*
X0028482Y0013276D02*
Y0017061D01*
X0018567Y0013866D02*
Y001491D01*
X0032904Y00016D02*
Y0008523D01*
X0034773Y00016D02*
Y000922D01*
X0028348Y0004978D02*
Y0008075D01*
X0026758Y0004978D02*
Y000771D01*
D38*
X-0003665Y0002081D02*
D03*
Y0010721D02*
D03*
D39*
X0000335Y0002081D02*
D03*
Y0010721D02*
D03*
D40*
X0037657Y0001075D02*
D03*
X0035157Y0020075D02*
D03*
Y0018075D02*
D03*
Y0014075D02*
D03*
X0034657Y0021075D02*
D03*
X0034157Y0020075D02*
D03*
Y0018075D02*
D03*
X0034657Y0017075D02*
D03*
X0034157Y0004075D02*
D03*
X0033657Y0021075D02*
D03*
X0033157Y0020075D02*
D03*
Y0018075D02*
D03*
X0033657Y0017075D02*
D03*
X0033157Y0014075D02*
D03*
X0033657Y0005075D02*
D03*
X0032657Y0021075D02*
D03*
X0032157Y0020075D02*
D03*
Y0018075D02*
D03*
X0032657Y0017075D02*
D03*
X0032157Y0014075D02*
D03*
Y0006075D02*
D03*
X0031657Y0021075D02*
D03*
X0031157Y0020075D02*
D03*
Y0018075D02*
D03*
X0031657Y0013075D02*
D03*
X0030657Y0021075D02*
D03*
X0030157Y0020075D02*
D03*
Y0016075D02*
D03*
X0029657Y0021075D02*
D03*
X0029157Y0020075D02*
D03*
X0029657Y0015075D02*
D03*
X0029157Y0014075D02*
D03*
X0029657Y0013075D02*
D03*
X0028657Y0021075D02*
D03*
X0028157Y0018075D02*
D03*
X0027657Y0017075D02*
D03*
Y0015075D02*
D03*
X0027157Y0008075D02*
D03*
X0027657Y0007075D02*
D03*
Y0003075D02*
D03*
X0026157Y0016075D02*
D03*
Y0014075D02*
D03*
X0019657Y0031075D02*
D03*
X0018157Y0030075D02*
D03*
X0018657Y0029075D02*
D03*
X0018157Y0028075D02*
D03*
X0018657Y0027075D02*
D03*
Y0025075D02*
D03*
X0017657Y0029075D02*
D03*
Y0027075D02*
D03*
X0017157Y0004075D02*
D03*
X0016157Y0030075D02*
D03*
Y0028075D02*
D03*
Y0026075D02*
D03*
Y0024075D02*
D03*
Y0018075D02*
D03*
X0016657Y0011075D02*
D03*
Y0009075D02*
D03*
Y0007075D02*
D03*
Y0005075D02*
D03*
X0015157Y0030075D02*
D03*
X0015657Y0029075D02*
D03*
X0015157Y0028075D02*
D03*
X0015657Y0027075D02*
D03*
X0015157Y0026075D02*
D03*
X0015657Y0025075D02*
D03*
X0015157Y0024075D02*
D03*
X0015657Y0023075D02*
D03*
X0015157Y0020075D02*
D03*
X0015657Y0019075D02*
D03*
X0015157Y0018075D02*
D03*
X0015657Y0015075D02*
D03*
X0015157Y0008075D02*
D03*
X0015657Y0007075D02*
D03*
X0015157Y0006075D02*
D03*
X0015657Y0005075D02*
D03*
X0015157Y0004075D02*
D03*
X0014157Y0030075D02*
D03*
X0014657Y0029075D02*
D03*
X0014157Y0028075D02*
D03*
X0014657Y0027075D02*
D03*
X0014157Y0026075D02*
D03*
X0014657Y0025075D02*
D03*
X0014157Y0024075D02*
D03*
X0014657Y0021075D02*
D03*
X0014157Y0020075D02*
D03*
X0014657Y0019075D02*
D03*
X0014157Y0018075D02*
D03*
X0014657Y0015075D02*
D03*
X0014157Y0012075D02*
D03*
Y0010075D02*
D03*
X0014657Y0007075D02*
D03*
X0014157Y0006075D02*
D03*
X0014657Y0005075D02*
D03*
X0014157Y0004075D02*
D03*
X0013157Y0030075D02*
D03*
X0013657Y0029075D02*
D03*
X0013157Y0028075D02*
D03*
X0013657Y0027075D02*
D03*
X0013157Y0026075D02*
D03*
X0013657Y0025075D02*
D03*
X0013157Y0022075D02*
D03*
X0013657Y0021075D02*
D03*
X0013157Y0020075D02*
D03*
X0013657Y0019075D02*
D03*
X0013157Y0018075D02*
D03*
X0013657Y0015075D02*
D03*
X0012657Y0023075D02*
D03*
X0012157Y0022075D02*
D03*
X0012657Y0021075D02*
D03*
X0012157Y0020075D02*
D03*
X0012657Y0019075D02*
D03*
X0012157Y0018075D02*
D03*
X0012657Y0015075D02*
D03*
X0012157Y0004075D02*
D03*
X0011157Y0024075D02*
D03*
Y0018075D02*
D03*
X0011657Y0015075D02*
D03*
Y0005075D02*
D03*
X0011157Y0004075D02*
D03*
X0010657Y0025075D02*
D03*
X0010157Y0024075D02*
D03*
Y0018075D02*
D03*
X0010657Y0015075D02*
D03*
Y0005075D02*
D03*
X0009157Y0026075D02*
D03*
X0009657Y0025075D02*
D03*
X0009157Y0024075D02*
D03*
Y0018075D02*
D03*
X0009657Y0015075D02*
D03*
X0008657Y0027075D02*
D03*
X0008157Y0026075D02*
D03*
X0008657Y0025075D02*
D03*
X0008157Y0024075D02*
D03*
Y0018075D02*
D03*
X0008657Y0015075D02*
D03*
X0007157Y0030075D02*
D03*
X0007657Y0029075D02*
D03*
X0007157Y0028075D02*
D03*
X0007657Y0027075D02*
D03*
X0007157Y0026075D02*
D03*
X0007657Y0025075D02*
D03*
X0007157Y0024075D02*
D03*
Y0022075D02*
D03*
Y0020075D02*
D03*
Y0018075D02*
D03*
X0007657Y0015075D02*
D03*
X0006157Y0030075D02*
D03*
X0006657Y0029075D02*
D03*
X0006157Y0028075D02*
D03*
X0006657Y0027075D02*
D03*
X0006157Y0026075D02*
D03*
X0006657Y0025075D02*
D03*
X0006157Y0024075D02*
D03*
X0006657Y0023075D02*
D03*
X0006157Y0022075D02*
D03*
X0006657Y0021075D02*
D03*
X0006157Y0020075D02*
D03*
X0005157Y0030075D02*
D03*
X0005657Y0029075D02*
D03*
X0005157Y0028075D02*
D03*
X0005657Y0027075D02*
D03*
X0005157Y0026075D02*
D03*
X0005657Y0025075D02*
D03*
X0005157Y0024075D02*
D03*
X0005657Y0023075D02*
D03*
X0005157Y0022075D02*
D03*
X0005657Y0021075D02*
D03*
X0003157Y0020075D02*
D03*
X0003657Y0019075D02*
D03*
X0003157Y0004075D02*
D03*
X0002157Y0030075D02*
D03*
X0002657Y0029075D02*
D03*
X0002157Y0028075D02*
D03*
X0002657Y0027075D02*
D03*
X0002157Y0026075D02*
D03*
X0002657Y0025075D02*
D03*
X0002157Y0024075D02*
D03*
X0002657Y0023075D02*
D03*
X0002157Y0022075D02*
D03*
X0002657Y0021075D02*
D03*
X0002157Y0020075D02*
D03*
X0002657Y0019075D02*
D03*
X0002157Y0018075D02*
D03*
X-0001843Y0004075D02*
D03*
Y0002075D02*
D03*
X-0002343Y0005075D02*
D03*
X-0002843Y0004075D02*
D03*
X-0002343Y0003075D02*
D03*
X-0003843Y0008075D02*
D03*
X-0003343Y0005075D02*
D03*
X-0003843Y0004075D02*
D03*
X-0003343Y0003075D02*
D03*
X-0004343Y0005075D02*
D03*
X0019817Y0028331D02*
D03*
X0021202Y0023415D02*
D03*
Y0024122D02*
D03*
Y0026244D02*
D03*
Y0024829D02*
D03*
Y0026951D02*
D03*
Y0027659D02*
D03*
Y0025537D02*
D03*
X0021107Y0028366D02*
D03*
X0021755Y0027659D02*
D03*
Y0028366D02*
D03*
X0019817Y0023251D02*
D03*
Y0024521D02*
D03*
Y0025791D02*
D03*
X0029388Y0018415D02*
D03*
X0036877Y0018876D02*
D03*
X0009777Y0021116D02*
D03*
X0012878Y0010439D02*
D03*
X0012852Y0011862D02*
D03*
X000242Y0009576D02*
D03*
X0008211Y0007516D02*
D03*
X0007108D02*
D03*
X0006005Y0009026D02*
D03*
X0004902D02*
D03*
X0025095Y0000813D02*
D03*
X002761D02*
D03*
X0030099D02*
D03*
X0031521Y0002667D02*
D03*
X002761Y0002318D02*
D03*
Y0003828D02*
D03*
X0016231Y0021981D02*
D03*
X0018593D02*
D03*
X0010358Y0027096D02*
D03*
X0036877Y0021676D02*
D03*
Y0020276D02*
D03*
X0010338Y0028524D02*
D03*
X0009068D02*
D03*
Y0029769D02*
D03*
X0010338D02*
D03*
X0011633Y0027076D02*
D03*
Y0028524D02*
D03*
Y0029769D02*
D03*
X0005918Y001844D02*
D03*
X000475Y0020015D02*
D03*
X0003962Y0022504D02*
D03*
Y0024282D02*
D03*
Y002573D02*
D03*
Y0027076D02*
D03*
Y0028524D02*
D03*
Y0029769D02*
D03*
X0034214Y0012624D02*
D03*
X0031013Y0013741D02*
D03*
X0029058Y0015723D02*
D03*
X0034214Y0013995D02*
D03*
Y0015342D02*
D03*
X0031013Y001524D02*
D03*
Y0016815D02*
D03*
X0029058Y001717D02*
D03*
X0026543Y0020371D02*
D03*
X0003429Y0016332D02*
D03*
Y0016942D02*
D03*
X-0000023Y0011963D02*
D03*
X-0000593Y0011938D02*
D03*
X0000547Y0011963D02*
D03*
X0011227Y000999D02*
D03*
X0003454Y0009543D02*
D03*
X0018593Y0019456D02*
D03*
Y0020752D02*
D03*
X0006502Y001497D02*
D03*
X0005309D02*
D03*
X0002057Y0031366D02*
D03*
X0026314Y-0001397D02*
D03*
X0028854D02*
D03*
X0031394D02*
D03*
X0036877Y0017476D02*
D03*
X002192Y0016256D02*
D03*
X0022441D02*
D03*
X0021399D02*
D03*
Y0015723D02*
D03*
X0022441D02*
D03*
X002192D02*
D03*
X0004699Y0010846D02*
D03*
X003396Y-0001397D02*
D03*
X0000914D02*
D03*
Y-0000686D02*
D03*
Y-0002108D02*
D03*
X0000406D02*
D03*
Y-0000686D02*
D03*
Y-0001397D02*
D03*
X0001422Y-0002108D02*
D03*
Y-0000686D02*
D03*
Y-0001397D02*
D03*
X0011227Y0010591D02*
D03*
X0011201Y0011241D02*
D03*
X0018187D02*
D03*
Y0009941D02*
D03*
Y0009291D02*
D03*
Y0008641D02*
D03*
Y0007991D02*
D03*
X0013614D02*
D03*
X0016154D02*
D03*
Y-0001397D02*
D03*
X0013614D02*
D03*
X0007108Y0005196D02*
D03*
X0004902Y0006756D02*
D03*
X0008211Y0005196D02*
D03*
X0006005Y0006756D02*
D03*
X0008377Y0019716D02*
D03*
X0009777D02*
D03*
X0011177D02*
D03*
Y0021116D02*
D03*
Y0022516D02*
D03*
X0009777D02*
D03*
X0008377D02*
D03*
Y0021116D02*
D03*
X0003327Y0013866D02*
D03*
X0004597D02*
D03*
X0018593Y0031445D02*
D03*
X0000547Y0012522D02*
D03*
X0028482Y0013276D02*
D03*
X0027082D02*
D03*
X0025682D02*
D03*
X0021755Y0023415D02*
D03*
X0022403D02*
D03*
X-0001009Y0000838D02*
D03*
X0011227Y0011891D02*
D03*
X0036119Y-0000787D02*
D03*
X0036881D02*
D03*
Y-0001524D02*
D03*
X0036119Y-0002261D02*
D03*
X0036881D02*
D03*
X0036119Y-0001524D02*
D03*
X0021361Y0014935D02*
D03*
X0021946D02*
D03*
X002253D02*
D03*
Y00143D02*
D03*
X0021946D02*
D03*
X0021361D02*
D03*
X0019202Y-0001397D02*
D03*
Y-0000686D02*
D03*
Y-0002108D02*
D03*
X0018186Y-0001397D02*
D03*
Y-0000686D02*
D03*
Y-0002108D02*
D03*
X0018694D02*
D03*
Y-0000686D02*
D03*
Y-0001397D02*
D03*
X0002083Y0000965D02*
D03*
Y0000559D02*
D03*
X0002489D02*
D03*
Y0000965D02*
D03*
X0018567Y0013866D02*
D03*
X0017297D02*
D03*
X0012217D02*
D03*
X0014757D02*
D03*
X0013487D02*
D03*
X0016027D02*
D03*
X0007137Y0031366D02*
D03*
X0005867D02*
D03*
X0034774Y00016D02*
D03*
X0032904D02*
D03*
X0028348Y0004978D02*
D03*
X0026758D02*
D03*
X-0005156Y0012014D02*
D03*
X-0004586D02*
D03*
X-0004016Y0011989D02*
D03*
X-0003445D02*
D03*
X-0002875D02*
D03*
X-0002304Y0011963D02*
D03*
X-0001734D02*
D03*
X-0001164Y0011938D02*
D03*
X-0000023Y0012522D02*
D03*
X-0000593Y0012497D02*
D03*
X-0001164D02*
D03*
X-0001734Y0012522D02*
D03*
X-0002304D02*
D03*
X-0002875Y0012548D02*
D03*
X-0003445D02*
D03*
X-0004016D02*
D03*
X-0004586Y0012573D02*
D03*
X-0005156D02*
D03*
X0021107Y0031902D02*
D03*
Y0031195D02*
D03*
Y0030488D02*
D03*
Y0029781D02*
D03*
Y0029073D02*
D03*
X0021755Y0031902D02*
D03*
Y0031195D02*
D03*
Y0030488D02*
D03*
Y0029781D02*
D03*
Y0029073D02*
D03*
Y0026951D02*
D03*
Y0026244D02*
D03*
Y0025537D02*
D03*
Y0024829D02*
D03*
Y0024122D02*
D03*
X0022403D02*
D03*
Y0024829D02*
D03*
Y0025537D02*
D03*
Y0026244D02*
D03*
Y0026951D02*
D03*
Y0027659D02*
D03*
Y0028366D02*
D03*
Y0029073D02*
D03*
Y0029781D02*
D03*
Y0030488D02*
D03*
Y0031195D02*
D03*
Y0031902D02*
D03*
D41*
X000091Y0003201D02*
D03*
Y0009601D02*
D03*
Y0008801D02*
D03*
Y0004001D02*
D03*
D42*
Y0004651D02*
D03*
Y0008151D02*
D03*
Y0007651D02*
D03*
Y0005151D02*
D03*
Y0005651D02*
D03*
Y0007151D02*
D03*
Y0006651D02*
D03*
Y0006151D02*
D03*
D43*
X0004597Y0013866D02*
D03*
X0036877Y0017476D02*
D03*
X0005867Y0031366D02*
D03*
X0007137D02*
D03*
X0003327Y0013866D02*
D03*
X0026758Y0004978D02*
D03*
X0028348D02*
D03*
X0032904Y00016D02*
D03*
X0034773D02*
D03*
X-0001009Y0000838D02*
D03*
X0018187Y0011241D02*
D03*
D44*
X0023294Y0005105D02*
D03*
X0020994D02*
D03*
X0018694D02*
D03*
D45*
X0020994Y0011255D02*
D03*
M02*
