G04*
G04 #@! TF.GenerationSoftware,Altium Limited,Altium Designer,23.0.1 (38)*
G04*
G04 Layer_Color=16711935*
%FSTAX43Y43*%
%MOMM*%
G71*
G04*
G04 #@! TF.SameCoordinates,B778C3FE-ACB6-4B2B-825A-9079CAA5F4FE*
G04*
G04*
G04 #@! TF.FilePolarity,Negative*
G04*
G01*
G75*
G04:AMPARAMS|DCode=27|XSize=1.5mm|YSize=2.5mm|CornerRadius=0.375mm|HoleSize=0mm|Usage=FLASHONLY|Rotation=180.000|XOffset=0mm|YOffset=0mm|HoleType=Round|Shape=RoundedRectangle|*
%AMROUNDEDRECTD27*
21,1,1.500,1.750,0,0,180.0*
21,1,0.750,2.500,0,0,180.0*
1,1,0.750,-0.375,0.875*
1,1,0.750,0.375,0.875*
1,1,0.750,0.375,-0.875*
1,1,0.750,-0.375,-0.875*
%
%ADD27ROUNDEDRECTD27*%
%ADD33O,2.327X1.127*%
%ADD34O,1.927X1.127*%
%ADD35C,0.700*%
%ADD43C,1.000*%
%ADD44R,0.900X1.860*%
%ADD45R,3.190X1.860*%
%ADD46R,1.277X0.717*%
%ADD47R,1.277X0.425*%
D27*
X0036474Y-0001397D02*
D03*
X0016154D02*
D03*
X0018694D02*
D03*
X0021234D02*
D03*
X0023774D02*
D03*
X0026314D02*
D03*
X0028854D02*
D03*
X0031394D02*
D03*
X0033934D02*
D03*
X0013614D02*
D03*
X0000914D02*
D03*
X0011074D02*
D03*
X0008534D02*
D03*
X0005994D02*
D03*
X0003454D02*
D03*
D33*
X-0003665Y0002081D02*
D03*
Y0010721D02*
D03*
D34*
X0000335Y0002081D02*
D03*
Y0010721D02*
D03*
D35*
X-0002783Y0008026D02*
D03*
X-0004583D02*
D03*
D43*
X0004597Y0013866D02*
D03*
X0036877Y0017476D02*
D03*
X0005867Y0031366D02*
D03*
X0007137D02*
D03*
X0003327Y0013866D02*
D03*
X0026758Y0004978D02*
D03*
X0028348D02*
D03*
X0032904Y00016D02*
D03*
X0034773D02*
D03*
X-0001009Y0000838D02*
D03*
X0018187Y0011241D02*
D03*
D44*
X0023294Y0005105D02*
D03*
X0020994D02*
D03*
X0018694D02*
D03*
D45*
X0020994Y0011255D02*
D03*
D46*
X000091Y0003201D02*
D03*
Y0009601D02*
D03*
Y0008801D02*
D03*
Y0004001D02*
D03*
D47*
Y0004651D02*
D03*
Y0008151D02*
D03*
Y0007651D02*
D03*
Y0005151D02*
D03*
Y0005651D02*
D03*
Y0007151D02*
D03*
Y0006651D02*
D03*
Y0006151D02*
D03*
M02*
