G04*
G04 #@! TF.GenerationSoftware,Altium Limited,Altium Designer,23.0.1 (38)*
G04*
G04 Layer_Color=2752767*
%FSTAX43Y43*%
%MOMM*%
G71*
G04*
G04 #@! TF.SameCoordinates,B778C3FE-ACB6-4B2B-825A-9079CAA5F4FE*
G04*
G04*
G04 #@! TF.FilePolarity,Positive*
G04*
G01*
G75*
%ADD12C,0.127*%
%ADD49C,0.169*%
D12*
X-0004173Y0001573D02*
Y0002589D01*
X-0003157D01*
Y0001573D01*
X-0004173D01*
Y0010213D02*
Y0011229D01*
X-0003157D01*
Y0010213D01*
X-0004173D01*
X0000335Y0001573D02*
X-0000173Y0002589D01*
X0000843D01*
X0000335Y0001573D01*
Y0010213D02*
X-0000173Y0011229D01*
X0000843D01*
X0000335Y0010213D01*
X0037657Y0000567D02*
X0037911Y0000821D01*
X0038165D01*
X0037911Y0001075D01*
X0038165Y0001329D01*
X0037911D01*
X0037657Y0001583D01*
X0037403Y0001329D01*
X0037149D01*
X0037403Y0001075D01*
X0037149Y0000821D01*
X0037403D01*
X0037657Y0000567D01*
X0035157Y0019567D02*
X0035411Y0019821D01*
X0035665D01*
X0035411Y0020075D01*
X0035665Y0020329D01*
X0035411D01*
X0035157Y0020583D01*
X0034903Y0020329D01*
X0034649D01*
X0034903Y0020075D01*
X0034649Y0019821D01*
X0034903D01*
X0035157Y0019567D01*
Y0017567D02*
X0035411Y0017821D01*
X0035665D01*
X0035411Y0018075D01*
X0035665Y0018329D01*
X0035411D01*
X0035157Y0018583D01*
X0034903Y0018329D01*
X0034649D01*
X0034903Y0018075D01*
X0034649Y0017821D01*
X0034903D01*
X0035157Y0017567D01*
Y0013567D02*
X0035411Y0013821D01*
X0035665D01*
X0035411Y0014075D01*
X0035665Y0014329D01*
X0035411D01*
X0035157Y0014583D01*
X0034903Y0014329D01*
X0034649D01*
X0034903Y0014075D01*
X0034649Y0013821D01*
X0034903D01*
X0035157Y0013567D01*
X0034657Y0020567D02*
X0034911Y0020821D01*
X0035165D01*
X0034911Y0021075D01*
X0035165Y0021329D01*
X0034911D01*
X0034657Y0021583D01*
X0034403Y0021329D01*
X0034149D01*
X0034403Y0021075D01*
X0034149Y0020821D01*
X0034403D01*
X0034657Y0020567D01*
X0034157Y0019567D02*
X0034411Y0019821D01*
X0034665D01*
X0034411Y0020075D01*
X0034665Y0020329D01*
X0034411D01*
X0034157Y0020583D01*
X0033903Y0020329D01*
X0033649D01*
X0033903Y0020075D01*
X0033649Y0019821D01*
X0033903D01*
X0034157Y0019567D01*
Y0017567D02*
X0034411Y0017821D01*
X0034665D01*
X0034411Y0018075D01*
X0034665Y0018329D01*
X0034411D01*
X0034157Y0018583D01*
X0033903Y0018329D01*
X0033649D01*
X0033903Y0018075D01*
X0033649Y0017821D01*
X0033903D01*
X0034157Y0017567D01*
X0034657Y0016567D02*
X0034911Y0016821D01*
X0035165D01*
X0034911Y0017075D01*
X0035165Y0017329D01*
X0034911D01*
X0034657Y0017583D01*
X0034403Y0017329D01*
X0034149D01*
X0034403Y0017075D01*
X0034149Y0016821D01*
X0034403D01*
X0034657Y0016567D01*
X0034157Y0003567D02*
X0034411Y0003821D01*
X0034665D01*
X0034411Y0004075D01*
X0034665Y0004329D01*
X0034411D01*
X0034157Y0004583D01*
X0033903Y0004329D01*
X0033649D01*
X0033903Y0004075D01*
X0033649Y0003821D01*
X0033903D01*
X0034157Y0003567D01*
X0033657Y0020567D02*
X0033911Y0020821D01*
X0034165D01*
X0033911Y0021075D01*
X0034165Y0021329D01*
X0033911D01*
X0033657Y0021583D01*
X0033403Y0021329D01*
X0033149D01*
X0033403Y0021075D01*
X0033149Y0020821D01*
X0033403D01*
X0033657Y0020567D01*
X0033157Y0019567D02*
X0033411Y0019821D01*
X0033665D01*
X0033411Y0020075D01*
X0033665Y0020329D01*
X0033411D01*
X0033157Y0020583D01*
X0032903Y0020329D01*
X0032649D01*
X0032903Y0020075D01*
X0032649Y0019821D01*
X0032903D01*
X0033157Y0019567D01*
Y0017567D02*
X0033411Y0017821D01*
X0033665D01*
X0033411Y0018075D01*
X0033665Y0018329D01*
X0033411D01*
X0033157Y0018583D01*
X0032903Y0018329D01*
X0032649D01*
X0032903Y0018075D01*
X0032649Y0017821D01*
X0032903D01*
X0033157Y0017567D01*
X0033657Y0016567D02*
X0033911Y0016821D01*
X0034165D01*
X0033911Y0017075D01*
X0034165Y0017329D01*
X0033911D01*
X0033657Y0017583D01*
X0033403Y0017329D01*
X0033149D01*
X0033403Y0017075D01*
X0033149Y0016821D01*
X0033403D01*
X0033657Y0016567D01*
X0033157Y0013567D02*
X0033411Y0013821D01*
X0033665D01*
X0033411Y0014075D01*
X0033665Y0014329D01*
X0033411D01*
X0033157Y0014583D01*
X0032903Y0014329D01*
X0032649D01*
X0032903Y0014075D01*
X0032649Y0013821D01*
X0032903D01*
X0033157Y0013567D01*
X0033657Y0004567D02*
X0033911Y0004821D01*
X0034165D01*
X0033911Y0005075D01*
X0034165Y0005329D01*
X0033911D01*
X0033657Y0005583D01*
X0033403Y0005329D01*
X0033149D01*
X0033403Y0005075D01*
X0033149Y0004821D01*
X0033403D01*
X0033657Y0004567D01*
X0032657Y0020567D02*
X0032911Y0020821D01*
X0033165D01*
X0032911Y0021075D01*
X0033165Y0021329D01*
X0032911D01*
X0032657Y0021583D01*
X0032403Y0021329D01*
X0032149D01*
X0032403Y0021075D01*
X0032149Y0020821D01*
X0032403D01*
X0032657Y0020567D01*
X0032157Y0019567D02*
X0032411Y0019821D01*
X0032665D01*
X0032411Y0020075D01*
X0032665Y0020329D01*
X0032411D01*
X0032157Y0020583D01*
X0031903Y0020329D01*
X0031649D01*
X0031903Y0020075D01*
X0031649Y0019821D01*
X0031903D01*
X0032157Y0019567D01*
Y0017567D02*
X0032411Y0017821D01*
X0032665D01*
X0032411Y0018075D01*
X0032665Y0018329D01*
X0032411D01*
X0032157Y0018583D01*
X0031903Y0018329D01*
X0031649D01*
X0031903Y0018075D01*
X0031649Y0017821D01*
X0031903D01*
X0032157Y0017567D01*
X0032657Y0016567D02*
X0032911Y0016821D01*
X0033165D01*
X0032911Y0017075D01*
X0033165Y0017329D01*
X0032911D01*
X0032657Y0017583D01*
X0032403Y0017329D01*
X0032149D01*
X0032403Y0017075D01*
X0032149Y0016821D01*
X0032403D01*
X0032657Y0016567D01*
X0032157Y0013567D02*
X0032411Y0013821D01*
X0032665D01*
X0032411Y0014075D01*
X0032665Y0014329D01*
X0032411D01*
X0032157Y0014583D01*
X0031903Y0014329D01*
X0031649D01*
X0031903Y0014075D01*
X0031649Y0013821D01*
X0031903D01*
X0032157Y0013567D01*
Y0005567D02*
X0032411Y0005821D01*
X0032665D01*
X0032411Y0006075D01*
X0032665Y0006329D01*
X0032411D01*
X0032157Y0006583D01*
X0031903Y0006329D01*
X0031649D01*
X0031903Y0006075D01*
X0031649Y0005821D01*
X0031903D01*
X0032157Y0005567D01*
X0031657Y0020567D02*
X0031911Y0020821D01*
X0032165D01*
X0031911Y0021075D01*
X0032165Y0021329D01*
X0031911D01*
X0031657Y0021583D01*
X0031403Y0021329D01*
X0031149D01*
X0031403Y0021075D01*
X0031149Y0020821D01*
X0031403D01*
X0031657Y0020567D01*
X0031157Y0019567D02*
X0031411Y0019821D01*
X0031665D01*
X0031411Y0020075D01*
X0031665Y0020329D01*
X0031411D01*
X0031157Y0020583D01*
X0030903Y0020329D01*
X0030649D01*
X0030903Y0020075D01*
X0030649Y0019821D01*
X0030903D01*
X0031157Y0019567D01*
Y0017567D02*
X0031411Y0017821D01*
X0031665D01*
X0031411Y0018075D01*
X0031665Y0018329D01*
X0031411D01*
X0031157Y0018583D01*
X0030903Y0018329D01*
X0030649D01*
X0030903Y0018075D01*
X0030649Y0017821D01*
X0030903D01*
X0031157Y0017567D01*
X0031657Y0012567D02*
X0031911Y0012821D01*
X0032165D01*
X0031911Y0013075D01*
X0032165Y0013329D01*
X0031911D01*
X0031657Y0013583D01*
X0031403Y0013329D01*
X0031149D01*
X0031403Y0013075D01*
X0031149Y0012821D01*
X0031403D01*
X0031657Y0012567D01*
X0030657Y0020567D02*
X0030911Y0020821D01*
X0031165D01*
X0030911Y0021075D01*
X0031165Y0021329D01*
X0030911D01*
X0030657Y0021583D01*
X0030403Y0021329D01*
X0030149D01*
X0030403Y0021075D01*
X0030149Y0020821D01*
X0030403D01*
X0030657Y0020567D01*
X0030157Y0019567D02*
X0030411Y0019821D01*
X0030665D01*
X0030411Y0020075D01*
X0030665Y0020329D01*
X0030411D01*
X0030157Y0020583D01*
X0029903Y0020329D01*
X0029649D01*
X0029903Y0020075D01*
X0029649Y0019821D01*
X0029903D01*
X0030157Y0019567D01*
Y0015567D02*
X0030411Y0015821D01*
X0030665D01*
X0030411Y0016075D01*
X0030665Y0016329D01*
X0030411D01*
X0030157Y0016583D01*
X0029903Y0016329D01*
X0029649D01*
X0029903Y0016075D01*
X0029649Y0015821D01*
X0029903D01*
X0030157Y0015567D01*
X0029657Y0020567D02*
X0029911Y0020821D01*
X0030165D01*
X0029911Y0021075D01*
X0030165Y0021329D01*
X0029911D01*
X0029657Y0021583D01*
X0029403Y0021329D01*
X0029149D01*
X0029403Y0021075D01*
X0029149Y0020821D01*
X0029403D01*
X0029657Y0020567D01*
X0029157Y0019567D02*
X0029411Y0019821D01*
X0029665D01*
X0029411Y0020075D01*
X0029665Y0020329D01*
X0029411D01*
X0029157Y0020583D01*
X0028903Y0020329D01*
X0028649D01*
X0028903Y0020075D01*
X0028649Y0019821D01*
X0028903D01*
X0029157Y0019567D01*
X0029657Y0014567D02*
X0029911Y0014821D01*
X0030165D01*
X0029911Y0015075D01*
X0030165Y0015329D01*
X0029911D01*
X0029657Y0015583D01*
X0029403Y0015329D01*
X0029149D01*
X0029403Y0015075D01*
X0029149Y0014821D01*
X0029403D01*
X0029657Y0014567D01*
X0029157Y0013567D02*
X0029411Y0013821D01*
X0029665D01*
X0029411Y0014075D01*
X0029665Y0014329D01*
X0029411D01*
X0029157Y0014583D01*
X0028903Y0014329D01*
X0028649D01*
X0028903Y0014075D01*
X0028649Y0013821D01*
X0028903D01*
X0029157Y0013567D01*
X0029657Y0012567D02*
X0029911Y0012821D01*
X0030165D01*
X0029911Y0013075D01*
X0030165Y0013329D01*
X0029911D01*
X0029657Y0013583D01*
X0029403Y0013329D01*
X0029149D01*
X0029403Y0013075D01*
X0029149Y0012821D01*
X0029403D01*
X0029657Y0012567D01*
X0028657Y0020567D02*
X0028911Y0020821D01*
X0029165D01*
X0028911Y0021075D01*
X0029165Y0021329D01*
X0028911D01*
X0028657Y0021583D01*
X0028403Y0021329D01*
X0028149D01*
X0028403Y0021075D01*
X0028149Y0020821D01*
X0028403D01*
X0028657Y0020567D01*
X0028157Y0017567D02*
X0028411Y0017821D01*
X0028665D01*
X0028411Y0018075D01*
X0028665Y0018329D01*
X0028411D01*
X0028157Y0018583D01*
X0027903Y0018329D01*
X0027649D01*
X0027903Y0018075D01*
X0027649Y0017821D01*
X0027903D01*
X0028157Y0017567D01*
X0027657Y0016567D02*
X0027911Y0016821D01*
X0028165D01*
X0027911Y0017075D01*
X0028165Y0017329D01*
X0027911D01*
X0027657Y0017583D01*
X0027403Y0017329D01*
X0027149D01*
X0027403Y0017075D01*
X0027149Y0016821D01*
X0027403D01*
X0027657Y0016567D01*
Y0014567D02*
X0027911Y0014821D01*
X0028165D01*
X0027911Y0015075D01*
X0028165Y0015329D01*
X0027911D01*
X0027657Y0015583D01*
X0027403Y0015329D01*
X0027149D01*
X0027403Y0015075D01*
X0027149Y0014821D01*
X0027403D01*
X0027657Y0014567D01*
X0027157Y0007567D02*
X0027411Y0007821D01*
X0027665D01*
X0027411Y0008075D01*
X0027665Y0008329D01*
X0027411D01*
X0027157Y0008583D01*
X0026903Y0008329D01*
X0026649D01*
X0026903Y0008075D01*
X0026649Y0007821D01*
X0026903D01*
X0027157Y0007567D01*
X0027657Y0006567D02*
X0027911Y0006821D01*
X0028165D01*
X0027911Y0007075D01*
X0028165Y0007329D01*
X0027911D01*
X0027657Y0007583D01*
X0027403Y0007329D01*
X0027149D01*
X0027403Y0007075D01*
X0027149Y0006821D01*
X0027403D01*
X0027657Y0006567D01*
Y0002567D02*
X0027911Y0002821D01*
X0028165D01*
X0027911Y0003075D01*
X0028165Y0003329D01*
X0027911D01*
X0027657Y0003583D01*
X0027403Y0003329D01*
X0027149D01*
X0027403Y0003075D01*
X0027149Y0002821D01*
X0027403D01*
X0027657Y0002567D01*
X0026157Y0015567D02*
X0026411Y0015821D01*
X0026665D01*
X0026411Y0016075D01*
X0026665Y0016329D01*
X0026411D01*
X0026157Y0016583D01*
X0025903Y0016329D01*
X0025649D01*
X0025903Y0016075D01*
X0025649Y0015821D01*
X0025903D01*
X0026157Y0015567D01*
Y0013567D02*
X0026411Y0013821D01*
X0026665D01*
X0026411Y0014075D01*
X0026665Y0014329D01*
X0026411D01*
X0026157Y0014583D01*
X0025903Y0014329D01*
X0025649D01*
X0025903Y0014075D01*
X0025649Y0013821D01*
X0025903D01*
X0026157Y0013567D01*
X0019657Y0030567D02*
X0019911Y0030821D01*
X0020165D01*
X0019911Y0031075D01*
X0020165Y0031329D01*
X0019911D01*
X0019657Y0031583D01*
X0019403Y0031329D01*
X0019149D01*
X0019403Y0031075D01*
X0019149Y0030821D01*
X0019403D01*
X0019657Y0030567D01*
X0018157Y0029567D02*
X0018411Y0029821D01*
X0018665D01*
X0018411Y0030075D01*
X0018665Y0030329D01*
X0018411D01*
X0018157Y0030583D01*
X0017903Y0030329D01*
X0017649D01*
X0017903Y0030075D01*
X0017649Y0029821D01*
X0017903D01*
X0018157Y0029567D01*
X0018657Y0028567D02*
X0018911Y0028821D01*
X0019165D01*
X0018911Y0029075D01*
X0019165Y0029329D01*
X0018911D01*
X0018657Y0029583D01*
X0018403Y0029329D01*
X0018149D01*
X0018403Y0029075D01*
X0018149Y0028821D01*
X0018403D01*
X0018657Y0028567D01*
X0018157Y0027567D02*
X0018411Y0027821D01*
X0018665D01*
X0018411Y0028075D01*
X0018665Y0028329D01*
X0018411D01*
X0018157Y0028583D01*
X0017903Y0028329D01*
X0017649D01*
X0017903Y0028075D01*
X0017649Y0027821D01*
X0017903D01*
X0018157Y0027567D01*
X0018657Y0026567D02*
X0018911Y0026821D01*
X0019165D01*
X0018911Y0027075D01*
X0019165Y0027329D01*
X0018911D01*
X0018657Y0027583D01*
X0018403Y0027329D01*
X0018149D01*
X0018403Y0027075D01*
X0018149Y0026821D01*
X0018403D01*
X0018657Y0026567D01*
Y0024567D02*
X0018911Y0024821D01*
X0019165D01*
X0018911Y0025075D01*
X0019165Y0025329D01*
X0018911D01*
X0018657Y0025583D01*
X0018403Y0025329D01*
X0018149D01*
X0018403Y0025075D01*
X0018149Y0024821D01*
X0018403D01*
X0018657Y0024567D01*
X0017657Y0028567D02*
X0017911Y0028821D01*
X0018165D01*
X0017911Y0029075D01*
X0018165Y0029329D01*
X0017911D01*
X0017657Y0029583D01*
X0017403Y0029329D01*
X0017149D01*
X0017403Y0029075D01*
X0017149Y0028821D01*
X0017403D01*
X0017657Y0028567D01*
Y0026567D02*
X0017911Y0026821D01*
X0018165D01*
X0017911Y0027075D01*
X0018165Y0027329D01*
X0017911D01*
X0017657Y0027583D01*
X0017403Y0027329D01*
X0017149D01*
X0017403Y0027075D01*
X0017149Y0026821D01*
X0017403D01*
X0017657Y0026567D01*
X0017157Y0003567D02*
X0017411Y0003821D01*
X0017665D01*
X0017411Y0004075D01*
X0017665Y0004329D01*
X0017411D01*
X0017157Y0004583D01*
X0016903Y0004329D01*
X0016649D01*
X0016903Y0004075D01*
X0016649Y0003821D01*
X0016903D01*
X0017157Y0003567D01*
X0016157Y0029567D02*
X0016411Y0029821D01*
X0016665D01*
X0016411Y0030075D01*
X0016665Y0030329D01*
X0016411D01*
X0016157Y0030583D01*
X0015903Y0030329D01*
X0015649D01*
X0015903Y0030075D01*
X0015649Y0029821D01*
X0015903D01*
X0016157Y0029567D01*
Y0027567D02*
X0016411Y0027821D01*
X0016665D01*
X0016411Y0028075D01*
X0016665Y0028329D01*
X0016411D01*
X0016157Y0028583D01*
X0015903Y0028329D01*
X0015649D01*
X0015903Y0028075D01*
X0015649Y0027821D01*
X0015903D01*
X0016157Y0027567D01*
Y0025567D02*
X0016411Y0025821D01*
X0016665D01*
X0016411Y0026075D01*
X0016665Y0026329D01*
X0016411D01*
X0016157Y0026583D01*
X0015903Y0026329D01*
X0015649D01*
X0015903Y0026075D01*
X0015649Y0025821D01*
X0015903D01*
X0016157Y0025567D01*
Y0023567D02*
X0016411Y0023821D01*
X0016665D01*
X0016411Y0024075D01*
X0016665Y0024329D01*
X0016411D01*
X0016157Y0024583D01*
X0015903Y0024329D01*
X0015649D01*
X0015903Y0024075D01*
X0015649Y0023821D01*
X0015903D01*
X0016157Y0023567D01*
Y0017567D02*
X0016411Y0017821D01*
X0016665D01*
X0016411Y0018075D01*
X0016665Y0018329D01*
X0016411D01*
X0016157Y0018583D01*
X0015903Y0018329D01*
X0015649D01*
X0015903Y0018075D01*
X0015649Y0017821D01*
X0015903D01*
X0016157Y0017567D01*
X0016657Y0010567D02*
X0016911Y0010821D01*
X0017165D01*
X0016911Y0011075D01*
X0017165Y0011329D01*
X0016911D01*
X0016657Y0011583D01*
X0016403Y0011329D01*
X0016149D01*
X0016403Y0011075D01*
X0016149Y0010821D01*
X0016403D01*
X0016657Y0010567D01*
Y0008567D02*
X0016911Y0008821D01*
X0017165D01*
X0016911Y0009075D01*
X0017165Y0009329D01*
X0016911D01*
X0016657Y0009583D01*
X0016403Y0009329D01*
X0016149D01*
X0016403Y0009075D01*
X0016149Y0008821D01*
X0016403D01*
X0016657Y0008567D01*
Y0006567D02*
X0016911Y0006821D01*
X0017165D01*
X0016911Y0007075D01*
X0017165Y0007329D01*
X0016911D01*
X0016657Y0007583D01*
X0016403Y0007329D01*
X0016149D01*
X0016403Y0007075D01*
X0016149Y0006821D01*
X0016403D01*
X0016657Y0006567D01*
Y0004567D02*
X0016911Y0004821D01*
X0017165D01*
X0016911Y0005075D01*
X0017165Y0005329D01*
X0016911D01*
X0016657Y0005583D01*
X0016403Y0005329D01*
X0016149D01*
X0016403Y0005075D01*
X0016149Y0004821D01*
X0016403D01*
X0016657Y0004567D01*
X0015157Y0029567D02*
X0015411Y0029821D01*
X0015665D01*
X0015411Y0030075D01*
X0015665Y0030329D01*
X0015411D01*
X0015157Y0030583D01*
X0014903Y0030329D01*
X0014649D01*
X0014903Y0030075D01*
X0014649Y0029821D01*
X0014903D01*
X0015157Y0029567D01*
X0015657Y0028567D02*
X0015911Y0028821D01*
X0016165D01*
X0015911Y0029075D01*
X0016165Y0029329D01*
X0015911D01*
X0015657Y0029583D01*
X0015403Y0029329D01*
X0015149D01*
X0015403Y0029075D01*
X0015149Y0028821D01*
X0015403D01*
X0015657Y0028567D01*
X0015157Y0027567D02*
X0015411Y0027821D01*
X0015665D01*
X0015411Y0028075D01*
X0015665Y0028329D01*
X0015411D01*
X0015157Y0028583D01*
X0014903Y0028329D01*
X0014649D01*
X0014903Y0028075D01*
X0014649Y0027821D01*
X0014903D01*
X0015157Y0027567D01*
X0015657Y0026567D02*
X0015911Y0026821D01*
X0016165D01*
X0015911Y0027075D01*
X0016165Y0027329D01*
X0015911D01*
X0015657Y0027583D01*
X0015403Y0027329D01*
X0015149D01*
X0015403Y0027075D01*
X0015149Y0026821D01*
X0015403D01*
X0015657Y0026567D01*
X0015157Y0025567D02*
X0015411Y0025821D01*
X0015665D01*
X0015411Y0026075D01*
X0015665Y0026329D01*
X0015411D01*
X0015157Y0026583D01*
X0014903Y0026329D01*
X0014649D01*
X0014903Y0026075D01*
X0014649Y0025821D01*
X0014903D01*
X0015157Y0025567D01*
X0015657Y0024567D02*
X0015911Y0024821D01*
X0016165D01*
X0015911Y0025075D01*
X0016165Y0025329D01*
X0015911D01*
X0015657Y0025583D01*
X0015403Y0025329D01*
X0015149D01*
X0015403Y0025075D01*
X0015149Y0024821D01*
X0015403D01*
X0015657Y0024567D01*
X0015157Y0023567D02*
X0015411Y0023821D01*
X0015665D01*
X0015411Y0024075D01*
X0015665Y0024329D01*
X0015411D01*
X0015157Y0024583D01*
X0014903Y0024329D01*
X0014649D01*
X0014903Y0024075D01*
X0014649Y0023821D01*
X0014903D01*
X0015157Y0023567D01*
X0015657Y0022567D02*
X0015911Y0022821D01*
X0016165D01*
X0015911Y0023075D01*
X0016165Y0023329D01*
X0015911D01*
X0015657Y0023583D01*
X0015403Y0023329D01*
X0015149D01*
X0015403Y0023075D01*
X0015149Y0022821D01*
X0015403D01*
X0015657Y0022567D01*
X0015157Y0019567D02*
X0015411Y0019821D01*
X0015665D01*
X0015411Y0020075D01*
X0015665Y0020329D01*
X0015411D01*
X0015157Y0020583D01*
X0014903Y0020329D01*
X0014649D01*
X0014903Y0020075D01*
X0014649Y0019821D01*
X0014903D01*
X0015157Y0019567D01*
X0015657Y0018567D02*
X0015911Y0018821D01*
X0016165D01*
X0015911Y0019075D01*
X0016165Y0019329D01*
X0015911D01*
X0015657Y0019583D01*
X0015403Y0019329D01*
X0015149D01*
X0015403Y0019075D01*
X0015149Y0018821D01*
X0015403D01*
X0015657Y0018567D01*
X0015157Y0017567D02*
X0015411Y0017821D01*
X0015665D01*
X0015411Y0018075D01*
X0015665Y0018329D01*
X0015411D01*
X0015157Y0018583D01*
X0014903Y0018329D01*
X0014649D01*
X0014903Y0018075D01*
X0014649Y0017821D01*
X0014903D01*
X0015157Y0017567D01*
X0015657Y0014567D02*
X0015911Y0014821D01*
X0016165D01*
X0015911Y0015075D01*
X0016165Y0015329D01*
X0015911D01*
X0015657Y0015583D01*
X0015403Y0015329D01*
X0015149D01*
X0015403Y0015075D01*
X0015149Y0014821D01*
X0015403D01*
X0015657Y0014567D01*
X0015157Y0007567D02*
X0015411Y0007821D01*
X0015665D01*
X0015411Y0008075D01*
X0015665Y0008329D01*
X0015411D01*
X0015157Y0008583D01*
X0014903Y0008329D01*
X0014649D01*
X0014903Y0008075D01*
X0014649Y0007821D01*
X0014903D01*
X0015157Y0007567D01*
X0015657Y0006567D02*
X0015911Y0006821D01*
X0016165D01*
X0015911Y0007075D01*
X0016165Y0007329D01*
X0015911D01*
X0015657Y0007583D01*
X0015403Y0007329D01*
X0015149D01*
X0015403Y0007075D01*
X0015149Y0006821D01*
X0015403D01*
X0015657Y0006567D01*
X0015157Y0005567D02*
X0015411Y0005821D01*
X0015665D01*
X0015411Y0006075D01*
X0015665Y0006329D01*
X0015411D01*
X0015157Y0006583D01*
X0014903Y0006329D01*
X0014649D01*
X0014903Y0006075D01*
X0014649Y0005821D01*
X0014903D01*
X0015157Y0005567D01*
X0015657Y0004567D02*
X0015911Y0004821D01*
X0016165D01*
X0015911Y0005075D01*
X0016165Y0005329D01*
X0015911D01*
X0015657Y0005583D01*
X0015403Y0005329D01*
X0015149D01*
X0015403Y0005075D01*
X0015149Y0004821D01*
X0015403D01*
X0015657Y0004567D01*
X0015157Y0003567D02*
X0015411Y0003821D01*
X0015665D01*
X0015411Y0004075D01*
X0015665Y0004329D01*
X0015411D01*
X0015157Y0004583D01*
X0014903Y0004329D01*
X0014649D01*
X0014903Y0004075D01*
X0014649Y0003821D01*
X0014903D01*
X0015157Y0003567D01*
X0014157Y0029567D02*
X0014411Y0029821D01*
X0014665D01*
X0014411Y0030075D01*
X0014665Y0030329D01*
X0014411D01*
X0014157Y0030583D01*
X0013903Y0030329D01*
X0013649D01*
X0013903Y0030075D01*
X0013649Y0029821D01*
X0013903D01*
X0014157Y0029567D01*
X0014657Y0028567D02*
X0014911Y0028821D01*
X0015165D01*
X0014911Y0029075D01*
X0015165Y0029329D01*
X0014911D01*
X0014657Y0029583D01*
X0014403Y0029329D01*
X0014149D01*
X0014403Y0029075D01*
X0014149Y0028821D01*
X0014403D01*
X0014657Y0028567D01*
X0014157Y0027567D02*
X0014411Y0027821D01*
X0014665D01*
X0014411Y0028075D01*
X0014665Y0028329D01*
X0014411D01*
X0014157Y0028583D01*
X0013903Y0028329D01*
X0013649D01*
X0013903Y0028075D01*
X0013649Y0027821D01*
X0013903D01*
X0014157Y0027567D01*
X0014657Y0026567D02*
X0014911Y0026821D01*
X0015165D01*
X0014911Y0027075D01*
X0015165Y0027329D01*
X0014911D01*
X0014657Y0027583D01*
X0014403Y0027329D01*
X0014149D01*
X0014403Y0027075D01*
X0014149Y0026821D01*
X0014403D01*
X0014657Y0026567D01*
X0014157Y0025567D02*
X0014411Y0025821D01*
X0014665D01*
X0014411Y0026075D01*
X0014665Y0026329D01*
X0014411D01*
X0014157Y0026583D01*
X0013903Y0026329D01*
X0013649D01*
X0013903Y0026075D01*
X0013649Y0025821D01*
X0013903D01*
X0014157Y0025567D01*
X0014657Y0024567D02*
X0014911Y0024821D01*
X0015165D01*
X0014911Y0025075D01*
X0015165Y0025329D01*
X0014911D01*
X0014657Y0025583D01*
X0014403Y0025329D01*
X0014149D01*
X0014403Y0025075D01*
X0014149Y0024821D01*
X0014403D01*
X0014657Y0024567D01*
X0014157Y0023567D02*
X0014411Y0023821D01*
X0014665D01*
X0014411Y0024075D01*
X0014665Y0024329D01*
X0014411D01*
X0014157Y0024583D01*
X0013903Y0024329D01*
X0013649D01*
X0013903Y0024075D01*
X0013649Y0023821D01*
X0013903D01*
X0014157Y0023567D01*
X0014657Y0020567D02*
X0014911Y0020821D01*
X0015165D01*
X0014911Y0021075D01*
X0015165Y0021329D01*
X0014911D01*
X0014657Y0021583D01*
X0014403Y0021329D01*
X0014149D01*
X0014403Y0021075D01*
X0014149Y0020821D01*
X0014403D01*
X0014657Y0020567D01*
X0014157Y0019567D02*
X0014411Y0019821D01*
X0014665D01*
X0014411Y0020075D01*
X0014665Y0020329D01*
X0014411D01*
X0014157Y0020583D01*
X0013903Y0020329D01*
X0013649D01*
X0013903Y0020075D01*
X0013649Y0019821D01*
X0013903D01*
X0014157Y0019567D01*
X0014657Y0018567D02*
X0014911Y0018821D01*
X0015165D01*
X0014911Y0019075D01*
X0015165Y0019329D01*
X0014911D01*
X0014657Y0019583D01*
X0014403Y0019329D01*
X0014149D01*
X0014403Y0019075D01*
X0014149Y0018821D01*
X0014403D01*
X0014657Y0018567D01*
X0014157Y0017567D02*
X0014411Y0017821D01*
X0014665D01*
X0014411Y0018075D01*
X0014665Y0018329D01*
X0014411D01*
X0014157Y0018583D01*
X0013903Y0018329D01*
X0013649D01*
X0013903Y0018075D01*
X0013649Y0017821D01*
X0013903D01*
X0014157Y0017567D01*
X0014657Y0014567D02*
X0014911Y0014821D01*
X0015165D01*
X0014911Y0015075D01*
X0015165Y0015329D01*
X0014911D01*
X0014657Y0015583D01*
X0014403Y0015329D01*
X0014149D01*
X0014403Y0015075D01*
X0014149Y0014821D01*
X0014403D01*
X0014657Y0014567D01*
X0014157Y0011567D02*
X0014411Y0011821D01*
X0014665D01*
X0014411Y0012075D01*
X0014665Y0012329D01*
X0014411D01*
X0014157Y0012583D01*
X0013903Y0012329D01*
X0013649D01*
X0013903Y0012075D01*
X0013649Y0011821D01*
X0013903D01*
X0014157Y0011567D01*
Y0009567D02*
X0014411Y0009821D01*
X0014665D01*
X0014411Y0010075D01*
X0014665Y0010329D01*
X0014411D01*
X0014157Y0010583D01*
X0013903Y0010329D01*
X0013649D01*
X0013903Y0010075D01*
X0013649Y0009821D01*
X0013903D01*
X0014157Y0009567D01*
X0014657Y0006567D02*
X0014911Y0006821D01*
X0015165D01*
X0014911Y0007075D01*
X0015165Y0007329D01*
X0014911D01*
X0014657Y0007583D01*
X0014403Y0007329D01*
X0014149D01*
X0014403Y0007075D01*
X0014149Y0006821D01*
X0014403D01*
X0014657Y0006567D01*
X0014157Y0005567D02*
X0014411Y0005821D01*
X0014665D01*
X0014411Y0006075D01*
X0014665Y0006329D01*
X0014411D01*
X0014157Y0006583D01*
X0013903Y0006329D01*
X0013649D01*
X0013903Y0006075D01*
X0013649Y0005821D01*
X0013903D01*
X0014157Y0005567D01*
X0014657Y0004567D02*
X0014911Y0004821D01*
X0015165D01*
X0014911Y0005075D01*
X0015165Y0005329D01*
X0014911D01*
X0014657Y0005583D01*
X0014403Y0005329D01*
X0014149D01*
X0014403Y0005075D01*
X0014149Y0004821D01*
X0014403D01*
X0014657Y0004567D01*
X0014157Y0003567D02*
X0014411Y0003821D01*
X0014665D01*
X0014411Y0004075D01*
X0014665Y0004329D01*
X0014411D01*
X0014157Y0004583D01*
X0013903Y0004329D01*
X0013649D01*
X0013903Y0004075D01*
X0013649Y0003821D01*
X0013903D01*
X0014157Y0003567D01*
X0013157Y0029567D02*
X0013411Y0029821D01*
X0013665D01*
X0013411Y0030075D01*
X0013665Y0030329D01*
X0013411D01*
X0013157Y0030583D01*
X0012903Y0030329D01*
X0012649D01*
X0012903Y0030075D01*
X0012649Y0029821D01*
X0012903D01*
X0013157Y0029567D01*
X0013657Y0028567D02*
X0013911Y0028821D01*
X0014165D01*
X0013911Y0029075D01*
X0014165Y0029329D01*
X0013911D01*
X0013657Y0029583D01*
X0013403Y0029329D01*
X0013149D01*
X0013403Y0029075D01*
X0013149Y0028821D01*
X0013403D01*
X0013657Y0028567D01*
X0013157Y0027567D02*
X0013411Y0027821D01*
X0013665D01*
X0013411Y0028075D01*
X0013665Y0028329D01*
X0013411D01*
X0013157Y0028583D01*
X0012903Y0028329D01*
X0012649D01*
X0012903Y0028075D01*
X0012649Y0027821D01*
X0012903D01*
X0013157Y0027567D01*
X0013657Y0026567D02*
X0013911Y0026821D01*
X0014165D01*
X0013911Y0027075D01*
X0014165Y0027329D01*
X0013911D01*
X0013657Y0027583D01*
X0013403Y0027329D01*
X0013149D01*
X0013403Y0027075D01*
X0013149Y0026821D01*
X0013403D01*
X0013657Y0026567D01*
X0013157Y0025567D02*
X0013411Y0025821D01*
X0013665D01*
X0013411Y0026075D01*
X0013665Y0026329D01*
X0013411D01*
X0013157Y0026583D01*
X0012903Y0026329D01*
X0012649D01*
X0012903Y0026075D01*
X0012649Y0025821D01*
X0012903D01*
X0013157Y0025567D01*
X0013657Y0024567D02*
X0013911Y0024821D01*
X0014165D01*
X0013911Y0025075D01*
X0014165Y0025329D01*
X0013911D01*
X0013657Y0025583D01*
X0013403Y0025329D01*
X0013149D01*
X0013403Y0025075D01*
X0013149Y0024821D01*
X0013403D01*
X0013657Y0024567D01*
X0013157Y0021567D02*
X0013411Y0021821D01*
X0013665D01*
X0013411Y0022075D01*
X0013665Y0022329D01*
X0013411D01*
X0013157Y0022583D01*
X0012903Y0022329D01*
X0012649D01*
X0012903Y0022075D01*
X0012649Y0021821D01*
X0012903D01*
X0013157Y0021567D01*
X0013657Y0020567D02*
X0013911Y0020821D01*
X0014165D01*
X0013911Y0021075D01*
X0014165Y0021329D01*
X0013911D01*
X0013657Y0021583D01*
X0013403Y0021329D01*
X0013149D01*
X0013403Y0021075D01*
X0013149Y0020821D01*
X0013403D01*
X0013657Y0020567D01*
X0013157Y0019567D02*
X0013411Y0019821D01*
X0013665D01*
X0013411Y0020075D01*
X0013665Y0020329D01*
X0013411D01*
X0013157Y0020583D01*
X0012903Y0020329D01*
X0012649D01*
X0012903Y0020075D01*
X0012649Y0019821D01*
X0012903D01*
X0013157Y0019567D01*
X0013657Y0018567D02*
X0013911Y0018821D01*
X0014165D01*
X0013911Y0019075D01*
X0014165Y0019329D01*
X0013911D01*
X0013657Y0019583D01*
X0013403Y0019329D01*
X0013149D01*
X0013403Y0019075D01*
X0013149Y0018821D01*
X0013403D01*
X0013657Y0018567D01*
X0013157Y0017567D02*
X0013411Y0017821D01*
X0013665D01*
X0013411Y0018075D01*
X0013665Y0018329D01*
X0013411D01*
X0013157Y0018583D01*
X0012903Y0018329D01*
X0012649D01*
X0012903Y0018075D01*
X0012649Y0017821D01*
X0012903D01*
X0013157Y0017567D01*
X0013657Y0014567D02*
X0013911Y0014821D01*
X0014165D01*
X0013911Y0015075D01*
X0014165Y0015329D01*
X0013911D01*
X0013657Y0015583D01*
X0013403Y0015329D01*
X0013149D01*
X0013403Y0015075D01*
X0013149Y0014821D01*
X0013403D01*
X0013657Y0014567D01*
X0012657Y0022567D02*
X0012911Y0022821D01*
X0013165D01*
X0012911Y0023075D01*
X0013165Y0023329D01*
X0012911D01*
X0012657Y0023583D01*
X0012403Y0023329D01*
X0012149D01*
X0012403Y0023075D01*
X0012149Y0022821D01*
X0012403D01*
X0012657Y0022567D01*
X0012157Y0021567D02*
X0012411Y0021821D01*
X0012665D01*
X0012411Y0022075D01*
X0012665Y0022329D01*
X0012411D01*
X0012157Y0022583D01*
X0011903Y0022329D01*
X0011649D01*
X0011903Y0022075D01*
X0011649Y0021821D01*
X0011903D01*
X0012157Y0021567D01*
X0012657Y0020567D02*
X0012911Y0020821D01*
X0013165D01*
X0012911Y0021075D01*
X0013165Y0021329D01*
X0012911D01*
X0012657Y0021583D01*
X0012403Y0021329D01*
X0012149D01*
X0012403Y0021075D01*
X0012149Y0020821D01*
X0012403D01*
X0012657Y0020567D01*
X0012157Y0019567D02*
X0012411Y0019821D01*
X0012665D01*
X0012411Y0020075D01*
X0012665Y0020329D01*
X0012411D01*
X0012157Y0020583D01*
X0011903Y0020329D01*
X0011649D01*
X0011903Y0020075D01*
X0011649Y0019821D01*
X0011903D01*
X0012157Y0019567D01*
X0012657Y0018567D02*
X0012911Y0018821D01*
X0013165D01*
X0012911Y0019075D01*
X0013165Y0019329D01*
X0012911D01*
X0012657Y0019583D01*
X0012403Y0019329D01*
X0012149D01*
X0012403Y0019075D01*
X0012149Y0018821D01*
X0012403D01*
X0012657Y0018567D01*
X0012157Y0017567D02*
X0012411Y0017821D01*
X0012665D01*
X0012411Y0018075D01*
X0012665Y0018329D01*
X0012411D01*
X0012157Y0018583D01*
X0011903Y0018329D01*
X0011649D01*
X0011903Y0018075D01*
X0011649Y0017821D01*
X0011903D01*
X0012157Y0017567D01*
X0012657Y0014567D02*
X0012911Y0014821D01*
X0013165D01*
X0012911Y0015075D01*
X0013165Y0015329D01*
X0012911D01*
X0012657Y0015583D01*
X0012403Y0015329D01*
X0012149D01*
X0012403Y0015075D01*
X0012149Y0014821D01*
X0012403D01*
X0012657Y0014567D01*
X0012157Y0003567D02*
X0012411Y0003821D01*
X0012665D01*
X0012411Y0004075D01*
X0012665Y0004329D01*
X0012411D01*
X0012157Y0004583D01*
X0011903Y0004329D01*
X0011649D01*
X0011903Y0004075D01*
X0011649Y0003821D01*
X0011903D01*
X0012157Y0003567D01*
X0011157Y0023567D02*
X0011411Y0023821D01*
X0011665D01*
X0011411Y0024075D01*
X0011665Y0024329D01*
X0011411D01*
X0011157Y0024583D01*
X0010903Y0024329D01*
X0010649D01*
X0010903Y0024075D01*
X0010649Y0023821D01*
X0010903D01*
X0011157Y0023567D01*
Y0017567D02*
X0011411Y0017821D01*
X0011665D01*
X0011411Y0018075D01*
X0011665Y0018329D01*
X0011411D01*
X0011157Y0018583D01*
X0010903Y0018329D01*
X0010649D01*
X0010903Y0018075D01*
X0010649Y0017821D01*
X0010903D01*
X0011157Y0017567D01*
X0011657Y0014567D02*
X0011911Y0014821D01*
X0012165D01*
X0011911Y0015075D01*
X0012165Y0015329D01*
X0011911D01*
X0011657Y0015583D01*
X0011403Y0015329D01*
X0011149D01*
X0011403Y0015075D01*
X0011149Y0014821D01*
X0011403D01*
X0011657Y0014567D01*
Y0004567D02*
X0011911Y0004821D01*
X0012165D01*
X0011911Y0005075D01*
X0012165Y0005329D01*
X0011911D01*
X0011657Y0005583D01*
X0011403Y0005329D01*
X0011149D01*
X0011403Y0005075D01*
X0011149Y0004821D01*
X0011403D01*
X0011657Y0004567D01*
X0011157Y0003567D02*
X0011411Y0003821D01*
X0011665D01*
X0011411Y0004075D01*
X0011665Y0004329D01*
X0011411D01*
X0011157Y0004583D01*
X0010903Y0004329D01*
X0010649D01*
X0010903Y0004075D01*
X0010649Y0003821D01*
X0010903D01*
X0011157Y0003567D01*
X0010657Y0024567D02*
X0010911Y0024821D01*
X0011165D01*
X0010911Y0025075D01*
X0011165Y0025329D01*
X0010911D01*
X0010657Y0025583D01*
X0010403Y0025329D01*
X0010149D01*
X0010403Y0025075D01*
X0010149Y0024821D01*
X0010403D01*
X0010657Y0024567D01*
X0010157Y0023567D02*
X0010411Y0023821D01*
X0010665D01*
X0010411Y0024075D01*
X0010665Y0024329D01*
X0010411D01*
X0010157Y0024583D01*
X0009903Y0024329D01*
X0009649D01*
X0009903Y0024075D01*
X0009649Y0023821D01*
X0009903D01*
X0010157Y0023567D01*
Y0017567D02*
X0010411Y0017821D01*
X0010665D01*
X0010411Y0018075D01*
X0010665Y0018329D01*
X0010411D01*
X0010157Y0018583D01*
X0009903Y0018329D01*
X0009649D01*
X0009903Y0018075D01*
X0009649Y0017821D01*
X0009903D01*
X0010157Y0017567D01*
X0010657Y0014567D02*
X0010911Y0014821D01*
X0011165D01*
X0010911Y0015075D01*
X0011165Y0015329D01*
X0010911D01*
X0010657Y0015583D01*
X0010403Y0015329D01*
X0010149D01*
X0010403Y0015075D01*
X0010149Y0014821D01*
X0010403D01*
X0010657Y0014567D01*
Y0004567D02*
X0010911Y0004821D01*
X0011165D01*
X0010911Y0005075D01*
X0011165Y0005329D01*
X0010911D01*
X0010657Y0005583D01*
X0010403Y0005329D01*
X0010149D01*
X0010403Y0005075D01*
X0010149Y0004821D01*
X0010403D01*
X0010657Y0004567D01*
X0009157Y0025567D02*
X0009411Y0025821D01*
X0009665D01*
X0009411Y0026075D01*
X0009665Y0026329D01*
X0009411D01*
X0009157Y0026583D01*
X0008903Y0026329D01*
X0008649D01*
X0008903Y0026075D01*
X0008649Y0025821D01*
X0008903D01*
X0009157Y0025567D01*
X0009657Y0024567D02*
X0009911Y0024821D01*
X0010165D01*
X0009911Y0025075D01*
X0010165Y0025329D01*
X0009911D01*
X0009657Y0025583D01*
X0009403Y0025329D01*
X0009149D01*
X0009403Y0025075D01*
X0009149Y0024821D01*
X0009403D01*
X0009657Y0024567D01*
X0009157Y0023567D02*
X0009411Y0023821D01*
X0009665D01*
X0009411Y0024075D01*
X0009665Y0024329D01*
X0009411D01*
X0009157Y0024583D01*
X0008903Y0024329D01*
X0008649D01*
X0008903Y0024075D01*
X0008649Y0023821D01*
X0008903D01*
X0009157Y0023567D01*
Y0017567D02*
X0009411Y0017821D01*
X0009665D01*
X0009411Y0018075D01*
X0009665Y0018329D01*
X0009411D01*
X0009157Y0018583D01*
X0008903Y0018329D01*
X0008649D01*
X0008903Y0018075D01*
X0008649Y0017821D01*
X0008903D01*
X0009157Y0017567D01*
X0009657Y0014567D02*
X0009911Y0014821D01*
X0010165D01*
X0009911Y0015075D01*
X0010165Y0015329D01*
X0009911D01*
X0009657Y0015583D01*
X0009403Y0015329D01*
X0009149D01*
X0009403Y0015075D01*
X0009149Y0014821D01*
X0009403D01*
X0009657Y0014567D01*
X0008657Y0026567D02*
X0008911Y0026821D01*
X0009165D01*
X0008911Y0027075D01*
X0009165Y0027329D01*
X0008911D01*
X0008657Y0027583D01*
X0008403Y0027329D01*
X0008149D01*
X0008403Y0027075D01*
X0008149Y0026821D01*
X0008403D01*
X0008657Y0026567D01*
X0008157Y0025567D02*
X0008411Y0025821D01*
X0008665D01*
X0008411Y0026075D01*
X0008665Y0026329D01*
X0008411D01*
X0008157Y0026583D01*
X0007903Y0026329D01*
X0007649D01*
X0007903Y0026075D01*
X0007649Y0025821D01*
X0007903D01*
X0008157Y0025567D01*
X0008657Y0024567D02*
X0008911Y0024821D01*
X0009165D01*
X0008911Y0025075D01*
X0009165Y0025329D01*
X0008911D01*
X0008657Y0025583D01*
X0008403Y0025329D01*
X0008149D01*
X0008403Y0025075D01*
X0008149Y0024821D01*
X0008403D01*
X0008657Y0024567D01*
X0008157Y0023567D02*
X0008411Y0023821D01*
X0008665D01*
X0008411Y0024075D01*
X0008665Y0024329D01*
X0008411D01*
X0008157Y0024583D01*
X0007903Y0024329D01*
X0007649D01*
X0007903Y0024075D01*
X0007649Y0023821D01*
X0007903D01*
X0008157Y0023567D01*
Y0017567D02*
X0008411Y0017821D01*
X0008665D01*
X0008411Y0018075D01*
X0008665Y0018329D01*
X0008411D01*
X0008157Y0018583D01*
X0007903Y0018329D01*
X0007649D01*
X0007903Y0018075D01*
X0007649Y0017821D01*
X0007903D01*
X0008157Y0017567D01*
X0008657Y0014567D02*
X0008911Y0014821D01*
X0009165D01*
X0008911Y0015075D01*
X0009165Y0015329D01*
X0008911D01*
X0008657Y0015583D01*
X0008403Y0015329D01*
X0008149D01*
X0008403Y0015075D01*
X0008149Y0014821D01*
X0008403D01*
X0008657Y0014567D01*
X0007157Y0029567D02*
X0007411Y0029821D01*
X0007665D01*
X0007411Y0030075D01*
X0007665Y0030329D01*
X0007411D01*
X0007157Y0030583D01*
X0006903Y0030329D01*
X0006649D01*
X0006903Y0030075D01*
X0006649Y0029821D01*
X0006903D01*
X0007157Y0029567D01*
X0007657Y0028567D02*
X0007911Y0028821D01*
X0008165D01*
X0007911Y0029075D01*
X0008165Y0029329D01*
X0007911D01*
X0007657Y0029583D01*
X0007403Y0029329D01*
X0007149D01*
X0007403Y0029075D01*
X0007149Y0028821D01*
X0007403D01*
X0007657Y0028567D01*
X0007157Y0027567D02*
X0007411Y0027821D01*
X0007665D01*
X0007411Y0028075D01*
X0007665Y0028329D01*
X0007411D01*
X0007157Y0028583D01*
X0006903Y0028329D01*
X0006649D01*
X0006903Y0028075D01*
X0006649Y0027821D01*
X0006903D01*
X0007157Y0027567D01*
X0007657Y0026567D02*
X0007911Y0026821D01*
X0008165D01*
X0007911Y0027075D01*
X0008165Y0027329D01*
X0007911D01*
X0007657Y0027583D01*
X0007403Y0027329D01*
X0007149D01*
X0007403Y0027075D01*
X0007149Y0026821D01*
X0007403D01*
X0007657Y0026567D01*
X0007157Y0025567D02*
X0007411Y0025821D01*
X0007665D01*
X0007411Y0026075D01*
X0007665Y0026329D01*
X0007411D01*
X0007157Y0026583D01*
X0006903Y0026329D01*
X0006649D01*
X0006903Y0026075D01*
X0006649Y0025821D01*
X0006903D01*
X0007157Y0025567D01*
X0007657Y0024567D02*
X0007911Y0024821D01*
X0008165D01*
X0007911Y0025075D01*
X0008165Y0025329D01*
X0007911D01*
X0007657Y0025583D01*
X0007403Y0025329D01*
X0007149D01*
X0007403Y0025075D01*
X0007149Y0024821D01*
X0007403D01*
X0007657Y0024567D01*
X0007157Y0023567D02*
X0007411Y0023821D01*
X0007665D01*
X0007411Y0024075D01*
X0007665Y0024329D01*
X0007411D01*
X0007157Y0024583D01*
X0006903Y0024329D01*
X0006649D01*
X0006903Y0024075D01*
X0006649Y0023821D01*
X0006903D01*
X0007157Y0023567D01*
Y0021567D02*
X0007411Y0021821D01*
X0007665D01*
X0007411Y0022075D01*
X0007665Y0022329D01*
X0007411D01*
X0007157Y0022583D01*
X0006903Y0022329D01*
X0006649D01*
X0006903Y0022075D01*
X0006649Y0021821D01*
X0006903D01*
X0007157Y0021567D01*
Y0019567D02*
X0007411Y0019821D01*
X0007665D01*
X0007411Y0020075D01*
X0007665Y0020329D01*
X0007411D01*
X0007157Y0020583D01*
X0006903Y0020329D01*
X0006649D01*
X0006903Y0020075D01*
X0006649Y0019821D01*
X0006903D01*
X0007157Y0019567D01*
Y0017567D02*
X0007411Y0017821D01*
X0007665D01*
X0007411Y0018075D01*
X0007665Y0018329D01*
X0007411D01*
X0007157Y0018583D01*
X0006903Y0018329D01*
X0006649D01*
X0006903Y0018075D01*
X0006649Y0017821D01*
X0006903D01*
X0007157Y0017567D01*
X0007657Y0014567D02*
X0007911Y0014821D01*
X0008165D01*
X0007911Y0015075D01*
X0008165Y0015329D01*
X0007911D01*
X0007657Y0015583D01*
X0007403Y0015329D01*
X0007149D01*
X0007403Y0015075D01*
X0007149Y0014821D01*
X0007403D01*
X0007657Y0014567D01*
X0006157Y0029567D02*
X0006411Y0029821D01*
X0006665D01*
X0006411Y0030075D01*
X0006665Y0030329D01*
X0006411D01*
X0006157Y0030583D01*
X0005903Y0030329D01*
X0005649D01*
X0005903Y0030075D01*
X0005649Y0029821D01*
X0005903D01*
X0006157Y0029567D01*
X0006657Y0028567D02*
X0006911Y0028821D01*
X0007165D01*
X0006911Y0029075D01*
X0007165Y0029329D01*
X0006911D01*
X0006657Y0029583D01*
X0006403Y0029329D01*
X0006149D01*
X0006403Y0029075D01*
X0006149Y0028821D01*
X0006403D01*
X0006657Y0028567D01*
X0006157Y0027567D02*
X0006411Y0027821D01*
X0006665D01*
X0006411Y0028075D01*
X0006665Y0028329D01*
X0006411D01*
X0006157Y0028583D01*
X0005903Y0028329D01*
X0005649D01*
X0005903Y0028075D01*
X0005649Y0027821D01*
X0005903D01*
X0006157Y0027567D01*
X0006657Y0026567D02*
X0006911Y0026821D01*
X0007165D01*
X0006911Y0027075D01*
X0007165Y0027329D01*
X0006911D01*
X0006657Y0027583D01*
X0006403Y0027329D01*
X0006149D01*
X0006403Y0027075D01*
X0006149Y0026821D01*
X0006403D01*
X0006657Y0026567D01*
X0006157Y0025567D02*
X0006411Y0025821D01*
X0006665D01*
X0006411Y0026075D01*
X0006665Y0026329D01*
X0006411D01*
X0006157Y0026583D01*
X0005903Y0026329D01*
X0005649D01*
X0005903Y0026075D01*
X0005649Y0025821D01*
X0005903D01*
X0006157Y0025567D01*
X0006657Y0024567D02*
X0006911Y0024821D01*
X0007165D01*
X0006911Y0025075D01*
X0007165Y0025329D01*
X0006911D01*
X0006657Y0025583D01*
X0006403Y0025329D01*
X0006149D01*
X0006403Y0025075D01*
X0006149Y0024821D01*
X0006403D01*
X0006657Y0024567D01*
X0006157Y0023567D02*
X0006411Y0023821D01*
X0006665D01*
X0006411Y0024075D01*
X0006665Y0024329D01*
X0006411D01*
X0006157Y0024583D01*
X0005903Y0024329D01*
X0005649D01*
X0005903Y0024075D01*
X0005649Y0023821D01*
X0005903D01*
X0006157Y0023567D01*
X0006657Y0022567D02*
X0006911Y0022821D01*
X0007165D01*
X0006911Y0023075D01*
X0007165Y0023329D01*
X0006911D01*
X0006657Y0023583D01*
X0006403Y0023329D01*
X0006149D01*
X0006403Y0023075D01*
X0006149Y0022821D01*
X0006403D01*
X0006657Y0022567D01*
X0006157Y0021567D02*
X0006411Y0021821D01*
X0006665D01*
X0006411Y0022075D01*
X0006665Y0022329D01*
X0006411D01*
X0006157Y0022583D01*
X0005903Y0022329D01*
X0005649D01*
X0005903Y0022075D01*
X0005649Y0021821D01*
X0005903D01*
X0006157Y0021567D01*
X0006657Y0020567D02*
X0006911Y0020821D01*
X0007165D01*
X0006911Y0021075D01*
X0007165Y0021329D01*
X0006911D01*
X0006657Y0021583D01*
X0006403Y0021329D01*
X0006149D01*
X0006403Y0021075D01*
X0006149Y0020821D01*
X0006403D01*
X0006657Y0020567D01*
X0006157Y0019567D02*
X0006411Y0019821D01*
X0006665D01*
X0006411Y0020075D01*
X0006665Y0020329D01*
X0006411D01*
X0006157Y0020583D01*
X0005903Y0020329D01*
X0005649D01*
X0005903Y0020075D01*
X0005649Y0019821D01*
X0005903D01*
X0006157Y0019567D01*
X0005157Y0029567D02*
X0005411Y0029821D01*
X0005665D01*
X0005411Y0030075D01*
X0005665Y0030329D01*
X0005411D01*
X0005157Y0030583D01*
X0004903Y0030329D01*
X0004649D01*
X0004903Y0030075D01*
X0004649Y0029821D01*
X0004903D01*
X0005157Y0029567D01*
X0005657Y0028567D02*
X0005911Y0028821D01*
X0006165D01*
X0005911Y0029075D01*
X0006165Y0029329D01*
X0005911D01*
X0005657Y0029583D01*
X0005403Y0029329D01*
X0005149D01*
X0005403Y0029075D01*
X0005149Y0028821D01*
X0005403D01*
X0005657Y0028567D01*
X0005157Y0027567D02*
X0005411Y0027821D01*
X0005665D01*
X0005411Y0028075D01*
X0005665Y0028329D01*
X0005411D01*
X0005157Y0028583D01*
X0004903Y0028329D01*
X0004649D01*
X0004903Y0028075D01*
X0004649Y0027821D01*
X0004903D01*
X0005157Y0027567D01*
X0005657Y0026567D02*
X0005911Y0026821D01*
X0006165D01*
X0005911Y0027075D01*
X0006165Y0027329D01*
X0005911D01*
X0005657Y0027583D01*
X0005403Y0027329D01*
X0005149D01*
X0005403Y0027075D01*
X0005149Y0026821D01*
X0005403D01*
X0005657Y0026567D01*
X0005157Y0025567D02*
X0005411Y0025821D01*
X0005665D01*
X0005411Y0026075D01*
X0005665Y0026329D01*
X0005411D01*
X0005157Y0026583D01*
X0004903Y0026329D01*
X0004649D01*
X0004903Y0026075D01*
X0004649Y0025821D01*
X0004903D01*
X0005157Y0025567D01*
X0005657Y0024567D02*
X0005911Y0024821D01*
X0006165D01*
X0005911Y0025075D01*
X0006165Y0025329D01*
X0005911D01*
X0005657Y0025583D01*
X0005403Y0025329D01*
X0005149D01*
X0005403Y0025075D01*
X0005149Y0024821D01*
X0005403D01*
X0005657Y0024567D01*
X0005157Y0023567D02*
X0005411Y0023821D01*
X0005665D01*
X0005411Y0024075D01*
X0005665Y0024329D01*
X0005411D01*
X0005157Y0024583D01*
X0004903Y0024329D01*
X0004649D01*
X0004903Y0024075D01*
X0004649Y0023821D01*
X0004903D01*
X0005157Y0023567D01*
X0005657Y0022567D02*
X0005911Y0022821D01*
X0006165D01*
X0005911Y0023075D01*
X0006165Y0023329D01*
X0005911D01*
X0005657Y0023583D01*
X0005403Y0023329D01*
X0005149D01*
X0005403Y0023075D01*
X0005149Y0022821D01*
X0005403D01*
X0005657Y0022567D01*
X0005157Y0021567D02*
X0005411Y0021821D01*
X0005665D01*
X0005411Y0022075D01*
X0005665Y0022329D01*
X0005411D01*
X0005157Y0022583D01*
X0004903Y0022329D01*
X0004649D01*
X0004903Y0022075D01*
X0004649Y0021821D01*
X0004903D01*
X0005157Y0021567D01*
X0005657Y0020567D02*
X0005911Y0020821D01*
X0006165D01*
X0005911Y0021075D01*
X0006165Y0021329D01*
X0005911D01*
X0005657Y0021583D01*
X0005403Y0021329D01*
X0005149D01*
X0005403Y0021075D01*
X0005149Y0020821D01*
X0005403D01*
X0005657Y0020567D01*
X0003157Y0019567D02*
X0003411Y0019821D01*
X0003665D01*
X0003411Y0020075D01*
X0003665Y0020329D01*
X0003411D01*
X0003157Y0020583D01*
X0002903Y0020329D01*
X0002649D01*
X0002903Y0020075D01*
X0002649Y0019821D01*
X0002903D01*
X0003157Y0019567D01*
X0003657Y0018567D02*
X0003911Y0018821D01*
X0004165D01*
X0003911Y0019075D01*
X0004165Y0019329D01*
X0003911D01*
X0003657Y0019583D01*
X0003403Y0019329D01*
X0003149D01*
X0003403Y0019075D01*
X0003149Y0018821D01*
X0003403D01*
X0003657Y0018567D01*
X0003157Y0003567D02*
X0003411Y0003821D01*
X0003665D01*
X0003411Y0004075D01*
X0003665Y0004329D01*
X0003411D01*
X0003157Y0004583D01*
X0002903Y0004329D01*
X0002649D01*
X0002903Y0004075D01*
X0002649Y0003821D01*
X0002903D01*
X0003157Y0003567D01*
X0002157Y0029567D02*
X0002411Y0029821D01*
X0002665D01*
X0002411Y0030075D01*
X0002665Y0030329D01*
X0002411D01*
X0002157Y0030583D01*
X0001903Y0030329D01*
X0001649D01*
X0001903Y0030075D01*
X0001649Y0029821D01*
X0001903D01*
X0002157Y0029567D01*
X0002657Y0028567D02*
X0002911Y0028821D01*
X0003165D01*
X0002911Y0029075D01*
X0003165Y0029329D01*
X0002911D01*
X0002657Y0029583D01*
X0002403Y0029329D01*
X0002149D01*
X0002403Y0029075D01*
X0002149Y0028821D01*
X0002403D01*
X0002657Y0028567D01*
X0002157Y0027567D02*
X0002411Y0027821D01*
X0002665D01*
X0002411Y0028075D01*
X0002665Y0028329D01*
X0002411D01*
X0002157Y0028583D01*
X0001903Y0028329D01*
X0001649D01*
X0001903Y0028075D01*
X0001649Y0027821D01*
X0001903D01*
X0002157Y0027567D01*
X0002657Y0026567D02*
X0002911Y0026821D01*
X0003165D01*
X0002911Y0027075D01*
X0003165Y0027329D01*
X0002911D01*
X0002657Y0027583D01*
X0002403Y0027329D01*
X0002149D01*
X0002403Y0027075D01*
X0002149Y0026821D01*
X0002403D01*
X0002657Y0026567D01*
X0002157Y0025567D02*
X0002411Y0025821D01*
X0002665D01*
X0002411Y0026075D01*
X0002665Y0026329D01*
X0002411D01*
X0002157Y0026583D01*
X0001903Y0026329D01*
X0001649D01*
X0001903Y0026075D01*
X0001649Y0025821D01*
X0001903D01*
X0002157Y0025567D01*
X0002657Y0024567D02*
X0002911Y0024821D01*
X0003165D01*
X0002911Y0025075D01*
X0003165Y0025329D01*
X0002911D01*
X0002657Y0025583D01*
X0002403Y0025329D01*
X0002149D01*
X0002403Y0025075D01*
X0002149Y0024821D01*
X0002403D01*
X0002657Y0024567D01*
X0002157Y0023567D02*
X0002411Y0023821D01*
X0002665D01*
X0002411Y0024075D01*
X0002665Y0024329D01*
X0002411D01*
X0002157Y0024583D01*
X0001903Y0024329D01*
X0001649D01*
X0001903Y0024075D01*
X0001649Y0023821D01*
X0001903D01*
X0002157Y0023567D01*
X0002657Y0022567D02*
X0002911Y0022821D01*
X0003165D01*
X0002911Y0023075D01*
X0003165Y0023329D01*
X0002911D01*
X0002657Y0023583D01*
X0002403Y0023329D01*
X0002149D01*
X0002403Y0023075D01*
X0002149Y0022821D01*
X0002403D01*
X0002657Y0022567D01*
X0002157Y0021567D02*
X0002411Y0021821D01*
X0002665D01*
X0002411Y0022075D01*
X0002665Y0022329D01*
X0002411D01*
X0002157Y0022583D01*
X0001903Y0022329D01*
X0001649D01*
X0001903Y0022075D01*
X0001649Y0021821D01*
X0001903D01*
X0002157Y0021567D01*
X0002657Y0020567D02*
X0002911Y0020821D01*
X0003165D01*
X0002911Y0021075D01*
X0003165Y0021329D01*
X0002911D01*
X0002657Y0021583D01*
X0002403Y0021329D01*
X0002149D01*
X0002403Y0021075D01*
X0002149Y0020821D01*
X0002403D01*
X0002657Y0020567D01*
X0002157Y0019567D02*
X0002411Y0019821D01*
X0002665D01*
X0002411Y0020075D01*
X0002665Y0020329D01*
X0002411D01*
X0002157Y0020583D01*
X0001903Y0020329D01*
X0001649D01*
X0001903Y0020075D01*
X0001649Y0019821D01*
X0001903D01*
X0002157Y0019567D01*
X0002657Y0018567D02*
X0002911Y0018821D01*
X0003165D01*
X0002911Y0019075D01*
X0003165Y0019329D01*
X0002911D01*
X0002657Y0019583D01*
X0002403Y0019329D01*
X0002149D01*
X0002403Y0019075D01*
X0002149Y0018821D01*
X0002403D01*
X0002657Y0018567D01*
X0002157Y0017567D02*
X0002411Y0017821D01*
X0002665D01*
X0002411Y0018075D01*
X0002665Y0018329D01*
X0002411D01*
X0002157Y0018583D01*
X0001903Y0018329D01*
X0001649D01*
X0001903Y0018075D01*
X0001649Y0017821D01*
X0001903D01*
X0002157Y0017567D01*
X-0001843Y0003567D02*
X-0001589Y0003821D01*
X-0001335D01*
X-0001589Y0004075D01*
X-0001335Y0004329D01*
X-0001589D01*
X-0001843Y0004583D01*
X-0002097Y0004329D01*
X-0002351D01*
X-0002097Y0004075D01*
X-0002351Y0003821D01*
X-0002097D01*
X-0001843Y0003567D01*
Y0001567D02*
X-0001589Y0001821D01*
X-0001335D01*
X-0001589Y0002075D01*
X-0001335Y0002329D01*
X-0001589D01*
X-0001843Y0002583D01*
X-0002097Y0002329D01*
X-0002351D01*
X-0002097Y0002075D01*
X-0002351Y0001821D01*
X-0002097D01*
X-0001843Y0001567D01*
X-0002343Y0004567D02*
X-0002089Y0004821D01*
X-0001835D01*
X-0002089Y0005075D01*
X-0001835Y0005329D01*
X-0002089D01*
X-0002343Y0005583D01*
X-0002597Y0005329D01*
X-0002851D01*
X-0002597Y0005075D01*
X-0002851Y0004821D01*
X-0002597D01*
X-0002343Y0004567D01*
X-0002843Y0003567D02*
X-0002589Y0003821D01*
X-0002335D01*
X-0002589Y0004075D01*
X-0002335Y0004329D01*
X-0002589D01*
X-0002843Y0004583D01*
X-0003097Y0004329D01*
X-0003351D01*
X-0003097Y0004075D01*
X-0003351Y0003821D01*
X-0003097D01*
X-0002843Y0003567D01*
X-0002343Y0002567D02*
X-0002089Y0002821D01*
X-0001835D01*
X-0002089Y0003075D01*
X-0001835Y0003329D01*
X-0002089D01*
X-0002343Y0003583D01*
X-0002597Y0003329D01*
X-0002851D01*
X-0002597Y0003075D01*
X-0002851Y0002821D01*
X-0002597D01*
X-0002343Y0002567D01*
X-0003843Y0007567D02*
X-0003589Y0007821D01*
X-0003335D01*
X-0003589Y0008075D01*
X-0003335Y0008329D01*
X-0003589D01*
X-0003843Y0008583D01*
X-0004097Y0008329D01*
X-0004351D01*
X-0004097Y0008075D01*
X-0004351Y0007821D01*
X-0004097D01*
X-0003843Y0007567D01*
X-0003343Y0004567D02*
X-0003089Y0004821D01*
X-0002835D01*
X-0003089Y0005075D01*
X-0002835Y0005329D01*
X-0003089D01*
X-0003343Y0005583D01*
X-0003597Y0005329D01*
X-0003851D01*
X-0003597Y0005075D01*
X-0003851Y0004821D01*
X-0003597D01*
X-0003343Y0004567D01*
X-0003843Y0003567D02*
X-0003589Y0003821D01*
X-0003335D01*
X-0003589Y0004075D01*
X-0003335Y0004329D01*
X-0003589D01*
X-0003843Y0004583D01*
X-0004097Y0004329D01*
X-0004351D01*
X-0004097Y0004075D01*
X-0004351Y0003821D01*
X-0004097D01*
X-0003843Y0003567D01*
X-0003343Y0002567D02*
X-0003089Y0002821D01*
X-0002835D01*
X-0003089Y0003075D01*
X-0002835Y0003329D01*
X-0003089D01*
X-0003343Y0003583D01*
X-0003597Y0003329D01*
X-0003851D01*
X-0003597Y0003075D01*
X-0003851Y0002821D01*
X-0003597D01*
X-0003343Y0002567D01*
X-0004343Y0004567D02*
X-0004089Y0004821D01*
X-0003835D01*
X-0004089Y0005075D01*
X-0003835Y0005329D01*
X-0004089D01*
X-0004343Y0005583D01*
X-0004597Y0005329D01*
X-0004851D01*
X-0004597Y0005075D01*
X-0004851Y0004821D01*
X-0004597D01*
X-0004343Y0004567D01*
X0019817Y0027823D02*
X0020071Y0028077D01*
X0020325D01*
X0020071Y0028331D01*
X0020325Y0028585D01*
X0020071D01*
X0019817Y0028839D01*
X0019563Y0028585D01*
X0019309D01*
X0019563Y0028331D01*
X0019309Y0028077D01*
X0019563D01*
X0019817Y0027823D01*
X0021202Y0022907D02*
X0021456Y0023161D01*
X002171D01*
X0021456Y0023415D01*
X002171Y0023669D01*
X0021456D01*
X0021202Y0023923D01*
X0020948Y0023669D01*
X0020694D01*
X0020948Y0023415D01*
X0020694Y0023161D01*
X0020948D01*
X0021202Y0022907D01*
Y0023614D02*
X0021456Y0023868D01*
X002171D01*
X0021456Y0024122D01*
X002171Y0024376D01*
X0021456D01*
X0021202Y002463D01*
X0020948Y0024376D01*
X0020694D01*
X0020948Y0024122D01*
X0020694Y0023868D01*
X0020948D01*
X0021202Y0023614D01*
Y0025736D02*
X0021456Y002599D01*
X002171D01*
X0021456Y0026244D01*
X002171Y0026498D01*
X0021456D01*
X0021202Y0026752D01*
X0020948Y0026498D01*
X0020694D01*
X0020948Y0026244D01*
X0020694Y002599D01*
X0020948D01*
X0021202Y0025736D01*
Y0024321D02*
X0021456Y0024575D01*
X002171D01*
X0021456Y0024829D01*
X002171Y0025083D01*
X0021456D01*
X0021202Y0025337D01*
X0020948Y0025083D01*
X0020694D01*
X0020948Y0024829D01*
X0020694Y0024575D01*
X0020948D01*
X0021202Y0024321D01*
Y0026443D02*
X0021456Y0026697D01*
X002171D01*
X0021456Y0026951D01*
X002171Y0027205D01*
X0021456D01*
X0021202Y0027459D01*
X0020948Y0027205D01*
X0020694D01*
X0020948Y0026951D01*
X0020694Y0026697D01*
X0020948D01*
X0021202Y0026443D01*
Y0027151D02*
X0021456Y0027405D01*
X002171D01*
X0021456Y0027659D01*
X002171Y0027913D01*
X0021456D01*
X0021202Y0028167D01*
X0020948Y0027913D01*
X0020694D01*
X0020948Y0027659D01*
X0020694Y0027405D01*
X0020948D01*
X0021202Y0027151D01*
Y0025029D02*
X0021456Y0025283D01*
X002171D01*
X0021456Y0025537D01*
X002171Y0025791D01*
X0021456D01*
X0021202Y0026045D01*
X0020948Y0025791D01*
X0020694D01*
X0020948Y0025537D01*
X0020694Y0025283D01*
X0020948D01*
X0021202Y0025029D01*
X0021107Y0027858D02*
X0021361Y0028112D01*
X0021615D01*
X0021361Y0028366D01*
X0021615Y002862D01*
X0021361D01*
X0021107Y0028874D01*
X0020853Y002862D01*
X0020599D01*
X0020853Y0028366D01*
X0020599Y0028112D01*
X0020853D01*
X0021107Y0027858D01*
X0021755Y0027151D02*
X0022009Y0027405D01*
X0022263D01*
X0022009Y0027659D01*
X0022263Y0027913D01*
X0022009D01*
X0021755Y0028167D01*
X0021501Y0027913D01*
X0021247D01*
X0021501Y0027659D01*
X0021247Y0027405D01*
X0021501D01*
X0021755Y0027151D01*
Y0027858D02*
X0022009Y0028112D01*
X0022263D01*
X0022009Y0028366D01*
X0022263Y002862D01*
X0022009D01*
X0021755Y0028874D01*
X0021501Y002862D01*
X0021247D01*
X0021501Y0028366D01*
X0021247Y0028112D01*
X0021501D01*
X0021755Y0027858D01*
X0019817Y0022743D02*
X0020071Y0022997D01*
X0020325D01*
X0020071Y0023251D01*
X0020325Y0023505D01*
X0020071D01*
X0019817Y0023759D01*
X0019563Y0023505D01*
X0019309D01*
X0019563Y0023251D01*
X0019309Y0022997D01*
X0019563D01*
X0019817Y0022743D01*
Y0024013D02*
X0020071Y0024267D01*
X0020325D01*
X0020071Y0024521D01*
X0020325Y0024775D01*
X0020071D01*
X0019817Y0025029D01*
X0019563Y0024775D01*
X0019309D01*
X0019563Y0024521D01*
X0019309Y0024267D01*
X0019563D01*
X0019817Y0024013D01*
Y0025283D02*
X0020071Y0025537D01*
X0020325D01*
X0020071Y0025791D01*
X0020325Y0026045D01*
X0020071D01*
X0019817Y0026299D01*
X0019563Y0026045D01*
X0019309D01*
X0019563Y0025791D01*
X0019309Y0025537D01*
X0019563D01*
X0019817Y0025283D01*
X0029388Y0017907D02*
X0029642Y0018161D01*
X0029896D01*
X0029642Y0018415D01*
X0029896Y0018669D01*
X0029642D01*
X0029388Y0018923D01*
X0029134Y0018669D01*
X002888D01*
X0029134Y0018415D01*
X002888Y0018161D01*
X0029134D01*
X0029388Y0017907D01*
X0036877Y0018368D02*
X0037131Y0018622D01*
X0037385D01*
X0037131Y0018876D01*
X0037385Y001913D01*
X0037131D01*
X0036877Y0019384D01*
X0036623Y001913D01*
X0036369D01*
X0036623Y0018876D01*
X0036369Y0018622D01*
X0036623D01*
X0036877Y0018368D01*
X0009777Y0020608D02*
X0010031Y0020862D01*
X0010285D01*
X0010031Y0021116D01*
X0010285Y002137D01*
X0010031D01*
X0009777Y0021624D01*
X0009523Y002137D01*
X0009269D01*
X0009523Y0021116D01*
X0009269Y0020862D01*
X0009523D01*
X0009777Y0020608D01*
X0012878Y0009931D02*
X0013132Y0010185D01*
X0013386D01*
X0013132Y0010439D01*
X0013386Y0010693D01*
X0013132D01*
X0012878Y0010947D01*
X0012624Y0010693D01*
X001237D01*
X0012624Y0010439D01*
X001237Y0010185D01*
X0012624D01*
X0012878Y0009931D01*
X0012852Y0011354D02*
X0013106Y0011608D01*
X001336D01*
X0013106Y0011862D01*
X001336Y0012116D01*
X0013106D01*
X0012852Y001237D01*
X0012598Y0012116D01*
X0012344D01*
X0012598Y0011862D01*
X0012344Y0011608D01*
X0012598D01*
X0012852Y0011354D01*
X000242Y0009068D02*
X0002674Y0009322D01*
X0002928D01*
X0002674Y0009576D01*
X0002928Y000983D01*
X0002674D01*
X000242Y0010084D01*
X0002166Y000983D01*
X0001912D01*
X0002166Y0009576D01*
X0001912Y0009322D01*
X0002166D01*
X000242Y0009068D01*
X0008211Y0007008D02*
X0008465Y0007262D01*
X0008719D01*
X0008465Y0007516D01*
X0008719Y000777D01*
X0008465D01*
X0008211Y0008024D01*
X0007957Y000777D01*
X0007703D01*
X0007957Y0007516D01*
X0007703Y0007262D01*
X0007957D01*
X0008211Y0007008D01*
X0007108D02*
X0007362Y0007262D01*
X0007616D01*
X0007362Y0007516D01*
X0007616Y000777D01*
X0007362D01*
X0007108Y0008024D01*
X0006854Y000777D01*
X00066D01*
X0006854Y0007516D01*
X00066Y0007262D01*
X0006854D01*
X0007108Y0007008D01*
X0006005Y0008518D02*
X0006259Y0008772D01*
X0006513D01*
X0006259Y0009026D01*
X0006513Y000928D01*
X0006259D01*
X0006005Y0009534D01*
X0005751Y000928D01*
X0005497D01*
X0005751Y0009026D01*
X0005497Y0008772D01*
X0005751D01*
X0006005Y0008518D01*
X0004902D02*
X0005156Y0008772D01*
X000541D01*
X0005156Y0009026D01*
X000541Y000928D01*
X0005156D01*
X0004902Y0009534D01*
X0004648Y000928D01*
X0004394D01*
X0004648Y0009026D01*
X0004394Y0008772D01*
X0004648D01*
X0004902Y0008518D01*
X0025095Y0000305D02*
X0025349Y0000559D01*
X0025603D01*
X0025349Y0000813D01*
X0025603Y0001067D01*
X0025349D01*
X0025095Y0001321D01*
X0024841Y0001067D01*
X0024587D01*
X0024841Y0000813D01*
X0024587Y0000559D01*
X0024841D01*
X0025095Y0000305D01*
X002761D02*
X0027864Y0000559D01*
X0028118D01*
X0027864Y0000813D01*
X0028118Y0001067D01*
X0027864D01*
X002761Y0001321D01*
X0027356Y0001067D01*
X0027102D01*
X0027356Y0000813D01*
X0027102Y0000559D01*
X0027356D01*
X002761Y0000305D01*
X0030099D02*
X0030353Y0000559D01*
X0030607D01*
X0030353Y0000813D01*
X0030607Y0001067D01*
X0030353D01*
X0030099Y0001321D01*
X0029845Y0001067D01*
X0029591D01*
X0029845Y0000813D01*
X0029591Y0000559D01*
X0029845D01*
X0030099Y0000305D01*
X0031521Y0002159D02*
X0031775Y0002413D01*
X0032029D01*
X0031775Y0002667D01*
X0032029Y0002921D01*
X0031775D01*
X0031521Y0003175D01*
X0031267Y0002921D01*
X0031013D01*
X0031267Y0002667D01*
X0031013Y0002413D01*
X0031267D01*
X0031521Y0002159D01*
X002761Y000181D02*
X0027864Y0002064D01*
X0028118D01*
X0027864Y0002318D01*
X0028118Y0002572D01*
X0027864D01*
X002761Y0002826D01*
X0027356Y0002572D01*
X0027102D01*
X0027356Y0002318D01*
X0027102Y0002064D01*
X0027356D01*
X002761Y000181D01*
Y000332D02*
X0027864Y0003574D01*
X0028118D01*
X0027864Y0003828D01*
X0028118Y0004082D01*
X0027864D01*
X002761Y0004336D01*
X0027356Y0004082D01*
X0027102D01*
X0027356Y0003828D01*
X0027102Y0003574D01*
X0027356D01*
X002761Y000332D01*
X0016231Y0021473D02*
X0016485Y0021727D01*
X0016739D01*
X0016485Y0021981D01*
X0016739Y0022235D01*
X0016485D01*
X0016231Y0022489D01*
X0015977Y0022235D01*
X0015723D01*
X0015977Y0021981D01*
X0015723Y0021727D01*
X0015977D01*
X0016231Y0021473D01*
X0018593D02*
X0018847Y0021727D01*
X0019101D01*
X0018847Y0021981D01*
X0019101Y0022235D01*
X0018847D01*
X0018593Y0022489D01*
X0018339Y0022235D01*
X0018085D01*
X0018339Y0021981D01*
X0018085Y0021727D01*
X0018339D01*
X0018593Y0021473D01*
X0010358Y0026588D02*
X0010612Y0026842D01*
X0010866D01*
X0010612Y0027096D01*
X0010866Y002735D01*
X0010612D01*
X0010358Y0027604D01*
X0010104Y002735D01*
X000985D01*
X0010104Y0027096D01*
X000985Y0026842D01*
X0010104D01*
X0010358Y0026588D01*
X0036877Y0021168D02*
X0037131Y0021422D01*
X0037385D01*
X0037131Y0021676D01*
X0037385Y002193D01*
X0037131D01*
X0036877Y0022184D01*
X0036623Y002193D01*
X0036369D01*
X0036623Y0021676D01*
X0036369Y0021422D01*
X0036623D01*
X0036877Y0021168D01*
Y0019768D02*
X0037131Y0020022D01*
X0037385D01*
X0037131Y0020276D01*
X0037385Y002053D01*
X0037131D01*
X0036877Y0020784D01*
X0036623Y002053D01*
X0036369D01*
X0036623Y0020276D01*
X0036369Y0020022D01*
X0036623D01*
X0036877Y0019768D01*
X0010338Y0028016D02*
X0010592Y002827D01*
X0010846D01*
X0010592Y0028524D01*
X0010846Y0028778D01*
X0010592D01*
X0010338Y0029032D01*
X0010084Y0028778D01*
X000983D01*
X0010084Y0028524D01*
X000983Y002827D01*
X0010084D01*
X0010338Y0028016D01*
X0009068D02*
X0009322Y002827D01*
X0009576D01*
X0009322Y0028524D01*
X0009576Y0028778D01*
X0009322D01*
X0009068Y0029032D01*
X0008814Y0028778D01*
X000856D01*
X0008814Y0028524D01*
X000856Y002827D01*
X0008814D01*
X0009068Y0028016D01*
Y0029261D02*
X0009322Y0029515D01*
X0009576D01*
X0009322Y0029769D01*
X0009576Y0030023D01*
X0009322D01*
X0009068Y0030277D01*
X0008814Y0030023D01*
X000856D01*
X0008814Y0029769D01*
X000856Y0029515D01*
X0008814D01*
X0009068Y0029261D01*
X0010338D02*
X0010592Y0029515D01*
X0010846D01*
X0010592Y0029769D01*
X0010846Y0030023D01*
X0010592D01*
X0010338Y0030277D01*
X0010084Y0030023D01*
X000983D01*
X0010084Y0029769D01*
X000983Y0029515D01*
X0010084D01*
X0010338Y0029261D01*
X0011633Y0026568D02*
X0011887Y0026822D01*
X0012141D01*
X0011887Y0027076D01*
X0012141Y002733D01*
X0011887D01*
X0011633Y0027584D01*
X0011379Y002733D01*
X0011125D01*
X0011379Y0027076D01*
X0011125Y0026822D01*
X0011379D01*
X0011633Y0026568D01*
Y0028016D02*
X0011887Y002827D01*
X0012141D01*
X0011887Y0028524D01*
X0012141Y0028778D01*
X0011887D01*
X0011633Y0029032D01*
X0011379Y0028778D01*
X0011125D01*
X0011379Y0028524D01*
X0011125Y002827D01*
X0011379D01*
X0011633Y0028016D01*
Y0029261D02*
X0011887Y0029515D01*
X0012141D01*
X0011887Y0029769D01*
X0012141Y0030023D01*
X0011887D01*
X0011633Y0030277D01*
X0011379Y0030023D01*
X0011125D01*
X0011379Y0029769D01*
X0011125Y0029515D01*
X0011379D01*
X0011633Y0029261D01*
X0005918Y0017932D02*
X0006172Y0018186D01*
X0006426D01*
X0006172Y001844D01*
X0006426Y0018694D01*
X0006172D01*
X0005918Y0018948D01*
X0005664Y0018694D01*
X000541D01*
X0005664Y001844D01*
X000541Y0018186D01*
X0005664D01*
X0005918Y0017932D01*
X000475Y0019507D02*
X0005004Y0019761D01*
X0005258D01*
X0005004Y0020015D01*
X0005258Y0020269D01*
X0005004D01*
X000475Y0020523D01*
X0004496Y0020269D01*
X0004242D01*
X0004496Y0020015D01*
X0004242Y0019761D01*
X0004496D01*
X000475Y0019507D01*
X0003962Y0021996D02*
X0004216Y002225D01*
X000447D01*
X0004216Y0022504D01*
X000447Y0022758D01*
X0004216D01*
X0003962Y0023012D01*
X0003708Y0022758D01*
X0003454D01*
X0003708Y0022504D01*
X0003454Y002225D01*
X0003708D01*
X0003962Y0021996D01*
Y0023774D02*
X0004216Y0024028D01*
X000447D01*
X0004216Y0024282D01*
X000447Y0024536D01*
X0004216D01*
X0003962Y002479D01*
X0003708Y0024536D01*
X0003454D01*
X0003708Y0024282D01*
X0003454Y0024028D01*
X0003708D01*
X0003962Y0023774D01*
Y0025222D02*
X0004216Y0025476D01*
X000447D01*
X0004216Y002573D01*
X000447Y0025984D01*
X0004216D01*
X0003962Y0026238D01*
X0003708Y0025984D01*
X0003454D01*
X0003708Y002573D01*
X0003454Y0025476D01*
X0003708D01*
X0003962Y0025222D01*
Y0026568D02*
X0004216Y0026822D01*
X000447D01*
X0004216Y0027076D01*
X000447Y002733D01*
X0004216D01*
X0003962Y0027584D01*
X0003708Y002733D01*
X0003454D01*
X0003708Y0027076D01*
X0003454Y0026822D01*
X0003708D01*
X0003962Y0026568D01*
Y0028016D02*
X0004216Y002827D01*
X000447D01*
X0004216Y0028524D01*
X000447Y0028778D01*
X0004216D01*
X0003962Y0029032D01*
X0003708Y0028778D01*
X0003454D01*
X0003708Y0028524D01*
X0003454Y002827D01*
X0003708D01*
X0003962Y0028016D01*
Y0029261D02*
X0004216Y0029515D01*
X000447D01*
X0004216Y0029769D01*
X000447Y0030023D01*
X0004216D01*
X0003962Y0030277D01*
X0003708Y0030023D01*
X0003454D01*
X0003708Y0029769D01*
X0003454Y0029515D01*
X0003708D01*
X0003962Y0029261D01*
X0034214Y0012116D02*
X0034468Y001237D01*
X0034722D01*
X0034468Y0012624D01*
X0034722Y0012878D01*
X0034468D01*
X0034214Y0013132D01*
X003396Y0012878D01*
X0033706D01*
X003396Y0012624D01*
X0033706Y001237D01*
X003396D01*
X0034214Y0012116D01*
X0031013Y0013233D02*
X0031267Y0013487D01*
X0031521D01*
X0031267Y0013741D01*
X0031521Y0013995D01*
X0031267D01*
X0031013Y0014249D01*
X0030759Y0013995D01*
X0030505D01*
X0030759Y0013741D01*
X0030505Y0013487D01*
X0030759D01*
X0031013Y0013233D01*
X0029058Y0015215D02*
X0029312Y0015469D01*
X0029566D01*
X0029312Y0015723D01*
X0029566Y0015977D01*
X0029312D01*
X0029058Y0016231D01*
X0028804Y0015977D01*
X002855D01*
X0028804Y0015723D01*
X002855Y0015469D01*
X0028804D01*
X0029058Y0015215D01*
X0034214Y0013487D02*
X0034468Y0013741D01*
X0034722D01*
X0034468Y0013995D01*
X0034722Y0014249D01*
X0034468D01*
X0034214Y0014503D01*
X003396Y0014249D01*
X0033706D01*
X003396Y0013995D01*
X0033706Y0013741D01*
X003396D01*
X0034214Y0013487D01*
Y0014834D02*
X0034468Y0015088D01*
X0034722D01*
X0034468Y0015342D01*
X0034722Y0015596D01*
X0034468D01*
X0034214Y001585D01*
X003396Y0015596D01*
X0033706D01*
X003396Y0015342D01*
X0033706Y0015088D01*
X003396D01*
X0034214Y0014834D01*
X0031013Y0014732D02*
X0031267Y0014986D01*
X0031521D01*
X0031267Y001524D01*
X0031521Y0015494D01*
X0031267D01*
X0031013Y0015748D01*
X0030759Y0015494D01*
X0030505D01*
X0030759Y001524D01*
X0030505Y0014986D01*
X0030759D01*
X0031013Y0014732D01*
Y0016307D02*
X0031267Y0016561D01*
X0031521D01*
X0031267Y0016815D01*
X0031521Y0017069D01*
X0031267D01*
X0031013Y0017323D01*
X0030759Y0017069D01*
X0030505D01*
X0030759Y0016815D01*
X0030505Y0016561D01*
X0030759D01*
X0031013Y0016307D01*
X0029058Y0016662D02*
X0029312Y0016916D01*
X0029566D01*
X0029312Y001717D01*
X0029566Y0017424D01*
X0029312D01*
X0029058Y0017678D01*
X0028804Y0017424D01*
X002855D01*
X0028804Y001717D01*
X002855Y0016916D01*
X0028804D01*
X0029058Y0016662D01*
X0026543Y0019863D02*
X0026797Y0020117D01*
X0027051D01*
X0026797Y0020371D01*
X0027051Y0020625D01*
X0026797D01*
X0026543Y0020879D01*
X0026289Y0020625D01*
X0026035D01*
X0026289Y0020371D01*
X0026035Y0020117D01*
X0026289D01*
X0026543Y0019863D01*
X0003429Y0015824D02*
X0003683Y0016078D01*
X0003937D01*
X0003683Y0016332D01*
X0003937Y0016586D01*
X0003683D01*
X0003429Y001684D01*
X0003175Y0016586D01*
X0002921D01*
X0003175Y0016332D01*
X0002921Y0016078D01*
X0003175D01*
X0003429Y0015824D01*
Y0016434D02*
X0003683Y0016688D01*
X0003937D01*
X0003683Y0016942D01*
X0003937Y0017196D01*
X0003683D01*
X0003429Y001745D01*
X0003175Y0017196D01*
X0002921D01*
X0003175Y0016942D01*
X0002921Y0016688D01*
X0003175D01*
X0003429Y0016434D01*
X-0000023Y0011455D02*
X0000231Y0011709D01*
X0000485D01*
X0000231Y0011963D01*
X0000485Y0012217D01*
X0000231D01*
X-0000023Y0012471D01*
X-0000277Y0012217D01*
X-0000531D01*
X-0000277Y0011963D01*
X-0000531Y0011709D01*
X-0000277D01*
X-0000023Y0011455D01*
X-0000593Y001143D02*
X-0000339Y0011684D01*
X-0000085D01*
X-0000339Y0011938D01*
X-0000085Y0012192D01*
X-0000339D01*
X-0000593Y0012446D01*
X-0000847Y0012192D01*
X-0001101D01*
X-0000847Y0011938D01*
X-0001101Y0011684D01*
X-0000847D01*
X-0000593Y001143D01*
X0000547Y0011455D02*
X0000801Y0011709D01*
X0001055D01*
X0000801Y0011963D01*
X0001055Y0012217D01*
X0000801D01*
X0000547Y0012471D01*
X0000293Y0012217D01*
X0000039D01*
X0000293Y0011963D01*
X0000039Y0011709D01*
X0000293D01*
X0000547Y0011455D01*
X0011227Y0009482D02*
X0011481Y0009736D01*
X0011735D01*
X0011481Y000999D01*
X0011735Y0010244D01*
X0011481D01*
X0011227Y0010498D01*
X0010973Y0010244D01*
X0010719D01*
X0010973Y000999D01*
X0010719Y0009736D01*
X0010973D01*
X0011227Y0009482D01*
X0003454Y0009035D02*
X0003708Y0009289D01*
X0003962D01*
X0003708Y0009543D01*
X0003962Y0009797D01*
X0003708D01*
X0003454Y0010051D01*
X00032Y0009797D01*
X0002946D01*
X00032Y0009543D01*
X0002946Y0009289D01*
X00032D01*
X0003454Y0009035D01*
X0018593Y0018948D02*
X0018847Y0019202D01*
X0019101D01*
X0018847Y0019456D01*
X0019101Y001971D01*
X0018847D01*
X0018593Y0019964D01*
X0018339Y001971D01*
X0018085D01*
X0018339Y0019456D01*
X0018085Y0019202D01*
X0018339D01*
X0018593Y0018948D01*
Y0020244D02*
X0018847Y0020498D01*
X0019101D01*
X0018847Y0020752D01*
X0019101Y0021006D01*
X0018847D01*
X0018593Y002126D01*
X0018339Y0021006D01*
X0018085D01*
X0018339Y0020752D01*
X0018085Y0020498D01*
X0018339D01*
X0018593Y0020244D01*
X0006502Y0014462D02*
X0006756Y0014716D01*
X000701D01*
X0006756Y001497D01*
X000701Y0015224D01*
X0006756D01*
X0006502Y0015478D01*
X0006248Y0015224D01*
X0005994D01*
X0006248Y001497D01*
X0005994Y0014716D01*
X0006248D01*
X0006502Y0014462D01*
X0005309D02*
X0005563Y0014716D01*
X0005817D01*
X0005563Y001497D01*
X0005817Y0015224D01*
X0005563D01*
X0005309Y0015478D01*
X0005055Y0015224D01*
X0004801D01*
X0005055Y001497D01*
X0004801Y0014716D01*
X0005055D01*
X0005309Y0014462D01*
X0002057Y0030858D02*
X0002311Y0031112D01*
X0002565D01*
X0002311Y0031366D01*
X0002565Y003162D01*
X0002311D01*
X0002057Y0031874D01*
X0001803Y003162D01*
X0001549D01*
X0001803Y0031366D01*
X0001549Y0031112D01*
X0001803D01*
X0002057Y0030858D01*
X0026314Y-0001905D02*
X0026568Y-0001651D01*
X0026822D01*
X0026568Y-0001397D01*
X0026822Y-0001143D01*
X0026568D01*
X0026314Y-0000889D01*
X002606Y-0001143D01*
X0025806D01*
X002606Y-0001397D01*
X0025806Y-0001651D01*
X002606D01*
X0026314Y-0001905D01*
X0028854D02*
X0029108Y-0001651D01*
X0029362D01*
X0029108Y-0001397D01*
X0029362Y-0001143D01*
X0029108D01*
X0028854Y-0000889D01*
X00286Y-0001143D01*
X0028346D01*
X00286Y-0001397D01*
X0028346Y-0001651D01*
X00286D01*
X0028854Y-0001905D01*
X0031394D02*
X0031648Y-0001651D01*
X0031902D01*
X0031648Y-0001397D01*
X0031902Y-0001143D01*
X0031648D01*
X0031394Y-0000889D01*
X003114Y-0001143D01*
X0030886D01*
X003114Y-0001397D01*
X0030886Y-0001651D01*
X003114D01*
X0031394Y-0001905D01*
X0036877Y0016968D02*
X0037131Y0017222D01*
X0037385D01*
X0037131Y0017476D01*
X0037385Y001773D01*
X0037131D01*
X0036877Y0017984D01*
X0036623Y001773D01*
X0036369D01*
X0036623Y0017476D01*
X0036369Y0017222D01*
X0036623D01*
X0036877Y0016968D01*
X002192Y0015748D02*
X0022174Y0016002D01*
X0022428D01*
X0022174Y0016256D01*
X0022428Y001651D01*
X0022174D01*
X002192Y0016764D01*
X0021666Y001651D01*
X0021412D01*
X0021666Y0016256D01*
X0021412Y0016002D01*
X0021666D01*
X002192Y0015748D01*
X0022441D02*
X0022695Y0016002D01*
X0022949D01*
X0022695Y0016256D01*
X0022949Y001651D01*
X0022695D01*
X0022441Y0016764D01*
X0022187Y001651D01*
X0021933D01*
X0022187Y0016256D01*
X0021933Y0016002D01*
X0022187D01*
X0022441Y0015748D01*
X0021399D02*
X0021653Y0016002D01*
X0021907D01*
X0021653Y0016256D01*
X0021907Y001651D01*
X0021653D01*
X0021399Y0016764D01*
X0021146Y001651D01*
X0020892D01*
X0021146Y0016256D01*
X0020892Y0016002D01*
X0021146D01*
X0021399Y0015748D01*
Y0015215D02*
X0021653Y0015469D01*
X0021907D01*
X0021653Y0015723D01*
X0021907Y0015977D01*
X0021653D01*
X0021399Y0016231D01*
X0021146Y0015977D01*
X0020892D01*
X0021146Y0015723D01*
X0020892Y0015469D01*
X0021146D01*
X0021399Y0015215D01*
X0022441D02*
X0022695Y0015469D01*
X0022949D01*
X0022695Y0015723D01*
X0022949Y0015977D01*
X0022695D01*
X0022441Y0016231D01*
X0022187Y0015977D01*
X0021933D01*
X0022187Y0015723D01*
X0021933Y0015469D01*
X0022187D01*
X0022441Y0015215D01*
X002192D02*
X0022174Y0015469D01*
X0022428D01*
X0022174Y0015723D01*
X0022428Y0015977D01*
X0022174D01*
X002192Y0016231D01*
X0021666Y0015977D01*
X0021412D01*
X0021666Y0015723D01*
X0021412Y0015469D01*
X0021666D01*
X002192Y0015215D01*
X0004699Y0010338D02*
X0004953Y0010592D01*
X0005207D01*
X0004953Y0010846D01*
X0005207Y00111D01*
X0004953D01*
X0004699Y0011354D01*
X0004445Y00111D01*
X0004191D01*
X0004445Y0010846D01*
X0004191Y0010592D01*
X0004445D01*
X0004699Y0010338D01*
X003396Y-0001905D02*
X0034214Y-0001651D01*
X0034468D01*
X0034214Y-0001397D01*
X0034468Y-0001143D01*
X0034214D01*
X003396Y-0000889D01*
X0033706Y-0001143D01*
X0033452D01*
X0033706Y-0001397D01*
X0033452Y-0001651D01*
X0033706D01*
X003396Y-0001905D01*
X0000914D02*
X0001168Y-0001651D01*
X0001422D01*
X0001168Y-0001397D01*
X0001422Y-0001143D01*
X0001168D01*
X0000914Y-0000889D01*
X000066Y-0001143D01*
X0000406D01*
X000066Y-0001397D01*
X0000406Y-0001651D01*
X000066D01*
X0000914Y-0001905D01*
Y-0001194D02*
X0001168Y-000094D01*
X0001422D01*
X0001168Y-0000686D01*
X0001422Y-0000432D01*
X0001168D01*
X0000914Y-0000178D01*
X000066Y-0000432D01*
X0000406D01*
X000066Y-0000686D01*
X0000406Y-000094D01*
X000066D01*
X0000914Y-0001194D01*
Y-0002616D02*
X0001168Y-0002362D01*
X0001422D01*
X0001168Y-0002108D01*
X0001422Y-0001854D01*
X0001168D01*
X0000914Y-00016D01*
X000066Y-0001854D01*
X0000406D01*
X000066Y-0002108D01*
X0000406Y-0002362D01*
X000066D01*
X0000914Y-0002616D01*
X0000406D02*
X000066Y-0002362D01*
X0000914D01*
X000066Y-0002108D01*
X0000914Y-0001854D01*
X000066D01*
X0000406Y-00016D01*
X0000152Y-0001854D01*
X-0000102D01*
X0000152Y-0002108D01*
X-0000102Y-0002362D01*
X0000152D01*
X0000406Y-0002616D01*
Y-0001194D02*
X000066Y-000094D01*
X0000914D01*
X000066Y-0000686D01*
X0000914Y-0000432D01*
X000066D01*
X0000406Y-0000178D01*
X0000152Y-0000432D01*
X-0000102D01*
X0000152Y-0000686D01*
X-0000102Y-000094D01*
X0000152D01*
X0000406Y-0001194D01*
Y-0001905D02*
X000066Y-0001651D01*
X0000914D01*
X000066Y-0001397D01*
X0000914Y-0001143D01*
X000066D01*
X0000406Y-0000889D01*
X0000152Y-0001143D01*
X-0000102D01*
X0000152Y-0001397D01*
X-0000102Y-0001651D01*
X0000152D01*
X0000406Y-0001905D01*
X0001422Y-0002616D02*
X0001676Y-0002362D01*
X000193D01*
X0001676Y-0002108D01*
X000193Y-0001854D01*
X0001676D01*
X0001422Y-00016D01*
X0001168Y-0001854D01*
X0000914D01*
X0001168Y-0002108D01*
X0000914Y-0002362D01*
X0001168D01*
X0001422Y-0002616D01*
Y-0001194D02*
X0001676Y-000094D01*
X000193D01*
X0001676Y-0000686D01*
X000193Y-0000432D01*
X0001676D01*
X0001422Y-0000178D01*
X0001168Y-0000432D01*
X0000914D01*
X0001168Y-0000686D01*
X0000914Y-000094D01*
X0001168D01*
X0001422Y-0001194D01*
Y-0001905D02*
X0001676Y-0001651D01*
X000193D01*
X0001676Y-0001397D01*
X000193Y-0001143D01*
X0001676D01*
X0001422Y-0000889D01*
X0001168Y-0001143D01*
X0000914D01*
X0001168Y-0001397D01*
X0000914Y-0001651D01*
X0001168D01*
X0001422Y-0001905D01*
X0011227Y0010083D02*
X0011481Y0010337D01*
X0011735D01*
X0011481Y0010591D01*
X0011735Y0010845D01*
X0011481D01*
X0011227Y0011099D01*
X0010973Y0010845D01*
X0010719D01*
X0010973Y0010591D01*
X0010719Y0010337D01*
X0010973D01*
X0011227Y0010083D01*
X0011201Y0010733D02*
X0011455Y0010987D01*
X0011709D01*
X0011455Y0011241D01*
X0011709Y0011495D01*
X0011455D01*
X0011201Y0011749D01*
X0010947Y0011495D01*
X0010693D01*
X0010947Y0011241D01*
X0010693Y0010987D01*
X0010947D01*
X0011201Y0010733D01*
X0018187D02*
X0018441Y0010987D01*
X0018695D01*
X0018441Y0011241D01*
X0018695Y0011495D01*
X0018441D01*
X0018187Y0011749D01*
X0017933Y0011495D01*
X0017679D01*
X0017933Y0011241D01*
X0017679Y0010987D01*
X0017933D01*
X0018187Y0010733D01*
Y0009433D02*
X0018441Y0009687D01*
X0018695D01*
X0018441Y0009941D01*
X0018695Y0010195D01*
X0018441D01*
X0018187Y0010449D01*
X0017933Y0010195D01*
X0017679D01*
X0017933Y0009941D01*
X0017679Y0009687D01*
X0017933D01*
X0018187Y0009433D01*
Y0008783D02*
X0018441Y0009037D01*
X0018695D01*
X0018441Y0009291D01*
X0018695Y0009545D01*
X0018441D01*
X0018187Y0009799D01*
X0017933Y0009545D01*
X0017679D01*
X0017933Y0009291D01*
X0017679Y0009037D01*
X0017933D01*
X0018187Y0008783D01*
Y0008133D02*
X0018441Y0008387D01*
X0018695D01*
X0018441Y0008641D01*
X0018695Y0008895D01*
X0018441D01*
X0018187Y0009149D01*
X0017933Y0008895D01*
X0017679D01*
X0017933Y0008641D01*
X0017679Y0008387D01*
X0017933D01*
X0018187Y0008133D01*
Y0007483D02*
X0018441Y0007737D01*
X0018695D01*
X0018441Y0007991D01*
X0018695Y0008245D01*
X0018441D01*
X0018187Y0008499D01*
X0017933Y0008245D01*
X0017679D01*
X0017933Y0007991D01*
X0017679Y0007737D01*
X0017933D01*
X0018187Y0007483D01*
X0013614D02*
X0013868Y0007737D01*
X0014122D01*
X0013868Y0007991D01*
X0014122Y0008245D01*
X0013868D01*
X0013614Y0008499D01*
X001336Y0008245D01*
X0013106D01*
X001336Y0007991D01*
X0013106Y0007737D01*
X001336D01*
X0013614Y0007483D01*
X0016154D02*
X0016408Y0007737D01*
X0016662D01*
X0016408Y0007991D01*
X0016662Y0008245D01*
X0016408D01*
X0016154Y0008499D01*
X00159Y0008245D01*
X0015646D01*
X00159Y0007991D01*
X0015646Y0007737D01*
X00159D01*
X0016154Y0007483D01*
Y-0001905D02*
X0016408Y-0001651D01*
X0016662D01*
X0016408Y-0001397D01*
X0016662Y-0001143D01*
X0016408D01*
X0016154Y-0000889D01*
X00159Y-0001143D01*
X0015646D01*
X00159Y-0001397D01*
X0015646Y-0001651D01*
X00159D01*
X0016154Y-0001905D01*
X0013614D02*
X0013868Y-0001651D01*
X0014122D01*
X0013868Y-0001397D01*
X0014122Y-0001143D01*
X0013868D01*
X0013614Y-0000889D01*
X001336Y-0001143D01*
X0013106D01*
X001336Y-0001397D01*
X0013106Y-0001651D01*
X001336D01*
X0013614Y-0001905D01*
X0007108Y0004688D02*
X0007362Y0004942D01*
X0007616D01*
X0007362Y0005196D01*
X0007616Y000545D01*
X0007362D01*
X0007108Y0005704D01*
X0006854Y000545D01*
X00066D01*
X0006854Y0005196D01*
X00066Y0004942D01*
X0006854D01*
X0007108Y0004688D01*
X0004902Y0006248D02*
X0005156Y0006502D01*
X000541D01*
X0005156Y0006756D01*
X000541Y000701D01*
X0005156D01*
X0004902Y0007264D01*
X0004648Y000701D01*
X0004394D01*
X0004648Y0006756D01*
X0004394Y0006502D01*
X0004648D01*
X0004902Y0006248D01*
X0008211Y0004688D02*
X0008465Y0004942D01*
X0008719D01*
X0008465Y0005196D01*
X0008719Y000545D01*
X0008465D01*
X0008211Y0005704D01*
X0007957Y000545D01*
X0007703D01*
X0007957Y0005196D01*
X0007703Y0004942D01*
X0007957D01*
X0008211Y0004688D01*
X0006005Y0006248D02*
X0006259Y0006502D01*
X0006513D01*
X0006259Y0006756D01*
X0006513Y000701D01*
X0006259D01*
X0006005Y0007264D01*
X0005751Y000701D01*
X0005497D01*
X0005751Y0006756D01*
X0005497Y0006502D01*
X0005751D01*
X0006005Y0006248D01*
X0008377Y0019208D02*
X0008631Y0019462D01*
X0008885D01*
X0008631Y0019716D01*
X0008885Y001997D01*
X0008631D01*
X0008377Y0020224D01*
X0008123Y001997D01*
X0007869D01*
X0008123Y0019716D01*
X0007869Y0019462D01*
X0008123D01*
X0008377Y0019208D01*
X0009777D02*
X0010031Y0019462D01*
X0010285D01*
X0010031Y0019716D01*
X0010285Y001997D01*
X0010031D01*
X0009777Y0020224D01*
X0009523Y001997D01*
X0009269D01*
X0009523Y0019716D01*
X0009269Y0019462D01*
X0009523D01*
X0009777Y0019208D01*
X0011177D02*
X0011431Y0019462D01*
X0011685D01*
X0011431Y0019716D01*
X0011685Y001997D01*
X0011431D01*
X0011177Y0020224D01*
X0010923Y001997D01*
X0010669D01*
X0010923Y0019716D01*
X0010669Y0019462D01*
X0010923D01*
X0011177Y0019208D01*
Y0020608D02*
X0011431Y0020862D01*
X0011685D01*
X0011431Y0021116D01*
X0011685Y002137D01*
X0011431D01*
X0011177Y0021624D01*
X0010923Y002137D01*
X0010669D01*
X0010923Y0021116D01*
X0010669Y0020862D01*
X0010923D01*
X0011177Y0020608D01*
Y0022008D02*
X0011431Y0022262D01*
X0011685D01*
X0011431Y0022516D01*
X0011685Y002277D01*
X0011431D01*
X0011177Y0023024D01*
X0010923Y002277D01*
X0010669D01*
X0010923Y0022516D01*
X0010669Y0022262D01*
X0010923D01*
X0011177Y0022008D01*
X0009777D02*
X0010031Y0022262D01*
X0010285D01*
X0010031Y0022516D01*
X0010285Y002277D01*
X0010031D01*
X0009777Y0023024D01*
X0009523Y002277D01*
X0009269D01*
X0009523Y0022516D01*
X0009269Y0022262D01*
X0009523D01*
X0009777Y0022008D01*
X0008377D02*
X0008631Y0022262D01*
X0008885D01*
X0008631Y0022516D01*
X0008885Y002277D01*
X0008631D01*
X0008377Y0023024D01*
X0008123Y002277D01*
X0007869D01*
X0008123Y0022516D01*
X0007869Y0022262D01*
X0008123D01*
X0008377Y0022008D01*
Y0020608D02*
X0008631Y0020862D01*
X0008885D01*
X0008631Y0021116D01*
X0008885Y002137D01*
X0008631D01*
X0008377Y0021624D01*
X0008123Y002137D01*
X0007869D01*
X0008123Y0021116D01*
X0007869Y0020862D01*
X0008123D01*
X0008377Y0020608D01*
X0003327Y0013358D02*
X0003581Y0013612D01*
X0003835D01*
X0003581Y0013866D01*
X0003835Y001412D01*
X0003581D01*
X0003327Y0014374D01*
X0003073Y001412D01*
X0002819D01*
X0003073Y0013866D01*
X0002819Y0013612D01*
X0003073D01*
X0003327Y0013358D01*
X0004597D02*
X0004851Y0013612D01*
X0005105D01*
X0004851Y0013866D01*
X0005105Y001412D01*
X0004851D01*
X0004597Y0014374D01*
X0004343Y001412D01*
X0004089D01*
X0004343Y0013866D01*
X0004089Y0013612D01*
X0004343D01*
X0004597Y0013358D01*
X0018593Y0030937D02*
X0018847Y0031191D01*
X0019101D01*
X0018847Y0031445D01*
X0019101Y0031699D01*
X0018847D01*
X0018593Y0031953D01*
X0018339Y0031699D01*
X0018085D01*
X0018339Y0031445D01*
X0018085Y0031191D01*
X0018339D01*
X0018593Y0030937D01*
X0000547Y0012014D02*
X0000801Y0012268D01*
X0001055D01*
X0000801Y0012522D01*
X0001055Y0012776D01*
X0000801D01*
X0000547Y001303D01*
X0000293Y0012776D01*
X0000039D01*
X0000293Y0012522D01*
X0000039Y0012268D01*
X0000293D01*
X0000547Y0012014D01*
X0028482Y0012768D02*
X0028736Y0013022D01*
X002899D01*
X0028736Y0013276D01*
X002899Y001353D01*
X0028736D01*
X0028482Y0013784D01*
X0028228Y001353D01*
X0027974D01*
X0028228Y0013276D01*
X0027974Y0013022D01*
X0028228D01*
X0028482Y0012768D01*
X0027082D02*
X0027336Y0013022D01*
X002759D01*
X0027336Y0013276D01*
X002759Y001353D01*
X0027336D01*
X0027082Y0013784D01*
X0026828Y001353D01*
X0026574D01*
X0026828Y0013276D01*
X0026574Y0013022D01*
X0026828D01*
X0027082Y0012768D01*
X0025682D02*
X0025936Y0013022D01*
X002619D01*
X0025936Y0013276D01*
X002619Y001353D01*
X0025936D01*
X0025682Y0013784D01*
X0025428Y001353D01*
X0025174D01*
X0025428Y0013276D01*
X0025174Y0013022D01*
X0025428D01*
X0025682Y0012768D01*
X0021755Y0022907D02*
X0022009Y0023161D01*
X0022263D01*
X0022009Y0023415D01*
X0022263Y0023669D01*
X0022009D01*
X0021755Y0023923D01*
X0021501Y0023669D01*
X0021247D01*
X0021501Y0023415D01*
X0021247Y0023161D01*
X0021501D01*
X0021755Y0022907D01*
X0022403D02*
X0022657Y0023161D01*
X0022911D01*
X0022657Y0023415D01*
X0022911Y0023669D01*
X0022657D01*
X0022403Y0023923D01*
X0022149Y0023669D01*
X0021895D01*
X0022149Y0023415D01*
X0021895Y0023161D01*
X0022149D01*
X0022403Y0022907D01*
X-0001009Y000033D02*
X-0000755Y0000584D01*
X-0000501D01*
X-0000755Y0000838D01*
X-0000501Y0001092D01*
X-0000755D01*
X-0001009Y0001346D01*
X-0001263Y0001092D01*
X-0001517D01*
X-0001263Y0000838D01*
X-0001517Y0000584D01*
X-0001263D01*
X-0001009Y000033D01*
X0011227Y0011383D02*
X0011481Y0011637D01*
X0011735D01*
X0011481Y0011891D01*
X0011735Y0012145D01*
X0011481D01*
X0011227Y0012399D01*
X0010973Y0012145D01*
X0010719D01*
X0010973Y0011891D01*
X0010719Y0011637D01*
X0010973D01*
X0011227Y0011383D01*
X0036119Y-0001295D02*
X0036373Y-0001041D01*
X0036627D01*
X0036373Y-0000787D01*
X0036627Y-0000533D01*
X0036373D01*
X0036119Y-0000279D01*
X0035865Y-0000533D01*
X0035611D01*
X0035865Y-0000787D01*
X0035611Y-0001041D01*
X0035865D01*
X0036119Y-0001295D01*
X0036881D02*
X0037135Y-0001041D01*
X0037389D01*
X0037135Y-0000787D01*
X0037389Y-0000533D01*
X0037135D01*
X0036881Y-0000279D01*
X0036627Y-0000533D01*
X0036373D01*
X0036627Y-0000787D01*
X0036373Y-0001041D01*
X0036627D01*
X0036881Y-0001295D01*
Y-0002032D02*
X0037135Y-0001778D01*
X0037389D01*
X0037135Y-0001524D01*
X0037389Y-000127D01*
X0037135D01*
X0036881Y-0001016D01*
X0036627Y-000127D01*
X0036373D01*
X0036627Y-0001524D01*
X0036373Y-0001778D01*
X0036627D01*
X0036881Y-0002032D01*
X0036119Y-0002769D02*
X0036373Y-0002515D01*
X0036627D01*
X0036373Y-0002261D01*
X0036627Y-0002007D01*
X0036373D01*
X0036119Y-0001753D01*
X0035865Y-0002007D01*
X0035611D01*
X0035865Y-0002261D01*
X0035611Y-0002515D01*
X0035865D01*
X0036119Y-0002769D01*
X0036881D02*
X0037135Y-0002515D01*
X0037389D01*
X0037135Y-0002261D01*
X0037389Y-0002007D01*
X0037135D01*
X0036881Y-0001753D01*
X0036627Y-0002007D01*
X0036373D01*
X0036627Y-0002261D01*
X0036373Y-0002515D01*
X0036627D01*
X0036881Y-0002769D01*
X0036119Y-0002032D02*
X0036373Y-0001778D01*
X0036627D01*
X0036373Y-0001524D01*
X0036627Y-000127D01*
X0036373D01*
X0036119Y-0001016D01*
X0035865Y-000127D01*
X0035611D01*
X0035865Y-0001524D01*
X0035611Y-0001778D01*
X0035865D01*
X0036119Y-0002032D01*
X0021361Y0014427D02*
X0021615Y0014681D01*
X0021869D01*
X0021615Y0014935D01*
X0021869Y0015189D01*
X0021615D01*
X0021361Y0015443D01*
X0021107Y0015189D01*
X0020853D01*
X0021107Y0014935D01*
X0020853Y0014681D01*
X0021107D01*
X0021361Y0014427D01*
X0021946D02*
X00222Y0014681D01*
X0022454D01*
X00222Y0014935D01*
X0022454Y0015189D01*
X00222D01*
X0021946Y0015443D01*
X0021692Y0015189D01*
X0021438D01*
X0021692Y0014935D01*
X0021438Y0014681D01*
X0021692D01*
X0021946Y0014427D01*
X002253D02*
X0022784Y0014681D01*
X0023038D01*
X0022784Y0014935D01*
X0023038Y0015189D01*
X0022784D01*
X002253Y0015443D01*
X0022276Y0015189D01*
X0022022D01*
X0022276Y0014935D01*
X0022022Y0014681D01*
X0022276D01*
X002253Y0014427D01*
Y0013792D02*
X0022784Y0014046D01*
X0023038D01*
X0022784Y00143D01*
X0023038Y0014554D01*
X0022784D01*
X002253Y0014808D01*
X0022276Y0014554D01*
X0022022D01*
X0022276Y00143D01*
X0022022Y0014046D01*
X0022276D01*
X002253Y0013792D01*
X0021946D02*
X00222Y0014046D01*
X0022454D01*
X00222Y00143D01*
X0022454Y0014554D01*
X00222D01*
X0021946Y0014808D01*
X0021692Y0014554D01*
X0021438D01*
X0021692Y00143D01*
X0021438Y0014046D01*
X0021692D01*
X0021946Y0013792D01*
X0021361D02*
X0021615Y0014046D01*
X0021869D01*
X0021615Y00143D01*
X0021869Y0014554D01*
X0021615D01*
X0021361Y0014808D01*
X0021107Y0014554D01*
X0020853D01*
X0021107Y00143D01*
X0020853Y0014046D01*
X0021107D01*
X0021361Y0013792D01*
X0019202Y-0001905D02*
X0019456Y-0001651D01*
X001971D01*
X0019456Y-0001397D01*
X001971Y-0001143D01*
X0019456D01*
X0019202Y-0000889D01*
X0018948Y-0001143D01*
X0018694D01*
X0018948Y-0001397D01*
X0018694Y-0001651D01*
X0018948D01*
X0019202Y-0001905D01*
Y-0001194D02*
X0019456Y-000094D01*
X001971D01*
X0019456Y-0000686D01*
X001971Y-0000432D01*
X0019456D01*
X0019202Y-0000178D01*
X0018948Y-0000432D01*
X0018694D01*
X0018948Y-0000686D01*
X0018694Y-000094D01*
X0018948D01*
X0019202Y-0001194D01*
Y-0002616D02*
X0019456Y-0002362D01*
X001971D01*
X0019456Y-0002108D01*
X001971Y-0001854D01*
X0019456D01*
X0019202Y-00016D01*
X0018948Y-0001854D01*
X0018694D01*
X0018948Y-0002108D01*
X0018694Y-0002362D01*
X0018948D01*
X0019202Y-0002616D01*
X0018186Y-0001905D02*
X001844Y-0001651D01*
X0018694D01*
X001844Y-0001397D01*
X0018694Y-0001143D01*
X001844D01*
X0018186Y-0000889D01*
X0017932Y-0001143D01*
X0017678D01*
X0017932Y-0001397D01*
X0017678Y-0001651D01*
X0017932D01*
X0018186Y-0001905D01*
Y-0001194D02*
X001844Y-000094D01*
X0018694D01*
X001844Y-0000686D01*
X0018694Y-0000432D01*
X001844D01*
X0018186Y-0000178D01*
X0017932Y-0000432D01*
X0017678D01*
X0017932Y-0000686D01*
X0017678Y-000094D01*
X0017932D01*
X0018186Y-0001194D01*
Y-0002616D02*
X001844Y-0002362D01*
X0018694D01*
X001844Y-0002108D01*
X0018694Y-0001854D01*
X001844D01*
X0018186Y-00016D01*
X0017932Y-0001854D01*
X0017678D01*
X0017932Y-0002108D01*
X0017678Y-0002362D01*
X0017932D01*
X0018186Y-0002616D01*
X0018694D02*
X0018948Y-0002362D01*
X0019202D01*
X0018948Y-0002108D01*
X0019202Y-0001854D01*
X0018948D01*
X0018694Y-00016D01*
X001844Y-0001854D01*
X0018186D01*
X001844Y-0002108D01*
X0018186Y-0002362D01*
X001844D01*
X0018694Y-0002616D01*
Y-0001194D02*
X0018948Y-000094D01*
X0019202D01*
X0018948Y-0000686D01*
X0019202Y-0000432D01*
X0018948D01*
X0018694Y-0000178D01*
X001844Y-0000432D01*
X0018186D01*
X001844Y-0000686D01*
X0018186Y-000094D01*
X001844D01*
X0018694Y-0001194D01*
Y-0001905D02*
X0018948Y-0001651D01*
X0019202D01*
X0018948Y-0001397D01*
X0019202Y-0001143D01*
X0018948D01*
X0018694Y-0000889D01*
X001844Y-0001143D01*
X0018186D01*
X001844Y-0001397D01*
X0018186Y-0001651D01*
X001844D01*
X0018694Y-0001905D01*
X0002083Y0000457D02*
X0002337Y0000711D01*
X0002591D01*
X0002337Y0000965D01*
X0002591Y0001219D01*
X0002337D01*
X0002083Y0001473D01*
X0001829Y0001219D01*
X0001575D01*
X0001829Y0000965D01*
X0001575Y0000711D01*
X0001829D01*
X0002083Y0000457D01*
Y0000051D02*
X0002337Y0000305D01*
X0002591D01*
X0002337Y0000559D01*
X0002591Y0000813D01*
X0002337D01*
X0002083Y0001067D01*
X0001829Y0000813D01*
X0001575D01*
X0001829Y0000559D01*
X0001575Y0000305D01*
X0001829D01*
X0002083Y0000051D01*
X0002489D02*
X0002743Y0000305D01*
X0002997D01*
X0002743Y0000559D01*
X0002997Y0000813D01*
X0002743D01*
X0002489Y0001067D01*
X0002235Y0000813D01*
X0001981D01*
X0002235Y0000559D01*
X0001981Y0000305D01*
X0002235D01*
X0002489Y0000051D01*
Y0000457D02*
X0002743Y0000711D01*
X0002997D01*
X0002743Y0000965D01*
X0002997Y0001219D01*
X0002743D01*
X0002489Y0001473D01*
X0002235Y0001219D01*
X0001981D01*
X0002235Y0000965D01*
X0001981Y0000711D01*
X0002235D01*
X0002489Y0000457D01*
X0018567Y0013358D02*
X0018821Y0013612D01*
X0019075D01*
X0018821Y0013866D01*
X0019075Y001412D01*
X0018821D01*
X0018567Y0014374D01*
X0018313Y001412D01*
X0018059D01*
X0018313Y0013866D01*
X0018059Y0013612D01*
X0018313D01*
X0018567Y0013358D01*
X0017297D02*
X0017551Y0013612D01*
X0017805D01*
X0017551Y0013866D01*
X0017805Y001412D01*
X0017551D01*
X0017297Y0014374D01*
X0017043Y001412D01*
X0016789D01*
X0017043Y0013866D01*
X0016789Y0013612D01*
X0017043D01*
X0017297Y0013358D01*
X0012217D02*
X0012471Y0013612D01*
X0012725D01*
X0012471Y0013866D01*
X0012725Y001412D01*
X0012471D01*
X0012217Y0014374D01*
X0011963Y001412D01*
X0011709D01*
X0011963Y0013866D01*
X0011709Y0013612D01*
X0011963D01*
X0012217Y0013358D01*
X0014757D02*
X0015011Y0013612D01*
X0015265D01*
X0015011Y0013866D01*
X0015265Y001412D01*
X0015011D01*
X0014757Y0014374D01*
X0014503Y001412D01*
X0014249D01*
X0014503Y0013866D01*
X0014249Y0013612D01*
X0014503D01*
X0014757Y0013358D01*
X0013487D02*
X0013741Y0013612D01*
X0013995D01*
X0013741Y0013866D01*
X0013995Y001412D01*
X0013741D01*
X0013487Y0014374D01*
X0013233Y001412D01*
X0012979D01*
X0013233Y0013866D01*
X0012979Y0013612D01*
X0013233D01*
X0013487Y0013358D01*
X0016027D02*
X0016281Y0013612D01*
X0016535D01*
X0016281Y0013866D01*
X0016535Y001412D01*
X0016281D01*
X0016027Y0014374D01*
X0015773Y001412D01*
X0015519D01*
X0015773Y0013866D01*
X0015519Y0013612D01*
X0015773D01*
X0016027Y0013358D01*
X0007137Y0030858D02*
X0007391Y0031112D01*
X0007645D01*
X0007391Y0031366D01*
X0007645Y003162D01*
X0007391D01*
X0007137Y0031874D01*
X0006883Y003162D01*
X0006629D01*
X0006883Y0031366D01*
X0006629Y0031112D01*
X0006883D01*
X0007137Y0030858D01*
X0005867D02*
X0006121Y0031112D01*
X0006375D01*
X0006121Y0031366D01*
X0006375Y003162D01*
X0006121D01*
X0005867Y0031874D01*
X0005613Y003162D01*
X0005359D01*
X0005613Y0031366D01*
X0005359Y0031112D01*
X0005613D01*
X0005867Y0030858D01*
X0034774Y0001092D02*
X0035028Y0001346D01*
X0035282D01*
X0035028Y00016D01*
X0035282Y0001854D01*
X0035028D01*
X0034774Y0002108D01*
X003452Y0001854D01*
X0034266D01*
X003452Y00016D01*
X0034266Y0001346D01*
X003452D01*
X0034774Y0001092D01*
X0032904D02*
X0033158Y0001346D01*
X0033412D01*
X0033158Y00016D01*
X0033412Y0001854D01*
X0033158D01*
X0032904Y0002108D01*
X003265Y0001854D01*
X0032396D01*
X003265Y00016D01*
X0032396Y0001346D01*
X003265D01*
X0032904Y0001092D01*
X0028348Y000447D02*
X0028602Y0004724D01*
X0028856D01*
X0028602Y0004978D01*
X0028856Y0005232D01*
X0028602D01*
X0028348Y0005486D01*
X0028094Y0005232D01*
X002784D01*
X0028094Y0004978D01*
X002784Y0004724D01*
X0028094D01*
X0028348Y000447D01*
X0026758D02*
X0027012Y0004724D01*
X0027266D01*
X0027012Y0004978D01*
X0027266Y0005232D01*
X0027012D01*
X0026758Y0005486D01*
X0026504Y0005232D01*
X002625D01*
X0026504Y0004978D01*
X002625Y0004724D01*
X0026504D01*
X0026758Y000447D01*
X-0005156Y0011506D02*
X-0004902Y001176D01*
X-0004648D01*
X-0004902Y0012014D01*
X-0004648Y0012268D01*
X-0004902D01*
X-0005156Y0012522D01*
X-000541Y0012268D01*
X-0005664D01*
X-000541Y0012014D01*
X-0005664Y001176D01*
X-000541D01*
X-0005156Y0011506D01*
X-0004586D02*
X-0004332Y001176D01*
X-0004078D01*
X-0004332Y0012014D01*
X-0004078Y0012268D01*
X-0004332D01*
X-0004586Y0012522D01*
X-000484Y0012268D01*
X-0005094D01*
X-000484Y0012014D01*
X-0005094Y001176D01*
X-000484D01*
X-0004586Y0011506D01*
X-0004016Y0011481D02*
X-0003762Y0011735D01*
X-0003508D01*
X-0003762Y0011989D01*
X-0003508Y0012243D01*
X-0003762D01*
X-0004016Y0012497D01*
X-000427Y0012243D01*
X-0004524D01*
X-000427Y0011989D01*
X-0004524Y0011735D01*
X-000427D01*
X-0004016Y0011481D01*
X-0003445D02*
X-0003191Y0011735D01*
X-0002937D01*
X-0003191Y0011989D01*
X-0002937Y0012243D01*
X-0003191D01*
X-0003445Y0012497D01*
X-0003699Y0012243D01*
X-0003953D01*
X-0003699Y0011989D01*
X-0003953Y0011735D01*
X-0003699D01*
X-0003445Y0011481D01*
X-0002875D02*
X-0002621Y0011735D01*
X-0002367D01*
X-0002621Y0011989D01*
X-0002367Y0012243D01*
X-0002621D01*
X-0002875Y0012497D01*
X-0003129Y0012243D01*
X-0003383D01*
X-0003129Y0011989D01*
X-0003383Y0011735D01*
X-0003129D01*
X-0002875Y0011481D01*
X-0002304Y0011455D02*
X-000205Y0011709D01*
X-0001796D01*
X-000205Y0011963D01*
X-0001796Y0012217D01*
X-000205D01*
X-0002304Y0012471D01*
X-0002558Y0012217D01*
X-0002812D01*
X-0002558Y0011963D01*
X-0002812Y0011709D01*
X-0002558D01*
X-0002304Y0011455D01*
X-0001734D02*
X-000148Y0011709D01*
X-0001226D01*
X-000148Y0011963D01*
X-0001226Y0012217D01*
X-000148D01*
X-0001734Y0012471D01*
X-0001988Y0012217D01*
X-0002242D01*
X-0001988Y0011963D01*
X-0002242Y0011709D01*
X-0001988D01*
X-0001734Y0011455D01*
X-0001164Y001143D02*
X-000091Y0011684D01*
X-0000656D01*
X-000091Y0011938D01*
X-0000656Y0012192D01*
X-000091D01*
X-0001164Y0012446D01*
X-0001418Y0012192D01*
X-0001672D01*
X-0001418Y0011938D01*
X-0001672Y0011684D01*
X-0001418D01*
X-0001164Y001143D01*
X-0000023Y0012014D02*
X0000231Y0012268D01*
X0000485D01*
X0000231Y0012522D01*
X0000485Y0012776D01*
X0000231D01*
X-0000023Y001303D01*
X-0000277Y0012776D01*
X-0000531D01*
X-0000277Y0012522D01*
X-0000531Y0012268D01*
X-0000277D01*
X-0000023Y0012014D01*
X-0000593Y0011989D02*
X-0000339Y0012243D01*
X-0000085D01*
X-0000339Y0012497D01*
X-0000085Y0012751D01*
X-0000339D01*
X-0000593Y0013005D01*
X-0000847Y0012751D01*
X-0001101D01*
X-0000847Y0012497D01*
X-0001101Y0012243D01*
X-0000847D01*
X-0000593Y0011989D01*
X-0001164D02*
X-000091Y0012243D01*
X-0000656D01*
X-000091Y0012497D01*
X-0000656Y0012751D01*
X-000091D01*
X-0001164Y0013005D01*
X-0001418Y0012751D01*
X-0001672D01*
X-0001418Y0012497D01*
X-0001672Y0012243D01*
X-0001418D01*
X-0001164Y0011989D01*
X-0001734Y0012014D02*
X-000148Y0012268D01*
X-0001226D01*
X-000148Y0012522D01*
X-0001226Y0012776D01*
X-000148D01*
X-0001734Y001303D01*
X-0001988Y0012776D01*
X-0002242D01*
X-0001988Y0012522D01*
X-0002242Y0012268D01*
X-0001988D01*
X-0001734Y0012014D01*
X-0002304D02*
X-000205Y0012268D01*
X-0001796D01*
X-000205Y0012522D01*
X-0001796Y0012776D01*
X-000205D01*
X-0002304Y001303D01*
X-0002558Y0012776D01*
X-0002812D01*
X-0002558Y0012522D01*
X-0002812Y0012268D01*
X-0002558D01*
X-0002304Y0012014D01*
X-0002875Y001204D02*
X-0002621Y0012294D01*
X-0002367D01*
X-0002621Y0012548D01*
X-0002367Y0012802D01*
X-0002621D01*
X-0002875Y0013056D01*
X-0003129Y0012802D01*
X-0003383D01*
X-0003129Y0012548D01*
X-0003383Y0012294D01*
X-0003129D01*
X-0002875Y001204D01*
X-0003445D02*
X-0003191Y0012294D01*
X-0002937D01*
X-0003191Y0012548D01*
X-0002937Y0012802D01*
X-0003191D01*
X-0003445Y0013056D01*
X-0003699Y0012802D01*
X-0003953D01*
X-0003699Y0012548D01*
X-0003953Y0012294D01*
X-0003699D01*
X-0003445Y001204D01*
X-0004016D02*
X-0003762Y0012294D01*
X-0003508D01*
X-0003762Y0012548D01*
X-0003508Y0012802D01*
X-0003762D01*
X-0004016Y0013056D01*
X-000427Y0012802D01*
X-0004524D01*
X-000427Y0012548D01*
X-0004524Y0012294D01*
X-000427D01*
X-0004016Y001204D01*
X-0004586Y0012065D02*
X-0004332Y0012319D01*
X-0004078D01*
X-0004332Y0012573D01*
X-0004078Y0012827D01*
X-0004332D01*
X-0004586Y0013081D01*
X-000484Y0012827D01*
X-0005094D01*
X-000484Y0012573D01*
X-0005094Y0012319D01*
X-000484D01*
X-0004586Y0012065D01*
X-0005156D02*
X-0004902Y0012319D01*
X-0004648D01*
X-0004902Y0012573D01*
X-0004648Y0012827D01*
X-0004902D01*
X-0005156Y0013081D01*
X-000541Y0012827D01*
X-0005664D01*
X-000541Y0012573D01*
X-0005664Y0012319D01*
X-000541D01*
X-0005156Y0012065D01*
X0021107Y0031394D02*
X0021361Y0031648D01*
X0021615D01*
X0021361Y0031902D01*
X0021615Y0032156D01*
X0021361D01*
X0021107Y003241D01*
X0020853Y0032156D01*
X0020599D01*
X0020853Y0031902D01*
X0020599Y0031648D01*
X0020853D01*
X0021107Y0031394D01*
Y0030687D02*
X0021361Y0030941D01*
X0021615D01*
X0021361Y0031195D01*
X0021615Y0031449D01*
X0021361D01*
X0021107Y0031703D01*
X0020853Y0031449D01*
X0020599D01*
X0020853Y0031195D01*
X0020599Y0030941D01*
X0020853D01*
X0021107Y0030687D01*
Y002998D02*
X0021361Y0030234D01*
X0021615D01*
X0021361Y0030488D01*
X0021615Y0030742D01*
X0021361D01*
X0021107Y0030996D01*
X0020853Y0030742D01*
X0020599D01*
X0020853Y0030488D01*
X0020599Y0030234D01*
X0020853D01*
X0021107Y002998D01*
Y0029273D02*
X0021361Y0029527D01*
X0021615D01*
X0021361Y0029781D01*
X0021615Y0030035D01*
X0021361D01*
X0021107Y0030289D01*
X0020853Y0030035D01*
X0020599D01*
X0020853Y0029781D01*
X0020599Y0029527D01*
X0020853D01*
X0021107Y0029273D01*
Y0028565D02*
X0021361Y0028819D01*
X0021615D01*
X0021361Y0029073D01*
X0021615Y0029327D01*
X0021361D01*
X0021107Y0029581D01*
X0020853Y0029327D01*
X0020599D01*
X0020853Y0029073D01*
X0020599Y0028819D01*
X0020853D01*
X0021107Y0028565D01*
X0021755Y0031394D02*
X0022009Y0031648D01*
X0022263D01*
X0022009Y0031902D01*
X0022263Y0032156D01*
X0022009D01*
X0021755Y003241D01*
X0021501Y0032156D01*
X0021247D01*
X0021501Y0031902D01*
X0021247Y0031648D01*
X0021501D01*
X0021755Y0031394D01*
Y0030687D02*
X0022009Y0030941D01*
X0022263D01*
X0022009Y0031195D01*
X0022263Y0031449D01*
X0022009D01*
X0021755Y0031703D01*
X0021501Y0031449D01*
X0021247D01*
X0021501Y0031195D01*
X0021247Y0030941D01*
X0021501D01*
X0021755Y0030687D01*
Y002998D02*
X0022009Y0030234D01*
X0022263D01*
X0022009Y0030488D01*
X0022263Y0030742D01*
X0022009D01*
X0021755Y0030996D01*
X0021501Y0030742D01*
X0021247D01*
X0021501Y0030488D01*
X0021247Y0030234D01*
X0021501D01*
X0021755Y002998D01*
Y0029273D02*
X0022009Y0029527D01*
X0022263D01*
X0022009Y0029781D01*
X0022263Y0030035D01*
X0022009D01*
X0021755Y0030289D01*
X0021501Y0030035D01*
X0021247D01*
X0021501Y0029781D01*
X0021247Y0029527D01*
X0021501D01*
X0021755Y0029273D01*
Y0028565D02*
X0022009Y0028819D01*
X0022263D01*
X0022009Y0029073D01*
X0022263Y0029327D01*
X0022009D01*
X0021755Y0029581D01*
X0021501Y0029327D01*
X0021247D01*
X0021501Y0029073D01*
X0021247Y0028819D01*
X0021501D01*
X0021755Y0028565D01*
Y0026443D02*
X0022009Y0026697D01*
X0022263D01*
X0022009Y0026951D01*
X0022263Y0027205D01*
X0022009D01*
X0021755Y0027459D01*
X0021501Y0027205D01*
X0021247D01*
X0021501Y0026951D01*
X0021247Y0026697D01*
X0021501D01*
X0021755Y0026443D01*
Y0025736D02*
X0022009Y002599D01*
X0022263D01*
X0022009Y0026244D01*
X0022263Y0026498D01*
X0022009D01*
X0021755Y0026752D01*
X0021501Y0026498D01*
X0021247D01*
X0021501Y0026244D01*
X0021247Y002599D01*
X0021501D01*
X0021755Y0025736D01*
Y0025029D02*
X0022009Y0025283D01*
X0022263D01*
X0022009Y0025537D01*
X0022263Y0025791D01*
X0022009D01*
X0021755Y0026045D01*
X0021501Y0025791D01*
X0021247D01*
X0021501Y0025537D01*
X0021247Y0025283D01*
X0021501D01*
X0021755Y0025029D01*
Y0024321D02*
X0022009Y0024575D01*
X0022263D01*
X0022009Y0024829D01*
X0022263Y0025083D01*
X0022009D01*
X0021755Y0025337D01*
X0021501Y0025083D01*
X0021247D01*
X0021501Y0024829D01*
X0021247Y0024575D01*
X0021501D01*
X0021755Y0024321D01*
Y0023614D02*
X0022009Y0023868D01*
X0022263D01*
X0022009Y0024122D01*
X0022263Y0024376D01*
X0022009D01*
X0021755Y002463D01*
X0021501Y0024376D01*
X0021247D01*
X0021501Y0024122D01*
X0021247Y0023868D01*
X0021501D01*
X0021755Y0023614D01*
X0022403D02*
X0022657Y0023868D01*
X0022911D01*
X0022657Y0024122D01*
X0022911Y0024376D01*
X0022657D01*
X0022403Y002463D01*
X0022149Y0024376D01*
X0021895D01*
X0022149Y0024122D01*
X0021895Y0023868D01*
X0022149D01*
X0022403Y0023614D01*
Y0024321D02*
X0022657Y0024575D01*
X0022911D01*
X0022657Y0024829D01*
X0022911Y0025083D01*
X0022657D01*
X0022403Y0025337D01*
X0022149Y0025083D01*
X0021895D01*
X0022149Y0024829D01*
X0021895Y0024575D01*
X0022149D01*
X0022403Y0024321D01*
Y0025029D02*
X0022657Y0025283D01*
X0022911D01*
X0022657Y0025537D01*
X0022911Y0025791D01*
X0022657D01*
X0022403Y0026045D01*
X0022149Y0025791D01*
X0021895D01*
X0022149Y0025537D01*
X0021895Y0025283D01*
X0022149D01*
X0022403Y0025029D01*
Y0025736D02*
X0022657Y002599D01*
X0022911D01*
X0022657Y0026244D01*
X0022911Y0026498D01*
X0022657D01*
X0022403Y0026752D01*
X0022149Y0026498D01*
X0021895D01*
X0022149Y0026244D01*
X0021895Y002599D01*
X0022149D01*
X0022403Y0025736D01*
Y0026443D02*
X0022657Y0026697D01*
X0022911D01*
X0022657Y0026951D01*
X0022911Y0027205D01*
X0022657D01*
X0022403Y0027459D01*
X0022149Y0027205D01*
X0021895D01*
X0022149Y0026951D01*
X0021895Y0026697D01*
X0022149D01*
X0022403Y0026443D01*
Y0027151D02*
X0022657Y0027405D01*
X0022911D01*
X0022657Y0027659D01*
X0022911Y0027913D01*
X0022657D01*
X0022403Y0028167D01*
X0022149Y0027913D01*
X0021895D01*
X0022149Y0027659D01*
X0021895Y0027405D01*
X0022149D01*
X0022403Y0027151D01*
Y0027858D02*
X0022657Y0028112D01*
X0022911D01*
X0022657Y0028366D01*
X0022911Y002862D01*
X0022657D01*
X0022403Y0028874D01*
X0022149Y002862D01*
X0021895D01*
X0022149Y0028366D01*
X0021895Y0028112D01*
X0022149D01*
X0022403Y0027858D01*
Y0028565D02*
X0022657Y0028819D01*
X0022911D01*
X0022657Y0029073D01*
X0022911Y0029327D01*
X0022657D01*
X0022403Y0029581D01*
X0022149Y0029327D01*
X0021895D01*
X0022149Y0029073D01*
X0021895Y0028819D01*
X0022149D01*
X0022403Y0028565D01*
Y0029273D02*
X0022657Y0029527D01*
X0022911D01*
X0022657Y0029781D01*
X0022911Y0030035D01*
X0022657D01*
X0022403Y0030289D01*
X0022149Y0030035D01*
X0021895D01*
X0022149Y0029781D01*
X0021895Y0029527D01*
X0022149D01*
X0022403Y0029273D01*
Y002998D02*
X0022657Y0030234D01*
X0022911D01*
X0022657Y0030488D01*
X0022911Y0030742D01*
X0022657D01*
X0022403Y0030996D01*
X0022149Y0030742D01*
X0021895D01*
X0022149Y0030488D01*
X0021895Y0030234D01*
X0022149D01*
X0022403Y002998D01*
Y0030687D02*
X0022657Y0030941D01*
X0022911D01*
X0022657Y0031195D01*
X0022911Y0031449D01*
X0022657D01*
X0022403Y0031703D01*
X0022149Y0031449D01*
X0021895D01*
X0022149Y0031195D01*
X0021895Y0030941D01*
X0022149D01*
X0022403Y0030687D01*
Y0031394D02*
X0022657Y0031648D01*
X0022911D01*
X0022657Y0031902D01*
X0022911Y0032156D01*
X0022657D01*
X0022403Y003241D01*
X0022149Y0032156D01*
X0021895D01*
X0022149Y0031902D01*
X0021895Y0031648D01*
X0022149D01*
X0022403Y0031394D01*
D49*
X-0002275Y0008026D02*
G03*
X-0002275Y0008026I-0000508J0D01*
G01*
X-0004075D02*
G03*
X-0004075Y0008026I-0000508J0D01*
G01*
M02*
