G04*
G04 #@! TF.GenerationSoftware,Altium Limited,Altium Designer,23.0.1 (38)*
G04*
G04 Layer_Color=32896*
%FSTAX44Y44*%
%MOMM*%
G71*
G04*
G04 #@! TF.SameCoordinates,70A70F08-58DB-409B-8D52-4F46F491BF6E*
G04*
G04*
G04 #@! TF.FilePolarity,Positive*
G04*
G01*
G75*
%ADD10C,0.2000*%
%ADD11C,0.1000*%
%ADD12C,0.1270*%
%ADD36C,0.1500*%
%ADD48C,0.0500*%
G36*
X00154305Y00265189D02*
X0015433Y0025146D01*
X00154305Y00247653D01*
X00154354Y00247604D01*
X00154305Y00247457D01*
X00154354Y00247064D01*
X00154305Y00246917D01*
X0015433Y00246646D01*
X00154281Y0024645D01*
X00154182Y00246352D01*
X00150597Y00246303D01*
X00150302Y00246352D01*
X00150228Y00246425D01*
X00150179Y00256789D01*
X00150106Y00256863D01*
X00149958Y00256814D01*
X00149835Y00256691D01*
X00149737Y00256446D01*
X00149393Y00255807D01*
X00149148Y00255365D01*
X00148976Y00255046D01*
X00148951Y00255021D01*
X00148706Y00254628D01*
X00148411Y00254088D01*
X00147969Y00253253D01*
X00147723Y00252811D01*
X00147527Y00252516D01*
X00146839Y0025119D01*
X00146545Y0025065D01*
X00146446Y00250551D01*
X00146323Y00250232D01*
X00146103Y00249815D01*
X00145906Y0024952D01*
X00145759Y00249274D01*
X00145562Y00249078D01*
X00145513Y00248979D01*
X00145341Y00248808D01*
X00144899Y00248611D01*
X00144654Y00248513D01*
X00144457Y00248464D01*
X00143229Y00248513D01*
X00142983Y00248611D01*
X0014264Y00248808D01*
X00142419Y00248979D01*
X00142394Y00249053D01*
X00142296Y00249102D01*
X00142222Y00249176D01*
X00142173Y00249274D01*
X00141829Y00249815D01*
X00140994Y00251436D01*
X00140896Y00251534D01*
X00140773Y00251853D01*
X00140405Y00252565D01*
X00140307Y00252663D01*
X00140257Y0025286D01*
X00139766Y00253744D01*
X00139472Y00254284D01*
X00139226Y00254726D01*
X00138882Y00255365D01*
X0013844Y002562D01*
X00138096Y00256838D01*
X00137973Y00256863D01*
X001379Y00256642D01*
X00137826Y00251165D01*
X00137802Y00250895D01*
X00137851Y00250748D01*
X00137802Y002506D01*
X00137851Y00249667D01*
X00137802Y00246474D01*
X00137679Y00246352D01*
X00137458Y00246327D01*
X00136451Y00246352D01*
X00136303Y00246303D01*
X00133749Y00246352D01*
X00133675Y00246573D01*
X00133725Y00265189D01*
X00133897Y00265361D01*
X00134412Y00265336D01*
X00137237Y00265361D01*
X00137384Y00265311D01*
X00137654Y00265238D01*
X00138145Y00264943D01*
X00138244Y00264845D01*
X00138293Y00264746D01*
X00138538Y00264403D01*
X00139422Y00262684D01*
X00139815Y00261947D01*
X00140012Y00261652D01*
X00140307Y00261014D01*
X00140552Y00260571D01*
X00140749Y00260228D01*
X00141289Y00259196D01*
X00141535Y00258754D01*
X00142026Y00257821D01*
X00142271Y00257379D01*
X0014291Y00256151D01*
X00143106Y00255856D01*
X00143155Y00255758D01*
X00143352Y00255463D01*
X00143475Y00255144D01*
X00143548Y0025507D01*
X00143794Y00254628D01*
X00143917Y00254456D01*
X00144113Y00254407D01*
X00144285Y00254579D01*
X00144359Y00254849D01*
X0014458Y00255267D01*
X00144678Y00255365D01*
X00144776Y00255611D01*
X0014512Y00256249D01*
X00145267Y00256495D01*
X00145611Y00257133D01*
X00146201Y00258263D01*
X00146397Y00258558D01*
X00146446Y00258705D01*
X0014679Y00259343D01*
X00147085Y00259884D01*
X00147527Y00260719D01*
X00147822Y00261259D01*
X00148018Y00261603D01*
X0014846Y00262438D01*
X00148558Y00262536D01*
X00149099Y00263568D01*
X00149344Y0026401D01*
X00149541Y00264304D01*
X00149835Y00264845D01*
X00149909Y00264918D01*
X00150007Y00264967D01*
X00150204Y00265164D01*
X00150449Y00265262D01*
X00150646Y00265311D01*
X00151579Y00265361D01*
X00153421Y00265336D01*
X00153642Y00265361D01*
X0015379Y00265311D01*
X00154084Y00265361D01*
X00154305Y00265189D01*
D02*
G37*
G36*
X0010806Y00273367D02*
X0010833Y00273146D01*
X00108527Y00272949D01*
X00108576Y00272851D01*
X00108674Y00272605D01*
X00108625Y00272065D01*
X00108429Y00271721D01*
X00108134Y00271427D01*
X00108085Y00271328D01*
X00107987Y0027123D01*
X00107938Y00271132D01*
X00107741Y00270837D01*
X00107446Y00270248D01*
Y00270199D01*
X00107348Y002701D01*
X0010725Y00269707D01*
X00107103Y00268872D01*
X00107152Y00267645D01*
X00107201Y00267497D01*
X00107422Y00266883D01*
X00107643Y00266515D01*
X00107692Y00266416D01*
X00108159Y00265802D01*
X00108232Y00265729D01*
X00108281Y00265631D01*
X0010838Y00265532D01*
X00108478Y00265189D01*
X00108429Y00264697D01*
X00108159Y00264329D01*
X0010806Y0026428D01*
X0010752Y00264034D01*
X00107152Y00264108D01*
X00106906Y00264206D01*
X00106562Y00264452D01*
X00106513Y0026455D01*
X00106218Y00264845D01*
X00106169Y00264943D01*
X00106071Y00265041D01*
X00106022Y00265139D01*
X00105924Y00265238D01*
X00105875Y00265336D01*
X00105678Y00265631D01*
X00105383Y00266269D01*
X00105187Y00266711D01*
X00105113Y0026708D01*
X00105015Y00267473D01*
X00104966Y00268013D01*
X00104941Y00268922D01*
X00104991Y00269069D01*
X0010504Y00269707D01*
X00105089Y00269855D01*
X00105162Y00270125D01*
X00105211Y00270321D01*
X00105408Y00270813D01*
X00105457Y00271009D01*
X00105678Y00271378D01*
X00105727Y00271574D01*
X00105826Y00271672D01*
X00105875Y0027177D01*
X00106194Y00272237D01*
X00106317Y00272409D01*
X00106415Y00272507D01*
X00106464Y00272605D01*
X00107176Y00273318D01*
X0010752Y00273416D01*
X0010806Y00273367D01*
D02*
G37*
G36*
X00122108Y00273219D02*
X0012255Y00272974D01*
X00122722Y00272851D01*
X00122771Y00272753D01*
X00122943Y00272581D01*
X00123041Y00272532D01*
X00123115Y00272409D01*
X0012314Y00272384D01*
X00123213Y00272311D01*
X00123263Y00272213D01*
X00123361Y00272114D01*
X0012341Y00272016D01*
X00123655Y00271574D01*
X00123999Y00270837D01*
X00124196Y00270199D01*
X00124245Y00269855D01*
X00124294Y00269658D01*
X00124368Y00268995D01*
X00124392Y00268086D01*
X00124343Y00267939D01*
X00124294Y00267595D01*
X00124245Y00267399D01*
X00124196Y00267006D01*
X00124048Y00266662D01*
X00123975Y00266392D01*
X00123852Y00266122D01*
X00123508Y00265483D01*
X00123312Y00265139D01*
X00123091Y00264869D01*
X00122968Y00264697D01*
X0012287Y00264599D01*
X0012282Y00264501D01*
X00122354Y00264034D01*
X00122255Y00263985D01*
X00121813Y00263789D01*
X0012142Y00263838D01*
X00121077Y00264034D01*
X00120954Y00264157D01*
X00120905Y00264255D01*
X00120757Y00264403D01*
X00120659Y00264796D01*
X00120708Y00265139D01*
X00120954Y00265581D01*
X00121298Y00265925D01*
X00121347Y00266024D01*
X00121445Y00266122D01*
X00121494Y0026622D01*
X00121592Y00266318D01*
X00121887Y00266957D01*
X00122084Y00267448D01*
X00122157Y00267915D01*
X00122206Y0026816D01*
X00122255Y00268455D01*
X0012228Y00269069D01*
X00122231Y00269216D01*
X00122133Y00269806D01*
X00121887Y00270444D01*
X00121592Y00270984D01*
X00121371Y00271255D01*
X001212Y00271427D01*
X0012115Y00271525D01*
X00120954Y00271967D01*
X00121003Y00272654D01*
X00121371Y00273023D01*
X0012147Y00273072D01*
X00121813Y00273219D01*
X00121961Y00273269D01*
X00122108Y00273219D01*
D02*
G37*
G36*
X00104278Y00277149D02*
X00104376Y00277051D01*
X00104475Y00277001D01*
X00104745Y00276731D01*
X00104843Y00276486D01*
X00104892Y00276289D01*
X00104843Y00275798D01*
X00104499Y00275356D01*
X00104205Y00275061D01*
X00104156Y00274963D01*
X00103959Y00274767D01*
X0010391Y00274668D01*
X00103812Y0027457D01*
X00103763Y00274472D01*
X00103615Y00274324D01*
X00103566Y00274226D01*
X00103222Y00273735D01*
X00103173Y00273588D01*
X00102928Y00273244D01*
X00102584Y00272507D01*
X00102535Y00272311D01*
X00102338Y00271819D01*
X00102289Y00271623D01*
X00102166Y00271353D01*
X00102142Y00271328D01*
X00102068Y00271009D01*
X0010197Y00270616D01*
X00101896Y00270346D01*
X00101822Y00269683D01*
X00101773Y00269143D01*
X00101749Y00268332D01*
X00101798Y00268185D01*
X00101847Y00267104D01*
X00101896Y00266957D01*
X00102019Y00266441D01*
X00102068Y00266196D01*
X00102117Y00265999D01*
X0010224Y00265729D01*
X00102338Y00265385D01*
X0010251Y00264918D01*
X00102756Y00264378D01*
X00102829Y00264206D01*
X00103026Y00263911D01*
X00103321Y00263371D01*
X00103419Y00263273D01*
X00103468Y00263175D01*
X00103934Y00262561D01*
X00104008Y00262487D01*
X00104057Y00262389D01*
X00104205Y00262241D01*
X00104254Y00262143D01*
X00104696Y00261701D01*
X00104745Y00261603D01*
X00104892Y00261259D01*
X00104843Y00260719D01*
X00104598Y00260375D01*
X00104426Y00260203D01*
X0010418Y00260105D01*
X00103984Y00260056D01*
X00103861Y00260031D01*
X00103615Y0026008D01*
X00103321Y00260228D01*
X00103149Y0026035D01*
X0010305Y00260449D01*
X00102952Y00260498D01*
X00102633Y00260817D01*
X00102584Y00260915D01*
X00102387Y00261112D01*
X00102338Y0026121D01*
X00102093Y00261456D01*
X00102043Y00261554D01*
X00101896Y00261701D01*
X00101847Y00261799D01*
X00101601Y00262143D01*
X00101552Y00262291D01*
X00101331Y00262561D01*
X0010111Y00262929D01*
X00100668Y00263862D01*
X00100619Y00263961D01*
X00100472Y00264304D01*
X00100251Y00264918D01*
X00100202Y00265115D01*
X00100029Y0026568D01*
X00099907Y00266245D01*
X00099784Y00266564D01*
X00099735Y00267202D01*
X00099686Y00267546D01*
X00099637Y00268627D01*
X00099686Y00269904D01*
X00099735Y00270051D01*
X00099784Y0027069D01*
X00099882Y00270935D01*
X0009998Y00271328D01*
X00100054Y00271648D01*
X00100177Y00272065D01*
X00100275Y00272458D01*
X00100521Y00273097D01*
X00101257Y00274521D01*
X00101454Y00274816D01*
X00101503Y00274914D01*
X00101601Y00275012D01*
X0010165Y0027511D01*
X00101896Y00275454D01*
X00101945Y00275553D01*
X00102093Y002757D01*
X00102142Y00275798D01*
X00102387Y00276044D01*
X00102436Y00276142D01*
X00102633Y00276338D01*
X00102682Y00276437D01*
X00103149Y00276903D01*
X00103247Y00276952D01*
X00103345Y00277051D01*
X00103689Y00277198D01*
X00104278Y00277149D01*
D02*
G37*
G36*
X0012589D02*
X00126332Y00276805D01*
X00126799Y00276338D01*
X00126848Y0027624D01*
X00126995Y00276093D01*
X00127045Y00275995D01*
X00127192Y00275847D01*
X00127241Y00275749D01*
X00127339Y00275651D01*
X00127388Y00275553D01*
X00127536Y00275405D01*
X00127585Y00275307D01*
X00127732Y0027516D01*
X00127978Y00274718D01*
X00128174Y00274374D01*
X0012842Y00273981D01*
X00128715Y00273342D01*
X00129083Y00272384D01*
X00129353Y00271525D01*
X00129402Y00271328D01*
X00129451Y00270984D01*
X00129501Y00270788D01*
X00129574Y00270321D01*
X00129623Y00269928D01*
X00129672Y00269241D01*
X00129697Y00268185D01*
X00129648Y00268037D01*
X00129599Y00266908D01*
X0012955Y0026676D01*
X00129476Y00266294D01*
X00129427Y00266048D01*
X00129402Y00265974D01*
Y00265925D01*
X00129329Y00265606D01*
X00129206Y00265189D01*
X00129157Y00264992D01*
X0012896Y0026455D01*
X00128788Y00264083D01*
X00128641Y0026369D01*
X00128567Y00263617D01*
X00128076Y00262684D01*
X0012783Y00262241D01*
X00127732Y00262143D01*
X00127683Y00262045D01*
X00127462Y00261775D01*
X00127388Y00261701D01*
X00127192Y00261357D01*
X00126848Y00261014D01*
X00126799Y00260915D01*
X00126701Y00260817D01*
X00126652Y00260719D01*
X00126529Y00260596D01*
X00126455Y00260571D01*
X00126406Y00260473D01*
X00126185Y00260252D01*
X00126087Y00260203D01*
X00125743Y00260056D01*
X00125399Y00260007D01*
X00125203Y00260056D01*
X00124957Y00260203D01*
X0012481Y0026035D01*
X00124712Y00260399D01*
X00124589Y00260522D01*
X0012454Y00260621D01*
X0012449Y00260768D01*
X00124441Y00261112D01*
X0012454Y00261505D01*
X00124687Y00261652D01*
X00124736Y0026175D01*
X00124834Y00261849D01*
X00124859Y00261922D01*
X00124957Y00261971D01*
X0012508Y00262094D01*
X00125129Y00262192D01*
X0012535Y00262463D01*
X00125522Y00262634D01*
X00125571Y00262733D01*
X00125718Y0026288D01*
X00125767Y00262978D01*
X00125964Y00263273D01*
X00126013Y00263371D01*
X00126259Y00263715D01*
X00126308Y00263813D01*
X00126848Y00264943D01*
X00127094Y00265483D01*
X00127167Y00265802D01*
X00127241Y00266073D01*
X00127339Y00266416D01*
X00127388Y0026676D01*
X00127437Y00267153D01*
X00127487Y00267301D01*
X00127536Y00267497D01*
X00127585Y0026902D01*
X00127511Y00269879D01*
X00127462Y00270125D01*
X00127364Y00270714D01*
X00127315Y0027096D01*
X00127266Y00271156D01*
X00127192Y00271427D01*
X00126971Y00272041D01*
X00126774Y00272532D01*
X00126406Y00273244D01*
X00126111Y00273784D01*
X00126013Y00273883D01*
X00125964Y00273981D01*
X00125375Y00274767D01*
X00125276Y00274865D01*
X00125227Y00274963D01*
X00125129Y00275061D01*
X0012508Y0027516D01*
X00125006Y00275233D01*
X00124908Y00275282D01*
X00124834Y00275356D01*
X00124785Y00275454D01*
X00124687Y00275553D01*
X00124638Y00275651D01*
X0012454Y00275749D01*
X0012449Y00276093D01*
X0012454Y00276535D01*
X00124638Y00276633D01*
X00124687Y00276731D01*
X00124908Y00277001D01*
X00125006Y00277051D01*
X0012535Y00277198D01*
X0012589Y00277149D01*
D02*
G37*
G36*
X00075937Y00266343D02*
X00076011Y00266269D01*
X0007606Y00265925D01*
X00076011Y00265778D01*
X0007606Y00265631D01*
X00076035Y00264771D01*
X0007606Y0026455D01*
X00075912Y00264304D01*
X00074464Y00264231D01*
X00069503Y00264182D01*
X0006938Y00264059D01*
X00069331Y00263862D01*
X00069282Y00246573D01*
X00069208Y00246499D01*
X00068864Y0024645D01*
X00068373Y00246499D01*
X00067587Y0024645D01*
X00063952Y00246499D01*
X00063878Y00246573D01*
X00063829Y00246769D01*
Y00252271D01*
Y0025232D01*
X0006378Y00264108D01*
X00063707Y00264182D01*
X0006351Y00264231D01*
X00057272Y0026428D01*
X00057198Y00264354D01*
X00057149Y0026455D01*
X00057198Y00266318D01*
X0005742Y00266392D01*
X00065917Y00266343D01*
X00065991Y00266122D01*
X0006604Y00248734D01*
X00066163Y00248611D01*
X00067047Y0024866D01*
X0006712Y00248734D01*
X00067169Y0024893D01*
X00067219Y00266269D01*
X00067341Y00266392D01*
X00075937Y00266343D01*
D02*
G37*
G36*
X00115477Y00271746D02*
X00115625Y00271697D01*
X00115944Y00271574D01*
X00116779Y00271083D01*
X00117221Y00270641D01*
X0011727Y00270542D01*
X00117516Y00270199D01*
X00117663Y00269855D01*
X00117761Y00269609D01*
X00117859Y00269265D01*
X0011781Y00267792D01*
X00117663Y00267448D01*
X00117417Y00267006D01*
X00117172Y00266662D01*
X00117123Y00266564D01*
X00116754Y00266196D01*
X00116656Y00266146D01*
X00116533Y00265827D01*
X00116582Y0026568D01*
X0011673Y0026509D01*
X00116877Y00264599D01*
X00116951Y0026428D01*
X00117098Y0026369D01*
X00117147Y00263445D01*
X00117196Y00263248D01*
X00117246Y00263003D01*
X00117295Y00262806D01*
X00117368Y00262536D01*
X00117417Y0026234D01*
X00117491Y0026207D01*
X00117614Y0026175D01*
X00117737Y00261234D01*
X0011781Y00260964D01*
X00117982Y00260203D01*
X00118081Y0025981D01*
X0011813Y00259564D01*
X00118228Y00259172D01*
X00118351Y00258754D01*
X00118449Y00258361D01*
X00118547Y00258017D01*
X00118621Y00257698D01*
X0011867Y00257502D01*
X00118744Y00257231D01*
X00118793Y00257035D01*
X00118866Y00256716D01*
X00118989Y00256298D01*
X00119063Y00255979D01*
X00119112Y00255782D01*
X00119235Y00255365D01*
X00119333Y00254972D01*
X00119407Y00254604D01*
X0011948Y00254333D01*
X00119529Y00254137D01*
X00119603Y00253818D01*
X00119652Y00253621D01*
X00119726Y00253351D01*
X00119775Y00253155D01*
X00119972Y00252516D01*
X00120045Y00252246D01*
X00120094Y00252049D01*
X00120143Y00251804D01*
X00120242Y00251411D01*
X00120291Y00251165D01*
X0012034Y00250969D01*
X00120414Y00250699D01*
X00120463Y00250502D01*
X00120536Y00250183D01*
X00120708Y00249618D01*
X00120782Y00249348D01*
X00120905Y00249176D01*
X00121101Y00249127D01*
X00121224Y00249102D01*
X00121371Y00249151D01*
X00121691Y00249127D01*
X00122108Y00249151D01*
X00122255Y00249102D01*
X00123115Y00249127D01*
X00123606Y00249078D01*
X00123803Y00249029D01*
X00124147Y00248783D01*
X00124196Y00248685D01*
X00124294Y00248439D01*
X00124343Y00248243D01*
X00124294Y00247653D01*
X00124073Y00247383D01*
X00123926Y00247236D01*
X00123582Y00247138D01*
X00123238Y00247089D01*
X00123091Y00247138D01*
X00122599Y00247089D01*
X00119677Y00247064D01*
X00119603Y00247089D01*
X00119456Y00247039D01*
X00116435Y00247064D01*
X00116165Y00247039D01*
X00116018Y00247089D01*
X00114691D01*
X00106513Y00247064D01*
X00106194Y00247089D01*
X00106046Y00247039D01*
X00105727Y00247113D01*
X00105482Y00247211D01*
X0010531Y00247334D01*
X00105187Y00247457D01*
X0010504Y00247801D01*
X00104991Y00248144D01*
X00105064Y00248464D01*
X00105138Y00248636D01*
X0010531Y00248857D01*
X00105408Y00248906D01*
X00105506Y00249004D01*
X00106096Y00249151D01*
X00108306Y00249201D01*
X00108478Y00249373D01*
X00108576Y00249765D01*
X00108625Y00249913D01*
X00108674Y00250109D01*
X00108748Y00250527D01*
X0010892Y00251092D01*
X00108994Y0025146D01*
X00109116Y00251779D01*
X00109239Y00252295D01*
X00109362Y00252712D01*
X00109436Y0025313D01*
X00109681Y00254112D01*
X0010973Y00254358D01*
X00109853Y00254776D01*
X00109951Y00255168D01*
X0011005Y00255414D01*
X00110172Y00255979D01*
X00110467Y00257158D01*
X00110516Y00257403D01*
X0011059Y00257673D01*
X00110786Y00258361D01*
X00110885Y00258754D01*
X00110983Y00259098D01*
X00111032Y00259294D01*
X00111155Y00259859D01*
X00111204Y00260056D01*
X00111278Y00260326D01*
X00111327Y00260522D01*
X00111474Y00261014D01*
X00111621Y00261603D01*
X00111695Y00261922D01*
X00111769Y00262192D01*
X00111818Y00262389D01*
X00111941Y00262954D01*
X0011199Y00263199D01*
X00112039Y00263396D01*
X00112137Y00263641D01*
X00112235Y00264034D01*
X00112284Y0026428D01*
X00112358Y0026455D01*
X00112457Y00264943D01*
X00112506Y00265287D01*
X00112604Y00265631D01*
X00112653Y00265827D01*
X00112604Y00266073D01*
X00112432Y00266245D01*
X00112334Y00266294D01*
X0011226Y00266367D01*
X00112211Y00266466D01*
X0011199Y00266736D01*
X00111916Y00266809D01*
X00111621Y00267546D01*
X00111523Y00267939D01*
X00111474Y00268283D01*
X00111523Y00269265D01*
X00111572Y00269413D01*
X00111646Y00269683D01*
X00111769Y00269953D01*
X00112064Y00270493D01*
X00112211Y00270641D01*
X0011226Y00270739D01*
X00112727Y00271206D01*
X0011366Y00271648D01*
X00114004Y00271746D01*
X001142Y00271795D01*
X00115477Y00271746D01*
D02*
G37*
G36*
X00095044Y00265901D02*
X00095118Y0026568D01*
X00095167Y00259442D01*
X00095142Y0024812D01*
X00095167Y00247506D01*
X00095118Y00247359D01*
X00095167Y00247211D01*
X00095118Y00247064D01*
X00094995Y00246941D01*
X0009082Y00246892D01*
X00090648Y00247015D01*
X00090623Y00251607D01*
X00090648Y00252271D01*
X00090599Y00252418D01*
X0009055Y00253793D01*
X00090476Y00253867D01*
X00090058Y00253842D01*
X00089788Y00253867D01*
X00089641Y00253818D01*
X00089396Y00253769D01*
X00089223Y00253646D01*
X00089174Y00253547D01*
X00089076Y00253449D01*
X00089027Y00253351D01*
X0008888Y00253204D01*
X00088831Y00253106D01*
X00088732Y00253007D01*
X00088536Y00252663D01*
X00088438Y00252565D01*
X00088389Y00252467D01*
X0008829Y00252369D01*
X00088241Y00252271D01*
X00088143Y00252172D01*
X00088094Y00252074D01*
X00087897Y0025173D01*
X00087799Y00251632D01*
X0008775Y00251534D01*
X00087504Y0025119D01*
X00087455Y00251092D01*
X0008721Y00250748D01*
X00087161Y0025065D01*
X00086964Y00250355D01*
X00086915Y00250257D01*
X00086817Y00250158D01*
X00086768Y0025006D01*
X00086326Y00249422D01*
X00086276Y00249323D01*
X00086031Y00248979D01*
X00085834Y00248636D01*
X00085736Y00248538D01*
X00085687Y00248439D01*
X00085491Y00248095D01*
X00085392Y00247997D01*
X00085343Y00247899D01*
X00084999Y00247457D01*
X00084827Y00247334D01*
X00084729Y00247236D01*
X00084484Y00247138D01*
X00084385Y00247089D01*
X0008414Y0024699D01*
X0008382Y00246917D01*
X00079768Y00246892D01*
X00079646Y00246966D01*
X00079621Y00247089D01*
X00079817Y00247383D01*
X00079989Y00247653D01*
X00080186Y00247997D01*
X00080284Y00248095D01*
X00080333Y00248194D01*
X00080824Y00248881D01*
X00080873Y00248979D01*
X00081119Y00249323D01*
X00081168Y00249422D01*
X00081659Y00250109D01*
X00081708Y00250208D01*
X00081807Y00250306D01*
X00082003Y0025065D01*
X00082322Y00251116D01*
X00082396Y0025119D01*
X00082543Y00251436D01*
X00082789Y00251779D01*
X00082936Y00252025D01*
X00083182Y00252369D01*
X00083231Y00252467D01*
X00083894Y00253474D01*
X00083968Y00253547D01*
X00084213Y0025399D01*
X00084705Y00254677D01*
X00084803Y00254923D01*
X0008468Y00255095D01*
X00084238Y0025534D01*
X00083968Y00255561D01*
X00083894Y00255635D01*
X0008355Y00255832D01*
X00083378Y00256003D01*
X00083329Y00256102D01*
X00083157Y00256224D01*
X00083035Y00256396D01*
X0008274Y00256691D01*
X00082691Y00256789D01*
X00082593Y00256888D01*
X00082249Y00257526D01*
X0008215Y00257624D01*
X00082028Y00257944D01*
X0008193Y00258189D01*
X0008188Y00258386D01*
X00081807Y00258656D01*
X00081708Y00259049D01*
X00081659Y00259393D01*
X0008161Y00260179D01*
X00081659Y00261308D01*
X00081708Y00261456D01*
X00081782Y00261726D01*
X0008188Y00262217D01*
X00082224Y00262905D01*
X00082298Y00262978D01*
X00082543Y0026342D01*
X00082642Y00263519D01*
X00082691Y00263617D01*
X00082912Y00263887D01*
X00083354Y00264329D01*
X00083452Y00264378D01*
X00083526Y00264452D01*
X0008355Y00264476D01*
X00084189Y00264918D01*
X00084729Y00265164D01*
X00084975Y00265262D01*
X00085073Y00265311D01*
X00085417Y00265459D01*
X00085957Y00265606D01*
X0008635Y00265704D01*
X00086768Y00265778D01*
X00087161Y00265827D01*
X00087824Y00265901D01*
X00088462Y0026595D01*
X00095044Y00265901D01*
D02*
G37*
G36*
X00075839Y00235939D02*
X00075912Y00235865D01*
X00076011Y00235619D01*
X0007606Y00233065D01*
X00076183Y00232893D01*
X00076379Y00232844D01*
X000766Y00232869D01*
X00076821Y00232844D01*
X00076968Y00232893D01*
X0007746Y00232844D01*
X0007773Y00232967D01*
X00077828Y00233213D01*
X00077877Y00235865D01*
X00077951Y00235939D01*
X00078761Y00235963D01*
X00078909Y00235914D01*
X00079007Y00235669D01*
X00079056Y00233016D01*
X0007913Y00232942D01*
X00079326Y00232893D01*
X00079817Y00232844D01*
X00080063Y00232746D01*
X00080505Y002325D01*
X0008053Y00232476D01*
X00080554Y00232451D01*
X00080628Y00232378D01*
X00080677Y00232279D01*
X00080824Y00232034D01*
X00080922Y0023169D01*
X00080972Y00231493D01*
X00081021Y00231051D01*
X00081144Y00230929D01*
X00083943Y00230879D01*
X00084017Y00230658D01*
X00084066Y00230315D01*
X00084017Y00229922D01*
X00083943Y00229799D01*
X00083747Y0022975D01*
X00081144Y00229701D01*
X00081021Y00229578D01*
X00080972Y00229381D01*
X00081021Y00228055D01*
X00081144Y00227932D01*
X0008134Y00227883D01*
X00081537Y00227932D01*
X00083894Y00227883D01*
X00083968Y0022781D01*
X00084066Y00227417D01*
X00084017Y00226876D01*
X00083894Y00226754D01*
X00083698Y00226704D01*
X00081095Y00226655D01*
X00081021Y00226582D01*
X00080972Y00226385D01*
X00081021Y00225059D01*
X00081144Y00224936D01*
X0008134Y00224887D01*
X00081512Y00224912D01*
X0008387Y00224862D01*
X00084017Y00224715D01*
X00084066Y00224224D01*
X00084017Y0022388D01*
X00083943Y00223757D01*
X00083747Y00223708D01*
X00083231Y00223684D01*
X00082814Y00223708D01*
X00082666Y00223659D01*
X00082322Y00223708D01*
X00081758Y00223684D01*
X0008134Y00223708D01*
X00081193Y00223659D01*
X00081021Y00223585D01*
X00080972Y00223389D01*
X00081021Y00222014D01*
X00081144Y00221891D01*
X00083894Y00221842D01*
X00084017Y00221719D01*
X00084066Y00221375D01*
X00084017Y00220835D01*
X00083894Y00220712D01*
X00083698Y00220663D01*
X00082494Y00220687D01*
X00081684Y00220663D01*
X00081537Y00220712D01*
X00081389Y00220663D01*
X00081095Y00220614D01*
X00080972Y00220491D01*
X00080922Y00219852D01*
X00080873Y00219705D01*
X00080628Y00219263D01*
X00080505Y00219091D01*
X00080407Y00219042D01*
X00079866Y00218796D01*
X0007967Y00218747D01*
X00079179Y00218698D01*
X00079056Y00218575D01*
X00079007Y00218232D01*
X00078958Y00215776D01*
X00078835Y00215653D01*
X00077902Y00215702D01*
X00077828Y00215923D01*
X00077804Y00216144D01*
X00077828Y00218379D01*
X00077779Y00218526D01*
X0007773Y00218624D01*
X00077656Y00218698D01*
X0007746Y00218747D01*
X00076133Y00218698D01*
X0007606Y00218477D01*
X00076011Y00217986D01*
X00075962Y00215776D01*
X00075888Y00215702D01*
X00075691Y00215653D01*
X00074906Y00215702D01*
X00074832Y00215776D01*
X00074783Y00215972D01*
X00074734Y00218624D01*
X0007466Y00218698D01*
X00074464Y00218747D01*
X00073137Y00218698D01*
X00073014Y00218575D01*
X00072965Y00215874D01*
X00072843Y00215702D01*
X00072646Y00215653D01*
X00071909Y00215702D01*
X00071836Y00215776D01*
X00071787Y00215972D01*
X00071737Y00217053D01*
X00071762Y00218452D01*
X00071688Y00218624D01*
X00071565Y00218747D01*
X00070092Y00218698D01*
X00070018Y00218624D01*
X00069969Y00218281D01*
X0006992Y00215776D01*
X00069846Y00215702D01*
X00069503Y00215653D01*
X00068864Y00215702D01*
X00068741Y00215972D01*
X00068692Y00218575D01*
X0006852Y00218747D01*
X00067783Y00218796D01*
X00067341Y00219042D01*
X00067071Y00219312D01*
X00067022Y0021941D01*
X00066776Y00219951D01*
X00066727Y00220589D01*
X00066654Y00220663D01*
X00066457Y00220712D01*
X0006631Y00220663D01*
X0006491Y00220687D01*
X00064443Y00220663D01*
X00064296Y00220712D01*
X000641Y00220663D01*
X00063854Y00220712D01*
X00063731Y00220835D01*
X00063682Y00221031D01*
X00063731Y00221768D01*
X00063805Y00221842D01*
X00064738Y00221891D01*
X00066531Y00221866D01*
X00066703Y00221989D01*
X00066776Y00222259D01*
X00066727Y00223585D01*
X00066654Y00223659D01*
X00066457Y00223708D01*
X00064861Y00223684D01*
X00064542Y00223708D01*
X00064394Y00223659D01*
X00064247Y00223708D01*
X00063805Y00223757D01*
X00063731Y00223831D01*
X00063682Y00224028D01*
X00063731Y00224764D01*
X00063854Y00224887D01*
X00064321Y00224912D01*
X00064738Y00224887D01*
X00064885Y00224936D01*
X00065033Y00224887D01*
X00066334Y00224912D01*
X00066605Y00224887D01*
X00066727Y0022501D01*
X00066776Y00225501D01*
X00066727Y00226582D01*
X00066605Y00226704D01*
X00063805Y00226754D01*
X00063731Y00226827D01*
X00063682Y00227024D01*
X00063731Y00227761D01*
X00063854Y00227883D01*
X00064493Y00227932D01*
X00066654Y00227981D01*
X00066727Y00228055D01*
X00066776Y00228252D01*
X00066727Y00229627D01*
X00066605Y0022975D01*
X00063805Y00229799D01*
X00063731Y00229872D01*
X00063682Y00230069D01*
X00063731Y00230806D01*
X00063854Y00230929D01*
X00066654Y00230978D01*
X00066727Y00231051D01*
X00066776Y00231395D01*
X00066826Y00231837D01*
X00067071Y0023223D01*
X0006712Y00232328D01*
X00067219Y00232427D01*
X00067243Y002325D01*
X00067341Y00232549D01*
X0006744Y00232648D01*
X00067783Y00232795D01*
X00068127Y00232844D01*
X0006825Y00232869D01*
X00068422Y00232844D01*
X00068668Y00232992D01*
X00068741Y00233213D01*
X0006879Y00235816D01*
X00068864Y00235889D01*
X00069208Y00235988D01*
X00069822Y00235914D01*
X0006992Y00235816D01*
X00069969Y00235619D01*
X00070018Y00233016D01*
X0007019Y00232844D01*
X00070829Y00232893D01*
X00070976Y00232844D01*
X0007132Y00232893D01*
X00071492Y00232869D01*
X00071664Y00232942D01*
X00071737Y00233164D01*
X00071787Y0023336D01*
X00071737Y00233556D01*
X00071787Y00234441D01*
X00071737Y00234588D01*
X00071762Y00235104D01*
X00071737Y00235374D01*
X00071787Y00235521D01*
X00071836Y00235816D01*
X00071958Y00235939D01*
X00072179Y00235963D01*
X000724Y00235939D01*
X00072548Y00235988D01*
X00072818Y00235914D01*
X00072965Y00235767D01*
X00073014Y00235423D01*
X00073064Y00233016D01*
X00073186Y00232893D01*
X00073383Y00232844D01*
X00073579Y00232893D01*
X00074095Y00232869D01*
X00074635Y00232918D01*
X00074734Y00233016D01*
X00074783Y00233213D01*
X00074832Y00235816D01*
X00074906Y00235889D01*
X00075299Y00235988D01*
X00075839Y00235939D01*
D02*
G37*
G36*
X00150744Y00235546D02*
X00150818Y00235472D01*
X00150867Y00234834D01*
X00150818Y0021666D01*
X00150744Y00216586D01*
X00147134Y00216512D01*
X00146765Y00216488D01*
X00146618Y00216537D01*
X00144948Y00216488D01*
X00139029Y00216512D01*
X00139005Y00216488D01*
X00138857Y00216537D01*
X00138415Y00216586D01*
X00138342Y0021666D01*
X00138293Y00216856D01*
X00138366Y00220073D01*
X00138465Y00220319D01*
X00138661Y00220368D01*
X00139005Y00220319D01*
X00143082D01*
X00145218Y00220393D01*
X00146103Y00220442D01*
X0014625Y0022054D01*
X00146299Y00220884D01*
X0014625Y0022388D01*
X00146201Y00224077D01*
X00146127Y0022415D01*
X00145857Y00224224D01*
X00144359Y00224199D01*
X00144211Y00224249D01*
X00140552Y00224273D01*
X00140184Y00224249D01*
X00140061Y00224371D01*
X00140012Y00224715D01*
X00140085Y00227883D01*
X00140184Y00227981D01*
X00140503Y00227957D01*
X00140822Y00227981D01*
X0014092Y00227932D01*
X00141068Y00227981D01*
X00145685Y00228031D01*
X00145783Y0022808D01*
X00145931Y00228031D01*
X00146127Y0022808D01*
X0014625Y00228202D01*
X00146299Y00228399D01*
X00146274Y00229455D01*
X00146299Y00229774D01*
X0014625Y00229922D01*
X00146201Y00231641D01*
X00146078Y00231764D01*
X0013844Y00231837D01*
X00138293Y00231985D01*
X00138317Y002325D01*
X00138293Y00233655D01*
X00138342Y00233802D01*
X00138391Y00235472D01*
X00138514Y00235595D01*
X00150744Y00235546D01*
D02*
G37*
G36*
X00173093Y00264132D02*
X001741Y00264059D01*
X00174493Y0026401D01*
X00174689Y00263961D01*
X0017518Y00263862D01*
X00175647Y00263789D01*
X00175893Y0026369D01*
X00176089Y00263641D01*
X00176384Y00263592D01*
X00176629Y00263494D01*
X0017744Y00263273D01*
X0017771Y0026315D01*
X00178029Y00263027D01*
X00178741Y00262708D01*
X00180068Y0026202D01*
X00180362Y00261824D01*
X00180706Y00261628D01*
X00181394Y00261136D01*
X00181492Y00261087D01*
X00181639Y0026094D01*
X00181738Y00260891D01*
X00181983Y00260645D01*
X00182082Y00260596D01*
X00182229Y00260449D01*
X00182327Y00260399D01*
X00182499Y00260228D01*
X00182548Y00260129D01*
X00182622Y00260056D01*
X0018272Y00260007D01*
X0018299Y00259736D01*
X00183015Y00259663D01*
X00183113Y00259614D01*
X00183383Y00259343D01*
X00183432Y00259245D01*
X0018358Y00259098D01*
X00183629Y00259D01*
X00183874Y00258754D01*
X00183923Y00258656D01*
X00184071Y00258508D01*
X00184218Y00258263D01*
X00184316Y00258165D01*
X00184366Y00258066D01*
X00184611Y00257723D01*
X00184906Y00257182D01*
X00185151Y0025674D01*
X00185741Y00255512D01*
X00185814Y00255242D01*
X00185937Y00254972D01*
X00185986Y00254776D01*
X0018606Y00254505D01*
X00186183Y00254186D01*
X00186306Y0025367D01*
X00186379Y002534D01*
X00186429Y00253056D01*
X00186478Y00252565D01*
X00186527Y00252221D01*
X00186576Y0025173D01*
X00186625Y00250208D01*
X00186576Y00249569D01*
X00186502Y00248562D01*
X00186453Y00248071D01*
X00186355Y00247481D01*
X00186281Y00247211D01*
X00186232Y00247015D01*
X00186183Y0024672D01*
X00186036Y00246376D01*
X00185986Y0024618D01*
X00185716Y00245418D01*
X00185471Y00244878D01*
X0018525Y00244461D01*
X00184955Y0024392D01*
X00184636Y00243454D01*
X00184243Y00242864D01*
X00184169Y00242791D01*
X0018412Y00242692D01*
X00184022Y00242594D01*
X00183973Y00242496D01*
X00183629Y00242152D01*
X0018358Y00242054D01*
X00183408Y00241931D01*
X00182917Y0024144D01*
X00182818Y00241391D01*
X00182573Y00241145D01*
X00182474Y00241096D01*
X00182278Y002409D01*
X0018218Y00240851D01*
X0018191Y00240629D01*
X00181615Y00240433D01*
X00181075Y00240089D01*
X00181001Y00240016D01*
X00178791Y00238935D01*
X00178299Y00238738D01*
X0017798Y00238616D01*
X0017771Y00238493D01*
X00177219Y00238296D01*
X00177022Y00238247D01*
X00176703Y00238124D01*
X00176507Y00238075D01*
X00175819Y0023783D01*
X001755Y00237707D01*
X0017518Y00237633D01*
X00174763Y0023751D01*
X00174272Y00237363D01*
X00173879Y00237265D01*
X00173633Y00237167D01*
X00173363Y00237093D01*
X00172946Y0023697D01*
X00172626Y00236847D01*
X00172356Y00236774D01*
X00172037Y002367D01*
X00171767Y00236626D01*
X00171423Y00236528D01*
X00170784Y00236283D01*
X00170318Y00236111D01*
X001699Y00235939D01*
X0016936Y00235693D01*
X00169016Y00235497D01*
X00168279Y00235104D01*
X00167985Y00234907D01*
X00167886Y00234858D01*
X0016769Y00234662D01*
X00167592Y00234613D01*
X00167493Y00234514D01*
X0016742Y0023449D01*
X00167371Y00234391D01*
X00167199Y00234219D01*
X00167101Y0023417D01*
X00166978Y00234048D01*
X00166929Y00233949D01*
X00166732Y00233753D01*
X00166683Y00233655D01*
X00166585Y00233556D01*
X00166192Y00232721D01*
X00166143Y00232525D01*
X00166044Y00232279D01*
X00165995Y00232083D01*
X00165946Y00231297D01*
X00165995Y00229922D01*
X00166094Y00229676D01*
X00166192Y00229283D01*
X00166266Y00229013D01*
X00166388Y00228743D01*
X00166462Y00228473D01*
X0016688Y00227711D01*
X00167346Y00227097D01*
X00167444Y00227048D01*
X00167616Y00226876D01*
X00167665Y00226778D01*
X00167837Y00226655D01*
X00167936Y00226557D01*
X00168034Y00226508D01*
X00168132Y0022641D01*
X00168672Y00226115D01*
X00169507Y00225722D01*
X00169704Y00225673D01*
X00170195Y00225526D01*
X00170391Y00225476D01*
X00170735Y00225427D01*
X00171128Y00225329D01*
X00171472Y0022528D01*
X00172553Y00225231D01*
X00174616Y0022528D01*
X00174763Y00225329D01*
X00175156Y00225427D01*
X00175794Y00225526D01*
X00175942Y00225575D01*
X00176335Y00225673D01*
X00176801Y00225845D01*
X00177292Y00226041D01*
X00177366Y00226115D01*
X00177612Y00226213D01*
X00178054Y0022641D01*
X00178299Y00226508D01*
X00178398Y00226557D01*
X00178938Y00226852D01*
X00179085Y00226999D01*
X00179822Y00227392D01*
X00180436Y0022781D01*
X0018051Y00227883D01*
X00180608Y00227932D01*
X00181492Y00228522D01*
X0018218Y00228915D01*
X00182818Y00229209D01*
X00183211Y00229308D01*
X00183531Y00229332D01*
X00184071Y00229283D01*
X00184611Y00229087D01*
X00185102Y00228792D01*
X00185274Y00228669D01*
X00185544Y00228448D01*
X00185839Y00228153D01*
X00186036Y0022781D01*
X00186232Y00227515D01*
X00186281Y00227417D01*
X00186478Y00227122D01*
X00186723Y0022668D01*
X00187214Y00225894D01*
X00187264Y00225796D01*
X00187362Y00225697D01*
X00187607Y00225255D01*
X00187853Y00224912D01*
X00188148Y00224371D01*
X00188344Y00224077D01*
X00188393Y00223978D01*
X00188491Y0022388D01*
X00188541Y00223684D01*
X00188491Y00223585D01*
X00188246Y0022334D01*
X00188197Y00223242D01*
X00187828Y00222873D01*
X0018773Y00222824D01*
X00187656Y0022275D01*
X00187632Y00222677D01*
X00187534Y00222628D01*
X00187141Y00222235D01*
X00187043Y00222185D01*
X00186895Y00222038D01*
X00186797Y00221989D01*
X001866Y00221793D01*
X00186502Y00221744D01*
X00186232Y00221522D01*
X00186158Y00221449D01*
X00185814Y00221252D01*
X00185716Y00221154D01*
X00185618Y00221105D01*
X00185274Y00220859D01*
X00185176Y0022081D01*
X00185078Y00220712D01*
X00184538Y00220417D01*
X00184095Y00220172D01*
X00183801Y00219975D01*
X00183703Y00219926D01*
X00183064Y00219631D01*
X00181738Y00218993D01*
X00180976Y00218723D01*
X00180436Y00218526D01*
X00180117Y00218403D01*
X00179478Y00218207D01*
X00179282Y00218158D01*
X00178963Y00218084D01*
X00178692Y00218011D01*
X00178496Y00217961D01*
X00177931Y00217839D01*
X00177145Y00217642D01*
X0017685Y00217593D01*
X00176212Y00217495D01*
X00175549Y00217421D01*
X00174763Y00217372D01*
X00174419Y00217323D01*
X00172896Y00217274D01*
X00171448Y00217347D01*
X0017076Y00217397D01*
X00170097Y0021747D01*
X0016963Y00217544D01*
X00169237Y00217593D01*
X00168992Y00217642D01*
X00168599Y0021774D01*
X00168353Y00217789D01*
X00168107Y00217888D01*
X00167911Y00217937D01*
X00167616Y00217986D01*
X0016742Y00218035D01*
X00167174Y00218133D01*
X00166978Y00218182D01*
X00166437Y00218379D01*
X00166044Y00218526D01*
X00165234Y00218895D01*
X00164104Y00219484D01*
X00164006Y00219582D01*
X00163269Y00219975D01*
X00163171Y00220073D01*
X00163073Y00220123D01*
X00162631Y00220466D01*
X00162017Y00220933D01*
X00161796Y00221154D01*
X00161698Y00221203D01*
X00161452Y00221449D01*
X00161354Y00221498D01*
X00161084Y00221768D01*
X00161034Y00221866D01*
X00160691Y0022221D01*
X00160641Y00222308D01*
X0016015Y00222799D01*
X00160101Y00222898D01*
X00159954Y00223045D01*
X00159905Y00223143D01*
X00159806Y00223242D01*
X0015961Y00223585D01*
X00159512Y00223684D01*
X00159463Y00223782D01*
X00159364Y0022388D01*
X00159119Y00224322D01*
X00158922Y00224617D01*
X00158186Y0022614D01*
X00158063Y00226459D01*
X00157866Y00226999D01*
X00157744Y00227318D01*
X0015767Y00227589D01*
X00157547Y00227859D01*
X00157498Y00228202D01*
X00157449Y00228399D01*
X00157375Y00228669D01*
X00157326Y00228866D01*
X0015708Y00230339D01*
X00157031Y00230879D01*
X00156958Y00232328D01*
X00157007Y00233802D01*
X00157056Y00233949D01*
X00157129Y00234514D01*
X00157228Y00235104D01*
X00157277Y002353D01*
X00157326Y00235595D01*
X00157375Y00235791D01*
X00157449Y00236061D01*
X00157547Y00236454D01*
X00157694Y00236798D01*
X00157744Y00236995D01*
X00158579Y00238616D01*
X00158775Y0023891D01*
X00158824Y00239009D01*
X00158922Y00239107D01*
X00158971Y00239205D01*
X00159438Y00239819D01*
X0015961Y00239991D01*
X00159659Y00240089D01*
X00160249Y00240679D01*
X00160298Y00240777D01*
X00160371Y00240851D01*
X00160469Y002409D01*
X00160617Y00241047D01*
X00160715Y00241096D01*
X00160961Y00241342D01*
X00161059Y00241391D01*
X00161305Y00241636D01*
X00161403Y00241686D01*
X00161869Y00242005D01*
X00161943Y00242078D01*
X00162041Y00242128D01*
X0016214Y00242226D01*
X00162483Y00242422D01*
X00162876Y00242668D01*
X00163196Y00242791D01*
X00163564Y00243012D01*
X00164399Y00243405D01*
X00164645Y00243503D01*
X00165381Y00243847D01*
X00165627Y00243945D01*
X00165946Y00244068D01*
X00166486Y00244264D01*
X00166757Y00244387D01*
X00167223Y00244559D01*
X00167616Y00244706D01*
X00168009Y00244804D01*
X00168328Y00244927D01*
X00168525Y00244976D01*
X00168992Y00245148D01*
X00169213Y00245222D01*
X00169851Y00245468D01*
X00170048Y00245517D01*
X00170539Y00245664D01*
X00170883Y00245762D01*
X00171202Y00245885D01*
X00171742Y00246033D01*
X00172012Y00246155D01*
X00172504Y00246303D01*
X00172823Y00246425D01*
X00173044Y00246499D01*
X00173363Y00246622D01*
X00173731Y00246794D01*
X00174174Y0024699D01*
X00174714Y00247236D01*
X00174738Y0024726D01*
X00175156Y00247481D01*
X00175623Y00247801D01*
X00175917Y00247997D01*
X00175991Y00248071D01*
X00176089Y0024812D01*
X00176236Y00248267D01*
X00176335Y00248316D01*
X00176629Y00248611D01*
X00176728Y0024866D01*
X0017685Y00248783D01*
X001769Y00248881D01*
X00177047Y00249029D01*
X00177096Y00249127D01*
X00177292Y00249422D01*
X00177538Y0025006D01*
X00177636Y00250453D01*
X00177686Y00251386D01*
X00177612Y00252099D01*
X00177563Y00252393D01*
X00177464Y00252786D01*
X00177342Y00253106D01*
X00177292Y00253302D01*
X0017717Y00253621D01*
X00177047Y00253793D01*
X0017658Y00254407D01*
X0017631Y00254677D01*
X00176261Y00254776D01*
X00176187Y00254849D01*
X00176089Y00254898D01*
X00175893Y00255095D01*
X00175794Y00255144D01*
X00175058Y00255537D01*
X00174517Y00255782D01*
X00174272Y00255881D01*
X00174075Y0025593D01*
X00173756Y00256003D01*
X00173167Y00256151D01*
X00172774Y002562D01*
X00172332Y00256249D01*
X00172037Y00256298D01*
X00170588Y00256323D01*
X00170441Y00256274D01*
X00169802Y00256224D01*
X00169655Y00256175D01*
X0016909Y00256102D01*
X00168697Y00256003D01*
X00168451Y00255954D01*
X00168058Y00255807D01*
X00167788Y00255733D01*
X00167321Y00255561D01*
X00166609Y00255242D01*
X00166118Y00255046D01*
X00165774Y00254849D01*
X0016548Y00254653D01*
X00165381Y00254604D01*
X00164743Y0025426D01*
X00164645Y00254161D01*
X00164546Y00254112D01*
X00164006Y00253769D01*
X00163269Y00253425D01*
X00162925Y00253326D01*
X00162729Y00253277D01*
X0016209Y00253228D01*
X00161624Y00253302D01*
X00161427Y00253351D01*
X00161182Y00253449D01*
X00160789Y00253695D01*
X00160715Y00253769D01*
X00160617Y00253818D01*
X00160543Y00253891D01*
X00160494Y0025399D01*
X00160199Y00254284D01*
X00160052Y0025453D01*
X00159856Y00254825D01*
X00159315Y00255856D01*
X00158677Y00257084D01*
X00158382Y00257624D01*
X00158136Y00258165D01*
X00158087Y00258263D01*
X00157842Y00258705D01*
X00157744Y00258951D01*
X00157793Y00259196D01*
X0015821Y00259614D01*
X00158308Y00259663D01*
X00158505Y00259859D01*
X00158603Y00259908D01*
X00158849Y00260154D01*
X00158947Y00260203D01*
X00159143Y00260399D01*
X00159389Y00260547D01*
X0016042Y00261284D01*
X00160764Y0026148D01*
X00161157Y00261726D01*
X00161501Y00261873D01*
X00163024Y0026261D01*
X0016322Y00262659D01*
X00163761Y00262905D01*
X00164031Y00262978D01*
X00164645Y00263248D01*
X00164964Y00263322D01*
X00165234Y00263396D01*
X00165529Y00263445D01*
X00165676Y00263494D01*
X00165872Y00263543D01*
X00166216Y00263641D01*
X00166585Y00263715D01*
X00166978Y00263813D01*
X00167567Y00263911D01*
X00168058Y0026401D01*
X00168353Y00264059D01*
X00169041Y00264108D01*
X00169679Y00264157D01*
X00172946Y00264182D01*
X00173093Y00264132D01*
D02*
G37*
G36*
X00108159Y00235005D02*
X00108502Y00234956D01*
X00108748Y00234858D01*
X00109067Y00234735D01*
X00109239Y00234563D01*
X00109337Y00234514D01*
X00109608Y00234244D01*
X00109657Y00234146D01*
X00109853Y00233949D01*
X00109976Y0023363D01*
X0011005Y00233409D01*
X00110099Y00233213D01*
X00110148Y00232869D01*
X00110099Y00232132D01*
X00109706Y00231395D01*
X00109411Y00231101D01*
X00109362Y00230904D01*
X00109411Y0023056D01*
X00109657Y0023002D01*
X00109755Y00229774D01*
X0011005Y00229136D01*
X00110172Y00228817D01*
X00110295Y00228546D01*
X00110344Y0022835D01*
X00110737Y00227515D01*
X00110836Y00227269D01*
X00110983Y00226926D01*
X00111032Y00226729D01*
X00111523Y00225648D01*
X00111646Y00225329D01*
X00111818Y00224912D01*
X00111965Y00224568D01*
X0011226Y00223929D01*
X00112407Y00223585D01*
X00112506Y0022334D01*
X00112628Y00223021D01*
X00112874Y0022248D01*
X00112972Y00222235D01*
X00112997Y0022221D01*
Y00222161D01*
X00113242Y00221621D01*
X00113292Y00221522D01*
X00113463Y00221301D01*
X0011366Y00221252D01*
X00114004Y002214D01*
X0011479Y00221449D01*
X00114962Y00221621D01*
X00115502Y00222652D01*
X0011614Y0022388D01*
X00116386Y00224322D01*
X00116926Y00225354D01*
X00117614Y0022668D01*
X00117859Y00227073D01*
X00118154Y00227711D01*
X001184Y00228153D01*
X00118596Y00228448D01*
X00118645Y00228645D01*
X00118891Y00229037D01*
X00119677Y0023056D01*
X00119922Y00231002D01*
X00120119Y00231444D01*
X00120143Y00231567D01*
X00120094Y00231764D01*
X00119972Y00232083D01*
X00119922Y00232279D01*
X00119873Y00232427D01*
X00119824Y00232623D01*
X00119873Y00233213D01*
X00120021Y00233556D01*
X00120143Y00233876D01*
X00120536Y00234367D01*
X00120733Y00234563D01*
X00120831Y00234613D01*
X00120929Y00234711D01*
X00121028Y0023476D01*
X00121371Y00234907D01*
X00121715Y00235005D01*
X00122378Y0023503D01*
X00122624Y00234981D01*
X00123017Y00234883D01*
X00123312Y00234735D01*
X00123483Y00234613D01*
X00123999Y00234097D01*
X00124048Y00233999D01*
X00124294Y00233458D01*
X00124392Y00233114D01*
X00124441Y00232771D01*
X00124392Y00232279D01*
X00124245Y00231936D01*
X00124122Y00231616D01*
X00124048Y00231543D01*
X00123999Y00231444D01*
X00123901Y00231199D01*
X00123975Y00230929D01*
X00124269Y00230437D01*
X00124662Y00229848D01*
X0012508Y00229136D01*
X00125399Y00228669D01*
X00125767Y00228055D01*
X00126111Y00227515D01*
X0012616Y00227417D01*
X00126406Y00227073D01*
X00126652Y00226631D01*
X00126897Y00226287D01*
X00126946Y00226189D01*
X00127143Y00225845D01*
X00127388Y00225501D01*
X00127585Y00225157D01*
X00127781Y00224862D01*
X0012783Y00224764D01*
X00128027Y0022447D01*
X00128223Y00224126D01*
X00128543Y00223659D01*
X00128764Y00223291D01*
X00128813Y00223193D01*
X00128911Y00223094D01*
X00129157Y00222652D01*
X00129501Y00222112D01*
X0012955Y00222014D01*
X00129746Y00221719D01*
X00129795Y00221621D01*
X00129967Y002214D01*
X00130164Y0022135D01*
X00130802Y002214D01*
X00130949Y0022135D01*
X00131146Y00221301D01*
X00131465Y00221179D01*
X00131956Y00220884D01*
X0013203Y0022081D01*
X00132128Y00220761D01*
X00132251Y00220638D01*
X001323Y0022054D01*
X00132399Y00220442D01*
X00132448Y00220344D01*
X00132644Y00219902D01*
X00132742Y00219558D01*
X00132791Y00218919D01*
X00132742Y00218772D01*
X00132619Y00218256D01*
X00132521Y00218011D01*
X00132325Y00217716D01*
X00131981Y00217372D01*
X00131883Y00217323D01*
X0013149Y00217077D01*
X00131244Y00216979D01*
X00131048Y0021693D01*
X001309Y00216881D01*
X00130704Y00216832D01*
X00130065Y00216881D01*
X0012982Y00216979D01*
X00129501Y00217102D01*
X00129083Y00217372D01*
X00128666Y00217789D01*
X00128616Y00217888D01*
X00128371Y00218281D01*
X00128223Y0021887D01*
X00128272Y00219705D01*
X00128371Y00219951D01*
X00128616Y00220491D01*
X00128567Y00220884D01*
X0012842Y00221031D01*
X00128371Y00221129D01*
X00128272Y00221228D01*
X00127978Y00221768D01*
X00127781Y00222063D01*
X00127634Y00222308D01*
X00127388Y00222652D01*
X00127094Y00223193D01*
X00126848Y00223536D01*
X00126799Y00223634D01*
X00126602Y00223929D01*
X00126406Y00224273D01*
X00125989Y00224887D01*
X00125497Y00225722D01*
X00125424Y00225796D01*
X00125375Y00225894D01*
X00125276Y00225992D01*
X00124932Y00226631D01*
X00124736Y00226926D01*
X00124589Y00227171D01*
X0012449Y00227269D01*
X00124245Y00227711D01*
X00124048Y00228006D01*
X00123999Y00228104D01*
X00123803Y00228399D01*
X00123754Y00228497D01*
X00123508Y00228841D01*
X00123459Y00228939D01*
X00123263Y00229283D01*
X00123017Y00229627D01*
X00122968Y00229725D01*
X00122722Y00230069D01*
X00122673Y00230167D01*
X00122501Y00230437D01*
X00122305Y00230487D01*
X00121666Y00230536D01*
X00121519Y00230585D01*
X00121298Y00230413D01*
X0012061Y00229087D01*
X00120414Y00228792D01*
X00120365Y00228596D01*
X00120168Y00228252D01*
X00119922Y0022781D01*
X00119726Y00227466D01*
X00119382Y00226827D01*
X00119087Y00226287D01*
X00118449Y00225059D01*
X00118203Y00224617D01*
X00117024Y00222358D01*
X00116828Y00222014D01*
X00116337Y0022108D01*
X00116239Y00220835D01*
X00116214Y00220712D01*
X00116263Y00220466D01*
X00116484Y00219951D01*
X00116582Y00219705D01*
X00116631Y00219509D01*
X00116681Y00219165D01*
X00116631Y00218674D01*
X00116533Y00218428D01*
X00116411Y00218109D01*
X00116165Y00217716D01*
X0011587Y00217421D01*
X00115772Y00217372D01*
X00115625Y00217225D01*
X00115526Y00217176D01*
X00115183Y00217028D01*
X00114863Y00216905D01*
X00114667Y00216856D01*
X00114053Y00216832D01*
X00113807Y0021693D01*
X00113341Y00217102D01*
X00112923Y00217372D01*
X00112506Y00217789D01*
X00112211Y00218428D01*
X00112064Y00218919D01*
X00112113Y00219607D01*
X00112211Y00219852D01*
X0011226Y00220196D01*
X00112113Y00220442D01*
X00111818Y00221129D01*
X00111646Y00221596D01*
X00111278Y00222407D01*
X00111179Y00222652D01*
X00111032Y00222996D01*
X00110909Y00223315D01*
X00110811Y00223561D01*
X00110541Y00224175D01*
X00110393Y00224519D01*
X00110271Y00224838D01*
X00110148Y00225108D01*
X00110025Y00225427D01*
X00109902Y00225648D01*
X00109657Y00226189D01*
X00109608Y00226385D01*
X00109411Y00226827D01*
X00109215Y00227318D01*
X00108969Y00227859D01*
X00108846Y00228178D01*
X00108723Y00228448D01*
X00108625Y00228694D01*
X00108232Y00229578D01*
X0010811Y00229897D01*
X00107888Y00230364D01*
X00107815Y00230437D01*
X00107422Y00230536D01*
X00107152Y00230609D01*
X00106759Y00230757D01*
X00106464Y00230953D01*
X00106022Y00231395D01*
X00105973Y00231493D01*
X00105776Y00231788D01*
X00105629Y00232378D01*
X0010558Y00232721D01*
X00105654Y00233335D01*
X00105703Y00233532D01*
X00106022Y00234097D01*
X00106243Y00234367D01*
X0010639Y00234514D01*
X00106489Y00234563D01*
X00106685Y0023476D01*
X00107324Y00234956D01*
X0010752Y00235005D01*
X00108011Y00235054D01*
X00108159Y00235005D01*
D02*
G37*
G36*
X00093816Y00235742D02*
X00094577Y00235669D01*
X00094823Y00235619D01*
X0009502Y0023557D01*
X00095265Y00235521D01*
X00095462Y00235472D01*
X00095535Y00235398D01*
X00095732Y00235349D01*
X00096272Y00235104D01*
X0009637Y00235054D01*
X00097009Y00234711D01*
X00097205Y00234514D01*
X00097303Y00234465D01*
X00097574Y00234244D01*
X00097647Y0023417D01*
X00097746Y00234121D01*
X00097917Y00233949D01*
X00097967Y00233851D01*
X00098409Y00233409D01*
X00098458Y00233311D01*
X00098556Y00233213D01*
X00098998Y00232378D01*
X00099244Y00231837D01*
X00099317Y00231518D01*
X00099416Y00231027D01*
X00099489Y00230364D01*
X0009944Y0022889D01*
X00099391Y00228743D01*
X00099342Y00228448D01*
X00099244Y00228202D01*
X00099145Y00227761D01*
X000989Y00227417D01*
X00098654Y00226975D01*
X0009831Y00226532D01*
X00098163Y00226385D01*
X00098114Y00226287D01*
X00097844Y00226017D01*
X00097746Y00225968D01*
X00097647Y00225869D01*
X00097549Y0022582D01*
X00097451Y00225722D01*
X00097353Y00225673D01*
X00097009Y00225427D01*
X00096272Y00225084D01*
X00096026Y00224985D01*
X00095683Y00224838D01*
X00094946Y00224543D01*
X00094602Y00224445D01*
X00094405Y00224396D01*
X00093718Y00224199D01*
X00093227Y00224052D01*
X00092907Y00223929D01*
X00092343Y00223659D01*
X00091901Y00223414D01*
X00091729Y00223291D01*
X00091679Y00223193D01*
X00091483Y00222996D01*
X00091336Y00222652D01*
X00091286Y00222456D01*
X00091336Y00221572D01*
X00091729Y00220835D01*
X00091901Y00220663D01*
X00091999Y00220614D01*
X00092097Y00220515D01*
X00092343Y00220417D01*
X00092834Y0022027D01*
X00093472Y00220221D01*
X00094602Y0022027D01*
X00094749Y00220319D01*
X0009502Y00220393D01*
X00095511Y00220589D01*
X00095683Y00220663D01*
X00095977Y00220859D01*
X00096419Y00221105D01*
X00096518Y00221203D01*
X00096861Y002214D01*
X00097205Y00221645D01*
X00097696Y00221793D01*
X00098433Y00221744D01*
X00098777Y00221547D01*
X00099023Y00221301D01*
X00099121Y00221252D01*
X00099317Y00220958D01*
X00099612Y00220466D01*
X00099784Y00220196D01*
X00099882Y00220098D01*
X00100226Y00219459D01*
X00100324Y00219214D01*
X00100103Y00218944D01*
X00099465Y00218305D01*
X00099367Y00218256D01*
X00099072Y0021806D01*
X00099047Y00218035D01*
X00098974Y00217961D01*
X00098875Y00217912D01*
X00098777Y00217814D01*
X00098679Y00217765D01*
X00098335Y00217519D01*
X00098016Y00217397D01*
X00097795Y00217274D01*
X0009696Y00216881D01*
X00096714Y00216782D01*
X00096444Y00216709D01*
X00096051Y00216611D01*
X00095805Y00216562D01*
X00095511Y00216512D01*
X0009502Y00216414D01*
X00094479Y00216365D01*
X00092932Y00216341D01*
X00092785Y0021639D01*
X00092146Y00216439D01*
X00091999Y00216488D01*
X00091802Y00216537D01*
X00091409Y00216586D01*
X00091164Y00216684D01*
X00090697Y00216856D01*
X00089985Y00217225D01*
X00089887Y00217274D01*
X00089788Y00217372D01*
X00089445Y00217568D01*
X00089346Y00217667D01*
X00089248Y00217716D01*
X00088978Y00217937D01*
X00088904Y00218011D01*
X00088806Y0021806D01*
X00088634Y00218232D01*
X00088585Y0021833D01*
X0008829Y00218624D01*
X00088241Y00218723D01*
X00088094Y0021887D01*
X00088045Y00218968D01*
X00087799Y00219361D01*
X00087603Y00219705D01*
X00087308Y00220393D01*
X00087259Y00220589D01*
X00087161Y00220933D01*
X00087112Y00221129D01*
X00087062Y00221473D01*
X00087013Y0022167D01*
X00086964Y00222308D01*
X00087013Y00223782D01*
X00087062Y00223929D01*
X00087136Y00224199D01*
X00087406Y00224961D01*
X00087652Y00225403D01*
X00088118Y00226017D01*
X0008861Y00226508D01*
X00088708Y00226557D01*
X00088904Y00226754D01*
X00089003Y00226803D01*
X00089101Y00226901D01*
X00089445Y00227097D01*
X00090181Y00227441D01*
X0009028Y0022749D01*
X00090918Y00227785D01*
X00091164Y00227883D01*
X00091802Y0022808D01*
X00092048Y00228178D01*
X00092662Y00228399D01*
X00093497Y00228694D01*
X00093816Y00228817D01*
X00094455Y0022916D01*
X00094872Y0022948D01*
X00094921Y00229578D01*
X00095118Y00229872D01*
X00095167Y00230216D01*
X00095118Y00230757D01*
X0009502Y00231002D01*
X00094823Y00231346D01*
X00094528Y00231543D01*
X00093914Y00231813D01*
X0009357Y00231862D01*
X00093079Y00231911D01*
X00092171Y00231837D01*
X00091974Y00231788D01*
X00091557Y00231616D01*
X00091115Y0023142D01*
X00091016Y00231371D01*
X00090329Y00230978D01*
X00089887Y00230781D01*
X0008969Y00230732D01*
X00089346Y00230683D01*
X00088904Y00230781D01*
X0008829Y00231248D01*
X00087652Y00232476D01*
X00087259Y00233311D01*
X00087308Y00233655D01*
X00087382Y00233728D01*
X0008748Y00233778D01*
X0008775Y00233999D01*
X00087922Y0023417D01*
X0008802Y00234219D01*
X00088511Y00234563D01*
X0008861Y00234613D01*
X00088757Y0023476D01*
X00089003Y00234858D01*
X00089543Y00235104D01*
X00090181Y00235349D01*
X00090451Y00235423D01*
X00090673Y00235497D01*
X00090869Y00235546D01*
X00091188Y00235619D01*
X00091483Y00235669D01*
X00091925Y00235718D01*
X00092465Y00235767D01*
X00093669Y00235791D01*
X00093816Y00235742D01*
D02*
G37*
G36*
X00060342Y00235128D02*
X00060391Y00234637D01*
X00060342Y0023449D01*
X00060391Y00234391D01*
Y00234342D01*
X00060342Y00216365D01*
X00060268Y00216291D01*
X00055995Y00216242D01*
X00055921Y00216316D01*
X00055872Y0021666D01*
X00055921Y00216807D01*
X00055872Y00216954D01*
X00055823Y00223143D01*
X0005575Y00223217D01*
X00055013Y00223266D01*
X00054865Y00223217D01*
X00054546Y00223094D01*
X00054399Y00222947D01*
X0005435Y00222849D01*
X00054202Y00222701D01*
X00054153Y00222603D01*
X00053907Y00222259D01*
X00053858Y00222161D01*
X00053711Y00222014D01*
X00053662Y00221915D01*
X00053343Y00221449D01*
X00052852Y00220663D01*
X00052729Y00220491D01*
X00052532Y00220196D01*
X00052483Y00220098D01*
X00052385Y0022D01*
X00052336Y00219902D01*
X0005209Y00219558D01*
X00052041Y00219459D01*
X00051943Y00219361D01*
X00051746Y00219017D01*
X00051648Y00218919D01*
X00051353Y00218379D01*
X00050862Y00217691D01*
X00050813Y00217593D01*
X00050322Y00216856D01*
X00050248Y00216782D01*
X0005015Y00216733D01*
X00050003Y00216586D01*
X00049561Y0021639D01*
X00049217Y00216291D01*
X00047989Y00216242D01*
X00044943Y00216291D01*
X0004487Y00216365D01*
X00044919Y00216562D01*
X00045066Y00216709D01*
X00045115Y00216807D01*
X00045361Y00217151D01*
X0004541Y00217249D01*
X00045508Y00217347D01*
X00045557Y00217446D01*
X00045975Y0021806D01*
X00046049Y00218133D01*
X00046098Y00218232D01*
X00046343Y00218575D01*
X00046392Y00218674D01*
X00046736Y00219165D01*
X00046785Y00219263D01*
X00046884Y00219361D01*
X00046933Y00219459D01*
X00047178Y00219803D01*
X00047375Y00220147D01*
X00047866Y00220835D01*
X00048063Y00221179D01*
X00048259Y00221375D01*
X00048455Y00221719D01*
X00048701Y00222063D01*
X0004875Y00222161D01*
X00049069Y00222628D01*
X00049487Y00223291D01*
X00049978Y00223978D01*
X00050076Y00224224D01*
X00049855Y00224494D01*
X00049413Y0022474D01*
X00049315Y00224838D01*
X00049217Y00224887D01*
X00048775Y00225231D01*
X00048161Y00225845D01*
X00048112Y00225943D01*
X00047915Y0022614D01*
X00047866Y00226238D01*
X0004762Y00226631D01*
X00047227Y00227466D01*
X00047129Y0022781D01*
X00047056Y0022808D01*
X00046933Y00228497D01*
X00046884Y00229872D01*
X00046933Y00230511D01*
X00047006Y00230978D01*
X00047056Y00231174D01*
X00047129Y00231395D01*
X00047178Y00231592D01*
X00047301Y00231911D01*
X00047522Y00232328D01*
X00047719Y00232623D01*
X00047768Y00232721D01*
X00047866Y0023282D01*
X00047915Y00232918D01*
X00048136Y00233188D01*
X0004848Y00233532D01*
X00048578Y00233581D01*
X00048775Y00233778D01*
X00048873Y00233827D01*
X0004902Y00233974D01*
X00049118Y00234023D01*
X00049757Y00234367D01*
X00050297Y00234613D01*
X00050641Y0023476D01*
X00050911Y00234834D01*
X00051108Y00234883D01*
X00051353Y00234932D01*
X00051624Y00235005D01*
X00051967Y00235054D01*
X00052287Y00235128D01*
X00053269Y00235226D01*
X00060219Y00235251D01*
X00060342Y00235128D01*
D02*
G37*
G36*
X00072057Y00209169D02*
X00076895Y00209194D01*
X00077018Y00209169D01*
X00077042Y00209145D01*
X0007714Y00209046D01*
X00077091Y00207966D01*
X00077018Y00207892D01*
X0007687Y00207843D01*
X00076723Y00207892D01*
X00075299Y00207843D01*
X00075225Y00207622D01*
X00075176Y00201679D01*
X00074955Y00201605D01*
X00074807Y00201654D01*
X00073678Y00201703D01*
X00073604Y00201924D01*
X00073555Y00207819D01*
X00073481Y00207892D01*
X00071836Y00207868D01*
X00071737Y00207917D01*
X00071688Y00208113D01*
X00071737Y00209145D01*
X00071909Y00209218D01*
X00072057Y00209169D01*
D02*
G37*
G36*
X00108601Y0020912D02*
X00108699Y00209022D01*
X00108797Y00208973D01*
X0010892Y0020885D01*
X00108969Y00208506D01*
X0010892Y00208113D01*
X00108699Y00207892D01*
X00108453Y00207794D01*
X00108257Y00207745D01*
X00107815Y00207794D01*
X00107545Y00208015D01*
X00107348Y0020831D01*
X00107397Y00208703D01*
X00107667Y00209071D01*
X00107913Y00209169D01*
X00108257D01*
X00108601Y0020912D01*
D02*
G37*
G36*
X00100054Y00207008D02*
X00100128Y00206934D01*
X00100177Y00206738D01*
X00100128Y00201728D01*
X00100054Y00201654D01*
X00098777Y00201703D01*
X00098703Y00201777D01*
X00098679Y00201949D01*
X00098703Y0020497D01*
X00098458Y00205412D01*
X00098286Y00205584D01*
X00098188Y00205633D01*
X00097647Y00205878D01*
X00097009Y00205829D01*
X0009691Y00205731D01*
X00096812Y00205682D01*
X0009669Y00205559D01*
Y0020551D01*
X00096542Y00205019D01*
X00096493Y00201728D01*
X00096419Y00201654D01*
X00095142Y00201703D01*
X00095069Y00201777D01*
X00095118Y00205461D01*
X00095167Y00205608D01*
X0009529Y00206124D01*
X00095535Y00206517D01*
X0009583Y00206812D01*
X00096075Y0020691D01*
X00096395Y00207033D01*
X00097254Y00207057D01*
X00097402Y00207008D01*
X00097868Y00206836D01*
X00098261Y0020659D01*
X00098433Y00206419D01*
X0009863Y00206369D01*
X00098703Y00206443D01*
X00098752Y0020664D01*
X00098802Y00206984D01*
X00098875Y00207057D01*
X00100054Y00207008D01*
D02*
G37*
G36*
X00055062D02*
X00055627Y00206885D01*
X00055823Y00206836D01*
X00056118Y0020664D01*
X0005629Y00206517D01*
X0005656Y00206247D01*
X00056732Y0020578D01*
X00056756Y00205363D01*
X00056634Y0020524D01*
X00055578Y00205215D01*
X0005543Y00205313D01*
X00055356Y00205633D01*
X00055234Y00205756D01*
X00055185Y00205854D01*
X00054964Y00205977D01*
X0005462Y00206075D01*
X00053981Y00206026D01*
X00053711Y00205805D01*
X00053564Y00205657D01*
X00053515Y00205117D01*
X00053637Y00204945D01*
X00054816Y00204896D01*
X00054964Y00204847D01*
X00055406Y00204798D01*
X00055553Y00204749D01*
X00055946Y00204699D01*
X00056585Y00204356D01*
X00056683Y00204257D01*
X00056756Y00204233D01*
X00056806Y00204135D01*
X00057051Y00203594D01*
X00057002Y00202612D01*
X00056806Y00202317D01*
X00056756Y00202219D01*
X00056683Y00202145D01*
X00056585Y00202096D01*
X00056388Y002019D01*
X00055897Y00201703D01*
X000557Y00201654D01*
X00054571Y00201703D01*
X00053932Y00202047D01*
X00053736Y00202243D01*
X00053588Y00202293D01*
X00053515Y00202219D01*
X00053465Y00201973D01*
X00053515Y00201924D01*
X00053441Y00201703D01*
X00053244Y00201654D01*
X00052287Y0020163D01*
X00052139Y00201679D01*
X0005209Y00201875D01*
X00052139Y00205854D01*
X00052434Y00206394D01*
X00052704Y00206664D01*
X00052802Y00206713D01*
X00053146Y00206861D01*
X00053932Y00207057D01*
X00054914D01*
X00055062Y00207008D01*
D02*
G37*
G36*
X00085073D02*
X00085098Y00206787D01*
X00084901Y00206345D01*
X00084656Y00205706D01*
X00084606Y0020551D01*
X0008441Y00205068D01*
X00084164Y00204429D01*
X00084115Y00204233D01*
X00084017Y00204135D01*
X00083919Y00203742D01*
X0008387Y00203643D01*
X00083722Y002033D01*
X00083477Y00202661D01*
X00083428Y00202563D01*
Y00202514D01*
X0008328Y0020217D01*
X00083231Y00201973D01*
X00083133Y00201728D01*
X00083182Y00201384D01*
X00083403Y00201114D01*
X00083747Y00200966D01*
X00084238Y00200917D01*
X00084434Y00200868D01*
X00084508Y00200647D01*
X00084459Y00199812D01*
X00084238Y00199739D01*
X00083108Y00199788D01*
X00082765Y00199935D01*
X00082421Y00200131D01*
X00082052Y002005D01*
X00081905Y00200745D01*
X00081807Y00200991D01*
X00081758Y00201187D01*
X00081561Y0020163D01*
X00081512Y00201826D01*
X00081365Y0020217D01*
X00081315Y00202366D01*
X00081168Y0020271D01*
X0008107Y00203054D01*
X00080873Y00203496D01*
X000808Y00203766D01*
X00080677Y00204036D01*
X00080628Y00204233D01*
X00080431Y00204724D01*
X00080382Y00204921D01*
X00080235Y00205264D01*
X00080137Y00205608D01*
X0007994Y0020605D01*
X00079866Y0020632D01*
X00079744Y0020659D01*
X00079695Y00206787D01*
X00079744Y00207033D01*
X00080996Y00207057D01*
X0008107Y00206984D01*
X00081168Y0020664D01*
X00081315Y00206296D01*
X00081438Y0020578D01*
X00081561Y0020551D01*
X0008161Y00205166D01*
X00081733Y00204847D01*
X00081807Y00204626D01*
X0008188Y00204307D01*
X00082003Y00204036D01*
X00082052Y0020384D01*
X00082101Y00203545D01*
X00082273Y00203324D01*
X00082445Y00203398D01*
X00082593Y00203987D01*
X0008274Y00204331D01*
X00082814Y00204601D01*
X00082887Y00204773D01*
X00082985Y00205019D01*
X00083035Y00205313D01*
X00083231Y00205756D01*
X0008328Y00206001D01*
X00083428Y00206345D01*
X00083477Y00206541D01*
X00083722Y00206984D01*
X00083796Y00207057D01*
X00085073Y00207008D01*
D02*
G37*
G36*
X00048824D02*
X00049069Y0020691D01*
X00049389Y00206836D01*
X00050003Y00206468D01*
X00050371Y00206099D01*
X00050715Y00205363D01*
X00050788Y00204847D01*
X00050813Y00203791D01*
X00050764Y00203643D01*
X00050715Y002033D01*
X00050592Y0020298D01*
X00050518Y00202907D01*
X00050322Y00202563D01*
X00050101Y00202293D01*
X00049953Y00202145D01*
X00049217Y00201801D01*
X00048627Y00201654D01*
X0004735Y00201703D01*
X00047105Y00201801D01*
X00046712Y00201949D01*
X00046368Y00202194D01*
X0004627Y00202243D01*
X00046147Y00202415D01*
X00045999Y00202563D01*
X00045754Y00203103D01*
X00045705Y00203447D01*
X00045754Y00203692D01*
X00045828Y00203766D01*
X00046957Y00203717D01*
X0004708Y00203594D01*
X00047129Y00203398D01*
X00047227Y00203152D01*
X00047449Y00202931D01*
X00047694Y00202833D01*
X00048063Y00202759D01*
X00048234Y00202735D01*
X0004848Y00202833D01*
X00048775Y00202882D01*
X00049094Y00203201D01*
X00049143Y002033D01*
X0004929Y00203643D01*
X00049339Y00204577D01*
X0004929Y00204921D01*
X00049217Y00205191D01*
X00048922Y00205682D01*
X00048824Y00205731D01*
X00048726Y00205829D01*
X00048529Y00205878D01*
X00048038Y00205927D01*
X0004762Y00205854D01*
X00047227Y00205559D01*
X00047105Y0020524D01*
X00046957Y00205191D01*
X00046417D01*
X00045901Y00205166D01*
X00045754Y00205264D01*
X00045705Y00205461D01*
X00045754Y00205608D01*
X00045828Y00205878D01*
X00045901Y00205952D01*
X00046098Y00206296D01*
X00046368Y00206566D01*
X00046712Y00206762D01*
X00046957Y00206861D01*
X00047227Y00206934D01*
X00047473Y00206984D01*
X00047743Y00207057D01*
X00048824Y00207008D01*
D02*
G37*
G36*
X00119308D02*
X00119554Y0020691D01*
X00119873Y00206836D01*
X00120266Y0020659D01*
X00120561Y00206345D01*
X00120708Y00206198D01*
X00120757Y00206099D01*
X00120856Y00206001D01*
X00120905Y00205903D01*
X00121003Y00205657D01*
X00121052Y00205559D01*
X0012115Y00205313D01*
X001212Y00205117D01*
X00121249Y00204184D01*
X00121175Y00203472D01*
X00121126Y00203275D01*
X00121003Y00203005D01*
X00120807Y00202661D01*
X00120585Y00202391D01*
X0012034Y00202145D01*
X00120242Y00202096D01*
X00119947Y002019D01*
X0011975Y00201851D01*
X00119505Y00201752D01*
X00118916Y00201654D01*
X00117589Y00201703D01*
X00117442Y00201752D01*
X00116951Y00201949D01*
X00116509Y00202293D01*
X00116239Y00202563D01*
X00116189Y00202759D01*
X00116042Y00203103D01*
X00116091Y00203349D01*
X00116263Y00203422D01*
X00116411Y00203373D01*
X0011727Y00203398D01*
X00117417Y002033D01*
X00117466Y00203201D01*
X00117491Y00203177D01*
X00117565Y00203103D01*
X00117614Y00203005D01*
X00117786Y00202833D01*
X00118056Y00202759D01*
X00118277Y00202686D01*
X00118965Y00202735D01*
X00119308Y00202931D01*
X00119579Y00203201D01*
X00119628Y002033D01*
X00119775Y00203643D01*
X00119726Y00203938D01*
X00119652Y00204012D01*
X0011614Y00203987D01*
X00116042Y00204036D01*
X00115993Y00204233D01*
X00116042Y00205068D01*
X00116091Y00205215D01*
X00116189Y00205461D01*
X00116239Y00205657D01*
X00116435Y00206001D01*
X00116656Y00206271D01*
X0011673Y00206345D01*
X00116779Y00206443D01*
X00116951Y00206566D01*
X00117442Y00206861D01*
X00117761Y00206934D01*
X00117958Y00206984D01*
X00118228Y00207057D01*
X00119308Y00207008D01*
D02*
G37*
G36*
X00128911Y00209046D02*
X00128862Y00201728D01*
X00128788Y00201654D01*
X00125154Y00201703D01*
X00125006Y00201752D01*
X00124613Y00201851D01*
X00124269Y00201998D01*
X00123827Y00202243D01*
X00123385Y00202587D01*
X00123115Y00202857D01*
X00123066Y00202956D01*
X0012282Y002033D01*
X00122771Y00203496D01*
X00122673Y00203594D01*
X00122575Y00203938D01*
X00122428Y00204478D01*
X00122378Y00204822D01*
X00122428Y00206443D01*
X00122575Y00206787D01*
X00122624Y00207082D01*
X00122968Y0020772D01*
X00123066Y00207819D01*
X00123115Y00207917D01*
X00123189Y00208039D01*
X00123287Y00208089D01*
X0012341Y0020826D01*
X00123582Y00208383D01*
X0012368Y00208482D01*
X00123778Y00208531D01*
X00124073Y00208727D01*
X00124392Y0020885D01*
X00124662Y00208973D01*
X00125006Y00209022D01*
X00125031Y00209046D01*
X00125227Y00209095D01*
X00125473Y00209145D01*
X00128788Y00209169D01*
X00128911Y00209046D01*
D02*
G37*
G36*
X00113316Y00207008D02*
X00113463Y00206959D01*
X00113758Y0020691D01*
X00114004Y00206812D01*
X00114446Y00206566D01*
X00114618Y00206394D01*
X00114667Y00206296D01*
X00114814Y0020605D01*
X00114863Y00205706D01*
X00114814Y0020497D01*
X00114593Y00204699D01*
X00114495Y00204552D01*
X00114397Y00204503D01*
X00114053Y00204257D01*
X00113734Y00204135D01*
X00113316Y00204012D01*
X0011312Y00203963D01*
X00112776Y00203864D01*
X00112383Y00203766D01*
X00112064Y00203643D01*
X00111818Y00203496D01*
X0011172Y00203152D01*
X00111769Y00202907D01*
X0011199Y00202686D01*
X00112186Y00202637D01*
X00113169Y00202686D01*
X00113267Y00202784D01*
X00113512Y00202931D01*
X00113758Y00203324D01*
X00113881Y00203349D01*
X00114912Y002033D01*
X00114962Y00203152D01*
X00114912Y00202808D01*
X00114667Y00202366D01*
X00114495Y00202145D01*
X00114397Y00202096D01*
X00114102Y002019D01*
X00113611Y00201752D01*
X00113021Y00201654D01*
X00111695Y00201703D01*
X00111449Y00201801D01*
X00111057Y00201949D01*
X00110615Y00202293D01*
X00110344Y00202661D01*
X00110295Y00203054D01*
X00110246Y00203201D01*
X00110295Y00203791D01*
X00110492Y00204135D01*
X00110713Y00204405D01*
X00110811Y00204503D01*
X00110909Y00204552D01*
X00111351Y00204749D01*
X00111597Y00204847D01*
X00111941Y00204945D01*
X00112137Y00204994D01*
X00112506Y00205068D01*
X00112776Y00205142D01*
X00112972Y00205191D01*
X00113316Y00205387D01*
X0011339Y00205461D01*
X00113439Y00205657D01*
X00113341Y00205903D01*
X0011307Y00206026D01*
X00112874Y00206075D01*
X00112235Y00206026D01*
X00111892Y0020578D01*
X00111818Y00205706D01*
X0011172Y00205461D01*
X00111646Y00205387D01*
X00111278Y00205412D01*
X00110664Y00205387D01*
X00110418Y00205534D01*
X00110393Y00205706D01*
X0011059Y00206148D01*
X00110639Y00206247D01*
X0011086Y00206517D01*
X00110958Y00206615D01*
X00111499Y00206861D01*
X00111818Y00206984D01*
X00112113Y00207033D01*
X00112579Y00207057D01*
X00112628D01*
X00113316Y00207008D01*
D02*
G37*
G36*
X00091188Y00209046D02*
X00091139Y00201728D01*
X00091066Y00201654D01*
X00087332Y00201703D01*
X00087087Y00201801D01*
X0008689Y00201851D01*
X00086252Y00202194D01*
X00085884Y00202563D01*
X00085589Y00203201D01*
X0008554Y00204086D01*
X00085589Y00204233D01*
X00085638Y00204577D01*
X00085736Y00204675D01*
X00085933Y00205019D01*
X00086252Y00205338D01*
X0008635Y00205387D01*
X00086792Y00205633D01*
X00086866Y00205805D01*
X00086743Y00205927D01*
X00086497Y00206075D01*
X00086375Y00206198D01*
X00086326Y00206296D01*
X0008608Y00206836D01*
X00086129Y00207966D01*
X00086227Y00208064D01*
X00086473Y00208506D01*
X00086645Y00208678D01*
X00087038Y00208874D01*
X00087062Y00208899D01*
X0008748Y00209022D01*
X0008775Y00209095D01*
X00087996Y00209145D01*
X00091066Y00209169D01*
X00091188Y00209046D01*
D02*
G37*
G36*
X00066285D02*
X00066334Y0020885D01*
X00066482Y00208506D01*
X00066605Y0020799D01*
X00066727Y0020772D01*
X00066801Y00207352D01*
X00066924Y00207082D01*
X00067047Y00206566D01*
X00067169Y00206296D01*
X00067292Y0020578D01*
X00067415Y00205461D01*
X00067538Y00204945D01*
X00067661Y00204675D01*
X00067734Y00204307D01*
X00067857Y00204036D01*
X00067906Y00203692D01*
X00067955Y00203496D01*
X00068029Y00203422D01*
X00068201Y00203594D01*
X0006825Y00203791D01*
X00068348Y00204036D01*
X00068422Y00204356D01*
X0006852Y00204601D01*
X00068594Y00204871D01*
X00068668Y00205191D01*
X0006879Y00205461D01*
X00068913Y00205977D01*
X00069036Y00206247D01*
X00069085Y0020659D01*
X00069208Y0020691D01*
X00069282Y00207131D01*
X00069331Y00207327D01*
X00069404Y00207597D01*
X00069503Y00207843D01*
X00069552Y00208039D01*
X00069601Y00208285D01*
X00069724Y00208555D01*
X00069773Y00208752D01*
X00069846Y00209071D01*
X00069945Y00209169D01*
X00071295Y00209194D01*
X00071394Y00209145D01*
X00071443Y00208948D01*
X00071394Y00208654D01*
X00071295Y00208408D01*
X00071099Y00207868D01*
X00071001Y00207622D01*
X00070927Y00207303D01*
X00070853Y00207131D01*
X00070755Y00206885D01*
X00070681Y00206566D01*
X00070559Y00206296D01*
X0007051Y00206099D01*
X00070436Y00205829D01*
X00070313Y00205559D01*
X00070264Y00205363D01*
X0007019Y00205092D01*
X00070067Y00204822D01*
X00069994Y00204503D01*
X0006992Y00204331D01*
X00069822Y00204086D01*
X00069748Y00203766D01*
X00069625Y00203496D01*
X00069576Y002033D01*
X00069503Y00203029D01*
X0006938Y00202759D01*
X00069331Y00202563D01*
X00069257Y00202293D01*
X00069134Y00202022D01*
X00069061Y00201752D01*
X00068962Y00201654D01*
X00067366Y0020163D01*
X00067194Y00201703D01*
X00066973Y00202219D01*
X00066899Y00202489D01*
X00066776Y00202808D01*
X00066727Y00203005D01*
X00066482Y00203643D01*
X00066433Y00203889D01*
X00066285Y00204233D01*
X00066236Y00204429D01*
X00066113Y00204749D01*
X0006604Y0020497D01*
X00065991Y00205166D01*
X00065868Y00205485D01*
X00065794Y00205706D01*
X00065721Y00205977D01*
X00065598Y00206198D01*
X00065549Y00206394D01*
X00065475Y00206664D01*
X00065352Y00206934D01*
X00065303Y00207131D01*
X00065229Y00207401D01*
X00065107Y00207671D01*
Y0020772D01*
Y00207769D01*
X00065057Y00207917D01*
X00064861Y00208359D01*
X00064787Y00208678D01*
X00064664Y00208948D01*
X00064714Y00209145D01*
X00065991Y00209194D01*
X00066064Y00209218D01*
X00066285Y00209046D01*
D02*
G37*
G36*
X00108871Y00207033D02*
X0010892Y00206836D01*
Y00203005D01*
Y00202956D01*
X00108871Y00201679D01*
X0010865Y00201605D01*
X00108502Y00201654D01*
X00107692Y0020163D01*
X0010752Y00201703D01*
X00107471Y002019D01*
X00107446Y00201924D01*
X00107495Y00202072D01*
X00107545Y00206984D01*
X00107618Y00207057D01*
X00108871Y00207033D01*
D02*
G37*
G36*
X00063633Y00209095D02*
X00063682Y00208899D01*
X00063633Y00201679D01*
X00063412Y00201605D01*
X00063264Y00201654D01*
X00059875Y00201703D01*
X00059728Y00201752D01*
X00059458Y00201826D01*
X00058918Y00202072D01*
X00058746Y00202194D01*
X00058598Y00202342D01*
X000585Y00202391D01*
X00058377Y00202563D01*
X00058279Y00202661D01*
X00058107Y00203128D01*
X00058033Y00203398D01*
X00058083Y00204429D01*
X00058377Y0020497D01*
X00058525Y00205117D01*
X00058549Y00205191D01*
X00058647Y0020524D01*
X00058844Y00205436D01*
X0005904Y00205485D01*
X0005931Y00205706D01*
X00059261Y00205854D01*
X00059139Y00205977D01*
X0005904Y00206026D01*
X00058819Y00206247D01*
X0005877Y00206345D01*
X00058574Y00206836D01*
X00058525Y00207033D01*
X00058574Y00207819D01*
X00058598Y00207843D01*
X00058623Y00207868D01*
X00058672Y00208064D01*
X00058868Y00208408D01*
X00059139Y00208678D01*
X00059777Y00208973D01*
X00060367Y0020912D01*
X00060858Y00209169D01*
X00063535Y00209194D01*
X00063633Y00209095D01*
D02*
G37*
G36*
X00101675Y00207696D02*
X00101822Y00207647D01*
X00102215Y00207499D01*
X00102486Y00207278D01*
X00102706Y00206959D01*
X00102903Y0020691D01*
X00103394Y00207057D01*
X00104573Y00207008D01*
X00104819Y0020691D01*
X00105015Y00206861D01*
X00105555Y00206566D01*
X00105826Y00206296D01*
X00105973Y0020605D01*
X0010612Y00205706D01*
X00106071Y00204675D01*
X00105875Y0020438D01*
X00105826Y00204282D01*
X00105531Y00203987D01*
X0010558Y00203791D01*
X0010585Y00203619D01*
X00106071Y00203398D01*
X0010612Y00203201D01*
X00106071Y0020271D01*
X00105776Y00202415D01*
X00105727Y00202219D01*
X00105948Y00201998D01*
X00106046Y00201949D01*
X00106169Y00201777D01*
X00106268Y00201679D01*
X00106366Y00201335D01*
X00106317Y00200745D01*
X00105973Y00200303D01*
X00105899Y0020023D01*
X00105261Y00199935D01*
X00104868Y00199837D01*
X00104401Y00199763D01*
X00103296Y00199739D01*
X00103149Y00199788D01*
X00102657Y00199837D01*
X00102412Y00199935D01*
X00102019Y00200082D01*
X00101675Y00200279D01*
X00101208Y00200745D01*
X0010111Y00201089D01*
X00101061Y00201286D01*
X0010111Y00202022D01*
X00101307Y00202366D01*
X00101405Y00202465D01*
X00101454Y00202563D01*
X0010197Y00202833D01*
X00102289Y00202907D01*
X00102486Y00202956D01*
X0010278Y00203005D01*
X00104401Y00203054D01*
X00104794Y00203103D01*
X00104966Y00203226D01*
X00104991Y00203447D01*
X00104917Y00203521D01*
X0010472Y0020357D01*
X00103934Y00203521D01*
X0010305Y0020357D01*
X00102608Y00203766D01*
X00102264Y00203963D01*
X00101994Y00204184D01*
X00101896Y00204282D01*
X00101601Y00204921D01*
X0010165Y00205903D01*
X00101749Y00206001D01*
X00101798Y00206099D01*
X00101921Y0020632D01*
X00101945Y00206345D01*
X00101896Y0020659D01*
X001017Y0020664D01*
X00101233Y00206713D01*
X0010111Y00206787D01*
X00101061Y00206984D01*
X0010111Y00207671D01*
X00101184Y00207745D01*
X00101675Y00207696D01*
D02*
G37*
G36*
X00345924Y00178045D02*
X00346174Y00178017D01*
X00346405Y00177971D01*
X00346608Y00177925D01*
X00346691Y00177906D01*
X00346774Y00177888D01*
X00346848Y0017786D01*
X00346913Y00177841D01*
X00346959Y00177823D01*
X00346996Y00177814D01*
X00347015Y00177804D01*
X00347024D01*
X00347274Y00177703D01*
X00347505Y00177582D01*
X00347727Y00177453D01*
X00347921Y00177333D01*
X00348004Y00177277D01*
X00348087Y00177222D01*
X00348152Y00177176D01*
X00348208Y00177139D01*
X00348254Y00177102D01*
X00348291Y00177074D01*
X00348309Y00177065D01*
X00348318Y00177055D01*
Y00174679D01*
X003456D01*
Y00175438D01*
X00347486D01*
Y00176639D01*
X00347375Y00176732D01*
X00347246Y00176815D01*
X00347107Y00176889D01*
X00346978Y00176954D01*
X00346867Y00177009D01*
X00346765Y00177055D01*
X00346728Y00177074D01*
X0034671Y00177083D01*
X00346691Y00177092D01*
X00346682D01*
X00346488Y00177157D01*
X00346294Y00177213D01*
X00346118Y0017725D01*
X00345952Y00177268D01*
X00345813Y00177287D01*
X00345757D01*
X00345702Y00177296D01*
X0034561D01*
X00345378Y00177287D01*
X00345156Y0017725D01*
X00344953Y00177203D01*
X00344768Y00177157D01*
X0034462Y00177102D01*
X00344556Y00177083D01*
X00344509Y00177065D01*
X00344463Y00177046D01*
X00344435Y00177028D01*
X00344417Y00177019D01*
X00344408D01*
X00344213Y00176898D01*
X00344038Y00176769D01*
X0034389Y0017663D01*
X0034377Y00176492D01*
X00343668Y00176362D01*
X00343603Y0017626D01*
X00343575Y00176223D01*
X00343566Y00176196D01*
X00343548Y00176177D01*
Y00176168D01*
X00343455Y00175937D01*
X00343381Y00175696D01*
X00343335Y00175456D01*
X00343298Y00175225D01*
X00343289Y00175123D01*
X0034328Y00175031D01*
X0034327Y00174938D01*
Y00174864D01*
X00343261Y00174809D01*
Y00174763D01*
Y00174735D01*
Y00174726D01*
X0034327Y00174467D01*
X00343298Y00174236D01*
X00343335Y00174014D01*
X00343381Y0017382D01*
X003434Y00173736D01*
X00343428Y00173662D01*
X00343446Y00173598D01*
X00343465Y00173542D01*
X00343483Y00173496D01*
X00343492Y00173468D01*
X00343502Y0017345D01*
Y0017344D01*
X00343566Y00173311D01*
X00343631Y00173191D01*
X00343696Y0017308D01*
X0034376Y00172987D01*
X00343816Y00172913D01*
X00343862Y00172849D01*
X00343899Y00172812D01*
X00343908Y00172803D01*
X0034401Y00172701D01*
X00344121Y00172608D01*
X00344241Y00172534D01*
X00344352Y0017246D01*
X00344445Y00172414D01*
X00344519Y00172368D01*
X00344574Y00172349D01*
X00344593Y0017234D01*
X00344759Y00172276D01*
X00344925Y00172229D01*
X00345101Y00172201D01*
X00345258Y00172174D01*
X00345397Y00172165D01*
X00345452D01*
X00345499Y00172155D01*
X003456D01*
X00345776Y00172165D01*
X00345942Y00172183D01*
X0034609Y00172211D01*
X0034622Y00172239D01*
X00346331Y00172276D01*
X00346414Y00172303D01*
X0034646Y00172322D01*
X00346479Y00172331D01*
X00346617Y00172396D01*
X00346737Y0017247D01*
X00346848Y00172544D01*
X00346932Y00172618D01*
X00346996Y00172682D01*
X00347052Y00172729D01*
X0034708Y00172766D01*
X00347089Y00172775D01*
X00347172Y00172886D01*
X00347237Y00173015D01*
X00347301Y00173135D01*
X00347357Y00173265D01*
X00347394Y00173376D01*
X00347422Y00173459D01*
X00347431Y00173496D01*
X0034744Y00173524D01*
X00347449Y00173533D01*
Y00173542D01*
X00348217Y00173339D01*
X00348152Y00173108D01*
X00348069Y00172904D01*
X00347986Y00172719D01*
X00347912Y00172571D01*
X00347838Y00172451D01*
X00347782Y00172368D01*
X00347745Y00172313D01*
X00347727Y00172294D01*
X00347597Y00172146D01*
X00347459Y00172026D01*
X00347311Y00171915D01*
X00347172Y00171822D01*
X00347043Y00171758D01*
X00346941Y00171702D01*
X00346904Y00171684D01*
X00346876Y00171674D01*
X00346858Y00171665D01*
X00346848D01*
X00346636Y00171591D01*
X00346414Y00171536D01*
X0034621Y0017149D01*
X00346016Y00171462D01*
X00345841Y00171443D01*
X00345767D01*
X00345711Y00171434D01*
X00345415D01*
X00345249Y00171453D01*
X00344925Y00171499D01*
X00344777Y00171527D01*
X00344639Y00171564D01*
X00344509Y00171591D01*
X00344389Y00171628D01*
X00344278Y00171665D01*
X00344186Y00171702D01*
X00344102Y00171739D01*
X00344029Y00171767D01*
X00343973Y00171795D01*
X00343936Y00171813D01*
X00343908Y00171822D01*
X00343899Y00171832D01*
X0034377Y00171915D01*
X0034364Y00171998D01*
X00343418Y00172192D01*
X00343224Y00172386D01*
X00343067Y0017259D01*
X00342938Y00172766D01*
X00342891Y0017284D01*
X00342854Y00172913D01*
X00342817Y00172969D01*
X00342799Y00173006D01*
X0034279Y00173034D01*
X0034278Y00173043D01*
X00342651Y00173348D01*
X00342558Y00173653D01*
X00342485Y00173949D01*
X00342466Y00174088D01*
X00342438Y00174217D01*
X00342429Y00174337D01*
X00342411Y00174439D01*
X00342401Y00174541D01*
Y00174624D01*
X00342392Y00174689D01*
Y00174735D01*
Y00174772D01*
Y00174781D01*
X00342411Y00175123D01*
X00342457Y00175447D01*
X00342485Y00175595D01*
X00342512Y00175733D01*
X00342549Y00175872D01*
X00342586Y00175992D01*
X00342623Y00176103D01*
X0034266Y00176196D01*
X00342688Y00176288D01*
X00342716Y00176353D01*
X00342743Y00176418D01*
X00342762Y00176455D01*
X0034278Y00176482D01*
Y00176492D01*
X00342947Y0017676D01*
X00343132Y00176991D01*
X00343326Y00177194D01*
X00343511Y00177361D01*
X00343686Y0017749D01*
X00343751Y00177536D01*
X00343816Y00177582D01*
X00343871Y0017761D01*
X00343908Y00177638D01*
X00343936Y00177647D01*
X00343945Y00177656D01*
X00344093Y0017773D01*
X00344241Y00177786D01*
X00344537Y00177888D01*
X00344824Y00177952D01*
X00345092Y00178008D01*
X00345212Y00178017D01*
X00345323Y00178036D01*
X00345425Y00178045D01*
X00345508D01*
X00345573Y00178054D01*
X00345665D01*
X00345924Y00178045D01*
D02*
G37*
G36*
X00354596Y00171545D02*
X00353783D01*
Y00176575D01*
X00350426Y00171545D01*
X00349557D01*
Y00177943D01*
X00350371D01*
Y00172923D01*
X00353718Y00177943D01*
X00354596D01*
Y00171545D01*
D02*
G37*
G36*
X00358535Y00177934D02*
X00358729Y00177925D01*
X00358905Y00177906D01*
X00359053Y00177888D01*
X00359182Y00177869D01*
X00359274Y0017786D01*
X00359302Y00177851D01*
X0035933Y00177841D01*
X00359348D01*
X00359515Y00177795D01*
X00359663Y0017774D01*
X00359792Y00177693D01*
X00359903Y00177638D01*
X00359996Y00177592D01*
X0036006Y00177555D01*
X00360097Y00177527D01*
X00360116Y00177518D01*
X00360236Y00177435D01*
X00360338Y00177333D01*
X00360439Y0017724D01*
X00360523Y00177148D01*
X00360597Y00177065D01*
X00360652Y00177D01*
X00360689Y00176954D01*
X00360698Y00176935D01*
X00360791Y00176787D01*
X00360883Y0017663D01*
X00360957Y00176482D01*
X00361013Y00176334D01*
X00361068Y00176205D01*
X00361105Y00176103D01*
X00361114Y00176066D01*
X00361124Y00176038D01*
X00361133Y0017602D01*
Y00176011D01*
X00361188Y00175789D01*
X00361235Y00175567D01*
X00361262Y00175354D01*
X0036129Y00175151D01*
X00361299Y00174975D01*
Y00174901D01*
X00361309Y00174837D01*
Y0017479D01*
Y00174744D01*
Y00174726D01*
Y00174716D01*
X00361299Y00174402D01*
X00361272Y00174115D01*
X00361225Y00173857D01*
X00361207Y00173736D01*
X00361179Y00173635D01*
X00361151Y00173533D01*
X00361133Y0017345D01*
X00361114Y00173376D01*
X00361087Y00173311D01*
X00361077Y00173256D01*
X00361059Y00173219D01*
X0036105Y001732D01*
Y00173191D01*
X00360948Y0017295D01*
X00360828Y00172738D01*
X00360698Y00172553D01*
X00360578Y00172396D01*
X00360467Y00172266D01*
X00360375Y00172174D01*
X00360338Y00172146D01*
X0036031Y00172118D01*
X00360301Y00172109D01*
X00360291Y001721D01*
X00360144Y0017198D01*
X00359986Y00171887D01*
X00359829Y00171804D01*
X00359681Y00171739D01*
X00359552Y00171693D01*
X0035945Y00171665D01*
X00359413Y00171647D01*
X00359385D01*
X00359367Y00171638D01*
X00359358D01*
X00359201Y0017161D01*
X00359016Y00171582D01*
X00358831Y00171564D01*
X00358646Y00171554D01*
X00358479Y00171545D01*
X0035602D01*
Y00177943D01*
X00358322D01*
X00358535Y00177934D01*
D02*
G37*
G36*
X00348885Y00039082D02*
X00349052Y00039063D01*
X003492Y00039026D01*
X00349329Y00038998D01*
X0034944Y00038962D01*
X00349523Y00038925D01*
X00349569Y00038906D01*
X00349588Y00038897D01*
X00349727Y00038823D01*
X00349847Y0003873D01*
X00349958Y00038647D01*
X00350041Y00038564D01*
X00350106Y0003849D01*
X00350161Y00038435D01*
X00350189Y00038398D01*
X00350198Y00038379D01*
X00350272Y00038259D01*
X00350337Y0003812D01*
X00350392Y00037991D01*
X00350438Y00037871D01*
X00350466Y00037759D01*
X00350485Y00037676D01*
X00350503Y00037612D01*
Y00037593D01*
X00350522Y00037454D01*
X0035054Y00037297D01*
X0035055Y00037131D01*
X00350559Y00036974D01*
X00350568Y00036835D01*
Y00034209D01*
X0034417D01*
Y0003506D01*
X00346768D01*
Y00036696D01*
X00346777Y00036937D01*
X00346796Y00037168D01*
X00346824Y00037371D01*
X00346861Y00037556D01*
X00346898Y00037732D01*
X00346944Y0003788D01*
X00346999Y00038018D01*
X00347055Y00038139D01*
X00347101Y0003824D01*
X00347156Y00038333D01*
X00347203Y00038407D01*
X00347249Y00038462D01*
X00347276Y00038508D01*
X00347304Y00038536D01*
X00347323Y00038555D01*
X00347332Y00038564D01*
X00347443Y00038656D01*
X00347554Y0003874D01*
X00347665Y00038804D01*
X00347785Y00038869D01*
X00347905Y00038925D01*
X00348016Y00038962D01*
X00348229Y00039026D01*
X0034833Y00039045D01*
X00348423Y00039063D01*
X00348506Y00039072D01*
X00348571Y00039082D01*
X00348636Y00039091D01*
X00348673D01*
X003487D01*
X0034871D01*
X00348885Y00039082D01*
D02*
G37*
G36*
X00344928Y00029892D02*
X00345085Y00030003D01*
X0034515Y00030058D01*
X00345215Y00030104D01*
X0034527Y0003015D01*
X00345307Y00030187D01*
X00345335Y00030215D01*
X00345344Y00030224D01*
X0034539Y00030271D01*
X00345437Y00030326D01*
X00345557Y00030456D01*
X00345695Y00030603D01*
X00345834Y00030761D01*
X00345954Y00030909D01*
X0034601Y00030973D01*
X00346065Y00031029D01*
X00346102Y00031075D01*
X0034613Y00031112D01*
X00346149Y0003113D01*
X00346158Y0003114D01*
X00346287Y00031288D01*
X00346407Y00031435D01*
X00346528Y00031565D01*
X00346629Y00031685D01*
X00346731Y00031796D01*
X00346824Y00031889D01*
X00346907Y00031981D01*
X00346981Y00032055D01*
X00347055Y00032129D01*
X0034711Y00032184D01*
X00347156Y00032231D01*
X00347203Y00032277D01*
X00347258Y00032323D01*
X00347276Y00032342D01*
X00347434Y00032471D01*
X00347572Y00032582D01*
X00347711Y00032675D01*
X00347822Y00032748D01*
X00347924Y00032804D01*
X00347998Y00032841D01*
X00348044Y00032859D01*
X00348062Y00032869D01*
X00348201Y00032924D01*
X0034834Y00032961D01*
X00348469Y00032998D01*
X0034858Y00033017D01*
X00348682Y00033026D01*
X00348756Y00033035D01*
X00348802D01*
X0034882D01*
X00348959Y00033026D01*
X00349089Y00033007D01*
X00349218Y00032989D01*
X00349329Y00032952D01*
X00349551Y00032859D01*
X00349727Y00032767D01*
X0034981Y00032711D01*
X00349874Y00032665D01*
X00349939Y00032619D01*
X00349986Y00032573D01*
X00350023Y00032536D01*
X00350059Y00032517D01*
X00350069Y00032499D01*
X00350078Y0003249D01*
X0035017Y00032388D01*
X00350254Y00032277D01*
X00350318Y00032157D01*
X00350374Y00032036D01*
X00350466Y00031796D01*
X00350531Y00031556D01*
X0035055Y00031454D01*
X00350568Y00031352D01*
X00350577Y0003126D01*
X00350586Y00031186D01*
X00350596Y00031121D01*
Y00031029D01*
X00350586Y00030862D01*
X00350577Y00030705D01*
X0035055Y00030557D01*
X00350522Y00030419D01*
X00350485Y00030289D01*
X00350448Y00030169D01*
X00350401Y00030058D01*
X00350355Y00029956D01*
X00350309Y00029864D01*
X00350263Y0002979D01*
X00350226Y00029725D01*
X00350189Y0002967D01*
X00350161Y00029623D01*
X00350133Y00029596D01*
X00350124Y00029577D01*
X00350115Y00029568D01*
X00350023Y00029476D01*
X00349921Y00029392D01*
X0034981Y00029309D01*
X00349699Y00029244D01*
X00349477Y00029133D01*
X00349255Y00029059D01*
X00349153Y00029032D01*
X00349052Y00029004D01*
X00348969Y00028986D01*
X00348895Y00028967D01*
X0034883Y00028958D01*
X00348784D01*
X00348756Y00028949D01*
X00348747D01*
X00348663Y00029753D01*
X00348876Y00029771D01*
X00349061Y00029808D01*
X00349227Y00029864D01*
X00349357Y00029929D01*
X00349468Y00029984D01*
X00349542Y0003004D01*
X00349588Y00030076D01*
X00349606Y00030095D01*
X00349717Y00030234D01*
X00349801Y00030382D01*
X00349865Y00030539D01*
X00349902Y00030677D01*
X0034993Y00030807D01*
X00349939Y00030918D01*
X00349949Y00030955D01*
Y0003101D01*
X00349939Y00031204D01*
X00349902Y0003138D01*
X00349847Y00031528D01*
X00349791Y00031657D01*
X00349727Y00031759D01*
X0034968Y00031824D01*
X00349643Y0003187D01*
X00349625Y00031889D01*
X00349496Y00031999D01*
X00349366Y00032083D01*
X00349237Y00032148D01*
X00349107Y00032184D01*
X00349005Y00032212D01*
X00348913Y00032221D01*
X00348857Y00032231D01*
X00348848D01*
X00348839D01*
X00348673Y00032212D01*
X00348497Y00032175D01*
X0034834Y00032111D01*
X00348192Y00032046D01*
X00348072Y00031972D01*
X0034797Y00031907D01*
X00347933Y00031889D01*
X00347905Y0003187D01*
X00347896Y00031852D01*
X00347887D01*
X00347785Y00031778D01*
X00347683Y00031685D01*
X00347572Y00031583D01*
X00347461Y00031472D01*
X00347239Y00031241D01*
X00347018Y0003101D01*
X00346916Y0003089D01*
X00346824Y00030788D01*
X0034674Y00030687D01*
X00346666Y00030603D01*
X00346611Y00030539D01*
X00346565Y00030483D01*
X00346537Y00030446D01*
X00346528Y00030437D01*
X00346334Y00030206D01*
X00346149Y00029993D01*
X00345982Y00029818D01*
X00345844Y00029679D01*
X00345723Y00029559D01*
X0034564Y00029476D01*
X00345585Y00029429D01*
X00345575Y00029411D01*
X00345566D01*
X00345409Y00029281D01*
X00345261Y0002918D01*
X00345113Y00029087D01*
X00344984Y00029013D01*
X00344873Y00028958D01*
X0034479Y00028921D01*
X00344734Y00028902D01*
X00344725Y00028893D01*
X00344715D01*
X00344614Y00028856D01*
X00344521Y00028837D01*
X00344429Y00028819D01*
X00344346Y0002881D01*
X00344272Y00028801D01*
X00344216D01*
X00344179D01*
X0034417D01*
Y00033044D01*
X00344928D01*
Y00029892D01*
D02*
G37*
G36*
X00350568Y00027608D02*
X00345917Y0002587D01*
X00345723Y00025796D01*
X00345538Y00025731D01*
X00345363Y00025675D01*
X00345205Y00025629D01*
X00345067Y00025583D01*
X00344965Y00025555D01*
X00344928Y00025546D01*
X003449Y00025537D01*
X00344882Y00025528D01*
X00344873D01*
X00345243Y00025417D01*
X00345418Y00025361D01*
X00345575Y00025306D01*
X00345714Y00025259D01*
X0034577Y00025241D01*
X00345825Y00025232D01*
X00345862Y00025213D01*
X0034589Y00025204D01*
X00345908Y00025195D01*
X00345917D01*
X00350568Y00023531D01*
Y00022606D01*
X0034417Y00025084D01*
Y00025971D01*
X00350568Y00028468D01*
Y00027608D01*
D02*
G37*
G36*
X00332788Y00037917D02*
X00327758D01*
X00332788Y00034561D01*
Y00033692D01*
X0032639D01*
Y00034506D01*
X0033141D01*
X0032639Y00037852D01*
Y00038731D01*
X00332788D01*
Y00037917D01*
D02*
G37*
G36*
X00327148Y00029383D02*
X00327305Y00029495D01*
X0032737Y0002955D01*
X00327435Y00029596D01*
X0032749Y00029642D01*
X00327527Y00029679D01*
X00327555Y00029707D01*
X00327564Y00029716D01*
X0032761Y00029763D01*
X00327657Y00029818D01*
X00327777Y00029948D01*
X00327915Y00030095D01*
X00328054Y00030253D01*
X00328174Y00030401D01*
X0032823Y00030465D01*
X00328285Y00030521D01*
X00328322Y00030567D01*
X0032835Y00030604D01*
X00328369Y00030622D01*
X00328378Y00030632D01*
X00328507Y0003078D01*
X00328627Y00030928D01*
X00328748Y00031057D01*
X00328849Y00031177D01*
X00328951Y00031288D01*
X00329044Y00031381D01*
X00329127Y00031473D01*
X00329201Y00031547D01*
X00329275Y00031621D01*
X0032933Y00031676D01*
X00329376Y00031723D01*
X00329423Y00031769D01*
X00329478Y00031815D01*
X00329496Y00031834D01*
X00329654Y00031963D01*
X00329792Y00032074D01*
X00329931Y00032167D01*
X00330042Y0003224D01*
X00330144Y00032296D01*
X00330218Y00032333D01*
X00330264Y00032351D01*
X00330282Y00032361D01*
X00330421Y00032416D01*
X0033056Y00032453D01*
X00330689Y0003249D01*
X003308Y00032508D01*
X00330902Y00032518D01*
X00330976Y00032527D01*
X00331022D01*
X0033104D01*
X00331179Y00032518D01*
X00331309Y00032499D01*
X00331438Y00032481D01*
X00331549Y00032444D01*
X00331771Y00032351D01*
X00331947Y00032259D01*
X0033203Y00032203D01*
X00332094Y00032157D01*
X00332159Y00032111D01*
X00332206Y00032065D01*
X00332243Y00032028D01*
X00332279Y00032009D01*
X00332289Y00031991D01*
X00332298Y00031981D01*
X0033239Y0003188D01*
X00332474Y00031769D01*
X00332538Y00031649D01*
X00332594Y00031528D01*
X00332686Y00031288D01*
X00332751Y00031048D01*
X0033277Y00030946D01*
X00332788Y00030844D01*
X00332797Y00030752D01*
X00332806Y00030678D01*
X00332816Y00030613D01*
Y00030521D01*
X00332806Y00030354D01*
X00332797Y00030197D01*
X0033277Y00030049D01*
X00332742Y00029911D01*
X00332705Y00029781D01*
X00332668Y00029661D01*
X00332621Y0002955D01*
X00332575Y00029448D01*
X00332529Y00029356D01*
X00332483Y00029282D01*
X00332446Y00029217D01*
X00332409Y00029162D01*
X00332381Y00029115D01*
X00332353Y00029088D01*
X00332344Y00029069D01*
X00332335Y0002906D01*
X00332243Y00028967D01*
X00332141Y00028884D01*
X0033203Y00028801D01*
X00331919Y00028736D01*
X00331697Y00028625D01*
X00331475Y00028551D01*
X00331373Y00028524D01*
X00331272Y00028496D01*
X00331189Y00028477D01*
X00331115Y00028459D01*
X0033105Y0002845D01*
X00331004D01*
X00330976Y0002844D01*
X00330967D01*
X00330883Y00029245D01*
X00331096Y00029263D01*
X00331281Y000293D01*
X00331447Y00029356D01*
X00331577Y0002942D01*
X00331688Y00029476D01*
X00331762Y00029532D01*
X00331808Y00029568D01*
X00331826Y00029587D01*
X00331937Y00029726D01*
X00332021Y00029873D01*
X00332085Y00030031D01*
X00332122Y00030169D01*
X0033215Y00030299D01*
X00332159Y0003041D01*
X00332169Y00030447D01*
Y00030502D01*
X00332159Y00030696D01*
X00332122Y00030872D01*
X00332067Y0003102D01*
X00332011Y00031149D01*
X00331947Y00031251D01*
X003319Y00031316D01*
X00331863Y00031362D01*
X00331845Y00031381D01*
X00331716Y00031491D01*
X00331586Y00031575D01*
X00331457Y00031639D01*
X00331327Y00031676D01*
X00331225Y00031704D01*
X00331133Y00031713D01*
X00331077Y00031723D01*
X00331068D01*
X00331059D01*
X00330893Y00031704D01*
X00330717Y00031667D01*
X0033056Y00031602D01*
X00330412Y00031538D01*
X00330292Y00031464D01*
X0033019Y00031399D01*
X00330153Y00031381D01*
X00330125Y00031362D01*
X00330116Y00031344D01*
X00330107D01*
X00330005Y0003127D01*
X00329903Y00031177D01*
X00329792Y00031075D01*
X00329681Y00030965D01*
X00329459Y00030733D01*
X00329238Y00030502D01*
X00329136Y00030382D01*
X00329044Y0003028D01*
X0032896Y00030179D01*
X00328886Y00030095D01*
X00328831Y00030031D01*
X00328785Y00029975D01*
X00328757Y00029938D01*
X00328748Y00029929D01*
X00328554Y00029698D01*
X00328369Y00029485D01*
X00328202Y0002931D01*
X00328064Y00029171D01*
X00327943Y00029051D01*
X0032786Y00028967D01*
X00327805Y00028921D01*
X00327795Y00028903D01*
X00327786D01*
X00327629Y00028773D01*
X00327481Y00028672D01*
X00327333Y00028579D01*
X00327204Y00028505D01*
X00327093Y0002845D01*
X0032701Y00028413D01*
X00326954Y00028394D01*
X00326945Y00028385D01*
X00326936D01*
X00326834Y00028348D01*
X00326741Y0002833D01*
X00326649Y00028311D01*
X00326566Y00028302D01*
X00326492Y00028293D01*
X00326436D01*
X00326399D01*
X0032639D01*
Y00032536D01*
X00327148D01*
Y00029383D01*
D02*
G37*
G36*
X00332788Y000271D02*
X00328137Y00025362D01*
X00327943Y00025288D01*
X00327758Y00025223D01*
X00327583Y00025168D01*
X00327425Y00025121D01*
X00327287Y00025075D01*
X00327185Y00025047D01*
X00327148Y00025038D01*
X0032712Y00025029D01*
X00327102Y0002502D01*
X00327093D01*
X00327463Y00024909D01*
X00327638Y00024853D01*
X00327795Y00024798D01*
X00327934Y00024752D01*
X0032799Y00024733D01*
X00328045Y00024724D01*
X00328082Y00024705D01*
X0032811Y00024696D01*
X00328128Y00024687D01*
X00328137D01*
X00332788Y00023023D01*
Y00022098D01*
X0032639Y00024576D01*
Y00025463D01*
X00332788Y0002796D01*
Y000271D01*
D02*
G37*
G36*
X00286766Y00040956D02*
Y00040069D01*
X00280368Y00037572D01*
Y00038432D01*
X00285019Y0004017D01*
X00285213Y00040244D01*
X00285398Y00040309D01*
X00285573Y00040364D01*
X0028573Y00040411D01*
X00285869Y00040457D01*
X00285971Y00040485D01*
X00286008Y00040494D01*
X00286036Y00040503D01*
X00286054Y00040512D01*
X00286063D01*
X00285693Y00040623D01*
X00285518Y00040679D01*
X00285361Y00040734D01*
X00285222Y00040781D01*
X00285166Y00040799D01*
X00285111Y00040808D01*
X00285074Y00040827D01*
X00285046Y00040836D01*
X00285028Y00040845D01*
X00285019D01*
X00280368Y00042509D01*
Y00043434D01*
X00286766Y00040956D01*
D02*
G37*
G36*
X00282652Y00036389D02*
X00282587Y0003625D01*
X00282522Y00036112D01*
X00282458Y00035982D01*
X00282402Y00035871D01*
X00282356Y00035779D01*
X00282319Y00035723D01*
X0028231Y00035714D01*
Y00035705D01*
X00282208Y00035538D01*
X00282106Y0003539D01*
X00282014Y00035261D01*
X00281931Y00035159D01*
X00281866Y00035067D01*
X0028181Y00035011D01*
X00281773Y00034965D01*
X00281764Y00034956D01*
X00286766D01*
Y0003417D01*
X0028034D01*
Y00034678D01*
X00280497Y00034771D01*
X00280645Y00034873D01*
X00280793Y00034993D01*
X00280923Y00035104D01*
X00281034Y00035215D01*
X00281126Y00035298D01*
X00281154Y00035335D01*
X00281182Y00035363D01*
X00281191Y00035372D01*
X002812Y00035381D01*
X00281357Y00035575D01*
X00281505Y00035769D01*
X00281635Y00035954D01*
X00281736Y00036139D01*
X00281829Y00036296D01*
X00281866Y00036361D01*
X00281894Y00036417D01*
X00281921Y00036463D01*
X00281931Y000365D01*
X00281949Y00036518D01*
Y00036528D01*
X00282707D01*
X00282652Y00036389D01*
D02*
G37*
G36*
X00286766Y00031026D02*
X00281746D01*
X00286766Y0002768D01*
Y00026801D01*
X00280368D01*
Y00027615D01*
X00285398D01*
X00280368Y00030971D01*
Y0003184D01*
X00286766D01*
Y00031026D01*
D02*
G37*
G36*
X00271272Y00040956D02*
Y00040069D01*
X00264874Y00037572D01*
Y00038432D01*
X00269525Y0004017D01*
X00269719Y00040244D01*
X00269904Y00040309D01*
X00270079Y00040364D01*
X00270236Y00040411D01*
X00270375Y00040457D01*
X00270477Y00040485D01*
X00270514Y00040494D01*
X00270542Y00040503D01*
X0027056Y00040512D01*
X00270569D01*
X002702Y00040623D01*
X00270024Y00040679D01*
X00269867Y00040734D01*
X00269728Y00040781D01*
X00269673Y00040799D01*
X00269617Y00040808D01*
X0026958Y00040827D01*
X00269552Y00040836D01*
X00269534Y00040845D01*
X00269525D01*
X00264874Y00042509D01*
Y00043434D01*
X00271272Y00040956D01*
D02*
G37*
G36*
X00267158Y00036389D02*
X00267093Y0003625D01*
X00267028Y00036112D01*
X00266964Y00035982D01*
X00266908Y00035871D01*
X00266862Y00035779D01*
X00266825Y00035723D01*
X00266816Y00035714D01*
Y00035705D01*
X00266714Y00035538D01*
X00266612Y0003539D01*
X0026652Y00035261D01*
X00266437Y00035159D01*
X00266372Y00035067D01*
X00266316Y00035011D01*
X00266279Y00034965D01*
X0026627Y00034956D01*
X00271272D01*
Y0003417D01*
X00264846D01*
Y00034678D01*
X00265004Y00034771D01*
X00265151Y00034873D01*
X00265299Y00034993D01*
X00265429Y00035104D01*
X0026554Y00035215D01*
X00265632Y00035298D01*
X0026566Y00035335D01*
X00265688Y00035363D01*
X00265697Y00035372D01*
X00265706Y00035381D01*
X00265863Y00035575D01*
X00266011Y00035769D01*
X00266141Y00035954D01*
X00266242Y00036139D01*
X00266335Y00036296D01*
X00266372Y00036361D01*
X002664Y00036417D01*
X00266427Y00036463D01*
X00266437Y000365D01*
X00266455Y00036518D01*
Y00036528D01*
X00267213D01*
X00267158Y00036389D01*
D02*
G37*
G36*
X00271272Y0003098D02*
X00268674D01*
Y00029344D01*
X00268665Y00029103D01*
X00268646Y00028872D01*
X00268619Y00028669D01*
X00268582Y00028484D01*
X00268545Y00028308D01*
X00268498Y0002816D01*
X00268443Y00028022D01*
X00268387Y00027901D01*
X00268341Y000278D01*
X00268286Y00027707D01*
X00268239Y00027633D01*
X00268193Y00027578D01*
X00268165Y00027532D01*
X00268138Y00027504D01*
X00268119Y00027485D01*
X0026811Y00027476D01*
X00267999Y00027384D01*
X00267888Y000273D01*
X00267777Y00027236D01*
X00267657Y00027171D01*
X00267537Y00027115D01*
X00267426Y00027078D01*
X00267213Y00027014D01*
X00267111Y00026995D01*
X00267019Y00026977D01*
X00266936Y00026968D01*
X00266871Y00026958D01*
X00266806Y00026949D01*
X00266769D01*
X00266742D01*
X00266732D01*
X00266557Y00026958D01*
X0026639Y00026977D01*
X00266242Y00027014D01*
X00266113Y00027042D01*
X00266002Y00027078D01*
X00265919Y00027115D01*
X00265873Y00027134D01*
X00265854Y00027143D01*
X00265715Y00027217D01*
X00265595Y0002731D01*
X00265484Y00027393D01*
X00265401Y00027476D01*
X00265336Y0002755D01*
X00265281Y00027606D01*
X00265253Y00027643D01*
X00265244Y00027661D01*
X0026517Y00027781D01*
X00265105Y0002792D01*
X0026505Y00028049D01*
X00265004Y0002817D01*
X00264976Y0002828D01*
X00264957Y00028364D01*
X00264939Y00028428D01*
Y00028447D01*
X0026492Y00028586D01*
X00264902Y00028743D01*
X00264893Y00028909D01*
X00264883Y00029066D01*
X00264874Y00029205D01*
Y00031831D01*
X00271272D01*
Y0003098D01*
D02*
G37*
G36*
X00162289Y00114086D02*
X0016216Y00113901D01*
X0016204Y00113735D01*
X0016192Y00113596D01*
X00161818Y00113466D01*
X00161726Y00113374D01*
X00161651Y001133D01*
X00161605Y00113254D01*
X00161587Y00113235D01*
X00161513Y0011318D01*
X0016143Y00113115D01*
X00161263Y00113013D01*
X00161189Y00112976D01*
X00161134Y00112939D01*
X00161097Y00112921D01*
X00161078Y00112912D01*
X00161245Y00112884D01*
X00161402Y00112856D01*
X00161541Y0011281D01*
X00161679Y00112773D01*
X00161799Y00112727D01*
X0016191Y00112671D01*
X00162012Y00112625D01*
X00162104Y00112579D01*
X00162178Y00112523D01*
X00162253Y00112477D01*
X00162308Y0011244D01*
X00162354Y00112403D01*
X00162391Y00112375D01*
X00162419Y00112348D01*
X00162428Y00112338D01*
X00162437Y00112329D01*
X00162511Y00112237D01*
X00162585Y00112144D01*
X00162696Y0011195D01*
X0016277Y00111756D01*
X00162826Y00111571D01*
X00162863Y00111414D01*
X00162872Y00111349D01*
Y00111284D01*
X00162881Y00111238D01*
Y00111201D01*
Y00111183D01*
Y00111173D01*
X00162872Y00110979D01*
X00162844Y00110804D01*
X00162798Y00110637D01*
X00162752Y00110499D01*
X00162696Y00110378D01*
X00162659Y00110286D01*
X00162622Y0011023D01*
X00162613Y00110221D01*
Y00110212D01*
X00162502Y00110064D01*
X00162391Y00109935D01*
X00162271Y00109824D01*
X0016216Y0010974D01*
X00162058Y00109676D01*
X00161975Y00109639D01*
X0016192Y00109611D01*
X0016191Y00109602D01*
X00161901D01*
X00161818Y00109574D01*
X00161716Y00109546D01*
X00161513Y001095D01*
X00161291Y00109472D01*
X00161087Y00109445D01*
X00160893Y00109435D01*
X0016081D01*
X00160736Y00109426D01*
X00157768D01*
Y00115824D01*
X00158619D01*
Y00112986D01*
X0015971D01*
X00159812Y00112995D01*
X00159886D01*
X0015995Y00113004D01*
X00159997Y00113013D01*
X00160033D01*
X00160052Y00113023D01*
X00160061D01*
X00160209Y00113069D01*
X00160274Y00113097D01*
X00160329Y00113124D01*
X00160385Y00113152D01*
X00160422Y0011317D01*
X0016044Y0011318D01*
X0016045Y00113189D01*
X00160523Y00113244D01*
X00160597Y00113309D01*
X00160736Y00113448D01*
X00160801Y00113513D01*
X00160847Y00113568D01*
X00160875Y00113605D01*
X00160884Y00113614D01*
X00160977Y00113744D01*
X00161078Y00113882D01*
X0016118Y0011403D01*
X00161282Y00114169D01*
X00161365Y00114298D01*
X0016143Y001144D01*
X00161457Y00114437D01*
X00161476Y00114465D01*
X00161494Y00114483D01*
Y00114493D01*
X00162336Y00115824D01*
X0016339D01*
X00162289Y00114086D01*
D02*
G37*
G36*
X00171063Y00112921D02*
X00174068D01*
Y00112163D01*
X00171063D01*
Y00110184D01*
X0017454D01*
Y00109426D01*
X00170213D01*
Y00115824D01*
X00171063D01*
Y00112921D01*
D02*
G37*
G36*
X00169002Y00115066D02*
X00165072D01*
Y00112893D01*
X00168613D01*
Y00112135D01*
X00165072D01*
Y00110184D01*
X00168854D01*
Y00109426D01*
X00164222D01*
Y00115824D01*
X00169002D01*
Y00115066D01*
D02*
G37*
G36*
X00156992Y00109426D02*
X00156132D01*
X00154394Y00114077D01*
X0015432Y00114271D01*
X00154255Y00114456D01*
X00154199Y00114631D01*
X00154153Y00114789D01*
X00154107Y00114927D01*
X00154079Y00115029D01*
X0015407Y00115066D01*
X00154061Y00115094D01*
X00154052Y00115112D01*
Y00115121D01*
X00153941Y00114752D01*
X00153885Y00114576D01*
X0015383Y00114419D01*
X00153784Y0011428D01*
X00153765Y00114225D01*
X00153756Y00114169D01*
X00153737Y00114132D01*
X00153728Y00114104D01*
X00153719Y00114086D01*
Y00114077D01*
X00152055Y00109426D01*
X0015113D01*
X00153608Y00115824D01*
X00154495D01*
X00156992Y00109426D01*
D02*
G37*
G36*
X00071424Y0030556D02*
X00071572D01*
X0007172Y0030555D01*
X00071849Y00305532D01*
X00071979Y00305523D01*
X0007209Y00305513D01*
X00072191Y00305495D01*
X00072284Y00305486D01*
X00072367Y00305467D01*
X00072432Y00305458D01*
X00072487Y00305449D01*
X00072533Y0030544D01*
X00072561Y0030543D01*
X00072579Y00305421D01*
X00072589D01*
X00072792Y00305366D01*
X00072977Y00305301D01*
X00073134Y00305227D01*
X00073273Y00305171D01*
X00073393Y00305107D01*
X00073476Y0030507D01*
X00073523Y00305033D01*
X00073541Y00305023D01*
X0007368Y00304922D01*
X000738Y0030482D01*
X00073902Y00304709D01*
X00073994Y00304608D01*
X00074059Y00304515D01*
X00074105Y00304441D01*
X00074133Y00304395D01*
X00074142Y00304386D01*
Y00304376D01*
X00074216Y00304228D01*
X00074262Y00304071D01*
X00074299Y00303923D01*
X00074327Y00303785D01*
X00074345Y00303664D01*
X00074355Y00303563D01*
Y00303479D01*
X00074336Y0030323D01*
X00074299Y00302999D01*
X00074234Y00302805D01*
X0007417Y00302638D01*
X00074096Y003025D01*
X00074068Y00302444D01*
X00074031Y00302398D01*
X00074013Y00302361D01*
X00073994Y00302333D01*
X00073976Y00302324D01*
Y00302315D01*
X00073828Y00302148D01*
X00073652Y0030201D01*
X00073476Y00301889D01*
X0007331Y00301797D01*
X00073153Y00301723D01*
X00073088Y00301686D01*
X00073023Y00301667D01*
X00072977Y00301649D01*
X0007294Y0030163D01*
X00072922Y00301621D01*
X00072912D01*
X00072774Y00301584D01*
X00072635Y00301547D01*
X0007233Y00301492D01*
X00072025Y00301446D01*
X00071738Y00301418D01*
X00071599Y00301409D01*
X00071479Y00301399D01*
X00071368D01*
X00071267Y0030139D01*
X00071193D01*
X00071128D01*
X00071091D01*
X00071082D01*
X00070758Y00301399D01*
X00070453Y00301418D01*
X00070176Y00301446D01*
X00069917Y00301492D01*
X00069676Y00301538D01*
X00069464Y00301593D01*
X0006927Y00301649D01*
X00069103Y00301704D01*
X00068955Y0030176D01*
X00068826Y00301824D01*
X00068715Y00301871D01*
X00068632Y00301917D01*
X00068558Y00301963D01*
X00068511Y00301991D01*
X00068484Y0030201D01*
X00068474Y00302019D01*
X00068363Y0030212D01*
X00068262Y00302231D01*
X00068169Y00302351D01*
X00068095Y00302472D01*
X00068031Y00302592D01*
X00067975Y00302712D01*
X00067938Y00302832D01*
X00067901Y00302943D01*
X00067874Y00303054D01*
X00067855Y00303156D01*
X00067836Y00303248D01*
X00067827Y00303322D01*
X00067818Y00303387D01*
Y00303479D01*
X00067836Y00303729D01*
X00067874Y0030396D01*
X00067938Y00304154D01*
X00068003Y00304321D01*
X00068068Y00304459D01*
X00068105Y00304506D01*
X00068132Y00304552D01*
X00068151Y00304589D01*
X00068169Y00304617D01*
X00068188Y00304626D01*
Y00304635D01*
X00068345Y00304802D01*
X00068511Y0030494D01*
X00068696Y00305061D01*
X00068863Y00305153D01*
X0006902Y00305227D01*
X00069085Y00305264D01*
X00069149Y00305282D01*
X00069196Y00305301D01*
X00069233Y00305319D01*
X00069251Y00305329D01*
X0006926D01*
X00069399Y00305375D01*
X00069538Y00305412D01*
X00069833Y00305467D01*
X00070139Y00305513D01*
X00070434Y00305541D01*
X00070564Y0030555D01*
X00070684Y0030556D01*
X00070795D01*
X00070897Y00305569D01*
X00070971D01*
X00071035D01*
X00071073D01*
X00071082D01*
X00071257D01*
X00071424Y0030556D01*
D02*
G37*
G36*
X00071285Y00298561D02*
X00074327Y0030078D01*
Y00299855D01*
X00072626Y00298579D01*
X00072487Y00298468D01*
X00072358Y00298376D01*
X00072228Y00298284D01*
X00072126Y00298209D01*
X00072034Y00298145D01*
X0007196Y00298099D01*
X00071923Y00298071D01*
X00071905Y00298062D01*
X00072016Y00297997D01*
X00072136Y00297923D01*
X00072265Y0029784D01*
X00072395Y00297757D01*
X00072505Y00297673D01*
X00072598Y00297618D01*
X00072635Y0029759D01*
X00072663Y00297572D01*
X00072672Y00297553D01*
X00072681D01*
X00074327Y00296388D01*
Y0029538D01*
X00071239Y00297562D01*
X00067929Y00295094D01*
Y00296111D01*
X00070148Y00297729D01*
X00070203Y00297766D01*
X00070268Y00297812D01*
X00070416Y00297914D01*
X0007049Y0029796D01*
X00070546Y00297997D01*
X00070582Y00298025D01*
X00070592Y00298034D01*
X00070453Y00298126D01*
X00070324Y00298209D01*
X00070277Y00298246D01*
X0007024Y00298265D01*
X00070213Y00298284D01*
X00070203Y00298293D01*
X00067929Y00299911D01*
Y00300956D01*
X00071285Y00298561D01*
D02*
G37*
G36*
X00069667Y00293827D02*
X00069852Y00293698D01*
X00070019Y00293577D01*
X00070157Y00293457D01*
X00070287Y00293356D01*
X00070379Y00293263D01*
X00070453Y00293189D01*
X00070499Y00293143D01*
X00070518Y00293124D01*
X00070573Y0029305D01*
X00070638Y00292967D01*
X0007074Y00292801D01*
X00070777Y00292727D01*
X00070814Y00292671D01*
X00070832Y00292634D01*
X00070841Y00292616D01*
X00070869Y00292782D01*
X00070897Y00292939D01*
X00070943Y00293078D01*
X0007098Y00293217D01*
X00071026Y00293337D01*
X00071082Y00293448D01*
X00071128Y0029355D01*
X00071174Y00293642D01*
X0007123Y00293716D01*
X00071276Y0029379D01*
X00071313Y00293846D01*
X0007135Y00293892D01*
X00071378Y00293929D01*
X00071405Y00293957D01*
X00071414Y00293966D01*
X00071424Y00293975D01*
X00071516Y00294049D01*
X00071609Y00294123D01*
X00071803Y00294234D01*
X00071997Y00294308D01*
X00072182Y00294363D01*
X00072339Y002944D01*
X00072404Y0029441D01*
X00072469D01*
X00072515Y00294419D01*
X00072552D01*
X0007257D01*
X00072579D01*
X00072774Y0029441D01*
X00072949Y00294382D01*
X00073116Y00294336D01*
X00073254Y00294289D01*
X00073375Y00294234D01*
X00073467Y00294197D01*
X00073523Y0029416D01*
X00073532Y00294151D01*
X00073541D01*
X00073689Y0029404D01*
X00073818Y00293929D01*
X00073929Y00293809D01*
X00074013Y00293698D01*
X00074077Y00293596D01*
X00074114Y00293513D01*
X00074142Y00293457D01*
X00074151Y00293448D01*
Y00293439D01*
X00074179Y00293356D01*
X00074207Y00293254D01*
X00074253Y0029305D01*
X00074281Y00292829D01*
X00074308Y00292625D01*
X00074318Y00292431D01*
Y00292348D01*
X00074327Y00292274D01*
Y00289306D01*
X00067929D01*
Y00290157D01*
X00070767D01*
Y00291248D01*
X00070758Y00291349D01*
Y00291423D01*
X00070749Y00291488D01*
X0007074Y00291534D01*
Y00291571D01*
X0007073Y0029159D01*
Y00291599D01*
X00070684Y00291747D01*
X00070656Y00291812D01*
X00070629Y00291867D01*
X00070601Y00291922D01*
X00070582Y00291959D01*
X00070573Y00291978D01*
X00070564Y00291987D01*
X00070508Y00292061D01*
X00070444Y00292135D01*
X00070305Y00292274D01*
X0007024Y00292339D01*
X00070185Y00292385D01*
X00070148Y00292412D01*
X00070139Y00292422D01*
X00070009Y00292514D01*
X00069871Y00292616D01*
X00069723Y00292718D01*
X00069584Y00292819D01*
X00069454Y00292903D01*
X00069353Y00292967D01*
X00069316Y00292995D01*
X00069288Y00293013D01*
X0006927Y00293032D01*
X0006926D01*
X00067929Y00293873D01*
Y00294927D01*
X00069667Y00293827D01*
D02*
G37*
G36*
X0005847Y00305569D02*
X00058618D01*
X00058766Y00305559D01*
X00058895Y00305541D01*
X00059025Y00305532D01*
X00059135Y00305522D01*
X00059237Y00305504D01*
X0005933Y00305494D01*
X00059413Y00305476D01*
X00059478Y00305467D01*
X00059533Y00305458D01*
X00059579Y00305448D01*
X00059607Y00305439D01*
X00059626Y0030543D01*
X00059635D01*
X00059838Y00305374D01*
X00060023Y0030531D01*
X0006018Y00305236D01*
X00060319Y0030518D01*
X00060439Y00305116D01*
X00060522Y00305079D01*
X00060568Y00305042D01*
X00060587Y00305032D01*
X00060726Y00304931D01*
X00060846Y00304829D01*
X00060948Y00304718D01*
X0006104Y00304616D01*
X00061105Y00304524D01*
X00061151Y0030445D01*
X00061179Y00304404D01*
X00061188Y00304394D01*
Y00304385D01*
X00061262Y00304237D01*
X00061308Y0030408D01*
X00061345Y00303932D01*
X00061373Y00303793D01*
X00061391Y00303673D01*
X00061401Y00303571D01*
Y00303488D01*
X00061382Y00303239D01*
X00061345Y00303008D01*
X0006128Y00302813D01*
X00061216Y00302647D01*
X00061142Y00302508D01*
X00061114Y00302453D01*
X00061077Y00302407D01*
X00061059Y00302369D01*
X0006104Y00302342D01*
X00061022Y00302332D01*
Y00302323D01*
X00060874Y00302157D01*
X00060698Y00302018D01*
X00060522Y00301898D01*
X00060356Y00301805D01*
X00060199Y00301732D01*
X00060134Y00301695D01*
X00060069Y00301676D01*
X00060023Y00301658D01*
X00059986Y00301639D01*
X00059968Y0030163D01*
X00059958D01*
X0005982Y00301593D01*
X00059681Y00301556D01*
X00059376Y003015D01*
X00059071Y00301454D01*
X00058784Y00301427D01*
X00058646Y00301417D01*
X00058525Y00301408D01*
X00058414D01*
X00058313Y00301399D01*
X00058239D01*
X00058174D01*
X00058137D01*
X00058128D01*
X00057804Y00301408D01*
X00057499Y00301427D01*
X00057222Y00301454D01*
X00056963Y003015D01*
X00056722Y00301547D01*
X0005651Y00301602D01*
X00056316Y00301658D01*
X00056149Y00301713D01*
X00056001Y00301769D01*
X00055872Y00301833D01*
X00055761Y0030188D01*
X00055678Y00301926D01*
X00055604Y00301972D01*
X00055557Y00302D01*
X0005553Y00302018D01*
X0005552Y00302027D01*
X00055409Y00302129D01*
X00055308Y0030224D01*
X00055215Y0030236D01*
X00055141Y00302481D01*
X00055077Y00302601D01*
X00055021Y00302721D01*
X00054984Y00302841D01*
X00054947Y00302952D01*
X0005492Y00303063D01*
X00054901Y00303165D01*
X00054882Y00303257D01*
X00054873Y00303331D01*
X00054864Y00303396D01*
Y00303488D01*
X00054882Y00303738D01*
X0005492Y00303969D01*
X00054984Y00304163D01*
X00055049Y0030433D01*
X00055114Y00304468D01*
X00055151Y00304515D01*
X00055178Y00304561D01*
X00055197Y00304598D01*
X00055215Y00304625D01*
X00055234Y00304635D01*
Y00304644D01*
X00055391Y0030481D01*
X00055557Y00304949D01*
X00055742Y00305069D01*
X00055909Y00305162D01*
X00056066Y00305236D01*
X00056131Y00305273D01*
X00056195Y00305291D01*
X00056242Y0030531D01*
X00056279Y00305328D01*
X00056297Y00305337D01*
X00056306D01*
X00056445Y00305384D01*
X00056584Y00305421D01*
X0005688Y00305476D01*
X00057185Y00305522D01*
X00057481Y0030555D01*
X0005761Y00305559D01*
X0005773Y00305569D01*
X00057841D01*
X00057943Y00305578D01*
X00058017D01*
X00058081D01*
X00058119D01*
X00058128D01*
X00058303D01*
X0005847Y00305569D01*
D02*
G37*
G36*
X00058331Y0029857D02*
X00061373Y00300788D01*
Y00299864D01*
X00059672Y00298588D01*
X00059533Y00298477D01*
X00059404Y00298385D01*
X00059274Y00298292D01*
X00059172Y00298218D01*
X0005908Y00298153D01*
X00059006Y00298107D01*
X00058969Y0029808D01*
X00058951Y0029807D01*
X00059061Y00298006D01*
X00059182Y00297932D01*
X00059311Y00297848D01*
X00059441Y00297765D01*
X00059552Y00297682D01*
X00059644Y00297626D01*
X00059681Y00297599D01*
X00059709Y0029758D01*
X00059718Y00297562D01*
X00059727D01*
X00061373Y00296397D01*
Y00295389D01*
X00058285Y00297571D01*
X00054975Y00295103D01*
Y00296119D01*
X00057194Y00297738D01*
X00057249Y00297775D01*
X00057314Y00297821D01*
X00057462Y00297922D01*
X00057536Y00297969D01*
X00057592Y00298006D01*
X00057628Y00298033D01*
X00057638Y00298043D01*
X00057499Y00298135D01*
X0005737Y00298218D01*
X00057323Y00298255D01*
X00057286Y00298274D01*
X00057259Y00298292D01*
X00057249Y00298302D01*
X00054975Y00299919D01*
Y00300964D01*
X00058331Y0029857D01*
D02*
G37*
G36*
X00061373Y00289814D02*
X00060615D01*
Y00291922D01*
X00054975D01*
Y00292773D01*
X00060615D01*
Y00294881D01*
X00061373D01*
Y00289814D01*
D02*
G37*
G36*
X00049181Y00169904D02*
X00048423D01*
Y00172012D01*
X00042783D01*
Y00172862D01*
X00048423D01*
Y0017497D01*
X00049181D01*
Y00169904D01*
D02*
G37*
G36*
X00043541Y00165281D02*
X00045714D01*
Y00168822D01*
X00046472D01*
Y00165281D01*
X00048423D01*
Y00169062D01*
X00049181D01*
Y0016443D01*
X00042783D01*
Y0016921D01*
X00043541D01*
Y00165281D01*
D02*
G37*
G36*
X00044762Y00163247D02*
X00044937Y00163219D01*
X00045094Y00163173D01*
X00045224Y00163127D01*
X00045335Y00163071D01*
X00045418Y00163034D01*
X00045464Y00162997D01*
X00045483Y00162988D01*
X00045621Y00162877D01*
X00045751Y00162748D01*
X00045862Y00162609D01*
X00045963Y0016247D01*
X00046037Y0016235D01*
X00046093Y00162248D01*
X00046111Y00162211D01*
X0004613Y00162184D01*
X00046139Y00162165D01*
Y00162156D01*
X00046176Y00162082D01*
X00046204Y00161989D01*
X00046241Y00161888D01*
X00046278Y00161777D01*
X00046343Y00161546D01*
X00046407Y00161305D01*
X00046435Y00161194D01*
X00046463Y00161093D01*
X0004649Y00160991D01*
X00046509Y00160908D01*
X00046527Y00160843D01*
X00046537Y00160788D01*
X00046546Y00160751D01*
Y00160741D01*
X00046592Y00160556D01*
X00046629Y0016039D01*
X00046675Y00160242D01*
X00046712Y00160113D01*
X00046759Y00159992D01*
X00046796Y00159891D01*
X00046832Y00159798D01*
X0004686Y00159715D01*
X00046897Y0015965D01*
X00046925Y00159595D01*
X00046943Y00159558D01*
X00046971Y00159521D01*
X00046999Y00159475D01*
X00047008Y00159465D01*
X00047101Y00159382D01*
X00047193Y00159327D01*
X00047286Y00159281D01*
X00047378Y00159253D01*
X00047452Y00159234D01*
X00047517Y00159225D01*
X00047554D01*
X00047572D01*
X0004772Y00159243D01*
X00047849Y00159281D01*
X00047961Y00159336D01*
X00048062Y00159401D01*
X00048136Y00159456D01*
X00048201Y00159512D01*
X00048238Y00159549D01*
X00048247Y00159567D01*
X00048293Y00159641D01*
X0004834Y00159715D01*
X00048414Y00159891D01*
X0004846Y00160076D01*
X00048497Y00160261D01*
X00048515Y00160427D01*
X00048524Y00160501D01*
X00048534Y00160556D01*
Y00160686D01*
X00048524Y00160945D01*
X00048488Y00161176D01*
X00048432Y00161361D01*
X00048376Y00161518D01*
X00048321Y00161638D01*
X00048266Y0016173D01*
X00048229Y00161777D01*
X00048219Y00161795D01*
X0004809Y00161925D01*
X00047951Y00162026D01*
X00047803Y0016211D01*
X00047655Y00162165D01*
X00047517Y00162202D01*
X00047415Y0016223D01*
X00047369Y00162239D01*
X00047341Y00162248D01*
X00047323D01*
X00047313D01*
X00047378Y00163062D01*
X00047581Y00163043D01*
X00047766Y00162997D01*
X00047942Y00162951D01*
X0004809Y00162886D01*
X0004821Y00162831D01*
X00048303Y00162785D01*
X0004833Y00162766D01*
X00048358Y00162748D01*
X00048367Y00162738D01*
X00048376D01*
X00048534Y00162618D01*
X00048672Y00162489D01*
X00048793Y0016235D01*
X00048885Y00162211D01*
X00048968Y00162091D01*
X00049015Y00161999D01*
X00049033Y00161962D01*
X00049051Y00161934D01*
X00049061Y00161915D01*
Y00161906D01*
X00049135Y00161703D01*
X0004919Y00161481D01*
X00049236Y00161278D01*
X00049264Y00161083D01*
X00049283Y00160908D01*
Y00160843D01*
X00049292Y00160778D01*
Y00160658D01*
X00049283Y00160418D01*
X00049255Y00160205D01*
X00049218Y00160002D01*
X00049181Y00159826D01*
X00049144Y00159687D01*
X00049125Y00159622D01*
X00049107Y00159576D01*
X00049088Y00159539D01*
X00049079Y00159512D01*
X0004907Y00159493D01*
Y00159484D01*
X00048977Y00159299D01*
X00048876Y00159132D01*
X00048765Y00158994D01*
X00048663Y00158883D01*
X00048571Y001588D01*
X00048497Y00158735D01*
X00048441Y00158689D01*
X00048432Y0015868D01*
X00048423D01*
X00048266Y00158587D01*
X00048108Y00158522D01*
X00047951Y00158476D01*
X00047813Y00158448D01*
X00047692Y0015843D01*
X000476Y00158411D01*
X00047563D01*
X00047535D01*
X00047526D01*
X00047517D01*
X00047359Y00158421D01*
X00047212Y00158448D01*
X00047073Y00158485D01*
X00046953Y00158522D01*
X0004686Y00158559D01*
X00046786Y00158596D01*
X0004674Y00158624D01*
X00046722Y00158633D01*
X00046592Y00158726D01*
X00046472Y00158837D01*
X0004637Y00158948D01*
X00046287Y00159059D01*
X00046213Y00159151D01*
X00046167Y00159234D01*
X0004613Y0015929D01*
X00046121Y00159299D01*
Y00159308D01*
X00046084Y00159382D01*
X00046047Y00159465D01*
X00045982Y0015965D01*
X00045917Y00159863D01*
X00045852Y00160066D01*
X00045797Y00160251D01*
X00045778Y00160334D01*
X0004576Y00160408D01*
X00045742Y00160464D01*
X00045732Y0016051D01*
X00045723Y00160538D01*
Y00160547D01*
X00045686Y00160704D01*
X00045649Y00160852D01*
X00045612Y00160982D01*
X00045584Y00161093D01*
X00045557Y00161203D01*
X00045529Y00161296D01*
X0004551Y00161379D01*
X00045483Y00161444D01*
X00045464Y00161509D01*
X00045455Y00161555D01*
X00045427Y00161629D01*
X00045418Y00161675D01*
X00045409Y00161684D01*
X00045353Y00161823D01*
X00045289Y00161943D01*
X00045224Y00162045D01*
X00045168Y00162119D01*
X00045113Y00162184D01*
X00045076Y00162221D01*
X00045048Y00162248D01*
X00045039Y00162257D01*
X00044956Y00162322D01*
X00044863Y00162369D01*
X00044771Y00162396D01*
X00044697Y00162424D01*
X00044623Y00162433D01*
X00044567Y00162442D01*
X00044521D01*
X00044512D01*
X00044401Y00162433D01*
X00044299Y00162415D01*
X00044207Y00162387D01*
X00044133Y0016235D01*
X00044059Y00162313D01*
X00044013Y00162285D01*
X00043976Y00162267D01*
X00043966Y00162257D01*
X00043874Y00162184D01*
X000438Y00162091D01*
X00043735Y00161999D01*
X00043671Y00161915D01*
X00043633Y00161832D01*
X00043597Y00161768D01*
X00043578Y00161721D01*
X00043569Y00161703D01*
X00043523Y00161564D01*
X00043486Y00161416D01*
X00043467Y00161268D01*
X00043449Y00161139D01*
X00043439Y00161028D01*
X0004343Y00160935D01*
Y00160852D01*
X00043439Y00160649D01*
X00043458Y00160464D01*
X00043486Y00160298D01*
X00043523Y00160149D01*
X0004356Y00160029D01*
X00043587Y00159937D01*
X00043597Y00159909D01*
X00043606Y00159881D01*
X00043615Y00159872D01*
Y00159863D01*
X00043689Y00159715D01*
X00043772Y00159576D01*
X00043855Y00159475D01*
X00043939Y00159382D01*
X00044003Y00159308D01*
X00044068Y00159262D01*
X00044105Y00159234D01*
X00044114Y00159225D01*
X00044234Y0015916D01*
X00044364Y00159095D01*
X00044503Y00159059D01*
X00044623Y00159022D01*
X00044743Y00158994D01*
X00044826Y00158975D01*
X00044863D01*
X00044891Y00158966D01*
X000449D01*
X00044909D01*
X00044836Y00158171D01*
X00044604Y00158189D01*
X00044382Y00158226D01*
X00044188Y00158282D01*
X00044013Y00158347D01*
X00043874Y00158411D01*
X00043818Y00158439D01*
X00043772Y00158458D01*
X00043735Y00158485D01*
X00043707Y00158495D01*
X00043689Y00158513D01*
X0004368D01*
X00043504Y00158652D01*
X00043347Y001588D01*
X00043218Y00158957D01*
X00043106Y00159105D01*
X00043023Y00159234D01*
X00042968Y00159345D01*
X00042949Y00159382D01*
X00042931Y0015941D01*
X00042922Y00159428D01*
Y00159438D01*
X00042838Y00159669D01*
X00042774Y00159909D01*
X00042737Y00160149D01*
X000427Y00160381D01*
X00042691Y00160492D01*
X00042681Y00160584D01*
Y00160667D01*
X00042672Y00160741D01*
Y00160889D01*
X00042681Y00161139D01*
X00042709Y0016137D01*
X00042755Y00161583D01*
X00042801Y00161758D01*
X00042838Y00161906D01*
X00042866Y00161971D01*
X00042885Y00162026D01*
X00042903Y00162063D01*
X00042912Y00162091D01*
X00042922Y0016211D01*
Y00162119D01*
X00043023Y00162313D01*
X00043134Y00162479D01*
X00043254Y00162627D01*
X00043365Y00162748D01*
X00043458Y0016284D01*
X00043541Y00162905D01*
X00043597Y00162951D01*
X00043606Y0016296D01*
X00043615D01*
X00043791Y00163062D01*
X00043957Y00163136D01*
X00044114Y00163182D01*
X00044262Y00163219D01*
X00044392Y00163238D01*
X00044493Y00163256D01*
X0004453D01*
X00044558D01*
X00044567D01*
X00044577D01*
X00044762Y00163247D01*
D02*
G37*
G36*
X00043541Y00153354D02*
X00045714D01*
Y00156895D01*
X00046472D01*
Y00153354D01*
X00048423D01*
Y00157135D01*
X00049181D01*
Y00152503D01*
X00042783D01*
Y00157283D01*
X00043541D01*
Y00153354D01*
D02*
G37*
G36*
X00044521Y00150571D02*
X00044706Y00150442D01*
X00044872Y00150322D01*
X00045011Y00150201D01*
X00045141Y001501D01*
X00045233Y00150007D01*
X00045307Y00149933D01*
X00045353Y00149887D01*
X00045372Y00149868D01*
X00045427Y00149795D01*
X00045492Y00149711D01*
X00045594Y00149545D01*
X00045631Y00149471D01*
X00045668Y00149415D01*
X00045686Y00149378D01*
X00045695Y0014936D01*
X00045723Y00149526D01*
X00045751Y00149684D01*
X00045797Y00149822D01*
X00045834Y00149961D01*
X0004588Y00150081D01*
X00045936Y00150192D01*
X00045982Y00150294D01*
X00046028Y00150386D01*
X00046084Y0015046D01*
X0004613Y00150534D01*
X00046167Y0015059D01*
X00046204Y00150636D01*
X00046232Y00150673D01*
X00046259Y00150701D01*
X00046269Y0015071D01*
X00046278Y00150719D01*
X0004637Y00150793D01*
X00046463Y00150867D01*
X00046657Y00150978D01*
X00046851Y00151052D01*
X00047036Y00151107D01*
X00047193Y00151144D01*
X00047258Y00151154D01*
X00047323D01*
X00047369Y00151163D01*
X00047406D01*
X00047424D01*
X00047434D01*
X00047628Y00151154D01*
X00047803Y00151126D01*
X0004797Y0015108D01*
X00048108Y00151033D01*
X00048229Y00150978D01*
X00048321Y00150941D01*
X00048376Y00150904D01*
X00048386Y00150895D01*
X00048395D01*
X00048543Y00150784D01*
X00048672Y00150673D01*
X00048783Y00150553D01*
X00048867Y00150442D01*
X00048931Y0015034D01*
X00048968Y00150257D01*
X00048996Y00150201D01*
X00049005Y00150192D01*
Y00150183D01*
X00049033Y001501D01*
X00049061Y00149998D01*
X00049107Y00149795D01*
X00049135Y00149573D01*
X00049162Y00149369D01*
X00049172Y00149175D01*
Y00149092D01*
X00049181Y00149018D01*
Y0014605D01*
X00042783D01*
Y00146901D01*
X00045621D01*
Y00147992D01*
X00045612Y00148093D01*
Y00148167D01*
X00045603Y00148232D01*
X00045594Y00148278D01*
Y00148315D01*
X00045584Y00148334D01*
Y00148343D01*
X00045538Y00148491D01*
X0004551Y00148556D01*
X00045483Y00148611D01*
X00045455Y00148666D01*
X00045436Y00148703D01*
X00045427Y00148722D01*
X00045418Y00148731D01*
X00045363Y00148805D01*
X00045298Y00148879D01*
X00045159Y00149018D01*
X00045094Y00149083D01*
X00045039Y00149129D01*
X00045002Y00149157D01*
X00044993Y00149166D01*
X00044863Y00149258D01*
X00044724Y0014936D01*
X00044577Y00149462D01*
X00044438Y00149563D01*
X00044309Y00149647D01*
X00044207Y00149711D01*
X0004417Y00149739D01*
X00044142Y00149757D01*
X00044124Y00149776D01*
X00044114D01*
X00042783Y00150617D01*
Y00151671D01*
X00044521Y00150571D01*
D02*
G37*
G36*
X00032191Y00160913D02*
X00032394Y00160876D01*
X0003257Y0016082D01*
X00032718Y00160765D01*
X00032838Y00160709D01*
X00032931Y00160654D01*
X00032986Y00160617D01*
X00033005Y00160607D01*
X00033143Y00160478D01*
X00033263Y00160339D01*
X00033356Y00160191D01*
X0003343Y00160044D01*
X00033485Y00159914D01*
X00033522Y00159812D01*
X00033532Y00159775D01*
X00033541Y00159748D01*
X0003355Y00159729D01*
Y0015972D01*
X00033633Y00159877D01*
X00033716Y00160007D01*
X00033809Y00160117D01*
X00033892Y0016021D01*
X00033966Y00160284D01*
X00034031Y00160339D01*
X00034068Y00160367D01*
X00034086Y00160376D01*
X00034216Y0016045D01*
X00034345Y00160506D01*
X00034475Y00160552D01*
X00034595Y0016058D01*
X00034697Y00160598D01*
X00034771Y00160607D01*
X00034826D01*
X00034844D01*
X00035002Y00160598D01*
X00035159Y00160571D01*
X00035298Y00160534D01*
X00035418Y00160487D01*
X00035519Y00160441D01*
X00035603Y00160404D01*
X00035649Y00160376D01*
X00035667Y00160367D01*
X00035806Y00160275D01*
X00035926Y00160164D01*
X00036028Y00160053D01*
X0003612Y00159942D01*
X00036185Y00159849D01*
X0003624Y00159766D01*
X00036268Y00159711D01*
X00036277Y00159701D01*
Y00159692D01*
X00036351Y00159526D01*
X00036407Y00159359D01*
X00036453Y00159193D01*
X00036481Y00159045D01*
X00036499Y00158925D01*
X00036509Y00158823D01*
Y00158592D01*
X0003649Y00158462D01*
X00036444Y00158213D01*
X0003637Y00158D01*
X00036296Y00157815D01*
X0003625Y00157732D01*
X00036213Y00157667D01*
X00036176Y00157603D01*
X00036139Y00157556D01*
X00036111Y00157519D01*
X00036093Y00157492D01*
X00036083Y00157473D01*
X00036074Y00157464D01*
X00035898Y00157288D01*
X00035704Y0015715D01*
X00035501Y00157039D01*
X00035298Y00156946D01*
X00035122Y00156891D01*
X00035048Y00156863D01*
X00034983Y00156845D01*
X00034928Y00156835D01*
X00034891Y00156826D01*
X00034863Y00156817D01*
X00034854D01*
X00034715Y00157603D01*
X00034918Y0015764D01*
X00035094Y00157695D01*
X00035242Y0015776D01*
X00035362Y00157824D01*
X00035455Y00157889D01*
X00035519Y00157945D01*
X00035566Y00157982D01*
X00035575Y00157991D01*
X00035667Y00158111D01*
X00035741Y00158241D01*
X00035787Y00158361D01*
X00035824Y00158481D01*
X00035843Y00158592D01*
X00035861Y00158675D01*
Y00158749D01*
X00035852Y00158916D01*
X00035815Y00159063D01*
X00035769Y00159193D01*
X00035723Y00159304D01*
X00035667Y00159387D01*
X00035621Y00159452D01*
X00035584Y00159498D01*
X00035575Y00159507D01*
X00035464Y00159609D01*
X00035344Y00159683D01*
X00035224Y00159729D01*
X00035113Y00159766D01*
X00035011Y00159785D01*
X00034937Y00159803D01*
X00034881D01*
X00034872D01*
X00034863D01*
X00034761D01*
X00034669Y00159785D01*
X00034512Y00159738D01*
X00034373Y00159674D01*
X00034253Y001596D01*
X00034169Y00159526D01*
X00034105Y00159461D01*
X00034068Y00159415D01*
X00034059Y00159405D01*
Y00159396D01*
X00033975Y00159239D01*
X00033911Y00159091D01*
X00033864Y00158934D01*
X00033837Y00158795D01*
X00033818Y00158675D01*
X000338Y00158573D01*
Y00158453D01*
X00033809Y00158416D01*
Y0015837D01*
X00033115Y00158278D01*
X00033143Y00158398D01*
X00033162Y00158509D01*
X0003318Y00158601D01*
X00033189Y00158684D01*
X00033199Y00158749D01*
Y00158832D01*
X0003318Y00159026D01*
X00033143Y00159202D01*
X00033088Y00159359D01*
X00033023Y00159489D01*
X00032958Y0015959D01*
X00032903Y00159664D01*
X00032866Y00159711D01*
X00032847Y00159729D01*
X00032709Y00159849D01*
X00032561Y00159942D01*
X00032413Y00160007D01*
X00032265Y00160044D01*
X00032145Y00160071D01*
X00032043Y00160081D01*
X00032006Y0016009D01*
X00031978D01*
X0003196D01*
X00031951D01*
X00031747Y00160071D01*
X00031562Y00160025D01*
X00031405Y0015997D01*
X00031266Y00159895D01*
X00031155Y00159822D01*
X00031072Y00159766D01*
X00031017Y0015972D01*
X00030998Y00159701D01*
X00030869Y00159553D01*
X00030776Y00159396D01*
X00030712Y00159239D01*
X00030665Y00159091D01*
X00030638Y00158962D01*
X00030628Y0015886D01*
X00030619Y00158823D01*
Y00158768D01*
X00030628Y00158601D01*
X00030665Y00158444D01*
X00030712Y00158305D01*
X00030767Y00158194D01*
X00030813Y00158102D01*
X0003086Y00158028D01*
X00030897Y00157991D01*
X00030906Y00157972D01*
X00031035Y00157861D01*
X00031183Y00157769D01*
X0003134Y00157686D01*
X00031507Y00157621D01*
X00031646Y00157575D01*
X0003171Y00157556D01*
X00031766Y00157547D01*
X00031812Y00157538D01*
X00031849Y00157529D01*
X00031867Y00157519D01*
X00031877D01*
X00031775Y00156734D01*
X00031627Y00156752D01*
X00031488Y0015678D01*
X00031229Y00156863D01*
X00031007Y00156965D01*
X00030915Y0015702D01*
X00030823Y00157076D01*
X00030739Y00157131D01*
X00030675Y00157187D01*
X0003061Y00157233D01*
X00030564Y00157279D01*
X00030527Y00157307D01*
X00030499Y00157334D01*
X0003048Y00157353D01*
X00030471Y00157362D01*
X00030388Y00157473D01*
X00030305Y00157584D01*
X0003024Y00157695D01*
X00030185Y00157815D01*
X00030092Y00158046D01*
X00030037Y00158268D01*
X00030018Y0015837D01*
X0003Y00158462D01*
X0002999Y00158546D01*
X00029981Y0015862D01*
X00029972Y00158675D01*
Y00158758D01*
X00029981Y00158934D01*
X0003Y00159091D01*
X00030027Y00159248D01*
X00030064Y00159396D01*
X00030111Y00159535D01*
X00030157Y00159655D01*
X00030212Y00159775D01*
X00030268Y00159877D01*
X00030314Y00159979D01*
X0003037Y00160062D01*
X00030416Y00160136D01*
X00030462Y00160191D01*
X00030499Y00160238D01*
X00030527Y00160275D01*
X00030545Y00160293D01*
X00030554Y00160302D01*
X00030665Y00160413D01*
X00030786Y00160506D01*
X00030906Y00160589D01*
X00031026Y00160663D01*
X00031137Y00160718D01*
X00031257Y00160774D01*
X00031479Y00160848D01*
X00031581Y00160866D01*
X00031673Y00160885D01*
X00031756Y00160903D01*
X0003183Y00160913D01*
X00031886Y00160922D01*
X00031932D01*
X0003196D01*
X00031969D01*
X00032191Y00160913D01*
D02*
G37*
G36*
X00036481Y00155421D02*
X0003183Y00153682D01*
X00031636Y00153609D01*
X00031451Y00153544D01*
X00031276Y00153488D01*
X00031119Y00153442D01*
X0003098Y00153396D01*
X00030878Y00153368D01*
X00030841Y00153359D01*
X00030813Y0015335D01*
X00030795Y0015334D01*
X00030786D01*
X00031155Y0015323D01*
X00031331Y00153174D01*
X00031488Y00153118D01*
X00031627Y00153072D01*
X00031682Y00153054D01*
X00031738Y00153045D01*
X00031775Y00153026D01*
X00031803Y00153017D01*
X00031821Y00153008D01*
X0003183D01*
X00036481Y00151343D01*
Y00150419D01*
X00030083Y00152897D01*
Y00153784D01*
X00036481Y0015628D01*
Y00155421D01*
D02*
G37*
G36*
X00032191Y00149975D02*
X00032394Y00149938D01*
X0003257Y00149883D01*
X00032718Y00149827D01*
X00032838Y00149772D01*
X00032931Y00149716D01*
X00032986Y00149679D01*
X00033005Y0014967D01*
X00033143Y00149541D01*
X00033263Y00149402D01*
X00033356Y00149254D01*
X0003343Y00149106D01*
X00033485Y00148976D01*
X00033522Y00148875D01*
X00033532Y00148838D01*
X00033541Y0014881D01*
X0003355Y00148792D01*
Y00148782D01*
X00033633Y0014894D01*
X00033716Y00149069D01*
X00033809Y0014918D01*
X00033892Y00149272D01*
X00033966Y00149346D01*
X00034031Y00149402D01*
X00034068Y0014943D01*
X00034086Y00149439D01*
X00034216Y00149513D01*
X00034345Y00149568D01*
X00034475Y00149614D01*
X00034595Y00149642D01*
X00034697Y00149661D01*
X00034771Y0014967D01*
X00034826D01*
X00034844D01*
X00035002Y00149661D01*
X00035159Y00149633D01*
X00035298Y00149596D01*
X00035418Y0014955D01*
X00035519Y00149503D01*
X00035603Y00149466D01*
X00035649Y00149439D01*
X00035667Y0014943D01*
X00035806Y00149337D01*
X00035926Y00149226D01*
X00036028Y00149115D01*
X0003612Y00149004D01*
X00036185Y00148912D01*
X0003624Y00148829D01*
X00036268Y00148773D01*
X00036277Y00148764D01*
Y00148755D01*
X00036351Y00148588D01*
X00036407Y00148422D01*
X00036453Y00148255D01*
X00036481Y00148107D01*
X00036499Y00147987D01*
X00036509Y00147886D01*
Y00147654D01*
X0003649Y00147525D01*
X00036444Y00147275D01*
X0003637Y00147063D01*
X00036296Y00146878D01*
X0003625Y00146795D01*
X00036213Y0014673D01*
X00036176Y00146665D01*
X00036139Y00146619D01*
X00036111Y00146582D01*
X00036093Y00146554D01*
X00036083Y00146536D01*
X00036074Y00146526D01*
X00035898Y00146351D01*
X00035704Y00146212D01*
X00035501Y00146101D01*
X00035298Y00146009D01*
X00035122Y00145953D01*
X00035048Y00145925D01*
X00034983Y00145907D01*
X00034928Y00145898D01*
X00034891Y00145889D01*
X00034863Y00145879D01*
X00034854D01*
X00034715Y00146665D01*
X00034918Y00146702D01*
X00035094Y00146757D01*
X00035242Y00146822D01*
X00035362Y00146887D01*
X00035455Y00146952D01*
X00035519Y00147007D01*
X00035566Y00147044D01*
X00035575Y00147053D01*
X00035667Y00147174D01*
X00035741Y00147303D01*
X00035787Y00147423D01*
X00035824Y00147543D01*
X00035843Y00147654D01*
X00035861Y00147738D01*
Y00147811D01*
X00035852Y00147978D01*
X00035815Y00148126D01*
X00035769Y00148255D01*
X00035723Y00148366D01*
X00035667Y00148449D01*
X00035621Y00148514D01*
X00035584Y0014856D01*
X00035575Y0014857D01*
X00035464Y00148671D01*
X00035344Y00148745D01*
X00035224Y00148792D01*
X00035113Y00148829D01*
X00035011Y00148847D01*
X00034937Y00148865D01*
X00034881D01*
X00034872D01*
X00034863D01*
X00034761D01*
X00034669Y00148847D01*
X00034512Y00148801D01*
X00034373Y00148736D01*
X00034253Y00148662D01*
X00034169Y00148588D01*
X00034105Y00148524D01*
X00034068Y00148477D01*
X00034059Y00148468D01*
Y00148459D01*
X00033975Y00148302D01*
X00033911Y00148154D01*
X00033864Y00147997D01*
X00033837Y00147858D01*
X00033818Y00147738D01*
X000338Y00147636D01*
Y00147516D01*
X00033809Y00147479D01*
Y00147432D01*
X00033115Y0014734D01*
X00033143Y0014746D01*
X00033162Y00147571D01*
X0003318Y00147664D01*
X00033189Y00147747D01*
X00033199Y00147811D01*
Y00147895D01*
X0003318Y00148089D01*
X00033143Y00148265D01*
X00033088Y00148422D01*
X00033023Y00148551D01*
X00032958Y00148653D01*
X00032903Y00148727D01*
X00032866Y00148773D01*
X00032847Y00148792D01*
X00032709Y00148912D01*
X00032561Y00149004D01*
X00032413Y00149069D01*
X00032265Y00149106D01*
X00032145Y00149134D01*
X00032043Y00149143D01*
X00032006Y00149152D01*
X00031978D01*
X0003196D01*
X00031951D01*
X00031747Y00149134D01*
X00031562Y00149087D01*
X00031405Y00149032D01*
X00031266Y00148958D01*
X00031155Y00148884D01*
X00031072Y00148829D01*
X00031017Y00148782D01*
X00030998Y00148764D01*
X00030869Y00148616D01*
X00030776Y00148459D01*
X00030712Y00148302D01*
X00030665Y00148154D01*
X00030638Y00148024D01*
X00030628Y00147922D01*
X00030619Y00147886D01*
Y0014783D01*
X00030628Y00147664D01*
X00030665Y00147506D01*
X00030712Y00147368D01*
X00030767Y00147257D01*
X00030813Y00147164D01*
X0003086Y0014709D01*
X00030897Y00147053D01*
X00030906Y00147035D01*
X00031035Y00146924D01*
X00031183Y00146832D01*
X0003134Y00146748D01*
X00031507Y00146684D01*
X00031646Y00146637D01*
X0003171Y00146619D01*
X00031766Y0014661D01*
X00031812Y001466D01*
X00031849Y00146591D01*
X00031867Y00146582D01*
X00031877D01*
X00031775Y00145796D01*
X00031627Y00145815D01*
X00031488Y00145842D01*
X00031229Y00145925D01*
X00031007Y00146027D01*
X00030915Y00146083D01*
X00030823Y00146138D01*
X00030739Y00146194D01*
X00030675Y00146249D01*
X0003061Y00146295D01*
X00030564Y00146341D01*
X00030527Y00146369D01*
X00030499Y00146397D01*
X0003048Y00146416D01*
X00030471Y00146425D01*
X00030388Y00146536D01*
X00030305Y00146647D01*
X0003024Y00146757D01*
X00030185Y00146878D01*
X00030092Y00147109D01*
X00030037Y00147331D01*
X00030018Y00147432D01*
X0003Y00147525D01*
X0002999Y00147608D01*
X00029981Y00147682D01*
X00029972Y00147738D01*
Y00147821D01*
X00029981Y00147997D01*
X0003Y00148154D01*
X00030027Y00148311D01*
X00030064Y00148459D01*
X00030111Y00148597D01*
X00030157Y00148718D01*
X00030212Y00148838D01*
X00030268Y0014894D01*
X00030314Y00149041D01*
X0003037Y00149124D01*
X00030416Y00149198D01*
X00030462Y00149254D01*
X00030499Y001493D01*
X00030527Y00149337D01*
X00030545Y00149356D01*
X00030554Y00149365D01*
X00030665Y00149476D01*
X00030786Y00149568D01*
X00030906Y00149651D01*
X00031026Y00149725D01*
X00031137Y00149781D01*
X00031257Y00149836D01*
X00031479Y0014991D01*
X00031581Y00149929D01*
X00031673Y00149947D01*
X00031756Y00149966D01*
X0003183Y00149975D01*
X00031886Y00149984D01*
X00031932D01*
X0003196D01*
X00031969D01*
X00032191Y00149975D01*
D02*
G37*
G36*
X00018828Y00005933D02*
X00020936D01*
Y00005175D01*
X00015869D01*
Y00005933D01*
X00017977D01*
Y00011573D01*
X00018828D01*
Y00005933D01*
D02*
G37*
G36*
X-00000893Y00011564D02*
X-00000699Y00011555D01*
X-00000523Y00011536D01*
X-00000375Y00011518D01*
X-00000255Y00011499D01*
X-00000163Y0001149D01*
X-00000107Y00011471D01*
X-00000089D01*
X00000068Y00011425D01*
X00000198Y00011379D01*
X00000318Y00011323D01*
X0000042Y00011268D01*
X00000503Y00011231D01*
X00000567Y00011194D01*
X00000604Y00011166D01*
X00000614Y00011157D01*
X00000715Y00011074D01*
X00000808Y00010972D01*
X00000882Y0001087D01*
X00000956Y00010778D01*
X00001011Y00010685D01*
X00001048Y00010621D01*
X00001076Y00010575D01*
X00001085Y00010556D01*
X0000115Y00010408D01*
X00001196Y0001026D01*
X00001233Y00010122D01*
X00001252Y00009992D01*
X0000127Y00009881D01*
X00001279Y00009789D01*
Y00009733D01*
Y00009724D01*
Y00009715D01*
X0000127Y00009511D01*
X00001233Y00009326D01*
X00001178Y00009169D01*
X00001122Y00009021D01*
X00001067Y0000891D01*
X00001011Y00008827D01*
X00000974Y00008772D01*
X00000965Y00008753D01*
X00000836Y00008605D01*
X00000697Y00008485D01*
X0000054Y00008383D01*
X00000401Y000083D01*
X00000272Y00008235D01*
X00000161Y00008198D01*
X00000124Y0000818D01*
X00000096Y00008171D01*
X00000077Y00008161D01*
X00000068D01*
X00000225Y00008069D01*
X00000364Y00007976D01*
X00000475Y00007875D01*
X00000567Y00007782D01*
X00000641Y00007708D01*
X00000697Y00007634D01*
X00000725Y00007597D01*
X00000734Y00007579D01*
X00000808Y0000744D01*
X00000863Y00007311D01*
X0000091Y00007181D01*
X00000937Y00007061D01*
X00000956Y00006959D01*
X00000965Y00006876D01*
Y0000683D01*
Y00006812D01*
X00000956Y00006654D01*
X00000928Y00006497D01*
X00000882Y00006359D01*
X00000836Y00006229D01*
X00000789Y00006118D01*
X00000743Y00006044D01*
X00000715Y00005989D01*
X00000706Y0000597D01*
X00000604Y00005832D01*
X00000494Y00005702D01*
X00000373Y000056D01*
X00000262Y00005517D01*
X0000017Y00005452D01*
X00000087Y00005406D01*
X00000031Y00005379D01*
X00000022Y00005369D01*
X00000013D01*
X-00000163Y00005304D01*
X-00000357Y00005258D01*
X-00000551Y00005221D01*
X-00000736Y00005203D01*
X-00000903Y00005184D01*
X-00000976D01*
X-00001041Y00005175D01*
X-00003556D01*
Y00011573D01*
X-00001115D01*
X-00000893Y00011564D01*
D02*
G37*
G36*
X00012504Y00011666D02*
X0001279Y00011619D01*
X00013058Y00011564D01*
X00013178Y00011527D01*
X0001329Y0001149D01*
X00013391Y00011453D01*
X00013484Y00011416D01*
X00013558Y00011388D01*
X00013622Y0001136D01*
X00013678Y00011333D01*
X00013724Y00011314D01*
X00013743Y00011296D01*
X00013752D01*
X00014011Y00011129D01*
X00014232Y00010944D01*
X00014417Y0001075D01*
X00014575Y00010565D01*
X00014704Y0001039D01*
X0001475Y00010325D01*
X00014787Y0001026D01*
X00014824Y00010205D01*
X00014843Y00010168D01*
X00014861Y0001014D01*
Y00010131D01*
X00014935Y00009983D01*
X00014991Y00009835D01*
X00015092Y00009539D01*
X00015166Y00009243D01*
X00015213Y00008975D01*
X00015222Y00008855D01*
X0001524Y00008744D01*
X0001525Y00008642D01*
Y00008559D01*
X00015259Y00008485D01*
Y00008439D01*
Y00008402D01*
Y00008393D01*
X0001524Y00008041D01*
X00015203Y00007718D01*
X00015176Y0000757D01*
X00015139Y00007422D01*
X00015102Y00007292D01*
X00015074Y00007172D01*
X00015037Y00007061D01*
X00015Y00006959D01*
X00014972Y00006876D01*
X00014935Y00006802D01*
X00014917Y00006747D01*
X00014898Y0000671D01*
X0001488Y00006682D01*
Y00006673D01*
X00014732Y00006405D01*
X00014556Y00006164D01*
X00014371Y00005961D01*
X00014205Y00005795D01*
X00014048Y00005665D01*
X00013974Y0000561D01*
X00013918Y00005563D01*
X00013863Y00005536D01*
X00013826Y00005508D01*
X00013807Y00005499D01*
X00013798Y00005489D01*
X00013659Y00005415D01*
X00013521Y00005351D01*
X00013253Y0000524D01*
X00012975Y00005166D01*
X00012735Y0000512D01*
X00012624Y00005101D01*
X00012513Y00005083D01*
X0001243Y00005073D01*
X00012346D01*
X00012282Y00005064D01*
X00012198D01*
X00011949Y00005073D01*
X00011718Y00005101D01*
X00011496Y00005147D01*
X00011283Y00005203D01*
X00011089Y00005277D01*
X00010904Y00005351D01*
X00010738Y00005434D01*
X0001059Y00005517D01*
X00010451Y000056D01*
X00010331Y00005684D01*
X00010229Y00005758D01*
X00010146Y00005832D01*
X00010081Y00005887D01*
X00010026Y00005933D01*
X00009998Y00005961D01*
X00009989Y0000597D01*
X00009841Y00006146D01*
X00009711Y00006331D01*
X00009591Y00006534D01*
X00009499Y00006738D01*
X00009416Y0000695D01*
X00009342Y00007154D01*
X00009286Y00007357D01*
X00009249Y00007551D01*
X00009212Y00007736D01*
X00009184Y00007912D01*
X00009166Y00008069D01*
X00009147Y00008198D01*
Y00008309D01*
X00009138Y00008393D01*
Y00008448D01*
Y00008457D01*
Y00008467D01*
X00009157Y00008781D01*
X00009194Y00009068D01*
X00009249Y00009345D01*
X00009286Y00009465D01*
X00009323Y00009585D01*
X00009351Y00009687D01*
X00009388Y00009779D01*
X00009416Y00009863D01*
X00009443Y00009937D01*
X00009462Y00009992D01*
X0000948Y00010029D01*
X00009499Y00010057D01*
Y00010066D01*
X00009656Y00010334D01*
X00009822Y00010565D01*
X00010007Y00010769D01*
X00010183Y00010935D01*
X0001034Y00011074D01*
X00010405Y00011129D01*
X0001046Y00011166D01*
X00010516Y00011203D01*
X00010553Y00011231D01*
X00010571Y0001124D01*
X00010581Y0001125D01*
X00010719Y00011323D01*
X00010858Y00011388D01*
X00011135Y00011499D01*
X00011403Y00011573D01*
X00011653Y00011629D01*
X00011773Y00011647D01*
X00011875Y00011656D01*
X00011967Y00011675D01*
X00012051D01*
X00012106Y00011684D01*
X00012198D01*
X00012504Y00011666D01*
D02*
G37*
G36*
X00005551D02*
X00005838Y00011619D01*
X00006106Y00011564D01*
X00006226Y00011527D01*
X00006337Y0001149D01*
X00006439Y00011453D01*
X00006531Y00011416D01*
X00006605Y00011388D01*
X0000667Y0001136D01*
X00006725Y00011333D01*
X00006771Y00011314D01*
X0000679Y00011296D01*
X00006799D01*
X00007058Y00011129D01*
X0000728Y00010944D01*
X00007465Y0001075D01*
X00007622Y00010565D01*
X00007751Y0001039D01*
X00007798Y00010325D01*
X00007835Y0001026D01*
X00007872Y00010205D01*
X0000789Y00010168D01*
X00007908Y0001014D01*
Y00010131D01*
X00007983Y00009983D01*
X00008038Y00009835D01*
X0000814Y00009539D01*
X00008214Y00009243D01*
X0000826Y00008975D01*
X00008269Y00008855D01*
X00008288Y00008744D01*
X00008297Y00008642D01*
Y00008559D01*
X00008306Y00008485D01*
Y00008439D01*
Y00008402D01*
Y00008393D01*
X00008288Y00008041D01*
X00008251Y00007718D01*
X00008223Y0000757D01*
X00008186Y00007422D01*
X00008149Y00007292D01*
X00008121Y00007172D01*
X00008084Y00007061D01*
X00008047Y00006959D01*
X00008019Y00006876D01*
X00007983Y00006802D01*
X00007964Y00006747D01*
X00007946Y0000671D01*
X00007927Y00006682D01*
Y00006673D01*
X00007779Y00006405D01*
X00007603Y00006164D01*
X00007419Y00005961D01*
X00007252Y00005795D01*
X00007095Y00005665D01*
X00007021Y0000561D01*
X00006966Y00005563D01*
X0000691Y00005536D01*
X00006873Y00005508D01*
X00006855Y00005499D01*
X00006845Y00005489D01*
X00006707Y00005415D01*
X00006568Y00005351D01*
X000063Y0000524D01*
X00006022Y00005166D01*
X00005782Y0000512D01*
X00005671Y00005101D01*
X0000556Y00005083D01*
X00005477Y00005073D01*
X00005394D01*
X00005329Y00005064D01*
X00005246D01*
X00004996Y00005073D01*
X00004765Y00005101D01*
X00004543Y00005147D01*
X00004331Y00005203D01*
X00004136Y00005277D01*
X00003951Y00005351D01*
X00003785Y00005434D01*
X00003637Y00005517D01*
X00003498Y000056D01*
X00003378Y00005684D01*
X00003277Y00005758D01*
X00003193Y00005832D01*
X00003129Y00005887D01*
X00003073Y00005933D01*
X00003045Y00005961D01*
X00003036Y0000597D01*
X00002888Y00006146D01*
X00002759Y00006331D01*
X00002639Y00006534D01*
X00002546Y00006738D01*
X00002463Y0000695D01*
X00002389Y00007154D01*
X00002333Y00007357D01*
X00002297Y00007551D01*
X0000226Y00007736D01*
X00002232Y00007912D01*
X00002213Y00008069D01*
X00002195Y00008198D01*
Y00008309D01*
X00002185Y00008393D01*
Y00008448D01*
Y00008457D01*
Y00008467D01*
X00002204Y00008781D01*
X00002241Y00009068D01*
X00002297Y00009345D01*
X00002333Y00009465D01*
X0000237Y00009585D01*
X00002398Y00009687D01*
X00002435Y00009779D01*
X00002463Y00009863D01*
X00002491Y00009937D01*
X00002509Y00009992D01*
X00002528Y00010029D01*
X00002546Y00010057D01*
Y00010066D01*
X00002703Y00010334D01*
X0000287Y00010565D01*
X00003055Y00010769D01*
X0000323Y00010935D01*
X00003387Y00011074D01*
X00003452Y00011129D01*
X00003508Y00011166D01*
X00003563Y00011203D01*
X000036Y00011231D01*
X00003619Y0001124D01*
X00003628Y0001125D01*
X00003767Y00011323D01*
X00003905Y00011388D01*
X00004183Y00011499D01*
X00004451Y00011573D01*
X000047Y00011629D01*
X00004821Y00011647D01*
X00004922Y00011656D01*
X00005015Y00011675D01*
X00005098D01*
X00005153Y00011684D01*
X00005246D01*
X00005551Y00011666D01*
D02*
G37*
%LPC*%
G36*
X00114888Y00264182D02*
X00114716Y00264157D01*
X00114618Y00263911D01*
X00114569Y00263715D01*
X00114495Y00263445D01*
X00114372Y00263027D01*
X00114298Y00262708D01*
X00114225Y00262438D01*
X00114127Y00262045D01*
X0011393Y00261357D01*
X00113832Y00260964D01*
X00113439Y00259687D01*
X0011339Y00259491D01*
X00113316Y00259172D01*
X00113193Y00258754D01*
X0011312Y00258386D01*
X00112997Y00258066D01*
X0011307Y00257845D01*
X00113267Y00257796D01*
X00115968Y00257845D01*
X00116411Y00257894D01*
X00116484Y00258116D01*
X00116411Y00258386D01*
X00116312Y00258779D01*
X00116263Y00259024D01*
X00116214Y00259221D01*
X00116091Y00259638D01*
X00116042Y00259835D01*
Y00259884D01*
X00115895Y00260375D01*
X00115747Y00260964D01*
X00115674Y00261284D01*
X00115526Y00261873D01*
X00115477Y00262119D01*
X00115379Y00262364D01*
X00115305Y00262634D01*
X00115183Y0026315D01*
X0011506Y00263469D01*
X00114986Y00263936D01*
X00114888Y00264182D01*
D02*
G37*
G36*
X00116853Y00255684D02*
X00115919Y00255635D01*
X00114102Y00255684D01*
X0011253Y00255635D01*
X00112457Y00255561D01*
X00112358Y00255316D01*
X00112211Y00254825D01*
X00112088Y00254505D01*
X00111941Y00253965D01*
X00111818Y00253547D01*
X00111769Y00253351D01*
X00111695Y00253032D01*
X00111548Y00252442D01*
X00111425Y00252025D01*
X0011113Y00250993D01*
X00111032Y002506D01*
X00110909Y00250085D01*
X00110836Y00249815D01*
X00110737Y00249422D01*
X00110885Y00249176D01*
X00111057Y00249102D01*
X00111204Y00249151D01*
X00113684Y00249127D01*
X00117172Y00249176D01*
X00118277Y00249201D01*
X00118424Y00249151D01*
X00118596Y00249274D01*
X00118645Y00249471D01*
X00118596Y00249667D01*
X00118523Y00249937D01*
X00118449Y00250158D01*
X00118351Y00250551D01*
X00118203Y00251042D01*
X00118154Y00251239D01*
X00118081Y00251558D01*
X00117933Y00252148D01*
X00117859Y00252418D01*
X0011781Y00252614D01*
X00117712Y00252958D01*
X00117614Y00253351D01*
Y002534D01*
X00117589Y00253425D01*
X00117466Y00253744D01*
X00117417Y00253941D01*
X00117344Y0025426D01*
X00117295Y00254456D01*
X00117172Y00254874D01*
X00117049Y00255439D01*
X00116926Y00255611D01*
X00116853Y00255684D01*
D02*
G37*
G36*
X00090427Y00262217D02*
X00090009Y00262192D01*
X00089936Y00262217D01*
X00089788Y00262168D01*
X0008915Y00262217D01*
X00088118Y00262168D01*
X00087971Y00262119D01*
X00087775Y0026207D01*
X00087382Y0026202D01*
X00087038Y00261824D01*
X00086792Y00261677D01*
X00086375Y00261259D01*
X00086178Y00260768D01*
X0008608Y00260375D01*
X00086055Y00259761D01*
X00086154Y00259221D01*
X00086203Y00259024D01*
X00086326Y00258754D01*
X00086522Y0025841D01*
X0008689Y00258042D01*
X00087627Y00257698D01*
X00088118Y00257551D01*
X00088315Y00257502D01*
X00089445Y00257452D01*
X00089592Y00257502D01*
X00090525Y00257551D01*
X00090574Y00257649D01*
X00090599Y00257673D01*
X00090623Y00257894D01*
X00090599Y00258017D01*
X00090648Y00258066D01*
X00090599Y00258116D01*
X00090648Y00258263D01*
X00090623Y00258877D01*
X00090648Y00260277D01*
X00090599Y00260424D01*
X0009055Y00262094D01*
X00090427Y00262217D01*
D02*
G37*
G36*
X00075249Y00230929D02*
X00074783Y00230855D01*
X00074586Y00230806D01*
X00074316Y00230683D01*
X00074218Y00230634D01*
X00073874Y00230487D01*
X00073678Y00230536D01*
X00073432Y00230683D01*
X00073186Y00230781D01*
X00072843Y00230879D01*
X00072646Y00230929D01*
X00072057Y00230879D01*
X00071811Y00230781D01*
X00071173Y00230437D01*
X00070976Y00230241D01*
X00070878Y00230192D01*
X0007046Y00229283D01*
X00070411Y00229087D01*
X00070289Y00228915D01*
X0007019Y00228866D01*
X00069748Y00228522D01*
X00069576Y0022835D01*
X00069527Y00228252D01*
X00069429Y00228153D01*
X0006938Y00228055D01*
X00069183Y00227613D01*
X00069085Y00227269D01*
X00069036Y00226778D01*
X00069085Y00226434D01*
X00069134Y0022614D01*
X00069232Y00225894D01*
X00069183Y00225452D01*
X00069085Y00225206D01*
X00069036Y00224568D01*
X00069085Y00224371D01*
X0006911Y0022415D01*
X00069134Y00224126D01*
X00069183Y00223929D01*
X00069478Y00223389D01*
X00069601Y00223217D01*
X00069699Y00223168D01*
X00070043Y00222824D01*
X00070141Y00222775D01*
X00070411Y00222554D01*
X00070485Y00222235D01*
X00070583Y00221989D01*
X00070804Y00221572D01*
X00070951Y00221424D01*
X00071001Y00221326D01*
X00071173Y00221154D01*
X00071271Y00221105D01*
X00071664Y00220859D01*
X00071934Y00220786D01*
X0007213Y00220737D01*
X00072892Y00220712D01*
X00073039Y00220761D01*
X00073579Y00221007D01*
X00073825Y00221105D01*
X0007412Y00221056D01*
X00074218Y00220958D01*
X00074464Y00220859D01*
X00074807Y00220761D01*
X00075004Y00220712D01*
X00075348Y00220663D01*
X00075495Y00220712D01*
X00075814Y00220786D01*
X00076133Y00220909D01*
X00076477Y00221105D01*
X00076576Y00221203D01*
X00076674Y00221252D01*
X00076895Y00221473D01*
X00076944Y00221572D01*
X00077042Y0022167D01*
X0007719Y00222014D01*
X00077411Y00222628D01*
X00077509Y00222726D01*
X00077607Y00222775D01*
X00077877Y00222996D01*
X00077951Y0022307D01*
X00078049Y00223119D01*
X00078172Y00223291D01*
X0007827Y00223389D01*
X00078319Y00223487D01*
X00078418Y00223585D01*
X00078467Y00223684D01*
X00078614Y00224028D01*
X00078688Y00224347D01*
X00078712Y00225108D01*
X00078663Y00225255D01*
X00078565Y00225599D01*
X00078516Y00225845D01*
X00078565Y00225992D01*
X00078663Y00226336D01*
X00078712Y00226532D01*
X00078663Y00227417D01*
X00078565Y00227662D01*
X00078221Y00228301D01*
X00078Y00228522D01*
X00077902Y00228571D01*
X00077828Y00228645D01*
X00077779Y00228743D01*
X00077386Y00228988D01*
X00077337Y00229136D01*
X00077288Y00229332D01*
X0007719Y00229578D01*
X00076944Y0023002D01*
X00076723Y0023029D01*
X00076526Y00230487D01*
X00076428Y00230536D01*
X00076133Y00230732D01*
X0007579Y0023083D01*
X00075593Y00230879D01*
X00075249Y00230929D01*
D02*
G37*
%LPD*%
G36*
X00072744Y00229406D02*
X00073014Y00229185D01*
X00073113Y00228939D01*
Y0022889D01*
X00073162Y00228694D01*
X00073113Y00222603D01*
X00072867Y00222259D01*
X00072646Y00222185D01*
X00072155Y00222235D01*
X00072032Y00222358D01*
X00071983Y00222505D01*
X00072106Y00222628D01*
X00072744Y00222971D01*
X00072867Y00223242D01*
X00072818Y00223438D01*
X00072597Y00223659D01*
X00072499Y00223708D01*
X00072057Y0022415D01*
X00071713Y00224101D01*
X00071369Y00223954D01*
X00070976Y00224003D01*
X00070706Y00224224D01*
X00070559Y00224371D01*
X0007051Y00224568D01*
X00070559Y00224666D01*
X0007078Y00224691D01*
X00071025Y00224592D01*
X00071271Y00224691D01*
X00071344Y00224912D01*
X00071295Y00225894D01*
X00071123Y00226066D01*
X0007078Y00226262D01*
X00070559Y00226483D01*
X0007051Y0022668D01*
X00070559Y0022722D01*
X00070632Y00227343D01*
X00070731Y00227392D01*
X00070878Y00227441D01*
X00071148Y0022722D01*
X00071271Y00227097D01*
X00071369Y00227048D01*
X00071713Y00226901D01*
X00071836Y00226926D01*
X00071934Y00227171D01*
X00071983Y00227367D01*
X00072179Y0022781D01*
X00072229Y00228006D01*
X00072179Y00228202D01*
X00071983Y00228399D01*
X00071885Y00228645D01*
X00071934Y00229087D01*
X00072155Y00229357D01*
X000724Y00229455D01*
X00072744Y00229406D01*
D02*
G37*
G36*
X00075495D02*
X00075765Y00229185D01*
X00075863Y00228939D01*
X00075888Y00228767D01*
X00075839Y00228522D01*
X00075765Y00228448D01*
X00075741Y00228374D01*
X00075642Y00228325D01*
X00075519Y00228055D01*
X00075569Y00227662D01*
X00075962Y00226926D01*
X00076084Y00226852D01*
X00076428Y00227097D01*
X00076526Y00227146D01*
X00076772Y00227392D01*
X00076968Y00227441D01*
X00077067Y00227392D01*
X00077239Y00226975D01*
X0007719Y00226532D01*
X00076968Y00226213D01*
X00076428Y00225919D01*
X00076379Y00225624D01*
X00076355Y00225354D01*
X00076404Y00225206D01*
X00076355Y0022501D01*
X00076477Y00224691D01*
X00076576Y00224592D01*
X00076698Y00224568D01*
X00076944Y00224666D01*
X00077116Y00224691D01*
X0007719Y00224617D01*
X0007714Y00224322D01*
X0007687Y00224052D01*
X000766Y00223978D01*
X00076281Y00223954D01*
X0007579Y00224199D01*
X00075519Y00223978D01*
X000752Y00223659D01*
X00075102Y0022361D01*
X00075004Y00223512D01*
X0007493Y00223487D01*
X00074881Y00223291D01*
X0007493Y00223094D01*
X000752Y00222824D01*
X00075716Y00222554D01*
X00075667Y00222358D01*
X00075544Y00222235D01*
X00075348Y00222185D01*
X00074955Y00222235D01*
X00074783Y00222358D01*
X00074734Y00222456D01*
X00074586Y00222799D01*
Y00227957D01*
Y00228006D01*
X00074635Y00228988D01*
X00074906Y00229357D01*
X00075151Y00229455D01*
X00075495Y00229406D01*
D02*
G37*
%LPC*%
G36*
X00122108Y00234269D02*
X00121691Y00234195D01*
X00121249Y00233949D01*
X001212Y00233851D01*
X00120954Y00233605D01*
X00120757Y00233164D01*
X00120708Y0023282D01*
X00120757Y00232328D01*
X00121003Y00231886D01*
X00121273Y00231616D01*
X00121371Y00231567D01*
X0012147Y00231469D01*
X00121961Y00231322D01*
X00122599Y00231371D01*
X00122943Y00231567D01*
X00123041Y00231665D01*
X0012314Y00231714D01*
X00123263Y00231837D01*
X00123312Y00231936D01*
X0012341Y00232034D01*
X00123459Y00232132D01*
X00123557Y00232378D01*
X00123582Y00232942D01*
X00123533Y00233237D01*
X00123434Y00233483D01*
X00123361Y00233556D01*
Y00233605D01*
X00123041Y00233925D01*
X00122943Y00233974D01*
X00122648Y0023417D01*
X00122452Y00234219D01*
X00122108Y00234269D01*
D02*
G37*
G36*
X00108011D02*
X00107471Y00234219D01*
X00107029Y00233974D01*
X0010666Y00233605D01*
X00106611Y00233507D01*
X00106513Y00233262D01*
X00106415Y00232918D01*
X00106464Y00232378D01*
X00106562Y00232132D01*
X0010671Y00231886D01*
X00106882Y00231714D01*
X0010698Y00231665D01*
X00107053Y00231592D01*
X00107078Y00231567D01*
X00107176Y00231518D01*
X00107618Y00231322D01*
X00108306Y00231371D01*
X00108748Y00231616D01*
X00108969Y00231837D01*
X00109018Y00231936D01*
X00109116Y00232034D01*
X00109264Y00232378D01*
X00109362Y00232721D01*
X00109239Y00233237D01*
X00109141Y00233483D01*
X00109018Y00233655D01*
X0010865Y00234023D01*
X00108208Y00234219D01*
X00108011Y00234269D01*
D02*
G37*
G36*
X00130606Y00220614D02*
X00130139Y0022054D01*
X00129943Y00220491D01*
X00129672Y00220319D01*
X0012955Y00220245D01*
X00129501Y00220147D01*
X00129402Y00220049D01*
X00129353Y00219951D01*
X00129108Y0021941D01*
X00129157Y00218624D01*
X00129476Y00218158D01*
X00129721Y00217912D01*
X00130041Y00217789D01*
X00130262Y00217716D01*
X00130728Y00217691D01*
X00130925Y0021774D01*
X00131171Y00217839D01*
X00131441Y00218011D01*
X00131662Y00218232D01*
X00131711Y0021833D01*
X00131809Y00218428D01*
Y00218477D01*
X00131834Y00218502D01*
X00131956Y00218919D01*
X00131981Y00219238D01*
X00131932Y00219484D01*
X00131834Y0021973D01*
X0013176Y00219902D01*
X00131539Y00220172D01*
X00131342Y00220368D01*
X00131244Y00220417D01*
X00130999Y00220515D01*
X00130606Y00220614D01*
D02*
G37*
G36*
X00114298D02*
X00114151Y00220565D01*
X00113856Y00220515D01*
X00113512Y00220319D01*
X00113242Y00220049D01*
X00113193Y00219951D01*
X00112948Y0021941D01*
X00112997Y00218723D01*
X00113292Y00218182D01*
X00113512Y00217961D01*
X00114053Y00217716D01*
X00114274Y00217691D01*
X00114814Y0021774D01*
X00114937Y00217814D01*
X00114986D01*
X00115453Y00218133D01*
X00115698Y00218477D01*
X00115796Y0021887D01*
X00115821Y00219189D01*
X00115723Y0021973D01*
X00115526Y00220024D01*
X00115404Y00220196D01*
X0011533Y0022027D01*
X00114986Y00220466D01*
X0011474Y00220565D01*
X00114298Y00220614D01*
D02*
G37*
G36*
X00055602Y00231567D02*
X0005462D01*
X00053343Y00231518D01*
X00053195Y00231469D01*
X00052999Y0023142D01*
X00052581Y00231346D01*
X00051967Y00230978D01*
X00051697Y00230708D01*
X00051648Y00230609D01*
X00051452Y00230315D01*
X00051353Y00229922D01*
X00051304Y00229136D01*
X00051378Y00228571D01*
X00051476Y00228178D01*
X00051722Y00227785D01*
X00051845Y00227613D01*
X00052066Y00227392D01*
X00052901Y00226999D01*
X00053392Y00226852D01*
X00053588Y00226803D01*
X00054521Y00226754D01*
X00055578Y00226778D01*
X00055651Y00226754D01*
X00055872Y00226926D01*
X00055823Y00231493D01*
X00055602Y00231567D01*
D02*
G37*
G36*
X00053736Y00204208D02*
X00053637Y00204159D01*
X00053564Y00204086D01*
X00053515Y00203594D01*
X00053564Y002033D01*
X00053686Y00203128D01*
X00053785Y00203079D01*
X00053932Y00202931D01*
X00054325Y00202735D01*
X0005435Y0020271D01*
X0005462Y00202637D01*
X00055258Y00202686D01*
X00055528Y00202907D01*
X00055627Y00203152D01*
X00055578Y00203545D01*
X00055356Y00203815D01*
X00055258Y00203914D01*
X00054914Y00204012D01*
X00054521Y0020411D01*
X00053883Y00204159D01*
X00053736Y00204208D01*
D02*
G37*
G36*
X0011867Y00206075D02*
X00118277Y00206026D01*
X00117835Y0020578D01*
X00117761Y00205706D01*
X00117737Y00205682D01*
X00117663Y00205608D01*
X00117614Y0020551D01*
X00117466Y00205166D01*
X00117516Y00205019D01*
X00117589Y00204945D01*
X00119726Y0020497D01*
X00119775Y00205166D01*
X00119726Y00205363D01*
X00119579Y0020551D01*
X00119431Y00205756D01*
X00119358Y00205829D01*
X00118866Y00206026D01*
X0011867Y00206075D01*
D02*
G37*
G36*
X00127217Y00207892D02*
X00125645Y00207843D01*
X00125497Y00207794D01*
X00125104Y00207647D01*
X00124638Y00207327D01*
X00124441Y00207131D01*
X00124392Y00207033D01*
X00124294Y00206934D01*
X00124171Y00206615D01*
X00124122Y00206566D01*
X00124097Y00206541D01*
X00124048Y00206345D01*
X00123999Y00205854D01*
X0012395Y0020551D01*
X00123999Y00204626D01*
X00124048Y00204478D01*
X00124097Y00204233D01*
X00124343Y00203791D01*
X00124441Y00203692D01*
X0012449Y00203594D01*
X00124761Y00203324D01*
X00125301Y00203079D01*
X0012589Y00202931D01*
X00127192Y00202907D01*
X0012729Y00202956D01*
X00127388Y00203349D01*
X00127339Y00207769D01*
X00127217Y00207892D01*
D02*
G37*
G36*
X00089494Y00207941D02*
X00089396D01*
X00088266Y00207892D01*
X0008802Y00207794D01*
X00087922Y00207745D01*
X00087799Y00207671D01*
X00087701Y00207425D01*
X00087603Y00207082D01*
X00087676Y00206713D01*
X00087775Y00206468D01*
X00087873Y00206369D01*
X00087971Y0020632D01*
X00088413Y00206124D01*
X00089592Y00206173D01*
X00089666Y00206394D01*
X00089616Y00207819D01*
X00089494Y00207941D01*
D02*
G37*
G36*
Y00204945D02*
X00087873Y00204896D01*
X00087627Y00204798D01*
X00087529Y00204749D01*
X00087308Y00204577D01*
X00087259Y00204478D01*
X00087161Y00204233D01*
X00087112Y00204036D01*
X00087161Y00203594D01*
X00087357Y00203251D01*
X0008748Y00203128D01*
X00087725Y00203029D01*
X00087996Y00202956D01*
X00088757Y00202931D01*
X00088806D01*
X00089469Y00202907D01*
X00089567Y00202956D01*
X00089666Y002033D01*
X00089616Y00204822D01*
X00089494Y00204945D01*
D02*
G37*
G36*
X00061988Y00207941D02*
X00061349D01*
X0006071Y00207892D01*
X00060367Y00207696D01*
X00060195Y00207524D01*
X00060096Y00207131D01*
X00060146Y0020664D01*
X00060367Y00206369D01*
X00060661Y00206173D01*
X00061153Y00206124D01*
X00062037Y00206173D01*
X00062159Y00206296D01*
X0006211Y00207819D01*
X00061988Y00207941D01*
D02*
G37*
G36*
X0006184Y00204945D02*
X00060318Y00204896D01*
X00059875Y0020465D01*
X00059703Y00204478D01*
X00059654Y00204282D01*
X00059605Y00203938D01*
X00059679Y00203472D01*
X00059703Y00203447D01*
Y00203398D01*
X00060023Y00203079D01*
X00060342Y00203005D01*
X00060612Y00202931D01*
X00061816Y00202907D01*
X00062012Y00202956D01*
X0006211Y00203054D01*
X00062159Y00203251D01*
X0006211Y00204822D01*
X00062037Y00204896D01*
X0006184Y00204945D01*
D02*
G37*
G36*
X00103984Y00206173D02*
X00103443Y00206124D01*
X00103173Y00205903D01*
X00103075Y00205805D01*
X00102977Y00205559D01*
X00102928Y00205363D01*
X00102977Y0020497D01*
X00103124Y00204724D01*
X00103345Y00204503D01*
X00103738Y00204405D01*
X00104278Y00204454D01*
X00104548Y00204675D01*
X00104696Y00204822D01*
X00104794Y00205166D01*
X00104745Y00205608D01*
X00104696Y00205756D01*
X00104671Y0020578D01*
X00104376Y00206075D01*
X00103984Y00206173D01*
D02*
G37*
G36*
X00104131Y00201949D02*
X00104106Y00201924D01*
X00103934Y002019D01*
X00103787Y00201949D01*
X00103419Y00201924D01*
X00103198Y00201949D01*
X0010305Y002019D01*
X00102805Y00201851D01*
X00102584Y00201679D01*
X00102535Y0020158D01*
X00102486Y00201433D01*
X00102535Y00201089D01*
X00102805Y00200819D01*
X0010305Y00200721D01*
X00103615Y00200696D01*
X00103836Y00200721D01*
X00103984Y00200672D01*
X00104131Y00200721D01*
X00104573Y0020077D01*
X00104843Y00200991D01*
X00104941Y00201089D01*
X00104991Y00201286D01*
X00104941Y0020163D01*
X00104671Y002019D01*
X00104303Y00201924D01*
X0010418Y002019D01*
X00104131Y00201949D01*
D02*
G37*
G36*
X00358387Y00177185D02*
X00356871D01*
Y00172303D01*
X0035835D01*
X0035847Y00172313D01*
X0035859D01*
X00358701Y00172322D01*
X00358886Y00172349D01*
X00359034Y00172368D01*
X00359154Y00172396D01*
X00359238Y00172423D01*
X00359284Y00172433D01*
X00359302Y00172442D01*
X00359469Y00172525D01*
X00359626Y00172627D01*
X00359765Y00172747D01*
X00359885Y00172867D01*
X00359977Y00172978D01*
X00360051Y00173071D01*
X0036007Y00173108D01*
X00360088Y00173135D01*
X00360107Y00173154D01*
Y00173163D01*
X00360162Y00173265D01*
X00360218Y00173385D01*
X00360301Y00173625D01*
X00360356Y00173884D01*
X00360402Y00174134D01*
X00360412Y00174245D01*
X00360421Y00174356D01*
X0036043Y00174448D01*
Y00174531D01*
X00360439Y00174605D01*
Y00174652D01*
Y00174689D01*
Y00174698D01*
X0036043Y00174957D01*
X00360412Y00175197D01*
X00360384Y0017541D01*
X00360356Y00175595D01*
X00360338Y00175669D01*
X00360319Y00175733D01*
X00360301Y00175798D01*
X00360291Y00175844D01*
X00360282Y00175881D01*
X00360273Y00175909D01*
X00360264Y00175928D01*
Y00175937D01*
X00360199Y00176112D01*
X00360125Y0017627D01*
X00360042Y00176408D01*
X00359968Y00176528D01*
X00359903Y00176621D01*
X00359848Y00176686D01*
X00359811Y00176723D01*
X00359801Y00176741D01*
X00359709Y00176815D01*
X00359617Y0017688D01*
X00359524Y00176935D01*
X00359432Y00176991D01*
X00359348Y00177028D01*
X00359284Y00177055D01*
X00359238Y00177065D01*
X00359219Y00177074D01*
X0035908Y00177111D01*
X00358914Y00177139D01*
X00358747Y00177157D01*
X0035859Y00177166D01*
X00358452Y00177176D01*
X00358387Y00177185D01*
D02*
G37*
G36*
X00348747Y00038222D02*
X003487D01*
X00348691D01*
X00348682D01*
X00348488Y00038203D01*
X00348321Y00038166D01*
X00348173Y00038111D01*
X00348053Y00038046D01*
X00347961Y00037981D01*
X00347887Y00037926D01*
X0034785Y00037889D01*
X00347831Y00037871D01*
X00347776Y00037806D01*
X0034773Y00037723D01*
X00347656Y00037547D01*
X003476Y00037353D01*
X00347563Y00037159D01*
X00347545Y00036983D01*
X00347535Y00036909D01*
Y00036844D01*
X00347526Y00036779D01*
Y0003506D01*
X0034981D01*
Y0003689D01*
X00349801Y00037057D01*
X00349791Y00037196D01*
X00349782Y00037306D01*
X00349764Y0003738D01*
X00349754Y00037436D01*
X00349745Y00037473D01*
Y00037482D01*
X00349699Y00037602D01*
X00349643Y00037704D01*
X00349588Y00037796D01*
X00349523Y0003788D01*
X00349459Y00037935D01*
X00349412Y00037981D01*
X00349375Y00038009D01*
X00349366Y00038018D01*
X00349255Y00038083D01*
X00349144Y00038139D01*
X00349024Y00038176D01*
X00348922Y00038194D01*
X0034883Y00038213D01*
X00348747Y00038222D01*
D02*
G37*
G36*
X00267916Y0003098D02*
X00265632D01*
Y00029149D01*
X00265641Y00028983D01*
X00265651Y00028844D01*
X0026566Y00028733D01*
X00265678Y0002866D01*
X00265688Y00028604D01*
X00265697Y00028567D01*
Y00028558D01*
X00265743Y00028438D01*
X00265799Y00028336D01*
X00265854Y00028244D01*
X00265919Y0002816D01*
X00265984Y00028105D01*
X0026603Y00028059D01*
X00266067Y00028031D01*
X00266076Y00028022D01*
X00266187Y00027957D01*
X00266298Y00027901D01*
X00266418Y00027864D01*
X0026652Y00027846D01*
X00266612Y00027827D01*
X00266695Y00027818D01*
X00266742D01*
X00266751D01*
X0026676D01*
X00266954Y00027837D01*
X00267121Y00027874D01*
X00267269Y00027929D01*
X00267389Y00027994D01*
X00267481Y00028059D01*
X00267555Y00028114D01*
X00267592Y00028151D01*
X00267611Y0002817D01*
X00267666Y00028234D01*
X00267712Y00028317D01*
X00267786Y00028493D01*
X00267842Y00028687D01*
X00267879Y00028881D01*
X00267897Y00029057D01*
X00267907Y00029131D01*
Y00029196D01*
X00267916Y0002926D01*
Y0003098D01*
D02*
G37*
G36*
X00160523Y00112255D02*
X00158619D01*
Y00110138D01*
X00160634D01*
X00160884Y00110147D01*
X00161097Y00110184D01*
X00161282Y0011023D01*
X0016142Y00110286D01*
X00161541Y00110341D01*
X00161614Y00110388D01*
X00161661Y00110425D01*
X00161679Y00110434D01*
X0016179Y00110554D01*
X00161873Y00110674D01*
X00161929Y00110804D01*
X00161975Y00110915D01*
X00161994Y00111025D01*
X00162003Y00111109D01*
X00162012Y00111164D01*
Y00111173D01*
Y00111183D01*
X00162003Y00111294D01*
X00161984Y00111405D01*
X00161957Y00111497D01*
X00161929Y0011158D01*
X00161892Y00111654D01*
X00161864Y0011171D01*
X00161846Y00111747D01*
X00161836Y00111756D01*
X00161772Y00111848D01*
X00161688Y00111932D01*
X00161605Y00111996D01*
X00161522Y00112052D01*
X00161448Y00112089D01*
X00161393Y00112116D01*
X00161356Y00112135D01*
X00161337Y00112144D01*
X00161208Y00112181D01*
X0016106Y00112209D01*
X00160912Y00112227D01*
X00160764Y00112237D01*
X00160634Y00112246D01*
X00160523Y00112255D01*
D02*
G37*
G36*
X0007123Y00304765D02*
X00071146D01*
X000711D01*
X00071091D01*
X00071082D01*
X00070795D01*
X00070536Y00304746D01*
X00070305Y00304728D01*
X00070083Y00304709D01*
X00069898Y00304681D01*
X00069723Y00304645D01*
X00069575Y00304608D01*
X00069436Y0030458D01*
X00069325Y00304543D01*
X00069233Y00304506D01*
X00069149Y00304478D01*
X00069085Y00304441D01*
X00069038Y00304423D01*
X00069011Y00304404D01*
X00068992Y00304386D01*
X00068983D01*
X00068891Y00304312D01*
X00068816Y00304238D01*
X00068743Y00304164D01*
X00068687Y0030409D01*
X00068595Y00303932D01*
X0006853Y00303794D01*
X00068493Y00303664D01*
X00068474Y00303572D01*
X00068465Y00303535D01*
Y00303479D01*
X00068474Y00303378D01*
X00068484Y00303285D01*
X00068548Y0030311D01*
X00068632Y00302952D01*
X00068724Y00302814D01*
X00068816Y00302712D01*
X000689Y00302629D01*
X00068965Y00302583D01*
X00068974Y00302564D01*
X00068983D01*
X00069094Y003025D01*
X00069223Y00302444D01*
X00069371Y00302388D01*
X00069528Y00302351D01*
X00069695Y00302315D01*
X00069871Y00302287D01*
X00070231Y00302241D01*
X00070398Y00302222D01*
X00070555Y00302213D01*
X00070703Y00302204D01*
X00070823D01*
X00070934Y00302194D01*
X00071017D01*
X00071063D01*
X00071082D01*
X00071368Y00302204D01*
X00071627Y00302213D01*
X00071868Y00302231D01*
X0007209Y00302259D01*
X00072284Y00302287D01*
X00072459Y00302324D01*
X00072617Y00302361D01*
X00072755Y00302398D01*
X00072875Y00302435D01*
X00072977Y00302463D01*
X0007306Y003025D01*
X00073134Y00302527D01*
X0007318Y00302555D01*
X00073217Y00302573D01*
X00073236Y00302592D01*
X00073245D01*
X00073328Y00302657D01*
X00073402Y00302721D01*
X00073458Y00302795D01*
X00073513Y00302869D01*
X00073597Y00303017D01*
X00073652Y00303156D01*
X0007368Y00303276D01*
X00073698Y00303378D01*
X00073707Y00303415D01*
Y0030347D01*
X00073698Y00303572D01*
X00073689Y00303674D01*
X00073661Y00303766D01*
X00073624Y00303849D01*
X00073541Y00304007D01*
X00073449Y00304145D01*
X00073347Y00304247D01*
X00073264Y0030433D01*
X00073227Y00304358D01*
X00073199Y00304376D01*
X0007319Y00304395D01*
X0007318D01*
X0007307Y00304459D01*
X0007294Y00304515D01*
X00072792Y00304571D01*
X00072635Y00304608D01*
X00072469Y00304645D01*
X00072293Y00304672D01*
X00071941Y00304718D01*
X00071766Y00304737D01*
X00071609Y00304746D01*
X00071461Y00304755D01*
X00071341D01*
X0007123Y00304765D01*
D02*
G37*
G36*
X00072589Y0029355D02*
X00072579D01*
X0007257D01*
X00072459Y0029354D01*
X00072348Y00293522D01*
X00072256Y00293494D01*
X00072173Y00293466D01*
X00072099Y0029343D01*
X00072043Y00293402D01*
X00072006Y00293383D01*
X00071997Y00293374D01*
X00071905Y00293309D01*
X00071821Y00293226D01*
X00071757Y00293143D01*
X00071701Y0029306D01*
X00071664Y00292986D01*
X00071636Y0029293D01*
X00071618Y00292893D01*
X00071609Y00292875D01*
X00071572Y00292745D01*
X00071544Y00292597D01*
X00071526Y00292449D01*
X00071516Y00292302D01*
X00071507Y00292172D01*
X00071498Y00292061D01*
Y00290157D01*
X00073615D01*
Y00292172D01*
X00073606Y00292422D01*
X00073569Y00292634D01*
X00073523Y00292819D01*
X00073467Y00292958D01*
X00073412Y00293078D01*
X00073365Y00293152D01*
X00073328Y00293198D01*
X00073319Y00293217D01*
X00073199Y00293328D01*
X00073079Y00293411D01*
X00072949Y00293466D01*
X00072838Y00293513D01*
X00072727Y00293531D01*
X00072644Y0029354D01*
X00072589Y0029355D01*
D02*
G37*
G36*
X00058276Y00304773D02*
X00058192D01*
X00058146D01*
X00058137D01*
X00058128D01*
X00057841D01*
X00057582Y00304755D01*
X00057351Y00304736D01*
X00057129Y00304718D01*
X00056944Y0030469D01*
X00056769Y00304653D01*
X00056621Y00304616D01*
X00056482Y00304589D01*
X00056371Y00304552D01*
X00056279Y00304515D01*
X00056195Y00304487D01*
X00056131Y0030445D01*
X00056084Y00304431D01*
X00056057Y00304413D01*
X00056038Y00304394D01*
X00056029D01*
X00055936Y0030432D01*
X00055862Y00304246D01*
X00055789Y00304172D01*
X00055733Y00304098D01*
X00055641Y00303941D01*
X00055576Y00303803D01*
X00055539Y00303673D01*
X0005552Y00303581D01*
X00055511Y00303544D01*
Y00303488D01*
X0005552Y00303386D01*
X0005553Y00303294D01*
X00055594Y00303118D01*
X00055678Y00302961D01*
X0005577Y00302823D01*
X00055862Y00302721D01*
X00055946Y00302638D01*
X0005601Y00302591D01*
X0005602Y00302573D01*
X00056029D01*
X0005614Y00302508D01*
X00056269Y00302453D01*
X00056417Y00302397D01*
X00056574Y0030236D01*
X00056741Y00302323D01*
X00056916Y00302296D01*
X00057277Y00302249D01*
X00057443Y00302231D01*
X00057601Y00302222D01*
X00057749Y00302212D01*
X00057869D01*
X0005798Y00302203D01*
X00058063D01*
X00058109D01*
X00058128D01*
X00058414Y00302212D01*
X00058673Y00302222D01*
X00058914Y0030224D01*
X00059135Y00302268D01*
X0005933Y00302296D01*
X00059505Y00302332D01*
X00059662Y00302369D01*
X00059801Y00302407D01*
X00059921Y00302444D01*
X00060023Y00302471D01*
X00060106Y00302508D01*
X0006018Y00302536D01*
X00060226Y00302564D01*
X00060263Y00302582D01*
X00060282Y00302601D01*
X00060291D01*
X00060374Y00302665D01*
X00060448Y0030273D01*
X00060504Y00302804D01*
X00060559Y00302878D01*
X00060642Y00303026D01*
X00060698Y00303165D01*
X00060726Y00303285D01*
X00060744Y00303386D01*
X00060753Y00303424D01*
Y00303479D01*
X00060744Y00303581D01*
X00060735Y00303682D01*
X00060707Y00303775D01*
X0006067Y00303858D01*
X00060587Y00304015D01*
X00060495Y00304154D01*
X00060393Y00304256D01*
X0006031Y00304339D01*
X00060273Y00304367D01*
X00060245Y00304385D01*
X00060236Y00304404D01*
X00060226D01*
X00060115Y00304468D01*
X00059986Y00304524D01*
X00059838Y00304579D01*
X00059681Y00304616D01*
X00059514Y00304653D01*
X00059339Y00304681D01*
X00058987Y00304727D01*
X00058812Y00304746D01*
X00058655Y00304755D01*
X00058507Y00304764D01*
X00058387D01*
X00058276Y00304773D01*
D02*
G37*
G36*
X00047443Y00150294D02*
X00047434D01*
X00047424D01*
X00047313Y00150285D01*
X00047202Y00150266D01*
X0004711Y00150238D01*
X00047027Y00150211D01*
X00046953Y00150174D01*
X00046897Y00150146D01*
X0004686Y00150127D01*
X00046851Y00150118D01*
X00046759Y00150053D01*
X00046675Y0014997D01*
X00046611Y00149887D01*
X00046555Y00149804D01*
X00046518Y0014973D01*
X0004649Y00149674D01*
X00046472Y00149637D01*
X00046463Y00149619D01*
X00046426Y00149489D01*
X00046398Y00149341D01*
X00046379Y00149193D01*
X0004637Y00149046D01*
X00046361Y00148916D01*
X00046352Y00148805D01*
Y00146901D01*
X00048469D01*
Y00148916D01*
X0004846Y00149166D01*
X00048423Y00149378D01*
X00048376Y00149563D01*
X00048321Y00149702D01*
X00048266Y00149822D01*
X00048219Y00149896D01*
X00048182Y00149942D01*
X00048173Y00149961D01*
X00048053Y00150072D01*
X00047933Y00150155D01*
X00047803Y00150211D01*
X00047692Y00150257D01*
X00047581Y00150275D01*
X00047498Y00150285D01*
X00047443Y00150294D01*
D02*
G37*
G36*
X-00000884Y00010815D02*
X-00002705D01*
Y00008615D01*
X-00001023D01*
X-00000829Y00008633D01*
X-00000671Y00008651D01*
X-00000542Y0000867D01*
X-0000044Y00008688D01*
X-00000357Y00008707D01*
X-0000032Y00008716D01*
X-00000302Y00008725D01*
X-00000181Y00008772D01*
X-0000008Y00008827D01*
X00000013Y00008892D01*
X00000087Y00008957D01*
X00000142Y00009012D01*
X00000179Y00009058D01*
X00000207Y00009095D01*
X00000216Y00009104D01*
X00000281Y00009206D01*
X00000327Y00009308D01*
X00000364Y0000941D01*
X00000383Y00009502D01*
X00000401Y00009585D01*
X0000041Y00009659D01*
Y00009696D01*
Y00009715D01*
X00000401Y00009826D01*
X00000392Y00009937D01*
X00000373Y00010029D01*
X00000346Y00010103D01*
X00000318Y00010168D01*
X00000299Y00010223D01*
X0000029Y00010251D01*
X00000281Y0001026D01*
X00000225Y00010343D01*
X00000179Y00010417D01*
X00000115Y00010473D01*
X00000068Y00010528D01*
X00000022Y00010565D01*
X-00000015Y00010593D01*
X-00000043Y00010611D01*
X-00000052Y00010621D01*
X-00000209Y00010695D01*
X-00000366Y0001075D01*
X-00000431Y00010769D01*
X-00000487Y00010778D01*
X-00000523Y00010787D01*
X-00000533D01*
X-00000607Y00010796D01*
X-0000069Y00010806D01*
X-00000884Y00010815D01*
D02*
G37*
G36*
X-00001134Y00007856D02*
X-00002705D01*
Y00005933D01*
X-00001189D01*
X-00000986Y00005952D01*
X-00000829Y00005961D01*
X-0000069Y00005979D01*
X-00000588Y00005998D01*
X-00000523Y00006007D01*
X-00000477Y00006026D01*
X-00000468D01*
X-00000366Y00006063D01*
X-00000274Y00006118D01*
X-000002Y00006174D01*
X-00000135Y00006229D01*
X-00000089Y00006275D01*
X-00000052Y00006322D01*
X-00000033Y00006349D01*
X-00000024Y00006359D01*
X00000031Y00006451D01*
X00000068Y00006543D01*
X00000096Y00006636D01*
X00000115Y00006728D01*
X00000124Y00006802D01*
X00000133Y00006858D01*
Y00006895D01*
Y00006913D01*
X00000124Y00007034D01*
X00000105Y00007144D01*
X00000077Y00007237D01*
X0000005Y00007311D01*
X00000022Y00007376D01*
X-00000006Y00007431D01*
X-00000024Y00007459D01*
X-00000033Y00007468D01*
X-00000098Y00007542D01*
X-00000181Y00007616D01*
X-00000265Y00007671D01*
X-00000338Y00007708D01*
X-00000413Y00007745D01*
X-00000468Y00007773D01*
X-00000505Y00007782D01*
X-00000523Y00007792D01*
X-00000625Y0000781D01*
X-00000755Y00007829D01*
X-00000884Y00007838D01*
X-00001014Y00007847D01*
X-00001134Y00007856D01*
D02*
G37*
G36*
X00012235Y00010963D02*
X00012189D01*
X00012014Y00010954D01*
X00011847Y00010935D01*
X00011699Y00010898D01*
X00011551Y00010861D01*
X00011413Y00010806D01*
X00011283Y0001075D01*
X00011163Y00010695D01*
X00011052Y0001063D01*
X0001096Y00010565D01*
X00010876Y0001051D01*
X00010802Y00010454D01*
X00010738Y00010399D01*
X00010691Y00010362D01*
X00010654Y00010325D01*
X00010636Y00010306D01*
X00010627Y00010297D01*
X00010516Y00010168D01*
X00010423Y00010029D01*
X0001034Y00009881D01*
X00010266Y00009733D01*
X00010211Y00009576D01*
X00010155Y00009428D01*
X00010081Y00009132D01*
X00010063Y00009003D01*
X00010044Y00008873D01*
X00010026Y00008762D01*
X00010016Y0000867D01*
X00010007Y00008587D01*
Y00008522D01*
Y00008485D01*
Y00008476D01*
X00010016Y00008217D01*
X00010035Y00007976D01*
X00010063Y00007745D01*
X00010109Y00007542D01*
X00010155Y00007357D01*
X00010211Y00007191D01*
X00010275Y00007034D01*
X00010331Y00006904D01*
X00010396Y00006784D01*
X00010451Y00006682D01*
X00010507Y00006599D01*
X00010553Y00006534D01*
X00010599Y00006479D01*
X00010627Y00006442D01*
X00010645Y00006423D01*
X00010654Y00006414D01*
X00010775Y00006303D01*
X00010904Y00006211D01*
X00011034Y00006127D01*
X00011172Y00006053D01*
X00011302Y00005998D01*
X00011431Y00005943D01*
X00011672Y00005868D01*
X00011782Y0000585D01*
X00011884Y00005832D01*
X00011967Y00005813D01*
X00012051Y00005804D01*
X00012115Y00005795D01*
X00012198D01*
X0001243Y00005804D01*
X00012651Y00005841D01*
X00012846Y00005896D01*
X00013012Y00005952D01*
X00013151Y00006016D01*
X00013206Y00006044D01*
X00013253Y00006063D01*
X00013299Y0000609D01*
X00013326Y000061D01*
X00013336Y00006118D01*
X00013345D01*
X00013521Y00006248D01*
X00013678Y00006395D01*
X00013816Y00006543D01*
X00013927Y00006691D01*
X00014011Y00006821D01*
X00014075Y00006932D01*
X00014094Y00006969D01*
X00014112Y00006996D01*
X00014122Y00007015D01*
Y00007024D01*
X00014214Y00007246D01*
X00014279Y00007487D01*
X00014325Y00007708D01*
X00014353Y00007921D01*
X00014371Y00008023D01*
X00014381Y00008106D01*
Y00008189D01*
X0001439Y00008254D01*
Y00008309D01*
Y00008346D01*
Y00008374D01*
Y00008383D01*
X00014381Y00008605D01*
X00014362Y00008818D01*
X00014334Y00009021D01*
X00014297Y00009206D01*
X00014242Y00009373D01*
X00014196Y0000953D01*
X0001414Y00009678D01*
X00014085Y00009807D01*
X0001402Y00009918D01*
X00013964Y0001002D01*
X00013918Y00010103D01*
X00013872Y00010168D01*
X00013826Y00010223D01*
X00013798Y00010269D01*
X00013779Y00010288D01*
X0001377Y00010297D01*
X0001365Y00010417D01*
X00013521Y00010519D01*
X00013391Y00010602D01*
X00013262Y00010685D01*
X00013132Y0001075D01*
X00012994Y00010796D01*
X00012873Y00010843D01*
X00012744Y0001088D01*
X00012633Y00010907D01*
X00012522Y00010926D01*
X0001243Y00010944D01*
X00012346Y00010954D01*
X00012282D01*
X00012235Y00010963D01*
D02*
G37*
G36*
X00005283D02*
X00005237D01*
X00005061Y00010954D01*
X00004895Y00010935D01*
X00004746Y00010898D01*
X00004599Y00010861D01*
X0000446Y00010806D01*
X00004331Y0001075D01*
X0000421Y00010695D01*
X00004099Y0001063D01*
X00004007Y00010565D01*
X00003924Y0001051D01*
X0000385Y00010454D01*
X00003785Y00010399D01*
X00003739Y00010362D01*
X00003702Y00010325D01*
X00003683Y00010306D01*
X00003674Y00010297D01*
X00003563Y00010168D01*
X00003471Y00010029D01*
X00003387Y00009881D01*
X00003313Y00009733D01*
X00003258Y00009576D01*
X00003203Y00009428D01*
X00003129Y00009132D01*
X0000311Y00009003D01*
X00003092Y00008873D01*
X00003073Y00008762D01*
X00003064Y0000867D01*
X00003055Y00008587D01*
Y00008522D01*
Y00008485D01*
Y00008476D01*
X00003064Y00008217D01*
X00003082Y00007976D01*
X0000311Y00007745D01*
X00003156Y00007542D01*
X00003203Y00007357D01*
X00003258Y00007191D01*
X00003323Y00007034D01*
X00003378Y00006904D01*
X00003443Y00006784D01*
X00003498Y00006682D01*
X00003554Y00006599D01*
X000036Y00006534D01*
X00003646Y00006479D01*
X00003674Y00006442D01*
X00003693Y00006423D01*
X00003702Y00006414D01*
X00003822Y00006303D01*
X00003951Y00006211D01*
X00004081Y00006127D01*
X0000422Y00006053D01*
X00004349Y00005998D01*
X00004478Y00005943D01*
X00004719Y00005868D01*
X0000483Y0000585D01*
X00004931Y00005832D01*
X00005015Y00005813D01*
X00005098Y00005804D01*
X00005163Y00005795D01*
X00005246D01*
X00005477Y00005804D01*
X00005699Y00005841D01*
X00005893Y00005896D01*
X00006059Y00005952D01*
X00006198Y00006016D01*
X00006254Y00006044D01*
X000063Y00006063D01*
X00006346Y0000609D01*
X00006374Y000061D01*
X00006383Y00006118D01*
X00006392D01*
X00006568Y00006248D01*
X00006725Y00006395D01*
X00006864Y00006543D01*
X00006975Y00006691D01*
X00007058Y00006821D01*
X00007123Y00006932D01*
X00007141Y00006969D01*
X0000716Y00006996D01*
X00007169Y00007015D01*
Y00007024D01*
X00007261Y00007246D01*
X00007326Y00007487D01*
X00007372Y00007708D01*
X000074Y00007921D01*
X00007419Y00008023D01*
X00007428Y00008106D01*
Y00008189D01*
X00007437Y00008254D01*
Y00008309D01*
Y00008346D01*
Y00008374D01*
Y00008383D01*
X00007428Y00008605D01*
X00007409Y00008818D01*
X00007382Y00009021D01*
X00007345Y00009206D01*
X00007289Y00009373D01*
X00007243Y0000953D01*
X00007187Y00009678D01*
X00007132Y00009807D01*
X00007067Y00009918D01*
X00007012Y0001002D01*
X00006966Y00010103D01*
X00006919Y00010168D01*
X00006873Y00010223D01*
X00006845Y00010269D01*
X00006827Y00010288D01*
X00006818Y00010297D01*
X00006697Y00010417D01*
X00006568Y00010519D01*
X00006439Y00010602D01*
X00006309Y00010685D01*
X0000618Y0001075D01*
X00006041Y00010796D01*
X00005921Y00010843D01*
X00005791Y0001088D01*
X0000568Y00010907D01*
X00005569Y00010926D01*
X00005477Y00010944D01*
X00005394Y00010954D01*
X00005329D01*
X00005283Y00010963D01*
D02*
G37*
%LPD*%
D10*
X00233944Y00037284D02*
G03*
X00233944Y00037284I-00001J0D01*
G01*
D11*
X00373888Y-00028194D02*
Y00000254D01*
X0Y-00028194D02*
X00373888D01*
X0D02*
Y00000254D01*
X00373888D01*
D12*
X00176444Y00100304D02*
X00192159D01*
X00176444Y00063304D02*
Y00100304D01*
Y00063304D02*
X00180609D01*
X00227729Y00100304D02*
X00243444D01*
Y00063304D02*
Y00100304D01*
X00239279Y00063304D02*
X00243444D01*
D36*
X-00059146Y00017808D02*
X-00050846D01*
X-00059146D02*
Y00110208D01*
X-00050846D01*
X-00022446D02*
X-00008846D01*
X-00022446Y00017808D02*
X-00008846D01*
D48*
X00050974Y00138662D02*
G03*
X00050974Y00138662I-00005J0D01*
G01*
X00373766Y00174764D02*
G03*
X00373766Y00174764I-00005J0D01*
G01*
X00063674Y00313662D02*
G03*
X00063674Y00313662I-00005J0D01*
G01*
X00076374D02*
G03*
X00076374Y00313662I-00005J0D01*
G01*
X00038274Y00138662D02*
G03*
X00038274Y00138662I-00005J0D01*
G01*
X0027258Y00049784D02*
G03*
X0027258Y00049784I-00005J0D01*
G01*
X00288482D02*
G03*
X00288482Y00049784I-00005J0D01*
G01*
X00334044Y00016002D02*
G03*
X00334044Y00016002I-00005J0D01*
G01*
X00352726D02*
G03*
X00352726Y00016002I-00005J0D01*
G01*
X-0000509Y00008382D02*
G03*
X-0000509Y00008382I-00005J0D01*
G01*
X00186866Y00112412D02*
G03*
X00186866Y00112412I-00005J0D01*
G01*
M02*
