G04*
G04 #@! TF.GenerationSoftware,Altium Limited,Altium Designer,23.0.1 (38)*
G04*
G04 Layer_Color=8421504*
%FSTAX44Y44*%
%MOMM*%
G71*
G04*
G04 #@! TF.SameCoordinates,70A70F08-58DB-409B-8D52-4F46F491BF6E*
G04*
G04*
G04 #@! TF.FilePolarity,Positive*
G04*
G01*
G75*
%ADD14R,1.1000X1.0000*%
%ADD15R,0.9000X1.4000*%
%ADD16R,1.0500X1.4000*%
G04:AMPARAMS|DCode=17|XSize=1.9mm|YSize=0.48mm|CornerRadius=0.06mm|HoleSize=0mm|Usage=FLASHONLY|Rotation=180.000|XOffset=0mm|YOffset=0mm|HoleType=Round|Shape=RoundedRectangle|*
%AMROUNDEDRECTD17*
21,1,1.9000,0.3600,0,0,180.0*
21,1,1.7800,0.4800,0,0,180.0*
1,1,0.1200,-0.8900,0.1800*
1,1,0.1200,0.8900,0.1800*
1,1,0.1200,0.8900,-0.1800*
1,1,0.1200,-0.8900,-0.1800*
%
%ADD17ROUNDEDRECTD17*%
%ADD18R,0.9300X0.8700*%
%ADD19R,5.6000X2.1000*%
%ADD20R,1.0000X1.1000*%
%ADD21R,0.9000X1.5000*%
%ADD22R,1.5000X0.9000*%
%ADD23R,0.9000X0.9000*%
%ADD24R,2.0000X1.0000*%
%ADD25R,1.0000X2.0000*%
%ADD26R,1.0000X0.8999*%
G04:AMPARAMS|DCode=27|XSize=1.5mm|YSize=2.5mm|CornerRadius=0.375mm|HoleSize=0mm|Usage=FLASHONLY|Rotation=180.000|XOffset=0mm|YOffset=0mm|HoleType=Round|Shape=RoundedRectangle|*
%AMROUNDEDRECTD27*
21,1,1.5000,1.7500,0,0,180.0*
21,1,0.7500,2.5000,0,0,180.0*
1,1,0.7500,-0.3750,0.8750*
1,1,0.7500,0.3750,0.8750*
1,1,0.7500,0.3750,-0.8750*
1,1,0.7500,-0.3750,-0.8750*
%
%ADD27ROUNDEDRECTD27*%
%ADD28R,1.5000X2.5000*%
%ADD29R,0.8700X0.9300*%
%ADD30R,0.8999X1.0000*%
D14*
X00220862Y00036322D02*
D03*
X00237862D02*
D03*
X00364744Y00005842D02*
D03*
X00347744D02*
D03*
X0025058Y00049784D02*
D03*
X0026758D02*
D03*
X00300482D02*
D03*
X00283482D02*
D03*
X0004103Y00026416D02*
D03*
X0005803D02*
D03*
X00197866D02*
D03*
X00214866D02*
D03*
X00313944Y00005842D02*
D03*
X00330944D02*
D03*
X-00026552Y00008128D02*
D03*
X-00043552D02*
D03*
X0001729Y0012319D02*
D03*
X0003429D02*
D03*
Y00112522D02*
D03*
X0001729D02*
D03*
D15*
X-00047474Y00033782D02*
D03*
X00017526D02*
D03*
D16*
X-0004408Y00062264D02*
D03*
Y00098264D02*
D03*
X-0002958Y00062264D02*
D03*
Y00098264D02*
D03*
D17*
X00112274Y00060412D02*
D03*
Y00066912D02*
D03*
Y00073412D02*
D03*
Y00079912D02*
D03*
Y00086412D02*
D03*
Y00092912D02*
D03*
Y00099412D02*
D03*
Y00105912D02*
D03*
Y00112412D02*
D03*
Y00118912D02*
D03*
X00182374D02*
D03*
Y00112412D02*
D03*
Y00105912D02*
D03*
Y00099412D02*
D03*
Y00092912D02*
D03*
Y00086412D02*
D03*
Y00079912D02*
D03*
Y00073412D02*
D03*
Y00066912D02*
D03*
Y00060412D02*
D03*
D18*
X00023368Y00080334D02*
D03*
Y00095434D02*
D03*
X00049022Y00090262D02*
D03*
Y00074662D02*
D03*
X-00014732Y00076215D02*
D03*
Y00061115D02*
D03*
X0004699Y00123298D02*
D03*
Y00108198D02*
D03*
X00060052Y00052456D02*
D03*
Y00067556D02*
D03*
X0026289Y00002106D02*
D03*
Y00017706D02*
D03*
Y00023184D02*
D03*
Y00038284D02*
D03*
X00049022Y00052456D02*
D03*
Y00067556D02*
D03*
X00058674Y00123298D02*
D03*
Y00107698D02*
D03*
X00082113Y00090262D02*
D03*
Y00075162D02*
D03*
X00071083Y00090262D02*
D03*
Y00075162D02*
D03*
X0028829Y00002106D02*
D03*
Y00017706D02*
D03*
Y00023184D02*
D03*
Y00038284D02*
D03*
X00071374Y00123298D02*
D03*
Y00107698D02*
D03*
X00084074Y00123298D02*
D03*
Y00107698D02*
D03*
X00096774Y00123298D02*
D03*
Y00107698D02*
D03*
X00082113Y00067556D02*
D03*
Y00051956D02*
D03*
X00071083Y00067556D02*
D03*
Y00051956D02*
D03*
X00060052Y00090262D02*
D03*
Y00074662D02*
D03*
X00200152Y0012025D02*
D03*
Y0010515D02*
D03*
X00340816Y00090164D02*
D03*
Y00075064D02*
D03*
X00326816Y00090164D02*
D03*
Y00075064D02*
D03*
X00312816Y00090164D02*
D03*
Y00075064D02*
D03*
X00298704D02*
D03*
Y00090164D02*
D03*
X00223266Y000623D02*
D03*
Y000774D02*
D03*
X00034544Y00080334D02*
D03*
Y00095434D02*
D03*
D19*
X00080444Y00026416D02*
D03*
X00175444D02*
D03*
D20*
X00200152Y00093512D02*
D03*
Y00076512D02*
D03*
X00224536Y00162494D02*
D03*
Y00145494D02*
D03*
X-00014732Y00086242D02*
D03*
Y00103242D02*
D03*
X00214376Y00145494D02*
D03*
Y00162494D02*
D03*
X00200152Y00046512D02*
D03*
Y00063512D02*
D03*
X0022352Y00129412D02*
D03*
Y00112412D02*
D03*
X00211836Y00093512D02*
D03*
Y00076512D02*
D03*
X00250444Y00040132D02*
D03*
Y00023132D02*
D03*
X00300482Y00040184D02*
D03*
Y00023184D02*
D03*
X00212598Y00129412D02*
D03*
Y00112412D02*
D03*
X00211836Y00046512D02*
D03*
Y00063512D02*
D03*
D21*
X00020574Y00138662D02*
D03*
X00033274D02*
D03*
X00045974D02*
D03*
X00058674D02*
D03*
X00071374D02*
D03*
X00084074D02*
D03*
X00096774D02*
D03*
X00109474D02*
D03*
X00122174D02*
D03*
X00134874D02*
D03*
X00147574D02*
D03*
X00160274D02*
D03*
X00172974D02*
D03*
X00185674D02*
D03*
Y00313662D02*
D03*
X00172974D02*
D03*
X00160274D02*
D03*
X00147574D02*
D03*
X00134874D02*
D03*
X00122174D02*
D03*
X00109474D02*
D03*
X00096774D02*
D03*
X00084074D02*
D03*
X00071374D02*
D03*
X00058674D02*
D03*
X00045974D02*
D03*
X00033274D02*
D03*
X00020574D02*
D03*
D22*
X00198174Y00156312D02*
D03*
Y00169012D02*
D03*
Y00181712D02*
D03*
Y00194412D02*
D03*
Y00207112D02*
D03*
Y00219812D02*
D03*
Y00232512D02*
D03*
Y00245212D02*
D03*
Y00257912D02*
D03*
Y00270612D02*
D03*
Y00283312D02*
D03*
Y00296012D02*
D03*
D23*
X00097774Y00211162D02*
D03*
X00083774D02*
D03*
Y00197162D02*
D03*
X00097774D02*
D03*
X00111774D02*
D03*
Y00211162D02*
D03*
Y00225162D02*
D03*
X00097774D02*
D03*
X00083774D02*
D03*
D24*
X00368766Y00216764D02*
D03*
Y00202764D02*
D03*
Y00188764D02*
D03*
Y00174764D02*
D03*
Y00160764D02*
D03*
Y00146764D02*
D03*
Y00132764D02*
D03*
Y00118764D02*
D03*
X00242866Y00132764D02*
D03*
Y00146764D02*
D03*
Y00160764D02*
D03*
Y00174764D02*
D03*
Y00188764D02*
D03*
Y00202764D02*
D03*
Y00216764D02*
D03*
Y00118764D02*
D03*
D25*
X00354816Y00095814D02*
D03*
X00340816D02*
D03*
X00326816D02*
D03*
X00312816D02*
D03*
X00298816D02*
D03*
X00284816D02*
D03*
X00270816D02*
D03*
X00256816D02*
D03*
D26*
X00023368Y00069456D02*
D03*
Y00052456D02*
D03*
X00034544Y00069456D02*
D03*
Y00052456D02*
D03*
D27*
Y-0001397D02*
D03*
X00059944D02*
D03*
X00085344D02*
D03*
X00110744D02*
D03*
X00009144D02*
D03*
X00136144D02*
D03*
X00339344D02*
D03*
X00313944D02*
D03*
X00288544D02*
D03*
X00263144D02*
D03*
X00237744D02*
D03*
X00212344D02*
D03*
X00186944D02*
D03*
X00161544D02*
D03*
D28*
X00364744D02*
D03*
D29*
X00313944Y00016002D02*
D03*
X00329044D02*
D03*
X00362844D02*
D03*
X00347744D02*
D03*
X-0001009Y00008382D02*
D03*
X0000501D02*
D03*
X00359633Y00078994D02*
D03*
X00374733D02*
D03*
D30*
X00357733Y00067952D02*
D03*
X00374733D02*
D03*
X00357733Y00056731D02*
D03*
X00374733D02*
D03*
X00357733Y00045511D02*
D03*
X00374733D02*
D03*
Y0003429D02*
D03*
X00357733D02*
D03*
M02*
