G04*
G04 #@! TF.GenerationSoftware,Altium Limited,Altium Designer,23.0.1 (38)*
G04*
G04 Layer_Color=2752767*
%FSTAX44Y44*%
%MOMM*%
G71*
G04*
G04 #@! TF.SameCoordinates,70A70F08-58DB-409B-8D52-4F46F491BF6E*
G04*
G04*
G04 #@! TF.FilePolarity,Positive*
G04*
G01*
G75*
%ADD12C,0.1270*%
%ADD49C,0.1693*%
D12*
X00003354Y00102128D02*
X-00001726Y00112288D01*
X00008434D01*
X00003354Y00102128D01*
Y00015728D02*
X-00001726Y00025888D01*
X00008434D01*
X00003354Y00015728D01*
X-00041726Y00102128D02*
Y00112288D01*
X-00031566D01*
Y00102128D01*
X-00041726D01*
Y00015728D02*
Y00025888D01*
X-00031566D01*
Y00015728D01*
X-00041726D01*
X00276606Y00066294D02*
X00279146Y00068834D01*
X00281686D01*
X00279146Y00071374D01*
X00281686Y00073914D01*
X00279146D01*
X00276606Y00076454D01*
X00274066Y00073914D01*
X00271526D01*
X00274066Y00071374D01*
X00271526Y00068834D01*
X00274066D01*
X00276606Y00066294D01*
X00226568Y00022098D02*
X00229108Y00024638D01*
X00231648D01*
X00229108Y00027178D01*
X00231648Y00029718D01*
X00229108D01*
X00226568Y00032258D01*
X00224028Y00029718D01*
X00221488D01*
X00224028Y00027178D01*
X00221488Y00024638D01*
X00224028D01*
X00226568Y00022098D01*
X00221488Y0003937D02*
X00224028Y0004191D01*
X00226568D01*
X00224028Y0004445D01*
X00226568Y0004699D01*
X00224028D01*
X00221488Y0004953D01*
X00218948Y0004699D01*
X00216408D01*
X00218948Y0004445D01*
X00216408Y0004191D01*
X00218948D01*
X00221488Y0003937D01*
X00166566Y00085673D02*
X00169106Y00088213D01*
X00171646D01*
X00169106Y00090753D01*
X00171646Y00093293D01*
X00169106D01*
X00166566Y00095833D01*
X00164026Y00093293D01*
X00161486D01*
X00164026Y00090753D01*
X00161486Y00088213D01*
X00164026D01*
X00166566Y00085673D01*
Y00105673D02*
X00169106Y00108213D01*
X00171646D01*
X00169106Y00110753D01*
X00171646Y00113293D01*
X00169106D01*
X00166566Y00115833D01*
X00164026Y00113293D01*
X00161486D01*
X00164026Y00110753D01*
X00161486Y00108213D01*
X00164026D01*
X00166566Y00105673D01*
X00126268Y00225374D02*
X00128808Y00227914D01*
X00131348D01*
X00128808Y00230454D01*
X00131348Y00232994D01*
X00128808D01*
X00126268Y00235534D01*
X00123728Y00232994D01*
X00121188D01*
X00123728Y00230454D01*
X00121188Y00227914D01*
X00123728D01*
X00126268Y00225374D01*
X00146268Y00205374D02*
X00148808Y00207914D01*
X00151348D01*
X00148808Y00210454D01*
X00151348Y00212994D01*
X00148808D01*
X00146268Y00215534D01*
X00143728Y00212994D01*
X00141188D01*
X00143728Y00210454D01*
X00141188Y00207914D01*
X00143728D01*
X00146268Y00205374D01*
X00106268Y00245374D02*
X00108808Y00247914D01*
X00111348D01*
X00108808Y00250454D01*
X00111348Y00252994D01*
X00108808D01*
X00106268Y00255534D01*
X00103728Y00252994D01*
X00101188D01*
X00103728Y00250454D01*
X00101188Y00247914D01*
X00103728D01*
X00106268Y00245374D01*
X00086385Y00265491D02*
X00088925Y00268031D01*
X00091465D01*
X00088925Y00270571D01*
X00091465Y00273111D01*
X00088925D01*
X00086385Y00275651D01*
X00083845Y00273111D01*
X00081305D01*
X00083845Y00270571D01*
X00081305Y00268031D01*
X00083845D01*
X00086385Y00265491D01*
X00146566Y00085673D02*
X00149106Y00088213D01*
X00151646D01*
X00149106Y00090753D01*
X00151646Y00093293D01*
X00149106D01*
X00146566Y00095833D01*
X00144026Y00093293D01*
X00141486D01*
X00144026Y00090753D01*
X00141486Y00088213D01*
X00144026D01*
X00146566Y00085673D01*
X00376567Y00005673D02*
X00379107Y00008213D01*
X00381647D01*
X00379107Y00010753D01*
X00381647Y00013293D01*
X00379107D01*
X00376567Y00015833D01*
X00374027Y00013293D01*
X00371487D01*
X00374027Y00010753D01*
X00371487Y00008213D01*
X00374027D01*
X00376567Y00005673D01*
X00351567Y00195673D02*
X00354107Y00198213D01*
X00356647D01*
X00354107Y00200753D01*
X00356647Y00203293D01*
X00354107D01*
X00351567Y00205833D01*
X00349027Y00203293D01*
X00346487D01*
X00349027Y00200753D01*
X00346487Y00198213D01*
X00349027D01*
X00351567Y00195673D01*
Y00175673D02*
X00354107Y00178213D01*
X00356647D01*
X00354107Y00180753D01*
X00356647Y00183293D01*
X00354107D01*
X00351567Y00185833D01*
X00349027Y00183293D01*
X00346487D01*
X00349027Y00180753D01*
X00346487Y00178213D01*
X00349027D01*
X00351567Y00175673D01*
Y00135673D02*
X00354107Y00138213D01*
X00356647D01*
X00354107Y00140753D01*
X00356647Y00143293D01*
X00354107D01*
X00351567Y00145833D01*
X00349027Y00143293D01*
X00346487D01*
X00349027Y00140753D01*
X00346487Y00138213D01*
X00349027D01*
X00351567Y00135673D01*
X00346567Y00205673D02*
X00349106Y00208213D01*
X00351646D01*
X00349106Y00210753D01*
X00351646Y00213293D01*
X00349106D01*
X00346567Y00215833D01*
X00344026Y00213293D01*
X00341487D01*
X00344026Y00210753D01*
X00341487Y00208213D01*
X00344026D01*
X00346567Y00205673D01*
X00341567Y00195673D02*
X00344107Y00198213D01*
X00346647D01*
X00344107Y00200753D01*
X00346647Y00203293D01*
X00344107D01*
X00341567Y00205833D01*
X00339027Y00203293D01*
X00336487D01*
X00339027Y00200753D01*
X00336487Y00198213D01*
X00339027D01*
X00341567Y00195673D01*
X00346567Y00185673D02*
X00349106Y00188213D01*
X00351646D01*
X00349106Y00190753D01*
X00351646Y00193293D01*
X00349106D01*
X00346567Y00195833D01*
X00344026Y00193293D01*
X00341487D01*
X00344026Y00190753D01*
X00341487Y00188213D01*
X00344026D01*
X00346567Y00185673D01*
X00341567Y00175673D02*
X00344107Y00178213D01*
X00346647D01*
X00344107Y00180753D01*
X00346647Y00183293D01*
X00344107D01*
X00341567Y00185833D01*
X00339027Y00183293D01*
X00336487D01*
X00339027Y00180753D01*
X00336487Y00178213D01*
X00339027D01*
X00341567Y00175673D01*
X00346567Y00165673D02*
X00349106Y00168213D01*
X00351646D01*
X00349106Y00170753D01*
X00351646Y00173293D01*
X00349106D01*
X00346567Y00175833D01*
X00344026Y00173293D01*
X00341487D01*
X00344026Y00170753D01*
X00341487Y00168213D01*
X00344026D01*
X00346567Y00165673D01*
X00341567Y00035673D02*
X00344107Y00038213D01*
X00346647D01*
X00344107Y00040753D01*
X00346647Y00043293D01*
X00344107D01*
X00341567Y00045833D01*
X00339027Y00043293D01*
X00336487D01*
X00339027Y00040753D01*
X00336487Y00038213D01*
X00339027D01*
X00341567Y00035673D01*
X00336567Y00205673D02*
X00339106Y00208213D01*
X00341646D01*
X00339106Y00210753D01*
X00341646Y00213293D01*
X00339106D01*
X00336567Y00215833D01*
X00334026Y00213293D01*
X00331487D01*
X00334026Y00210753D01*
X00331487Y00208213D01*
X00334026D01*
X00336567Y00205673D01*
X00331567Y00195673D02*
X00334106Y00198213D01*
X00336646D01*
X00334106Y00200753D01*
X00336646Y00203293D01*
X00334106D01*
X00331567Y00205833D01*
X00329026Y00203293D01*
X00326487D01*
X00329026Y00200753D01*
X00326487Y00198213D01*
X00329026D01*
X00331567Y00195673D01*
X00336567Y00185673D02*
X00339106Y00188213D01*
X00341646D01*
X00339106Y00190753D01*
X00341646Y00193293D01*
X00339106D01*
X00336567Y00195833D01*
X00334026Y00193293D01*
X00331487D01*
X00334026Y00190753D01*
X00331487Y00188213D01*
X00334026D01*
X00336567Y00185673D01*
X00331567Y00175673D02*
X00334106Y00178213D01*
X00336646D01*
X00334106Y00180753D01*
X00336646Y00183293D01*
X00334106D01*
X00331567Y00185833D01*
X00329026Y00183293D01*
X00326487D01*
X00329026Y00180753D01*
X00326487Y00178213D01*
X00329026D01*
X00331567Y00175673D01*
X00336567Y00165673D02*
X00339106Y00168213D01*
X00341646D01*
X00339106Y00170753D01*
X00341646Y00173293D01*
X00339106D01*
X00336567Y00175833D01*
X00334026Y00173293D01*
X00331487D01*
X00334026Y00170753D01*
X00331487Y00168213D01*
X00334026D01*
X00336567Y00165673D01*
X00331567Y00135673D02*
X00334106Y00138213D01*
X00336646D01*
X00334106Y00140753D01*
X00336646Y00143293D01*
X00334106D01*
X00331567Y00145833D01*
X00329026Y00143293D01*
X00326487D01*
X00329026Y00140753D01*
X00326487Y00138213D01*
X00329026D01*
X00331567Y00135673D01*
X00336567Y00045673D02*
X00339106Y00048213D01*
X00341646D01*
X00339106Y00050753D01*
X00341646Y00053293D01*
X00339106D01*
X00336567Y00055833D01*
X00334026Y00053293D01*
X00331487D01*
X00334026Y00050753D01*
X00331487Y00048213D01*
X00334026D01*
X00336567Y00045673D01*
X00326567Y00205673D02*
X00329106Y00208213D01*
X00331646D01*
X00329106Y00210753D01*
X00331646Y00213293D01*
X00329106D01*
X00326567Y00215833D01*
X00324026Y00213293D01*
X00321487D01*
X00324026Y00210753D01*
X00321487Y00208213D01*
X00324026D01*
X00326567Y00205673D01*
X00321567Y00195673D02*
X00324106Y00198213D01*
X00326646D01*
X00324106Y00200753D01*
X00326646Y00203293D01*
X00324106D01*
X00321567Y00205833D01*
X00319027Y00203293D01*
X00316486D01*
X00319027Y00200753D01*
X00316486Y00198213D01*
X00319027D01*
X00321567Y00195673D01*
X00326567Y00185673D02*
X00329106Y00188213D01*
X00331646D01*
X00329106Y00190753D01*
X00331646Y00193293D01*
X00329106D01*
X00326567Y00195833D01*
X00324026Y00193293D01*
X00321487D01*
X00324026Y00190753D01*
X00321487Y00188213D01*
X00324026D01*
X00326567Y00185673D01*
X00321567Y00175673D02*
X00324106Y00178213D01*
X00326646D01*
X00324106Y00180753D01*
X00326646Y00183293D01*
X00324106D01*
X00321567Y00185833D01*
X00319027Y00183293D01*
X00316486D01*
X00319027Y00180753D01*
X00316486Y00178213D01*
X00319027D01*
X00321567Y00175673D01*
X00326567Y00165673D02*
X00329106Y00168213D01*
X00331646D01*
X00329106Y00170753D01*
X00331646Y00173293D01*
X00329106D01*
X00326567Y00175833D01*
X00324026Y00173293D01*
X00321487D01*
X00324026Y00170753D01*
X00321487Y00168213D01*
X00324026D01*
X00326567Y00165673D01*
X00321567Y00135673D02*
X00324106Y00138213D01*
X00326646D01*
X00324106Y00140753D01*
X00326646Y00143293D01*
X00324106D01*
X00321567Y00145833D01*
X00319027Y00143293D01*
X00316486D01*
X00319027Y00140753D01*
X00316486Y00138213D01*
X00319027D01*
X00321567Y00135673D01*
Y00055673D02*
X00324106Y00058213D01*
X00326646D01*
X00324106Y00060753D01*
X00326646Y00063293D01*
X00324106D01*
X00321567Y00065833D01*
X00319027Y00063293D01*
X00316486D01*
X00319027Y00060753D01*
X00316486Y00058213D01*
X00319027D01*
X00321567Y00055673D01*
X00316567Y00205673D02*
X00319107Y00208213D01*
X00321646D01*
X00319107Y00210753D01*
X00321646Y00213293D01*
X00319107D01*
X00316567Y00215833D01*
X00314027Y00213293D01*
X00311486D01*
X00314027Y00210753D01*
X00311486Y00208213D01*
X00314027D01*
X00316567Y00205673D01*
X00311567Y00195673D02*
X00314107Y00198213D01*
X00316646D01*
X00314107Y00200753D01*
X00316646Y00203293D01*
X00314107D01*
X00311567Y00205833D01*
X00309027Y00203293D01*
X00306486D01*
X00309027Y00200753D01*
X00306486Y00198213D01*
X00309027D01*
X00311567Y00195673D01*
X00316567Y00185673D02*
X00319107Y00188213D01*
X00321646D01*
X00319107Y00190753D01*
X00321646Y00193293D01*
X00319107D01*
X00316567Y00195833D01*
X00314027Y00193293D01*
X00311486D01*
X00314027Y00190753D01*
X00311486Y00188213D01*
X00314027D01*
X00316567Y00185673D01*
X00311567Y00175673D02*
X00314107Y00178213D01*
X00316646D01*
X00314107Y00180753D01*
X00316646Y00183293D01*
X00314107D01*
X00311567Y00185833D01*
X00309027Y00183293D01*
X00306486D01*
X00309027Y00180753D01*
X00306486Y00178213D01*
X00309027D01*
X00311567Y00175673D01*
X00316567Y00125673D02*
X00319107Y00128213D01*
X00321646D01*
X00319107Y00130753D01*
X00321646Y00133293D01*
X00319107D01*
X00316567Y00135833D01*
X00314027Y00133293D01*
X00311486D01*
X00314027Y00130753D01*
X00311486Y00128213D01*
X00314027D01*
X00316567Y00125673D01*
X00306567Y00205673D02*
X00309107Y00208213D01*
X00311646D01*
X00309107Y00210753D01*
X00311646Y00213293D01*
X00309107D01*
X00306567Y00215833D01*
X00304027Y00213293D01*
X00301486D01*
X00304027Y00210753D01*
X00301486Y00208213D01*
X00304027D01*
X00306567Y00205673D01*
X00301567Y00195673D02*
X00304107Y00198213D01*
X00306646D01*
X00304107Y00200753D01*
X00306646Y00203293D01*
X00304107D01*
X00301567Y00205833D01*
X00299027Y00203293D01*
X00296486D01*
X00299027Y00200753D01*
X00296486Y00198213D01*
X00299027D01*
X00301567Y00195673D01*
X00306567Y00185673D02*
X00309107Y00188213D01*
X00311646D01*
X00309107Y00190753D01*
X00311646Y00193293D01*
X00309107D01*
X00306567Y00195833D01*
X00304027Y00193293D01*
X00301486D01*
X00304027Y00190753D01*
X00301486Y00188213D01*
X00304027D01*
X00306567Y00185673D01*
X00301567Y00155673D02*
X00304107Y00158213D01*
X00306646D01*
X00304107Y00160753D01*
X00306646Y00163293D01*
X00304107D01*
X00301567Y00165833D01*
X00299027Y00163293D01*
X00296486D01*
X00299027Y00160753D01*
X00296486Y00158213D01*
X00299027D01*
X00301567Y00155673D01*
X00296567Y00205673D02*
X00299107Y00208213D01*
X00301646D01*
X00299107Y00210753D01*
X00301646Y00213293D01*
X00299107D01*
X00296567Y00215833D01*
X00294027Y00213293D01*
X00291486D01*
X00294027Y00210753D01*
X00291486Y00208213D01*
X00294027D01*
X00296567Y00205673D01*
X00291567Y00195673D02*
X00294107Y00198213D01*
X00296646D01*
X00294107Y00200753D01*
X00296646Y00203293D01*
X00294107D01*
X00291567Y00205833D01*
X00289027Y00203293D01*
X00286486D01*
X00289027Y00200753D01*
X00286486Y00198213D01*
X00289027D01*
X00291567Y00195673D01*
X00296567Y00145673D02*
X00299107Y00148213D01*
X00301646D01*
X00299107Y00150753D01*
X00301646Y00153293D01*
X00299107D01*
X00296567Y00155833D01*
X00294027Y00153293D01*
X00291486D01*
X00294027Y00150753D01*
X00291486Y00148213D01*
X00294027D01*
X00296567Y00145673D01*
X00291567Y00135673D02*
X00294107Y00138213D01*
X00296646D01*
X00294107Y00140753D01*
X00296646Y00143293D01*
X00294107D01*
X00291567Y00145833D01*
X00289027Y00143293D01*
X00286486D01*
X00289027Y00140753D01*
X00286486Y00138213D01*
X00289027D01*
X00291567Y00135673D01*
X00296567Y00125673D02*
X00299107Y00128213D01*
X00301646D01*
X00299107Y00130753D01*
X00301646Y00133293D01*
X00299107D01*
X00296567Y00135833D01*
X00294027Y00133293D01*
X00291486D01*
X00294027Y00130753D01*
X00291486Y00128213D01*
X00294027D01*
X00296567Y00125673D01*
X00286567Y00205673D02*
X00289107Y00208213D01*
X00291646D01*
X00289107Y00210753D01*
X00291646Y00213293D01*
X00289107D01*
X00286567Y00215833D01*
X00284027Y00213293D01*
X00281486D01*
X00284027Y00210753D01*
X00281486Y00208213D01*
X00284027D01*
X00286567Y00205673D01*
X00281567Y00175673D02*
X00284107Y00178213D01*
X00286646D01*
X00284107Y00180753D01*
X00286646Y00183293D01*
X00284107D01*
X00281567Y00185833D01*
X00279027Y00183293D01*
X00276486D01*
X00279027Y00180753D01*
X00276486Y00178213D01*
X00279027D01*
X00281567Y00175673D01*
X00276567Y00165673D02*
X00279107Y00168213D01*
X00281646D01*
X00279107Y00170753D01*
X00281646Y00173293D01*
X00279107D01*
X00276567Y00175833D01*
X00274027Y00173293D01*
X00271486D01*
X00274027Y00170753D01*
X00271486Y00168213D01*
X00274027D01*
X00276567Y00165673D01*
Y00145673D02*
X00279107Y00148213D01*
X00281646D01*
X00279107Y00150753D01*
X00281646Y00153293D01*
X00279107D01*
X00276567Y00155833D01*
X00274027Y00153293D01*
X00271486D01*
X00274027Y00150753D01*
X00271486Y00148213D01*
X00274027D01*
X00276567Y00145673D01*
X00271567Y00075673D02*
X00274107Y00078213D01*
X00276646D01*
X00274107Y00080753D01*
X00276646Y00083293D01*
X00274107D01*
X00271567Y00085833D01*
X00269027Y00083293D01*
X00266486D01*
X00269027Y00080753D01*
X00266486Y00078213D01*
X00269027D01*
X00271567Y00075673D01*
X00261567Y00155673D02*
X00264107Y00158213D01*
X00266646D01*
X00264107Y00160753D01*
X00266646Y00163293D01*
X00264107D01*
X00261567Y00165833D01*
X00259027Y00163293D01*
X00256486D01*
X00259027Y00160753D01*
X00256486Y00158213D01*
X00259027D01*
X00261567Y00155673D01*
Y00135673D02*
X00264107Y00138213D01*
X00266646D01*
X00264107Y00140753D01*
X00266646Y00143293D01*
X00264107D01*
X00261567Y00145833D01*
X00259027Y00143293D01*
X00256486D01*
X00259027Y00140753D01*
X00256486Y00138213D01*
X00259027D01*
X00261567Y00135673D01*
X00256567Y00185673D02*
X00259107Y00188213D01*
X00261646D01*
X00259107Y00190753D01*
X00261646Y00193293D01*
X00259107D01*
X00256567Y00195833D01*
X00254027Y00193293D01*
X00251486D01*
X00254027Y00190753D01*
X00251486Y00188213D01*
X00254027D01*
X00256567Y00185673D01*
X00196567Y00305673D02*
X00199107Y00308213D01*
X00201646D01*
X00199107Y00310753D01*
X00201646Y00313293D01*
X00199107D01*
X00196567Y00315833D01*
X00194027Y00313293D01*
X00191486D01*
X00194027Y00310753D01*
X00191486Y00308213D01*
X00194027D01*
X00196567Y00305673D01*
X00181567Y00295673D02*
X00184107Y00298213D01*
X00186646D01*
X00184107Y00300753D01*
X00186646Y00303293D01*
X00184107D01*
X00181567Y00305833D01*
X00179027Y00303293D01*
X00176486D01*
X00179027Y00300753D01*
X00176486Y00298213D01*
X00179027D01*
X00181567Y00295673D01*
X00186567Y00285673D02*
X00189107Y00288213D01*
X00191646D01*
X00189107Y00290753D01*
X00191646Y00293293D01*
X00189107D01*
X00186567Y00295833D01*
X00184027Y00293293D01*
X00181486D01*
X00184027Y00290753D01*
X00181486Y00288213D01*
X00184027D01*
X00186567Y00285673D01*
X00181567Y00275673D02*
X00184107Y00278213D01*
X00186646D01*
X00184107Y00280753D01*
X00186646Y00283293D01*
X00184107D01*
X00181567Y00285833D01*
X00179027Y00283293D01*
X00176486D01*
X00179027Y00280753D01*
X00176486Y00278213D01*
X00179027D01*
X00181567Y00275673D01*
X00186567Y00265673D02*
X00189107Y00268213D01*
X00191646D01*
X00189107Y00270753D01*
X00191646Y00273293D01*
X00189107D01*
X00186567Y00275833D01*
X00184027Y00273293D01*
X00181486D01*
X00184027Y00270753D01*
X00181486Y00268213D01*
X00184027D01*
X00186567Y00265673D01*
Y00245673D02*
X00189107Y00248213D01*
X00191646D01*
X00189107Y00250753D01*
X00191646Y00253293D01*
X00189107D01*
X00186567Y00255833D01*
X00184027Y00253293D01*
X00181486D01*
X00184027Y00250753D01*
X00181486Y00248213D01*
X00184027D01*
X00186567Y00245673D01*
X00176566Y00285673D02*
X00179106Y00288213D01*
X00181646D01*
X00179106Y00290753D01*
X00181646Y00293293D01*
X00179106D01*
X00176566Y00295833D01*
X00174026Y00293293D01*
X00171486D01*
X00174026Y00290753D01*
X00171486Y00288213D01*
X00174026D01*
X00176566Y00285673D01*
Y00265673D02*
X00179106Y00268213D01*
X00181646D01*
X00179106Y00270753D01*
X00181646Y00273293D01*
X00179106D01*
X00176566Y00275833D01*
X00174026Y00273293D01*
X00171486D01*
X00174026Y00270753D01*
X00171486Y00268213D01*
X00174026D01*
X00176566Y00265673D01*
X00171567Y00035673D02*
X00174107Y00038213D01*
X00176646D01*
X00174107Y00040753D01*
X00176646Y00043293D01*
X00174107D01*
X00171567Y00045833D01*
X00169027Y00043293D01*
X00166486D01*
X00169027Y00040753D01*
X00166486Y00038213D01*
X00169027D01*
X00171567Y00035673D01*
X00161567Y00295673D02*
X00164107Y00298213D01*
X00166646D01*
X00164107Y00300753D01*
X00166646Y00303293D01*
X00164107D01*
X00161567Y00305833D01*
X00159026Y00303293D01*
X00156487D01*
X00159026Y00300753D01*
X00156487Y00298213D01*
X00159026D01*
X00161567Y00295673D01*
Y00275673D02*
X00164107Y00278213D01*
X00166646D01*
X00164107Y00280753D01*
X00166646Y00283293D01*
X00164107D01*
X00161567Y00285833D01*
X00159026Y00283293D01*
X00156487D01*
X00159026Y00280753D01*
X00156487Y00278213D01*
X00159026D01*
X00161567Y00275673D01*
Y00255673D02*
X00164107Y00258213D01*
X00166646D01*
X00164107Y00260753D01*
X00166646Y00263293D01*
X00164107D01*
X00161567Y00265833D01*
X00159026Y00263293D01*
X00156487D01*
X00159026Y00260753D01*
X00156487Y00258213D01*
X00159026D01*
X00161567Y00255673D01*
Y00235673D02*
X00164107Y00238213D01*
X00166646D01*
X00164107Y00240753D01*
X00166646Y00243293D01*
X00164107D01*
X00161567Y00245833D01*
X00159026Y00243293D01*
X00156487D01*
X00159026Y00240753D01*
X00156487Y00238213D01*
X00159026D01*
X00161567Y00235673D01*
Y00175673D02*
X00164107Y00178213D01*
X00166646D01*
X00164107Y00180753D01*
X00166646Y00183293D01*
X00164107D01*
X00161567Y00185833D01*
X00159026Y00183293D01*
X00156487D01*
X00159026Y00180753D01*
X00156487Y00178213D01*
X00159026D01*
X00161567Y00175673D01*
X00166566Y00065673D02*
X00169106Y00068213D01*
X00171646D01*
X00169106Y00070753D01*
X00171646Y00073293D01*
X00169106D01*
X00166566Y00075833D01*
X00164026Y00073293D01*
X00161486D01*
X00164026Y00070753D01*
X00161486Y00068213D01*
X00164026D01*
X00166566Y00065673D01*
Y00045673D02*
X00169106Y00048213D01*
X00171646D01*
X00169106Y00050753D01*
X00171646Y00053293D01*
X00169106D01*
X00166566Y00055833D01*
X00164026Y00053293D01*
X00161486D01*
X00164026Y00050753D01*
X00161486Y00048213D01*
X00164026D01*
X00166566Y00045673D01*
X00151566Y00295673D02*
X00154106Y00298213D01*
X00156646D01*
X00154106Y00300753D01*
X00156646Y00303293D01*
X00154106D01*
X00151566Y00305833D01*
X00149026Y00303293D01*
X00146486D01*
X00149026Y00300753D01*
X00146486Y00298213D01*
X00149026D01*
X00151566Y00295673D01*
X00156566Y00285673D02*
X00159106Y00288213D01*
X00161646D01*
X00159106Y00290753D01*
X00161646Y00293293D01*
X00159106D01*
X00156566Y00295833D01*
X00154026Y00293293D01*
X00151486D01*
X00154026Y00290753D01*
X00151486Y00288213D01*
X00154026D01*
X00156566Y00285673D01*
X00151566Y00275673D02*
X00154106Y00278213D01*
X00156646D01*
X00154106Y00280753D01*
X00156646Y00283293D01*
X00154106D01*
X00151566Y00285833D01*
X00149026Y00283293D01*
X00146486D01*
X00149026Y00280753D01*
X00146486Y00278213D01*
X00149026D01*
X00151566Y00275673D01*
X00156566Y00265673D02*
X00159106Y00268213D01*
X00161646D01*
X00159106Y00270753D01*
X00161646Y00273293D01*
X00159106D01*
X00156566Y00275833D01*
X00154026Y00273293D01*
X00151486D01*
X00154026Y00270753D01*
X00151486Y00268213D01*
X00154026D01*
X00156566Y00265673D01*
X00151566Y00255673D02*
X00154106Y00258213D01*
X00156646D01*
X00154106Y00260753D01*
X00156646Y00263293D01*
X00154106D01*
X00151566Y00265833D01*
X00149026Y00263293D01*
X00146486D01*
X00149026Y00260753D01*
X00146486Y00258213D01*
X00149026D01*
X00151566Y00255673D01*
X00156566Y00245673D02*
X00159106Y00248213D01*
X00161646D01*
X00159106Y00250753D01*
X00161646Y00253293D01*
X00159106D01*
X00156566Y00255833D01*
X00154026Y00253293D01*
X00151486D01*
X00154026Y00250753D01*
X00151486Y00248213D01*
X00154026D01*
X00156566Y00245673D01*
X00151566Y00235673D02*
X00154106Y00238213D01*
X00156646D01*
X00154106Y00240753D01*
X00156646Y00243293D01*
X00154106D01*
X00151566Y00245833D01*
X00149026Y00243293D01*
X00146486D01*
X00149026Y00240753D01*
X00146486Y00238213D01*
X00149026D01*
X00151566Y00235673D01*
X00156566Y00225673D02*
X00159106Y00228213D01*
X00161646D01*
X00159106Y00230753D01*
X00161646Y00233293D01*
X00159106D01*
X00156566Y00235833D01*
X00154026Y00233293D01*
X00151486D01*
X00154026Y00230753D01*
X00151486Y00228213D01*
X00154026D01*
X00156566Y00225673D01*
X00151566Y00195673D02*
X00154106Y00198213D01*
X00156646D01*
X00154106Y00200753D01*
X00156646Y00203293D01*
X00154106D01*
X00151566Y00205833D01*
X00149026Y00203293D01*
X00146486D01*
X00149026Y00200753D01*
X00146486Y00198213D01*
X00149026D01*
X00151566Y00195673D01*
X00156566Y00185673D02*
X00159106Y00188213D01*
X00161646D01*
X00159106Y00190753D01*
X00161646Y00193293D01*
X00159106D01*
X00156566Y00195833D01*
X00154026Y00193293D01*
X00151486D01*
X00154026Y00190753D01*
X00151486Y00188213D01*
X00154026D01*
X00156566Y00185673D01*
X00151566Y00175673D02*
X00154106Y00178213D01*
X00156646D01*
X00154106Y00180753D01*
X00156646Y00183293D01*
X00154106D01*
X00151566Y00185833D01*
X00149026Y00183293D01*
X00146486D01*
X00149026Y00180753D01*
X00146486Y00178213D01*
X00149026D01*
X00151566Y00175673D01*
X00141566Y00295673D02*
X00144106Y00298213D01*
X00146646D01*
X00144106Y00300753D01*
X00146646Y00303293D01*
X00144106D01*
X00141566Y00305833D01*
X00139026Y00303293D01*
X00136486D01*
X00139026Y00300753D01*
X00136486Y00298213D01*
X00139026D01*
X00141566Y00295673D01*
X00146566Y00285673D02*
X00149106Y00288213D01*
X00151646D01*
X00149106Y00290753D01*
X00151646Y00293293D01*
X00149106D01*
X00146566Y00295833D01*
X00144026Y00293293D01*
X00141486D01*
X00144026Y00290753D01*
X00141486Y00288213D01*
X00144026D01*
X00146566Y00285673D01*
X00141566Y00275673D02*
X00144106Y00278213D01*
X00146646D01*
X00144106Y00280753D01*
X00146646Y00283293D01*
X00144106D01*
X00141566Y00285833D01*
X00139026Y00283293D01*
X00136486D01*
X00139026Y00280753D01*
X00136486Y00278213D01*
X00139026D01*
X00141566Y00275673D01*
X00146566Y00265673D02*
X00149106Y00268213D01*
X00151646D01*
X00149106Y00270753D01*
X00151646Y00273293D01*
X00149106D01*
X00146566Y00275833D01*
X00144026Y00273293D01*
X00141486D01*
X00144026Y00270753D01*
X00141486Y00268213D01*
X00144026D01*
X00146566Y00265673D01*
X00141566Y00255673D02*
X00144106Y00258213D01*
X00146646D01*
X00144106Y00260753D01*
X00146646Y00263293D01*
X00144106D01*
X00141566Y00265833D01*
X00139026Y00263293D01*
X00136486D01*
X00139026Y00260753D01*
X00136486Y00258213D01*
X00139026D01*
X00141566Y00255673D01*
X00146566Y00245673D02*
X00149106Y00248213D01*
X00151646D01*
X00149106Y00250753D01*
X00151646Y00253293D01*
X00149106D01*
X00146566Y00255833D01*
X00144026Y00253293D01*
X00141486D01*
X00144026Y00250753D01*
X00141486Y00248213D01*
X00144026D01*
X00146566Y00245673D01*
X00141566Y00235673D02*
X00144106Y00238213D01*
X00146646D01*
X00144106Y00240753D01*
X00146646Y00243293D01*
X00144106D01*
X00141566Y00245833D01*
X00139026Y00243293D01*
X00136486D01*
X00139026Y00240753D01*
X00136486Y00238213D01*
X00139026D01*
X00141566Y00235673D01*
Y00195673D02*
X00144106Y00198213D01*
X00146646D01*
X00144106Y00200753D01*
X00146646Y00203293D01*
X00144106D01*
X00141566Y00205833D01*
X00139026Y00203293D01*
X00136486D01*
X00139026Y00200753D01*
X00136486Y00198213D01*
X00139026D01*
X00141566Y00195673D01*
X00146566Y00185673D02*
X00149106Y00188213D01*
X00151646D01*
X00149106Y00190753D01*
X00151646Y00193293D01*
X00149106D01*
X00146566Y00195833D01*
X00144026Y00193293D01*
X00141486D01*
X00144026Y00190753D01*
X00141486Y00188213D01*
X00144026D01*
X00146566Y00185673D01*
X00141566Y00175673D02*
X00144106Y00178213D01*
X00146646D01*
X00144106Y00180753D01*
X00146646Y00183293D01*
X00144106D01*
X00141566Y00185833D01*
X00139026Y00183293D01*
X00136486D01*
X00139026Y00180753D01*
X00136486Y00178213D01*
X00139026D01*
X00141566Y00175673D01*
X00131566Y00295673D02*
X00134106Y00298213D01*
X00136646D01*
X00134106Y00300753D01*
X00136646Y00303293D01*
X00134106D01*
X00131566Y00305833D01*
X00129026Y00303293D01*
X00126486D01*
X00129026Y00300753D01*
X00126486Y00298213D01*
X00129026D01*
X00131566Y00295673D01*
X00136566Y00285673D02*
X00139106Y00288213D01*
X00141646D01*
X00139106Y00290753D01*
X00141646Y00293293D01*
X00139106D01*
X00136566Y00295833D01*
X00134026Y00293293D01*
X00131486D01*
X00134026Y00290753D01*
X00131486Y00288213D01*
X00134026D01*
X00136566Y00285673D01*
X00131566Y00275673D02*
X00134106Y00278213D01*
X00136646D01*
X00134106Y00280753D01*
X00136646Y00283293D01*
X00134106D01*
X00131566Y00285833D01*
X00129026Y00283293D01*
X00126486D01*
X00129026Y00280753D01*
X00126486Y00278213D01*
X00129026D01*
X00131566Y00275673D01*
X00136566Y00265673D02*
X00139106Y00268213D01*
X00141646D01*
X00139106Y00270753D01*
X00141646Y00273293D01*
X00139106D01*
X00136566Y00275833D01*
X00134026Y00273293D01*
X00131486D01*
X00134026Y00270753D01*
X00131486Y00268213D01*
X00134026D01*
X00136566Y00265673D01*
X00131566Y00255673D02*
X00134106Y00258213D01*
X00136646D01*
X00134106Y00260753D01*
X00136646Y00263293D01*
X00134106D01*
X00131566Y00265833D01*
X00129026Y00263293D01*
X00126486D01*
X00129026Y00260753D01*
X00126486Y00258213D01*
X00129026D01*
X00131566Y00255673D01*
X00136566Y00245673D02*
X00139106Y00248213D01*
X00141646D01*
X00139106Y00250753D01*
X00141646Y00253293D01*
X00139106D01*
X00136566Y00255833D01*
X00134026Y00253293D01*
X00131486D01*
X00134026Y00250753D01*
X00131486Y00248213D01*
X00134026D01*
X00136566Y00245673D01*
X00131566Y00215673D02*
X00134106Y00218213D01*
X00136646D01*
X00134106Y00220753D01*
X00136646Y00223293D01*
X00134106D01*
X00131566Y00225833D01*
X00129026Y00223293D01*
X00126486D01*
X00129026Y00220753D01*
X00126486Y00218213D01*
X00129026D01*
X00131566Y00215673D01*
X00136566Y00205673D02*
X00139106Y00208213D01*
X00141646D01*
X00139106Y00210753D01*
X00141646Y00213293D01*
X00139106D01*
X00136566Y00215833D01*
X00134026Y00213293D01*
X00131486D01*
X00134026Y00210753D01*
X00131486Y00208213D01*
X00134026D01*
X00136566Y00205673D01*
X00131566Y00195673D02*
X00134106Y00198213D01*
X00136646D01*
X00134106Y00200753D01*
X00136646Y00203293D01*
X00134106D01*
X00131566Y00205833D01*
X00129026Y00203293D01*
X00126486D01*
X00129026Y00200753D01*
X00126486Y00198213D01*
X00129026D01*
X00131566Y00195673D01*
X00136566Y00185673D02*
X00139106Y00188213D01*
X00141646D01*
X00139106Y00190753D01*
X00141646Y00193293D01*
X00139106D01*
X00136566Y00195833D01*
X00134026Y00193293D01*
X00131486D01*
X00134026Y00190753D01*
X00131486Y00188213D01*
X00134026D01*
X00136566Y00185673D01*
X00131566Y00175673D02*
X00134106Y00178213D01*
X00136646D01*
X00134106Y00180753D01*
X00136646Y00183293D01*
X00134106D01*
X00131566Y00185833D01*
X00129026Y00183293D01*
X00126486D01*
X00129026Y00180753D01*
X00126486Y00178213D01*
X00129026D01*
X00131566Y00175673D01*
X00121566Y00215673D02*
X00124106Y00218213D01*
X00126646D01*
X00124106Y00220753D01*
X00126646Y00223293D01*
X00124106D01*
X00121566Y00225833D01*
X00119026Y00223293D01*
X00116486D01*
X00119026Y00220753D01*
X00116486Y00218213D01*
X00119026D01*
X00121566Y00215673D01*
X00126566Y00205673D02*
X00129106Y00208213D01*
X00131646D01*
X00129106Y00210753D01*
X00131646Y00213293D01*
X00129106D01*
X00126566Y00215833D01*
X00124026Y00213293D01*
X00121486D01*
X00124026Y00210753D01*
X00121486Y00208213D01*
X00124026D01*
X00126566Y00205673D01*
X00121566Y00195673D02*
X00124106Y00198213D01*
X00126646D01*
X00124106Y00200753D01*
X00126646Y00203293D01*
X00124106D01*
X00121566Y00205833D01*
X00119026Y00203293D01*
X00116486D01*
X00119026Y00200753D01*
X00116486Y00198213D01*
X00119026D01*
X00121566Y00195673D01*
X00126566Y00185673D02*
X00129106Y00188213D01*
X00131646D01*
X00129106Y00190753D01*
X00131646Y00193293D01*
X00129106D01*
X00126566Y00195833D01*
X00124026Y00193293D01*
X00121486D01*
X00124026Y00190753D01*
X00121486Y00188213D01*
X00124026D01*
X00126566Y00185673D01*
X00121566Y00175673D02*
X00124106Y00178213D01*
X00126646D01*
X00124106Y00180753D01*
X00126646Y00183293D01*
X00124106D01*
X00121566Y00185833D01*
X00119026Y00183293D01*
X00116486D01*
X00119026Y00180753D01*
X00116486Y00178213D01*
X00119026D01*
X00121566Y00175673D01*
Y00035673D02*
X00124106Y00038213D01*
X00126646D01*
X00124106Y00040753D01*
X00126646Y00043293D01*
X00124106D01*
X00121566Y00045833D01*
X00119026Y00043293D01*
X00116486D01*
X00119026Y00040753D01*
X00116486Y00038213D01*
X00119026D01*
X00121566Y00035673D01*
X00111566Y00235673D02*
X00114106Y00238213D01*
X00116646D01*
X00114106Y00240753D01*
X00116646Y00243293D01*
X00114106D01*
X00111566Y00245833D01*
X00109026Y00243293D01*
X00106486D01*
X00109026Y00240753D01*
X00106486Y00238213D01*
X00109026D01*
X00111566Y00235673D01*
Y00175673D02*
X00114106Y00178213D01*
X00116646D01*
X00114106Y00180753D01*
X00116646Y00183293D01*
X00114106D01*
X00111566Y00185833D01*
X00109026Y00183293D01*
X00106486D01*
X00109026Y00180753D01*
X00106486Y00178213D01*
X00109026D01*
X00111566Y00175673D01*
X00116566Y00045673D02*
X00119106Y00048213D01*
X00121646D01*
X00119106Y00050753D01*
X00121646Y00053293D01*
X00119106D01*
X00116566Y00055833D01*
X00114026Y00053293D01*
X00111486D01*
X00114026Y00050753D01*
X00111486Y00048213D01*
X00114026D01*
X00116566Y00045673D01*
X00111566Y00035673D02*
X00114106Y00038213D01*
X00116646D01*
X00114106Y00040753D01*
X00116646Y00043293D01*
X00114106D01*
X00111566Y00045833D01*
X00109026Y00043293D01*
X00106486D01*
X00109026Y00040753D01*
X00106486Y00038213D01*
X00109026D01*
X00111566Y00035673D01*
X00101566Y00235673D02*
X00104106Y00238213D01*
X00106646D01*
X00104106Y00240753D01*
X00106646Y00243293D01*
X00104106D01*
X00101566Y00245833D01*
X00099026Y00243293D01*
X00096486D01*
X00099026Y00240753D01*
X00096486Y00238213D01*
X00099026D01*
X00101566Y00235673D01*
Y00175673D02*
X00104106Y00178213D01*
X00106646D01*
X00104106Y00180753D01*
X00106646Y00183293D01*
X00104106D01*
X00101566Y00185833D01*
X00099026Y00183293D01*
X00096486D01*
X00099026Y00180753D01*
X00096486Y00178213D01*
X00099026D01*
X00101566Y00175673D01*
X00106566Y00045673D02*
X00109106Y00048213D01*
X00111646D01*
X00109106Y00050753D01*
X00111646Y00053293D01*
X00109106D01*
X00106566Y00055833D01*
X00104026Y00053293D01*
X00101486D01*
X00104026Y00050753D01*
X00101486Y00048213D01*
X00104026D01*
X00106566Y00045673D01*
X00091566Y00255673D02*
X00094106Y00258213D01*
X00096646D01*
X00094106Y00260753D01*
X00096646Y00263293D01*
X00094106D01*
X00091566Y00265833D01*
X00089026Y00263293D01*
X00086486D01*
X00089026Y00260753D01*
X00086486Y00258213D01*
X00089026D01*
X00091566Y00255673D01*
X00096566Y00245673D02*
X00099106Y00248213D01*
X00101646D01*
X00099106Y00250753D01*
X00101646Y00253293D01*
X00099106D01*
X00096566Y00255833D01*
X00094026Y00253293D01*
X00091486D01*
X00094026Y00250753D01*
X00091486Y00248213D01*
X00094026D01*
X00096566Y00245673D01*
X00091566Y00235673D02*
X00094106Y00238213D01*
X00096646D01*
X00094106Y00240753D01*
X00096646Y00243293D01*
X00094106D01*
X00091566Y00245833D01*
X00089026Y00243293D01*
X00086486D01*
X00089026Y00240753D01*
X00086486Y00238213D01*
X00089026D01*
X00091566Y00235673D01*
Y00175673D02*
X00094106Y00178213D01*
X00096646D01*
X00094106Y00180753D01*
X00096646Y00183293D01*
X00094106D01*
X00091566Y00185833D01*
X00089026Y00183293D01*
X00086486D01*
X00089026Y00180753D01*
X00086486Y00178213D01*
X00089026D01*
X00091566Y00175673D01*
X00081566Y00255673D02*
X00084106Y00258213D01*
X00086646D01*
X00084106Y00260753D01*
X00086646Y00263293D01*
X00084106D01*
X00081566Y00265833D01*
X00079026Y00263293D01*
X00076486D01*
X00079026Y00260753D01*
X00076486Y00258213D01*
X00079026D01*
X00081566Y00255673D01*
X00086566Y00245673D02*
X00089106Y00248213D01*
X00091646D01*
X00089106Y00250753D01*
X00091646Y00253293D01*
X00089106D01*
X00086566Y00255833D01*
X00084026Y00253293D01*
X00081486D01*
X00084026Y00250753D01*
X00081486Y00248213D01*
X00084026D01*
X00086566Y00245673D01*
X00081566Y00235673D02*
X00084106Y00238213D01*
X00086646D01*
X00084106Y00240753D01*
X00086646Y00243293D01*
X00084106D01*
X00081566Y00245833D01*
X00079026Y00243293D01*
X00076486D01*
X00079026Y00240753D01*
X00076486Y00238213D01*
X00079026D01*
X00081566Y00235673D01*
Y00175673D02*
X00084106Y00178213D01*
X00086646D01*
X00084106Y00180753D01*
X00086646Y00183293D01*
X00084106D01*
X00081566Y00185833D01*
X00079026Y00183293D01*
X00076486D01*
X00079026Y00180753D01*
X00076486Y00178213D01*
X00079026D01*
X00081566Y00175673D01*
X00071566Y00295673D02*
X00074106Y00298213D01*
X00076646D01*
X00074106Y00300753D01*
X00076646Y00303293D01*
X00074106D01*
X00071566Y00305833D01*
X00069026Y00303293D01*
X00066486D01*
X00069026Y00300753D01*
X00066486Y00298213D01*
X00069026D01*
X00071566Y00295673D01*
X00076566Y00285673D02*
X00079106Y00288213D01*
X00081646D01*
X00079106Y00290753D01*
X00081646Y00293293D01*
X00079106D01*
X00076566Y00295833D01*
X00074026Y00293293D01*
X00071486D01*
X00074026Y00290753D01*
X00071486Y00288213D01*
X00074026D01*
X00076566Y00285673D01*
X00071566Y00275673D02*
X00074106Y00278213D01*
X00076646D01*
X00074106Y00280753D01*
X00076646Y00283293D01*
X00074106D01*
X00071566Y00285833D01*
X00069026Y00283293D01*
X00066486D01*
X00069026Y00280753D01*
X00066486Y00278213D01*
X00069026D01*
X00071566Y00275673D01*
X00076566Y00265673D02*
X00079106Y00268213D01*
X00081646D01*
X00079106Y00270753D01*
X00081646Y00273293D01*
X00079106D01*
X00076566Y00275833D01*
X00074026Y00273293D01*
X00071486D01*
X00074026Y00270753D01*
X00071486Y00268213D01*
X00074026D01*
X00076566Y00265673D01*
X00071566Y00255673D02*
X00074106Y00258213D01*
X00076646D01*
X00074106Y00260753D01*
X00076646Y00263293D01*
X00074106D01*
X00071566Y00265833D01*
X00069026Y00263293D01*
X00066486D01*
X00069026Y00260753D01*
X00066486Y00258213D01*
X00069026D01*
X00071566Y00255673D01*
X00076566Y00245673D02*
X00079106Y00248213D01*
X00081646D01*
X00079106Y00250753D01*
X00081646Y00253293D01*
X00079106D01*
X00076566Y00255833D01*
X00074026Y00253293D01*
X00071486D01*
X00074026Y00250753D01*
X00071486Y00248213D01*
X00074026D01*
X00076566Y00245673D01*
X00071566Y00235673D02*
X00074106Y00238213D01*
X00076646D01*
X00074106Y00240753D01*
X00076646Y00243293D01*
X00074106D01*
X00071566Y00245833D01*
X00069026Y00243293D01*
X00066486D01*
X00069026Y00240753D01*
X00066486Y00238213D01*
X00069026D01*
X00071566Y00235673D01*
Y00215673D02*
X00074106Y00218213D01*
X00076646D01*
X00074106Y00220753D01*
X00076646Y00223293D01*
X00074106D01*
X00071566Y00225833D01*
X00069026Y00223293D01*
X00066486D01*
X00069026Y00220753D01*
X00066486Y00218213D01*
X00069026D01*
X00071566Y00215673D01*
Y00195673D02*
X00074106Y00198213D01*
X00076646D01*
X00074106Y00200753D01*
X00076646Y00203293D01*
X00074106D01*
X00071566Y00205833D01*
X00069026Y00203293D01*
X00066486D01*
X00069026Y00200753D01*
X00066486Y00198213D01*
X00069026D01*
X00071566Y00195673D01*
Y00175673D02*
X00074106Y00178213D01*
X00076646D01*
X00074106Y00180753D01*
X00076646Y00183293D01*
X00074106D01*
X00071566Y00185833D01*
X00069026Y00183293D01*
X00066486D01*
X00069026Y00180753D01*
X00066486Y00178213D01*
X00069026D01*
X00071566Y00175673D01*
X00061566Y00295673D02*
X00064106Y00298213D01*
X00066646D01*
X00064106Y00300753D01*
X00066646Y00303293D01*
X00064106D01*
X00061566Y00305833D01*
X00059026Y00303293D01*
X00056486D01*
X00059026Y00300753D01*
X00056486Y00298213D01*
X00059026D01*
X00061566Y00295673D01*
X00066566Y00285673D02*
X00069106Y00288213D01*
X00071646D01*
X00069106Y00290753D01*
X00071646Y00293293D01*
X00069106D01*
X00066566Y00295833D01*
X00064026Y00293293D01*
X00061486D01*
X00064026Y00290753D01*
X00061486Y00288213D01*
X00064026D01*
X00066566Y00285673D01*
X00061566Y00275673D02*
X00064106Y00278213D01*
X00066646D01*
X00064106Y00280753D01*
X00066646Y00283293D01*
X00064106D01*
X00061566Y00285833D01*
X00059026Y00283293D01*
X00056486D01*
X00059026Y00280753D01*
X00056486Y00278213D01*
X00059026D01*
X00061566Y00275673D01*
X00066566Y00265673D02*
X00069106Y00268213D01*
X00071646D01*
X00069106Y00270753D01*
X00071646Y00273293D01*
X00069106D01*
X00066566Y00275833D01*
X00064026Y00273293D01*
X00061486D01*
X00064026Y00270753D01*
X00061486Y00268213D01*
X00064026D01*
X00066566Y00265673D01*
X00061566Y00255673D02*
X00064106Y00258213D01*
X00066646D01*
X00064106Y00260753D01*
X00066646Y00263293D01*
X00064106D01*
X00061566Y00265833D01*
X00059026Y00263293D01*
X00056486D01*
X00059026Y00260753D01*
X00056486Y00258213D01*
X00059026D01*
X00061566Y00255673D01*
X00066566Y00245673D02*
X00069106Y00248213D01*
X00071646D01*
X00069106Y00250753D01*
X00071646Y00253293D01*
X00069106D01*
X00066566Y00255833D01*
X00064026Y00253293D01*
X00061486D01*
X00064026Y00250753D01*
X00061486Y00248213D01*
X00064026D01*
X00066566Y00245673D01*
X00061566Y00235673D02*
X00064106Y00238213D01*
X00066646D01*
X00064106Y00240753D01*
X00066646Y00243293D01*
X00064106D01*
X00061566Y00245833D01*
X00059026Y00243293D01*
X00056486D01*
X00059026Y00240753D01*
X00056486Y00238213D01*
X00059026D01*
X00061566Y00235673D01*
X00066566Y00225673D02*
X00069106Y00228213D01*
X00071646D01*
X00069106Y00230753D01*
X00071646Y00233293D01*
X00069106D01*
X00066566Y00235833D01*
X00064026Y00233293D01*
X00061486D01*
X00064026Y00230753D01*
X00061486Y00228213D01*
X00064026D01*
X00066566Y00225673D01*
X00061566Y00215673D02*
X00064106Y00218213D01*
X00066646D01*
X00064106Y00220753D01*
X00066646Y00223293D01*
X00064106D01*
X00061566Y00225833D01*
X00059026Y00223293D01*
X00056486D01*
X00059026Y00220753D01*
X00056486Y00218213D01*
X00059026D01*
X00061566Y00215673D01*
X00066566Y00205673D02*
X00069106Y00208213D01*
X00071646D01*
X00069106Y00210753D01*
X00071646Y00213293D01*
X00069106D01*
X00066566Y00215833D01*
X00064026Y00213293D01*
X00061486D01*
X00064026Y00210753D01*
X00061486Y00208213D01*
X00064026D01*
X00066566Y00205673D01*
X00061566Y00195673D02*
X00064106Y00198213D01*
X00066646D01*
X00064106Y00200753D01*
X00066646Y00203293D01*
X00064106D01*
X00061566Y00205833D01*
X00059026Y00203293D01*
X00056486D01*
X00059026Y00200753D01*
X00056486Y00198213D01*
X00059026D01*
X00061566Y00195673D01*
X00051566Y00295673D02*
X00054106Y00298213D01*
X00056646D01*
X00054106Y00300753D01*
X00056646Y00303293D01*
X00054106D01*
X00051566Y00305833D01*
X00049026Y00303293D01*
X00046486D01*
X00049026Y00300753D01*
X00046486Y00298213D01*
X00049026D01*
X00051566Y00295673D01*
X00056566Y00285673D02*
X00059106Y00288213D01*
X00061646D01*
X00059106Y00290753D01*
X00061646Y00293293D01*
X00059106D01*
X00056566Y00295833D01*
X00054026Y00293293D01*
X00051486D01*
X00054026Y00290753D01*
X00051486Y00288213D01*
X00054026D01*
X00056566Y00285673D01*
X00051566Y00275673D02*
X00054106Y00278213D01*
X00056646D01*
X00054106Y00280753D01*
X00056646Y00283293D01*
X00054106D01*
X00051566Y00285833D01*
X00049026Y00283293D01*
X00046486D01*
X00049026Y00280753D01*
X00046486Y00278213D01*
X00049026D01*
X00051566Y00275673D01*
X00056566Y00265673D02*
X00059106Y00268213D01*
X00061646D01*
X00059106Y00270753D01*
X00061646Y00273293D01*
X00059106D01*
X00056566Y00275833D01*
X00054026Y00273293D01*
X00051486D01*
X00054026Y00270753D01*
X00051486Y00268213D01*
X00054026D01*
X00056566Y00265673D01*
X00051566Y00255673D02*
X00054106Y00258213D01*
X00056646D01*
X00054106Y00260753D01*
X00056646Y00263293D01*
X00054106D01*
X00051566Y00265833D01*
X00049026Y00263293D01*
X00046486D01*
X00049026Y00260753D01*
X00046486Y00258213D01*
X00049026D01*
X00051566Y00255673D01*
X00056566Y00245673D02*
X00059106Y00248213D01*
X00061646D01*
X00059106Y00250753D01*
X00061646Y00253293D01*
X00059106D01*
X00056566Y00255833D01*
X00054026Y00253293D01*
X00051486D01*
X00054026Y00250753D01*
X00051486Y00248213D01*
X00054026D01*
X00056566Y00245673D01*
X00051566Y00235673D02*
X00054106Y00238213D01*
X00056646D01*
X00054106Y00240753D01*
X00056646Y00243293D01*
X00054106D01*
X00051566Y00245833D01*
X00049026Y00243293D01*
X00046486D01*
X00049026Y00240753D01*
X00046486Y00238213D01*
X00049026D01*
X00051566Y00235673D01*
X00056566Y00225673D02*
X00059106Y00228213D01*
X00061646D01*
X00059106Y00230753D01*
X00061646Y00233293D01*
X00059106D01*
X00056566Y00235833D01*
X00054026Y00233293D01*
X00051486D01*
X00054026Y00230753D01*
X00051486Y00228213D01*
X00054026D01*
X00056566Y00225673D01*
X00051566Y00215673D02*
X00054106Y00218213D01*
X00056646D01*
X00054106Y00220753D01*
X00056646Y00223293D01*
X00054106D01*
X00051566Y00225833D01*
X00049026Y00223293D01*
X00046486D01*
X00049026Y00220753D01*
X00046486Y00218213D01*
X00049026D01*
X00051566Y00215673D01*
X00056566Y00205673D02*
X00059106Y00208213D01*
X00061646D01*
X00059106Y00210753D01*
X00061646Y00213293D01*
X00059106D01*
X00056566Y00215833D01*
X00054026Y00213293D01*
X00051486D01*
X00054026Y00210753D01*
X00051486Y00208213D01*
X00054026D01*
X00056566Y00205673D01*
X00031566Y00195673D02*
X00034106Y00198213D01*
X00036646D01*
X00034106Y00200753D01*
X00036646Y00203293D01*
X00034106D01*
X00031566Y00205833D01*
X00029026Y00203293D01*
X00026486D01*
X00029026Y00200753D01*
X00026486Y00198213D01*
X00029026D01*
X00031566Y00195673D01*
X00036566Y00185673D02*
X00039106Y00188213D01*
X00041646D01*
X00039106Y00190753D01*
X00041646Y00193293D01*
X00039106D01*
X00036566Y00195833D01*
X00034026Y00193293D01*
X00031486D01*
X00034026Y00190753D01*
X00031486Y00188213D01*
X00034026D01*
X00036566Y00185673D01*
X00031566Y00035673D02*
X00034106Y00038213D01*
X00036646D01*
X00034106Y00040753D01*
X00036646Y00043293D01*
X00034106D01*
X00031566Y00045833D01*
X00029026Y00043293D01*
X00026486D01*
X00029026Y00040753D01*
X00026486Y00038213D01*
X00029026D01*
X00031566Y00035673D01*
X00021566Y00295673D02*
X00024106Y00298213D01*
X00026646D01*
X00024106Y00300753D01*
X00026646Y00303293D01*
X00024106D01*
X00021566Y00305833D01*
X00019026Y00303293D01*
X00016486D01*
X00019026Y00300753D01*
X00016486Y00298213D01*
X00019026D01*
X00021566Y00295673D01*
X00026566Y00285673D02*
X00029106Y00288213D01*
X00031646D01*
X00029106Y00290753D01*
X00031646Y00293293D01*
X00029106D01*
X00026566Y00295833D01*
X00024026Y00293293D01*
X00021486D01*
X00024026Y00290753D01*
X00021486Y00288213D01*
X00024026D01*
X00026566Y00285673D01*
X00021566Y00275673D02*
X00024106Y00278213D01*
X00026646D01*
X00024106Y00280753D01*
X00026646Y00283293D01*
X00024106D01*
X00021566Y00285833D01*
X00019026Y00283293D01*
X00016486D01*
X00019026Y00280753D01*
X00016486Y00278213D01*
X00019026D01*
X00021566Y00275673D01*
X00026566Y00265673D02*
X00029106Y00268213D01*
X00031646D01*
X00029106Y00270753D01*
X00031646Y00273293D01*
X00029106D01*
X00026566Y00275833D01*
X00024026Y00273293D01*
X00021486D01*
X00024026Y00270753D01*
X00021486Y00268213D01*
X00024026D01*
X00026566Y00265673D01*
X00021566Y00255673D02*
X00024106Y00258213D01*
X00026646D01*
X00024106Y00260753D01*
X00026646Y00263293D01*
X00024106D01*
X00021566Y00265833D01*
X00019026Y00263293D01*
X00016486D01*
X00019026Y00260753D01*
X00016486Y00258213D01*
X00019026D01*
X00021566Y00255673D01*
X00026566Y00245673D02*
X00029106Y00248213D01*
X00031646D01*
X00029106Y00250753D01*
X00031646Y00253293D01*
X00029106D01*
X00026566Y00255833D01*
X00024026Y00253293D01*
X00021486D01*
X00024026Y00250753D01*
X00021486Y00248213D01*
X00024026D01*
X00026566Y00245673D01*
X00021566Y00235673D02*
X00024106Y00238213D01*
X00026646D01*
X00024106Y00240753D01*
X00026646Y00243293D01*
X00024106D01*
X00021566Y00245833D01*
X00019026Y00243293D01*
X00016486D01*
X00019026Y00240753D01*
X00016486Y00238213D01*
X00019026D01*
X00021566Y00235673D01*
X00026566Y00225673D02*
X00029106Y00228213D01*
X00031646D01*
X00029106Y00230753D01*
X00031646Y00233293D01*
X00029106D01*
X00026566Y00235833D01*
X00024026Y00233293D01*
X00021486D01*
X00024026Y00230753D01*
X00021486Y00228213D01*
X00024026D01*
X00026566Y00225673D01*
X00021566Y00215673D02*
X00024106Y00218213D01*
X00026646D01*
X00024106Y00220753D01*
X00026646Y00223293D01*
X00024106D01*
X00021566Y00225833D01*
X00019026Y00223293D01*
X00016486D01*
X00019026Y00220753D01*
X00016486Y00218213D01*
X00019026D01*
X00021566Y00215673D01*
X00026566Y00205673D02*
X00029106Y00208213D01*
X00031646D01*
X00029106Y00210753D01*
X00031646Y00213293D01*
X00029106D01*
X00026566Y00215833D01*
X00024026Y00213293D01*
X00021486D01*
X00024026Y00210753D01*
X00021486Y00208213D01*
X00024026D01*
X00026566Y00205673D01*
X00021566Y00195673D02*
X00024106Y00198213D01*
X00026646D01*
X00024106Y00200753D01*
X00026646Y00203293D01*
X00024106D01*
X00021566Y00205833D01*
X00019026Y00203293D01*
X00016486D01*
X00019026Y00200753D01*
X00016486Y00198213D01*
X00019026D01*
X00021566Y00195673D01*
X00026566Y00185673D02*
X00029106Y00188213D01*
X00031646D01*
X00029106Y00190753D01*
X00031646Y00193293D01*
X00029106D01*
X00026566Y00195833D01*
X00024026Y00193293D01*
X00021486D01*
X00024026Y00190753D01*
X00021486Y00188213D01*
X00024026D01*
X00026566Y00185673D01*
X00021566Y00175673D02*
X00024106Y00178213D01*
X00026646D01*
X00024106Y00180753D01*
X00026646Y00183293D01*
X00024106D01*
X00021566Y00185833D01*
X00019026Y00183293D01*
X00016486D01*
X00019026Y00180753D01*
X00016486Y00178213D01*
X00019026D01*
X00021566Y00175673D01*
X-00018434Y00035673D02*
X-00015894Y00038213D01*
X-00013354D01*
X-00015894Y00040753D01*
X-00013354Y00043293D01*
X-00015894D01*
X-00018434Y00045833D01*
X-00020974Y00043293D01*
X-00023514D01*
X-00020974Y00040753D01*
X-00023514Y00038213D01*
X-00020974D01*
X-00018434Y00035673D01*
Y00015673D02*
X-00015894Y00018213D01*
X-00013354D01*
X-00015894Y00020753D01*
X-00013354Y00023293D01*
X-00015894D01*
X-00018434Y00025833D01*
X-00020974Y00023293D01*
X-00023514D01*
X-00020974Y00020753D01*
X-00023514Y00018213D01*
X-00020974D01*
X-00018434Y00015673D01*
X-00023434Y00045673D02*
X-00020894Y00048213D01*
X-00018354D01*
X-00020894Y00050753D01*
X-00018354Y00053293D01*
X-00020894D01*
X-00023434Y00055833D01*
X-00025974Y00053293D01*
X-00028514D01*
X-00025974Y00050753D01*
X-00028514Y00048213D01*
X-00025974D01*
X-00023434Y00045673D01*
X-00028434Y00035673D02*
X-00025894Y00038213D01*
X-00023354D01*
X-00025894Y00040753D01*
X-00023354Y00043293D01*
X-00025894D01*
X-00028434Y00045833D01*
X-00030974Y00043293D01*
X-00033514D01*
X-00030974Y00040753D01*
X-00033514Y00038213D01*
X-00030974D01*
X-00028434Y00035673D01*
X-00023434Y00025673D02*
X-00020894Y00028213D01*
X-00018354D01*
X-00020894Y00030753D01*
X-00018354Y00033293D01*
X-00020894D01*
X-00023434Y00035833D01*
X-00025974Y00033293D01*
X-00028514D01*
X-00025974Y00030753D01*
X-00028514Y00028213D01*
X-00025974D01*
X-00023434Y00025673D01*
X-00038434Y00075673D02*
X-00035894Y00078213D01*
X-00033354D01*
X-00035894Y00080753D01*
X-00033354Y00083293D01*
X-00035894D01*
X-00038434Y00085833D01*
X-00040974Y00083293D01*
X-00043514D01*
X-00040974Y00080753D01*
X-00043514Y00078213D01*
X-00040974D01*
X-00038434Y00075673D01*
X-00033434Y00045673D02*
X-00030894Y00048213D01*
X-00028354D01*
X-00030894Y00050753D01*
X-00028354Y00053293D01*
X-00030894D01*
X-00033434Y00055833D01*
X-00035974Y00053293D01*
X-00038514D01*
X-00035974Y00050753D01*
X-00038514Y00048213D01*
X-00035974D01*
X-00033434Y00045673D01*
X-00038434Y00035673D02*
X-00035894Y00038213D01*
X-00033354D01*
X-00035894Y00040753D01*
X-00033354Y00043293D01*
X-00035894D01*
X-00038434Y00045833D01*
X-00040974Y00043293D01*
X-00043514D01*
X-00040974Y00040753D01*
X-00043514Y00038213D01*
X-00040974D01*
X-00038434Y00035673D01*
X-00033434Y00025673D02*
X-00030894Y00028213D01*
X-00028354D01*
X-00030894Y00030753D01*
X-00028354Y00033293D01*
X-00030894D01*
X-00033434Y00035833D01*
X-00035974Y00033293D01*
X-00038514D01*
X-00035974Y00030753D01*
X-00038514Y00028213D01*
X-00035974D01*
X-00033434Y00025673D01*
X-00043434Y00045673D02*
X-00040894Y00048213D01*
X-00038354D01*
X-00040894Y00050753D01*
X-00038354Y00053293D01*
X-00040894D01*
X-00043434Y00055833D01*
X-00045974Y00053293D01*
X-00048514D01*
X-00045974Y00050753D01*
X-00048514Y00048213D01*
X-00045974D01*
X-00043434Y00045673D01*
X00097774Y00206082D02*
X00100314Y00208622D01*
X00102854D01*
X00100314Y00211162D01*
X00102854Y00213702D01*
X00100314D01*
X00097774Y00216242D01*
X00095234Y00213702D01*
X00092694D01*
X00095234Y00211162D01*
X00092694Y00208622D01*
X00095234D01*
X00097774Y00206082D01*
X00128778Y00099314D02*
X00131318Y00101854D01*
X00133858D01*
X00131318Y00104394D01*
X00133858Y00106934D01*
X00131318D01*
X00128778Y00109474D01*
X00126238Y00106934D01*
X00123698D01*
X00126238Y00104394D01*
X00123698Y00101854D01*
X00126238D01*
X00128778Y00099314D01*
X00128524Y00113538D02*
X00131064Y00116078D01*
X00133604D01*
X00131064Y00118618D01*
X00133604Y00121158D01*
X00131064D01*
X00128524Y00123698D01*
X00125984Y00121158D01*
X00123444D01*
X00125984Y00118618D01*
X00123444Y00116078D01*
X00125984D01*
X00128524Y00113538D01*
X000242Y00090678D02*
X0002674Y00093218D01*
X0002928D01*
X0002674Y00095758D01*
X0002928Y00098298D01*
X0002674D01*
X000242Y00100838D01*
X0002166Y00098298D01*
X0001912D01*
X0002166Y00095758D01*
X0001912Y00093218D01*
X0002166D01*
X000242Y00090678D01*
X00082113Y00070082D02*
X00084653Y00072622D01*
X00087193D01*
X00084653Y00075162D01*
X00087193Y00077702D01*
X00084653D01*
X00082113Y00080242D01*
X00079573Y00077702D01*
X00077033D01*
X00079573Y00075162D01*
X00077033Y00072622D01*
X00079573D01*
X00082113Y00070082D01*
X00071083D02*
X00073623Y00072622D01*
X00076163D01*
X00073623Y00075162D01*
X00076163Y00077702D01*
X00073623D01*
X00071083Y00080242D01*
X00068543Y00077702D01*
X00066003D01*
X00068543Y00075162D01*
X00066003Y00072622D01*
X00068543D01*
X00071083Y00070082D01*
X00060052Y00085182D02*
X00062592Y00087722D01*
X00065132D01*
X00062592Y00090262D01*
X00065132Y00092802D01*
X00062592D01*
X00060052Y00095342D01*
X00057512Y00092802D01*
X00054972D01*
X00057512Y00090262D01*
X00054972Y00087722D01*
X00057512D01*
X00060052Y00085182D01*
X00049022D02*
X00051562Y00087722D01*
X00054102D01*
X00051562Y00090262D01*
X00054102Y00092802D01*
X00051562D01*
X00049022Y00095342D01*
X00046482Y00092802D01*
X00043942D01*
X00046482Y00090262D01*
X00043942Y00087722D01*
X00046482D01*
X00049022Y00085182D01*
X00250952Y00003048D02*
X00253492Y00005588D01*
X00256032D01*
X00253492Y00008128D01*
X00256032Y00010668D01*
X00253492D01*
X00250952Y00013208D01*
X00248412Y00010668D01*
X00245872D01*
X00248412Y00008128D01*
X00245872Y00005588D01*
X00248412D01*
X00250952Y00003048D01*
X00276098D02*
X00278638Y00005588D01*
X00281178D01*
X00278638Y00008128D01*
X00281178Y00010668D01*
X00278638D01*
X00276098Y00013208D01*
X00273558Y00010668D01*
X00271018D01*
X00273558Y00008128D01*
X00271018Y00005588D01*
X00273558D01*
X00276098Y00003048D01*
X0030099D02*
X0030353Y00005588D01*
X0030607D01*
X0030353Y00008128D01*
X0030607Y00010668D01*
X0030353D01*
X0030099Y00013208D01*
X0029845Y00010668D01*
X0029591D01*
X0029845Y00008128D01*
X0029591Y00005588D01*
X0029845D01*
X0030099Y00003048D01*
X00315214Y0002159D02*
X00317754Y0002413D01*
X00320294D01*
X00317754Y0002667D01*
X00320294Y0002921D01*
X00317754D01*
X00315214Y0003175D01*
X00312674Y0002921D01*
X00310134D01*
X00312674Y0002667D01*
X00310134Y0002413D01*
X00312674D01*
X00315214Y0002159D01*
X00276098Y00018104D02*
X00278638Y00020644D01*
X00281178D01*
X00278638Y00023184D01*
X00281178Y00025724D01*
X00278638D01*
X00276098Y00028264D01*
X00273558Y00025724D01*
X00271018D01*
X00273558Y00023184D01*
X00271018Y00020644D01*
X00273558D01*
X00276098Y00018104D01*
Y00033204D02*
X00278638Y00035744D01*
X00281178D01*
X00278638Y00038284D01*
X00281178Y00040824D01*
X00278638D01*
X00276098Y00043364D01*
X00273558Y00040824D01*
X00271018D01*
X00273558Y00038284D01*
X00271018Y00035744D01*
X00273558D01*
X00276098Y00033204D01*
X00162306Y00214732D02*
X00164846Y00217272D01*
X00167386D01*
X00164846Y00219812D01*
X00167386Y00222352D01*
X00164846D01*
X00162306Y00224892D01*
X00159766Y00222352D01*
X00157226D01*
X00159766Y00219812D01*
X00157226Y00217272D01*
X00159766D01*
X00162306Y00214732D01*
X00185928D02*
X00188468Y00217272D01*
X00191008D01*
X00188468Y00219812D01*
X00191008Y00222352D01*
X00188468D01*
X00185928Y00224892D01*
X00183388Y00222352D01*
X00180848D01*
X00183388Y00219812D01*
X00180848Y00217272D01*
X00183388D01*
X00185928Y00214732D01*
X00103579Y00265885D02*
X00106119Y00268425D01*
X00108659D01*
X00106119Y00270965D01*
X00108659Y00273505D01*
X00106119D01*
X00103579Y00276045D01*
X00101039Y00273505D01*
X00098499D01*
X00101039Y00270965D01*
X00098499Y00268425D01*
X00101039D01*
X00103579Y00265885D01*
X00368766Y00211684D02*
X00371306Y00214224D01*
X00373846D01*
X00371306Y00216764D01*
X00373846Y00219304D01*
X00371306D01*
X00368766Y00221844D01*
X00366226Y00219304D01*
X00363686D01*
X00366226Y00216764D01*
X00363686Y00214224D01*
X00366226D01*
X00368766Y00211684D01*
Y00197684D02*
X00371306Y00200224D01*
X00373846D01*
X00371306Y00202764D01*
X00373846Y00205304D01*
X00371306D01*
X00368766Y00207844D01*
X00366226Y00205304D01*
X00363686D01*
X00366226Y00202764D01*
X00363686Y00200224D01*
X00366226D01*
X00368766Y00197684D01*
X00103378Y00280162D02*
X00105918Y00282702D01*
X00108458D01*
X00105918Y00285242D01*
X00108458Y00287782D01*
X00105918D01*
X00103378Y00290322D01*
X00100838Y00287782D01*
X00098298D01*
X00100838Y00285242D01*
X00098298Y00282702D01*
X00100838D01*
X00103378Y00280162D01*
X00090678D02*
X00093218Y00282702D01*
X00095758D01*
X00093218Y00285242D01*
X00095758Y00287782D01*
X00093218D01*
X00090678Y00290322D01*
X00088138Y00287782D01*
X00085598D01*
X00088138Y00285242D01*
X00085598Y00282702D01*
X00088138D01*
X00090678Y00280162D01*
Y00292608D02*
X00093218Y00295148D01*
X00095758D01*
X00093218Y00297688D01*
X00095758Y00300228D01*
X00093218D01*
X00090678Y00302768D01*
X00088138Y00300228D01*
X00085598D01*
X00088138Y00297688D01*
X00085598Y00295148D01*
X00088138D01*
X00090678Y00292608D01*
X00103378D02*
X00105918Y00295148D01*
X00108458D01*
X00105918Y00297688D01*
X00108458Y00300228D01*
X00105918D01*
X00103378Y00302768D01*
X00100838Y00300228D01*
X00098298D01*
X00100838Y00297688D01*
X00098298Y00295148D01*
X00100838D01*
X00103378Y00292608D01*
X00116332Y00265684D02*
X00118872Y00268224D01*
X00121412D01*
X00118872Y00270764D01*
X00121412Y00273304D01*
X00118872D01*
X00116332Y00275844D01*
X00113792Y00273304D01*
X00111252D01*
X00113792Y00270764D01*
X00111252Y00268224D01*
X00113792D01*
X00116332Y00265684D01*
Y00280162D02*
X00118872Y00282702D01*
X00121412D01*
X00118872Y00285242D01*
X00121412Y00287782D01*
X00118872D01*
X00116332Y00290322D01*
X00113792Y00287782D01*
X00111252D01*
X00113792Y00285242D01*
X00111252Y00282702D01*
X00113792D01*
X00116332Y00280162D01*
Y00292608D02*
X00118872Y00295148D01*
X00121412D01*
X00118872Y00297688D01*
X00121412Y00300228D01*
X00118872D01*
X00116332Y00302768D01*
X00113792Y00300228D01*
X00111252D01*
X00113792Y00297688D01*
X00111252Y00295148D01*
X00113792D01*
X00116332Y00292608D01*
X00059182Y00179324D02*
X00061722Y00181864D01*
X00064262D01*
X00061722Y00184404D01*
X00064262Y00186944D01*
X00061722D01*
X00059182Y00189484D01*
X00056642Y00186944D01*
X00054102D01*
X00056642Y00184404D01*
X00054102Y00181864D01*
X00056642D01*
X00059182Y00179324D01*
X00047498Y00195072D02*
X00050038Y00197612D01*
X00052578D01*
X00050038Y00200152D01*
X00052578Y00202692D01*
X00050038D01*
X00047498Y00205232D01*
X00044958Y00202692D01*
X00042418D01*
X00044958Y00200152D01*
X00042418Y00197612D01*
X00044958D01*
X00047498Y00195072D01*
X00039624Y00219964D02*
X00042164Y00222504D01*
X00044704D01*
X00042164Y00225044D01*
X00044704Y00227584D01*
X00042164D01*
X00039624Y00230124D01*
X00037084Y00227584D01*
X00034544D01*
X00037084Y00225044D01*
X00034544Y00222504D01*
X00037084D01*
X00039624Y00219964D01*
Y00237744D02*
X00042164Y00240284D01*
X00044704D01*
X00042164Y00242824D01*
X00044704Y00245364D01*
X00042164D01*
X00039624Y00247904D01*
X00037084Y00245364D01*
X00034544D01*
X00037084Y00242824D01*
X00034544Y00240284D01*
X00037084D01*
X00039624Y00237744D01*
Y00252222D02*
X00042164Y00254762D01*
X00044704D01*
X00042164Y00257302D01*
X00044704Y00259842D01*
X00042164D01*
X00039624Y00262382D01*
X00037084Y00259842D01*
X00034544D01*
X00037084Y00257302D01*
X00034544Y00254762D01*
X00037084D01*
X00039624Y00252222D01*
Y00265684D02*
X00042164Y00268224D01*
X00044704D01*
X00042164Y00270764D01*
X00044704Y00273304D01*
X00042164D01*
X00039624Y00275844D01*
X00037084Y00273304D01*
X00034544D01*
X00037084Y00270764D01*
X00034544Y00268224D01*
X00037084D01*
X00039624Y00265684D01*
Y00280162D02*
X00042164Y00282702D01*
X00044704D01*
X00042164Y00285242D01*
X00044704Y00287782D01*
X00042164D01*
X00039624Y00290322D01*
X00037084Y00287782D01*
X00034544D01*
X00037084Y00285242D01*
X00034544Y00282702D01*
X00037084D01*
X00039624Y00280162D01*
Y00292608D02*
X00042164Y00295148D01*
X00044704D01*
X00042164Y00297688D01*
X00044704Y00300228D01*
X00042164D01*
X00039624Y00302768D01*
X00037084Y00300228D01*
X00034544D01*
X00037084Y00297688D01*
X00034544Y00295148D01*
X00037084D01*
X00039624Y00292608D01*
X00342138Y00121158D02*
X00344678Y00123698D01*
X00347218D01*
X00344678Y00126238D01*
X00347218Y00128778D01*
X00344678D01*
X00342138Y00131318D01*
X00339598Y00128778D01*
X00337058D01*
X00339598Y00126238D01*
X00337058Y00123698D01*
X00339598D01*
X00342138Y00121158D01*
X00310134Y00132334D02*
X00312674Y00134874D01*
X00315214D01*
X00312674Y00137414D01*
X00315214Y00139954D01*
X00312674D01*
X00310134Y00142494D01*
X00307594Y00139954D01*
X00305054D01*
X00307594Y00137414D01*
X00305054Y00134874D01*
X00307594D01*
X00310134Y00132334D01*
X00290576Y00152146D02*
X00293116Y00154686D01*
X00295656D01*
X00293116Y00157226D01*
X00295656Y00159766D01*
X00293116D01*
X00290576Y00162306D01*
X00288036Y00159766D01*
X00285496D01*
X00288036Y00157226D01*
X00285496Y00154686D01*
X00288036D01*
X00290576Y00152146D01*
X00342138Y00134874D02*
X00344678Y00137414D01*
X00347218D01*
X00344678Y00139954D01*
X00347218Y00142494D01*
X00344678D01*
X00342138Y00145034D01*
X00339598Y00142494D01*
X00337058D01*
X00339598Y00139954D01*
X00337058Y00137414D01*
X00339598D01*
X00342138Y00134874D01*
Y00148336D02*
X00344678Y00150876D01*
X00347218D01*
X00344678Y00153416D01*
X00347218Y00155956D01*
X00344678D01*
X00342138Y00158496D01*
X00339598Y00155956D01*
X00337058D01*
X00339598Y00153416D01*
X00337058Y00150876D01*
X00339598D01*
X00342138Y00148336D01*
X00310134Y0014732D02*
X00312674Y0014986D01*
X00315214D01*
X00312674Y001524D01*
X00315214Y0015494D01*
X00312674D01*
X00310134Y0015748D01*
X00307594Y0015494D01*
X00305054D01*
X00307594Y001524D01*
X00305054Y0014986D01*
X00307594D01*
X00310134Y0014732D01*
Y00163068D02*
X00312674Y00165608D01*
X00315214D01*
X00312674Y00168148D01*
X00315214Y00170688D01*
X00312674D01*
X00310134Y00173228D01*
X00307594Y00170688D01*
X00305054D01*
X00307594Y00168148D01*
X00305054Y00165608D01*
X00307594D01*
X00310134Y00163068D01*
X00290576Y00166624D02*
X00293116Y00169164D01*
X00295656D01*
X00293116Y00171704D01*
X00295656Y00174244D01*
X00293116D01*
X00290576Y00176784D01*
X00288036Y00174244D01*
X00285496D01*
X00288036Y00171704D01*
X00285496Y00169164D01*
X00288036D01*
X00290576Y00166624D01*
Y00183388D02*
X00293116Y00185928D01*
X00295656D01*
X00293116Y00188468D01*
X00295656Y00191008D01*
X00293116D01*
X00290576Y00193548D01*
X00288036Y00191008D01*
X00285496D01*
X00288036Y00188468D01*
X00285496Y00185928D01*
X00288036D01*
X00290576Y00183388D01*
X0026543D02*
X0026797Y00185928D01*
X0027051D01*
X0026797Y00188468D01*
X0027051Y00191008D01*
X0026797D01*
X0026543Y00193548D01*
X0026289Y00191008D01*
X0026035D01*
X0026289Y00188468D01*
X0026035Y00185928D01*
X0026289D01*
X0026543Y00183388D01*
Y00198628D02*
X0026797Y00201168D01*
X0027051D01*
X0026797Y00203708D01*
X0027051Y00206248D01*
X0026797D01*
X0026543Y00208788D01*
X0026289Y00206248D01*
X0026035D01*
X0026289Y00203708D01*
X0026035Y00201168D01*
X0026289D01*
X0026543Y00198628D01*
X0003429Y00158242D02*
X0003683Y00160782D01*
X0003937D01*
X0003683Y00163322D01*
X0003937Y00165862D01*
X0003683D01*
X0003429Y00168402D01*
X0003175Y00165862D01*
X0002921D01*
X0003175Y00163322D01*
X0002921Y00160782D01*
X0003175D01*
X0003429Y00158242D01*
Y00164338D02*
X0003683Y00166878D01*
X0003937D01*
X0003683Y00169418D01*
X0003937Y00171958D01*
X0003683D01*
X0003429Y00174498D01*
X0003175Y00171958D01*
X0002921D01*
X0003175Y00169418D01*
X0002921Y00166878D01*
X0003175D01*
X0003429Y00164338D01*
X-00000231Y00114554D02*
X00002309Y00117094D01*
X00004849D01*
X00002309Y00119634D01*
X00004849Y00122174D01*
X00002309D01*
X-00000231Y00124714D01*
X-00002771Y00122174D01*
X-00005311D01*
X-00002771Y00119634D01*
X-00005311Y00117094D01*
X-00002771D01*
X-00000231Y00114554D01*
X-00005935Y001143D02*
X-00003395Y0011684D01*
X-00000855D01*
X-00003395Y0011938D01*
X-00000855Y0012192D01*
X-00003395D01*
X-00005935Y0012446D01*
X-00008475Y0012192D01*
X-00011014D01*
X-00008475Y0011938D01*
X-00011014Y0011684D01*
X-00008475D01*
X-00005935Y001143D01*
X00005472Y00114554D02*
X00008012Y00117094D01*
X00010552D01*
X00008012Y00119634D01*
X00010552Y00122174D01*
X00008012D01*
X00005472Y00124714D01*
X00002932Y00122174D01*
X00000392D01*
X00002932Y00119634D01*
X00000392Y00117094D01*
X00002932D01*
X00005472Y00114554D01*
X00112274Y00094816D02*
X00114814Y00097356D01*
X00117354D01*
X00114814Y00099896D01*
X00117354Y00102436D01*
X00114814D01*
X00112274Y00104976D01*
X00109734Y00102436D01*
X00107194D01*
X00109734Y00099896D01*
X00107194Y00097356D01*
X00109734D01*
X00112274Y00094816D01*
X00034544Y00090354D02*
X00037084Y00092894D01*
X00039624D01*
X00037084Y00095434D01*
X00039624Y00097974D01*
X00037084D01*
X00034544Y00100514D01*
X00032004Y00097974D01*
X00029464D01*
X00032004Y00095434D01*
X00029464Y00092894D01*
X00032004D01*
X00034544Y00090354D01*
X00185928Y00189484D02*
X00188468Y00192024D01*
X00191008D01*
X00188468Y00194564D01*
X00191008Y00197104D01*
X00188468D01*
X00185928Y00199644D01*
X00183388Y00197104D01*
X00180848D01*
X00183388Y00194564D01*
X00180848Y00192024D01*
X00183388D01*
X00185928Y00189484D01*
Y00202438D02*
X00188468Y00204978D01*
X00191008D01*
X00188468Y00207518D01*
X00191008Y00210058D01*
X00188468D01*
X00185928Y00212598D01*
X00183388Y00210058D01*
X00180848D01*
X00183388Y00207518D01*
X00180848Y00204978D01*
X00183388D01*
X00185928Y00202438D01*
X00065024Y00144618D02*
X00067564Y00147158D01*
X00070104D01*
X00067564Y00149698D01*
X00070104Y00152238D01*
X00067564D01*
X00065024Y00154778D01*
X00062484Y00152238D01*
X00059944D01*
X00062484Y00149698D01*
X00059944Y00147158D01*
X00062484D01*
X00065024Y00144618D01*
X00053086D02*
X00055626Y00147158D01*
X00058166D01*
X00055626Y00149698D01*
X00058166Y00152238D01*
X00055626D01*
X00053086Y00154778D01*
X00050546Y00152238D01*
X00048006D01*
X00050546Y00149698D01*
X00048006Y00147158D01*
X00050546D01*
X00053086Y00144618D01*
X00020574Y00308582D02*
X00023114Y00311122D01*
X00025654D01*
X00023114Y00313662D01*
X00025654Y00316202D01*
X00023114D01*
X00020574Y00318742D01*
X00018034Y00316202D01*
X00015494D01*
X00018034Y00313662D01*
X00015494Y00311122D01*
X00018034D01*
X00020574Y00308582D01*
X00263144Y-0001905D02*
X00265684Y-0001651D01*
X00268224D01*
X00265684Y-0001397D01*
X00268224Y-0001143D01*
X00265684D01*
X00263144Y-0000889D01*
X00260604Y-0001143D01*
X00258064D01*
X00260604Y-0001397D01*
X00258064Y-0001651D01*
X00260604D01*
X00263144Y-0001905D01*
X00288544D02*
X00291084Y-0001651D01*
X00293624D01*
X00291084Y-0001397D01*
X00293624Y-0001143D01*
X00291084D01*
X00288544Y-0000889D01*
X00286004Y-0001143D01*
X00283464D01*
X00286004Y-0001397D01*
X00283464Y-0001651D01*
X00286004D01*
X00288544Y-0001905D01*
X00313944D02*
X00316484Y-0001651D01*
X00319024D01*
X00316484Y-0001397D01*
X00319024Y-0001143D01*
X00316484D01*
X00313944Y-0000889D01*
X00311404Y-0001143D01*
X00308864D01*
X00311404Y-0001397D01*
X00308864Y-0001651D01*
X00311404D01*
X00313944Y-0001905D01*
X00368766Y00169684D02*
X00371306Y00172224D01*
X00373846D01*
X00371306Y00174764D01*
X00373846Y00177304D01*
X00371306D01*
X00368766Y00179844D01*
X00366226Y00177304D01*
X00363686D01*
X00366226Y00174764D01*
X00363686Y00172224D01*
X00366226D01*
X00368766Y00169684D01*
X00219202Y0015748D02*
X00221742Y0016002D01*
X00224282D01*
X00221742Y0016256D01*
X00224282Y001651D01*
X00221742D01*
X00219202Y0016764D01*
X00216662Y001651D01*
X00214122D01*
X00216662Y0016256D01*
X00214122Y0016002D01*
X00216662D01*
X00219202Y0015748D01*
X00224409D02*
X00226949Y0016002D01*
X00229489D01*
X00226949Y0016256D01*
X00229489Y001651D01*
X00226949D01*
X00224409Y0016764D01*
X00221869Y001651D01*
X00219329D01*
X00221869Y0016256D01*
X00219329Y0016002D01*
X00221869D01*
X00224409Y0015748D01*
X00213995D02*
X00216535Y0016002D01*
X00219075D01*
X00216535Y0016256D01*
X00219075Y001651D01*
X00216535D01*
X00213995Y0016764D01*
X00211455Y001651D01*
X00208915D01*
X00211455Y0016256D01*
X00208915Y0016002D01*
X00211455D01*
X00213995Y0015748D01*
Y00152146D02*
X00216535Y00154686D01*
X00219075D01*
X00216535Y00157226D01*
X00219075Y00159766D01*
X00216535D01*
X00213995Y00162306D01*
X00211455Y00159766D01*
X00208915D01*
X00211455Y00157226D01*
X00208915Y00154686D01*
X00211455D01*
X00213995Y00152146D01*
X00224409D02*
X00226949Y00154686D01*
X00229489D01*
X00226949Y00157226D01*
X00229489Y00159766D01*
X00226949D01*
X00224409Y00162306D01*
X00221869Y00159766D01*
X00219329D01*
X00221869Y00157226D01*
X00219329Y00154686D01*
X00221869D01*
X00224409Y00152146D01*
X00219202D02*
X00221742Y00154686D01*
X00224282D01*
X00221742Y00157226D01*
X00224282Y00159766D01*
X00221742D01*
X00219202Y00162306D01*
X00216662Y00159766D01*
X00214122D01*
X00216662Y00157226D01*
X00214122Y00154686D01*
X00216662D01*
X00219202Y00152146D01*
X0004699Y00103378D02*
X0004953Y00105918D01*
X0005207D01*
X0004953Y00108458D01*
X0005207Y00110998D01*
X0004953D01*
X0004699Y00113538D01*
X0004445Y00110998D01*
X0004191D01*
X0004445Y00108458D01*
X0004191Y00105918D01*
X0004445D01*
X0004699Y00103378D01*
X00339598Y-0001905D02*
X00342138Y-0001651D01*
X00344678D01*
X00342138Y-0001397D01*
X00344678Y-0001143D01*
X00342138D01*
X00339598Y-0000889D01*
X00337058Y-0001143D01*
X00334518D01*
X00337058Y-0001397D01*
X00334518Y-0001651D01*
X00337058D01*
X00339598Y-0001905D01*
X00009144D02*
X00011684Y-0001651D01*
X00014224D01*
X00011684Y-0001397D01*
X00014224Y-0001143D01*
X00011684D01*
X00009144Y-0000889D01*
X00006604Y-0001143D01*
X00004064D01*
X00006604Y-0001397D01*
X00004064Y-0001651D01*
X00006604D01*
X00009144Y-0001905D01*
Y-00011938D02*
X00011684Y-00009398D01*
X00014224D01*
X00011684Y-00006858D01*
X00014224Y-00004318D01*
X00011684D01*
X00009144Y-00001778D01*
X00006604Y-00004318D01*
X00004064D01*
X00006604Y-00006858D01*
X00004064Y-00009398D01*
X00006604D01*
X00009144Y-00011938D01*
Y-00026162D02*
X00011684Y-00023622D01*
X00014224D01*
X00011684Y-00021082D01*
X00014224Y-00018542D01*
X00011684D01*
X00009144Y-00016002D01*
X00006604Y-00018542D01*
X00004064D01*
X00006604Y-00021082D01*
X00004064Y-00023622D01*
X00006604D01*
X00009144Y-00026162D01*
X00004064D02*
X00006604Y-00023622D01*
X00009144D01*
X00006604Y-00021082D01*
X00009144Y-00018542D01*
X00006604D01*
X00004064Y-00016002D01*
X00001524Y-00018542D01*
X-00001016D01*
X00001524Y-00021082D01*
X-00001016Y-00023622D01*
X00001524D01*
X00004064Y-00026162D01*
Y-00011938D02*
X00006604Y-00009398D01*
X00009144D01*
X00006604Y-00006858D01*
X00009144Y-00004318D01*
X00006604D01*
X00004064Y-00001778D01*
X00001524Y-00004318D01*
X-00001016D01*
X00001524Y-00006858D01*
X-00001016Y-00009398D01*
X00001524D01*
X00004064Y-00011938D01*
Y-0001905D02*
X00006604Y-0001651D01*
X00009144D01*
X00006604Y-0001397D01*
X00009144Y-0001143D01*
X00006604D01*
X00004064Y-0000889D01*
X00001524Y-0001143D01*
X-00001016D01*
X00001524Y-0001397D01*
X-00001016Y-0001651D01*
X00001524D01*
X00004064Y-0001905D01*
X00014224Y-00026162D02*
X00016764Y-00023622D01*
X00019304D01*
X00016764Y-00021082D01*
X00019304Y-00018542D01*
X00016764D01*
X00014224Y-00016002D01*
X00011684Y-00018542D01*
X00009144D01*
X00011684Y-00021082D01*
X00009144Y-00023622D01*
X00011684D01*
X00014224Y-00026162D01*
Y-00011938D02*
X00016764Y-00009398D01*
X00019304D01*
X00016764Y-00006858D01*
X00019304Y-00004318D01*
X00016764D01*
X00014224Y-00001778D01*
X00011684Y-00004318D01*
X00009144D01*
X00011684Y-00006858D01*
X00009144Y-00009398D01*
X00011684D01*
X00014224Y-00011938D01*
Y-0001905D02*
X00016764Y-0001651D01*
X00019304D01*
X00016764Y-0001397D01*
X00019304Y-0001143D01*
X00016764D01*
X00014224Y-0000889D01*
X00011684Y-0001143D01*
X00009144D01*
X00011684Y-0001397D01*
X00009144Y-0001651D01*
X00011684D01*
X00014224Y-0001905D01*
X00112274Y00100832D02*
X00114814Y00103372D01*
X00117354D01*
X00114814Y00105912D01*
X00117354Y00108452D01*
X00114814D01*
X00112274Y00110992D01*
X00109734Y00108452D01*
X00107194D01*
X00109734Y00105912D01*
X00107194Y00103372D01*
X00109734D01*
X00112274Y00100832D01*
X00112014Y00107332D02*
X00114554Y00109872D01*
X00117094D01*
X00114554Y00112412D01*
X00117094Y00114952D01*
X00114554D01*
X00112014Y00117492D01*
X00109474Y00114952D01*
X00106934D01*
X00109474Y00112412D01*
X00106934Y00109872D01*
X00109474D01*
X00112014Y00107332D01*
X00181866D02*
X00184406Y00109872D01*
X00186946D01*
X00184406Y00112412D01*
X00186946Y00114952D01*
X00184406D01*
X00181866Y00117492D01*
X00179326Y00114952D01*
X00176786D01*
X00179326Y00112412D01*
X00176786Y00109872D01*
X00179326D01*
X00181866Y00107332D01*
Y00094332D02*
X00184406Y00096872D01*
X00186946D01*
X00184406Y00099412D01*
X00186946Y00101952D01*
X00184406D01*
X00181866Y00104492D01*
X00179326Y00101952D01*
X00176786D01*
X00179326Y00099412D01*
X00176786Y00096872D01*
X00179326D01*
X00181866Y00094332D01*
Y00087832D02*
X00184406Y00090372D01*
X00186946D01*
X00184406Y00092912D01*
X00186946Y00095452D01*
X00184406D01*
X00181866Y00097992D01*
X00179326Y00095452D01*
X00176786D01*
X00179326Y00092912D01*
X00176786Y00090372D01*
X00179326D01*
X00181866Y00087832D01*
Y00081332D02*
X00184406Y00083872D01*
X00186946D01*
X00184406Y00086412D01*
X00186946Y00088952D01*
X00184406D01*
X00181866Y00091492D01*
X00179326Y00088952D01*
X00176786D01*
X00179326Y00086412D01*
X00176786Y00083872D01*
X00179326D01*
X00181866Y00081332D01*
Y00074832D02*
X00184406Y00077372D01*
X00186946D01*
X00184406Y00079912D01*
X00186946Y00082452D01*
X00184406D01*
X00181866Y00084992D01*
X00179326Y00082452D01*
X00176786D01*
X00179326Y00079912D01*
X00176786Y00077372D01*
X00179326D01*
X00181866Y00074832D01*
X00136144D02*
X00138684Y00077372D01*
X00141224D01*
X00138684Y00079912D01*
X00141224Y00082452D01*
X00138684D01*
X00136144Y00084992D01*
X00133604Y00082452D01*
X00131064D01*
X00133604Y00079912D01*
X00131064Y00077372D01*
X00133604D01*
X00136144Y00074832D01*
X00161544D02*
X00164084Y00077372D01*
X00166624D01*
X00164084Y00079912D01*
X00166624Y00082452D01*
X00164084D01*
X00161544Y00084992D01*
X00159004Y00082452D01*
X00156464D01*
X00159004Y00079912D01*
X00156464Y00077372D01*
X00159004D01*
X00161544Y00074832D01*
Y-0001905D02*
X00164084Y-0001651D01*
X00166624D01*
X00164084Y-0001397D01*
X00166624Y-0001143D01*
X00164084D01*
X00161544Y-0000889D01*
X00159004Y-0001143D01*
X00156464D01*
X00159004Y-0001397D01*
X00156464Y-0001651D01*
X00159004D01*
X00161544Y-0001905D01*
X00136144D02*
X00138684Y-0001651D01*
X00141224D01*
X00138684Y-0001397D01*
X00141224Y-0001143D01*
X00138684D01*
X00136144Y-0000889D01*
X00133604Y-0001143D01*
X00131064D01*
X00133604Y-0001397D01*
X00131064Y-0001651D01*
X00133604D01*
X00136144Y-0001905D01*
X00071083Y00046876D02*
X00073623Y00049416D01*
X00076163D01*
X00073623Y00051956D01*
X00076163Y00054496D01*
X00073623D01*
X00071083Y00057036D01*
X00068543Y00054496D01*
X00066003D01*
X00068543Y00051956D01*
X00066003Y00049416D01*
X00068543D01*
X00071083Y00046876D01*
X00049022Y00062476D02*
X00051562Y00065016D01*
X00054102D01*
X00051562Y00067556D01*
X00054102Y00070096D01*
X00051562D01*
X00049022Y00072636D01*
X00046482Y00070096D01*
X00043942D01*
X00046482Y00067556D01*
X00043942Y00065016D01*
X00046482D01*
X00049022Y00062476D01*
X00082113Y00046876D02*
X00084653Y00049416D01*
X00087193D01*
X00084653Y00051956D01*
X00087193Y00054496D01*
X00084653D01*
X00082113Y00057036D01*
X00079573Y00054496D01*
X00077033D01*
X00079573Y00051956D01*
X00077033Y00049416D01*
X00079573D01*
X00082113Y00046876D01*
X00060052Y00062476D02*
X00062592Y00065016D01*
X00065132D01*
X00062592Y00067556D01*
X00065132Y00070096D01*
X00062592D01*
X00060052Y00072636D01*
X00057512Y00070096D01*
X00054972D01*
X00057512Y00067556D01*
X00054972Y00065016D01*
X00057512D01*
X00060052Y00062476D01*
X00083774Y00192082D02*
X00086314Y00194622D01*
X00088854D01*
X00086314Y00197162D01*
X00088854Y00199702D01*
X00086314D01*
X00083774Y00202242D01*
X00081234Y00199702D01*
X00078694D01*
X00081234Y00197162D01*
X00078694Y00194622D01*
X00081234D01*
X00083774Y00192082D01*
X00097774D02*
X00100314Y00194622D01*
X00102854D01*
X00100314Y00197162D01*
X00102854Y00199702D01*
X00100314D01*
X00097774Y00202242D01*
X00095234Y00199702D01*
X00092694D01*
X00095234Y00197162D01*
X00092694Y00194622D01*
X00095234D01*
X00097774Y00192082D01*
X00111774D02*
X00114314Y00194622D01*
X00116854D01*
X00114314Y00197162D01*
X00116854Y00199702D01*
X00114314D01*
X00111774Y00202242D01*
X00109234Y00199702D01*
X00106694D01*
X00109234Y00197162D01*
X00106694Y00194622D01*
X00109234D01*
X00111774Y00192082D01*
Y00206082D02*
X00114314Y00208622D01*
X00116854D01*
X00114314Y00211162D01*
X00116854Y00213702D01*
X00114314D01*
X00111774Y00216242D01*
X00109234Y00213702D01*
X00106694D01*
X00109234Y00211162D01*
X00106694Y00208622D01*
X00109234D01*
X00111774Y00206082D01*
Y00220082D02*
X00114314Y00222622D01*
X00116854D01*
X00114314Y00225162D01*
X00116854Y00227702D01*
X00114314D01*
X00111774Y00230242D01*
X00109234Y00227702D01*
X00106694D01*
X00109234Y00225162D01*
X00106694Y00222622D01*
X00109234D01*
X00111774Y00220082D01*
X00097774D02*
X00100314Y00222622D01*
X00102854D01*
X00100314Y00225162D01*
X00102854Y00227702D01*
X00100314D01*
X00097774Y00230242D01*
X00095234Y00227702D01*
X00092694D01*
X00095234Y00225162D01*
X00092694Y00222622D01*
X00095234D01*
X00097774Y00220082D01*
X00083774D02*
X00086314Y00222622D01*
X00088854D01*
X00086314Y00225162D01*
X00088854Y00227702D01*
X00086314D01*
X00083774Y00230242D01*
X00081234Y00227702D01*
X00078694D01*
X00081234Y00225162D01*
X00078694Y00222622D01*
X00081234D01*
X00083774Y00220082D01*
Y00206082D02*
X00086314Y00208622D01*
X00088854D01*
X00086314Y00211162D01*
X00088854Y00213702D01*
X00086314D01*
X00083774Y00216242D01*
X00081234Y00213702D01*
X00078694D01*
X00081234Y00211162D01*
X00078694Y00208622D01*
X00081234D01*
X00083774Y00206082D01*
X00033274Y00133582D02*
X00035814Y00136122D01*
X00038354D01*
X00035814Y00138662D01*
X00038354Y00141202D01*
X00035814D01*
X00033274Y00143742D01*
X00030734Y00141202D01*
X00028194D01*
X00030734Y00138662D01*
X00028194Y00136122D01*
X00030734D01*
X00033274Y00133582D01*
X00045974D02*
X00048514Y00136122D01*
X00051054D01*
X00048514Y00138662D01*
X00051054Y00141202D01*
X00048514D01*
X00045974Y00143742D01*
X00043434Y00141202D01*
X00040894D01*
X00043434Y00138662D01*
X00040894Y00136122D01*
X00043434D01*
X00045974Y00133582D01*
X00185928Y00309372D02*
X00188468Y00311912D01*
X00191008D01*
X00188468Y00314452D01*
X00191008Y00316992D01*
X00188468D01*
X00185928Y00319532D01*
X00183388Y00316992D01*
X00180848D01*
X00183388Y00314452D01*
X00180848Y00311912D01*
X00183388D01*
X00185928Y00309372D01*
X00005472Y00120142D02*
X00008012Y00122682D01*
X00010552D01*
X00008012Y00125222D01*
X00010552Y00127762D01*
X00008012D01*
X00005472Y00130302D01*
X00002932Y00127762D01*
X00000392D01*
X00002932Y00125222D01*
X00000392Y00122682D01*
X00002932D01*
X00005472Y00120142D01*
X00198174Y00227432D02*
X00200714Y00229972D01*
X00203254D01*
X00200714Y00232512D01*
X00203254Y00235052D01*
X00200714D01*
X00198174Y00237592D01*
X00195634Y00235052D01*
X00193094D01*
X00195634Y00232512D01*
X00193094Y00229972D01*
X00195634D01*
X00198174Y00227432D01*
Y00240132D02*
X00200714Y00242672D01*
X00203254D01*
X00200714Y00245212D01*
X00203254Y00247752D01*
X00200714D01*
X00198174Y00250292D01*
X00195634Y00247752D01*
X00193094D01*
X00195634Y00245212D01*
X00193094Y00242672D01*
X00195634D01*
X00198174Y00240132D01*
Y00252832D02*
X00200714Y00255372D01*
X00203254D01*
X00200714Y00257912D01*
X00203254Y00260452D01*
X00200714D01*
X00198174Y00262992D01*
X00195634Y00260452D01*
X00193094D01*
X00195634Y00257912D01*
X00193094Y00255372D01*
X00195634D01*
X00198174Y00252832D01*
X00284816Y00127684D02*
X00287356Y00130224D01*
X00289896D01*
X00287356Y00132764D01*
X00289896Y00135304D01*
X00287356D01*
X00284816Y00137844D01*
X00282276Y00135304D01*
X00279736D01*
X00282276Y00132764D01*
X00279736Y00130224D01*
X00282276D01*
X00284816Y00127684D01*
X00270816D02*
X00273356Y00130224D01*
X00275896D01*
X00273356Y00132764D01*
X00275896Y00135304D01*
X00273356D01*
X00270816Y00137844D01*
X00268276Y00135304D01*
X00265736D01*
X00268276Y00132764D01*
X00265736Y00130224D01*
X00268276D01*
X00270816Y00127684D01*
X00256816D02*
X00259356Y00130224D01*
X00261896D01*
X00259356Y00132764D01*
X00261896Y00135304D01*
X00259356D01*
X00256816Y00137844D01*
X00254276Y00135304D01*
X00251736D01*
X00254276Y00132764D01*
X00251736Y00130224D01*
X00254276D01*
X00256816Y00127684D01*
X00211074Y00229069D02*
X00213614Y00231609D01*
X00216154D01*
X00213614Y00234149D01*
X00216154Y00236689D01*
X00213614D01*
X00211074Y00239229D01*
X00208534Y00236689D01*
X00205994D01*
X00208534Y00234149D01*
X00205994Y00231609D01*
X00208534D01*
X00211074Y00229069D01*
X00217551D02*
X00220091Y00231609D01*
X00222631D01*
X00220091Y00234149D01*
X00222631Y00236689D01*
X00220091D01*
X00217551Y00239229D01*
X00215011Y00236689D01*
X00212471D01*
X00215011Y00234149D01*
X00212471Y00231609D01*
X00215011D01*
X00217551Y00229069D01*
X00224028D02*
X00226568Y00231609D01*
X00229108D01*
X00226568Y00234149D01*
X00229108Y00236689D01*
X00226568D01*
X00224028Y00239229D01*
X00221488Y00236689D01*
X00218948D01*
X00221488Y00234149D01*
X00218948Y00231609D01*
X00221488D01*
X00224028Y00229069D01*
X-0001009Y00003302D02*
X-0000755Y00005842D01*
X-0000501D01*
X-0000755Y00008382D01*
X-0000501Y00010922D01*
X-0000755D01*
X-0001009Y00013462D01*
X-0001263Y00010922D01*
X-0001517D01*
X-0001263Y00008382D01*
X-0001517Y00005842D01*
X-0001263D01*
X-0001009Y00003302D01*
X00112274Y00113832D02*
X00114814Y00116372D01*
X00117354D01*
X00114814Y00118912D01*
X00117354Y00121452D01*
X00114814D01*
X00112274Y00123992D01*
X00109734Y00121452D01*
X00107194D01*
X00109734Y00118912D01*
X00107194Y00116372D01*
X00109734D01*
X00112274Y00113832D01*
X00361188Y-00012954D02*
X00363728Y-00010414D01*
X00366268D01*
X00363728Y-00007874D01*
X00366268Y-00005334D01*
X00363728D01*
X00361188Y-00002794D01*
X00358648Y-00005334D01*
X00356108D01*
X00358648Y-00007874D01*
X00356108Y-00010414D01*
X00358648D01*
X00361188Y-00012954D01*
X00368808D02*
X00371348Y-00010414D01*
X00373888D01*
X00371348Y-00007874D01*
X00373888Y-00005334D01*
X00371348D01*
X00368808Y-00002794D01*
X00366268Y-00005334D01*
X00363728D01*
X00366268Y-00007874D01*
X00363728Y-00010414D01*
X00366268D01*
X00368808Y-00012954D01*
Y-0002032D02*
X00371348Y-0001778D01*
X00373888D01*
X00371348Y-0001524D01*
X00373888Y-000127D01*
X00371348D01*
X00368808Y-0001016D01*
X00366268Y-000127D01*
X00363728D01*
X00366268Y-0001524D01*
X00363728Y-0001778D01*
X00366268D01*
X00368808Y-0002032D01*
X00361188Y-00027686D02*
X00363728Y-00025146D01*
X00366268D01*
X00363728Y-00022606D01*
X00366268Y-00020066D01*
X00363728D01*
X00361188Y-00017526D01*
X00358648Y-00020066D01*
X00356108D01*
X00358648Y-00022606D01*
X00356108Y-00025146D01*
X00358648D01*
X00361188Y-00027686D01*
X00368808D02*
X00371348Y-00025146D01*
X00373888D01*
X00371348Y-00022606D01*
X00373888Y-00020066D01*
X00371348D01*
X00368808Y-00017526D01*
X00366268Y-00020066D01*
X00363728D01*
X00366268Y-00022606D01*
X00363728Y-00025146D01*
X00366268D01*
X00368808Y-00027686D01*
X00361188Y-0002032D02*
X00363728Y-0001778D01*
X00366268D01*
X00363728Y-0001524D01*
X00366268Y-000127D01*
X00363728D01*
X00361188Y-0001016D01*
X00358648Y-000127D01*
X00356108D01*
X00358648Y-0001524D01*
X00356108Y-0001778D01*
X00358648D01*
X00361188Y-0002032D01*
X00213614Y00144272D02*
X00216154Y00146812D01*
X00218694D01*
X00216154Y00149352D01*
X00218694Y00151892D01*
X00216154D01*
X00213614Y00154432D01*
X00211074Y00151892D01*
X00208534D01*
X00211074Y00149352D01*
X00208534Y00146812D01*
X00211074D01*
X00213614Y00144272D01*
X00219456D02*
X00221996Y00146812D01*
X00224536D01*
X00221996Y00149352D01*
X00224536Y00151892D01*
X00221996D01*
X00219456Y00154432D01*
X00216916Y00151892D01*
X00214376D01*
X00216916Y00149352D01*
X00214376Y00146812D01*
X00216916D01*
X00219456Y00144272D01*
X00225298D02*
X00227838Y00146812D01*
X00230378D01*
X00227838Y00149352D01*
X00230378Y00151892D01*
X00227838D01*
X00225298Y00154432D01*
X00222758Y00151892D01*
X00220218D01*
X00222758Y00149352D01*
X00220218Y00146812D01*
X00222758D01*
X00225298Y00144272D01*
Y00137922D02*
X00227838Y00140462D01*
X00230378D01*
X00227838Y00143002D01*
X00230378Y00145542D01*
X00227838D01*
X00225298Y00148082D01*
X00222758Y00145542D01*
X00220218D01*
X00222758Y00143002D01*
X00220218Y00140462D01*
X00222758D01*
X00225298Y00137922D01*
X00219456D02*
X00221996Y00140462D01*
X00224536D01*
X00221996Y00143002D01*
X00224536Y00145542D01*
X00221996D01*
X00219456Y00148082D01*
X00216916Y00145542D01*
X00214376D01*
X00216916Y00143002D01*
X00214376Y00140462D01*
X00216916D01*
X00219456Y00137922D01*
X00213614D02*
X00216154Y00140462D01*
X00218694D01*
X00216154Y00143002D01*
X00218694Y00145542D01*
X00216154D01*
X00213614Y00148082D01*
X00211074Y00145542D01*
X00208534D01*
X00211074Y00143002D01*
X00208534Y00140462D01*
X00211074D01*
X00213614Y00137922D01*
X00192024Y-0001905D02*
X00194564Y-0001651D01*
X00197104D01*
X00194564Y-0001397D01*
X00197104Y-0001143D01*
X00194564D01*
X00192024Y-0000889D01*
X00189484Y-0001143D01*
X00186944D01*
X00189484Y-0001397D01*
X00186944Y-0001651D01*
X00189484D01*
X00192024Y-0001905D01*
Y-00011938D02*
X00194564Y-00009398D01*
X00197104D01*
X00194564Y-00006858D01*
X00197104Y-00004318D01*
X00194564D01*
X00192024Y-00001778D01*
X00189484Y-00004318D01*
X00186944D01*
X00189484Y-00006858D01*
X00186944Y-00009398D01*
X00189484D01*
X00192024Y-00011938D01*
Y-00026162D02*
X00194564Y-00023622D01*
X00197104D01*
X00194564Y-00021082D01*
X00197104Y-00018542D01*
X00194564D01*
X00192024Y-00016002D01*
X00189484Y-00018542D01*
X00186944D01*
X00189484Y-00021082D01*
X00186944Y-00023622D01*
X00189484D01*
X00192024Y-00026162D01*
X00181864Y-0001905D02*
X00184404Y-0001651D01*
X00186944D01*
X00184404Y-0001397D01*
X00186944Y-0001143D01*
X00184404D01*
X00181864Y-0000889D01*
X00179324Y-0001143D01*
X00176784D01*
X00179324Y-0001397D01*
X00176784Y-0001651D01*
X00179324D01*
X00181864Y-0001905D01*
Y-00011938D02*
X00184404Y-00009398D01*
X00186944D01*
X00184404Y-00006858D01*
X00186944Y-00004318D01*
X00184404D01*
X00181864Y-00001778D01*
X00179324Y-00004318D01*
X00176784D01*
X00179324Y-00006858D01*
X00176784Y-00009398D01*
X00179324D01*
X00181864Y-00011938D01*
Y-00026162D02*
X00184404Y-00023622D01*
X00186944D01*
X00184404Y-00021082D01*
X00186944Y-00018542D01*
X00184404D01*
X00181864Y-00016002D01*
X00179324Y-00018542D01*
X00176784D01*
X00179324Y-00021082D01*
X00176784Y-00023622D01*
X00179324D01*
X00181864Y-00026162D01*
X00186944D02*
X00189484Y-00023622D01*
X00192024D01*
X00189484Y-00021082D01*
X00192024Y-00018542D01*
X00189484D01*
X00186944Y-00016002D01*
X00184404Y-00018542D01*
X00181864D01*
X00184404Y-00021082D01*
X00181864Y-00023622D01*
X00184404D01*
X00186944Y-00026162D01*
Y-00011938D02*
X00189484Y-00009398D01*
X00192024D01*
X00189484Y-00006858D01*
X00192024Y-00004318D01*
X00189484D01*
X00186944Y-00001778D01*
X00184404Y-00004318D01*
X00181864D01*
X00184404Y-00006858D01*
X00181864Y-00009398D01*
X00184404D01*
X00186944Y-00011938D01*
Y-0001905D02*
X00189484Y-0001651D01*
X00192024D01*
X00189484Y-0001397D01*
X00192024Y-0001143D01*
X00189484D01*
X00186944Y-0000889D01*
X00184404Y-0001143D01*
X00181864D01*
X00184404Y-0001397D01*
X00181864Y-0001651D01*
X00184404D01*
X00186944Y-0001905D01*
X00020828Y00004572D02*
X00023368Y00007112D01*
X00025908D01*
X00023368Y00009652D01*
X00025908Y00012192D01*
X00023368D01*
X00020828Y00014732D01*
X00018288Y00012192D01*
X00015748D01*
X00018288Y00009652D01*
X00015748Y00007112D01*
X00018288D01*
X00020828Y00004572D01*
Y00000508D02*
X00023368Y00003048D01*
X00025908D01*
X00023368Y00005588D01*
X00025908Y00008128D01*
X00023368D01*
X00020828Y00010668D01*
X00018288Y00008128D01*
X00015748D01*
X00018288Y00005588D01*
X00015748Y00003048D01*
X00018288D01*
X00020828Y00000508D01*
X00024892D02*
X00027432Y00003048D01*
X00029972D01*
X00027432Y00005588D01*
X00029972Y00008128D01*
X00027432D01*
X00024892Y00010668D01*
X00022352Y00008128D01*
X00019812D01*
X00022352Y00005588D01*
X00019812Y00003048D01*
X00022352D01*
X00024892Y00000508D01*
Y00004572D02*
X00027432Y00007112D01*
X00029972D01*
X00027432Y00009652D01*
X00029972Y00012192D01*
X00027432D01*
X00024892Y00014732D01*
X00022352Y00012192D01*
X00019812D01*
X00022352Y00009652D01*
X00019812Y00007112D01*
X00022352D01*
X00024892Y00004572D01*
X00185674Y00133582D02*
X00188214Y00136122D01*
X00190754D01*
X00188214Y00138662D01*
X00190754Y00141202D01*
X00188214D01*
X00185674Y00143742D01*
X00183134Y00141202D01*
X00180594D01*
X00183134Y00138662D01*
X00180594Y00136122D01*
X00183134D01*
X00185674Y00133582D01*
X00172974D02*
X00175514Y00136122D01*
X00178054D01*
X00175514Y00138662D01*
X00178054Y00141202D01*
X00175514D01*
X00172974Y00143742D01*
X00170434Y00141202D01*
X00167894D01*
X00170434Y00138662D01*
X00167894Y00136122D01*
X00170434D01*
X00172974Y00133582D01*
X00122174D02*
X00124714Y00136122D01*
X00127254D01*
X00124714Y00138662D01*
X00127254Y00141202D01*
X00124714D01*
X00122174Y00143742D01*
X00119634Y00141202D01*
X00117094D01*
X00119634Y00138662D01*
X00117094Y00136122D01*
X00119634D01*
X00122174Y00133582D01*
X00147574D02*
X00150114Y00136122D01*
X00152654D01*
X00150114Y00138662D01*
X00152654Y00141202D01*
X00150114D01*
X00147574Y00143742D01*
X00145034Y00141202D01*
X00142494D01*
X00145034Y00138662D01*
X00142494Y00136122D01*
X00145034D01*
X00147574Y00133582D01*
X00134874D02*
X00137414Y00136122D01*
X00139954D01*
X00137414Y00138662D01*
X00139954Y00141202D01*
X00137414D01*
X00134874Y00143742D01*
X00132334Y00141202D01*
X00129794D01*
X00132334Y00138662D01*
X00129794Y00136122D01*
X00132334D01*
X00134874Y00133582D01*
X00160274D02*
X00162814Y00136122D01*
X00165354D01*
X00162814Y00138662D01*
X00165354Y00141202D01*
X00162814D01*
X00160274Y00143742D01*
X00157734Y00141202D01*
X00155194D01*
X00157734Y00138662D01*
X00155194Y00136122D01*
X00157734D01*
X00160274Y00133582D01*
X00071374Y00308582D02*
X00073914Y00311122D01*
X00076454D01*
X00073914Y00313662D01*
X00076454Y00316202D01*
X00073914D01*
X00071374Y00318742D01*
X00068834Y00316202D01*
X00066294D01*
X00068834Y00313662D01*
X00066294Y00311122D01*
X00068834D01*
X00071374Y00308582D01*
X00058674D02*
X00061214Y00311122D01*
X00063754D01*
X00061214Y00313662D01*
X00063754Y00316202D01*
X00061214D01*
X00058674Y00318742D01*
X00056134Y00316202D01*
X00053594D01*
X00056134Y00313662D01*
X00053594Y00311122D01*
X00056134D01*
X00058674Y00308582D01*
X00347744Y00010922D02*
X00350284Y00013462D01*
X00352824D01*
X00350284Y00016002D01*
X00352824Y00018542D01*
X00350284D01*
X00347744Y00021082D01*
X00345204Y00018542D01*
X00342664D01*
X00345204Y00016002D01*
X00342664Y00013462D01*
X00345204D01*
X00347744Y00010922D01*
X00329044D02*
X00331584Y00013462D01*
X00334124D01*
X00331584Y00016002D01*
X00334124Y00018542D01*
X00331584D01*
X00329044Y00021082D01*
X00326504Y00018542D01*
X00323964D01*
X00326504Y00016002D01*
X00323964Y00013462D01*
X00326504D01*
X00329044Y00010922D01*
X00283482Y00044704D02*
X00286022Y00047244D01*
X00288562D01*
X00286022Y00049784D01*
X00288562Y00052324D01*
X00286022D01*
X00283482Y00054864D01*
X00280942Y00052324D01*
X00278402D01*
X00280942Y00049784D01*
X00278402Y00047244D01*
X00280942D01*
X00283482Y00044704D01*
X0026758D02*
X0027012Y00047244D01*
X0027266D01*
X0027012Y00049784D01*
X0027266Y00052324D01*
X0027012D01*
X0026758Y00054864D01*
X0026504Y00052324D01*
X002625D01*
X0026504Y00049784D01*
X002625Y00047244D01*
X0026504D01*
X0026758Y00044704D01*
X-00051562Y00115062D02*
X-00049022Y00117602D01*
X-00046482D01*
X-00049022Y00120142D01*
X-00046482Y00122682D01*
X-00049022D01*
X-00051562Y00125222D01*
X-00054102Y00122682D01*
X-00056642D01*
X-00054102Y00120142D01*
X-00056642Y00117602D01*
X-00054102D01*
X-00051562Y00115062D01*
X-00045859D02*
X-00043319Y00117602D01*
X-00040779D01*
X-00043319Y00120142D01*
X-00040779Y00122682D01*
X-00043319D01*
X-00045859Y00125222D01*
X-00048399Y00122682D01*
X-00050939D01*
X-00048399Y00120142D01*
X-00050939Y00117602D01*
X-00048399D01*
X-00045859Y00115062D01*
X-00040155Y00114808D02*
X-00037615Y00117348D01*
X-00035075D01*
X-00037615Y00119888D01*
X-00035075Y00122428D01*
X-00037615D01*
X-00040155Y00124968D01*
X-00042695Y00122428D01*
X-00045235D01*
X-00042695Y00119888D01*
X-00045235Y00117348D01*
X-00042695D01*
X-00040155Y00114808D01*
X-00034452D02*
X-00031912Y00117348D01*
X-00029372D01*
X-00031912Y00119888D01*
X-00029372Y00122428D01*
X-00031912D01*
X-00034452Y00124968D01*
X-00036992Y00122428D01*
X-00039532D01*
X-00036992Y00119888D01*
X-00039532Y00117348D01*
X-00036992D01*
X-00034452Y00114808D01*
X-00028748D02*
X-00026208Y00117348D01*
X-00023668D01*
X-00026208Y00119888D01*
X-00023668Y00122428D01*
X-00026208D01*
X-00028748Y00124968D01*
X-00031288Y00122428D01*
X-00033828D01*
X-00031288Y00119888D01*
X-00033828Y00117348D01*
X-00031288D01*
X-00028748Y00114808D01*
X-00023045Y00114554D02*
X-00020505Y00117094D01*
X-00017965D01*
X-00020505Y00119634D01*
X-00017965Y00122174D01*
X-00020505D01*
X-00023045Y00124714D01*
X-00025585Y00122174D01*
X-00028125D01*
X-00025585Y00119634D01*
X-00028125Y00117094D01*
X-00025585D01*
X-00023045Y00114554D01*
X-00017341D02*
X-00014801Y00117094D01*
X-00012261D01*
X-00014801Y00119634D01*
X-00012261Y00122174D01*
X-00014801D01*
X-00017341Y00124714D01*
X-00019881Y00122174D01*
X-00022421D01*
X-00019881Y00119634D01*
X-00022421Y00117094D01*
X-00019881D01*
X-00017341Y00114554D01*
X-00011638Y001143D02*
X-00009098Y0011684D01*
X-00006558D01*
X-00009098Y0011938D01*
X-00006558Y0012192D01*
X-00009098D01*
X-00011638Y0012446D01*
X-00014178Y0012192D01*
X-00016718D01*
X-00014178Y0011938D01*
X-00016718Y0011684D01*
X-00014178D01*
X-00011638Y001143D01*
X-00000231Y00120142D02*
X00002309Y00122682D01*
X00004849D01*
X00002309Y00125222D01*
X00004849Y00127762D01*
X00002309D01*
X-00000231Y00130302D01*
X-00002771Y00127762D01*
X-00005311D01*
X-00002771Y00125222D01*
X-00005311Y00122682D01*
X-00002771D01*
X-00000231Y00120142D01*
X-00005935Y00119888D02*
X-00003395Y00122428D01*
X-00000855D01*
X-00003395Y00124968D01*
X-00000855Y00127508D01*
X-00003395D01*
X-00005935Y00130048D01*
X-00008475Y00127508D01*
X-00011014D01*
X-00008475Y00124968D01*
X-00011014Y00122428D01*
X-00008475D01*
X-00005935Y00119888D01*
X-00011638D02*
X-00009098Y00122428D01*
X-00006558D01*
X-00009098Y00124968D01*
X-00006558Y00127508D01*
X-00009098D01*
X-00011638Y00130048D01*
X-00014178Y00127508D01*
X-00016718D01*
X-00014178Y00124968D01*
X-00016718Y00122428D01*
X-00014178D01*
X-00011638Y00119888D01*
X-00017341Y00120142D02*
X-00014801Y00122682D01*
X-00012261D01*
X-00014801Y00125222D01*
X-00012261Y00127762D01*
X-00014801D01*
X-00017341Y00130302D01*
X-00019881Y00127762D01*
X-00022421D01*
X-00019881Y00125222D01*
X-00022421Y00122682D01*
X-00019881D01*
X-00017341Y00120142D01*
X-00023045D02*
X-00020505Y00122682D01*
X-00017965D01*
X-00020505Y00125222D01*
X-00017965Y00127762D01*
X-00020505D01*
X-00023045Y00130302D01*
X-00025585Y00127762D01*
X-00028125D01*
X-00025585Y00125222D01*
X-00028125Y00122682D01*
X-00025585D01*
X-00023045Y00120142D01*
X-00028748Y00120396D02*
X-00026208Y00122936D01*
X-00023668D01*
X-00026208Y00125476D01*
X-00023668Y00128016D01*
X-00026208D01*
X-00028748Y00130556D01*
X-00031288Y00128016D01*
X-00033828D01*
X-00031288Y00125476D01*
X-00033828Y00122936D01*
X-00031288D01*
X-00028748Y00120396D01*
X-00034452D02*
X-00031912Y00122936D01*
X-00029372D01*
X-00031912Y00125476D01*
X-00029372Y00128016D01*
X-00031912D01*
X-00034452Y00130556D01*
X-00036992Y00128016D01*
X-00039532D01*
X-00036992Y00125476D01*
X-00039532Y00122936D01*
X-00036992D01*
X-00034452Y00120396D01*
X-00040155D02*
X-00037615Y00122936D01*
X-00035075D01*
X-00037615Y00125476D01*
X-00035075Y00128016D01*
X-00037615D01*
X-00040155Y00130556D01*
X-00042695Y00128016D01*
X-00045235D01*
X-00042695Y00125476D01*
X-00045235Y00122936D01*
X-00042695D01*
X-00040155Y00120396D01*
X-00045859Y0012065D02*
X-00043319Y0012319D01*
X-00040779D01*
X-00043319Y0012573D01*
X-00040779Y0012827D01*
X-00043319D01*
X-00045859Y0013081D01*
X-00048399Y0012827D01*
X-00050939D01*
X-00048399Y0012573D01*
X-00050939Y0012319D01*
X-00048399D01*
X-00045859Y0012065D01*
X-00051562D02*
X-00049022Y0012319D01*
X-00046482D01*
X-00049022Y0012573D01*
X-00046482Y0012827D01*
X-00049022D01*
X-00051562Y0013081D01*
X-00054102Y0012827D01*
X-00056642D01*
X-00054102Y0012573D01*
X-00056642Y0012319D01*
X-00054102D01*
X-00051562Y0012065D01*
X00211074Y00313944D02*
X00213614Y00316484D01*
X00216154D01*
X00213614Y00319024D01*
X00216154Y00321564D01*
X00213614D01*
X00211074Y00324104D01*
X00208534Y00321564D01*
X00205994D01*
X00208534Y00319024D01*
X00205994Y00316484D01*
X00208534D01*
X00211074Y00313944D01*
Y00306871D02*
X00213614Y00309411D01*
X00216154D01*
X00213614Y00311951D01*
X00216154Y00314491D01*
X00213614D01*
X00211074Y00317031D01*
X00208534Y00314491D01*
X00205994D01*
X00208534Y00311951D01*
X00205994Y00309411D01*
X00208534D01*
X00211074Y00306871D01*
Y00299798D02*
X00213614Y00302338D01*
X00216154D01*
X00213614Y00304878D01*
X00216154Y00307418D01*
X00213614D01*
X00211074Y00309958D01*
X00208534Y00307418D01*
X00205994D01*
X00208534Y00304878D01*
X00205994Y00302338D01*
X00208534D01*
X00211074Y00299798D01*
Y00292725D02*
X00213614Y00295265D01*
X00216154D01*
X00213614Y00297805D01*
X00216154Y00300345D01*
X00213614D01*
X00211074Y00302885D01*
X00208534Y00300345D01*
X00205994D01*
X00208534Y00297805D01*
X00205994Y00295265D01*
X00208534D01*
X00211074Y00292725D01*
Y00285652D02*
X00213614Y00288192D01*
X00216154D01*
X00213614Y00290732D01*
X00216154Y00293272D01*
X00213614D01*
X00211074Y00295812D01*
X00208534Y00293272D01*
X00205994D01*
X00208534Y00290732D01*
X00205994Y00288192D01*
X00208534D01*
X00211074Y00285652D01*
Y00278579D02*
X00213614Y00281119D01*
X00216154D01*
X00213614Y00283659D01*
X00216154Y00286199D01*
X00213614D01*
X00211074Y00288739D01*
X00208534Y00286199D01*
X00205994D01*
X00208534Y00283659D01*
X00205994Y00281119D01*
X00208534D01*
X00211074Y00278579D01*
Y00271506D02*
X00213614Y00274046D01*
X00216154D01*
X00213614Y00276586D01*
X00216154Y00279126D01*
X00213614D01*
X00211074Y00281666D01*
X00208534Y00279126D01*
X00205994D01*
X00208534Y00276586D01*
X00205994Y00274046D01*
X00208534D01*
X00211074Y00271506D01*
Y00264433D02*
X00213614Y00266973D01*
X00216154D01*
X00213614Y00269513D01*
X00216154Y00272054D01*
X00213614D01*
X00211074Y00274594D01*
X00208534Y00272054D01*
X00205994D01*
X00208534Y00269513D01*
X00205994Y00266973D01*
X00208534D01*
X00211074Y00264433D01*
Y0025736D02*
X00213614Y002599D01*
X00216154D01*
X00213614Y0026244D01*
X00216154Y00264981D01*
X00213614D01*
X00211074Y00267521D01*
X00208534Y00264981D01*
X00205994D01*
X00208534Y0026244D01*
X00205994Y002599D01*
X00208534D01*
X00211074Y0025736D01*
Y00250288D02*
X00213614Y00252828D01*
X00216154D01*
X00213614Y00255368D01*
X00216154Y00257908D01*
X00213614D01*
X00211074Y00260448D01*
X00208534Y00257908D01*
X00205994D01*
X00208534Y00255368D01*
X00205994Y00252828D01*
X00208534D01*
X00211074Y00250288D01*
Y00243215D02*
X00213614Y00245755D01*
X00216154D01*
X00213614Y00248295D01*
X00216154Y00250835D01*
X00213614D01*
X00211074Y00253375D01*
X00208534Y00250835D01*
X00205994D01*
X00208534Y00248295D01*
X00205994Y00245755D01*
X00208534D01*
X00211074Y00243215D01*
Y00236142D02*
X00213614Y00238682D01*
X00216154D01*
X00213614Y00241222D01*
X00216154Y00243762D01*
X00213614D01*
X00211074Y00246302D01*
X00208534Y00243762D01*
X00205994D01*
X00208534Y00241222D01*
X00205994Y00238682D01*
X00208534D01*
X00211074Y00236142D01*
X00217551Y00313944D02*
X00220091Y00316484D01*
X00222631D01*
X00220091Y00319024D01*
X00222631Y00321564D01*
X00220091D01*
X00217551Y00324104D01*
X00215011Y00321564D01*
X00212471D01*
X00215011Y00319024D01*
X00212471Y00316484D01*
X00215011D01*
X00217551Y00313944D01*
Y00306871D02*
X00220091Y00309411D01*
X00222631D01*
X00220091Y00311951D01*
X00222631Y00314491D01*
X00220091D01*
X00217551Y00317031D01*
X00215011Y00314491D01*
X00212471D01*
X00215011Y00311951D01*
X00212471Y00309411D01*
X00215011D01*
X00217551Y00306871D01*
Y00299798D02*
X00220091Y00302338D01*
X00222631D01*
X00220091Y00304878D01*
X00222631Y00307418D01*
X00220091D01*
X00217551Y00309958D01*
X00215011Y00307418D01*
X00212471D01*
X00215011Y00304878D01*
X00212471Y00302338D01*
X00215011D01*
X00217551Y00299798D01*
Y00292725D02*
X00220091Y00295265D01*
X00222631D01*
X00220091Y00297805D01*
X00222631Y00300345D01*
X00220091D01*
X00217551Y00302885D01*
X00215011Y00300345D01*
X00212471D01*
X00215011Y00297805D01*
X00212471Y00295265D01*
X00215011D01*
X00217551Y00292725D01*
Y00285652D02*
X00220091Y00288192D01*
X00222631D01*
X00220091Y00290732D01*
X00222631Y00293272D01*
X00220091D01*
X00217551Y00295812D01*
X00215011Y00293272D01*
X00212471D01*
X00215011Y00290732D01*
X00212471Y00288192D01*
X00215011D01*
X00217551Y00285652D01*
Y00278579D02*
X00220091Y00281119D01*
X00222631D01*
X00220091Y00283659D01*
X00222631Y00286199D01*
X00220091D01*
X00217551Y00288739D01*
X00215011Y00286199D01*
X00212471D01*
X00215011Y00283659D01*
X00212471Y00281119D01*
X00215011D01*
X00217551Y00278579D01*
Y00271506D02*
X00220091Y00274046D01*
X00222631D01*
X00220091Y00276586D01*
X00222631Y00279126D01*
X00220091D01*
X00217551Y00281666D01*
X00215011Y00279126D01*
X00212471D01*
X00215011Y00276586D01*
X00212471Y00274046D01*
X00215011D01*
X00217551Y00271506D01*
Y00264433D02*
X00220091Y00266973D01*
X00222631D01*
X00220091Y00269513D01*
X00222631Y00272054D01*
X00220091D01*
X00217551Y00274594D01*
X00215011Y00272054D01*
X00212471D01*
X00215011Y00269513D01*
X00212471Y00266973D01*
X00215011D01*
X00217551Y00264433D01*
Y0025736D02*
X00220091Y002599D01*
X00222631D01*
X00220091Y0026244D01*
X00222631Y00264981D01*
X00220091D01*
X00217551Y00267521D01*
X00215011Y00264981D01*
X00212471D01*
X00215011Y0026244D01*
X00212471Y002599D01*
X00215011D01*
X00217551Y0025736D01*
Y00250288D02*
X00220091Y00252828D01*
X00222631D01*
X00220091Y00255368D01*
X00222631Y00257908D01*
X00220091D01*
X00217551Y00260448D01*
X00215011Y00257908D01*
X00212471D01*
X00215011Y00255368D01*
X00212471Y00252828D01*
X00215011D01*
X00217551Y00250288D01*
Y00243215D02*
X00220091Y00245755D01*
X00222631D01*
X00220091Y00248295D01*
X00222631Y00250835D01*
X00220091D01*
X00217551Y00253375D01*
X00215011Y00250835D01*
X00212471D01*
X00215011Y00248295D01*
X00212471Y00245755D01*
X00215011D01*
X00217551Y00243215D01*
Y00236142D02*
X00220091Y00238682D01*
X00222631D01*
X00220091Y00241222D01*
X00222631Y00243762D01*
X00220091D01*
X00217551Y00246302D01*
X00215011Y00243762D01*
X00212471D01*
X00215011Y00241222D01*
X00212471Y00238682D01*
X00215011D01*
X00217551Y00236142D01*
X00224028D02*
X00226568Y00238682D01*
X00229108D01*
X00226568Y00241222D01*
X00229108Y00243762D01*
X00226568D01*
X00224028Y00246302D01*
X00221488Y00243762D01*
X00218948D01*
X00221488Y00241222D01*
X00218948Y00238682D01*
X00221488D01*
X00224028Y00236142D01*
Y00243215D02*
X00226568Y00245755D01*
X00229108D01*
X00226568Y00248295D01*
X00229108Y00250835D01*
X00226568D01*
X00224028Y00253375D01*
X00221488Y00250835D01*
X00218948D01*
X00221488Y00248295D01*
X00218948Y00245755D01*
X00221488D01*
X00224028Y00243215D01*
Y00250288D02*
X00226568Y00252828D01*
X00229108D01*
X00226568Y00255368D01*
X00229108Y00257908D01*
X00226568D01*
X00224028Y00260448D01*
X00221488Y00257908D01*
X00218948D01*
X00221488Y00255368D01*
X00218948Y00252828D01*
X00221488D01*
X00224028Y00250288D01*
Y0025736D02*
X00226568Y002599D01*
X00229108D01*
X00226568Y0026244D01*
X00229108Y00264981D01*
X00226568D01*
X00224028Y00267521D01*
X00221488Y00264981D01*
X00218948D01*
X00221488Y0026244D01*
X00218948Y002599D01*
X00221488D01*
X00224028Y0025736D01*
Y00264433D02*
X00226568Y00266973D01*
X00229108D01*
X00226568Y00269513D01*
X00229108Y00272054D01*
X00226568D01*
X00224028Y00274594D01*
X00221488Y00272054D01*
X00218948D01*
X00221488Y00269513D01*
X00218948Y00266973D01*
X00221488D01*
X00224028Y00264433D01*
Y00271506D02*
X00226568Y00274046D01*
X00229108D01*
X00226568Y00276586D01*
X00229108Y00279126D01*
X00226568D01*
X00224028Y00281666D01*
X00221488Y00279126D01*
X00218948D01*
X00221488Y00276586D01*
X00218948Y00274046D01*
X00221488D01*
X00224028Y00271506D01*
Y00278579D02*
X00226568Y00281119D01*
X00229108D01*
X00226568Y00283659D01*
X00229108Y00286199D01*
X00226568D01*
X00224028Y00288739D01*
X00221488Y00286199D01*
X00218948D01*
X00221488Y00283659D01*
X00218948Y00281119D01*
X00221488D01*
X00224028Y00278579D01*
Y00285652D02*
X00226568Y00288192D01*
X00229108D01*
X00226568Y00290732D01*
X00229108Y00293272D01*
X00226568D01*
X00224028Y00295812D01*
X00221488Y00293272D01*
X00218948D01*
X00221488Y00290732D01*
X00218948Y00288192D01*
X00221488D01*
X00224028Y00285652D01*
Y00292725D02*
X00226568Y00295265D01*
X00229108D01*
X00226568Y00297805D01*
X00229108Y00300345D01*
X00226568D01*
X00224028Y00302885D01*
X00221488Y00300345D01*
X00218948D01*
X00221488Y00297805D01*
X00218948Y00295265D01*
X00221488D01*
X00224028Y00292725D01*
Y00299798D02*
X00226568Y00302338D01*
X00229108D01*
X00226568Y00304878D01*
X00229108Y00307418D01*
X00226568D01*
X00224028Y00309958D01*
X00221488Y00307418D01*
X00218948D01*
X00221488Y00304878D01*
X00218948Y00302338D01*
X00221488D01*
X00224028Y00299798D01*
Y00306871D02*
X00226568Y00309411D01*
X00229108D01*
X00226568Y00311951D01*
X00229108Y00314491D01*
X00226568D01*
X00224028Y00317031D01*
X00221488Y00314491D01*
X00218948D01*
X00221488Y00311951D01*
X00218948Y00309411D01*
X00221488D01*
X00224028Y00306871D01*
Y00313944D02*
X00226568Y00316484D01*
X00229108D01*
X00226568Y00319024D01*
X00229108Y00321564D01*
X00226568D01*
X00224028Y00324104D01*
X00221488Y00321564D01*
X00218948D01*
X00221488Y00319024D01*
X00218948Y00316484D01*
X00221488D01*
X00224028Y00313944D01*
D49*
X-0004075Y00080264D02*
G03*
X-0004075Y00080264I-0000508J0D01*
G01*
X-0002275D02*
G03*
X-0002275Y00080264I-0000508J0D01*
G01*
M02*
