G04*
G04 #@! TF.GenerationSoftware,Altium Limited,Altium Designer,23.0.1 (38)*
G04*
G04 Layer_Color=8388736*
%FSTAX43Y43*%
%MOMM*%
G71*
G04*
G04 #@! TF.SameCoordinates,B778C3FE-ACB6-4B2B-825A-9079CAA5F4FE*
G04*
G04*
G04 #@! TF.FilePolarity,Negative*
G04*
G01*
G75*
%ADD14R,0.900X1.400*%
%ADD15R,1.050X1.400*%
G04:AMPARAMS|DCode=16|XSize=1.9mm|YSize=0.48mm|CornerRadius=0.06mm|HoleSize=0mm|Usage=FLASHONLY|Rotation=180.000|XOffset=0mm|YOffset=0mm|HoleType=Round|Shape=RoundedRectangle|*
%AMROUNDEDRECTD16*
21,1,1.900,0.360,0,0,180.0*
21,1,1.780,0.480,0,0,180.0*
1,1,0.120,-0.890,0.180*
1,1,0.120,0.890,0.180*
1,1,0.120,0.890,-0.180*
1,1,0.120,-0.890,-0.180*
%
%ADD16ROUNDEDRECTD16*%
%ADD17R,0.930X0.870*%
%ADD18R,5.600X2.100*%
%ADD19R,1.100X1.000*%
%ADD20R,0.900X0.900*%
%ADD21R,0.900X1.500*%
%ADD22R,1.500X0.900*%
%ADD23R,2.000X1.000*%
%ADD24R,1.000X2.000*%
%ADD26R,1.500X2.500*%
G04:AMPARAMS|DCode=27|XSize=1.5mm|YSize=2.5mm|CornerRadius=0.375mm|HoleSize=0mm|Usage=FLASHONLY|Rotation=180.000|XOffset=0mm|YOffset=0mm|HoleType=Round|Shape=RoundedRectangle|*
%AMROUNDEDRECTD27*
21,1,1.500,1.750,0,0,180.0*
21,1,0.750,2.500,0,0,180.0*
1,1,0.750,-0.375,0.875*
1,1,0.750,0.375,0.875*
1,1,0.750,0.375,-0.875*
1,1,0.750,-0.375,-0.875*
%
%ADD27ROUNDEDRECTD27*%
%ADD28R,1.000X1.100*%
%ADD29R,0.870X0.930*%
%ADD31R,1.102X1.002*%
%ADD32R,1.002X1.102*%
%ADD33O,2.327X1.127*%
%ADD34O,1.927X1.127*%
%ADD35C,0.700*%
D14*
X0001753Y0003378D02*
D03*
X-0004747D02*
D03*
D15*
X-0002958Y0009826D02*
D03*
Y0006226D02*
D03*
X-0004408Y0009826D02*
D03*
Y0006226D02*
D03*
D16*
X0018237Y0006041D02*
D03*
Y0006691D02*
D03*
Y0007341D02*
D03*
Y0007991D02*
D03*
Y0008641D02*
D03*
Y0009291D02*
D03*
Y0009941D02*
D03*
Y0010591D02*
D03*
Y0011241D02*
D03*
Y0011891D02*
D03*
X0011227D02*
D03*
Y0011241D02*
D03*
Y0010591D02*
D03*
Y0009941D02*
D03*
Y0009291D02*
D03*
Y0008641D02*
D03*
Y0007991D02*
D03*
Y0007341D02*
D03*
Y0006691D02*
D03*
Y0006041D02*
D03*
D17*
X0002337Y0009543D02*
D03*
Y0008033D02*
D03*
X0004902Y0007466D02*
D03*
Y0009026D02*
D03*
X-0001473Y0006112D02*
D03*
Y0007622D02*
D03*
X0004699Y001082D02*
D03*
Y001233D02*
D03*
X0006005Y0006756D02*
D03*
Y0005246D02*
D03*
X0026289Y0001771D02*
D03*
Y0000211D02*
D03*
Y0003828D02*
D03*
Y0002318D02*
D03*
X0004902Y0006756D02*
D03*
Y0005246D02*
D03*
X0005867Y001077D02*
D03*
Y001233D02*
D03*
X0008211Y0007516D02*
D03*
Y0009026D02*
D03*
X0007108Y0007516D02*
D03*
Y0009026D02*
D03*
X0028829Y0001771D02*
D03*
Y0000211D02*
D03*
Y0003828D02*
D03*
Y0002318D02*
D03*
X0007137Y001077D02*
D03*
Y001233D02*
D03*
X0008407Y001077D02*
D03*
Y001233D02*
D03*
X0009677Y001077D02*
D03*
Y001233D02*
D03*
X0008211Y0005196D02*
D03*
Y0006756D02*
D03*
X0007108Y0005196D02*
D03*
Y0006756D02*
D03*
X0006005Y0007466D02*
D03*
Y0009026D02*
D03*
X0020015Y0010515D02*
D03*
Y0012025D02*
D03*
X0034082Y0007506D02*
D03*
Y0009016D02*
D03*
X0032682Y0007506D02*
D03*
Y0009016D02*
D03*
X0031282Y0007506D02*
D03*
Y0009016D02*
D03*
X002987D02*
D03*
Y0007506D02*
D03*
X0022327Y000774D02*
D03*
Y000623D02*
D03*
X0003454Y0009543D02*
D03*
Y0008033D02*
D03*
D18*
X0017544Y0002642D02*
D03*
X0008044D02*
D03*
D19*
X0022086Y0003632D02*
D03*
X0023786D02*
D03*
X0034774Y0000584D02*
D03*
X0036474D02*
D03*
X0026758Y0004978D02*
D03*
X0025058D02*
D03*
X0028348D02*
D03*
X0030048D02*
D03*
X0005803Y0002642D02*
D03*
X0004103D02*
D03*
X0021487D02*
D03*
X0019787D02*
D03*
X0033094Y0000584D02*
D03*
X0031394D02*
D03*
X-0004355Y0000813D02*
D03*
X-0002655D02*
D03*
X0003429Y0012319D02*
D03*
X0001729D02*
D03*
Y0011252D02*
D03*
X0003429D02*
D03*
D20*
X0008377Y0022516D02*
D03*
X0009777D02*
D03*
X0011177D02*
D03*
Y0021116D02*
D03*
Y0019716D02*
D03*
X0009777D02*
D03*
X0008377D02*
D03*
Y0021116D02*
D03*
X0009777D02*
D03*
D21*
X0002057Y0031366D02*
D03*
X0003327D02*
D03*
X0004597D02*
D03*
X0005867D02*
D03*
X0007137D02*
D03*
X0008407D02*
D03*
X0009677D02*
D03*
X0010947D02*
D03*
X0012217D02*
D03*
X0013487D02*
D03*
X0014757D02*
D03*
X0016027D02*
D03*
X0017297D02*
D03*
X0018567D02*
D03*
Y0013866D02*
D03*
X0017297D02*
D03*
X0016027D02*
D03*
X0014757D02*
D03*
X0013487D02*
D03*
X0012217D02*
D03*
X0010947D02*
D03*
X0009677D02*
D03*
X0008407D02*
D03*
X0007137D02*
D03*
X0005867D02*
D03*
X0004597D02*
D03*
X0003327D02*
D03*
X0002057D02*
D03*
D22*
X0019817Y0029601D02*
D03*
Y0028331D02*
D03*
Y0027061D02*
D03*
Y0025791D02*
D03*
Y0024521D02*
D03*
Y0023251D02*
D03*
Y0021981D02*
D03*
Y0020711D02*
D03*
Y0019441D02*
D03*
Y0018171D02*
D03*
Y0016901D02*
D03*
Y0015631D02*
D03*
D23*
X0024287Y0011876D02*
D03*
Y0021676D02*
D03*
Y0020276D02*
D03*
Y0018876D02*
D03*
Y0017476D02*
D03*
Y0016076D02*
D03*
Y0014676D02*
D03*
Y0013276D02*
D03*
X0036877Y0011876D02*
D03*
Y0013276D02*
D03*
Y0014676D02*
D03*
Y0016076D02*
D03*
Y0017476D02*
D03*
Y0018876D02*
D03*
Y0020276D02*
D03*
Y0021676D02*
D03*
D24*
X0025682Y0009581D02*
D03*
X0027082D02*
D03*
X0028482D02*
D03*
X0029882D02*
D03*
X0031282D02*
D03*
X0032682D02*
D03*
X0034082D02*
D03*
X0035482D02*
D03*
D26*
X0036474Y-0001397D02*
D03*
D27*
X0016154D02*
D03*
X0018694D02*
D03*
X0021234D02*
D03*
X0023774D02*
D03*
X0026314D02*
D03*
X0028854D02*
D03*
X0031394D02*
D03*
X0033934D02*
D03*
X0013614D02*
D03*
X0000914D02*
D03*
X0011074D02*
D03*
X0008534D02*
D03*
X0005994D02*
D03*
X0003454D02*
D03*
D28*
X0022454Y0014549D02*
D03*
Y0016249D02*
D03*
X-0001473Y0010324D02*
D03*
Y0008624D02*
D03*
X0021438Y0016249D02*
D03*
Y0014549D02*
D03*
X0020015Y0006351D02*
D03*
Y0004651D02*
D03*
X0022352Y0011241D02*
D03*
Y0012941D02*
D03*
X0021184Y0007651D02*
D03*
Y0009351D02*
D03*
X0025044Y0002313D02*
D03*
Y0004013D02*
D03*
X0030048Y0002318D02*
D03*
Y0004018D02*
D03*
X002126Y0011241D02*
D03*
Y0012941D02*
D03*
X0021184Y0006351D02*
D03*
Y0004651D02*
D03*
X0020015Y0007651D02*
D03*
Y0009351D02*
D03*
D29*
X0032904Y00016D02*
D03*
X0031394D02*
D03*
X0034774D02*
D03*
X0036284D02*
D03*
X0000501Y0000838D02*
D03*
X-0001009D02*
D03*
X0037473Y0007899D02*
D03*
X0035963D02*
D03*
D31*
X0002337Y0005246D02*
D03*
Y0006946D02*
D03*
X0003454Y0005246D02*
D03*
Y0006946D02*
D03*
D32*
X0037473Y0006795D02*
D03*
X0035773D02*
D03*
X0037473Y0005673D02*
D03*
X0035773D02*
D03*
X0037473Y0004551D02*
D03*
X0035773D02*
D03*
Y0003429D02*
D03*
X0037473D02*
D03*
D33*
X-0003665Y0002081D02*
D03*
Y0010721D02*
D03*
D34*
X0000335Y0002081D02*
D03*
Y0010721D02*
D03*
D35*
X-0002783Y0008026D02*
D03*
X-0004583D02*
D03*
M02*
