M48
;Layer_Color=9474304
;FILE_FORMAT=4:3
METRIC,LZ
;TYPE=PLATED
T1F00S00C0.300
;TYPE=NON_PLATED
T3F00S00C0.700
%
T01
X0081458Y0133528
X0083998
X008603
X0086538
X0087046
Y0134239
X0086538
X008603
Y0132817
X0086538
X0087046
X0094158Y0133528
X0096698
X0099238
X0101803
X0103962Y0133401
Y0134137
X0104724
Y0133401
Y0132664
X0103962
X01055Y0136
X0102618Y0136525
X0100748
X0099365Y0137592
X0097942Y0135738
X0095453
Y0137243
Y0138753
X0096192Y0139903
X0094601
X0095504Y0142062
X0095Y0143
X0094925Y0148201
X0096325
X00975Y0148
X0097Y0149
X00975Y015
X0096901Y0150647
Y0152095
X00955Y0152
X0096Y0153
X0096901Y0153772
X0097Y0155
X0098
X0099
X01
X0101
X0102
X0103
X01025Y0156
X01015
X01005
X00995
X00985
X00975
X00965
X0094386Y0155296
Y0153772
X00935Y0154
X0094Y0151
Y0149
X0093525Y0148201
X00955Y015
X0098Y0151
X0098857Y015174
X0099Y0153
X01
X0101
X0102
X0103
X01025Y0154
X01015
X01005
X00995
X00985
X01005Y0152
X01015
X01025
X0102057Y0150266
Y014892
X0103Y0149
X0101
X01
X0098857Y0148666
X00995Y0148
X0098857Y0150165
X0102057Y0147549
X010472Y0152401
Y0155201
Y0156601
X0090246Y015834
X0089599
X0088951
X0087661Y0158176
X0086436Y0156906
Y0155677
Y0154381
X00835Y0154
X00825
X00815
X00805
X008Y0155
X0081
X0082
X0083
X008247Y015597
X00815Y0156
X00805
X008Y0157
X0081
X008047Y015797
X00835Y0158
X0084074Y0156906
X0084Y0153
X0083
X0082
X0081
X008
X0080061Y0148791
X0081331
X0082601
X0083871
X0085141
X0086411
X008603Y0146166
Y0144866
Y0144216
Y0143566
Y0142916
X0083998
X00845Y0142
Y0144
Y0146
X00825Y0144
X0081458Y0142916
X0080721Y0145364
X0080696Y0146787
X00795Y014
X008Y0139
X0085
X00845Y014
X0089992Y013937
X00905Y0137643
X0092939Y0135738
X0102Y0139
X01015Y014
X01Y0141
X0090373Y0149225
X0089789
X0089205
Y014986
X0089789
X0090373
X0090284Y0150647
X0089764
X0089243
Y0151181
X0089764
X0090284
X0079Y0153
X0078
X0077
X0076
X0075
X0073762Y0153365
X0074Y0155
X0075
X00745Y0156
X00735
X0073Y0157
X0074
X0075
X00745Y0158
X00735
X0071806Y0157429
X00705Y0158
X007Y0157
X00705Y0156
X007Y0155
X0071
X00715Y0154
X00705
X007Y0153
X0071272Y0151867
Y0151257
X0071171Y0148791
X0072441
X0073152Y0149895
X0074346
X0072542Y0145771
X0072746Y0143951
X0073849
Y014168
X0072746
X0074952Y0142441
X0076055
Y014012
X0074952
X00785Y014
X0079Y0139
X0079071Y0144914
Y0145516
X0079045Y0146166
X0079071Y0146816
X0079021Y0154641
X0077621
Y0156041
X0079021
Y0157441
X0077621
X0076221
Y0156041
Y0154641
X0072593Y015494
X0068391Y0147447
Y0146888
X006782
Y0147447
X006725Y0147422
Y0146863
X006668
Y0147422
X0066109Y0147447
Y0146888
X0065539
Y0147447
X0064969Y0147472
Y0146914
X0064398
Y0147472
X0063828
Y0146914
X0063258Y0146939
Y0147498
X0062687
Y0146939
X0064Y0143
X00645Y014
X00655
X0065Y0139
X0066
X00655Y0138
X00645
X0064Y0139
X00635Y014
X0066Y0137
X0066834Y0135763
X006825Y0134239
X0068758
X0069266
Y0133528
X0068758
X006825
Y0132817
X0068758
X0069266
X0069926Y0135484
Y013589
X0070333
Y0135484
X0071Y0139
X0071298Y0144468
X0070263Y0144501
X007Y0159
X00705Y016
X007Y0161
X00705Y0162
X0071806Y0162001
Y0160655
Y0159207
X0073Y0159
X0074
X0075
X0076
X0077
X0078
X0079
X007847Y015997
X00775Y016
X00765
X00755
X00745
X00735
X0073Y0161
X0074
X0075
X0076
X0077
X0076482Y0161982
X00755Y0162
X00745
X00735
X0073Y0163
X0074
X0075
X00755Y0164
X00745
X00735
X0073Y0165
X0074
X0075
X0074981Y0166291
X0073711
X0071806Y0164694
Y0163449
X00705Y0164
X007Y0165
X0069901Y0166291
X007Y0163
X0076911Y0163449
Y0164694
X0078181
Y0163449
X0078201Y0162021
X0079477Y0162001
Y0163449
Y0164694
X0081Y0165
X0082
X0083
X0084
X00835Y0164
X00825
X00815
X0081Y0163
X0082
X0083
X0084
X00835Y0162
X00825
X00815
X0081Y0161
X0082
X0083
X0084
X00835Y016
X00825
X00815
X0082Y0159
X0083
X0084
X00865Y016
X0087661Y0159446
Y0160716
X0088951Y0160462
X0089599
X0090246
Y0159754
X0089599
X0088951
Y0159047
X0089599
X0090246
Y0161169
X0089599
X0088951
Y0161876
X0089599
X0090246
Y0162583
X0089599
X0088951
Y0163291
X0089599
X0090246
Y0163998
X0089599
X0088951
Y0164705
X0089599
X0090246
Y0165413
X0089599
X0088951
Y016612
X0089599
X0090246
Y0166827
X0089599
X0088951
X00875Y0166
X0086436Y016637
X0086Y0165
X00865Y0164
X00855
X0086Y0163
X00865Y0162
X00855
T03
X006326Y0142951
X006506
M30
