G04*
G04 #@! TF.GenerationSoftware,Altium Limited,Altium Designer,23.0.1 (38)*
G04*
G04 Layer_Physical_Order=1*
G04 Layer_Color=255*
%FSTAX43Y43*%
%MOMM*%
G71*
G04*
G04 #@! TF.SameCoordinates,B778C3FE-ACB6-4B2B-825A-9079CAA5F4FE*
G04*
G04*
G04 #@! TF.FilePolarity,Positive*
G04*
G01*
G75*
%ADD10C,0.200*%
%ADD14R,0.900X1.400*%
%ADD15R,1.050X1.400*%
G04:AMPARAMS|DCode=16|XSize=1.9mm|YSize=0.48mm|CornerRadius=0.06mm|HoleSize=0mm|Usage=FLASHONLY|Rotation=180.000|XOffset=0mm|YOffset=0mm|HoleType=Round|Shape=RoundedRectangle|*
%AMROUNDEDRECTD16*
21,1,1.900,0.360,0,0,180.0*
21,1,1.780,0.480,0,0,180.0*
1,1,0.120,-0.890,0.180*
1,1,0.120,0.890,0.180*
1,1,0.120,0.890,-0.180*
1,1,0.120,-0.890,-0.180*
%
%ADD16ROUNDEDRECTD16*%
%ADD17R,0.930X0.870*%
%ADD18R,5.600X2.100*%
%ADD19R,1.100X1.000*%
%ADD20R,0.900X0.900*%
%ADD21R,0.900X1.500*%
%ADD22R,1.500X0.900*%
%ADD23R,2.000X1.000*%
%ADD24R,1.000X2.000*%
%ADD25R,1.000X0.900*%
%ADD26R,1.500X2.500*%
G04:AMPARAMS|DCode=27|XSize=1.5mm|YSize=2.5mm|CornerRadius=0.375mm|HoleSize=0mm|Usage=FLASHONLY|Rotation=180.000|XOffset=0mm|YOffset=0mm|HoleType=Round|Shape=RoundedRectangle|*
%AMROUNDEDRECTD27*
21,1,1.500,1.750,0,0,180.0*
21,1,0.750,2.500,0,0,180.0*
1,1,0.750,-0.375,0.875*
1,1,0.750,0.375,0.875*
1,1,0.750,0.375,-0.875*
1,1,0.750,-0.375,-0.875*
%
%ADD27ROUNDEDRECTD27*%
%ADD28R,1.000X1.100*%
%ADD29R,0.870X0.930*%
%ADD30R,0.900X1.000*%
%ADD35C,0.700*%
%ADD36C,0.150*%
%ADD37C,0.400*%
%ADD38O,2.200X1.000*%
%ADD39O,1.800X1.000*%
%ADD40C,0.500*%
G36*
X0022647Y0022432D02*
X002265Y0022426D01*
X0022542Y0022354D01*
X0022156Y002274D01*
X0022022Y0022795D01*
X0020667D01*
Y0023801D01*
X0020617D01*
Y0023971D01*
X0020667D01*
Y0025071D01*
X0020617D01*
Y0025241D01*
X0020667D01*
Y0026341D01*
X0020617D01*
Y0026511D01*
X0020667D01*
Y0027611D01*
X0020617D01*
Y0027781D01*
X0020667D01*
Y0028881D01*
X0020617D01*
Y0029051D01*
X0020667D01*
Y0030151D01*
X0018967D01*
Y0029051D01*
X0019017D01*
Y0028881D01*
X0018967D01*
Y0027781D01*
X0019017D01*
Y0027611D01*
X0018967D01*
Y0026511D01*
X0019017D01*
Y0026341D01*
X0018967D01*
Y0025241D01*
X0019017D01*
Y0025071D01*
X0018967D01*
Y0023971D01*
X0019017D01*
Y0023801D01*
X0018967D01*
Y0022795D01*
X0015033D01*
X0012407Y0025422D01*
Y0030516D01*
X0012767D01*
Y0030566D01*
X0012937D01*
Y0030516D01*
X0014037D01*
Y0030566D01*
X0014207D01*
Y0030516D01*
X0015307D01*
Y0030566D01*
X0015477D01*
Y0030516D01*
X0016577D01*
Y0030566D01*
X0016747D01*
Y0030516D01*
X0017847D01*
Y0030566D01*
X0018017D01*
Y0030516D01*
X0019117D01*
Y0032172D01*
X0022647D01*
Y0022432D01*
D02*
G37*
G36*
X0007857Y0030516D02*
X0008218D01*
Y0028092D01*
X0008273Y0027958D01*
X001757Y0018662D01*
X0017704Y0018607D01*
X0017704Y0018607D01*
X0018967D01*
Y0017621D01*
X0019017D01*
Y0017451D01*
X0018967D01*
Y0016351D01*
X0019017D01*
Y0016181D01*
X0018967D01*
Y0015081D01*
X0019628D01*
Y001319D01*
X0019099Y0012661D01*
X0016242D01*
X0016108Y0012605D01*
X001602Y0012517D01*
X0015965Y0012384D01*
Y000834D01*
X0015962Y000833D01*
X0015957Y0008318D01*
X001595Y0008305D01*
X0015941Y0008291D01*
X0015931Y0008277D01*
X0015918Y0008262D01*
X0015901Y0008245D01*
X0015894Y0008226D01*
X0015804Y0008136D01*
Y0007846D01*
X0016009Y0007641D01*
X0016299D01*
X0016504Y0007846D01*
Y0008136D01*
X0016415Y0008226D01*
X0016407Y0008245D01*
X0016391Y0008262D01*
X0016378Y0008277D01*
X0016368Y0008291D01*
X0016359Y0008305D01*
X0016352Y0008318D01*
X0016347Y000833D01*
X0016344Y000834D01*
Y0012282D01*
X0019177D01*
X0019311Y0012337D01*
X0019951Y0012978D01*
X0020007Y0013112D01*
Y0015081D01*
X0020667D01*
Y0016181D01*
X0020617D01*
Y0016351D01*
X0020667D01*
Y0017451D01*
X0020617D01*
Y0017621D01*
X0020667D01*
Y0017982D01*
X0021755D01*
X0023055Y0016682D01*
X0023097Y0016635D01*
X0023107Y001651D01*
X0023107Y0015536D01*
X0022996Y0015424D01*
X0021006D01*
X0020929Y0015393D01*
X0020929Y0015393D01*
X0020828Y0015291D01*
X0020828Y0015291D01*
X0020796Y0015215D01*
Y0014021D01*
X0020796Y0014021D01*
X0020828Y0013944D01*
X0020838Y0013934D01*
Y0013899D01*
X0020873D01*
X0020904Y0013868D01*
X002098Y0013836D01*
X0023095Y0013836D01*
X0023107Y0013824D01*
X0023107Y0012827D01*
X0023107Y0012827D01*
X0023139Y001275D01*
X0023139Y001275D01*
X0023187Y0012703D01*
Y0012676D01*
X0023213D01*
X0023241Y0012649D01*
X0023317Y0012617D01*
X0025248D01*
X0025324Y0012649D01*
X0025441Y0012646D01*
X002549Y0012619D01*
Y0010681D01*
X0025082D01*
Y0008481D01*
X0026282D01*
Y0008531D01*
X0026482D01*
Y0008481D01*
X0027682D01*
Y0008531D01*
X0027882D01*
Y0008481D01*
X0029082D01*
Y0008531D01*
X0029282D01*
Y0008481D01*
X0030482D01*
Y0008531D01*
X0030682D01*
Y0008481D01*
X0031882D01*
Y0008531D01*
X0032082D01*
Y0008481D01*
X0033282D01*
Y0008531D01*
X0033482D01*
Y0008481D01*
X0034682D01*
Y0010681D01*
X0033482D01*
Y0010631D01*
X0033282D01*
Y0010681D01*
X0032082D01*
Y0010631D01*
X0031882D01*
Y0010681D01*
X0030682D01*
Y0010631D01*
X0030482D01*
Y0010681D01*
X0029282D01*
Y0010631D01*
X0029082D01*
Y0010681D01*
X0028671D01*
Y0012928D01*
X0028674Y0012937D01*
X0028679Y001295D01*
X0028686Y0012963D01*
X0028695Y0012977D01*
X0028705Y0012991D01*
X0028718Y0013006D01*
X0028735Y0013023D01*
X0028742Y0013042D01*
X0028832Y0013131D01*
Y0013421D01*
X0028627Y0013626D01*
X0028337D01*
X0028132Y0013421D01*
Y0013131D01*
X0028221Y0013042D01*
X0028229Y0013023D01*
X0028245Y0013006D01*
X0028258Y0012991D01*
X0028268Y0012977D01*
X0028277Y0012963D01*
X0028284Y001295D01*
X0028289Y0012937D01*
X0028292Y0012928D01*
Y0010681D01*
X0027882D01*
Y0010631D01*
X0027682D01*
Y0010681D01*
X0027271D01*
Y0012928D01*
X0027274Y0012937D01*
X0027279Y001295D01*
X0027286Y0012963D01*
X0027295Y0012977D01*
X0027305Y0012991D01*
X0027318Y0013005D01*
X0027335Y0013023D01*
X0027342Y0013042D01*
X0027432Y0013131D01*
Y0013421D01*
X0027227Y0013626D01*
X0026937D01*
X0026732Y0013421D01*
Y0013131D01*
X0026821Y0013042D01*
X0026829Y0013023D01*
X0026845Y0013006D01*
X0026858Y0012991D01*
X0026868Y0012977D01*
X0026877Y0012963D01*
X0026884Y001295D01*
X0026889Y0012937D01*
X0026892Y0012928D01*
Y0010681D01*
X0026482D01*
Y0010631D01*
X0026282D01*
Y0010681D01*
X0025869D01*
Y0012927D01*
X0025872Y0012936D01*
X0025877Y0012949D01*
X0025884Y0012962D01*
X0025893Y0012975D01*
X0025903Y0012989D01*
X0025916Y0013004D01*
X0025932Y0013021D01*
X002594Y001304D01*
X0026032Y0013131D01*
Y0013421D01*
X0025827Y0013626D01*
X0025537D01*
X0025432Y001367D01*
Y0016535D01*
X0025475Y00166D01*
X0027176D01*
X0032033Y0011742D01*
X0032033Y0011742D01*
X0032167Y0011687D01*
X0035777D01*
Y0011276D01*
X0037936D01*
Y0009857D01*
X0037306Y0009227D01*
X003725Y0009093D01*
Y0008464D01*
X0036938D01*
Y0007334D01*
X0038008D01*
Y0008464D01*
X0037629D01*
Y0009015D01*
X0038074Y000946D01*
X0038192Y0009411D01*
Y0000188D01*
X0037389D01*
X0037294Y0000148D01*
X0037167Y0000199D01*
Y0002616D01*
X0037167Y0002616D01*
X0037135Y0002693D01*
X0036932Y0002896D01*
X0036932Y0002896D01*
X0036855Y0002928D01*
X0036323D01*
Y0003951D01*
Y0005073D01*
Y0006195D01*
Y0007395D01*
X0035223D01*
Y0006985D01*
X0034647D01*
Y0008041D01*
X0033517D01*
Y0006971D01*
X0033892D01*
Y0006837D01*
X0033948Y0006703D01*
X0033989Y0006661D01*
X0034123Y0006606D01*
X0035223D01*
Y0005863D01*
X0032963D01*
X0032871Y0005954D01*
Y0006971D01*
X0033247D01*
Y0008041D01*
X0032117D01*
Y0006971D01*
X0032492D01*
Y0005876D01*
X0032548Y0005742D01*
X003275Y0005539D01*
X0032884Y0005484D01*
X0035223D01*
Y000474D01*
X0033094D01*
X0031471Y0006363D01*
Y0006971D01*
X0031847D01*
Y0008041D01*
X0030717D01*
Y0006971D01*
X0031092D01*
Y0006285D01*
X0031148Y0006151D01*
X0032882Y0004417D01*
X0033016Y0004362D01*
X0033016Y0004362D01*
X0035223D01*
Y0003618D01*
X003307D01*
X003006Y0006628D01*
Y0006971D01*
X0030435D01*
Y0008041D01*
X0029305D01*
Y0006971D01*
X0029681D01*
Y000655D01*
X0029637Y0006484D01*
X0025902D01*
X0025737Y0006649D01*
Y0007442D01*
X0025737Y0007442D01*
X0025705Y0007519D01*
X0023216Y0010008D01*
X0023139Y001004D01*
X0020695D01*
X0020682Y0010052D01*
Y0010591D01*
X0022952D01*
Y0011891D01*
X002066D01*
Y0011431D01*
X0019297D01*
X001925Y0011544D01*
X0019127Y0011594D01*
X0017347D01*
X0017225Y0011544D01*
X0017174Y0011421D01*
Y0011061D01*
X0017179Y0011049D01*
X0017195Y0010922D01*
X0017145Y0010872D01*
X0017113Y0010795D01*
X0017113Y0010389D01*
X0017145Y0010312D01*
X0017193Y0010243D01*
X0017178Y0010131D01*
X0017174Y0010121D01*
Y0009761D01*
X0017225Y0009639D01*
X0017225Y0009594D01*
X0017174Y0009471D01*
Y0009111D01*
X0017192Y0009068D01*
X0017219Y0008966D01*
X0017192Y0008865D01*
X0017174Y0008821D01*
Y0008461D01*
X0017192Y0008418D01*
X0017219Y0008316D01*
X0017192Y0008215D01*
X0017174Y0008171D01*
Y0007811D01*
X0017222Y0007697D01*
X0017221Y0007697D01*
X0017145Y000762D01*
X0017113Y0007544D01*
Y0007151D01*
X0017145Y0007074D01*
X0017135Y0006957D01*
X0017113Y0006903D01*
X0017113Y0005791D01*
X0017113Y0005791D01*
X0017145Y0005715D01*
X0017145Y0005715D01*
X0017221Y0005638D01*
X0017221Y0005638D01*
X0017297Y0005607D01*
X0022637Y0005607D01*
X0023133Y0005111D01*
Y0002051D01*
X0022536Y0001454D01*
X0020556D01*
X0020444Y0001581D01*
Y0003792D01*
X0014644D01*
Y0002831D01*
X001396D01*
X0013245Y0003546D01*
Y0007686D01*
X0013372Y0007739D01*
X0013469Y0007641D01*
X0013759D01*
X0013964Y0007846D01*
Y0008136D01*
X0013875Y0008226D01*
X0013867Y0008245D01*
X0013851Y0008262D01*
X0013838Y0008277D01*
X0013828Y0008291D01*
X0013819Y0008305D01*
X0013812Y0008318D01*
X0013807Y000833D01*
X0013804Y000834D01*
Y0012384D01*
X0013748Y0012517D01*
X001366Y0012605D01*
X0013527Y0012661D01*
X0011204D01*
X0011137Y0012728D01*
Y0013016D01*
X0011497D01*
Y0013066D01*
X0011667D01*
Y0013016D01*
X0012767D01*
Y0013066D01*
X0012937D01*
Y0013016D01*
X0014037D01*
Y0013066D01*
X0014207D01*
Y0013016D01*
X0015307D01*
Y0013066D01*
X0015477D01*
Y0013016D01*
X0016577D01*
Y0013066D01*
X0016747D01*
Y0013016D01*
X0017847D01*
Y0013066D01*
X0018017D01*
Y0013016D01*
X0019117D01*
Y0014716D01*
X0018017D01*
Y0014666D01*
X0017847D01*
Y0014716D01*
X0016747D01*
Y0014666D01*
X0016577D01*
Y0014716D01*
X0015477D01*
Y0014666D01*
X0015307D01*
Y0014716D01*
X0014207D01*
Y0014666D01*
X0014037D01*
Y0014716D01*
X0012937D01*
Y0014666D01*
X0012767D01*
Y0014716D01*
X0011667D01*
Y0014666D01*
X0011497D01*
Y0014716D01*
X0010397D01*
Y0014666D01*
X0010227D01*
Y0014716D01*
X0009127D01*
Y0014666D01*
X0008957D01*
Y0014716D01*
X0007857D01*
Y0014666D01*
X0007687D01*
Y0014716D01*
X0006897D01*
X0006852Y0014825D01*
Y0015115D01*
X0006763Y0015204D01*
X0006755Y0015223D01*
X0006739Y0015241D01*
X0006726Y0015255D01*
X0006716Y001527D01*
X0006707Y0015283D01*
X00067Y0015296D01*
X0006695Y0015309D01*
X0006692Y0015318D01*
Y0018974D01*
X0006636Y0019108D01*
X0004787Y0020957D01*
Y0030516D01*
X0005147D01*
Y0030566D01*
X0005317D01*
Y0030516D01*
X0006417D01*
Y0030566D01*
X0006587D01*
Y0030516D01*
X0007687D01*
Y0030566D01*
X0007857D01*
Y0030516D01*
D02*
G37*
G36*
X0012353Y0030621D02*
X001234Y0030616D01*
X0012329Y0030609D01*
X0012319Y0030598D01*
X0012311Y0030584D01*
X0012304Y0030567D01*
X0012299Y0030547D01*
X0012295Y0030524D01*
X0012293Y0030498D01*
X0012292Y0030469D01*
X0012142D01*
X0012142Y0030498D01*
X0012139Y0030524D01*
X0012136Y0030547D01*
X001213Y0030567D01*
X0012124Y0030584D01*
X0012115Y0030598D01*
X0012106Y0030609D01*
X0012094Y0030616D01*
X0012082Y0030621D01*
X0012067Y0030622D01*
X0012367D01*
X0012353Y0030621D01*
D02*
G37*
G36*
X0011083D02*
X001107Y0030616D01*
X0011059Y0030609D01*
X0011049Y0030598D01*
X0011041Y0030584D01*
X0011034Y0030567D01*
X0011029Y0030547D01*
X0011025Y0030524D01*
X0011023Y0030498D01*
X0011022Y0030469D01*
X0010872D01*
X0010872Y0030498D01*
X0010869Y0030524D01*
X0010866Y0030547D01*
X001086Y0030567D01*
X0010854Y0030584D01*
X0010845Y0030598D01*
X0010836Y0030609D01*
X0010824Y0030616D01*
X0010812Y0030621D01*
X0010797Y0030622D01*
X0011097D01*
X0011083Y0030621D01*
D02*
G37*
G36*
X0009813D02*
X00098Y0030616D01*
X0009789Y0030609D01*
X0009779Y0030598D01*
X0009771Y0030584D01*
X0009764Y0030567D01*
X0009759Y0030547D01*
X0009755Y0030524D01*
X0009753Y0030498D01*
X0009752Y0030469D01*
X0009602D01*
X0009602Y0030498D01*
X0009599Y0030524D01*
X0009596Y0030547D01*
X000959Y0030567D01*
X0009584Y0030584D01*
X0009575Y0030598D01*
X0009566Y0030609D01*
X0009554Y0030616D01*
X0009542Y0030621D01*
X0009527Y0030622D01*
X0009827D01*
X0009813Y0030621D01*
D02*
G37*
G36*
X0008543D02*
X000853Y0030616D01*
X0008519Y0030609D01*
X0008509Y0030598D01*
X0008501Y0030584D01*
X0008494Y0030567D01*
X0008489Y0030547D01*
X0008485Y0030524D01*
X0008483Y0030498D01*
X0008482Y0030469D01*
X0008332D01*
X0008332Y0030498D01*
X0008329Y0030524D01*
X0008326Y0030547D01*
X000832Y0030567D01*
X0008314Y0030584D01*
X0008305Y0030598D01*
X0008296Y0030609D01*
X0008284Y0030616D01*
X0008272Y0030621D01*
X0008257Y0030622D01*
X0008557D01*
X0008543Y0030621D01*
D02*
G37*
G36*
X0004733D02*
X000472Y0030616D01*
X0004709Y0030609D01*
X0004699Y0030598D01*
X0004691Y0030584D01*
X0004684Y0030567D01*
X0004679Y0030547D01*
X0004675Y0030524D01*
X0004673Y0030498D01*
X0004672Y0030469D01*
X0004522D01*
X0004522Y0030498D01*
X0004519Y0030524D01*
X0004516Y0030547D01*
X000451Y0030567D01*
X0004504Y0030584D01*
X0004495Y0030598D01*
X0004486Y0030609D01*
X0004474Y0030616D01*
X0004462Y0030621D01*
X0004447Y0030622D01*
X0004747D01*
X0004733Y0030621D01*
D02*
G37*
G36*
X0003463D02*
X000345Y0030616D01*
X0003439Y0030609D01*
X0003429Y0030598D01*
X0003421Y0030584D01*
X0003414Y0030567D01*
X0003409Y0030547D01*
X0003405Y0030524D01*
X0003403Y0030498D01*
X0003402Y0030469D01*
X0003252D01*
X0003252Y0030498D01*
X0003249Y0030524D01*
X0003246Y0030547D01*
X000324Y0030567D01*
X0003234Y0030584D01*
X0003225Y0030598D01*
X0003216Y0030609D01*
X0003204Y0030616D01*
X0003192Y0030621D01*
X0003177Y0030622D01*
X0003477D01*
X0003463Y0030621D01*
D02*
G37*
G36*
X0009127Y0030516D02*
X0009488D01*
Y0027446D01*
X0009371Y0027397D01*
X0008597Y0028171D01*
Y0030516D01*
X0008957D01*
Y0030566D01*
X0009127D01*
Y0030516D01*
D02*
G37*
G36*
X0010397D02*
X0010758D01*
Y0026529D01*
X0010641Y0026481D01*
X0009867Y0027254D01*
Y0030516D01*
X0010227D01*
Y0030566D01*
X0010397D01*
Y0030516D01*
D02*
G37*
G36*
X0011667D02*
X0012028D01*
Y0025613D01*
X0011911Y0025564D01*
X0011137Y0026338D01*
Y0030516D01*
X0011497D01*
Y0030566D01*
X0011667D01*
Y0030516D01*
D02*
G37*
G36*
X0020563Y0022117D02*
X0020567Y0022104D01*
X0020575Y0022093D01*
X0020586Y0022083D01*
X00206Y0022075D01*
X0020616Y0022068D01*
X0020636Y0022063D01*
X0020659Y0022059D01*
X0020685Y0022057D01*
X0020714Y0022056D01*
Y0021906D01*
X0020685Y0021905D01*
X0020659Y0021903D01*
X0020636Y0021899D01*
X0020616Y0021894D01*
X00206Y0021887D01*
X0020586Y0021879D01*
X0020575Y0021869D01*
X0020567Y0021858D01*
X0020563Y0021845D01*
X0020561Y0021831D01*
Y0022131D01*
X0020563Y0022117D01*
D02*
G37*
G36*
X0018967Y0021546D02*
X0015929D01*
X0015176Y0022299D01*
X0015224Y0022417D01*
X0018967D01*
Y0021546D01*
D02*
G37*
G36*
X0023293Y0021526D02*
X0023291Y0021541D01*
X0023287Y0021553D01*
X0023279Y0021565D01*
X0023268Y0021574D01*
X0023254Y0021583D01*
X0023238Y0021589D01*
X0023218Y0021595D01*
X0023195Y0021598D01*
X0023169Y0021601D01*
X002314Y0021601D01*
Y0021751D01*
X0023169Y0021752D01*
X0023195Y0021754D01*
X0023218Y0021758D01*
X0023238Y0021763D01*
X0023254Y002177D01*
X0023268Y0021778D01*
X0023279Y0021788D01*
X0023287Y0021799D01*
X0023291Y0021812D01*
X0023293Y0021826D01*
Y0021526D01*
D02*
G37*
G36*
X0020563Y0020862D02*
X0020567Y0020849D01*
X0020575Y0020838D01*
X0020586Y0020828D01*
X00206Y002082D01*
X0020616Y0020813D01*
X0020636Y0020808D01*
X0020659Y0020804D01*
X0020685Y0020802D01*
X0020714Y0020801D01*
Y0020651D01*
X0020685Y0020651D01*
X0020659Y0020648D01*
X0020636Y0020645D01*
X0020616Y0020639D01*
X00206Y0020633D01*
X0020586Y0020624D01*
X0020575Y0020615D01*
X0020567Y0020603D01*
X0020563Y0020591D01*
X0020561Y0020576D01*
Y0020876D01*
X0020563Y0020862D01*
D02*
G37*
G36*
X0018967Y0020276D02*
X0016846D01*
X0016072Y0021049D01*
X001612Y0021167D01*
X0018967D01*
Y0020276D01*
D02*
G37*
G36*
X0023293Y0020126D02*
X0023291Y0020141D01*
X0023287Y0020153D01*
X0023279Y0020165D01*
X0023268Y0020174D01*
X0023254Y0020183D01*
X0023238Y0020189D01*
X0023218Y0020195D01*
X0023195Y0020198D01*
X0023169Y0020201D01*
X002314Y0020201D01*
Y0020351D01*
X0023169Y0020352D01*
X0023195Y0020354D01*
X0023218Y0020358D01*
X0023238Y0020363D01*
X0023254Y002037D01*
X0023268Y0020378D01*
X0023279Y0020388D01*
X0023287Y0020399D01*
X0023291Y0020412D01*
X0023293Y0020426D01*
Y0020126D01*
D02*
G37*
G36*
X0038192Y0019426D02*
X0037977D01*
Y0019476D01*
X0035777D01*
Y0018276D01*
X0035827D01*
Y0016676D01*
X0035777D01*
Y0016266D01*
X0032567D01*
X0027718Y0021114D01*
X0027584Y002117D01*
X0025387D01*
Y0022193D01*
X0037082D01*
X0037158Y0022225D01*
X0037177Y002227D01*
X0038192D01*
Y0019426D01*
D02*
G37*
G36*
X0020563Y0019577D02*
X0020567Y0019564D01*
X0020575Y0019553D01*
X0020586Y0019543D01*
X00206Y0019535D01*
X0020616Y0019528D01*
X0020636Y0019523D01*
X0020659Y0019519D01*
X0020685Y0019517D01*
X0020714Y0019516D01*
Y0019366D01*
X0020685Y0019365D01*
X0020659Y0019363D01*
X0020636Y0019359D01*
X0020616Y0019354D01*
X00206Y0019347D01*
X0020586Y0019339D01*
X0020575Y0019329D01*
X0020567Y0019318D01*
X0020563Y0019305D01*
X0020561Y0019291D01*
Y0019591D01*
X0020563Y0019577D01*
D02*
G37*
G36*
X0018967Y0018985D02*
X0017782D01*
X0016988Y0019779D01*
X0017037Y0019897D01*
X0018967D01*
Y0018985D01*
D02*
G37*
G36*
X0023293Y0018726D02*
X0023291Y0018741D01*
X0023287Y0018753D01*
X0023279Y0018765D01*
X0023268Y0018774D01*
X0023254Y0018783D01*
X0023238Y0018789D01*
X0023218Y0018795D01*
X0023195Y0018798D01*
X0023169Y0018801D01*
X002314Y0018801D01*
Y0018951D01*
X0023169Y0018952D01*
X0023195Y0018954D01*
X0023218Y0018958D01*
X0023238Y0018963D01*
X0023254Y001897D01*
X0023268Y0018978D01*
X0023279Y0018988D01*
X0023287Y0018999D01*
X0023291Y0019012D01*
X0023293Y0019026D01*
Y0018726D01*
D02*
G37*
G36*
X0037872Y0018964D02*
X0037876Y0018953D01*
X0037883Y0018943D01*
X0037893Y0018935D01*
X0037906Y0018928D01*
X0037922Y0018922D01*
X0037941Y0018917D01*
X0037962Y0018914D01*
X0037987Y0018912D01*
X0038014Y0018911D01*
Y0018761D01*
X0037987Y0018761D01*
X0037962Y0018759D01*
X0037941Y0018755D01*
X0037922Y0018751D01*
X0037906Y0018745D01*
X0037893Y0018738D01*
X0037883Y0018729D01*
X0037876Y001872D01*
X0037872Y0018709D01*
X003787Y0018696D01*
Y0018977D01*
X0037872Y0018964D01*
D02*
G37*
G36*
X0037097Y0019D02*
X0037113Y0018981D01*
X0037131Y0018965D01*
X0037149Y0018951D01*
X0037168Y0018939D01*
X0037187Y0018929D01*
X0037208Y0018921D01*
X0037229Y0018916D01*
X0037251Y0018912D01*
X0037274Y0018911D01*
X0037249Y0018761D01*
X0037227Y001876D01*
X0037206Y0018758D01*
X0037184Y0018754D01*
X0037162Y0018748D01*
X0037139Y001874D01*
X0037117Y001873D01*
X0037094Y0018719D01*
X0037071Y0018706D01*
X0037025Y0018675D01*
X0037081Y0019021D01*
X0037097Y0019D01*
D02*
G37*
G36*
X0020563Y0018307D02*
X0020567Y0018294D01*
X0020575Y0018283D01*
X0020586Y0018273D01*
X00206Y0018265D01*
X0020616Y0018258D01*
X0020636Y0018253D01*
X0020659Y0018249D01*
X0020685Y0018247D01*
X0020714Y0018246D01*
Y0018096D01*
X0020685Y0018095D01*
X0020659Y0018093D01*
X0020636Y0018089D01*
X0020616Y0018084D01*
X00206Y0018077D01*
X0020586Y0018069D01*
X0020575Y0018059D01*
X0020567Y0018048D01*
X0020563Y0018035D01*
X0020561Y0018021D01*
Y0018321D01*
X0020563Y0018307D01*
D02*
G37*
G36*
X0023293Y0017326D02*
X0023291Y0017341D01*
X0023287Y0017353D01*
X0023279Y0017365D01*
X0023268Y0017374D01*
X0023254Y0017383D01*
X0023238Y0017389D01*
X0023218Y0017395D01*
X0023195Y0017398D01*
X0023169Y0017401D01*
X002314Y0017401D01*
Y0017551D01*
X0023169Y0017552D01*
X0023195Y0017554D01*
X0023218Y0017558D01*
X0023238Y0017563D01*
X0023254Y001757D01*
X0023268Y0017578D01*
X0023279Y0017588D01*
X0023287Y0017599D01*
X0023291Y0017612D01*
X0023293Y0017626D01*
Y0017326D01*
D02*
G37*
G36*
X0035883Y0015926D02*
X0035881Y0015941D01*
X0035877Y0015953D01*
X0035869Y0015965D01*
X0035858Y0015974D01*
X0035844Y0015983D01*
X0035828Y0015989D01*
X0035808Y0015995D01*
X0035785Y0015998D01*
X0035759Y0016001D01*
X003573Y0016001D01*
Y0016151D01*
X0035759Y0016152D01*
X0035785Y0016154D01*
X0035808Y0016158D01*
X0035828Y0016163D01*
X0035844Y001617D01*
X0035858Y0016178D01*
X0035869Y0016188D01*
X0035877Y0016199D01*
X0035881Y0016212D01*
X0035883Y0016226D01*
Y0015926D01*
D02*
G37*
G36*
X0006578Y0015336D02*
X0006581Y0015314D01*
X0006586Y0015292D01*
X0006593Y0015271D01*
X0006602Y001525D01*
X0006613Y0015229D01*
X0006626Y0015208D01*
X0006641Y0015188D01*
X0006658Y0015168D01*
X0006677Y0015148D01*
X0006327D01*
X0006346Y0015168D01*
X0006363Y0015188D01*
X0006378Y0015208D01*
X0006391Y0015229D01*
X0006402Y001525D01*
X0006411Y0015271D01*
X0006418Y0015292D01*
X0006423Y0015314D01*
X0006426Y0015336D01*
X0006427Y0015358D01*
X0006577D01*
X0006578Y0015336D01*
D02*
G37*
G36*
X0005385D02*
X0005388Y0015314D01*
X0005393Y0015292D01*
X00054Y0015271D01*
X0005409Y001525D01*
X000542Y0015229D01*
X0005433Y0015208D01*
X0005448Y0015188D01*
X0005465Y0015168D01*
X0005484Y0015148D01*
X0005134D01*
X0005153Y0015168D01*
X000517Y0015188D01*
X0005185Y0015208D01*
X0005198Y0015229D01*
X0005209Y001525D01*
X0005218Y0015271D01*
X0005225Y0015292D01*
X000523Y0015314D01*
X0005233Y0015336D01*
X0005234Y0015358D01*
X0005384D01*
X0005385Y0015336D01*
D02*
G37*
G36*
X0019953Y0015186D02*
X001994Y0015181D01*
X0019929Y0015174D01*
X0019919Y0015163D01*
X0019911Y0015149D01*
X0019904Y0015132D01*
X0019899Y0015112D01*
X0019895Y0015089D01*
X0019893Y0015063D01*
X0019892Y0015034D01*
X0019742D01*
X0019742Y0015063D01*
X0019739Y0015089D01*
X0019736Y0015112D01*
X001973Y0015132D01*
X0019724Y0015149D01*
X0019715Y0015163D01*
X0019706Y0015174D01*
X0019694Y0015181D01*
X0019682Y0015186D01*
X0019667Y0015187D01*
X0019967D01*
X0019953Y0015186D01*
D02*
G37*
G36*
X0032354Y0015942D02*
X0032488Y0015887D01*
X0035777D01*
Y0015476D01*
X0035827D01*
Y0015276D01*
X0035777D01*
Y0014866D01*
X003231D01*
X0027458Y0019717D01*
X0027325Y0019773D01*
X0025387D01*
Y0020791D01*
X0027506D01*
X0032354Y0015942D01*
D02*
G37*
G36*
X0004047Y0030516D02*
X0004408D01*
Y0020879D01*
X0004463Y0020745D01*
X0006313Y0018895D01*
Y0015318D01*
X000631Y0015309D01*
X0006305Y0015296D01*
X0006298Y0015283D01*
X0006289Y001527D01*
X0006279Y0015255D01*
X0006266Y0015241D01*
X0006249Y0015223D01*
X0006242Y0015204D01*
X0006152Y0015115D01*
Y0014825D01*
X0006107Y0014716D01*
X0005704D01*
X0005659Y0014825D01*
Y0015115D01*
X0005569Y0015204D01*
X0005562Y0015223D01*
X0005545Y0015241D01*
X0005532Y0015255D01*
X0005522Y001527D01*
X0005513Y0015283D01*
X0005506Y0015296D01*
X0005501Y0015309D01*
X0005498Y0015318D01*
Y0018745D01*
X0005498Y0018745D01*
X0005443Y0018879D01*
X0005443Y0018879D01*
X0003517Y0020805D01*
Y0030516D01*
X0003877D01*
Y0030566D01*
X0004047D01*
Y0030516D01*
D02*
G37*
G36*
X0002777D02*
X0003138D01*
Y0020726D01*
X0003193Y0020592D01*
X0005119Y0018667D01*
Y0015318D01*
X0005116Y0015309D01*
X0005111Y0015296D01*
X0005104Y0015283D01*
X0005095Y001527D01*
X0005085Y0015255D01*
X0005072Y0015241D01*
X0005056Y0015223D01*
X0005048Y0015204D01*
X0004959Y0015115D01*
Y0014825D01*
X0004914Y0014716D01*
X0004787D01*
Y0017565D01*
X0004731Y0017699D01*
X0004643Y0017787D01*
X000451Y0017842D01*
X000277D01*
X0002636Y0017787D01*
X0002548Y0017699D01*
X0002493Y0017565D01*
Y0010686D01*
X000215Y0010343D01*
X0001799D01*
X0001665Y0010287D01*
X0001212Y0009834D01*
X0001157Y00097D01*
Y0009349D01*
X0000621Y0008814D01*
X-0000873D01*
Y0009274D01*
X-0002073D01*
Y0007974D01*
X-0002038D01*
Y0007811D01*
X-0002321D01*
X-0002333Y000784D01*
Y0008213D01*
X-0002597Y0008476D01*
X-0002969D01*
X-0003233Y0008213D01*
Y000784D01*
X-0002969Y0007576D01*
X-0002924D01*
X-0002876Y0007459D01*
X-0003092Y0007243D01*
X-0003147Y0007109D01*
Y0007026D01*
X-0003583D01*
Y0005426D01*
X-0002333D01*
Y0007026D01*
X-0002593D01*
X-0002646Y0007153D01*
X-0002367Y0007432D01*
X-0002038D01*
Y0007087D01*
X-0000908D01*
Y0007974D01*
X-0000873D01*
Y0008435D01*
X0000699D01*
X0000833Y000849D01*
X000148Y0009137D01*
X0001536Y0009271D01*
Y0009622D01*
X0001654Y0009741D01*
X0001772Y0009692D01*
Y0009008D01*
X0004019D01*
X0004068Y0008901D01*
Y0008675D01*
X0004019Y0008568D01*
X0003941Y0008568D01*
X0001772D01*
Y0007498D01*
X0001737Y0007496D01*
Y0006428D01*
X0001737Y0006396D01*
X0001659Y0006301D01*
X-0000908D01*
Y0006647D01*
X-0002038D01*
Y0005577D01*
X-0000908D01*
Y0005922D01*
X0004068D01*
Y0004172D01*
X0003244Y0003348D01*
X0003189Y0003214D01*
Y0002212D01*
X0002687Y0001711D01*
X0001782D01*
X0001648Y0001655D01*
X0001469Y0001476D01*
X0001414Y0001342D01*
Y0001028D01*
X0001036D01*
Y0001403D01*
X-0000034D01*
Y0000273D01*
X-0000034Y0000273D01*
X-0000073Y0000162D01*
X-0000435D01*
X-0000474Y0000273D01*
X-0000474Y0000289D01*
Y0001403D01*
X-000079D01*
X-000079Y0001404D01*
X-0000793Y0001414D01*
Y0002737D01*
X-0000368Y0003162D01*
X0001192D01*
X0001201Y0003159D01*
X0001203Y0003159D01*
Y0002578D01*
X0002303D01*
Y0004178D01*
X0001203D01*
Y0003598D01*
X0001201Y0003597D01*
X0001192Y0003595D01*
X-0000457D01*
X-000061Y0003531D01*
X-0001162Y0002979D01*
X-0001225Y0002826D01*
Y0001414D01*
X-0001228Y0001404D01*
X-0001228Y0001403D01*
X-0001544D01*
Y0001032D01*
X-0001545Y0001032D01*
X-0001554Y0001029D01*
X-0001995D01*
X-0002004Y0001032D01*
X-0002005Y0001032D01*
Y0001413D01*
X-0003305D01*
Y0000289D01*
X-0003305Y0000213D01*
X-0003411Y0000162D01*
X-0005426D01*
Y0012817D01*
X000127D01*
X0001385Y0012865D01*
X0001432Y0012979D01*
Y0030566D01*
X0002777D01*
Y0030516D01*
D02*
G37*
G36*
X0004673Y0014734D02*
X0004675Y0014708D01*
X0004679Y0014685D01*
X0004684Y0014665D01*
X0004691Y0014648D01*
X0004699Y0014635D01*
X0004709Y0014624D01*
X000472Y0014616D01*
X0004733Y0014612D01*
X0004747Y001461D01*
X0004447D01*
X0004462Y0014612D01*
X0004474Y0014616D01*
X0004486Y0014624D01*
X0004495Y0014635D01*
X0004504Y0014648D01*
X000451Y0014665D01*
X0004516Y0014685D01*
X0004519Y0014708D01*
X0004522Y0014734D01*
X0004522Y0014763D01*
X0004672D01*
X0004673Y0014734D01*
D02*
G37*
G36*
X0035883Y0014526D02*
X0035881Y0014541D01*
X0035877Y0014553D01*
X0035869Y0014565D01*
X0035858Y0014574D01*
X0035844Y0014583D01*
X0035828Y0014589D01*
X0035808Y0014595D01*
X0035785Y0014598D01*
X0035759Y0014601D01*
X003573Y0014601D01*
Y0014751D01*
X0035759Y0014752D01*
X0035785Y0014754D01*
X0035808Y0014758D01*
X0035828Y0014763D01*
X0035844Y001477D01*
X0035858Y0014778D01*
X0035869Y0014788D01*
X0035877Y0014799D01*
X0035881Y0014812D01*
X0035883Y0014826D01*
Y0014526D01*
D02*
G37*
G36*
X0004673Y0014232D02*
X0004676Y001421D01*
X0004681Y0014189D01*
X0004688Y0014167D01*
X0004697Y0014146D01*
X0004708Y0014125D01*
X0004721Y0014105D01*
X0004736Y0014085D01*
X0004753Y0014064D01*
X0004772Y0014045D01*
X0004422D01*
X0004441Y0014064D01*
X0004458Y0014085D01*
X0004473Y0014105D01*
X0004486Y0014125D01*
X0004497Y0014146D01*
X0004506Y0014167D01*
X0004513Y0014189D01*
X0004518Y001421D01*
X0004521Y0014232D01*
X0004522Y0014255D01*
X0004672D01*
X0004673Y0014232D01*
D02*
G37*
G36*
X0032098Y0014542D02*
X0032232Y0014487D01*
X0035777D01*
Y0014076D01*
X0035827D01*
Y0013876D01*
X0035777D01*
Y0013466D01*
X0032319D01*
X0027499Y0018285D01*
X0027365Y0018341D01*
X0025387D01*
Y0019394D01*
X0027246D01*
X0032098Y0014542D01*
D02*
G37*
G36*
X0035883Y0013126D02*
X0035881Y0013141D01*
X0035877Y0013153D01*
X0035869Y0013165D01*
X0035858Y0013174D01*
X0035844Y0013183D01*
X0035828Y0013189D01*
X0035808Y0013195D01*
X0035785Y0013198D01*
X0035759Y0013201D01*
X003573Y0013201D01*
Y0013351D01*
X0035759Y0013352D01*
X0035785Y0013354D01*
X0035808Y0013358D01*
X0035828Y0013363D01*
X0035844Y001337D01*
X0035858Y0013378D01*
X0035869Y0013388D01*
X0035877Y0013399D01*
X0035881Y0013412D01*
X0035883Y0013426D01*
Y0013126D01*
D02*
G37*
G36*
X0011083Y0013121D02*
X001107Y0013116D01*
X0011059Y0013109D01*
X0011049Y0013098D01*
X0011041Y0013084D01*
X0011034Y0013067D01*
X0011029Y0013047D01*
X0011025Y0013024D01*
X0011023Y0012998D01*
X0011022Y0012969D01*
X0010872D01*
X0010872Y0012998D01*
X0010869Y0013024D01*
X0010866Y0013047D01*
X001086Y0013067D01*
X0010854Y0013084D01*
X0010845Y0013098D01*
X0010836Y0013109D01*
X0010824Y0013116D01*
X0010812Y0013121D01*
X0010797Y0013122D01*
X0011097D01*
X0011083Y0013121D01*
D02*
G37*
G36*
X0009813D02*
X00098Y0013116D01*
X0009789Y0013109D01*
X0009779Y0013098D01*
X0009771Y0013084D01*
X0009764Y0013067D01*
X0009759Y0013047D01*
X0009755Y0013024D01*
X0009753Y0012998D01*
X0009752Y0012969D01*
X0009602D01*
X0009602Y0012998D01*
X0009599Y0013024D01*
X0009596Y0013047D01*
X000959Y0013067D01*
X0009584Y0013084D01*
X0009575Y0013098D01*
X0009566Y0013109D01*
X0009554Y0013116D01*
X0009542Y0013121D01*
X0009527Y0013122D01*
X0009827D01*
X0009813Y0013121D01*
D02*
G37*
G36*
X0008543D02*
X000853Y0013116D01*
X0008519Y0013109D01*
X0008509Y0013098D01*
X0008501Y0013084D01*
X0008494Y0013067D01*
X0008489Y0013047D01*
X0008485Y0013024D01*
X0008483Y0012998D01*
X0008482Y0012969D01*
X0008332D01*
X0008332Y0012998D01*
X0008329Y0013024D01*
X0008326Y0013047D01*
X000832Y0013067D01*
X0008314Y0013084D01*
X0008305Y0013098D01*
X0008296Y0013109D01*
X0008284Y0013116D01*
X0008272Y0013121D01*
X0008257Y0013122D01*
X0008557D01*
X0008543Y0013121D01*
D02*
G37*
G36*
X0007273D02*
X000726Y0013116D01*
X0007249Y0013109D01*
X0007239Y0013098D01*
X0007231Y0013084D01*
X0007224Y0013067D01*
X0007219Y0013047D01*
X0007215Y0013024D01*
X0007213Y0012998D01*
X0007212Y0012969D01*
X0007062D01*
X0007062Y0012998D01*
X0007059Y0013024D01*
X0007056Y0013047D01*
X000705Y0013067D01*
X0007044Y0013084D01*
X0007035Y0013098D01*
X0007026Y0013109D01*
X0007014Y0013116D01*
X0007002Y0013121D01*
X0006987Y0013122D01*
X0007287D01*
X0007273Y0013121D01*
D02*
G37*
G36*
X0006003D02*
X000599Y0013116D01*
X0005979Y0013109D01*
X0005969Y0013098D01*
X0005961Y0013084D01*
X0005954Y0013067D01*
X0005949Y0013047D01*
X0005945Y0013024D01*
X0005943Y0012998D01*
X0005942Y0012969D01*
X0005792D01*
X0005792Y0012998D01*
X0005789Y0013024D01*
X0005786Y0013047D01*
X000578Y0013067D01*
X0005774Y0013084D01*
X0005765Y0013098D01*
X0005756Y0013109D01*
X0005744Y0013116D01*
X0005732Y0013121D01*
X0005717Y0013122D01*
X0006017D01*
X0006003Y0013121D01*
D02*
G37*
G36*
X0028638Y0013078D02*
X0028621Y0013058D01*
X0028606Y0013038D01*
X0028593Y0013017D01*
X0028582Y0012996D01*
X0028573Y0012975D01*
X0028566Y0012954D01*
X0028561Y0012932D01*
X0028558Y001291D01*
X0028557Y0012888D01*
X0028407D01*
X0028406Y001291D01*
X0028403Y0012932D01*
X0028398Y0012954D01*
X0028391Y0012975D01*
X0028382Y0012996D01*
X0028371Y0013017D01*
X0028358Y0013038D01*
X0028343Y0013058D01*
X0028326Y0013078D01*
X0028307Y0013098D01*
X0028657D01*
X0028638Y0013078D01*
D02*
G37*
G36*
X0027238D02*
X0027221Y0013058D01*
X0027206Y0013038D01*
X0027193Y0013017D01*
X0027182Y0012996D01*
X0027173Y0012975D01*
X0027166Y0012954D01*
X0027161Y0012932D01*
X0027158Y001291D01*
X0027157Y0012888D01*
X0027007D01*
X0027006Y001291D01*
X0027003Y0012932D01*
X0026998Y0012954D01*
X0026991Y0012975D01*
X0026982Y0012996D01*
X0026971Y0013017D01*
X0026958Y0013038D01*
X0026943Y0013058D01*
X0026926Y0013078D01*
X0026907Y0013098D01*
X0027257D01*
X0027238Y0013078D01*
D02*
G37*
G36*
X0025855Y0013096D02*
X0025836Y0013077D01*
X0025819Y0013057D01*
X0025804Y0013037D01*
X0025791Y0013016D01*
X002578Y0012996D01*
X0025771Y0012975D01*
X0025763Y0012953D01*
X0025758Y0012932D01*
X0025755Y001291D01*
X0025754Y0012887D01*
X0025604Y0012889D01*
X0025603Y0012911D01*
X00256Y0012933D01*
X0025595Y0012954D01*
X0025588Y0012976D01*
X002558Y0012997D01*
X0025569Y0013018D01*
X0025556Y0013039D01*
X0025541Y0013059D01*
X0025524Y0013079D01*
X0025505Y0013099D01*
X0025855Y0013096D01*
D02*
G37*
G36*
X0009753Y0012883D02*
X0009755Y0012857D01*
X0009759Y0012834D01*
X0009764Y0012814D01*
X0009771Y0012797D01*
X0009779Y0012783D01*
X0009789Y0012772D01*
X00098Y0012765D01*
X0009813Y001276D01*
X0009827Y0012759D01*
X0009527D01*
X0009542Y001276D01*
X0009554Y0012765D01*
X0009566Y0012772D01*
X0009575Y0012783D01*
X0009584Y0012797D01*
X000959Y0012814D01*
X0009596Y0012834D01*
X0009599Y0012857D01*
X0009602Y0012883D01*
X0009602Y0012912D01*
X0009752D01*
X0009753Y0012883D01*
D02*
G37*
G36*
X0008483D02*
X0008485Y0012857D01*
X0008489Y0012834D01*
X0008494Y0012814D01*
X0008501Y0012797D01*
X0008509Y0012783D01*
X0008519Y0012772D01*
X000853Y0012765D01*
X0008543Y001276D01*
X0008557Y0012759D01*
X0008257D01*
X0008272Y001276D01*
X0008284Y0012765D01*
X0008296Y0012772D01*
X0008305Y0012783D01*
X0008314Y0012797D01*
X000832Y0012814D01*
X0008326Y0012834D01*
X0008329Y0012857D01*
X0008332Y0012883D01*
X0008332Y0012912D01*
X0008482D01*
X0008483Y0012883D01*
D02*
G37*
G36*
X0007213D02*
X0007215Y0012857D01*
X0007219Y0012834D01*
X0007224Y0012814D01*
X0007231Y0012797D01*
X0007239Y0012783D01*
X0007249Y0012772D01*
X000726Y0012765D01*
X0007273Y001276D01*
X0007287Y0012759D01*
X0006987D01*
X0007002Y001276D01*
X0007014Y0012765D01*
X0007026Y0012772D01*
X0007035Y0012783D01*
X0007044Y0012797D01*
X000705Y0012814D01*
X0007056Y0012834D01*
X0007059Y0012857D01*
X0007062Y0012883D01*
X0007062Y0012912D01*
X0007212D01*
X0007213Y0012883D01*
D02*
G37*
G36*
X0005943D02*
X0005945Y0012857D01*
X0005949Y0012834D01*
X0005954Y0012814D01*
X0005961Y0012797D01*
X0005969Y0012783D01*
X0005979Y0012772D01*
X000599Y0012765D01*
X0006003Y001276D01*
X0006017Y0012759D01*
X0005717D01*
X0005732Y001276D01*
X0005744Y0012765D01*
X0005756Y0012772D01*
X0005765Y0012783D01*
X0005774Y0012797D01*
X000578Y0012814D01*
X0005786Y0012834D01*
X0005789Y0012857D01*
X0005792Y0012883D01*
X0005792Y0012912D01*
X0005942D01*
X0005943Y0012883D01*
D02*
G37*
G36*
X0025324Y0016535D02*
Y0012802D01*
X0025248Y0012725D01*
X0023317D01*
X0023216Y0012827D01*
X0023216Y0013868D01*
X0023139Y0013945D01*
X002098Y0013945D01*
X0020904Y0014021D01*
Y0015215D01*
X0021006Y0015316D01*
X0023114D01*
X0023216Y0015418D01*
X0023216Y001651D01*
X0023317Y0016612D01*
X0025248D01*
X0025324Y0016535D01*
D02*
G37*
G36*
X0032106Y0013142D02*
X003224Y0013087D01*
X0035777D01*
Y0012676D01*
X0035827D01*
Y0012476D01*
X0035777D01*
Y0012066D01*
X0032246D01*
X0027388Y0016923D01*
X0027254Y0016979D01*
X0025387D01*
Y0017962D01*
X0027287D01*
X0032106Y0013142D01*
D02*
G37*
G36*
X0007271Y0011899D02*
X0007258Y0011895D01*
X0007247Y0011887D01*
X0007237Y0011876D01*
X0007229Y0011863D01*
X0007222Y0011846D01*
X0007217Y0011826D01*
X0007213Y0011803D01*
X0007211Y0011777D01*
X000721Y0011748D01*
X000706D01*
X0007059Y0011777D01*
X0007057Y0011803D01*
X0007053Y0011826D01*
X0007048Y0011846D01*
X0007041Y0011863D01*
X0007033Y0011876D01*
X0007023Y0011887D01*
X0007012Y0011895D01*
X0006999Y0011899D01*
X0006985Y0011901D01*
X0007285D01*
X0007271Y0011899D01*
D02*
G37*
G36*
X0004835D02*
X0004822Y0011895D01*
X0004811Y0011887D01*
X0004801Y0011876D01*
X0004793Y0011863D01*
X0004786Y0011846D01*
X0004781Y0011826D01*
X0004777Y0011803D01*
X0004775Y0011777D01*
X0004774Y0011748D01*
X0004624D01*
X0004623Y0011777D01*
X0004621Y0011803D01*
X0004617Y0011826D01*
X0004612Y0011846D01*
X0004605Y0011863D01*
X0004597Y0011876D01*
X0004587Y0011887D01*
X0004576Y0011895D01*
X0004563Y0011899D01*
X0004549Y0011901D01*
X0004849D01*
X0004835Y0011899D01*
D02*
G37*
G36*
X0035883Y0011726D02*
X0035881Y0011741D01*
X0035877Y0011753D01*
X0035869Y0011765D01*
X0035858Y0011774D01*
X0035844Y0011783D01*
X0035828Y0011789D01*
X0035808Y0011795D01*
X0035785Y0011798D01*
X0035759Y0011801D01*
X003573Y0011801D01*
Y0011951D01*
X0035759Y0011952D01*
X0035785Y0011954D01*
X0035808Y0011958D01*
X0035828Y0011963D01*
X0035844Y001197D01*
X0035858Y0011978D01*
X0035869Y0011988D01*
X0035877Y0011999D01*
X0035881Y0012012D01*
X0035883Y0012026D01*
Y0011726D01*
D02*
G37*
G36*
X0021855Y0011319D02*
X0021878Y0011317D01*
X0021907Y0011316D01*
Y0011166D01*
X0021878Y0011165D01*
X0021855Y0011163D01*
Y0011091D01*
X0021854Y0011105D01*
X0021849Y0011118D01*
X0021842Y0011129D01*
X0021831Y0011139D01*
X0021818Y0011147D01*
X0021805Y0011153D01*
X0021792Y0011147D01*
X0021778Y0011139D01*
X0021767Y0011129D01*
X002176Y0011118D01*
X0021755Y0011105D01*
X0021754Y0011091D01*
Y0011164D01*
X0021734Y0011165D01*
X0021705Y0011166D01*
Y0011316D01*
X0021734Y0011317D01*
X0021754Y0011319D01*
Y0011391D01*
X0021755Y0011377D01*
X002176Y0011364D01*
X0021767Y0011353D01*
X0021778Y0011343D01*
X0021792Y0011335D01*
X0021805Y001133D01*
X0021818Y0011335D01*
X0021831Y0011343D01*
X0021842Y0011353D01*
X0021849Y0011364D01*
X0021854Y0011377D01*
X0021855Y0011391D01*
Y0011319D01*
D02*
G37*
G36*
X0020763Y0011091D02*
X0020761Y0011105D01*
X0020757Y0011118D01*
X0020749Y0011129D01*
X0020739Y0011139D01*
X0020725Y0011147D01*
X0020709Y0011154D01*
X0020689Y0011159D01*
X0020667Y0011163D01*
X0020641Y0011165D01*
X0020613Y0011166D01*
Y0011316D01*
X0020641Y0011317D01*
X0020667Y0011319D01*
X0020689Y0011323D01*
X0020709Y0011328D01*
X0020725Y0011335D01*
X0020739Y0011343D01*
X0020749Y0011353D01*
X0020757Y0011364D01*
X0020761Y0011377D01*
X0020763Y0011391D01*
Y0011091D01*
D02*
G37*
G36*
X0019188Y0011377D02*
X0019192Y0011364D01*
X00192Y0011353D01*
X001921Y0011343D01*
X0019224Y0011335D01*
X0019241Y0011328D01*
X0019261Y0011323D01*
X0019284Y0011319D01*
X001931Y0011317D01*
X0019339Y0011316D01*
Y0011166D01*
X001931Y0011165D01*
X0019284Y0011163D01*
X0019261Y0011159D01*
X0019241Y0011154D01*
X0019224Y0011147D01*
X001921Y0011139D01*
X00192Y0011129D01*
X0019192Y0011118D01*
X0019188Y0011105D01*
X0019186Y0011091D01*
Y0011391D01*
X0019188Y0011377D01*
D02*
G37*
G36*
X0018385Y0011397D02*
X0018405Y001138D01*
X0018425Y0011365D01*
X0018446Y0011352D01*
X0018467Y0011341D01*
X0018488Y0011332D01*
X0018509Y0011325D01*
X0018531Y001132D01*
X0018553Y0011317D01*
X0018575Y0011316D01*
Y0011166D01*
X0018553Y0011165D01*
X0018531Y0011162D01*
X0018509Y0011157D01*
X0018488Y001115D01*
X0018467Y0011141D01*
X0018446Y001113D01*
X0018425Y0011117D01*
X0018405Y0011102D01*
X0018385Y0011085D01*
X0018365Y0011066D01*
Y0011416D01*
X0018385Y0011397D01*
D02*
G37*
G36*
X0020574Y0010947D02*
Y0010008D01*
X002065Y0009931D01*
X0023139D01*
X0025629Y0007442D01*
Y0006604D01*
X0025857Y0006375D01*
X0029769D01*
X0033325Y0002819D01*
X0036855D01*
X0037059Y0002616D01*
Y0000102D01*
X0037008Y0000051D01*
X0035865D01*
X0035814Y0000102D01*
X0035814Y000193D01*
X003556Y0002184D01*
X0032969Y0002184D01*
X0031725Y0003429D01*
X0029591D01*
X0029489Y0003531D01*
Y0005385D01*
X002921Y0005664D01*
X0025781D01*
X0025629Y0005512D01*
Y000348D01*
X0025552Y0003404D01*
X0024587D01*
X0024511Y000348D01*
X0024511Y0006934D01*
X0022708Y0008738D01*
X0019558Y0008738D01*
X0019482Y0008814D01*
Y0010287D01*
X0019431Y0010338D01*
X0017272Y0010338D01*
X0017221Y0010389D01*
X0017221Y0010795D01*
X0017272Y0010846D01*
X0019431Y0010846D01*
X0019482Y0010897D01*
Y0010947D01*
X0019533Y0010998D01*
X0020523D01*
X0020574Y0010947D01*
D02*
G37*
G36*
X0003988Y0017145D02*
X0003988Y001077D01*
X0003937Y0010719D01*
X0003422Y0010719D01*
X0003421Y0010718D01*
X0003414Y0010701D01*
X0003409Y0010682D01*
X0003405Y0010659D01*
X0003403Y0010634D01*
X0003402Y0010605D01*
X0003252D01*
X0003252Y0010634D01*
X0003249Y0010659D01*
X0003246Y0010682D01*
X000324Y0010701D01*
X0003234Y0010718D01*
X0003233Y0010719D01*
X0002909Y0010719D01*
X0002873Y0010754D01*
Y0017148D01*
X0003048Y0017323D01*
X000381D01*
X0003988Y0017145D01*
D02*
G37*
G36*
X0028557Y0010699D02*
X002856Y0010673D01*
X0028563Y001065D01*
X0028569Y001063D01*
X0028575Y0010614D01*
X0028584Y00106D01*
X0028593Y0010589D01*
X0028605Y0010581D01*
X0028617Y0010577D01*
X0028632Y0010575D01*
X0028332D01*
X0028346Y0010577D01*
X0028359Y0010581D01*
X002837Y0010589D01*
X002838Y00106D01*
X0028388Y0010614D01*
X0028395Y001063D01*
X00284Y001065D01*
X0028404Y0010673D01*
X0028406Y0010699D01*
X0028407Y0010728D01*
X0028557D01*
X0028557Y0010699D01*
D02*
G37*
G36*
X0027157D02*
X002716Y0010673D01*
X0027163Y001065D01*
X0027169Y001063D01*
X0027175Y0010614D01*
X0027184Y00106D01*
X0027193Y0010589D01*
X0027205Y0010581D01*
X0027217Y0010577D01*
X0027232Y0010575D01*
X0026932D01*
X0026946Y0010577D01*
X0026959Y0010581D01*
X002697Y0010589D01*
X002698Y00106D01*
X0026988Y0010614D01*
X0026995Y001063D01*
X0027Y001065D01*
X0027004Y0010673D01*
X0027006Y0010699D01*
X0027007Y0010728D01*
X0027157D01*
X0027157Y0010699D01*
D02*
G37*
G36*
X0025755D02*
X0025757Y0010673D01*
X0025761Y001065D01*
X0025766Y001063D01*
X0025773Y0010614D01*
X0025781Y00106D01*
X0025791Y0010589D01*
X0025802Y0010581D01*
X0025815Y0010577D01*
X0025829Y0010575D01*
X0025529D01*
X0025544Y0010577D01*
X0025556Y0010581D01*
X0025568Y0010589D01*
X0025577Y00106D01*
X0025586Y0010614D01*
X0025592Y001063D01*
X0025598Y001065D01*
X0025601Y0010673D01*
X0025604Y0010699D01*
X0025604Y0010728D01*
X0025754D01*
X0025755Y0010699D01*
D02*
G37*
G36*
X0008479Y001034D02*
X0008474Y0010337D01*
X000847Y0010331D01*
X0008467Y0010324D01*
X0008464Y0010315D01*
X0008461Y0010303D01*
X0008459Y001029D01*
X0008457Y0010256D01*
X0008457Y0010236D01*
X0008307D01*
X0008307Y0010256D01*
X0008303Y0010303D01*
X00083Y0010315D01*
X0008297Y0010324D01*
X0008294Y0010331D01*
X000829Y0010337D01*
X0008285Y001034D01*
X000828Y0010341D01*
X0008484D01*
X0008479Y001034D01*
D02*
G37*
G36*
X0009813Y0010339D02*
X00098Y0010335D01*
X0009789Y0010327D01*
X0009779Y0010316D01*
X0009771Y0010303D01*
X0009764Y0010286D01*
X0009759Y0010266D01*
X0009755Y0010243D01*
X0009753Y0010217D01*
X0009752Y0010188D01*
X0009602D01*
X0009602Y0010217D01*
X0009599Y0010243D01*
X0009596Y0010266D01*
X000959Y0010286D01*
X0009584Y0010303D01*
X0009575Y0010316D01*
X0009566Y0010327D01*
X0009554Y0010335D01*
X0009542Y0010339D01*
X0009527Y0010341D01*
X0009827D01*
X0009813Y0010339D01*
D02*
G37*
G36*
X0007273D02*
X000726Y0010335D01*
X0007249Y0010327D01*
X0007239Y0010316D01*
X0007231Y0010303D01*
X0007224Y0010286D01*
X0007219Y0010266D01*
X0007215Y0010243D01*
X0007213Y0010217D01*
X0007212Y0010188D01*
X0007062D01*
X0007062Y0010217D01*
X0007059Y0010243D01*
X0007056Y0010266D01*
X000705Y0010286D01*
X0007044Y0010303D01*
X0007035Y0010316D01*
X0007026Y0010327D01*
X0007014Y0010335D01*
X0007002Y0010339D01*
X0006987Y0010341D01*
X0007287D01*
X0007273Y0010339D01*
D02*
G37*
G36*
X0006003D02*
X000599Y0010335D01*
X0005979Y0010327D01*
X0005969Y0010316D01*
X0005961Y0010303D01*
X0005954Y0010286D01*
X0005949Y0010266D01*
X0005945Y0010243D01*
X0005943Y0010217D01*
X0005942Y0010188D01*
X0005792D01*
X0005792Y0010217D01*
X0005789Y0010243D01*
X0005786Y0010266D01*
X000578Y0010286D01*
X0005774Y0010303D01*
X0005765Y0010316D01*
X0005756Y0010327D01*
X0005744Y0010335D01*
X0005732Y0010339D01*
X0005717Y0010341D01*
X0006017D01*
X0006003Y0010339D01*
D02*
G37*
G36*
X000451Y0011633D02*
X0004565Y0011499D01*
X0004667Y0011398D01*
X0004667Y0011398D01*
X0004801Y0011342D01*
X0004801Y0011342D01*
X0005191D01*
X0005302Y0011305D01*
Y0010235D01*
X0005678D01*
Y001008D01*
X0005733Y0009947D01*
X0006001Y0009679D01*
X0005953Y0009561D01*
X0004447D01*
Y0010114D01*
X0004391Y0010248D01*
X0004117Y0010523D01*
X0004095Y0010532D01*
X0004079Y0010652D01*
X0004096Y001077D01*
X0004096Y0010772D01*
X0004096Y0011684D01*
X0004223Y0011795D01*
X000451D01*
Y0011633D01*
D02*
G37*
G36*
X0012178Y0009427D02*
X0012182Y0009414D01*
X001219Y0009403D01*
X00122Y0009393D01*
X0012214Y0009385D01*
X0012231Y0009378D01*
X0012251Y0009373D01*
X0012274Y0009369D01*
X00123Y0009367D01*
X0012329Y0009366D01*
Y0009216D01*
X00123Y0009215D01*
X0012274Y0009213D01*
X0012251Y0009209D01*
X0012231Y0009204D01*
X0012214Y0009197D01*
X00122Y0009189D01*
X001219Y0009179D01*
X0012182Y0009168D01*
X0012178Y0009155D01*
X0012176Y0009141D01*
Y0009441D01*
X0012178Y0009427D01*
D02*
G37*
G36*
Y0008777D02*
X0012182Y0008764D01*
X001219Y0008753D01*
X00122Y0008743D01*
X0012214Y0008735D01*
X0012231Y0008728D01*
X0012251Y0008723D01*
X0012274Y0008719D01*
X00123Y0008717D01*
X0012329Y0008716D01*
Y0008566D01*
X00123Y0008565D01*
X0012274Y0008563D01*
X0012251Y0008559D01*
X0012231Y0008554D01*
X0012214Y0008547D01*
X00122Y0008539D01*
X001219Y0008529D01*
X0012182Y0008518D01*
X0012178Y0008505D01*
X0012176Y0008491D01*
Y0008791D01*
X0012178Y0008777D01*
D02*
G37*
G36*
X-0000978Y000876D02*
X-0000973Y0008747D01*
X-0000966Y0008736D01*
X-0000955Y0008726D01*
X-0000941Y0008718D01*
X-0000924Y0008711D01*
X-0000904Y0008706D01*
X-0000881Y0008702D01*
X-0000855Y00087D01*
X-0000826Y0008699D01*
Y0008549D01*
X-0000855Y0008548D01*
X-0000881Y0008546D01*
X-0000904Y0008542D01*
X-0000924Y0008537D01*
X-0000941Y000853D01*
X-0000955Y0008522D01*
X-0000966Y0008512D01*
X-0000973Y0008501D01*
X-0000978Y0008488D01*
X-0000979Y0008474D01*
Y0008774D01*
X-0000978Y000876D01*
D02*
G37*
G36*
X0008347Y0008596D02*
X0008334Y0008591D01*
X0008323Y0008584D01*
X0008313Y0008573D01*
X0008305Y0008559D01*
X0008298Y0008542D01*
X0008293Y0008522D01*
X0008289Y0008499D01*
X0008287Y0008473D01*
X0008286Y0008444D01*
X0008136D01*
X0008136Y0008473D01*
X0008133Y0008499D01*
X000813Y0008522D01*
X0008124Y0008542D01*
X0008118Y0008559D01*
X0008109Y0008573D01*
X00081Y0008584D01*
X0008088Y0008591D01*
X0008076Y0008596D01*
X0008061Y0008597D01*
X0008361D01*
X0008347Y0008596D01*
D02*
G37*
G36*
X0037515Y0008482D02*
X0037518Y0008456D01*
X0037521Y0008433D01*
X0037527Y0008413D01*
X0037533Y0008397D01*
X0037542Y0008383D01*
X0037551Y0008372D01*
X0037563Y0008364D01*
X0037575Y000836D01*
X003759Y0008358D01*
X003729D01*
X0037304Y000836D01*
X0037317Y0008364D01*
X0037328Y0008372D01*
X0037338Y0008383D01*
X0037346Y0008397D01*
X0037353Y0008413D01*
X0037358Y0008433D01*
X0037362Y0008456D01*
X0037364Y0008482D01*
X0037365Y0008511D01*
X0037515D01*
X0037515Y0008482D01*
D02*
G37*
G36*
X0013425Y0008361D02*
X0013372Y0008304D01*
X0013245Y0008354D01*
Y0008763D01*
X001319Y0008897D01*
X0012661Y0009425D01*
X0012527Y0009481D01*
X0012287D01*
X001224Y0009594D01*
X001224Y0009639D01*
X0012291Y0009761D01*
Y0010121D01*
X0012273Y0010165D01*
X0012246Y0010266D01*
X0012273Y0010368D01*
X0012291Y0010411D01*
Y0010771D01*
X0012273Y0010815D01*
X0012246Y0010916D01*
X0012273Y0011018D01*
X0012291Y0011061D01*
Y0011421D01*
X0012273Y0011465D01*
X0012246Y0011566D01*
X0012273Y0011668D01*
X0012291Y0011711D01*
Y0012071D01*
X0012256Y0012155D01*
X0012317Y0012282D01*
X0013425D01*
Y0008361D01*
D02*
G37*
G36*
X0007222Y0008596D02*
X000721Y0008591D01*
X0007198Y0008584D01*
X0007189Y0008573D01*
X000718Y0008559D01*
X0007174Y0008542D01*
X0007168Y0008522D01*
X0007165Y0008499D01*
X0007163Y0008484D01*
X0007168Y0008459D01*
X0007175Y0008437D01*
X0007186Y0008417D01*
X0007199Y0008401D01*
X0007216Y0008387D01*
X0007235Y0008377D01*
X0007258Y0008369D01*
X0007283Y0008365D01*
X0007312Y0008363D01*
X0007087Y0008213D01*
X0006862Y0008363D01*
X000689Y0008365D01*
X0006916Y0008369D01*
X0006938Y0008377D01*
X0006958Y0008387D01*
X0006974Y0008401D01*
X0006988Y0008417D01*
X0006998Y0008437D01*
X0007006Y0008459D01*
X000701Y0008484D01*
X0007009Y0008499D01*
X0007005Y0008522D01*
X0007Y0008542D01*
X0006993Y0008559D01*
X0006985Y0008573D01*
X0006975Y0008584D01*
X0006964Y0008591D01*
X0006951Y0008596D01*
X0006937Y0008597D01*
X0007237D01*
X0007222Y0008596D01*
D02*
G37*
G36*
X001623Y0008357D02*
X0016233Y0008335D01*
X0016238Y0008314D01*
X0016245Y0008292D01*
X0016254Y0008271D01*
X0016265Y000825D01*
X0016278Y000823D01*
X0016293Y000821D01*
X001631Y0008189D01*
X0016329Y000817D01*
X0015979D01*
X0015998Y0008189D01*
X0016015Y000821D01*
X001603Y000823D01*
X0016043Y000825D01*
X0016054Y0008271D01*
X0016063Y0008292D01*
X001607Y0008314D01*
X0016075Y0008335D01*
X0016078Y0008357D01*
X0016079Y000838D01*
X0016229D01*
X001623Y0008357D01*
D02*
G37*
G36*
X001369D02*
X0013693Y0008335D01*
X0013698Y0008314D01*
X0013705Y0008292D01*
X0013714Y0008271D01*
X0013725Y000825D01*
X0013738Y000823D01*
X0013753Y000821D01*
X001377Y0008189D01*
X0013789Y000817D01*
X0013439D01*
X0013458Y0008189D01*
X0013475Y000821D01*
X001349Y000823D01*
X0013503Y000825D01*
X0013514Y0008271D01*
X0013523Y0008292D01*
X001353Y0008314D01*
X0013535Y0008335D01*
X0013538Y0008357D01*
X0013539Y000838D01*
X0013689D01*
X001369Y0008357D01*
D02*
G37*
G36*
X0004334Y0008485D02*
X0004338Y0008459D01*
X0004346Y0008437D01*
X0004356Y0008417D01*
X000437Y0008401D01*
X0004386Y0008387D01*
X0004406Y0008377D01*
X0004428Y0008369D01*
X0004454Y0008365D01*
X0004482Y0008363D01*
Y0008213D01*
X0004454Y0008212D01*
X0004428Y0008207D01*
X0004406Y00082D01*
X0004386Y0008189D01*
X000437Y0008176D01*
X0004356Y0008159D01*
X0004346Y000814D01*
X0004338Y0008117D01*
X0004334Y0008092D01*
X0004332Y0008063D01*
X0004182Y0008288D01*
X0004332Y0008513D01*
X0004334Y0008485D01*
D02*
G37*
G36*
X-0001397Y0008174D02*
X-0001395Y0008148D01*
X-0001391Y0008125D01*
X-0001386Y0008106D01*
X-0001379Y0008089D01*
X-0001374Y000808D01*
X-0001323D01*
X-0001337Y0008079D01*
X-000135Y0008074D01*
X-0001361Y0008067D01*
X-0001362Y0008065D01*
X-0001361Y0008064D01*
X-000135Y0008057D01*
X-0001337Y0008052D01*
X-0001323Y000805D01*
X-0001374D01*
X-0001379Y0008042D01*
X-0001386Y0008025D01*
X-0001391Y0008005D01*
X-0001395Y0007982D01*
X-0001397Y0007956D01*
X-0001398Y0007927D01*
X-0001548D01*
X-0001549Y0007956D01*
X-0001551Y0007982D01*
X-0001555Y0008005D01*
X-000156Y0008025D01*
X-0001567Y0008042D01*
X-0001572Y000805D01*
X-0001623D01*
X-0001609Y0008052D01*
X-0001596Y0008057D01*
X-0001585Y0008064D01*
X-0001584Y0008065D01*
X-0001585Y0008067D01*
X-0001596Y0008074D01*
X-0001609Y0008079D01*
X-0001623Y000808D01*
X-0001572D01*
X-0001567Y0008089D01*
X-000156Y0008106D01*
X-0001555Y0008125D01*
X-0001551Y0008148D01*
X-0001549Y0008174D01*
X-0001548Y0008203D01*
X-0001398D01*
X-0001397Y0008174D01*
D02*
G37*
G36*
X0010279Y0007841D02*
X0010277Y0007855D01*
X0010273Y0007868D01*
X0010265Y0007879D01*
X0010254Y0007889D01*
X0010241Y0007897D01*
X0010224Y0007904D01*
X0010204Y0007909D01*
X0010181Y0007913D01*
X0010155Y0007915D01*
X0010126Y0007916D01*
Y0008066D01*
X0010155Y0008067D01*
X0010181Y0008069D01*
X0010204Y0008073D01*
X0010224Y0008078D01*
X0010241Y0008085D01*
X0010254Y0008093D01*
X0010265Y0008103D01*
X0010273Y0008114D01*
X0010277Y0008127D01*
X0010279Y0008141D01*
Y0007841D01*
D02*
G37*
G36*
X-0001935Y0007472D02*
X-0001937Y0007486D01*
X-0001941Y0007499D01*
X-0001949Y000751D01*
X-0001959Y000752D01*
X-0001973Y0007528D01*
X-0001989Y0007535D01*
X-0002009Y000754D01*
X-0002031Y0007544D01*
X-0002057Y0007546D01*
X-0002085Y0007547D01*
Y0007697D01*
X-0002057Y0007697D01*
X-0002031Y00077D01*
X-0002009Y0007703D01*
X-0001989Y0007709D01*
X-0001973Y0007715D01*
X-0001959Y0007724D01*
X-0001949Y0007733D01*
X-0001941Y0007745D01*
X-0001937Y0007757D01*
X-0001935Y0007772D01*
Y0007472D01*
D02*
G37*
G36*
X0003539Y0007603D02*
X0003527Y0007598D01*
X0003515Y0007591D01*
X0003506Y000758D01*
X0003497Y0007566D01*
X0003491Y0007549D01*
X0003485Y000753D01*
X0003482Y0007507D01*
X0003481Y0007497D01*
X0003482Y0007489D01*
X0003485Y0007466D01*
X0003491Y0007447D01*
X0003497Y000743D01*
X0003506Y0007417D01*
X0003515Y0007406D01*
X0003527Y0007399D01*
X0003539Y0007394D01*
X0003554Y0007393D01*
X0003254D01*
X0003268Y0007394D01*
X0003281Y0007399D01*
X0003292Y0007406D01*
X0003302Y0007417D01*
X000331Y000743D01*
X0003317Y0007447D01*
X0003322Y0007466D01*
X0003326Y0007489D01*
X0003326Y0007497D01*
X0003326Y0007507D01*
X0003322Y000753D01*
X0003317Y0007549D01*
X000331Y0007566D01*
X0003302Y000758D01*
X0003292Y0007591D01*
X0003281Y0007598D01*
X0003268Y0007603D01*
X0003254Y0007604D01*
X0003554D01*
X0003539Y0007603D01*
D02*
G37*
G36*
X0002396D02*
X0002384Y0007598D01*
X0002372Y0007591D01*
X0002363Y000758D01*
X0002354Y0007566D01*
X0002348Y0007549D01*
X0002342Y000753D01*
X0002339Y0007507D01*
X0002338Y0007497D01*
X0002339Y0007489D01*
X0002342Y0007466D01*
X0002348Y0007447D01*
X0002354Y000743D01*
X0002363Y0007417D01*
X0002372Y0007406D01*
X0002384Y0007399D01*
X0002396Y0007394D01*
X0002411Y0007393D01*
X0002111D01*
X0002125Y0007394D01*
X0002138Y0007399D01*
X0002149Y0007406D01*
X0002159Y0007417D01*
X0002167Y000743D01*
X0002174Y0007447D01*
X0002179Y0007466D01*
X0002183Y0007489D01*
X0002183Y0007497D01*
X0002183Y0007507D01*
X0002179Y000753D01*
X0002174Y0007549D01*
X0002167Y0007566D01*
X0002159Y000758D01*
X0002149Y0007591D01*
X0002138Y0007598D01*
X0002125Y0007603D01*
X0002111Y0007604D01*
X0002411D01*
X0002396Y0007603D01*
D02*
G37*
G36*
X0010279Y0007191D02*
X0010277Y0007205D01*
X0010273Y0007218D01*
X0010265Y0007229D01*
X0010254Y0007239D01*
X0010241Y0007247D01*
X0010224Y0007254D01*
X0010204Y0007259D01*
X0010181Y0007263D01*
X0010155Y0007265D01*
X0010126Y0007266D01*
Y0007416D01*
X0010155Y0007417D01*
X0010181Y0007419D01*
X0010204Y0007423D01*
X0010224Y0007428D01*
X0010241Y0007435D01*
X0010254Y0007443D01*
X0010265Y0007453D01*
X0010273Y0007464D01*
X0010277Y0007477D01*
X0010279Y0007491D01*
Y0007191D01*
D02*
G37*
G36*
X0006081Y0007308D02*
X0006083Y0007282D01*
X0006087Y000726D01*
X0006092Y000724D01*
X0006099Y0007223D01*
X0006107Y0007209D01*
X0006117Y0007198D01*
X0006128Y0007191D01*
X0006141Y0007186D01*
X0006155Y0007185D01*
X0005855D01*
X0005869Y0007186D01*
X0005882Y0007191D01*
X0005893Y0007198D01*
X0005903Y0007209D01*
X0005911Y0007223D01*
X0005918Y000724D01*
X0005923Y000726D01*
X0005927Y0007282D01*
X0005929Y0007308D01*
X000593Y0007338D01*
X000608D01*
X0006081Y0007308D01*
D02*
G37*
G36*
X0004978D02*
X000498Y0007282D01*
X0004984Y000726D01*
X0004989Y000724D01*
X0004996Y0007223D01*
X0005004Y0007209D01*
X0005014Y0007198D01*
X0005025Y0007191D01*
X0005038Y0007186D01*
X0005052Y0007185D01*
X0004752D01*
X0004766Y0007186D01*
X0004779Y0007191D01*
X000479Y0007198D01*
X00048Y0007209D01*
X0004808Y0007223D01*
X0004815Y000724D01*
X000482Y000726D01*
X0004824Y0007282D01*
X0004826Y0007308D01*
X0004827Y0007338D01*
X0004977D01*
X0004978Y0007308D01*
D02*
G37*
G36*
X0008367Y0007318D02*
X000835Y0007298D01*
X0008335Y0007278D01*
X0008322Y0007257D01*
X0008311Y0007236D01*
X0008305Y0007222D01*
X0008313Y0007209D01*
X0008323Y0007198D01*
X0008334Y0007191D01*
X0008347Y0007186D01*
X0008361Y0007185D01*
X0008293D01*
X000829Y0007172D01*
X0008287Y000715D01*
X0008286Y0007128D01*
X0008136D01*
X0008135Y000715D01*
X0008132Y0007172D01*
X0008129Y0007185D01*
X0008061D01*
X0008076Y0007186D01*
X0008088Y0007191D01*
X00081Y0007198D01*
X0008109Y0007209D01*
X0008117Y0007222D01*
X0008111Y0007236D01*
X00081Y0007257D01*
X0008087Y0007278D01*
X0008072Y0007298D01*
X0008055Y0007318D01*
X0008036Y0007338D01*
X0008386D01*
X0008367Y0007318D01*
D02*
G37*
G36*
X0007264D02*
X0007247Y0007298D01*
X0007232Y0007278D01*
X0007219Y0007257D01*
X0007208Y0007236D01*
X0007202Y0007222D01*
X000721Y0007209D01*
X000722Y0007198D01*
X0007231Y0007191D01*
X0007244Y0007186D01*
X0007258Y0007185D01*
X000719D01*
X0007187Y0007172D01*
X0007184Y000715D01*
X0007183Y0007128D01*
X0007033D01*
X0007032Y000715D01*
X0007029Y0007172D01*
X0007026Y0007185D01*
X0006958D01*
X0006973Y0007186D01*
X0006985Y0007191D01*
X0006997Y0007198D01*
X0007006Y0007209D01*
X0007014Y0007222D01*
X0007008Y0007236D01*
X0006997Y0007257D01*
X0006984Y0007278D01*
X0006969Y0007298D01*
X0006952Y0007318D01*
X0006933Y0007338D01*
X0007283D01*
X0007264Y0007318D01*
D02*
G37*
G36*
X0022733Y0008255D02*
X0022809Y0008179D01*
X0022809Y0007163D01*
X0022733Y0007087D01*
X0017285Y0007087D01*
X0017221Y0007151D01*
Y0007544D01*
X0017297Y000762D01*
X001938Y000762D01*
X0019482Y0007722D01*
Y0008204D01*
X0019533Y0008255D01*
X0022733Y0008255D01*
D02*
G37*
G36*
X0008347Y0007086D02*
X0008334Y0007081D01*
X0008323Y0007074D01*
X0008313Y0007063D01*
X0008305Y0007049D01*
X0008298Y0007032D01*
X0008293Y0007012D01*
X0008289Y0006989D01*
X0008287Y0006963D01*
X0008286Y0006934D01*
X0008136D01*
X0008136Y0006963D01*
X0008133Y0006989D01*
X000813Y0007012D01*
X0008124Y0007032D01*
X0008118Y0007049D01*
X0008109Y0007063D01*
X00081Y0007074D01*
X0008088Y0007081D01*
X0008076Y0007086D01*
X0008061Y0007087D01*
X0008361D01*
X0008347Y0007086D01*
D02*
G37*
G36*
X0007244D02*
X0007231Y0007081D01*
X000722Y0007074D01*
X000721Y0007063D01*
X0007202Y0007049D01*
X0007195Y0007032D01*
X000719Y0007012D01*
X0007186Y0006989D01*
X0007184Y0006963D01*
X0007183Y0006934D01*
X0007033D01*
X0007033Y0006963D01*
X000703Y0006989D01*
X0007027Y0007012D01*
X0007021Y0007032D01*
X0007015Y0007049D01*
X0007006Y0007063D01*
X0006997Y0007074D01*
X0006985Y0007081D01*
X0006973Y0007086D01*
X0006958Y0007087D01*
X0007258D01*
X0007244Y0007086D01*
D02*
G37*
G36*
X0034217Y0007076D02*
X0034205Y0007071D01*
X0034193Y0007064D01*
X0034184Y0007053D01*
X0034175Y0007039D01*
X0034169Y0007022D01*
X0034163Y0007003D01*
X003416Y000698D01*
X0034157Y0006954D01*
X0034157Y0006924D01*
X0034007D01*
X0034006Y0006954D01*
X0034004Y000698D01*
X0034Y0007003D01*
X0033995Y0007022D01*
X0033988Y0007039D01*
X003398Y0007053D01*
X003397Y0007064D01*
X0033959Y0007071D01*
X0033946Y0007076D01*
X0033932Y0007077D01*
X0034232D01*
X0034217Y0007076D01*
D02*
G37*
G36*
X0032817D02*
X0032805Y0007071D01*
X0032793Y0007064D01*
X0032784Y0007053D01*
X0032775Y0007039D01*
X0032769Y0007022D01*
X0032763Y0007003D01*
X003276Y000698D01*
X0032757Y0006954D01*
X0032757Y0006924D01*
X0032607D01*
X0032606Y0006954D01*
X0032604Y000698D01*
X00326Y0007003D01*
X0032595Y0007022D01*
X0032588Y0007039D01*
X003258Y0007053D01*
X003257Y0007064D01*
X0032559Y0007071D01*
X0032546Y0007076D01*
X0032532Y0007077D01*
X0032832D01*
X0032817Y0007076D01*
D02*
G37*
G36*
X0031417D02*
X0031405Y0007071D01*
X0031393Y0007064D01*
X0031384Y0007053D01*
X0031375Y0007039D01*
X0031369Y0007022D01*
X0031363Y0007003D01*
X003136Y000698D01*
X0031357Y0006954D01*
X0031357Y0006924D01*
X0031207D01*
X0031206Y0006954D01*
X0031204Y000698D01*
X00312Y0007003D01*
X0031195Y0007022D01*
X0031188Y0007039D01*
X003118Y0007053D01*
X003117Y0007064D01*
X0031159Y0007071D01*
X0031146Y0007076D01*
X0031132Y0007077D01*
X0031432D01*
X0031417Y0007076D01*
D02*
G37*
G36*
X0030006D02*
X0029993Y0007071D01*
X0029982Y0007064D01*
X0029972Y0007053D01*
X0029964Y0007039D01*
X0029957Y0007022D01*
X0029952Y0007003D01*
X0029948Y000698D01*
X0029946Y0006954D01*
X0029945Y0006924D01*
X0029795D01*
X0029795Y0006954D01*
X0029792Y000698D01*
X0029789Y0007003D01*
X0029783Y0007022D01*
X0029777Y0007039D01*
X0029768Y0007053D01*
X0029759Y0007064D01*
X0029747Y0007071D01*
X0029735Y0007076D01*
X002972Y0007077D01*
X003002D01*
X0030006Y0007076D01*
D02*
G37*
G36*
X-0002882Y0007044D02*
X-000288Y0007018D01*
X-0002876Y0006995D01*
X-0002871Y0006975D01*
X-0002864Y0006959D01*
X-0002856Y0006945D01*
X-0002846Y0006934D01*
X-0002835Y0006926D01*
X-0002822Y0006922D01*
X-0002808Y000692D01*
X-0003108D01*
X-0003094Y0006922D01*
X-0003081Y0006926D01*
X-000307Y0006934D01*
X-000306Y0006945D01*
X-0003052Y0006959D01*
X-0003045Y0006975D01*
X-000304Y0006995D01*
X-0003036Y0007018D01*
X-0003034Y0007044D01*
X-0003033Y0007073D01*
X-0002883D01*
X-0002882Y0007044D01*
D02*
G37*
G36*
X0006081Y0007122D02*
X0006084Y00071D01*
X0006089Y0007078D01*
X0006096Y0007057D01*
X0006105Y0007037D01*
X0006155D01*
X0006141Y0007036D01*
X0006128Y0007031D01*
X0006117Y0007024D01*
X0006114Y000702D01*
X0006116Y0007015D01*
X0006129Y0006994D01*
X0006144Y0006974D01*
X0006161Y0006954D01*
X000618Y0006934D01*
X0006083D01*
X0006081Y0006913D01*
X000608Y0006884D01*
X000593D01*
X0005929Y0006913D01*
X0005928Y0006934D01*
X000583D01*
X0005849Y0006954D01*
X0005866Y0006974D01*
X0005881Y0006994D01*
X0005894Y0007015D01*
X0005897Y000702D01*
X0005893Y0007024D01*
X0005882Y0007031D01*
X0005869Y0007036D01*
X0005855Y0007037D01*
X0005906D01*
X0005914Y0007057D01*
X0005921Y0007078D01*
X0005926Y00071D01*
X0005929Y0007122D01*
X000593Y0007144D01*
X000608D01*
X0006081Y0007122D01*
D02*
G37*
G36*
X0004978D02*
X0004981Y00071D01*
X0004986Y0007078D01*
X0004993Y0007057D01*
X0005001Y0007037D01*
X0005052D01*
X0005038Y0007036D01*
X0005025Y0007031D01*
X0005014Y0007024D01*
X0005011Y000702D01*
X0005013Y0007015D01*
X0005026Y0006994D01*
X0005041Y0006974D01*
X0005058Y0006954D01*
X0005077Y0006934D01*
X000498D01*
X0004978Y0006913D01*
X0004977Y0006884D01*
X0004827D01*
X0004826Y0006913D01*
X0004825Y0006934D01*
X0004727D01*
X0004746Y0006954D01*
X0004763Y0006974D01*
X0004778Y0006994D01*
X0004791Y0007015D01*
X0004794Y000702D01*
X000479Y0007024D01*
X0004779Y0007031D01*
X0004766Y0007036D01*
X0004752Y0007037D01*
X0004803D01*
X0004811Y0007057D01*
X0004818Y0007078D01*
X0004823Y00071D01*
X0004826Y0007122D01*
X0004827Y0007144D01*
X0004977D01*
X0004978Y0007122D01*
D02*
G37*
G36*
X0035326Y0006645D02*
X0035325Y0006659D01*
X003532Y0006672D01*
X0035313Y0006683D01*
X0035302Y0006693D01*
X0035289Y0006701D01*
X0035272Y0006708D01*
X0035253Y0006713D01*
X003523Y0006717D01*
X0035205Y0006719D01*
X0035176Y000672D01*
Y000687D01*
X0035205Y0006871D01*
X003523Y0006873D01*
X0035253Y0006877D01*
X0035272Y0006882D01*
X0035289Y0006889D01*
X0035302Y0006897D01*
X0035313Y0006907D01*
X003532Y0006918D01*
X0035325Y0006931D01*
X0035326Y0006945D01*
Y0006645D01*
D02*
G37*
G36*
X0010279Y0006541D02*
X0010277Y0006555D01*
X0010273Y0006568D01*
X0010265Y0006579D01*
X0010254Y0006589D01*
X0010241Y0006597D01*
X0010224Y0006604D01*
X0010204Y0006609D01*
X0010181Y0006613D01*
X0010155Y0006615D01*
X0010126Y0006616D01*
Y0006766D01*
X0010155Y0006767D01*
X0010181Y0006769D01*
X0010204Y0006773D01*
X0010224Y0006778D01*
X0010241Y0006785D01*
X0010254Y0006793D01*
X0010265Y0006803D01*
X0010273Y0006814D01*
X0010277Y0006827D01*
X0010279Y0006841D01*
Y0006541D01*
D02*
G37*
G36*
X-0001013Y0006247D02*
X-0001008Y0006235D01*
X-0001001Y0006223D01*
X-000099Y0006214D01*
X-0000976Y0006205D01*
X-0000959Y0006199D01*
X-0000939Y0006193D01*
X-0000916Y000619D01*
X-000089Y0006187D01*
X-0000861Y0006187D01*
Y0006037D01*
X-000089Y0006036D01*
X-0000916Y0006034D01*
X-0000939Y000603D01*
X-0000959Y0006025D01*
X-0000976Y0006018D01*
X-000099Y000601D01*
X-0001001Y0006D01*
X-0001008Y0005989D01*
X-0001013Y0005976D01*
X-0001014Y0005962D01*
Y0006262D01*
X-0001013Y0006247D01*
D02*
G37*
G36*
X0010279Y0005891D02*
X0010277Y0005905D01*
X0010273Y0005918D01*
X0010265Y0005929D01*
X0010254Y0005939D01*
X0010241Y0005947D01*
X0010224Y0005954D01*
X0010204Y0005959D01*
X0010181Y0005963D01*
X0010155Y0005965D01*
X0010126Y0005966D01*
Y0006116D01*
X0010155Y0006117D01*
X0010181Y0006119D01*
X0010204Y0006123D01*
X0010224Y0006128D01*
X0010241Y0006135D01*
X0010254Y0006143D01*
X0010265Y0006153D01*
X0010273Y0006164D01*
X0010277Y0006177D01*
X0010279Y0006191D01*
Y0005891D01*
D02*
G37*
G36*
X0004332Y0006112D02*
X0004182Y0005887D01*
X0004181Y0005915D01*
X0004176Y0005941D01*
X0004169Y0005963D01*
X0004158Y0005983D01*
X0004145Y0005999D01*
X0004128Y0006013D01*
X0004109Y0006023D01*
X0004086Y0006031D01*
X0004061Y0006035D01*
X0004032Y0006037D01*
Y0006187D01*
X0004061Y0006188D01*
X0004086Y0006193D01*
X0004109Y00062D01*
X0004128Y0006211D01*
X0004145Y0006224D01*
X0004158Y0006241D01*
X0004169Y000626D01*
X0004176Y0006283D01*
X0004181Y0006308D01*
X0004182Y0006337D01*
X0004332Y0006112D01*
D02*
G37*
G36*
X0012616Y0008274D02*
Y0003537D01*
X001191Y0002831D01*
X0010944D01*
Y0003792D01*
X0005144D01*
Y0001492D01*
X0005033Y0001454D01*
X0003133D01*
X0003084Y0001572D01*
X0003512Y0001999D01*
X0003512Y0001999D01*
X0003567Y0002133D01*
X0003567Y0002133D01*
Y0003136D01*
X0004391Y0003959D01*
X0004447Y0004093D01*
Y0006221D01*
X0008679D01*
X0008717Y0006128D01*
X0008938Y0005907D01*
X0008938Y0005907D01*
X0009072Y0005852D01*
X0009072Y0005852D01*
X0010168D01*
X0010215Y0005739D01*
X0010337Y0005688D01*
X0012117D01*
X001224Y0005739D01*
X0012291Y0005861D01*
Y0006221D01*
X0012273Y0006265D01*
X0012246Y0006366D01*
X0012273Y0006468D01*
X0012291Y0006511D01*
Y0006871D01*
X001224Y0006994D01*
X001224Y0007039D01*
X0012291Y0007161D01*
Y0007521D01*
X0012273Y0007565D01*
X0012246Y0007666D01*
X0012273Y0007768D01*
X0012291Y0007811D01*
Y0008171D01*
X001224Y0008294D01*
X001224Y0008339D01*
X0012287Y0008452D01*
X0012439D01*
X0012616Y0008274D01*
D02*
G37*
G36*
X0035326Y0005523D02*
X0035325Y0005537D01*
X003532Y000555D01*
X0035313Y0005561D01*
X0035302Y0005571D01*
X0035289Y0005579D01*
X0035272Y0005586D01*
X0035253Y0005591D01*
X003523Y0005595D01*
X0035205Y0005597D01*
X0035176Y0005598D01*
Y0005748D01*
X0035205Y0005749D01*
X003523Y0005751D01*
X0035253Y0005755D01*
X0035272Y000576D01*
X0035289Y0005767D01*
X0035302Y0005775D01*
X0035313Y0005785D01*
X003532Y0005796D01*
X0035325Y0005809D01*
X0035326Y0005823D01*
Y0005523D01*
D02*
G37*
G36*
X0028597Y000494D02*
X0028599Y0004917D01*
X0028602Y0004894D01*
X0028607Y0004872D01*
X0028614Y0004851D01*
X0028623Y0004831D01*
X0028633Y0004811D01*
X0028646Y0004792D01*
X002866Y0004774D01*
X0028676Y0004757D01*
X002857Y0004651D01*
X0028552Y0004667D01*
X0028534Y0004681D01*
X0028515Y0004693D01*
X0028496Y0004704D01*
X0028475Y0004713D01*
X0028454Y000472D01*
X0028433Y0004725D01*
X002841Y0004728D01*
X0028387Y0004729D01*
X0028363Y0004729D01*
X0028598Y0004964D01*
X0028597Y000494D01*
D02*
G37*
G36*
X0035326Y0004401D02*
X0035325Y0004415D01*
X003532Y0004428D01*
X0035313Y0004439D01*
X0035302Y0004449D01*
X0035289Y0004457D01*
X0035272Y0004464D01*
X0035253Y0004469D01*
X003523Y0004473D01*
X0035205Y0004475D01*
X0035176Y0004476D01*
Y0004626D01*
X0035205Y0004627D01*
X003523Y0004629D01*
X0035253Y0004633D01*
X0035272Y0004638D01*
X0035289Y0004645D01*
X0035302Y0004653D01*
X0035313Y0004663D01*
X003532Y0004674D01*
X0035325Y0004687D01*
X0035326Y0004701D01*
Y0004401D01*
D02*
G37*
G36*
X0028762Y0004483D02*
X0028749Y0004478D01*
X0028738Y0004471D01*
X0028728Y000446D01*
X002872Y0004446D01*
X0028713Y0004429D01*
X0028708Y000441D01*
X0028704Y0004387D01*
X0028702Y0004371D01*
X0028704Y0004355D01*
X0028708Y0004332D01*
X0028713Y0004312D01*
X002872Y0004296D01*
X0028728Y0004282D01*
X0028738Y0004271D01*
X0028749Y0004263D01*
X0028762Y0004259D01*
X0028776Y0004257D01*
X0028476D01*
X002849Y0004259D01*
X0028503Y0004263D01*
X0028514Y0004271D01*
X0028524Y0004282D01*
X0028532Y0004296D01*
X0028539Y0004312D01*
X0028544Y0004332D01*
X0028548Y0004355D01*
X0028549Y0004371D01*
X0028548Y0004387D01*
X0028544Y000441D01*
X0028539Y0004429D01*
X0028532Y0004446D01*
X0028524Y000446D01*
X0028514Y0004471D01*
X0028503Y0004478D01*
X002849Y0004483D01*
X0028476Y0004484D01*
X0028776D01*
X0028762Y0004483D01*
D02*
G37*
G36*
X0026599Y0004603D02*
X0026665D01*
X0026652Y0004586D01*
X0026641Y0004563D01*
X0026631Y0004535D01*
X0026622Y00045D01*
X0026619Y0004481D01*
X0026674D01*
X0026659Y000448D01*
X0026646Y0004475D01*
X0026635Y0004468D01*
X0026625Y0004457D01*
X0026617Y0004444D01*
X0026612Y0004432D01*
X0026611Y0004414D01*
X0026615Y0004349D01*
X0026622Y0004307D01*
X002663Y0004277D01*
X0026635Y0004271D01*
X0026646Y0004263D01*
X0026659Y0004259D01*
X0026674Y0004257D01*
X0026636D01*
X0026641Y0004243D01*
X0026652Y0004221D01*
X0026665Y0004204D01*
X0026599D01*
X0026598Y0004159D01*
X0026448D01*
X0026448Y0004204D01*
X0026382D01*
X0026395Y0004221D01*
X0026406Y0004243D01*
X0026411Y0004257D01*
X0026374D01*
X0026388Y0004259D01*
X00264Y0004263D01*
X0026412Y0004271D01*
X0026417Y0004277D01*
X0026425Y0004307D01*
X0026432Y0004349D01*
X0026436Y0004392D01*
X0026434Y0004435D01*
X002643Y0004444D01*
X0026421Y0004457D01*
X0026412Y0004468D01*
X00264Y0004475D01*
X0026388Y000448D01*
X0026374Y0004481D01*
X0026428D01*
X0026425Y00045D01*
X0026416Y0004535D01*
X0026406Y0004563D01*
X0026395Y0004586D01*
X0026382Y0004603D01*
X0026448D01*
X0026448Y0004648D01*
X0026598D01*
X0026599Y0004603D01*
D02*
G37*
G36*
X0027698Y0004378D02*
X0028143D01*
X0028264Y0004363D01*
Y0003293D01*
X0029394D01*
X0029394Y0003293D01*
X0029394Y0003293D01*
X0029502Y0003349D01*
X0029514Y0003352D01*
X0029591Y0003321D01*
X003168D01*
X0032718Y0002283D01*
X0032669Y0002165D01*
X0032369D01*
Y0001035D01*
X0032444D01*
Y0000025D01*
X0032044D01*
Y0001184D01*
X0031929D01*
Y0002165D01*
X0030859D01*
Y0001184D01*
X0030744D01*
Y0000025D01*
X0029394D01*
Y0000746D01*
X0028264D01*
Y0000025D01*
X0026854D01*
Y0000746D01*
X0025724D01*
Y0000025D01*
X0023687D01*
X0023638Y0000143D01*
X0024435Y0000939D01*
X0024467Y0001016D01*
Y0001663D01*
X0025644D01*
X0025724Y0001569D01*
Y0001236D01*
X0026854D01*
Y0001783D01*
Y0002853D01*
X0025724D01*
X0025644Y0002947D01*
Y0002963D01*
X0024467D01*
Y0003208D01*
X0024497Y0003245D01*
X0024587Y0003295D01*
X0025552D01*
X0025597Y0003314D01*
X0025724Y0003293D01*
X0025724Y0003293D01*
X0026854D01*
Y0004363D01*
X0026975Y0004378D01*
X0027408D01*
Y0005556D01*
X0027698D01*
Y0004378D01*
D02*
G37*
G36*
X0035326Y0003279D02*
X0035325Y0003293D01*
X003532Y0003306D01*
X0035313Y0003317D01*
X0035302Y0003327D01*
X0035289Y0003335D01*
X0035272Y0003342D01*
X0035253Y0003347D01*
X003523Y0003351D01*
X0035205Y0003353D01*
X0035176Y0003354D01*
Y0003504D01*
X0035205Y0003505D01*
X003523Y0003507D01*
X0035253Y0003511D01*
X0035272Y0003516D01*
X0035289Y0003523D01*
X0035302Y0003531D01*
X0035313Y0003541D01*
X003532Y0003552D01*
X0035325Y0003565D01*
X0035326Y0003579D01*
Y0003279D01*
D02*
G37*
G36*
X0001309Y0003178D02*
X0001307Y0003197D01*
X0001301Y0003214D01*
X000129Y0003229D01*
X0001276Y0003242D01*
X0001258Y0003253D01*
X0001236Y0003262D01*
X0001209Y0003269D01*
X0001179Y0003274D01*
X0001144Y0003277D01*
X0001106Y0003278D01*
Y0003478D01*
X0001144Y0003479D01*
X0001179Y0003482D01*
X0001209Y0003487D01*
X0001236Y0003494D01*
X0001258Y0003503D01*
X0001276Y0003514D01*
X000129Y0003527D01*
X0001301Y0003542D01*
X0001307Y0003559D01*
X0001309Y0003578D01*
Y0003178D01*
D02*
G37*
G36*
X001475Y0002492D02*
X0014749Y0002506D01*
X0014744Y0002519D01*
X0014737Y000253D01*
X0014726Y000254D01*
X0014712Y0002548D01*
X0014695Y0002555D01*
X0014676Y000256D01*
X0014653Y0002564D01*
X0014627Y0002566D01*
X0014597Y0002567D01*
Y0002717D01*
X0014627Y0002717D01*
X0014653Y000272D01*
X0014676Y0002723D01*
X0014695Y0002729D01*
X0014712Y0002735D01*
X0014726Y0002744D01*
X0014737Y0002753D01*
X0014744Y0002765D01*
X0014749Y0002777D01*
X001475Y0002792D01*
Y0002492D01*
D02*
G37*
G36*
X001084Y0002777D02*
X0010844Y0002765D01*
X0010852Y0002753D01*
X0010863Y0002744D01*
X0010877Y0002735D01*
X0010893Y0002729D01*
X0010913Y0002723D01*
X0010936Y000272D01*
X0010962Y0002717D01*
X0010991Y0002717D01*
Y0002567D01*
X0010962Y0002566D01*
X0010936Y0002564D01*
X0010913Y000256D01*
X0010893Y0002555D01*
X0010877Y0002548D01*
X0010863Y000254D01*
X0010852Y000253D01*
X0010844Y0002519D01*
X001084Y0002506D01*
X0010838Y0002492D01*
Y0002792D01*
X001084Y0002777D01*
D02*
G37*
G36*
X002583Y0002163D02*
X0025829Y0002177D01*
X0025824Y000219D01*
X0025816Y0002201D01*
X0025806Y0002211D01*
X0025792Y0002219D01*
X0025775Y0002226D01*
X0025755Y0002231D01*
X0025732Y0002235D01*
X0025706Y0002237D01*
X0025684Y0002238D01*
X0025662Y0002237D01*
X0025636Y0002235D01*
X0025613Y0002231D01*
X0025593Y0002226D01*
X0025577Y0002219D01*
X0025563Y0002211D01*
X0025552Y0002201D01*
X0025544Y000219D01*
X002554Y0002177D01*
X0025538Y0002163D01*
Y0002463D01*
X002554Y0002449D01*
X0025544Y0002436D01*
X0025552Y0002425D01*
X0025563Y0002415D01*
X0025577Y0002407D01*
X0025593Y00024D01*
X0025613Y0002395D01*
X0025636Y0002391D01*
X0025662Y0002389D01*
X0025684Y0002388D01*
X0025706Y0002389D01*
X0025732Y0002391D01*
X0025755Y0002395D01*
X0025775Y00024D01*
X0025792Y0002407D01*
X0025806Y0002415D01*
X0025816Y0002425D01*
X0025824Y0002436D01*
X0025829Y0002449D01*
X002583Y0002463D01*
Y0002163D01*
D02*
G37*
G36*
X-0000908Y0001462D02*
X-0000905Y0001427D01*
X-00009Y0001397D01*
X-0000893Y000137D01*
X-0000884Y0001348D01*
X-0000873Y000133D01*
X-000086Y0001315D01*
X-0000845Y0001305D01*
X-0000828Y0001299D01*
X-0000809Y0001297D01*
X-0001209D01*
X-000119Y0001299D01*
X-0001173Y0001305D01*
X-0001158Y0001315D01*
X-0001145Y000133D01*
X-0001134Y0001348D01*
X-0001125Y000137D01*
X-0001118Y0001397D01*
X-0001113Y0001427D01*
X-000111Y0001462D01*
X-0001109Y00015D01*
X-0000909D01*
X-0000908Y0001462D01*
D02*
G37*
G36*
X-0000908Y0001192D02*
X-0000906Y0001169D01*
X-0000902Y0001146D01*
X-0000897Y0001124D01*
X-000089Y0001104D01*
X-0000882Y0001084D01*
X-0000872Y0001066D01*
X-0000861Y0001048D01*
X-0000848Y0001032D01*
X-0000834Y0001017D01*
X-0001184D01*
X-000117Y0001032D01*
X-0001157Y0001048D01*
X-0001146Y0001066D01*
X-0001136Y0001084D01*
X-0001128Y0001104D01*
X-0001121Y0001124D01*
X-0001116Y0001146D01*
X-0001112Y0001169D01*
X-000111Y0001192D01*
X-0001109Y0001217D01*
X-0000909D01*
X-0000908Y0001192D01*
D02*
G37*
G36*
X003493Y0001402D02*
X0034913Y0001382D01*
X0034898Y0001362D01*
X0034885Y0001341D01*
X0034874Y000132D01*
X0034865Y0001299D01*
X0034858Y0001278D01*
X0034853Y0001256D01*
X003485Y0001234D01*
X003485Y0001219D01*
X003485Y0001203D01*
X0034852Y0001177D01*
X0034856Y0001155D01*
X003486Y0001141D01*
X0034924D01*
X003491Y000114D01*
X0034897Y0001135D01*
X0034886Y0001128D01*
X0034876Y0001117D01*
X0034873Y0001111D01*
X0034876Y0001105D01*
X0034886Y0001095D01*
X0034897Y0001087D01*
X003491Y0001083D01*
X0034924Y0001081D01*
X003486D01*
X0034856Y0001066D01*
X0034852Y0001043D01*
X003485Y0001017D01*
X0034849Y0000988D01*
X0034699D01*
X0034699Y0001017D01*
X0034696Y0001043D01*
X0034693Y0001066D01*
X0034689Y0001081D01*
X0034624D01*
X0034639Y0001083D01*
X0034651Y0001087D01*
X0034663Y0001095D01*
X0034672Y0001105D01*
X0034676Y0001111D01*
X0034672Y0001117D01*
X0034663Y0001128D01*
X0034651Y0001135D01*
X0034639Y000114D01*
X0034624Y0001141D01*
X0034689D01*
X0034693Y0001155D01*
X0034696Y0001177D01*
X0034699Y0001203D01*
X0034699Y0001219D01*
X0034698Y0001234D01*
X0034695Y0001256D01*
X003469Y0001278D01*
X0034683Y0001299D01*
X0034674Y000132D01*
X0034663Y0001341D01*
X003465Y0001362D01*
X0034635Y0001382D01*
X0034618Y0001402D01*
X0034599Y0001422D01*
X0034949D01*
X003493Y0001402D01*
D02*
G37*
G36*
X003317Y0001202D02*
X0033172Y0001176D01*
X0033176Y0001153D01*
X003318Y0001138D01*
X0033244D01*
X003323Y0001137D01*
X0033217Y0001132D01*
X0033206Y0001125D01*
X0033196Y0001114D01*
X0033193Y0001108D01*
X0033196Y0001103D01*
X0033206Y0001092D01*
X0033217Y0001084D01*
X003323Y000108D01*
X0033244Y0001078D01*
X003318D01*
X0033176Y0001065D01*
X0033172Y0001042D01*
X003317Y0001017D01*
X0033169Y0000988D01*
X0033019D01*
X0033019Y0001017D01*
X0033016Y0001042D01*
X0033013Y0001065D01*
X0033009Y0001078D01*
X0032944D01*
X0032959Y000108D01*
X0032971Y0001084D01*
X0032983Y0001092D01*
X0032992Y0001103D01*
X0032996Y0001108D01*
X0032992Y0001114D01*
X0032983Y0001125D01*
X0032971Y0001132D01*
X0032959Y0001137D01*
X0032944Y0001138D01*
X0033009D01*
X0033013Y0001153D01*
X0033016Y0001176D01*
X0033019Y0001202D01*
X0033019Y0001231D01*
X0033169D01*
X003317Y0001202D01*
D02*
G37*
G36*
X003147D02*
X0031472Y0001176D01*
X0031476Y0001153D01*
X003148Y0001138D01*
X0031544D01*
X003153Y0001137D01*
X0031517Y0001132D01*
X0031506Y0001125D01*
X0031496Y0001114D01*
X0031493Y0001108D01*
X0031496Y0001103D01*
X0031506Y0001092D01*
X0031517Y0001084D01*
X003153Y000108D01*
X0031544Y0001078D01*
X003148D01*
X0031476Y0001065D01*
X0031472Y0001042D01*
X003147Y0001017D01*
X0031469Y0000988D01*
X0031319D01*
X0031319Y0001017D01*
X0031316Y0001042D01*
X0031313Y0001065D01*
X0031309Y0001078D01*
X0031244D01*
X0031259Y000108D01*
X0031271Y0001084D01*
X0031283Y0001092D01*
X0031292Y0001103D01*
X0031296Y0001108D01*
X0031292Y0001114D01*
X0031283Y0001125D01*
X0031271Y0001132D01*
X0031259Y0001137D01*
X0031244Y0001138D01*
X0031309D01*
X0031313Y0001153D01*
X0031316Y0001176D01*
X0031319Y0001202D01*
X0031319Y0001231D01*
X0031469D01*
X003147Y0001202D01*
D02*
G37*
G36*
X0000931Y0000974D02*
X0000936Y0000961D01*
X0000944Y000095D01*
X0000954Y000094D01*
X0000968Y0000932D01*
X0000985Y0000925D01*
X0001005Y000092D01*
X0001028Y0000916D01*
X0001054Y0000914D01*
X0001083Y0000913D01*
Y0000763D01*
X0001054Y0000762D01*
X0001028Y000076D01*
X0001005Y0000756D01*
X0000985Y0000751D01*
X0000968Y0000744D01*
X0000954Y0000736D01*
X0000944Y0000726D01*
X0000936Y0000715D01*
X0000931Y0000702D01*
X000093Y0000688D01*
Y0000988D01*
X0000931Y0000974D01*
D02*
G37*
G36*
X-0001169Y0000646D02*
X-0001185Y0000659D01*
X-0001203Y000067D01*
X-0001221Y000068D01*
X-000124Y0000689D01*
X-0001261Y0000696D01*
X-0001282Y0000702D01*
X-0001304Y0000707D01*
X-0001327Y000071D01*
X-0001351Y0000712D01*
X-0001375Y0000713D01*
X-0001398Y0000913D01*
X-0001373Y0000914D01*
X-0001349Y0000916D01*
X-0001326Y000092D01*
X-0001305Y0000926D01*
X-0001285Y0000933D01*
X-0001266Y0000942D01*
X-0001249Y0000953D01*
X-0001233Y0000965D01*
X-0001218Y0000979D01*
X-0001204Y0000994D01*
X-0001169Y0000646D01*
D02*
G37*
G36*
X-0001438Y0000613D02*
X-000144Y0000632D01*
X-0001446Y0000649D01*
X-0001456Y0000664D01*
X-000147Y0000677D01*
X-0001489Y0000688D01*
X-0001511Y0000697D01*
X-0001537Y0000704D01*
X-0001568Y0000709D01*
X-0001602Y0000712D01*
X-0001641Y0000713D01*
Y0000913D01*
X-0001602Y0000914D01*
X-0001568Y0000917D01*
X-0001537Y0000922D01*
X-0001511Y0000929D01*
X-0001489Y0000938D01*
X-000147Y0000949D01*
X-0001456Y0000962D01*
X-0001446Y0000977D01*
X-000144Y0000994D01*
X-0001438Y0001013D01*
Y0000613D01*
D02*
G37*
G36*
X-0002109Y0000994D02*
X-0002103Y0000977D01*
X-0002093Y0000962D01*
X-0002079Y0000949D01*
X-0002061Y0000938D01*
X-0002038Y0000929D01*
X-0002012Y0000922D01*
X-0001981Y0000917D01*
X-0001947Y0000914D01*
X-0001908Y0000913D01*
Y0000713D01*
X-0001947Y0000712D01*
X-0001981Y0000709D01*
X-0002012Y0000704D01*
X-0002038Y0000697D01*
X-0002061Y0000688D01*
X-0002079Y0000677D01*
X-0002093Y0000664D01*
X-0002103Y0000649D01*
X-0002109Y0000632D01*
X-0002111Y0000613D01*
Y0001013D01*
X-0002109Y0000994D01*
D02*
G37*
G36*
X003491Y0000089D02*
X0034897Y0000084D01*
X0034886Y0000077D01*
X0034876Y0000066D01*
X0034868Y0000052D01*
X0034861Y0000035D01*
X0034856Y0000015D01*
X0034852Y-0000008D01*
X003485Y-0000034D01*
X0034849Y-0000063D01*
X0034699D01*
X0034699Y-0000034D01*
X0034696Y-0000008D01*
X0034693Y0000015D01*
X0034687Y0000035D01*
X0034681Y0000052D01*
X0034672Y0000066D01*
X0034663Y0000077D01*
X0034651Y0000084D01*
X0034639Y0000089D01*
X0034624Y000009D01*
X0034924D01*
X003491Y0000089D01*
D02*
G37*
G36*
X003153Y0000086D02*
X0031517Y0000081D01*
X0031506Y0000074D01*
X0031496Y0000063D01*
X0031488Y000005D01*
X0031481Y0000033D01*
X0031476Y0000014D01*
X0031472Y-0000009D01*
X0031471Y-000003D01*
X0031472Y-0000052D01*
X0031476Y-0000075D01*
X0031481Y-0000095D01*
X0031488Y-0000112D01*
X0031496Y-0000125D01*
X0031506Y-0000136D01*
X0031517Y-0000144D01*
X003153Y-0000148D01*
X0031544Y-000015D01*
X0031244D01*
X0031259Y-0000148D01*
X0031271Y-0000144D01*
X0031283Y-0000136D01*
X0031292Y-0000125D01*
X0031301Y-0000112D01*
X0031307Y-0000095D01*
X0031313Y-0000075D01*
X0031316Y-0000052D01*
X0031318Y-000003D01*
X0031316Y-0000009D01*
X0031313Y0000014D01*
X0031307Y0000033D01*
X0031301Y000005D01*
X0031292Y0000063D01*
X0031283Y0000074D01*
X0031271Y0000081D01*
X0031259Y0000086D01*
X0031244Y0000087D01*
X0031544D01*
X003153Y0000086D01*
D02*
G37*
G36*
X0034756Y-0000266D02*
X0034732Y-000029D01*
X0034695Y-0000335D01*
X0034682Y-0000356D01*
X0034672Y-0000375D01*
X0034665Y-0000393D01*
X0034662Y-000041D01*
X0034662Y-0000425D01*
X0034666Y-000044D01*
X0034672Y-0000452D01*
X00345Y-0000203D01*
X003451Y-0000214D01*
X0034521Y-0000221D01*
X0034533Y-0000224D01*
X0034548Y-0000223D01*
X0034564Y-0000219D01*
X0034581Y-0000211D01*
X0034601Y-0000199D01*
X0034621Y-0000183D01*
X0034644Y-0000164D01*
X0034668Y-0000141D01*
X0034756Y-0000266D01*
D02*
G37*
G36*
X003147Y-0001031D02*
X0031473Y-0001053D01*
X0031478Y-0001074D01*
X0031485Y-0001096D01*
X0031494Y-0001117D01*
X0031505Y-0001138D01*
X0031518Y-0001158D01*
X0031533Y-0001179D01*
X003155Y-0001199D01*
X0031569Y-0001218D01*
X0031219D01*
X0031238Y-0001199D01*
X0031255Y-0001179D01*
X003127Y-0001158D01*
X0031283Y-0001138D01*
X0031294Y-0001117D01*
X0031303Y-0001096D01*
X003131Y-0001074D01*
X0031315Y-0001053D01*
X0031318Y-0001031D01*
X0031319Y-0001009D01*
X0031469D01*
X003147Y-0001031D01*
D02*
G37*
G36*
X003401Y-0001025D02*
X0034014Y-0001047D01*
X0034019Y-0001068D01*
X0034026Y-0001089D01*
X0034036Y-0001109D01*
X0034048Y-0001129D01*
X0034062Y-0001148D01*
X0034077Y-0001166D01*
X0034096Y-0001184D01*
X0034116Y-0001202D01*
X0033768Y-0001237D01*
X0033785Y-0001215D01*
X0033801Y-0001193D01*
X0033814Y-0001171D01*
X0033826Y-0001149D01*
X0033836Y-0001127D01*
X0033845Y-0001105D01*
X0033851Y-0001083D01*
X0033856Y-0001062D01*
X0033858Y-000104D01*
X0033859Y-0001018D01*
X0034009Y-0001002D01*
X003401Y-0001025D01*
D02*
G37*
G36*
X0024359Y0006502D02*
Y0001016D01*
X0023368Y0000025D01*
X001971D01*
X0019456Y-0000229D01*
Y-0002489D01*
X0019279Y-0002667D01*
X0018085D01*
X0017932Y-0002515D01*
Y-0000229D01*
X0017551Y0000152D01*
X0001852Y0000152D01*
X0001778Y0000226D01*
X0001778Y000127D01*
X0001854Y0001346D01*
X0022581Y0001346D01*
X0023241Y0002007D01*
Y0005156D01*
X0022682Y0005715D01*
X0017297Y0005715D01*
X0017221Y0005791D01*
X0017221Y0006903D01*
X0017291Y0006973D01*
X0023888Y0006973D01*
X0024359Y0006502D01*
D02*
G37*
G36*
X0001676Y-0002565D02*
X0001549Y-0002692D01*
X0000279D01*
X0000152Y-0002565D01*
Y0000254D01*
X0001676D01*
Y-0002565D01*
D02*
G37*
%LPC*%
G36*
X-0004397Y0008476D02*
X-0004769D01*
X-0005033Y0008213D01*
Y000784D01*
X-0004769Y0007576D01*
X-0004397D01*
X-0004133Y000784D01*
Y0008213D01*
X-0004397Y0008476D01*
D02*
G37*
G36*
X0008776Y0005731D02*
X0006543D01*
Y0004661D01*
X0008776D01*
Y0005731D01*
D02*
G37*
G36*
X0030648Y0002968D02*
X0029448D01*
Y0002958D01*
X0029394Y0002853D01*
X0028264D01*
Y0001783D01*
Y0001236D01*
X0029394D01*
Y0001564D01*
X0029448Y0001668D01*
X0030648D01*
Y0002968D01*
D02*
G37*
%LPD*%
G36*
X0029551Y0002168D02*
X002955Y0002183D01*
X0029545Y0002195D01*
X0029538Y0002207D01*
X0029527Y0002216D01*
X0029514Y0002225D01*
X0029497Y0002231D01*
X0029478Y0002237D01*
X0029455Y000224D01*
X002943Y0002243D01*
X0029421Y0002243D01*
X0029412Y0002243D01*
X0029387Y000224D01*
X0029364Y0002237D01*
X0029345Y0002231D01*
X0029328Y0002225D01*
X0029315Y0002216D01*
X0029304Y0002207D01*
X0029297Y0002195D01*
X0029292Y0002183D01*
X0029291Y0002168D01*
Y0002468D01*
X0029292Y0002454D01*
X0029297Y0002441D01*
X0029304Y000243D01*
X0029315Y000242D01*
X0029328Y0002412D01*
X0029345Y0002405D01*
X0029364Y00024D01*
X0029387Y0002396D01*
X0029412Y0002394D01*
X0029421Y0002394D01*
X002943Y0002394D01*
X0029455Y0002396D01*
X0029478Y00024D01*
X0029497Y0002405D01*
X0029514Y0002412D01*
X0029527Y000242D01*
X0029538Y000243D01*
X0029545Y0002441D01*
X002955Y0002454D01*
X0029551Y0002468D01*
Y0002168D01*
D02*
G37*
D10*
X-0001009Y0000838D02*
Y0002826D01*
X-0000457Y0003378D02*
X0001753D01*
X-0001009Y0002826D02*
X-0000457Y0003378D01*
X-0002655Y0000813D02*
X-0001034D01*
X-0001009Y0000838D01*
D14*
X0001753Y0003378D02*
D03*
X-0004747D02*
D03*
D15*
X-0002958Y0009826D02*
D03*
Y0006226D02*
D03*
X-0004408Y0009826D02*
D03*
Y0006226D02*
D03*
D16*
X0018237Y0006041D02*
D03*
Y0006691D02*
D03*
Y0007341D02*
D03*
Y0007991D02*
D03*
Y0008641D02*
D03*
Y0009291D02*
D03*
Y0009941D02*
D03*
Y0010591D02*
D03*
Y0011241D02*
D03*
Y0011891D02*
D03*
X0011227D02*
D03*
Y0011241D02*
D03*
Y0010591D02*
D03*
Y0009941D02*
D03*
Y0009291D02*
D03*
Y0008641D02*
D03*
Y0007991D02*
D03*
Y0007341D02*
D03*
Y0006691D02*
D03*
Y0006041D02*
D03*
D17*
X0002337Y0009543D02*
D03*
Y0008033D02*
D03*
X0004902Y0007466D02*
D03*
Y0009026D02*
D03*
X-0001473Y0006112D02*
D03*
Y0007622D02*
D03*
X0004699Y001082D02*
D03*
Y001233D02*
D03*
X0006005Y0006756D02*
D03*
Y0005246D02*
D03*
X0026289Y0001771D02*
D03*
Y0000211D02*
D03*
Y0003828D02*
D03*
Y0002318D02*
D03*
X0004902Y0006756D02*
D03*
Y0005246D02*
D03*
X0005867Y001077D02*
D03*
Y001233D02*
D03*
X0008211Y0007516D02*
D03*
Y0009026D02*
D03*
X0007108Y0007516D02*
D03*
Y0009026D02*
D03*
X0028829Y0001771D02*
D03*
Y0000211D02*
D03*
Y0003828D02*
D03*
Y0002318D02*
D03*
X0007137Y001077D02*
D03*
Y001233D02*
D03*
X0008407Y001077D02*
D03*
Y001233D02*
D03*
X0009677Y001077D02*
D03*
Y001233D02*
D03*
X0008211Y0005196D02*
D03*
Y0006756D02*
D03*
X0007108Y0005196D02*
D03*
Y0006756D02*
D03*
X0006005Y0007466D02*
D03*
Y0009026D02*
D03*
X0020015Y0010515D02*
D03*
Y0012025D02*
D03*
X0034082Y0007506D02*
D03*
Y0009016D02*
D03*
X0032682Y0007506D02*
D03*
Y0009016D02*
D03*
X0031282Y0007506D02*
D03*
Y0009016D02*
D03*
X002987D02*
D03*
Y0007506D02*
D03*
X0022327Y000774D02*
D03*
Y000623D02*
D03*
X0003454Y0009543D02*
D03*
Y0008033D02*
D03*
D18*
X0017544Y0002642D02*
D03*
X0008044D02*
D03*
D19*
X0022086Y0003632D02*
D03*
X0023786D02*
D03*
X0034774Y0000584D02*
D03*
X0036474D02*
D03*
X0026758Y0004978D02*
D03*
X0025058D02*
D03*
X0028348D02*
D03*
X0030048D02*
D03*
X0005803Y0002642D02*
D03*
X0004103D02*
D03*
X0021487D02*
D03*
X0019787D02*
D03*
X0033094Y0000584D02*
D03*
X0031394D02*
D03*
X-0004355Y0000813D02*
D03*
X-0002655D02*
D03*
X0003429Y0012319D02*
D03*
X0001729D02*
D03*
Y0011252D02*
D03*
X0003429D02*
D03*
D20*
X0008377Y0022516D02*
D03*
X0009777D02*
D03*
X0011177D02*
D03*
Y0021116D02*
D03*
Y0019716D02*
D03*
X0009777D02*
D03*
X0008377D02*
D03*
Y0021116D02*
D03*
X0009777D02*
D03*
D21*
X0002057Y0031366D02*
D03*
X0003327D02*
D03*
X0004597D02*
D03*
X0005867D02*
D03*
X0007137D02*
D03*
X0008407D02*
D03*
X0009677D02*
D03*
X0010947D02*
D03*
X0012217D02*
D03*
X0013487D02*
D03*
X0014757D02*
D03*
X0016027D02*
D03*
X0017297D02*
D03*
X0018567D02*
D03*
Y0013866D02*
D03*
X0017297D02*
D03*
X0016027D02*
D03*
X0014757D02*
D03*
X0013487D02*
D03*
X0012217D02*
D03*
X0010947D02*
D03*
X0009677D02*
D03*
X0008407D02*
D03*
X0007137D02*
D03*
X0005867D02*
D03*
X0004597D02*
D03*
X0003327D02*
D03*
X0002057D02*
D03*
D22*
X0019817Y0029601D02*
D03*
Y0028331D02*
D03*
Y0027061D02*
D03*
Y0025791D02*
D03*
Y0024521D02*
D03*
Y0023251D02*
D03*
Y0021981D02*
D03*
Y0020711D02*
D03*
Y0019441D02*
D03*
Y0018171D02*
D03*
Y0016901D02*
D03*
Y0015631D02*
D03*
D23*
X0024287Y0011876D02*
D03*
Y0021676D02*
D03*
Y0020276D02*
D03*
Y0018876D02*
D03*
Y0017476D02*
D03*
Y0016076D02*
D03*
Y0014676D02*
D03*
Y0013276D02*
D03*
X0036877Y0011876D02*
D03*
Y0013276D02*
D03*
Y0014676D02*
D03*
Y0016076D02*
D03*
Y0017476D02*
D03*
Y0018876D02*
D03*
Y0020276D02*
D03*
Y0021676D02*
D03*
D24*
X0025682Y0009581D02*
D03*
X0027082D02*
D03*
X0028482D02*
D03*
X0029882D02*
D03*
X0031282D02*
D03*
X0032682D02*
D03*
X0034082D02*
D03*
X0035482D02*
D03*
D25*
X0002337Y0005246D02*
D03*
Y0006946D02*
D03*
X0003454Y0005246D02*
D03*
Y0006946D02*
D03*
D26*
X0036474Y-0001397D02*
D03*
D27*
X0016154D02*
D03*
X0018694D02*
D03*
X0021234D02*
D03*
X0023774D02*
D03*
X0026314D02*
D03*
X0028854D02*
D03*
X0031394D02*
D03*
X0033934D02*
D03*
X0013614D02*
D03*
X0000914D02*
D03*
X0011074D02*
D03*
X0008534D02*
D03*
X0005994D02*
D03*
X0003454D02*
D03*
D28*
X0022454Y0014549D02*
D03*
Y0016249D02*
D03*
X-0001473Y0010324D02*
D03*
Y0008624D02*
D03*
X0021438Y0016249D02*
D03*
Y0014549D02*
D03*
X0020015Y0006351D02*
D03*
Y0004651D02*
D03*
X0022352Y0011241D02*
D03*
Y0012941D02*
D03*
X0021184Y0007651D02*
D03*
Y0009351D02*
D03*
X0025044Y0002313D02*
D03*
Y0004013D02*
D03*
X0030048Y0002318D02*
D03*
Y0004018D02*
D03*
X002126Y0011241D02*
D03*
Y0012941D02*
D03*
X0021184Y0006351D02*
D03*
Y0004651D02*
D03*
X0020015Y0007651D02*
D03*
Y0009351D02*
D03*
D29*
X0032904Y00016D02*
D03*
X0031394D02*
D03*
X0034774D02*
D03*
X0036284D02*
D03*
X0000501Y0000838D02*
D03*
X-0001009D02*
D03*
X0037473Y0007899D02*
D03*
X0035963D02*
D03*
D30*
X0037473Y0006795D02*
D03*
X0035773D02*
D03*
X0037473Y0005673D02*
D03*
X0035773D02*
D03*
X0037473Y0004551D02*
D03*
X0035773D02*
D03*
Y0003429D02*
D03*
X0037473D02*
D03*
D35*
X-0002783Y0008026D02*
D03*
X-0004583D02*
D03*
D36*
X0023149Y0018151D02*
X0027365D01*
X003224Y0013276D01*
X0032232Y0014676D02*
X0036877D01*
X0021859Y0019441D02*
X0023149Y0018151D01*
X0023089Y0019583D02*
X0027325D01*
X0032232Y0014676D01*
X0016154Y0007991D02*
Y0012384D01*
X0016242Y0012471D01*
X0019177D01*
X0013527D02*
X0013614Y0012384D01*
X0011125Y0012471D02*
X0013527D01*
X0013614Y0007991D02*
Y0012384D01*
X0006502Y001497D02*
Y0018974D01*
X0008851Y0006262D02*
Y0009534D01*
X0009041Y0010136D02*
X0009398Y0009779D01*
X0009144Y0006988D02*
Y0009595D01*
X0006312Y0009636D02*
X0008353D01*
X0008749D01*
X0007361Y0009886D02*
X0008456D01*
X0008852D02*
X0009144Y0009595D01*
X0008749Y0009636D02*
X0008851Y0009534D01*
X0008456Y0009886D02*
X0008852D01*
X0008482Y0010136D02*
X0009041D01*
X0008382Y0010236D02*
X0008482Y0010136D01*
X0008382Y0010236D02*
Y0010744D01*
X0008407Y001077D01*
X0008211Y0006756D02*
Y0007516D01*
X0007108Y0006756D02*
Y0007516D01*
X0009398Y0007429D02*
Y0009779D01*
X0007137Y001011D02*
X0007361Y0009886D01*
X0005867Y001008D02*
X0006312Y0009636D01*
X0007137Y001011D02*
Y001077D01*
X0015851Y0021356D02*
X0021925D01*
X0023005Y0020276D01*
X0010947Y002626D02*
X0015851Y0021356D01*
X0013056Y0003468D02*
Y0008763D01*
X0012527Y0009291D02*
X0013056Y0008763D01*
X0012517Y0008641D02*
X0012806Y0008353D01*
X0013056Y0003468D02*
X0013882Y0002642D01*
X0011989D02*
X0012806Y0003458D01*
Y0008353D01*
X0038125Y0009779D02*
Y0018725D01*
X0036877Y0018876D02*
X0036917Y0018836D01*
X0038014D01*
X0038125Y0018725D01*
X003744Y0009093D02*
X0038125Y0009779D01*
X0021834Y0018171D02*
X0023216Y0016789D01*
X0019817Y0018171D02*
X0021834D01*
X0023216Y0016789D02*
X0027254D01*
X0021875Y0020086D02*
X0023084Y0018876D01*
X0016767Y0020086D02*
X0021875D01*
X0009677Y0027176D02*
X0016767Y0020086D01*
X0012217Y0025343D02*
X0014954Y0022606D01*
X0018995D01*
X0012217Y0025343D02*
Y0031366D01*
X0009677Y0027176D02*
Y0031366D01*
X0017704Y0018796D02*
X0018995D01*
X0008407Y0028092D02*
X0017704Y0018796D01*
X0008407Y0028092D02*
Y0031366D01*
X0010947Y002626D02*
Y0031366D01*
X002064Y0018796D02*
X0021819D01*
X002064Y0018796D02*
X002064Y0018796D01*
X0018995D02*
X0018995Y0018796D01*
X002064D01*
Y0022606D02*
X002064Y0022606D01*
X0022022D01*
X0018995D02*
X0018995Y0022606D01*
X002064D01*
X0000501Y0000838D02*
X0001515D01*
X0001603Y0000926D02*
Y0001342D01*
X0001515Y0000838D02*
X0001603Y0000926D01*
X0004257Y0004093D02*
Y0006112D01*
X0003378Y0003214D02*
X0004257Y0004093D01*
X0003378Y0002133D02*
Y0003214D01*
X0001782Y0001521D02*
X0002766D01*
X0001603Y0001342D02*
X0001782Y0001521D01*
X0002766D02*
X0003378Y0002133D01*
X0007087Y0008288D02*
X0008085D01*
X0004257D02*
X0007087D01*
Y0009005D02*
X0007108Y0009026D01*
X0007087Y0008288D02*
Y0009005D01*
X0004257Y0008288D02*
Y0010114D01*
Y0006112D02*
Y0008288D01*
X0008211Y0008415D02*
Y0009026D01*
X0008085Y0008288D02*
X0008211Y0008415D01*
X0003983Y0010389D02*
X0004257Y0010114D01*
X-0002958Y0007109D02*
X-0002445Y0007622D01*
X-0002958Y0006226D02*
Y0007109D01*
X-0002445Y0007622D02*
X-0001473D01*
X0004597Y0013866D02*
Y0017565D01*
X000451Y0017653D02*
X0004597Y0017565D01*
X000277Y0017653D02*
X000451D01*
X0002682Y0010607D02*
Y0017565D01*
X000277Y0017653D01*
X0009677Y0008079D02*
X0009765Y0007991D01*
X0011227D01*
X0009677Y0008079D02*
Y001077D01*
X0009486Y0007341D02*
X0011227D01*
X0009398Y0007429D02*
X0009486Y0007341D01*
X0009144Y0006988D02*
X0009441Y0006691D01*
X0008851Y0006262D02*
X0009072Y0006041D01*
X0018187Y0011241D02*
X0018237D01*
X0009441Y0006691D02*
X0011227D01*
X0013882Y0002642D02*
X0017544D01*
X0011227Y0009291D02*
X0012527D01*
X0011227Y0008641D02*
X0012517D01*
X0008044Y0002642D02*
X0011989D01*
X0018237Y0011241D02*
X002126D01*
X0009072Y0006041D02*
X0011227D01*
X0005867Y001008D02*
Y001077D01*
X0004902Y0006756D02*
Y0007492D01*
X0006005Y0006756D02*
Y0007492D01*
X0007108Y0009026D02*
X0007137Y0008997D01*
X0003404Y0007983D02*
X0003454Y0008033D01*
X0003404Y0006996D02*
Y0007983D01*
Y0006996D02*
X0003454Y0006946D01*
X0002229Y0010153D02*
X0002682Y0010607D01*
X0001346Y00097D02*
X0001799Y0010153D01*
X0001346Y0009271D02*
Y00097D01*
X0000699Y0008624D02*
X0001346Y0009271D01*
X0001799Y0010153D02*
X0002229D01*
X-0001473Y0008624D02*
X0000699D01*
X0003327Y0020726D02*
X0005309Y0018745D01*
Y001497D02*
Y0018745D01*
X0031282Y0006285D02*
X0033016Y0004551D01*
X0035773D01*
X0032682Y0005876D02*
X0032884Y0005673D01*
X0035773D01*
X0034123Y0006795D02*
X0035773D01*
X0034082Y0006837D02*
Y0007506D01*
Y0006837D02*
X0034123Y0006795D01*
X003744Y0007933D02*
Y0009093D01*
Y0007933D02*
X0037473Y0007899D01*
X0022022Y0022606D02*
X0022951Y0021676D01*
X-0001473Y0006112D02*
X0004257D01*
X-0001473Y0007622D02*
Y0008624D01*
X0003327Y0010476D02*
Y0011151D01*
X0003429Y0011252D01*
X0003415Y0010389D02*
X0003983D01*
X0003327Y0010476D02*
X0003415Y0010389D01*
X0002261Y0007957D02*
X0002337Y0008033D01*
X0002261Y0007022D02*
Y0007957D01*
Y0007022D02*
X0002337Y0006946D01*
X0032682Y0005876D02*
Y0007506D01*
X0031282Y0006285D02*
Y0007506D01*
X0022962Y002098D02*
X0027584D01*
X0032488Y0016076D02*
X0036877D01*
X0027584Y002098D02*
X0032488Y0016076D01*
X002987Y000655D02*
X0032991Y0003429D01*
X0035773D01*
X002987Y000655D02*
Y0007506D01*
X0003327Y0020726D02*
Y0031366D01*
X0004597Y0020879D02*
Y0031366D01*
Y0020879D02*
X0006502Y0018974D01*
X0019817Y0013112D02*
Y0015631D01*
X0019177Y0012471D02*
X0019817Y0013112D01*
X0010947Y0012649D02*
Y0013866D01*
Y0012649D02*
X0011125Y0012471D01*
X0007047Y0011532D02*
X0007135Y0011619D01*
X0004801Y0011532D02*
X0007047D01*
X0007135Y0011619D02*
Y0012327D01*
X0004699Y0011633D02*
Y001233D01*
Y0011633D02*
X0004801Y0011532D01*
X0007135Y0012327D02*
X0007137Y001233D01*
X0005867D02*
Y0013866D01*
X0027082Y0009581D02*
Y0013276D01*
X0028482Y0009581D02*
Y0013276D01*
X0025679Y0009584D02*
Y0013276D01*
X0022951Y0021676D02*
X0024287D01*
X0019817Y0021981D02*
X0021961D01*
X0022962Y002098D01*
X0019833Y0020726D02*
X0021946D01*
X0023089Y0019583D01*
X0023084Y0018876D02*
X0024287D01*
X0019817Y0019441D02*
X0021859D01*
X0021819Y0018796D02*
X0023138Y0017476D01*
X0024287D01*
X0023005Y0020276D02*
X0024287D01*
X0019817Y0020711D02*
X0019833Y0020726D01*
X002126Y0011241D02*
X0022352D01*
X0033934Y-0001397D02*
Y-0000981D01*
X0034774Y-0000141D02*
Y0000584D01*
X0033934Y-0000981D02*
X0034774Y-0000141D01*
X0031394Y0000584D02*
Y00016D01*
Y-0001397D02*
Y0000584D01*
X0034773Y00016D02*
X0034774Y0001598D01*
Y0000584D02*
Y0001598D01*
X0033094Y0000584D02*
Y0001399D01*
X0032918Y0001575D02*
X0033094Y0001399D01*
X002836Y0004967D02*
X0028626Y0004701D01*
X0028829Y0002318D02*
X0030048D01*
X0026284Y0002313D02*
X0026289Y0002318D01*
X0025044Y0002313D02*
X0026284D01*
X0028626Y0004032D02*
X0028829Y0003828D01*
X0028626Y0004032D02*
Y0004701D01*
X0026524Y0004063D02*
Y0004744D01*
X0027254Y0016789D02*
X0032167Y0011876D01*
X0036877D01*
X003224Y0013276D02*
X0036877D01*
X0009677Y001233D02*
Y0013866D01*
X0008407Y001233D02*
Y0013866D01*
X0007137Y001233D02*
Y0013866D01*
D37*
X0026524Y0004744D02*
X0026739Y000496D01*
X0026289Y0003828D02*
X0026524Y0004063D01*
D38*
X-0003665Y0002081D02*
D03*
Y0010721D02*
D03*
D39*
X0000335Y0002081D02*
D03*
Y0010721D02*
D03*
D40*
X0037657Y0001075D02*
D03*
X0035157Y0020075D02*
D03*
Y0018075D02*
D03*
Y0014075D02*
D03*
X0034657Y0021075D02*
D03*
X0034157Y0020075D02*
D03*
Y0018075D02*
D03*
X0034657Y0017075D02*
D03*
X0034157Y0004075D02*
D03*
X0033657Y0021075D02*
D03*
X0033157Y0020075D02*
D03*
Y0018075D02*
D03*
X0033657Y0017075D02*
D03*
X0033157Y0014075D02*
D03*
X0033657Y0005075D02*
D03*
X0032657Y0021075D02*
D03*
X0032157Y0020075D02*
D03*
Y0018075D02*
D03*
X0032657Y0017075D02*
D03*
X0032157Y0014075D02*
D03*
Y0006075D02*
D03*
X0031657Y0021075D02*
D03*
X0031157Y0020075D02*
D03*
Y0018075D02*
D03*
X0031657Y0013075D02*
D03*
X0030657Y0021075D02*
D03*
X0030157Y0020075D02*
D03*
Y0016075D02*
D03*
X0029657Y0021075D02*
D03*
X0029157Y0020075D02*
D03*
X0029657Y0015075D02*
D03*
X0029157Y0014075D02*
D03*
X0029657Y0013075D02*
D03*
X0028657Y0021075D02*
D03*
X0028157Y0018075D02*
D03*
X0027657Y0017075D02*
D03*
Y0015075D02*
D03*
X0027157Y0008075D02*
D03*
X0027657Y0007075D02*
D03*
Y0003075D02*
D03*
X0026157Y0016075D02*
D03*
Y0014075D02*
D03*
X0019657Y0031075D02*
D03*
X0018157Y0030075D02*
D03*
X0018657Y0029075D02*
D03*
X0018157Y0028075D02*
D03*
X0018657Y0027075D02*
D03*
Y0025075D02*
D03*
X0017657Y0029075D02*
D03*
Y0027075D02*
D03*
X0017157Y0004075D02*
D03*
X0016157Y0030075D02*
D03*
Y0028075D02*
D03*
Y0026075D02*
D03*
Y0024075D02*
D03*
Y0018075D02*
D03*
X0016657Y0011075D02*
D03*
Y0009075D02*
D03*
Y0007075D02*
D03*
Y0005075D02*
D03*
X0015157Y0030075D02*
D03*
X0015657Y0029075D02*
D03*
X0015157Y0028075D02*
D03*
X0015657Y0027075D02*
D03*
X0015157Y0026075D02*
D03*
X0015657Y0025075D02*
D03*
X0015157Y0024075D02*
D03*
X0015657Y0023075D02*
D03*
X0015157Y0020075D02*
D03*
X0015657Y0019075D02*
D03*
X0015157Y0018075D02*
D03*
X0015657Y0015075D02*
D03*
X0015157Y0008075D02*
D03*
X0015657Y0007075D02*
D03*
X0015157Y0006075D02*
D03*
X0015657Y0005075D02*
D03*
X0015157Y0004075D02*
D03*
X0014157Y0030075D02*
D03*
X0014657Y0029075D02*
D03*
X0014157Y0028075D02*
D03*
X0014657Y0027075D02*
D03*
X0014157Y0026075D02*
D03*
X0014657Y0025075D02*
D03*
X0014157Y0024075D02*
D03*
X0014657Y0021075D02*
D03*
X0014157Y0020075D02*
D03*
X0014657Y0019075D02*
D03*
X0014157Y0018075D02*
D03*
X0014657Y0015075D02*
D03*
X0014157Y0012075D02*
D03*
Y0010075D02*
D03*
X0014657Y0007075D02*
D03*
X0014157Y0006075D02*
D03*
X0014657Y0005075D02*
D03*
X0014157Y0004075D02*
D03*
X0013157Y0030075D02*
D03*
X0013657Y0029075D02*
D03*
X0013157Y0028075D02*
D03*
X0013657Y0027075D02*
D03*
X0013157Y0026075D02*
D03*
X0013657Y0025075D02*
D03*
X0013157Y0022075D02*
D03*
X0013657Y0021075D02*
D03*
X0013157Y0020075D02*
D03*
X0013657Y0019075D02*
D03*
X0013157Y0018075D02*
D03*
X0013657Y0015075D02*
D03*
X0012657Y0023075D02*
D03*
X0012157Y0022075D02*
D03*
X0012657Y0021075D02*
D03*
X0012157Y0020075D02*
D03*
X0012657Y0019075D02*
D03*
X0012157Y0018075D02*
D03*
X0012657Y0015075D02*
D03*
X0012157Y0004075D02*
D03*
X0011157Y0024075D02*
D03*
Y0018075D02*
D03*
X0011657Y0015075D02*
D03*
Y0005075D02*
D03*
X0011157Y0004075D02*
D03*
X0010657Y0025075D02*
D03*
X0010157Y0024075D02*
D03*
Y0018075D02*
D03*
X0010657Y0015075D02*
D03*
Y0005075D02*
D03*
X0009157Y0026075D02*
D03*
X0009657Y0025075D02*
D03*
X0009157Y0024075D02*
D03*
Y0018075D02*
D03*
X0009657Y0015075D02*
D03*
X0008657Y0027075D02*
D03*
X0008157Y0026075D02*
D03*
X0008657Y0025075D02*
D03*
X0008157Y0024075D02*
D03*
Y0018075D02*
D03*
X0008657Y0015075D02*
D03*
X0007157Y0030075D02*
D03*
X0007657Y0029075D02*
D03*
X0007157Y0028075D02*
D03*
X0007657Y0027075D02*
D03*
X0007157Y0026075D02*
D03*
X0007657Y0025075D02*
D03*
X0007157Y0024075D02*
D03*
Y0022075D02*
D03*
Y0020075D02*
D03*
Y0018075D02*
D03*
X0007657Y0015075D02*
D03*
X0006157Y0030075D02*
D03*
X0006657Y0029075D02*
D03*
X0006157Y0028075D02*
D03*
X0006657Y0027075D02*
D03*
X0006157Y0026075D02*
D03*
X0006657Y0025075D02*
D03*
X0006157Y0024075D02*
D03*
X0006657Y0023075D02*
D03*
X0006157Y0022075D02*
D03*
X0006657Y0021075D02*
D03*
X0006157Y0020075D02*
D03*
X0005157Y0030075D02*
D03*
X0005657Y0029075D02*
D03*
X0005157Y0028075D02*
D03*
X0005657Y0027075D02*
D03*
X0005157Y0026075D02*
D03*
X0005657Y0025075D02*
D03*
X0005157Y0024075D02*
D03*
X0005657Y0023075D02*
D03*
X0005157Y0022075D02*
D03*
X0005657Y0021075D02*
D03*
X0003157Y0020075D02*
D03*
X0003657Y0019075D02*
D03*
X0003157Y0004075D02*
D03*
X0002157Y0030075D02*
D03*
X0002657Y0029075D02*
D03*
X0002157Y0028075D02*
D03*
X0002657Y0027075D02*
D03*
X0002157Y0026075D02*
D03*
X0002657Y0025075D02*
D03*
X0002157Y0024075D02*
D03*
X0002657Y0023075D02*
D03*
X0002157Y0022075D02*
D03*
X0002657Y0021075D02*
D03*
X0002157Y0020075D02*
D03*
X0002657Y0019075D02*
D03*
X0002157Y0018075D02*
D03*
X-0001843Y0004075D02*
D03*
Y0002075D02*
D03*
X-0002343Y0005075D02*
D03*
X-0002843Y0004075D02*
D03*
X-0002343Y0003075D02*
D03*
X-0003843Y0008075D02*
D03*
X-0003343Y0005075D02*
D03*
X-0003843Y0004075D02*
D03*
X-0003343Y0003075D02*
D03*
X-0004343Y0005075D02*
D03*
X0019817Y0028331D02*
D03*
X0021202Y0023415D02*
D03*
Y0024122D02*
D03*
Y0026244D02*
D03*
Y0024829D02*
D03*
Y0026951D02*
D03*
Y0027659D02*
D03*
Y0025537D02*
D03*
X0021107Y0028366D02*
D03*
X0021755Y0027659D02*
D03*
Y0028366D02*
D03*
X0019817Y0023251D02*
D03*
Y0024521D02*
D03*
Y0025791D02*
D03*
X0029388Y0018415D02*
D03*
X0036877Y0018876D02*
D03*
X0009777Y0021116D02*
D03*
X0012878Y0010439D02*
D03*
X0012852Y0011862D02*
D03*
X000242Y0009576D02*
D03*
X0008211Y0007516D02*
D03*
X0007108D02*
D03*
X0006005Y0009026D02*
D03*
X0004902D02*
D03*
X0025095Y0000813D02*
D03*
X002761D02*
D03*
X0030099D02*
D03*
X0031521Y0002667D02*
D03*
X002761Y0002318D02*
D03*
Y0003828D02*
D03*
X0016231Y0021981D02*
D03*
X0018593D02*
D03*
X0010358Y0027096D02*
D03*
X0036877Y0021676D02*
D03*
Y0020276D02*
D03*
X0010338Y0028524D02*
D03*
X0009068D02*
D03*
Y0029769D02*
D03*
X0010338D02*
D03*
X0011633Y0027076D02*
D03*
Y0028524D02*
D03*
Y0029769D02*
D03*
X0005918Y001844D02*
D03*
X000475Y0020015D02*
D03*
X0003962Y0022504D02*
D03*
Y0024282D02*
D03*
Y002573D02*
D03*
Y0027076D02*
D03*
Y0028524D02*
D03*
Y0029769D02*
D03*
X0034214Y0012624D02*
D03*
X0031013Y0013741D02*
D03*
X0029058Y0015723D02*
D03*
X0034214Y0013995D02*
D03*
Y0015342D02*
D03*
X0031013Y001524D02*
D03*
Y0016815D02*
D03*
X0029058Y001717D02*
D03*
X0026543Y0020371D02*
D03*
X0003429Y0016332D02*
D03*
Y0016942D02*
D03*
X-0000023Y0011963D02*
D03*
X-0000593Y0011938D02*
D03*
X0000547Y0011963D02*
D03*
X0011227Y000999D02*
D03*
X0003454Y0009543D02*
D03*
X0018593Y0019456D02*
D03*
Y0020752D02*
D03*
X0006502Y001497D02*
D03*
X0005309D02*
D03*
X0002057Y0031366D02*
D03*
X0026314Y-0001397D02*
D03*
X0028854D02*
D03*
X0031394D02*
D03*
X0036877Y0017476D02*
D03*
X002192Y0016256D02*
D03*
X0022441D02*
D03*
X0021399D02*
D03*
Y0015723D02*
D03*
X0022441D02*
D03*
X002192D02*
D03*
X0004699Y0010846D02*
D03*
X003396Y-0001397D02*
D03*
X0000914D02*
D03*
Y-0000686D02*
D03*
Y-0002108D02*
D03*
X0000406D02*
D03*
Y-0000686D02*
D03*
Y-0001397D02*
D03*
X0001422Y-0002108D02*
D03*
Y-0000686D02*
D03*
Y-0001397D02*
D03*
X0011227Y0010591D02*
D03*
X0011201Y0011241D02*
D03*
X0018187D02*
D03*
Y0009941D02*
D03*
Y0009291D02*
D03*
Y0008641D02*
D03*
Y0007991D02*
D03*
X0013614D02*
D03*
X0016154D02*
D03*
Y-0001397D02*
D03*
X0013614D02*
D03*
X0007108Y0005196D02*
D03*
X0004902Y0006756D02*
D03*
X0008211Y0005196D02*
D03*
X0006005Y0006756D02*
D03*
X0008377Y0019716D02*
D03*
X0009777D02*
D03*
X0011177D02*
D03*
Y0021116D02*
D03*
Y0022516D02*
D03*
X0009777D02*
D03*
X0008377D02*
D03*
Y0021116D02*
D03*
X0003327Y0013866D02*
D03*
X0004597D02*
D03*
X0018593Y0031445D02*
D03*
X0000547Y0012522D02*
D03*
X0028482Y0013276D02*
D03*
X0027082D02*
D03*
X0025682D02*
D03*
X0021755Y0023415D02*
D03*
X0022403D02*
D03*
X-0001009Y0000838D02*
D03*
X0011227Y0011891D02*
D03*
X0036119Y-0000787D02*
D03*
X0036881D02*
D03*
Y-0001524D02*
D03*
X0036119Y-0002261D02*
D03*
X0036881D02*
D03*
X0036119Y-0001524D02*
D03*
X0021361Y0014935D02*
D03*
X0021946D02*
D03*
X002253D02*
D03*
Y00143D02*
D03*
X0021946D02*
D03*
X0021361D02*
D03*
X0019202Y-0001397D02*
D03*
Y-0000686D02*
D03*
Y-0002108D02*
D03*
X0018186Y-0001397D02*
D03*
Y-0000686D02*
D03*
Y-0002108D02*
D03*
X0018694D02*
D03*
Y-0000686D02*
D03*
Y-0001397D02*
D03*
X0002083Y0000965D02*
D03*
Y0000559D02*
D03*
X0002489D02*
D03*
Y0000965D02*
D03*
X0018567Y0013866D02*
D03*
X0017297D02*
D03*
X0012217D02*
D03*
X0014757D02*
D03*
X0013487D02*
D03*
X0016027D02*
D03*
X0007137Y0031366D02*
D03*
X0005867D02*
D03*
X0034774Y00016D02*
D03*
X0032904D02*
D03*
X0028348Y0004978D02*
D03*
X0026758D02*
D03*
X-0005156Y0012014D02*
D03*
X-0004586D02*
D03*
X-0004016Y0011989D02*
D03*
X-0003445D02*
D03*
X-0002875D02*
D03*
X-0002304Y0011963D02*
D03*
X-0001734D02*
D03*
X-0001164Y0011938D02*
D03*
X-0000023Y0012522D02*
D03*
X-0000593Y0012497D02*
D03*
X-0001164D02*
D03*
X-0001734Y0012522D02*
D03*
X-0002304D02*
D03*
X-0002875Y0012548D02*
D03*
X-0003445D02*
D03*
X-0004016D02*
D03*
X-0004586Y0012573D02*
D03*
X-0005156D02*
D03*
X0021107Y0031902D02*
D03*
Y0031195D02*
D03*
Y0030488D02*
D03*
Y0029781D02*
D03*
Y0029073D02*
D03*
X0021755Y0031902D02*
D03*
Y0031195D02*
D03*
Y0030488D02*
D03*
Y0029781D02*
D03*
Y0029073D02*
D03*
Y0026951D02*
D03*
Y0026244D02*
D03*
Y0025537D02*
D03*
Y0024829D02*
D03*
Y0024122D02*
D03*
X0022403D02*
D03*
Y0024829D02*
D03*
Y0025537D02*
D03*
Y0026244D02*
D03*
Y0026951D02*
D03*
Y0027659D02*
D03*
Y0028366D02*
D03*
Y0029073D02*
D03*
Y0029781D02*
D03*
Y0030488D02*
D03*
Y0031195D02*
D03*
Y0031902D02*
D03*
M02*
