G04*
G04 #@! TF.GenerationSoftware,Altium Limited,Altium Designer,23.0.1 (38)*
G04*
G04 Layer_Color=32896*
%FSTAX43Y43*%
%MOMM*%
G71*
G04*
G04 #@! TF.SameCoordinates,B778C3FE-ACB6-4B2B-825A-9079CAA5F4FE*
G04*
G04*
G04 #@! TF.FilePolarity,Positive*
G04*
G01*
G75*
%ADD10C,0.200*%
%ADD11C,0.100*%
%ADD12C,0.127*%
%ADD36C,0.150*%
%ADD48C,0.050*%
G36*
X0015431Y0026519D02*
X0015433Y0025146D01*
X0015431Y0024765D01*
X0015435Y002476D01*
X0015431Y0024746D01*
X0015435Y0024706D01*
X0015431Y0024692D01*
X0015433Y0024665D01*
X0015428Y0024645D01*
X0015418Y0024635D01*
X001506Y002463D01*
X001503Y0024635D01*
X0015023Y0024643D01*
X0015018Y0025679D01*
X0015011Y0025686D01*
X0014996Y0025681D01*
X0014984Y0025669D01*
X0014974Y0025645D01*
X0014939Y0025581D01*
X0014915Y0025536D01*
X0014898Y0025505D01*
X0014895Y0025502D01*
X0014871Y0025463D01*
X0014841Y0025409D01*
X0014797Y0025325D01*
X0014772Y0025281D01*
X0014753Y0025252D01*
X0014684Y0025119D01*
X0014654Y0025065D01*
X0014645Y0025055D01*
X0014632Y0025023D01*
X001461Y0024981D01*
X0014591Y0024952D01*
X0014576Y0024927D01*
X0014556Y0024908D01*
X0014551Y0024898D01*
X0014534Y0024881D01*
X001449Y0024861D01*
X0014465Y0024851D01*
X0014446Y0024846D01*
X0014323Y0024851D01*
X0014298Y0024861D01*
X0014264Y0024881D01*
X0014242Y0024898D01*
X0014239Y0024905D01*
X001423Y002491D01*
X0014222Y0024918D01*
X0014217Y0024927D01*
X0014183Y0024981D01*
X0014099Y0025144D01*
X001409Y0025153D01*
X0014077Y0025185D01*
X001404Y0025257D01*
X0014031Y0025266D01*
X0014026Y0025286D01*
X0013977Y0025374D01*
X0013947Y0025428D01*
X0013923Y0025473D01*
X0013888Y0025536D01*
X0013844Y002562D01*
X001381Y0025684D01*
X0013797Y0025686D01*
X001379Y0025664D01*
X0013783Y0025117D01*
X001378Y002509D01*
X0013785Y0025075D01*
X001378Y002506D01*
X0013785Y0024967D01*
X001378Y0024647D01*
X0013768Y0024635D01*
X0013746Y0024633D01*
X0013645Y0024635D01*
X001363Y002463D01*
X0013375Y0024635D01*
X0013368Y0024657D01*
X0013372Y0026519D01*
X001339Y0026536D01*
X0013441Y0026534D01*
X0013724Y0026536D01*
X0013738Y0026531D01*
X0013765Y0026524D01*
X0013815Y0026494D01*
X0013824Y0026484D01*
X0013829Y0026475D01*
X0013854Y002644D01*
X0013942Y0026268D01*
X0013982Y0026195D01*
X0014001Y0026165D01*
X0014031Y0026101D01*
X0014055Y0026057D01*
X0014075Y0026023D01*
X0014129Y002592D01*
X0014153Y0025875D01*
X0014203Y0025782D01*
X0014227Y0025738D01*
X0014291Y0025615D01*
X0014311Y0025586D01*
X0014316Y0025576D01*
X0014335Y0025546D01*
X0014347Y0025514D01*
X0014355Y0025507D01*
X0014379Y0025463D01*
X0014392Y0025446D01*
X0014411Y0025441D01*
X0014429Y0025458D01*
X0014436Y0025485D01*
X0014458Y0025527D01*
X0014468Y0025536D01*
X0014478Y0025561D01*
X0014512Y0025625D01*
X0014527Y0025649D01*
X0014561Y0025713D01*
X001462Y0025826D01*
X001464Y0025856D01*
X0014645Y002587D01*
X0014679Y0025934D01*
X0014708Y0025988D01*
X0014753Y0026072D01*
X0014782Y0026126D01*
X0014802Y002616D01*
X0014846Y0026244D01*
X0014856Y0026254D01*
X001491Y0026357D01*
X0014934Y0026401D01*
X0014954Y002643D01*
X0014984Y0026484D01*
X0014991Y0026492D01*
X0015001Y0026497D01*
X001502Y0026516D01*
X0015045Y0026526D01*
X0015065Y0026531D01*
X0015158Y0026536D01*
X0015342Y0026534D01*
X0015364Y0026536D01*
X0015379Y0026531D01*
X0015408Y0026536D01*
X0015431Y0026519D01*
D02*
G37*
G36*
X0010806Y0027337D02*
X0010833Y0027315D01*
X0010853Y0027295D01*
X0010858Y0027285D01*
X0010867Y0027261D01*
X0010863Y0027207D01*
X0010843Y0027172D01*
X0010813Y0027143D01*
X0010808Y0027133D01*
X0010799Y0027123D01*
X0010794Y0027113D01*
X0010774Y0027084D01*
X0010745Y0027025D01*
Y002702D01*
X0010735Y002701D01*
X0010725Y0026971D01*
X001071Y0026887D01*
X0010715Y0026764D01*
X001072Y002675D01*
X0010742Y0026688D01*
X0010764Y0026651D01*
X0010769Y0026642D01*
X0010816Y002658D01*
X0010823Y0026573D01*
X0010828Y0026563D01*
X0010838Y0026553D01*
X0010848Y0026519D01*
X0010843Y002647D01*
X0010816Y0026433D01*
X0010806Y0026428D01*
X0010752Y0026403D01*
X0010715Y0026411D01*
X0010691Y0026421D01*
X0010656Y0026445D01*
X0010651Y0026455D01*
X0010622Y0026484D01*
X0010617Y0026494D01*
X0010607Y0026504D01*
X0010602Y0026514D01*
X0010592Y0026524D01*
X0010587Y0026534D01*
X0010568Y0026563D01*
X0010538Y0026627D01*
X0010519Y0026671D01*
X0010511Y0026708D01*
X0010502Y0026747D01*
X0010497Y0026801D01*
X0010494Y0026892D01*
X0010499Y0026907D01*
X0010504Y0026971D01*
X0010509Y0026985D01*
X0010516Y0027012D01*
X0010521Y0027032D01*
X0010541Y0027081D01*
X0010546Y0027101D01*
X0010568Y0027138D01*
X0010573Y0027157D01*
X0010583Y0027167D01*
X0010587Y0027177D01*
X0010619Y0027224D01*
X0010632Y0027241D01*
X0010641Y0027251D01*
X0010646Y0027261D01*
X0010718Y0027332D01*
X0010752Y0027342D01*
X0010806Y0027337D01*
D02*
G37*
G36*
X0012211Y0027322D02*
X0012255Y0027297D01*
X0012272Y0027285D01*
X0012277Y0027275D01*
X0012294Y0027258D01*
X0012304Y0027253D01*
X0012312Y0027241D01*
X0012314Y0027238D01*
X0012321Y0027231D01*
X0012326Y0027221D01*
X0012336Y0027211D01*
X0012341Y0027202D01*
X0012366Y0027157D01*
X00124Y0027084D01*
X001242Y002702D01*
X0012424Y0026985D01*
X0012429Y0026966D01*
X0012437Y00269D01*
X0012439Y0026809D01*
X0012434Y0026794D01*
X0012429Y002676D01*
X0012424Y002674D01*
X001242Y0026701D01*
X0012405Y0026666D01*
X0012397Y0026639D01*
X0012385Y0026612D01*
X0012351Y0026548D01*
X0012331Y0026514D01*
X0012309Y0026487D01*
X0012297Y002647D01*
X0012287Y002646D01*
X0012282Y002645D01*
X0012235Y0026403D01*
X0012226Y0026399D01*
X0012181Y0026379D01*
X0012142Y0026384D01*
X0012108Y0026403D01*
X0012095Y0026416D01*
X001209Y0026426D01*
X0012076Y002644D01*
X0012066Y002648D01*
X0012071Y0026514D01*
X0012095Y0026558D01*
X001213Y0026593D01*
X0012135Y0026602D01*
X0012145Y0026612D01*
X0012149Y0026622D01*
X0012159Y0026632D01*
X0012189Y0026696D01*
X0012208Y0026745D01*
X0012216Y0026791D01*
X0012221Y0026816D01*
X0012226Y0026845D01*
X0012228Y0026907D01*
X0012223Y0026922D01*
X0012213Y0026981D01*
X0012189Y0027044D01*
X0012159Y0027098D01*
X0012137Y0027125D01*
X001212Y0027143D01*
X0012115Y0027152D01*
X0012095Y0027197D01*
X00121Y0027265D01*
X0012137Y0027302D01*
X0012147Y0027307D01*
X0012181Y0027322D01*
X0012196Y0027327D01*
X0012211Y0027322D01*
D02*
G37*
G36*
X0010428Y0027715D02*
X0010438Y0027705D01*
X0010447Y00277D01*
X0010474Y0027673D01*
X0010484Y0027649D01*
X0010489Y0027629D01*
X0010484Y002758D01*
X001045Y0027536D01*
X001042Y0027506D01*
X0010416Y0027496D01*
X0010396Y0027477D01*
X0010391Y0027467D01*
X0010381Y0027457D01*
X0010376Y0027447D01*
X0010362Y0027432D01*
X0010357Y0027423D01*
X0010322Y0027374D01*
X0010317Y0027359D01*
X0010293Y0027324D01*
X0010258Y0027251D01*
X0010253Y0027231D01*
X0010234Y0027182D01*
X0010229Y0027162D01*
X0010217Y0027135D01*
X0010214Y0027133D01*
X0010207Y0027101D01*
X0010197Y0027062D01*
X001019Y0027035D01*
X0010182Y0026968D01*
X0010177Y0026914D01*
X0010175Y0026833D01*
X001018Y0026818D01*
X0010185Y002671D01*
X001019Y0026696D01*
X0010202Y0026644D01*
X0010207Y002662D01*
X0010212Y00266D01*
X0010224Y0026573D01*
X0010234Y0026538D01*
X0010251Y0026492D01*
X0010276Y0026438D01*
X0010283Y0026421D01*
X0010303Y0026391D01*
X0010332Y0026337D01*
X0010342Y0026327D01*
X0010347Y0026317D01*
X0010393Y0026256D01*
X0010401Y0026249D01*
X0010406Y0026239D01*
X001042Y0026224D01*
X0010425Y0026214D01*
X001047Y002617D01*
X0010474Y002616D01*
X0010489Y0026126D01*
X0010484Y0026072D01*
X001046Y0026038D01*
X0010443Y002602D01*
X0010418Y002601D01*
X0010398Y0026006D01*
X0010386Y0026003D01*
X0010362Y0026008D01*
X0010332Y0026023D01*
X0010315Y0026035D01*
X0010305Y0026045D01*
X0010295Y002605D01*
X0010263Y0026082D01*
X0010258Y0026092D01*
X0010239Y0026111D01*
X0010234Y0026121D01*
X0010209Y0026146D01*
X0010204Y0026155D01*
X001019Y002617D01*
X0010185Y002618D01*
X001016Y0026214D01*
X0010155Y0026229D01*
X0010133Y0026256D01*
X0010111Y0026293D01*
X0010067Y0026386D01*
X0010062Y0026396D01*
X0010047Y002643D01*
X0010025Y0026492D01*
X001002Y0026511D01*
X0010003Y0026568D01*
X0009991Y0026624D01*
X0009978Y0026656D01*
X0009973Y002672D01*
X0009969Y0026755D01*
X0009964Y0026863D01*
X0009969Y002699D01*
X0009973Y0027005D01*
X0009978Y0027069D01*
X0009988Y0027094D01*
X0009998Y0027133D01*
X0010005Y0027165D01*
X0010018Y0027207D01*
X0010028Y0027246D01*
X0010052Y002731D01*
X0010126Y0027452D01*
X0010145Y0027482D01*
X001015Y0027491D01*
X001016Y0027501D01*
X0010165Y0027511D01*
X001019Y0027545D01*
X0010195Y0027555D01*
X0010209Y002757D01*
X0010214Y002758D01*
X0010239Y0027604D01*
X0010244Y0027614D01*
X0010263Y0027634D01*
X0010268Y0027644D01*
X0010315Y002769D01*
X0010325Y0027695D01*
X0010335Y0027705D01*
X0010369Y002772D01*
X0010428Y0027715D01*
D02*
G37*
G36*
X0012589D02*
X0012633Y0027681D01*
X001268Y0027634D01*
X0012685Y0027624D01*
X00127Y0027609D01*
X0012704Y0027599D01*
X0012719Y0027585D01*
X0012724Y0027575D01*
X0012734Y0027565D01*
X0012739Y0027555D01*
X0012754Y0027541D01*
X0012758Y0027531D01*
X0012773Y0027516D01*
X0012798Y0027472D01*
X0012817Y0027437D01*
X0012842Y0027398D01*
X0012871Y0027334D01*
X0012908Y0027238D01*
X0012935Y0027152D01*
X001294Y0027133D01*
X0012945Y0027098D01*
X001295Y0027079D01*
X0012957Y0027032D01*
X0012962Y0026993D01*
X0012967Y0026924D01*
X001297Y0026818D01*
X0012965Y0026804D01*
X001296Y0026691D01*
X0012955Y0026676D01*
X0012948Y0026629D01*
X0012943Y0026605D01*
X001294Y0026597D01*
Y0026593D01*
X0012933Y0026561D01*
X0012921Y0026519D01*
X0012916Y0026499D01*
X0012896Y0026455D01*
X0012879Y0026408D01*
X0012864Y0026369D01*
X0012857Y0026362D01*
X0012808Y0026268D01*
X0012783Y0026224D01*
X0012773Y0026214D01*
X0012768Y0026205D01*
X0012746Y0026177D01*
X0012739Y002617D01*
X0012719Y0026136D01*
X0012685Y0026101D01*
X001268Y0026092D01*
X001267Y0026082D01*
X0012665Y0026072D01*
X0012653Y002606D01*
X0012646Y0026057D01*
X0012641Y0026047D01*
X0012618Y0026025D01*
X0012609Y002602D01*
X0012574Y0026006D01*
X001254Y0026001D01*
X001252Y0026006D01*
X0012496Y002602D01*
X0012481Y0026035D01*
X0012471Y002604D01*
X0012459Y0026052D01*
X0012454Y0026062D01*
X0012449Y0026077D01*
X0012444Y0026111D01*
X0012454Y002615D01*
X0012469Y0026165D01*
X0012474Y0026175D01*
X0012483Y0026185D01*
X0012486Y0026192D01*
X0012496Y0026197D01*
X0012508Y0026209D01*
X0012513Y0026219D01*
X0012535Y0026246D01*
X0012552Y0026263D01*
X0012557Y0026273D01*
X0012572Y0026288D01*
X0012577Y0026298D01*
X0012596Y0026327D01*
X0012601Y0026337D01*
X0012626Y0026372D01*
X0012631Y0026381D01*
X0012685Y0026494D01*
X0012709Y0026548D01*
X0012717Y002658D01*
X0012724Y0026607D01*
X0012734Y0026642D01*
X0012739Y0026676D01*
X0012744Y0026715D01*
X0012749Y002673D01*
X0012754Y002675D01*
X0012758Y0026902D01*
X0012751Y0026988D01*
X0012746Y0027012D01*
X0012736Y0027071D01*
X0012731Y0027096D01*
X0012727Y0027116D01*
X0012719Y0027143D01*
X0012697Y0027204D01*
X0012677Y0027253D01*
X0012641Y0027324D01*
X0012611Y0027378D01*
X0012601Y0027388D01*
X0012596Y0027398D01*
X0012537Y0027477D01*
X0012528Y0027486D01*
X0012523Y0027496D01*
X0012513Y0027506D01*
X0012508Y0027516D01*
X0012501Y0027523D01*
X0012491Y0027528D01*
X0012483Y0027536D01*
X0012479Y0027545D01*
X0012469Y0027555D01*
X0012464Y0027565D01*
X0012454Y0027575D01*
X0012449Y0027609D01*
X0012454Y0027653D01*
X0012464Y0027663D01*
X0012469Y0027673D01*
X0012491Y00277D01*
X0012501Y0027705D01*
X0012535Y002772D01*
X0012589Y0027715D01*
D02*
G37*
G36*
X0007594Y0026634D02*
X0007601Y0026627D01*
X0007606Y0026593D01*
X0007601Y0026578D01*
X0007606Y0026563D01*
X0007604Y0026477D01*
X0007606Y0026455D01*
X0007591Y002643D01*
X0007446Y0026423D01*
X000695Y0026418D01*
X0006938Y0026406D01*
X0006933Y0026386D01*
X0006928Y0024657D01*
X0006921Y002465D01*
X0006886Y0024645D01*
X0006837Y002465D01*
X0006759Y0024645D01*
X0006395Y002465D01*
X0006388Y0024657D01*
X0006383Y0024677D01*
Y0025227D01*
Y0025232D01*
X0006378Y0026411D01*
X0006371Y0026418D01*
X0006351Y0026423D01*
X0005727Y0026428D01*
X000572Y0026435D01*
X0005715Y0026455D01*
X000572Y0026632D01*
X0005742Y0026639D01*
X0006592Y0026634D01*
X0006599Y0026612D01*
X0006604Y0024873D01*
X0006616Y0024861D01*
X0006705Y0024866D01*
X0006712Y0024873D01*
X0006717Y0024893D01*
X0006722Y0026627D01*
X0006734Y0026639D01*
X0007594Y0026634D01*
D02*
G37*
G36*
X0011548Y0027175D02*
X0011562Y002717D01*
X0011594Y0027157D01*
X0011678Y0027108D01*
X0011722Y0027064D01*
X0011727Y0027054D01*
X0011752Y002702D01*
X0011766Y0026985D01*
X0011776Y0026961D01*
X0011786Y0026927D01*
X0011781Y0026779D01*
X0011766Y0026745D01*
X0011742Y0026701D01*
X0011717Y0026666D01*
X0011712Y0026656D01*
X0011675Y002662D01*
X0011666Y0026615D01*
X0011653Y0026583D01*
X0011658Y0026568D01*
X0011673Y0026509D01*
X0011688Y002646D01*
X0011695Y0026428D01*
X001171Y0026369D01*
X0011715Y0026344D01*
X001172Y0026325D01*
X0011725Y00263D01*
X0011729Y0026281D01*
X0011737Y0026254D01*
X0011742Y0026234D01*
X0011749Y0026207D01*
X0011761Y0026175D01*
X0011774Y0026123D01*
X0011781Y0026096D01*
X0011798Y002602D01*
X0011808Y0025981D01*
X0011813Y0025956D01*
X0011823Y0025917D01*
X0011835Y0025875D01*
X0011845Y0025836D01*
X0011855Y0025802D01*
X0011862Y002577D01*
X0011867Y002575D01*
X0011874Y0025723D01*
X0011879Y0025703D01*
X0011887Y0025672D01*
X0011899Y002563D01*
X0011906Y0025598D01*
X0011911Y0025578D01*
X0011923Y0025536D01*
X0011933Y0025497D01*
X0011941Y002546D01*
X0011948Y0025433D01*
X0011953Y0025414D01*
X001196Y0025382D01*
X0011965Y0025362D01*
X0011973Y0025335D01*
X0011978Y0025315D01*
X0011997Y0025252D01*
X0012005Y0025225D01*
X0012009Y0025205D01*
X0012014Y002518D01*
X0012024Y0025141D01*
X0012029Y0025117D01*
X0012034Y0025097D01*
X0012041Y002507D01*
X0012046Y002505D01*
X0012054Y0025018D01*
X0012071Y0024962D01*
X0012078Y0024935D01*
X001209Y0024918D01*
X001211Y0024913D01*
X0012122Y002491D01*
X0012137Y0024915D01*
X0012169Y0024913D01*
X0012211Y0024915D01*
X0012226Y002491D01*
X0012312Y0024913D01*
X0012361Y0024908D01*
X001238Y0024903D01*
X0012415Y0024878D01*
X001242Y0024868D01*
X0012429Y0024844D01*
X0012434Y0024824D01*
X0012429Y0024765D01*
X0012407Y0024738D01*
X0012393Y0024724D01*
X0012358Y0024714D01*
X0012324Y0024709D01*
X0012309Y0024714D01*
X001226Y0024709D01*
X0011968Y0024706D01*
X001196Y0024709D01*
X0011946Y0024704D01*
X0011644Y0024706D01*
X0011616Y0024704D01*
X0011602Y0024709D01*
X0011469D01*
X0010651Y0024706D01*
X0010619Y0024709D01*
X0010605Y0024704D01*
X0010573Y0024711D01*
X0010548Y0024721D01*
X0010531Y0024733D01*
X0010519Y0024746D01*
X0010504Y002478D01*
X0010499Y0024814D01*
X0010506Y0024846D01*
X0010514Y0024864D01*
X0010531Y0024886D01*
X0010541Y0024891D01*
X0010551Y00249D01*
X001061Y0024915D01*
X0010831Y002492D01*
X0010848Y0024937D01*
X0010858Y0024977D01*
X0010863Y0024991D01*
X0010867Y0025011D01*
X0010875Y0025053D01*
X0010892Y0025109D01*
X0010899Y0025146D01*
X0010912Y0025178D01*
X0010924Y0025229D01*
X0010936Y0025271D01*
X0010944Y0025313D01*
X0010968Y0025411D01*
X0010973Y0025436D01*
X0010985Y0025478D01*
X0010995Y0025517D01*
X0011005Y0025541D01*
X0011017Y0025598D01*
X0011047Y0025716D01*
X0011052Y002574D01*
X0011059Y0025767D01*
X0011079Y0025836D01*
X0011088Y0025875D01*
X0011098Y002591D01*
X0011103Y0025929D01*
X0011115Y0025986D01*
X001112Y0026006D01*
X0011128Y0026033D01*
X0011133Y0026052D01*
X0011147Y0026101D01*
X0011162Y002616D01*
X001117Y0026192D01*
X0011177Y0026219D01*
X0011182Y0026239D01*
X0011194Y0026295D01*
X0011199Y002632D01*
X0011204Y002634D01*
X0011214Y0026364D01*
X0011224Y0026403D01*
X0011228Y0026428D01*
X0011236Y0026455D01*
X0011246Y0026494D01*
X0011251Y0026529D01*
X001126Y0026563D01*
X0011265Y0026583D01*
X001126Y0026607D01*
X0011243Y0026624D01*
X0011233Y0026629D01*
X0011226Y0026637D01*
X0011221Y0026647D01*
X0011199Y0026674D01*
X0011192Y0026681D01*
X0011162Y0026755D01*
X0011152Y0026794D01*
X0011147Y0026828D01*
X0011152Y0026927D01*
X0011157Y0026941D01*
X0011165Y0026968D01*
X0011177Y0026995D01*
X0011206Y0027049D01*
X0011221Y0027064D01*
X0011226Y0027074D01*
X0011273Y0027121D01*
X0011366Y0027165D01*
X00114Y0027175D01*
X001142Y002718D01*
X0011548Y0027175D01*
D02*
G37*
G36*
X0009504Y002659D02*
X0009512Y0026568D01*
X0009517Y0025944D01*
X0009514Y0024812D01*
X0009517Y0024751D01*
X0009512Y0024736D01*
X0009517Y0024721D01*
X0009512Y0024706D01*
X0009499Y0024694D01*
X0009082Y0024689D01*
X0009065Y0024701D01*
X0009062Y0025161D01*
X0009065Y0025227D01*
X000906Y0025242D01*
X0009055Y0025379D01*
X0009048Y0025387D01*
X0009006Y0025384D01*
X0008979Y0025387D01*
X0008964Y0025382D01*
X000894Y0025377D01*
X0008922Y0025365D01*
X0008917Y0025355D01*
X0008908Y0025345D01*
X0008903Y0025335D01*
X0008888Y002532D01*
X0008883Y0025311D01*
X0008873Y0025301D01*
X0008854Y0025266D01*
X0008844Y0025257D01*
X0008839Y0025247D01*
X0008829Y0025237D01*
X0008824Y0025227D01*
X0008814Y0025217D01*
X0008809Y0025207D01*
X000879Y0025173D01*
X000878Y0025163D01*
X0008775Y0025153D01*
X000875Y0025119D01*
X0008746Y0025109D01*
X0008721Y0025075D01*
X0008716Y0025065D01*
X0008696Y0025035D01*
X0008691Y0025026D01*
X0008682Y0025016D01*
X0008677Y0025006D01*
X0008633Y0024942D01*
X0008628Y0024932D01*
X0008603Y0024898D01*
X0008583Y0024864D01*
X0008574Y0024854D01*
X0008569Y0024844D01*
X0008549Y002481D01*
X0008539Y00248D01*
X0008534Y002479D01*
X00085Y0024746D01*
X0008483Y0024733D01*
X0008473Y0024724D01*
X0008448Y0024714D01*
X0008439Y0024709D01*
X0008414Y0024699D01*
X0008382Y0024692D01*
X0007977Y0024689D01*
X0007965Y0024697D01*
X0007962Y0024709D01*
X0007982Y0024738D01*
X0007999Y0024765D01*
X0008019Y00248D01*
X0008028Y002481D01*
X0008033Y0024819D01*
X0008082Y0024888D01*
X0008087Y0024898D01*
X0008112Y0024932D01*
X0008117Y0024942D01*
X0008166Y0025011D01*
X0008171Y0025021D01*
X0008181Y0025031D01*
X00082Y0025065D01*
X0008232Y0025112D01*
X000824Y0025119D01*
X0008254Y0025144D01*
X0008279Y0025178D01*
X0008294Y0025202D01*
X0008318Y0025237D01*
X0008323Y0025247D01*
X0008389Y0025347D01*
X0008397Y0025355D01*
X0008421Y0025399D01*
X000847Y0025468D01*
X000848Y0025492D01*
X0008468Y0025509D01*
X0008424Y0025534D01*
X0008397Y0025556D01*
X0008389Y0025564D01*
X0008355Y0025583D01*
X0008338Y00256D01*
X0008333Y002561D01*
X0008316Y0025622D01*
X0008303Y002564D01*
X0008274Y0025669D01*
X0008269Y0025679D01*
X0008259Y0025689D01*
X0008225Y0025753D01*
X0008215Y0025762D01*
X0008203Y0025794D01*
X0008193Y0025819D01*
X0008188Y0025839D01*
X0008181Y0025866D01*
X0008171Y0025905D01*
X0008166Y0025939D01*
X0008161Y0026018D01*
X0008166Y0026131D01*
X0008171Y0026146D01*
X0008178Y0026173D01*
X0008188Y0026222D01*
X0008222Y002629D01*
X000823Y0026298D01*
X0008254Y0026342D01*
X0008264Y0026352D01*
X0008269Y0026362D01*
X0008291Y0026389D01*
X0008335Y0026433D01*
X0008345Y0026438D01*
X0008353Y0026445D01*
X0008355Y0026448D01*
X0008419Y0026492D01*
X0008473Y0026516D01*
X0008497Y0026526D01*
X0008507Y0026531D01*
X0008542Y0026546D01*
X0008596Y0026561D01*
X0008635Y002657D01*
X0008677Y0026578D01*
X0008716Y0026583D01*
X0008782Y002659D01*
X0008846Y0026595D01*
X0009504Y002659D01*
D02*
G37*
G36*
X0007584Y0023594D02*
X0007591Y0023587D01*
X0007601Y0023562D01*
X0007606Y0023307D01*
X0007618Y0023289D01*
X0007638Y0023284D01*
X000766Y0023287D01*
X0007682Y0023284D01*
X0007697Y0023289D01*
X0007746Y0023284D01*
X0007773Y0023297D01*
X0007783Y0023321D01*
X0007788Y0023587D01*
X0007795Y0023594D01*
X0007876Y0023596D01*
X0007891Y0023591D01*
X0007901Y0023567D01*
X0007906Y0023302D01*
X0007913Y0023294D01*
X0007933Y0023289D01*
X0007982Y0023284D01*
X0008006Y0023275D01*
X000805Y002325D01*
X0008053Y0023248D01*
X0008055Y0023245D01*
X0008063Y0023238D01*
X0008068Y0023228D01*
X0008082Y0023203D01*
X0008092Y0023169D01*
X0008097Y0023149D01*
X0008102Y0023105D01*
X0008114Y0023093D01*
X0008394Y0023088D01*
X0008402Y0023066D01*
X0008407Y0023031D01*
X0008402Y0022992D01*
X0008394Y002298D01*
X0008375Y0022975D01*
X0008114Y002297D01*
X0008102Y0022958D01*
X0008097Y0022938D01*
X0008102Y0022806D01*
X0008114Y0022793D01*
X0008134Y0022788D01*
X0008154Y0022793D01*
X0008389Y0022788D01*
X0008397Y0022781D01*
X0008407Y0022742D01*
X0008402Y0022688D01*
X0008389Y0022675D01*
X000837Y002267D01*
X0008109Y0022666D01*
X0008102Y0022658D01*
X0008097Y0022639D01*
X0008102Y0022506D01*
X0008114Y0022494D01*
X0008134Y0022489D01*
X0008151Y0022491D01*
X0008387Y0022486D01*
X0008402Y0022472D01*
X0008407Y0022422D01*
X0008402Y0022388D01*
X0008394Y0022376D01*
X0008375Y0022371D01*
X0008323Y0022368D01*
X0008281Y0022371D01*
X0008267Y0022366D01*
X0008232Y0022371D01*
X0008176Y0022368D01*
X0008134Y0022371D01*
X0008119Y0022366D01*
X0008102Y0022359D01*
X0008097Y0022339D01*
X0008102Y0022201D01*
X0008114Y0022189D01*
X0008389Y0022184D01*
X0008402Y0022172D01*
X0008407Y0022138D01*
X0008402Y0022083D01*
X0008389Y0022071D01*
X000837Y0022066D01*
X0008249Y0022069D01*
X0008168Y0022066D01*
X0008154Y0022071D01*
X0008139Y0022066D01*
X0008109Y0022061D01*
X0008097Y0022049D01*
X0008092Y0021985D01*
X0008087Y0021971D01*
X0008063Y0021926D01*
X000805Y0021909D01*
X0008041Y0021904D01*
X0007987Y002188D01*
X0007967Y0021875D01*
X0007918Y002187D01*
X0007906Y0021858D01*
X0007901Y0021823D01*
X0007896Y0021578D01*
X0007884Y0021565D01*
X000779Y002157D01*
X0007783Y0021592D01*
X000778Y0021614D01*
X0007783Y0021838D01*
X0007778Y0021853D01*
X0007773Y0021862D01*
X0007766Y002187D01*
X0007746Y0021875D01*
X0007613Y002187D01*
X0007606Y0021848D01*
X0007601Y0021799D01*
X0007596Y0021578D01*
X0007589Y002157D01*
X0007569Y0021565D01*
X0007491Y002157D01*
X0007483Y0021578D01*
X0007478Y0021597D01*
X0007473Y0021862D01*
X0007466Y002187D01*
X0007446Y0021875D01*
X0007314Y002187D01*
X0007301Y0021858D01*
X0007297Y0021587D01*
X0007284Y002157D01*
X0007265Y0021565D01*
X0007191Y002157D01*
X0007184Y0021578D01*
X0007179Y0021597D01*
X0007174Y0021705D01*
X0007176Y0021845D01*
X0007169Y0021862D01*
X0007157Y0021875D01*
X0007009Y002187D01*
X0007002Y0021862D01*
X0006997Y0021828D01*
X0006992Y0021578D01*
X0006985Y002157D01*
X000695Y0021565D01*
X0006886Y002157D01*
X0006874Y0021597D01*
X0006869Y0021858D01*
X0006852Y0021875D01*
X0006778Y002188D01*
X0006734Y0021904D01*
X0006707Y0021931D01*
X0006702Y0021941D01*
X0006678Y0021995D01*
X0006673Y0022059D01*
X0006665Y0022066D01*
X0006646Y0022071D01*
X0006631Y0022066D01*
X0006491Y0022069D01*
X0006444Y0022066D01*
X000643Y0022071D01*
X000641Y0022066D01*
X0006385Y0022071D01*
X0006373Y0022083D01*
X0006368Y0022103D01*
X0006373Y0022177D01*
X000638Y0022184D01*
X0006474Y0022189D01*
X0006653Y0022187D01*
X000667Y0022199D01*
X0006678Y0022226D01*
X0006673Y0022359D01*
X0006665Y0022366D01*
X0006646Y0022371D01*
X0006486Y0022368D01*
X0006454Y0022371D01*
X0006439Y0022366D01*
X0006425Y0022371D01*
X000638Y0022376D01*
X0006373Y0022383D01*
X0006368Y0022403D01*
X0006373Y0022476D01*
X0006385Y0022489D01*
X0006432Y0022491D01*
X0006474Y0022489D01*
X0006489Y0022494D01*
X0006503Y0022489D01*
X0006633Y0022491D01*
X000666Y0022489D01*
X0006673Y0022501D01*
X0006678Y002255D01*
X0006673Y0022658D01*
X000666Y002267D01*
X000638Y0022675D01*
X0006373Y0022683D01*
X0006368Y0022702D01*
X0006373Y0022776D01*
X0006385Y0022788D01*
X0006449Y0022793D01*
X0006665Y0022798D01*
X0006673Y0022806D01*
X0006678Y0022825D01*
X0006673Y0022963D01*
X000666Y0022975D01*
X000638Y002298D01*
X0006373Y0022987D01*
X0006368Y0023007D01*
X0006373Y0023081D01*
X0006385Y0023093D01*
X0006665Y0023098D01*
X0006673Y0023105D01*
X0006678Y002314D01*
X0006683Y0023184D01*
X0006707Y0023223D01*
X0006712Y0023233D01*
X0006722Y0023243D01*
X0006724Y002325D01*
X0006734Y0023255D01*
X0006744Y0023265D01*
X0006778Y002328D01*
X0006813Y0023284D01*
X0006825Y0023287D01*
X0006842Y0023284D01*
X0006867Y0023299D01*
X0006874Y0023321D01*
X0006879Y0023582D01*
X0006886Y0023589D01*
X0006921Y0023599D01*
X0006982Y0023591D01*
X0006992Y0023582D01*
X0006997Y0023562D01*
X0007002Y0023302D01*
X0007019Y0023284D01*
X0007083Y0023289D01*
X0007098Y0023284D01*
X0007132Y0023289D01*
X0007149Y0023287D01*
X0007166Y0023294D01*
X0007174Y0023316D01*
X0007179Y0023336D01*
X0007174Y0023356D01*
X0007179Y0023444D01*
X0007174Y0023459D01*
X0007176Y002351D01*
X0007174Y0023537D01*
X0007179Y0023552D01*
X0007184Y0023582D01*
X0007196Y0023594D01*
X0007218Y0023596D01*
X000724Y0023594D01*
X0007255Y0023599D01*
X0007282Y0023591D01*
X0007297Y0023577D01*
X0007301Y0023542D01*
X0007306Y0023302D01*
X0007319Y0023289D01*
X0007338Y0023284D01*
X0007358Y0023289D01*
X000741Y0023287D01*
X0007464Y0023292D01*
X0007473Y0023302D01*
X0007478Y0023321D01*
X0007483Y0023582D01*
X0007491Y0023589D01*
X000753Y0023599D01*
X0007584Y0023594D01*
D02*
G37*
G36*
X0015074Y0023555D02*
X0015082Y0023547D01*
X0015087Y0023483D01*
X0015082Y0021666D01*
X0015074Y0021659D01*
X0014713Y0021651D01*
X0014677Y0021649D01*
X0014662Y0021654D01*
X0014495Y0021649D01*
X0013903Y0021651D01*
X00139Y0021649D01*
X0013886Y0021654D01*
X0013842Y0021659D01*
X0013834Y0021666D01*
X0013829Y0021686D01*
X0013837Y0022007D01*
X0013846Y0022032D01*
X0013866Y0022037D01*
X00139Y0022032D01*
X0014308D01*
X0014522Y0022039D01*
X001461Y0022044D01*
X0014625Y0022054D01*
X001463Y0022088D01*
X0014625Y0022388D01*
X001462Y0022408D01*
X0014613Y0022415D01*
X0014586Y0022422D01*
X0014436Y002242D01*
X0014421Y0022425D01*
X0014055Y0022427D01*
X0014018Y0022425D01*
X0014006Y0022437D01*
X0014001Y0022472D01*
X0014009Y0022788D01*
X0014018Y0022798D01*
X001405Y0022796D01*
X0014082Y0022798D01*
X0014092Y0022793D01*
X0014107Y0022798D01*
X0014568Y0022803D01*
X0014578Y0022808D01*
X0014593Y0022803D01*
X0014613Y0022808D01*
X0014625Y002282D01*
X001463Y002284D01*
X0014627Y0022945D01*
X001463Y0022977D01*
X0014625Y0022992D01*
X001462Y0023164D01*
X0014608Y0023176D01*
X0013844Y0023184D01*
X0013829Y0023198D01*
X0013832Y002325D01*
X0013829Y0023365D01*
X0013834Y002338D01*
X0013839Y0023547D01*
X0013851Y0023559D01*
X0015074Y0023555D01*
D02*
G37*
G36*
X0017309Y0026413D02*
X001741Y0026406D01*
X0017449Y0026401D01*
X0017469Y0026396D01*
X0017518Y0026386D01*
X0017565Y0026379D01*
X0017589Y0026369D01*
X0017609Y0026364D01*
X0017638Y0026359D01*
X0017663Y0026349D01*
X0017744Y0026327D01*
X0017771Y0026315D01*
X0017803Y0026303D01*
X0017874Y0026271D01*
X0018007Y0026202D01*
X0018036Y0026182D01*
X0018071Y0026163D01*
X0018139Y0026114D01*
X0018149Y0026109D01*
X0018164Y0026094D01*
X0018174Y0026089D01*
X0018198Y0026065D01*
X0018208Y002606D01*
X0018223Y0026045D01*
X0018233Y002604D01*
X001825Y0026023D01*
X0018255Y0026013D01*
X0018262Y0026006D01*
X0018272Y0026001D01*
X0018299Y0025974D01*
X0018301Y0025966D01*
X0018311Y0025961D01*
X0018338Y0025934D01*
X0018343Y0025925D01*
X0018358Y002591D01*
X0018363Y00259D01*
X0018387Y0025875D01*
X0018392Y0025866D01*
X0018407Y0025851D01*
X0018422Y0025826D01*
X0018432Y0025816D01*
X0018437Y0025807D01*
X0018461Y0025772D01*
X0018491Y0025718D01*
X0018515Y0025674D01*
X0018574Y0025551D01*
X0018581Y0025524D01*
X0018594Y0025497D01*
X0018599Y0025478D01*
X0018606Y0025451D01*
X0018618Y0025419D01*
X0018631Y0025367D01*
X0018638Y002534D01*
X0018643Y0025306D01*
X0018648Y0025257D01*
X0018653Y0025222D01*
X0018658Y0025173D01*
X0018663Y0025021D01*
X0018658Y0024957D01*
X001865Y0024856D01*
X0018645Y0024807D01*
X0018635Y0024748D01*
X0018628Y0024721D01*
X0018623Y0024701D01*
X0018618Y0024672D01*
X0018604Y0024638D01*
X0018599Y0024618D01*
X0018572Y0024542D01*
X0018547Y0024488D01*
X0018525Y0024446D01*
X0018496Y0024392D01*
X0018464Y0024345D01*
X0018424Y0024286D01*
X0018417Y0024279D01*
X0018412Y0024269D01*
X0018402Y0024259D01*
X0018397Y002425D01*
X0018363Y0024215D01*
X0018358Y0024205D01*
X0018341Y0024193D01*
X0018292Y0024144D01*
X0018282Y0024139D01*
X0018257Y0024115D01*
X0018247Y002411D01*
X0018228Y002409D01*
X0018218Y0024085D01*
X0018191Y0024063D01*
X0018161Y0024043D01*
X0018107Y0024009D01*
X00181Y0024002D01*
X0017879Y0023893D01*
X001783Y0023874D01*
X0017798Y0023862D01*
X0017771Y0023849D01*
X0017722Y002383D01*
X0017702Y0023825D01*
X001767Y0023812D01*
X0017651Y0023808D01*
X0017582Y0023783D01*
X001755Y0023771D01*
X0017518Y0023763D01*
X0017476Y0023751D01*
X0017427Y0023736D01*
X0017388Y0023726D01*
X0017363Y0023717D01*
X0017336Y0023709D01*
X0017295Y0023697D01*
X0017263Y0023685D01*
X0017236Y0023677D01*
X0017204Y002367D01*
X0017177Y0023663D01*
X0017142Y0023653D01*
X0017078Y0023628D01*
X0017032Y0023611D01*
X001699Y0023594D01*
X0016936Y0023569D01*
X0016902Y002355D01*
X0016828Y002351D01*
X0016798Y0023491D01*
X0016789Y0023486D01*
X0016769Y0023466D01*
X0016759Y0023461D01*
X0016749Y0023451D01*
X0016742Y0023449D01*
X0016737Y0023439D01*
X001672Y0023422D01*
X001671Y0023417D01*
X0016698Y0023405D01*
X0016693Y0023395D01*
X0016673Y0023375D01*
X0016668Y0023365D01*
X0016658Y0023356D01*
X0016619Y0023272D01*
X0016614Y0023252D01*
X0016604Y0023228D01*
X00166Y0023208D01*
X0016595Y002313D01*
X00166Y0022992D01*
X0016609Y0022968D01*
X0016619Y0022928D01*
X0016627Y0022901D01*
X0016639Y0022874D01*
X0016646Y0022847D01*
X0016688Y0022771D01*
X0016735Y002271D01*
X0016744Y0022705D01*
X0016762Y0022688D01*
X0016767Y0022678D01*
X0016784Y0022666D01*
X0016794Y0022656D01*
X0016803Y0022651D01*
X0016813Y0022641D01*
X0016867Y0022611D01*
X0016951Y0022572D01*
X001697Y0022567D01*
X0017019Y0022553D01*
X0017039Y0022548D01*
X0017074Y0022543D01*
X0017113Y0022533D01*
X0017147Y0022528D01*
X0017255Y0022523D01*
X0017462Y0022528D01*
X0017476Y0022533D01*
X0017516Y0022543D01*
X0017579Y0022553D01*
X0017594Y0022557D01*
X0017633Y0022567D01*
X001768Y0022584D01*
X0017729Y0022604D01*
X0017737Y0022611D01*
X0017761Y0022621D01*
X0017805Y0022641D01*
X001783Y0022651D01*
X001784Y0022656D01*
X0017894Y0022685D01*
X0017909Y00227D01*
X0017982Y0022739D01*
X0018044Y0022781D01*
X0018051Y0022788D01*
X0018061Y0022793D01*
X0018149Y0022852D01*
X0018218Y0022891D01*
X0018282Y0022921D01*
X0018321Y0022931D01*
X0018353Y0022933D01*
X0018407Y0022928D01*
X0018461Y0022909D01*
X001851Y0022879D01*
X0018527Y0022867D01*
X0018554Y0022845D01*
X0018584Y0022815D01*
X0018604Y0022781D01*
X0018623Y0022751D01*
X0018628Y0022742D01*
X0018648Y0022712D01*
X0018672Y0022668D01*
X0018721Y0022589D01*
X0018726Y002258D01*
X0018736Y002257D01*
X0018761Y0022526D01*
X0018785Y0022491D01*
X0018815Y0022437D01*
X0018834Y0022408D01*
X0018839Y0022398D01*
X0018849Y0022388D01*
X0018854Y0022368D01*
X0018849Y0022359D01*
X0018825Y0022334D01*
X001882Y0022324D01*
X0018783Y0022287D01*
X0018773Y0022282D01*
X0018766Y0022275D01*
X0018763Y0022268D01*
X0018753Y0022263D01*
X0018714Y0022223D01*
X0018704Y0022219D01*
X001869Y0022204D01*
X001868Y0022199D01*
X001866Y0022179D01*
X001865Y0022174D01*
X0018623Y0022152D01*
X0018616Y0022145D01*
X0018581Y0022125D01*
X0018572Y0022115D01*
X0018562Y002211D01*
X0018527Y0022086D01*
X0018518Y0022081D01*
X0018508Y0022071D01*
X0018454Y0022042D01*
X001841Y0022017D01*
X001838Y0021998D01*
X001837Y0021993D01*
X0018306Y0021963D01*
X0018174Y0021899D01*
X0018098Y0021872D01*
X0018044Y0021853D01*
X0018012Y002184D01*
X0017948Y0021821D01*
X0017928Y0021816D01*
X0017896Y0021808D01*
X0017869Y0021801D01*
X001785Y0021796D01*
X0017793Y0021784D01*
X0017715Y0021764D01*
X0017685Y0021759D01*
X0017621Y0021749D01*
X0017555Y0021742D01*
X0017476Y0021737D01*
X0017442Y0021732D01*
X001729Y0021727D01*
X0017145Y0021735D01*
X0017076Y002174D01*
X001701Y0021747D01*
X0016963Y0021754D01*
X0016924Y0021759D01*
X0016899Y0021764D01*
X001686Y0021774D01*
X0016835Y0021779D01*
X0016811Y0021789D01*
X0016791Y0021794D01*
X0016762Y0021799D01*
X0016742Y0021803D01*
X0016717Y0021813D01*
X0016698Y0021818D01*
X0016644Y0021838D01*
X0016604Y0021853D01*
X0016523Y0021889D01*
X001641Y0021948D01*
X0016401Y0021958D01*
X0016327Y0021998D01*
X0016317Y0022007D01*
X0016307Y0022012D01*
X0016263Y0022047D01*
X0016202Y0022093D01*
X001618Y0022115D01*
X001617Y002212D01*
X0016145Y0022145D01*
X0016135Y002215D01*
X0016108Y0022177D01*
X0016103Y0022187D01*
X0016069Y0022221D01*
X0016064Y0022231D01*
X0016015Y002228D01*
X001601Y002229D01*
X0015995Y0022305D01*
X001599Y0022314D01*
X0015981Y0022324D01*
X0015961Y0022359D01*
X0015951Y0022368D01*
X0015946Y0022378D01*
X0015936Y0022388D01*
X0015912Y0022432D01*
X0015892Y0022462D01*
X0015819Y0022614D01*
X0015806Y0022646D01*
X0015787Y00227D01*
X0015774Y0022732D01*
X0015767Y0022759D01*
X0015755Y0022786D01*
X001575Y002282D01*
X0015745Y002284D01*
X0015738Y0022867D01*
X0015733Y0022887D01*
X0015708Y0023034D01*
X0015703Y0023088D01*
X0015696Y0023233D01*
X0015701Y002338D01*
X0015706Y0023395D01*
X0015713Y0023451D01*
X0015723Y002351D01*
X0015728Y002353D01*
X0015733Y0023559D01*
X0015738Y0023579D01*
X0015745Y0023606D01*
X0015755Y0023645D01*
X0015769Y002368D01*
X0015774Y0023699D01*
X0015858Y0023862D01*
X0015877Y0023891D01*
X0015882Y0023901D01*
X0015892Y0023911D01*
X0015897Y002392D01*
X0015944Y0023982D01*
X0015961Y0023999D01*
X0015966Y0024009D01*
X0016025Y0024068D01*
X001603Y0024078D01*
X0016037Y0024085D01*
X0016047Y002409D01*
X0016062Y0024105D01*
X0016072Y002411D01*
X0016096Y0024134D01*
X0016106Y0024139D01*
X001613Y0024164D01*
X001614Y0024169D01*
X0016187Y00242D01*
X0016194Y0024208D01*
X0016204Y0024213D01*
X0016214Y0024223D01*
X0016248Y0024242D01*
X0016288Y0024267D01*
X001632Y0024279D01*
X0016356Y0024301D01*
X001644Y002434D01*
X0016464Y002435D01*
X0016538Y0024385D01*
X0016563Y0024394D01*
X0016595Y0024407D01*
X0016649Y0024426D01*
X0016676Y0024439D01*
X0016722Y0024456D01*
X0016762Y0024471D01*
X0016801Y002448D01*
X0016833Y0024493D01*
X0016852Y0024498D01*
X0016899Y0024515D01*
X0016921Y0024522D01*
X0016985Y0024547D01*
X0017005Y0024552D01*
X0017054Y0024566D01*
X0017088Y0024576D01*
X001712Y0024589D01*
X0017174Y0024603D01*
X0017201Y0024616D01*
X001725Y002463D01*
X0017282Y0024643D01*
X0017304Y002465D01*
X0017336Y0024662D01*
X0017373Y0024679D01*
X0017417Y0024699D01*
X0017471Y0024724D01*
X0017474Y0024726D01*
X0017516Y0024748D01*
X0017562Y002478D01*
X0017592Y00248D01*
X0017599Y0024807D01*
X0017609Y0024812D01*
X0017624Y0024827D01*
X0017633Y0024832D01*
X0017663Y0024861D01*
X0017673Y0024866D01*
X0017685Y0024878D01*
X001769Y0024888D01*
X0017705Y0024903D01*
X001771Y0024913D01*
X0017729Y0024942D01*
X0017754Y0025006D01*
X0017764Y0025045D01*
X0017769Y0025139D01*
X0017761Y002521D01*
X0017756Y0025239D01*
X0017746Y0025279D01*
X0017734Y0025311D01*
X0017729Y002533D01*
X0017717Y0025362D01*
X0017705Y0025379D01*
X0017658Y0025441D01*
X0017631Y0025468D01*
X0017626Y0025478D01*
X0017619Y0025485D01*
X0017609Y002549D01*
X0017589Y0025509D01*
X0017579Y0025514D01*
X0017506Y0025554D01*
X0017452Y0025578D01*
X0017427Y0025588D01*
X0017408Y0025593D01*
X0017376Y00256D01*
X0017317Y0025615D01*
X0017277Y002562D01*
X0017233Y0025625D01*
X0017204Y002563D01*
X0017059Y0025632D01*
X0017044Y0025627D01*
X001698Y0025622D01*
X0016965Y0025618D01*
X0016909Y002561D01*
X001687Y00256D01*
X0016845Y0025595D01*
X0016806Y0025581D01*
X0016779Y0025573D01*
X0016732Y0025556D01*
X0016661Y0025524D01*
X0016612Y0025505D01*
X0016577Y0025485D01*
X0016548Y0025465D01*
X0016538Y002546D01*
X0016474Y0025426D01*
X0016464Y0025416D01*
X0016455Y0025411D01*
X0016401Y0025377D01*
X0016327Y0025342D01*
X0016293Y0025333D01*
X0016273Y0025328D01*
X0016209Y0025323D01*
X0016162Y002533D01*
X0016143Y0025335D01*
X0016118Y0025345D01*
X0016079Y0025369D01*
X0016072Y0025377D01*
X0016062Y0025382D01*
X0016054Y0025389D01*
X0016049Y0025399D01*
X001602Y0025428D01*
X0016005Y0025453D01*
X0015986Y0025482D01*
X0015932Y0025586D01*
X0015868Y0025708D01*
X0015838Y0025762D01*
X0015814Y0025816D01*
X0015809Y0025826D01*
X0015784Y002587D01*
X0015774Y0025895D01*
X0015779Y002592D01*
X0015821Y0025961D01*
X0015831Y0025966D01*
X001585Y0025986D01*
X001586Y0025991D01*
X0015885Y0026015D01*
X0015895Y002602D01*
X0015914Y002604D01*
X0015939Y0026055D01*
X0016042Y0026128D01*
X0016076Y0026148D01*
X0016116Y0026173D01*
X001615Y0026187D01*
X0016302Y0026261D01*
X0016322Y0026266D01*
X0016376Y002629D01*
X0016403Y0026298D01*
X0016464Y0026325D01*
X0016496Y0026332D01*
X0016523Y002634D01*
X0016553Y0026344D01*
X0016568Y0026349D01*
X0016587Y0026354D01*
X0016622Y0026364D01*
X0016658Y0026372D01*
X0016698Y0026381D01*
X0016757Y0026391D01*
X0016806Y0026401D01*
X0016835Y0026406D01*
X0016904Y0026411D01*
X0016968Y0026416D01*
X0017295Y0026418D01*
X0017309Y0026413D01*
D02*
G37*
G36*
X0010816Y0023501D02*
X001085Y0023496D01*
X0010875Y0023486D01*
X0010907Y0023474D01*
X0010924Y0023456D01*
X0010934Y0023451D01*
X0010961Y0023424D01*
X0010966Y0023415D01*
X0010985Y0023395D01*
X0010998Y0023363D01*
X0011005Y0023341D01*
X001101Y0023321D01*
X0011015Y0023287D01*
X001101Y0023213D01*
X0010971Y002314D01*
X0010941Y002311D01*
X0010936Y002309D01*
X0010941Y0023056D01*
X0010966Y0023002D01*
X0010975Y0022977D01*
X0011005Y0022914D01*
X0011017Y0022882D01*
X001103Y0022855D01*
X0011034Y0022835D01*
X0011074Y0022751D01*
X0011084Y0022727D01*
X0011098Y0022693D01*
X0011103Y0022673D01*
X0011152Y0022565D01*
X0011165Y0022533D01*
X0011182Y0022491D01*
X0011197Y0022457D01*
X0011226Y0022393D01*
X0011241Y0022359D01*
X0011251Y0022334D01*
X0011263Y0022302D01*
X0011287Y0022248D01*
X0011297Y0022223D01*
X00113Y0022221D01*
Y0022216D01*
X0011324Y0022162D01*
X0011329Y0022152D01*
X0011346Y002213D01*
X0011366Y0022125D01*
X00114Y002214D01*
X0011479Y0022145D01*
X0011496Y0022162D01*
X001155Y0022265D01*
X0011614Y0022388D01*
X0011639Y0022432D01*
X0011693Y0022535D01*
X0011761Y0022668D01*
X0011786Y0022707D01*
X0011815Y0022771D01*
X001184Y0022815D01*
X001186Y0022845D01*
X0011865Y0022864D01*
X0011889Y0022904D01*
X0011968Y0023056D01*
X0011992Y00231D01*
X0012012Y0023144D01*
X0012014Y0023157D01*
X0012009Y0023176D01*
X0011997Y0023208D01*
X0011992Y0023228D01*
X0011987Y0023243D01*
X0011982Y0023262D01*
X0011987Y0023321D01*
X0012002Y0023356D01*
X0012014Y0023388D01*
X0012054Y0023437D01*
X0012073Y0023456D01*
X0012083Y0023461D01*
X0012093Y0023471D01*
X0012103Y0023476D01*
X0012137Y0023491D01*
X0012172Y0023501D01*
X0012238Y0023503D01*
X0012262Y0023498D01*
X0012302Y0023488D01*
X0012331Y0023474D01*
X0012348Y0023461D01*
X00124Y002341D01*
X0012405Y00234D01*
X0012429Y0023346D01*
X0012439Y0023311D01*
X0012444Y0023277D01*
X0012439Y0023228D01*
X0012424Y0023194D01*
X0012412Y0023162D01*
X0012405Y0023154D01*
X00124Y0023144D01*
X001239Y002312D01*
X0012397Y0023093D01*
X0012427Y0023044D01*
X0012466Y0022985D01*
X0012508Y0022914D01*
X001254Y0022867D01*
X0012577Y0022806D01*
X0012611Y0022751D01*
X0012616Y0022742D01*
X0012641Y0022707D01*
X0012665Y0022663D01*
X001269Y0022629D01*
X0012695Y0022619D01*
X0012714Y0022584D01*
X0012739Y002255D01*
X0012758Y0022516D01*
X0012778Y0022486D01*
X0012783Y0022476D01*
X0012803Y0022447D01*
X0012822Y0022413D01*
X0012854Y0022366D01*
X0012876Y0022329D01*
X0012881Y0022319D01*
X0012891Y0022309D01*
X0012916Y0022265D01*
X001295Y0022211D01*
X0012955Y0022201D01*
X0012975Y0022172D01*
X001298Y0022162D01*
X0012997Y002214D01*
X0013016Y0022135D01*
X001308Y002214D01*
X0013095Y0022135D01*
X0013115Y002213D01*
X0013147Y0022118D01*
X0013196Y0022088D01*
X0013203Y0022081D01*
X0013213Y0022076D01*
X0013225Y0022064D01*
X001323Y0022054D01*
X001324Y0022044D01*
X0013245Y0022034D01*
X0013264Y002199D01*
X0013274Y0021956D01*
X0013279Y0021892D01*
X0013274Y0021877D01*
X0013262Y0021826D01*
X0013252Y0021801D01*
X0013232Y0021772D01*
X0013198Y0021737D01*
X0013188Y0021732D01*
X0013149Y0021708D01*
X0013124Y0021698D01*
X0013105Y0021693D01*
X001309Y0021688D01*
X001307Y0021683D01*
X0013007Y0021688D01*
X0012982Y0021698D01*
X001295Y002171D01*
X0012908Y0021737D01*
X0012867Y0021779D01*
X0012862Y0021789D01*
X0012837Y0021828D01*
X0012822Y0021887D01*
X0012827Y0021971D01*
X0012837Y0021995D01*
X0012862Y0022049D01*
X0012857Y0022088D01*
X0012842Y0022103D01*
X0012837Y0022113D01*
X0012827Y0022123D01*
X0012798Y0022177D01*
X0012778Y0022206D01*
X0012763Y0022231D01*
X0012739Y0022265D01*
X0012709Y0022319D01*
X0012685Y0022354D01*
X001268Y0022363D01*
X001266Y0022393D01*
X0012641Y0022427D01*
X0012599Y0022489D01*
X001255Y0022572D01*
X0012542Y002258D01*
X0012537Y0022589D01*
X0012528Y0022599D01*
X0012493Y0022663D01*
X0012474Y0022693D01*
X0012459Y0022717D01*
X0012449Y0022727D01*
X0012424Y0022771D01*
X0012405Y0022801D01*
X00124Y002281D01*
X001238Y002284D01*
X0012375Y002285D01*
X0012351Y0022884D01*
X0012346Y0022894D01*
X0012326Y0022928D01*
X0012302Y0022963D01*
X0012297Y0022973D01*
X0012272Y0023007D01*
X0012267Y0023017D01*
X001225Y0023044D01*
X001223Y0023049D01*
X0012167Y0023054D01*
X0012152Y0023058D01*
X001213Y0023041D01*
X0012061Y0022909D01*
X0012041Y0022879D01*
X0012036Y002286D01*
X0012017Y0022825D01*
X0011992Y0022781D01*
X0011973Y0022747D01*
X0011938Y0022683D01*
X0011909Y0022629D01*
X0011845Y0022506D01*
X001182Y0022462D01*
X0011702Y0022236D01*
X0011683Y0022201D01*
X0011634Y0022108D01*
X0011624Y0022083D01*
X0011621Y0022071D01*
X0011626Y0022047D01*
X0011648Y0021995D01*
X0011658Y0021971D01*
X0011663Y0021951D01*
X0011668Y0021916D01*
X0011663Y0021867D01*
X0011653Y0021843D01*
X0011641Y0021811D01*
X0011616Y0021772D01*
X0011587Y0021742D01*
X0011577Y0021737D01*
X0011562Y0021722D01*
X0011553Y0021718D01*
X0011518Y0021703D01*
X0011486Y0021691D01*
X0011467Y0021686D01*
X0011405Y0021683D01*
X0011381Y0021693D01*
X0011334Y002171D01*
X0011292Y0021737D01*
X0011251Y0021779D01*
X0011221Y0021843D01*
X0011206Y0021892D01*
X0011211Y0021961D01*
X0011221Y0021985D01*
X0011226Y002202D01*
X0011211Y0022044D01*
X0011182Y0022113D01*
X0011165Y002216D01*
X0011128Y0022241D01*
X0011118Y0022265D01*
X0011103Y00223D01*
X0011091Y0022332D01*
X0011081Y0022356D01*
X0011054Y0022417D01*
X0011039Y0022452D01*
X0011027Y0022484D01*
X0011015Y0022511D01*
X0011003Y0022543D01*
X001099Y0022565D01*
X0010966Y0022619D01*
X0010961Y0022639D01*
X0010941Y0022683D01*
X0010921Y0022732D01*
X0010897Y0022786D01*
X0010885Y0022818D01*
X0010872Y0022845D01*
X0010863Y0022869D01*
X0010823Y0022958D01*
X0010811Y002299D01*
X0010789Y0023036D01*
X0010781Y0023044D01*
X0010742Y0023054D01*
X0010715Y0023061D01*
X0010676Y0023076D01*
X0010646Y0023095D01*
X0010602Y002314D01*
X0010597Y0023149D01*
X0010578Y0023179D01*
X0010563Y0023238D01*
X0010558Y0023272D01*
X0010565Y0023334D01*
X001057Y0023353D01*
X0010602Y002341D01*
X0010624Y0023437D01*
X0010639Y0023451D01*
X0010649Y0023456D01*
X0010669Y0023476D01*
X0010732Y0023496D01*
X0010752Y0023501D01*
X0010801Y0023505D01*
X0010816Y0023501D01*
D02*
G37*
G36*
X0009382Y0023574D02*
X0009458Y0023567D01*
X0009482Y0023562D01*
X0009502Y0023557D01*
X0009527Y0023552D01*
X0009546Y0023547D01*
X0009554Y002354D01*
X0009573Y0023535D01*
X0009627Y002351D01*
X0009637Y0023505D01*
X0009701Y0023471D01*
X0009721Y0023451D01*
X000973Y0023447D01*
X0009757Y0023424D01*
X0009765Y0023417D01*
X0009775Y0023412D01*
X0009792Y0023395D01*
X0009797Y0023385D01*
X0009841Y0023341D01*
X0009846Y0023331D01*
X0009856Y0023321D01*
X00099Y0023238D01*
X0009924Y0023184D01*
X0009932Y0023152D01*
X0009942Y0023103D01*
X0009949Y0023036D01*
X0009944Y0022889D01*
X0009939Y0022874D01*
X0009934Y0022845D01*
X0009924Y002282D01*
X0009915Y0022776D01*
X000989Y0022742D01*
X0009865Y0022697D01*
X0009831Y0022653D01*
X0009816Y0022639D01*
X0009811Y0022629D01*
X0009784Y0022602D01*
X0009775Y0022597D01*
X0009765Y0022587D01*
X0009755Y0022582D01*
X0009745Y0022572D01*
X0009735Y0022567D01*
X0009701Y0022543D01*
X0009627Y0022508D01*
X0009603Y0022499D01*
X0009568Y0022484D01*
X0009495Y0022454D01*
X000946Y0022444D01*
X0009441Y002244D01*
X0009372Y002242D01*
X0009323Y0022405D01*
X0009291Y0022393D01*
X0009234Y0022366D01*
X000919Y0022341D01*
X0009173Y0022329D01*
X0009168Y0022319D01*
X0009148Y00223D01*
X0009134Y0022265D01*
X0009129Y0022246D01*
X0009134Y0022157D01*
X0009173Y0022083D01*
X000919Y0022066D01*
X00092Y0022061D01*
X000921Y0022052D01*
X0009234Y0022042D01*
X0009283Y0022027D01*
X0009347Y0022022D01*
X000946Y0022027D01*
X0009475Y0022032D01*
X0009502Y0022039D01*
X0009551Y0022059D01*
X0009568Y0022066D01*
X0009598Y0022086D01*
X0009642Y002211D01*
X0009652Y002212D01*
X0009686Y002214D01*
X0009721Y0022165D01*
X000977Y0022179D01*
X0009843Y0022174D01*
X0009878Y0022155D01*
X0009902Y002213D01*
X0009912Y0022125D01*
X0009932Y0022096D01*
X0009961Y0022047D01*
X0009978Y002202D01*
X0009988Y002201D01*
X0010023Y0021946D01*
X0010032Y0021921D01*
X001001Y0021894D01*
X0009946Y0021831D01*
X0009937Y0021826D01*
X0009907Y0021806D01*
X0009905Y0021803D01*
X0009897Y0021796D01*
X0009888Y0021791D01*
X0009878Y0021781D01*
X0009868Y0021776D01*
X0009833Y0021752D01*
X0009802Y002174D01*
X0009779Y0021727D01*
X0009696Y0021688D01*
X0009671Y0021678D01*
X0009644Y0021671D01*
X0009605Y0021661D01*
X0009581Y0021656D01*
X0009551Y0021651D01*
X0009502Y0021641D01*
X0009448Y0021636D01*
X0009293Y0021634D01*
X0009278Y0021639D01*
X0009215Y0021644D01*
X00092Y0021649D01*
X000918Y0021654D01*
X0009141Y0021659D01*
X0009116Y0021668D01*
X000907Y0021686D01*
X0008998Y0021722D01*
X0008989Y0021727D01*
X0008979Y0021737D01*
X0008944Y0021757D01*
X0008935Y0021767D01*
X0008925Y0021772D01*
X0008898Y0021794D01*
X000889Y0021801D01*
X0008881Y0021806D01*
X0008863Y0021823D01*
X0008858Y0021833D01*
X0008829Y0021862D01*
X0008824Y0021872D01*
X0008809Y0021887D01*
X0008804Y0021897D01*
X000878Y0021936D01*
X000876Y0021971D01*
X0008731Y0022039D01*
X0008726Y0022059D01*
X0008716Y0022093D01*
X0008711Y0022113D01*
X0008706Y0022147D01*
X0008701Y0022167D01*
X0008696Y0022231D01*
X0008701Y0022378D01*
X0008706Y0022393D01*
X0008714Y002242D01*
X0008741Y0022496D01*
X0008765Y002254D01*
X0008812Y0022602D01*
X0008861Y0022651D01*
X0008871Y0022656D01*
X000889Y0022675D01*
X00089Y002268D01*
X000891Y002269D01*
X0008944Y002271D01*
X0009018Y0022744D01*
X0009028Y0022749D01*
X0009092Y0022778D01*
X0009116Y0022788D01*
X000918Y0022808D01*
X0009205Y0022818D01*
X0009266Y002284D01*
X000935Y0022869D01*
X0009382Y0022882D01*
X0009445Y0022916D01*
X0009487Y0022948D01*
X0009492Y0022958D01*
X0009512Y0022987D01*
X0009517Y0023022D01*
X0009512Y0023076D01*
X0009502Y00231D01*
X0009482Y0023135D01*
X0009453Y0023154D01*
X0009391Y0023181D01*
X0009357Y0023186D01*
X0009308Y0023191D01*
X0009217Y0023184D01*
X0009197Y0023179D01*
X0009156Y0023162D01*
X0009111Y0023142D01*
X0009102Y0023137D01*
X0009033Y0023098D01*
X0008989Y0023078D01*
X0008969Y0023073D01*
X0008935Y0023068D01*
X000889Y0023078D01*
X0008829Y0023125D01*
X0008765Y0023248D01*
X0008726Y0023331D01*
X0008731Y0023365D01*
X0008738Y0023373D01*
X0008748Y0023378D01*
X0008775Y00234D01*
X0008792Y0023417D01*
X0008802Y0023422D01*
X0008851Y0023456D01*
X0008861Y0023461D01*
X0008876Y0023476D01*
X00089Y0023486D01*
X0008954Y002351D01*
X0009018Y0023535D01*
X0009045Y0023542D01*
X0009067Y002355D01*
X0009087Y0023555D01*
X0009119Y0023562D01*
X0009148Y0023567D01*
X0009193Y0023572D01*
X0009247Y0023577D01*
X0009367Y0023579D01*
X0009382Y0023574D01*
D02*
G37*
G36*
X0006034Y0023513D02*
X0006039Y0023464D01*
X0006034Y0023449D01*
X0006039Y0023439D01*
Y0023434D01*
X0006034Y0021636D01*
X0006027Y0021629D01*
X00056Y0021624D01*
X0005592Y0021632D01*
X0005587Y0021666D01*
X0005592Y0021681D01*
X0005587Y0021695D01*
X0005582Y0022314D01*
X0005575Y0022322D01*
X0005501Y0022327D01*
X0005487Y0022322D01*
X0005455Y0022309D01*
X000544Y0022295D01*
X0005435Y0022285D01*
X000542Y002227D01*
X0005415Y002226D01*
X0005391Y0022226D01*
X0005386Y0022216D01*
X0005371Y0022201D01*
X0005366Y0022192D01*
X0005334Y0022145D01*
X0005285Y0022066D01*
X0005273Y0022049D01*
X0005253Y002202D01*
X0005248Y002201D01*
X0005238Y0022D01*
X0005234Y002199D01*
X0005209Y0021956D01*
X0005204Y0021946D01*
X0005194Y0021936D01*
X0005175Y0021902D01*
X0005165Y0021892D01*
X0005135Y0021838D01*
X0005086Y0021769D01*
X0005081Y0021759D01*
X0005032Y0021686D01*
X0005025Y0021678D01*
X0005015Y0021673D01*
X0005Y0021659D01*
X0004956Y0021639D01*
X0004922Y0021629D01*
X0004799Y0021624D01*
X0004494Y0021629D01*
X0004487Y0021636D01*
X0004492Y0021656D01*
X0004507Y0021671D01*
X0004512Y0021681D01*
X0004536Y0021715D01*
X0004541Y0021725D01*
X0004551Y0021735D01*
X0004556Y0021745D01*
X0004597Y0021806D01*
X0004605Y0021813D01*
X000461Y0021823D01*
X0004634Y0021858D01*
X0004639Y0021867D01*
X0004674Y0021916D01*
X0004679Y0021926D01*
X0004688Y0021936D01*
X0004693Y0021946D01*
X0004718Y002198D01*
X0004737Y0022015D01*
X0004787Y0022083D01*
X0004806Y0022118D01*
X0004826Y0022138D01*
X0004846Y0022172D01*
X000487Y0022206D01*
X0004875Y0022216D01*
X0004907Y0022263D01*
X0004949Y0022329D01*
X0004998Y0022398D01*
X0005008Y0022422D01*
X0004986Y0022449D01*
X0004941Y0022474D01*
X0004931Y0022484D01*
X0004922Y0022489D01*
X0004877Y0022523D01*
X0004816Y0022584D01*
X0004811Y0022594D01*
X0004792Y0022614D01*
X0004787Y0022624D01*
X0004762Y0022663D01*
X0004723Y0022747D01*
X0004713Y0022781D01*
X0004706Y0022808D01*
X0004693Y002285D01*
X0004688Y0022987D01*
X0004693Y0023051D01*
X0004701Y0023098D01*
X0004706Y0023117D01*
X0004713Y002314D01*
X0004718Y0023159D01*
X000473Y0023191D01*
X0004752Y0023233D01*
X0004772Y0023262D01*
X0004777Y0023272D01*
X0004787Y0023282D01*
X0004792Y0023292D01*
X0004814Y0023319D01*
X0004848Y0023353D01*
X0004858Y0023358D01*
X0004877Y0023378D01*
X0004887Y0023383D01*
X0004902Y0023397D01*
X0004912Y0023402D01*
X0004976Y0023437D01*
X000503Y0023461D01*
X0005064Y0023476D01*
X0005091Y0023483D01*
X0005111Y0023488D01*
X0005135Y0023493D01*
X0005162Y0023501D01*
X0005197Y0023505D01*
X0005229Y0023513D01*
X0005327Y0023523D01*
X0006022Y0023525D01*
X0006034Y0023513D01*
D02*
G37*
G36*
X0007206Y0020917D02*
X0007689Y0020919D01*
X0007702Y0020917D01*
X0007704Y0020914D01*
X0007714Y0020905D01*
X0007709Y0020797D01*
X0007702Y0020789D01*
X0007687Y0020784D01*
X0007672Y0020789D01*
X000753Y0020784D01*
X0007522Y0020762D01*
X0007518Y0020168D01*
X0007495Y002016D01*
X0007481Y0020165D01*
X0007368Y002017D01*
X000736Y0020192D01*
X0007355Y0020782D01*
X0007348Y0020789D01*
X0007184Y0020787D01*
X0007174Y0020792D01*
X0007169Y0020811D01*
X0007174Y0020914D01*
X0007191Y0020922D01*
X0007206Y0020917D01*
D02*
G37*
G36*
X001086Y0020912D02*
X001087Y0020902D01*
X001088Y0020897D01*
X0010892Y0020885D01*
X0010897Y0020851D01*
X0010892Y0020811D01*
X001087Y0020789D01*
X0010845Y0020779D01*
X0010826Y0020774D01*
X0010781Y0020779D01*
X0010754Y0020801D01*
X0010735Y0020831D01*
X001074Y002087D01*
X0010767Y0020907D01*
X0010791Y0020917D01*
X0010826D01*
X001086Y0020912D01*
D02*
G37*
G36*
X0010005Y0020701D02*
X0010013Y0020693D01*
X0010018Y0020674D01*
X0010013Y0020173D01*
X0010005Y0020165D01*
X0009878Y002017D01*
X000987Y0020178D01*
X0009868Y0020195D01*
X000987Y0020497D01*
X0009846Y0020541D01*
X0009829Y0020558D01*
X0009819Y0020563D01*
X0009765Y0020588D01*
X0009701Y0020583D01*
X0009691Y0020573D01*
X0009681Y0020568D01*
X0009669Y0020556D01*
Y0020551D01*
X0009654Y0020502D01*
X0009649Y0020173D01*
X0009642Y0020165D01*
X0009514Y002017D01*
X0009507Y0020178D01*
X0009512Y0020546D01*
X0009517Y0020561D01*
X0009529Y0020612D01*
X0009554Y0020652D01*
X0009583Y0020681D01*
X0009608Y0020691D01*
X0009639Y0020703D01*
X0009725Y0020706D01*
X000974Y0020701D01*
X0009787Y0020684D01*
X0009826Y0020659D01*
X0009843Y0020642D01*
X0009863Y0020637D01*
X000987Y0020644D01*
X0009875Y0020664D01*
X000988Y0020698D01*
X0009888Y0020706D01*
X0010005Y0020701D01*
D02*
G37*
G36*
X0005506D02*
X0005563Y0020689D01*
X0005582Y0020684D01*
X0005612Y0020664D01*
X0005629Y0020652D01*
X0005656Y0020625D01*
X0005673Y0020578D01*
X0005676Y0020536D01*
X0005663Y0020524D01*
X0005558Y0020522D01*
X0005543Y0020531D01*
X0005536Y0020563D01*
X0005523Y0020576D01*
X0005518Y0020585D01*
X0005496Y0020598D01*
X0005462Y0020607D01*
X0005398Y0020603D01*
X0005371Y002058D01*
X0005356Y0020566D01*
X0005351Y0020512D01*
X0005364Y0020495D01*
X0005482Y002049D01*
X0005496Y0020485D01*
X0005541Y002048D01*
X0005555Y0020475D01*
X0005595Y002047D01*
X0005658Y0020436D01*
X0005668Y0020426D01*
X0005676Y0020423D01*
X0005681Y0020413D01*
X0005705Y0020359D01*
X00057Y0020261D01*
X0005681Y0020232D01*
X0005676Y0020222D01*
X0005668Y0020215D01*
X0005658Y002021D01*
X0005639Y002019D01*
X000559Y002017D01*
X000557Y0020165D01*
X0005457Y002017D01*
X0005393Y0020205D01*
X0005374Y0020224D01*
X0005359Y0020229D01*
X0005351Y0020222D01*
X0005347Y0020197D01*
X0005351Y0020192D01*
X0005344Y002017D01*
X0005324Y0020165D01*
X0005229Y0020163D01*
X0005214Y0020168D01*
X0005209Y0020188D01*
X0005214Y0020585D01*
X0005243Y0020639D01*
X000527Y0020666D01*
X000528Y0020671D01*
X0005315Y0020686D01*
X0005393Y0020706D01*
X0005491D01*
X0005506Y0020701D01*
D02*
G37*
G36*
X0008507D02*
X000851Y0020679D01*
X000849Y0020634D01*
X0008466Y0020571D01*
X0008461Y0020551D01*
X0008441Y0020507D01*
X0008416Y0020443D01*
X0008412Y0020423D01*
X0008402Y0020413D01*
X0008392Y0020374D01*
X0008387Y0020364D01*
X0008372Y002033D01*
X0008348Y0020266D01*
X0008343Y0020256D01*
Y0020251D01*
X0008328Y0020217D01*
X0008323Y0020197D01*
X0008313Y0020173D01*
X0008318Y0020138D01*
X000834Y0020111D01*
X0008375Y0020097D01*
X0008424Y0020092D01*
X0008443Y0020087D01*
X0008451Y0020065D01*
X0008446Y0019981D01*
X0008424Y0019974D01*
X0008311Y0019979D01*
X0008276Y0019993D01*
X0008242Y0020013D01*
X0008205Y002005D01*
X000819Y0020075D01*
X0008181Y0020099D01*
X0008176Y0020119D01*
X0008156Y0020163D01*
X0008151Y0020183D01*
X0008136Y0020217D01*
X0008132Y0020237D01*
X0008117Y0020271D01*
X0008107Y0020305D01*
X0008087Y002035D01*
X000808Y0020377D01*
X0008068Y0020404D01*
X0008063Y0020423D01*
X0008043Y0020472D01*
X0008038Y0020492D01*
X0008023Y0020526D01*
X0008014Y0020561D01*
X0007994Y0020605D01*
X0007987Y0020632D01*
X0007974Y0020659D01*
X0007969Y0020679D01*
X0007974Y0020703D01*
X00081Y0020706D01*
X0008107Y0020698D01*
X0008117Y0020664D01*
X0008132Y002063D01*
X0008144Y0020578D01*
X0008156Y0020551D01*
X0008161Y0020517D01*
X0008173Y0020485D01*
X0008181Y0020463D01*
X0008188Y0020431D01*
X00082Y0020404D01*
X0008205Y0020384D01*
X000821Y0020355D01*
X0008227Y0020332D01*
X0008245Y002034D01*
X0008259Y0020399D01*
X0008274Y0020433D01*
X0008281Y002046D01*
X0008289Y0020477D01*
X0008299Y0020502D01*
X0008303Y0020531D01*
X0008323Y0020576D01*
X0008328Y00206D01*
X0008343Y0020634D01*
X0008348Y0020654D01*
X0008372Y0020698D01*
X000838Y0020706D01*
X0008507Y0020701D01*
D02*
G37*
G36*
X0004882D02*
X0004907Y0020691D01*
X0004939Y0020684D01*
X0005Y0020647D01*
X0005037Y002061D01*
X0005071Y0020536D01*
X0005079Y0020485D01*
X0005081Y0020379D01*
X0005076Y0020364D01*
X0005071Y002033D01*
X0005059Y0020298D01*
X0005052Y0020291D01*
X0005032Y0020256D01*
X000501Y0020229D01*
X0004995Y0020215D01*
X0004922Y002018D01*
X0004863Y0020165D01*
X0004735Y002017D01*
X000471Y002018D01*
X0004671Y0020195D01*
X0004637Y0020219D01*
X0004627Y0020224D01*
X0004615Y0020242D01*
X00046Y0020256D01*
X0004575Y002031D01*
X000457Y0020345D01*
X0004575Y0020369D01*
X0004583Y0020377D01*
X0004696Y0020372D01*
X0004708Y0020359D01*
X0004713Y002034D01*
X0004723Y0020315D01*
X0004745Y0020293D01*
X0004769Y0020283D01*
X0004806Y0020276D01*
X0004823Y0020273D01*
X0004848Y0020283D01*
X0004877Y0020288D01*
X0004909Y002032D01*
X0004914Y002033D01*
X0004929Y0020364D01*
X0004934Y0020458D01*
X0004929Y0020492D01*
X0004922Y0020519D01*
X0004892Y0020568D01*
X0004882Y0020573D01*
X0004873Y0020583D01*
X0004853Y0020588D01*
X0004804Y0020593D01*
X0004762Y0020585D01*
X0004723Y0020556D01*
X000471Y0020524D01*
X0004696Y0020519D01*
X0004642D01*
X000459Y0020517D01*
X0004575Y0020526D01*
X000457Y0020546D01*
X0004575Y0020561D01*
X0004583Y0020588D01*
X000459Y0020595D01*
X000461Y002063D01*
X0004637Y0020657D01*
X0004671Y0020676D01*
X0004696Y0020686D01*
X0004723Y0020693D01*
X0004747Y0020698D01*
X0004774Y0020706D01*
X0004882Y0020701D01*
D02*
G37*
G36*
X0011931D02*
X0011955Y0020691D01*
X0011987Y0020684D01*
X0012027Y0020659D01*
X0012056Y0020634D01*
X0012071Y002062D01*
X0012076Y002061D01*
X0012086Y00206D01*
X001209Y002059D01*
X00121Y0020566D01*
X0012105Y0020556D01*
X0012115Y0020531D01*
X001212Y0020512D01*
X0012125Y0020418D01*
X0012117Y0020347D01*
X0012113Y0020327D01*
X00121Y00203D01*
X0012081Y0020266D01*
X0012059Y0020239D01*
X0012034Y0020215D01*
X0012024Y002021D01*
X0011995Y002019D01*
X0011975Y0020185D01*
X001195Y0020175D01*
X0011892Y0020165D01*
X0011759Y002017D01*
X0011744Y0020175D01*
X0011695Y0020195D01*
X0011651Y0020229D01*
X0011624Y0020256D01*
X0011619Y0020276D01*
X0011604Y002031D01*
X0011609Y0020335D01*
X0011626Y0020342D01*
X0011641Y0020337D01*
X0011727Y002034D01*
X0011742Y002033D01*
X0011747Y002032D01*
X0011749Y0020318D01*
X0011756Y002031D01*
X0011761Y00203D01*
X0011779Y0020283D01*
X0011806Y0020276D01*
X0011828Y0020269D01*
X0011896Y0020273D01*
X0011931Y0020293D01*
X0011958Y002032D01*
X0011963Y002033D01*
X0011978Y0020364D01*
X0011973Y0020394D01*
X0011965Y0020401D01*
X0011614Y0020399D01*
X0011604Y0020404D01*
X0011599Y0020423D01*
X0011604Y0020507D01*
X0011609Y0020522D01*
X0011619Y0020546D01*
X0011624Y0020566D01*
X0011644Y00206D01*
X0011666Y0020627D01*
X0011673Y0020634D01*
X0011678Y0020644D01*
X0011695Y0020657D01*
X0011744Y0020686D01*
X0011776Y0020693D01*
X0011796Y0020698D01*
X0011823Y0020706D01*
X0011931Y0020701D01*
D02*
G37*
G36*
X0012891Y0020905D02*
X0012886Y0020173D01*
X0012879Y0020165D01*
X0012515Y002017D01*
X0012501Y0020175D01*
X0012461Y0020185D01*
X0012427Y00202D01*
X0012383Y0020224D01*
X0012339Y0020259D01*
X0012312Y0020286D01*
X0012307Y0020296D01*
X0012282Y002033D01*
X0012277Y002035D01*
X0012267Y0020359D01*
X0012257Y0020394D01*
X0012243Y0020448D01*
X0012238Y0020482D01*
X0012243Y0020644D01*
X0012257Y0020679D01*
X0012262Y0020708D01*
X0012297Y0020772D01*
X0012307Y0020782D01*
X0012312Y0020792D01*
X0012319Y0020804D01*
X0012329Y0020809D01*
X0012341Y0020826D01*
X0012358Y0020838D01*
X0012368Y0020848D01*
X0012378Y0020853D01*
X0012407Y0020873D01*
X0012439Y0020885D01*
X0012466Y0020897D01*
X0012501Y0020902D01*
X0012503Y0020905D01*
X0012523Y002091D01*
X0012547Y0020914D01*
X0012879Y0020917D01*
X0012891Y0020905D01*
D02*
G37*
G36*
X0011332Y0020701D02*
X0011346Y0020696D01*
X0011376Y0020691D01*
X00114Y0020681D01*
X0011445Y0020657D01*
X0011462Y0020639D01*
X0011467Y002063D01*
X0011481Y0020605D01*
X0011486Y0020571D01*
X0011481Y0020497D01*
X0011459Y002047D01*
X0011449Y0020455D01*
X001144Y002045D01*
X0011405Y0020426D01*
X0011373Y0020413D01*
X0011332Y0020401D01*
X0011312Y0020396D01*
X0011278Y0020386D01*
X0011238Y0020377D01*
X0011206Y0020364D01*
X0011182Y002035D01*
X0011172Y0020315D01*
X0011177Y0020291D01*
X0011199Y0020269D01*
X0011219Y0020264D01*
X0011317Y0020269D01*
X0011327Y0020278D01*
X0011351Y0020293D01*
X0011376Y0020332D01*
X0011388Y0020335D01*
X0011491Y002033D01*
X0011496Y0020315D01*
X0011491Y0020281D01*
X0011467Y0020237D01*
X0011449Y0020215D01*
X001144Y002021D01*
X001141Y002019D01*
X0011361Y0020175D01*
X0011302Y0020165D01*
X001117Y002017D01*
X0011145Y002018D01*
X0011106Y0020195D01*
X0011061Y0020229D01*
X0011034Y0020266D01*
X001103Y0020305D01*
X0011025Y002032D01*
X001103Y0020379D01*
X0011049Y0020413D01*
X0011071Y002044D01*
X0011081Y002045D01*
X0011091Y0020455D01*
X0011135Y0020475D01*
X001116Y0020485D01*
X0011194Y0020495D01*
X0011214Y0020499D01*
X0011251Y0020507D01*
X0011278Y0020514D01*
X0011297Y0020519D01*
X0011332Y0020539D01*
X0011339Y0020546D01*
X0011344Y0020566D01*
X0011334Y002059D01*
X0011307Y0020603D01*
X0011287Y0020607D01*
X0011224Y0020603D01*
X0011189Y0020578D01*
X0011182Y0020571D01*
X0011172Y0020546D01*
X0011165Y0020539D01*
X0011128Y0020541D01*
X0011066Y0020539D01*
X0011042Y0020553D01*
X0011039Y0020571D01*
X0011059Y0020615D01*
X0011064Y0020625D01*
X0011086Y0020652D01*
X0011096Y0020662D01*
X001115Y0020686D01*
X0011182Y0020698D01*
X0011211Y0020703D01*
X0011258Y0020706D01*
X0011263D01*
X0011332Y0020701D01*
D02*
G37*
G36*
X0009119Y0020905D02*
X0009114Y0020173D01*
X0009107Y0020165D01*
X0008733Y002017D01*
X0008709Y002018D01*
X0008689Y0020185D01*
X0008625Y0020219D01*
X0008588Y0020256D01*
X0008559Y002032D01*
X0008554Y0020409D01*
X0008559Y0020423D01*
X0008564Y0020458D01*
X0008574Y0020467D01*
X0008593Y0020502D01*
X0008625Y0020534D01*
X0008635Y0020539D01*
X0008679Y0020563D01*
X0008687Y002058D01*
X0008674Y0020593D01*
X000865Y0020607D01*
X0008637Y002062D01*
X0008633Y002063D01*
X0008608Y0020684D01*
X0008613Y0020797D01*
X0008623Y0020806D01*
X0008647Y0020851D01*
X0008664Y0020868D01*
X0008704Y0020887D01*
X0008706Y002089D01*
X0008748Y0020902D01*
X0008775Y002091D01*
X00088Y0020914D01*
X0009107Y0020917D01*
X0009119Y0020905D01*
D02*
G37*
G36*
X0006629D02*
X0006633Y0020885D01*
X0006648Y0020851D01*
X000666Y0020799D01*
X0006673Y0020772D01*
X000668Y0020735D01*
X0006692Y0020708D01*
X0006705Y0020657D01*
X0006717Y002063D01*
X0006729Y0020578D01*
X0006741Y0020546D01*
X0006754Y0020495D01*
X0006766Y0020467D01*
X0006773Y0020431D01*
X0006786Y0020404D01*
X0006791Y0020369D01*
X0006796Y002035D01*
X0006803Y0020342D01*
X000682Y0020359D01*
X0006825Y0020379D01*
X0006835Y0020404D01*
X0006842Y0020436D01*
X0006852Y002046D01*
X0006859Y0020487D01*
X0006867Y0020519D01*
X0006879Y0020546D01*
X0006891Y0020598D01*
X0006904Y0020625D01*
X0006909Y0020659D01*
X0006921Y0020691D01*
X0006928Y0020713D01*
X0006933Y0020733D01*
X000694Y002076D01*
X000695Y0020784D01*
X0006955Y0020804D01*
X000696Y0020829D01*
X0006972Y0020856D01*
X0006977Y0020875D01*
X0006985Y0020907D01*
X0006994Y0020917D01*
X000713Y0020919D01*
X0007139Y0020914D01*
X0007144Y0020895D01*
X0007139Y0020865D01*
X000713Y0020841D01*
X000711Y0020787D01*
X00071Y0020762D01*
X0007093Y002073D01*
X0007085Y0020713D01*
X0007076Y0020689D01*
X0007068Y0020657D01*
X0007056Y002063D01*
X0007051Y002061D01*
X0007044Y0020583D01*
X0007031Y0020556D01*
X0007026Y0020536D01*
X0007019Y0020509D01*
X0007007Y0020482D01*
X0006999Y002045D01*
X0006992Y0020433D01*
X0006982Y0020409D01*
X0006975Y0020377D01*
X0006963Y002035D01*
X0006958Y002033D01*
X000695Y0020303D01*
X0006938Y0020276D01*
X0006933Y0020256D01*
X0006926Y0020229D01*
X0006913Y0020202D01*
X0006906Y0020175D01*
X0006896Y0020165D01*
X0006737Y0020163D01*
X0006719Y002017D01*
X0006697Y0020222D01*
X000669Y0020249D01*
X0006678Y0020281D01*
X0006673Y00203D01*
X0006648Y0020364D01*
X0006643Y0020389D01*
X0006629Y0020423D01*
X0006624Y0020443D01*
X0006611Y0020475D01*
X0006604Y0020497D01*
X0006599Y0020517D01*
X0006587Y0020549D01*
X0006579Y0020571D01*
X0006572Y0020598D01*
X000656Y002062D01*
X0006555Y0020639D01*
X0006547Y0020666D01*
X0006535Y0020693D01*
X000653Y0020713D01*
X0006523Y002074D01*
X0006511Y0020767D01*
Y0020772D01*
Y0020777D01*
X0006506Y0020792D01*
X0006486Y0020836D01*
X0006479Y0020868D01*
X0006466Y0020895D01*
X0006471Y0020914D01*
X0006599Y0020919D01*
X0006606Y0020922D01*
X0006629Y0020905D01*
D02*
G37*
G36*
X0010887Y0020703D02*
X0010892Y0020684D01*
Y00203D01*
Y0020296D01*
X0010887Y0020168D01*
X0010865Y002016D01*
X001085Y0020165D01*
X0010769Y0020163D01*
X0010752Y002017D01*
X0010747Y002019D01*
X0010745Y0020192D01*
X001075Y0020207D01*
X0010754Y0020698D01*
X0010762Y0020706D01*
X0010887Y0020703D01*
D02*
G37*
G36*
X0006363Y002091D02*
X0006368Y002089D01*
X0006363Y0020168D01*
X0006341Y002016D01*
X0006326Y0020165D01*
X0005988Y002017D01*
X0005973Y0020175D01*
X0005946Y0020183D01*
X0005892Y0020207D01*
X0005875Y0020219D01*
X000586Y0020234D01*
X000585Y0020239D01*
X0005838Y0020256D01*
X0005828Y0020266D01*
X0005811Y0020313D01*
X0005803Y002034D01*
X0005808Y0020443D01*
X0005838Y0020497D01*
X0005852Y0020512D01*
X0005855Y0020519D01*
X0005865Y0020524D01*
X0005884Y0020544D01*
X0005904Y0020549D01*
X0005931Y0020571D01*
X0005926Y0020585D01*
X0005914Y0020598D01*
X0005904Y0020603D01*
X0005882Y0020625D01*
X0005877Y0020634D01*
X0005857Y0020684D01*
X0005852Y0020703D01*
X0005857Y0020782D01*
X000586Y0020784D01*
X0005862Y0020787D01*
X0005867Y0020806D01*
X0005887Y0020841D01*
X0005914Y0020868D01*
X0005978Y0020897D01*
X0006037Y0020912D01*
X0006086Y0020917D01*
X0006353Y0020919D01*
X0006363Y002091D01*
D02*
G37*
G36*
X0010167Y002077D02*
X0010182Y0020765D01*
X0010222Y002075D01*
X0010249Y0020728D01*
X0010271Y0020696D01*
X001029Y0020691D01*
X0010339Y0020706D01*
X0010457Y0020701D01*
X0010482Y0020691D01*
X0010502Y0020686D01*
X0010556Y0020657D01*
X0010583Y002063D01*
X0010597Y0020605D01*
X0010612Y0020571D01*
X0010607Y0020467D01*
X0010587Y0020438D01*
X0010583Y0020428D01*
X0010553Y0020399D01*
X0010558Y0020379D01*
X0010585Y0020362D01*
X0010607Y002034D01*
X0010612Y002032D01*
X0010607Y0020271D01*
X0010578Y0020242D01*
X0010573Y0020222D01*
X0010595Y00202D01*
X0010605Y0020195D01*
X0010617Y0020178D01*
X0010627Y0020168D01*
X0010637Y0020133D01*
X0010632Y0020075D01*
X0010597Y002003D01*
X001059Y0020023D01*
X0010526Y0019993D01*
X0010487Y0019984D01*
X001044Y0019976D01*
X001033Y0019974D01*
X0010315Y0019979D01*
X0010266Y0019984D01*
X0010241Y0019993D01*
X0010202Y0020008D01*
X0010167Y0020028D01*
X0010121Y0020075D01*
X0010111Y0020109D01*
X0010106Y0020129D01*
X0010111Y0020202D01*
X0010131Y0020237D01*
X001014Y0020246D01*
X0010145Y0020256D01*
X0010197Y0020283D01*
X0010229Y0020291D01*
X0010249Y0020296D01*
X0010278Y00203D01*
X001044Y0020305D01*
X0010479Y002031D01*
X0010497Y0020323D01*
X0010499Y0020345D01*
X0010492Y0020352D01*
X0010472Y0020357D01*
X0010393Y0020352D01*
X0010305Y0020357D01*
X0010261Y0020377D01*
X0010226Y0020396D01*
X0010199Y0020418D01*
X001019Y0020428D01*
X001016Y0020492D01*
X0010165Y002059D01*
X0010175Y00206D01*
X001018Y002061D01*
X0010192Y0020632D01*
X0010195Y0020634D01*
X001019Y0020659D01*
X001017Y0020664D01*
X0010123Y0020671D01*
X0010111Y0020679D01*
X0010106Y0020698D01*
X0010111Y0020767D01*
X0010118Y0020774D01*
X0010167Y002077D01*
D02*
G37*
G36*
X0034592Y0017804D02*
X0034617Y0017802D01*
X003464Y0017797D01*
X0034661Y0017792D01*
X0034669Y0017791D01*
X0034677Y0017789D01*
X0034685Y0017786D01*
X0034691Y0017784D01*
X0034696Y0017782D01*
X00347Y0017781D01*
X0034701Y001778D01*
X0034702D01*
X0034727Y001777D01*
X003475Y0017758D01*
X0034773Y0017745D01*
X0034792Y0017733D01*
X00348Y0017728D01*
X0034809Y0017722D01*
X0034815Y0017718D01*
X0034821Y0017714D01*
X0034825Y001771D01*
X0034829Y0017707D01*
X0034831Y0017706D01*
X0034832Y0017706D01*
Y0017468D01*
X003456D01*
Y0017544D01*
X0034749D01*
Y0017664D01*
X0034738Y0017673D01*
X0034725Y0017682D01*
X0034711Y0017689D01*
X0034698Y0017695D01*
X0034687Y0017701D01*
X0034677Y0017706D01*
X0034673Y0017707D01*
X0034671Y0017708D01*
X0034669Y0017709D01*
X0034668D01*
X0034649Y0017716D01*
X0034629Y0017721D01*
X0034612Y0017725D01*
X0034595Y0017727D01*
X0034581Y0017729D01*
X0034576D01*
X003457Y001773D01*
X0034561D01*
X0034538Y0017729D01*
X0034516Y0017725D01*
X0034495Y001772D01*
X0034477Y0017716D01*
X0034462Y001771D01*
X0034456Y0017708D01*
X0034451Y0017706D01*
X0034446Y0017705D01*
X0034444Y0017703D01*
X0034442Y0017702D01*
X0034441D01*
X0034421Y001769D01*
X0034404Y0017677D01*
X0034389Y0017663D01*
X0034377Y0017649D01*
X0034367Y0017636D01*
X003436Y0017626D01*
X0034358Y0017622D01*
X0034357Y001762D01*
X0034355Y0017618D01*
Y0017617D01*
X0034346Y0017594D01*
X0034338Y001757D01*
X0034334Y0017546D01*
X003433Y0017522D01*
X0034329Y0017512D01*
X0034328Y0017503D01*
X0034327Y0017494D01*
Y0017486D01*
X0034326Y0017481D01*
Y0017476D01*
Y0017473D01*
Y0017473D01*
X0034327Y0017447D01*
X003433Y0017424D01*
X0034334Y0017401D01*
X0034338Y0017382D01*
X003434Y0017374D01*
X0034343Y0017366D01*
X0034345Y001736D01*
X0034346Y0017354D01*
X0034348Y001735D01*
X0034349Y0017347D01*
X003435Y0017345D01*
Y0017344D01*
X0034357Y0017331D01*
X0034363Y0017319D01*
X003437Y0017308D01*
X0034376Y0017299D01*
X0034382Y0017291D01*
X0034386Y0017285D01*
X003439Y0017281D01*
X0034391Y001728D01*
X0034401Y001727D01*
X0034412Y0017261D01*
X0034424Y0017253D01*
X0034435Y0017246D01*
X0034444Y0017241D01*
X0034452Y0017237D01*
X0034457Y0017235D01*
X0034459Y0017234D01*
X0034476Y0017228D01*
X0034493Y0017223D01*
X003451Y001722D01*
X0034526Y0017217D01*
X003454Y0017216D01*
X0034545D01*
X003455Y0017216D01*
X003456D01*
X0034578Y0017216D01*
X0034594Y0017218D01*
X0034609Y0017221D01*
X0034622Y0017224D01*
X0034633Y0017228D01*
X0034641Y001723D01*
X0034646Y0017232D01*
X0034648Y0017233D01*
X0034662Y001724D01*
X0034674Y0017247D01*
X0034685Y0017254D01*
X0034693Y0017262D01*
X00347Y0017268D01*
X0034705Y0017273D01*
X0034708Y0017277D01*
X0034709Y0017277D01*
X0034717Y0017289D01*
X0034724Y0017302D01*
X003473Y0017314D01*
X0034736Y0017326D01*
X0034739Y0017338D01*
X0034742Y0017346D01*
X0034743Y001735D01*
X0034744Y0017352D01*
X0034745Y0017353D01*
Y0017354D01*
X0034822Y0017334D01*
X0034815Y0017311D01*
X0034807Y001729D01*
X0034799Y0017272D01*
X0034791Y0017257D01*
X0034784Y0017245D01*
X0034778Y0017237D01*
X0034775Y0017231D01*
X0034773Y0017229D01*
X003476Y0017215D01*
X0034746Y0017203D01*
X0034731Y0017191D01*
X0034717Y0017182D01*
X0034704Y0017176D01*
X0034694Y001717D01*
X003469Y0017168D01*
X0034688Y0017167D01*
X0034686Y0017167D01*
X0034685D01*
X0034664Y0017159D01*
X0034641Y0017154D01*
X0034621Y0017149D01*
X0034602Y0017146D01*
X0034584Y0017144D01*
X0034577D01*
X0034571Y0017143D01*
X0034542D01*
X0034525Y0017145D01*
X0034493Y001715D01*
X0034478Y0017153D01*
X0034464Y0017156D01*
X0034451Y0017159D01*
X0034439Y0017163D01*
X0034428Y0017167D01*
X0034419Y001717D01*
X003441Y0017174D01*
X0034403Y0017177D01*
X0034397Y0017179D01*
X0034394Y0017181D01*
X0034391Y0017182D01*
X003439Y0017183D01*
X0034377Y0017191D01*
X0034364Y00172D01*
X0034342Y0017219D01*
X0034322Y0017239D01*
X0034307Y0017259D01*
X0034294Y0017277D01*
X0034289Y0017284D01*
X0034285Y0017291D01*
X0034282Y0017297D01*
X003428Y0017301D01*
X0034279Y0017303D01*
X0034278Y0017304D01*
X0034265Y0017335D01*
X0034256Y0017365D01*
X0034248Y0017395D01*
X0034247Y0017409D01*
X0034244Y0017422D01*
X0034243Y0017434D01*
X0034241Y0017444D01*
X003424Y0017454D01*
Y0017462D01*
X0034239Y0017469D01*
Y0017473D01*
Y0017477D01*
Y0017478D01*
X0034241Y0017512D01*
X0034246Y0017545D01*
X0034248Y0017559D01*
X0034251Y0017573D01*
X0034255Y0017587D01*
X0034259Y0017599D01*
X0034262Y001761D01*
X0034266Y001762D01*
X0034269Y0017629D01*
X0034272Y0017635D01*
X0034274Y0017642D01*
X0034276Y0017645D01*
X0034278Y0017648D01*
Y0017649D01*
X0034295Y0017676D01*
X0034313Y0017699D01*
X0034333Y0017719D01*
X0034351Y0017736D01*
X0034369Y0017749D01*
X0034375Y0017754D01*
X0034382Y0017758D01*
X0034387Y0017761D01*
X0034391Y0017764D01*
X0034394Y0017765D01*
X0034395Y0017766D01*
X0034409Y0017773D01*
X0034424Y0017779D01*
X0034454Y0017789D01*
X0034482Y0017795D01*
X0034509Y0017801D01*
X0034521Y0017802D01*
X0034532Y0017804D01*
X0034542Y0017804D01*
X0034551D01*
X0034557Y0017805D01*
X0034566D01*
X0034592Y0017804D01*
D02*
G37*
G36*
X003546Y0017155D02*
X0035378D01*
Y0017657D01*
X0035043Y0017155D01*
X0034956D01*
Y0017794D01*
X0035037D01*
Y0017292D01*
X0035372Y0017794D01*
X003546D01*
Y0017155D01*
D02*
G37*
G36*
X0035853Y0017793D02*
X0035873Y0017792D01*
X003589Y0017791D01*
X0035905Y0017789D01*
X0035918Y0017787D01*
X0035927Y0017786D01*
X003593Y0017785D01*
X0035933Y0017784D01*
X0035935D01*
X0035951Y001778D01*
X0035966Y0017774D01*
X0035979Y0017769D01*
X003599Y0017764D01*
X0036Y0017759D01*
X0036006Y0017755D01*
X003601Y0017753D01*
X0036012Y0017752D01*
X0036024Y0017743D01*
X0036034Y0017733D01*
X0036044Y0017724D01*
X0036052Y0017715D01*
X003606Y0017706D01*
X0036065Y00177D01*
X0036069Y0017695D01*
X003607Y0017694D01*
X0036079Y0017679D01*
X0036088Y0017663D01*
X0036096Y0017648D01*
X0036101Y0017633D01*
X0036107Y001762D01*
X0036111Y001761D01*
X0036111Y0017607D01*
X0036112Y0017604D01*
X0036113Y0017602D01*
Y0017601D01*
X0036119Y0017579D01*
X0036123Y0017557D01*
X0036126Y0017535D01*
X0036129Y0017515D01*
X003613Y0017498D01*
Y001749D01*
X0036131Y0017484D01*
Y0017479D01*
Y0017474D01*
Y0017473D01*
Y0017472D01*
X003613Y001744D01*
X0036127Y0017412D01*
X0036123Y0017386D01*
X0036121Y0017374D01*
X0036118Y0017363D01*
X0036115Y0017353D01*
X0036113Y0017345D01*
X0036111Y0017338D01*
X0036109Y0017331D01*
X0036108Y0017326D01*
X0036106Y0017322D01*
X0036105Y001732D01*
Y0017319D01*
X0036095Y0017295D01*
X0036083Y0017274D01*
X003607Y0017255D01*
X0036058Y001724D01*
X0036047Y0017227D01*
X0036037Y0017217D01*
X0036034Y0017215D01*
X0036031Y0017212D01*
X003603Y0017211D01*
X0036029Y001721D01*
X0036014Y0017198D01*
X0035999Y0017189D01*
X0035983Y001718D01*
X0035968Y0017174D01*
X0035955Y0017169D01*
X0035945Y0017167D01*
X0035941Y0017165D01*
X0035939D01*
X0035937Y0017164D01*
X0035936D01*
X003592Y0017161D01*
X0035902Y0017158D01*
X0035883Y0017156D01*
X0035865Y0017155D01*
X0035848Y0017155D01*
X0035602D01*
Y0017794D01*
X0035832D01*
X0035853Y0017793D01*
D02*
G37*
G36*
X0034889Y0003908D02*
X0034905Y0003906D01*
X003492Y0003903D01*
X0034933Y00039D01*
X0034944Y0003896D01*
X0034952Y0003892D01*
X0034957Y0003891D01*
X0034959Y000389D01*
X0034973Y0003882D01*
X0034985Y0003873D01*
X0034996Y0003865D01*
X0035004Y0003856D01*
X0035011Y0003849D01*
X0035016Y0003843D01*
X0035019Y000384D01*
X003502Y0003838D01*
X0035027Y0003826D01*
X0035034Y0003812D01*
X0035039Y0003799D01*
X0035044Y0003787D01*
X0035047Y0003776D01*
X0035048Y0003768D01*
X003505Y0003761D01*
Y0003759D01*
X0035052Y0003745D01*
X0035054Y000373D01*
X0035055Y0003713D01*
X0035056Y0003697D01*
X0035057Y0003684D01*
Y0003421D01*
X0034417D01*
Y0003506D01*
X0034677D01*
Y000367D01*
X0034678Y0003694D01*
X003468Y0003717D01*
X0034682Y0003737D01*
X0034686Y0003756D01*
X003469Y0003773D01*
X0034694Y0003788D01*
X00347Y0003802D01*
X0034705Y0003814D01*
X003471Y0003824D01*
X0034716Y0003833D01*
X003472Y0003841D01*
X0034725Y0003846D01*
X0034728Y0003851D01*
X003473Y0003854D01*
X0034732Y0003855D01*
X0034733Y0003856D01*
X0034744Y0003866D01*
X0034755Y0003874D01*
X0034766Y000388D01*
X0034778Y0003887D01*
X0034791Y0003892D01*
X0034802Y0003896D01*
X0034823Y0003903D01*
X0034833Y0003904D01*
X0034842Y0003906D01*
X0034851Y0003907D01*
X0034857Y0003908D01*
X0034864Y0003909D01*
X0034867D01*
X003487D01*
X0034871D01*
X0034889Y0003908D01*
D02*
G37*
G36*
X0034493Y0002989D02*
X0034509Y0003D01*
X0034515Y0003006D01*
X0034521Y000301D01*
X0034527Y0003015D01*
X0034531Y0003019D01*
X0034533Y0003022D01*
X0034534Y0003022D01*
X0034539Y0003027D01*
X0034544Y0003033D01*
X0034556Y0003046D01*
X003457Y000306D01*
X0034583Y0003076D01*
X0034595Y0003091D01*
X0034601Y0003097D01*
X0034607Y0003103D01*
X003461Y0003108D01*
X0034613Y0003111D01*
X0034615Y0003113D01*
X0034616Y0003114D01*
X0034629Y0003129D01*
X0034641Y0003144D01*
X0034653Y0003157D01*
X0034663Y0003169D01*
X0034673Y000318D01*
X0034682Y0003189D01*
X0034691Y0003198D01*
X0034698Y0003205D01*
X0034705Y0003213D01*
X0034711Y0003218D01*
X0034716Y0003223D01*
X003472Y0003228D01*
X0034726Y0003232D01*
X0034728Y0003234D01*
X0034743Y0003247D01*
X0034757Y0003258D01*
X0034771Y0003267D01*
X0034782Y0003275D01*
X0034792Y000328D01*
X00348Y0003284D01*
X0034804Y0003286D01*
X0034806Y0003287D01*
X003482Y0003292D01*
X0034834Y0003296D01*
X0034847Y00033D01*
X0034858Y0003302D01*
X0034868Y0003303D01*
X0034876Y0003303D01*
X003488D01*
X0034882D01*
X0034896Y0003303D01*
X0034909Y0003301D01*
X0034922Y0003299D01*
X0034933Y0003295D01*
X0034955Y0003286D01*
X0034973Y0003277D01*
X0034981Y0003271D01*
X0034987Y0003267D01*
X0034994Y0003262D01*
X0034999Y0003257D01*
X0035002Y0003254D01*
X0035006Y0003252D01*
X0035007Y000325D01*
X0035008Y0003249D01*
X0035017Y0003239D01*
X0035025Y0003228D01*
X0035032Y0003216D01*
X0035037Y0003204D01*
X0035047Y000318D01*
X0035053Y0003156D01*
X0035055Y0003145D01*
X0035057Y0003135D01*
X0035058Y0003126D01*
X0035059Y0003119D01*
X003506Y0003112D01*
Y0003103D01*
X0035059Y0003086D01*
X0035058Y0003071D01*
X0035055Y0003056D01*
X0035052Y0003042D01*
X0035048Y0003029D01*
X0035045Y0003017D01*
X003504Y0003006D01*
X0035036Y0002996D01*
X0035031Y0002986D01*
X0035026Y0002979D01*
X0035023Y0002973D01*
X0035019Y0002967D01*
X0035016Y0002962D01*
X0035013Y000296D01*
X0035012Y0002958D01*
X0035011Y0002957D01*
X0035002Y0002948D01*
X0034992Y0002939D01*
X0034981Y0002931D01*
X003497Y0002924D01*
X0034948Y0002913D01*
X0034926Y0002906D01*
X0034915Y0002903D01*
X0034905Y00029D01*
X0034897Y0002899D01*
X0034889Y0002897D01*
X0034883Y0002896D01*
X0034878D01*
X0034876Y0002895D01*
X0034875D01*
X0034866Y0002975D01*
X0034888Y0002977D01*
X0034906Y0002981D01*
X0034923Y0002986D01*
X0034936Y0002993D01*
X0034947Y0002998D01*
X0034954Y0003004D01*
X0034959Y0003008D01*
X0034961Y0003009D01*
X0034972Y0003023D01*
X003498Y0003038D01*
X0034987Y0003054D01*
X003499Y0003068D01*
X0034993Y0003081D01*
X0034994Y0003092D01*
X0034995Y0003095D01*
Y0003101D01*
X0034994Y000312D01*
X003499Y0003138D01*
X0034985Y0003153D01*
X0034979Y0003166D01*
X0034973Y0003176D01*
X0034968Y0003182D01*
X0034964Y0003187D01*
X0034962Y0003189D01*
X003495Y00032D01*
X0034937Y0003208D01*
X0034924Y0003215D01*
X0034911Y0003218D01*
X0034901Y0003221D01*
X0034891Y0003222D01*
X0034886Y0003223D01*
X0034885D01*
X0034884D01*
X0034867Y0003221D01*
X003485Y0003218D01*
X0034834Y0003211D01*
X0034819Y0003205D01*
X0034807Y0003197D01*
X0034797Y0003191D01*
X0034793Y0003189D01*
X0034791Y0003187D01*
X003479Y0003185D01*
X0034789D01*
X0034778Y0003178D01*
X0034768Y0003169D01*
X0034757Y0003158D01*
X0034746Y0003147D01*
X0034724Y0003124D01*
X0034702Y0003101D01*
X0034692Y0003089D01*
X0034682Y0003079D01*
X0034674Y0003069D01*
X0034667Y000306D01*
X0034661Y0003054D01*
X0034656Y0003048D01*
X0034654Y0003045D01*
X0034653Y0003044D01*
X0034633Y0003021D01*
X0034615Y0002999D01*
X0034598Y0002982D01*
X0034584Y0002968D01*
X0034572Y0002956D01*
X0034564Y0002948D01*
X0034558Y0002943D01*
X0034558Y0002941D01*
X0034557D01*
X0034541Y0002928D01*
X0034526Y0002918D01*
X0034511Y0002909D01*
X0034498Y0002901D01*
X0034487Y0002896D01*
X0034479Y0002892D01*
X0034473Y000289D01*
X0034472Y0002889D01*
X0034472D01*
X0034461Y0002886D01*
X0034452Y0002884D01*
X0034443Y0002882D01*
X0034435Y0002881D01*
X0034427Y000288D01*
X0034422D01*
X0034418D01*
X0034417D01*
Y0003304D01*
X0034493D01*
Y0002989D01*
D02*
G37*
G36*
X0035057Y0002761D02*
X0034592Y0002587D01*
X0034572Y000258D01*
X0034554Y0002573D01*
X0034536Y0002568D01*
X0034521Y0002563D01*
X0034507Y0002558D01*
X0034497Y0002556D01*
X0034493Y0002555D01*
X003449Y0002554D01*
X0034488Y0002553D01*
X0034487D01*
X0034524Y0002542D01*
X0034542Y0002536D01*
X0034558Y0002531D01*
X0034571Y0002526D01*
X0034577Y0002524D01*
X0034583Y0002523D01*
X0034586Y0002521D01*
X0034589Y000252D01*
X0034591Y0002519D01*
X0034592D01*
X0035057Y0002353D01*
Y0002261D01*
X0034417Y0002508D01*
Y0002597D01*
X0035057Y0002847D01*
Y0002761D01*
D02*
G37*
G36*
X0033279Y0003792D02*
X0032776D01*
X0033279Y0003456D01*
Y0003369D01*
X0032639D01*
Y0003451D01*
X0033141D01*
X0032639Y0003785D01*
Y0003873D01*
X0033279D01*
Y0003792D01*
D02*
G37*
G36*
X0032715Y0002938D02*
X0032731Y0002949D01*
X0032737Y0002955D01*
X0032743Y000296D01*
X0032749Y0002964D01*
X0032753Y0002968D01*
X0032755Y0002971D01*
X0032756Y0002972D01*
X0032761Y0002976D01*
X0032766Y0002982D01*
X0032778Y0002995D01*
X0032792Y000301D01*
X0032805Y0003025D01*
X0032817Y000304D01*
X0032823Y0003047D01*
X0032829Y0003052D01*
X0032832Y0003057D01*
X0032835Y000306D01*
X0032837Y0003062D01*
X0032838Y0003063D01*
X0032851Y0003078D01*
X0032863Y0003093D01*
X0032875Y0003106D01*
X0032885Y0003118D01*
X0032895Y0003129D01*
X0032904Y0003138D01*
X0032913Y0003147D01*
X003292Y0003155D01*
X0032927Y0003162D01*
X0032933Y0003168D01*
X0032938Y0003172D01*
X0032942Y0003177D01*
X0032948Y0003182D01*
X003295Y0003183D01*
X0032965Y0003196D01*
X0032979Y0003207D01*
X0032993Y0003217D01*
X0033004Y0003224D01*
X0033014Y000323D01*
X0033022Y0003233D01*
X0033026Y0003235D01*
X0033028Y0003236D01*
X0033042Y0003242D01*
X0033056Y0003245D01*
X0033069Y0003249D01*
X003308Y0003251D01*
X003309Y0003252D01*
X0033098Y0003253D01*
X0033102D01*
X0033104D01*
X0033118Y0003252D01*
X0033131Y000325D01*
X0033144Y0003248D01*
X0033155Y0003244D01*
X0033177Y0003235D01*
X0033195Y0003226D01*
X0033203Y000322D01*
X0033209Y0003216D01*
X0033216Y0003211D01*
X0033221Y0003206D01*
X0033224Y0003203D01*
X0033228Y0003201D01*
X0033229Y0003199D01*
X003323Y0003198D01*
X0033239Y0003188D01*
X0033247Y0003177D01*
X0033254Y0003165D01*
X0033259Y0003153D01*
X0033269Y0003129D01*
X0033275Y0003105D01*
X0033277Y0003095D01*
X0033279Y0003084D01*
X003328Y0003075D01*
X0033281Y0003068D01*
X0033282Y0003061D01*
Y0003052D01*
X0033281Y0003035D01*
X003328Y000302D01*
X0033277Y0003005D01*
X0033274Y0002991D01*
X003327Y0002978D01*
X0033267Y0002966D01*
X0033262Y0002955D01*
X0033258Y0002945D01*
X0033253Y0002936D01*
X0033248Y0002928D01*
X0033245Y0002922D01*
X0033241Y0002916D01*
X0033238Y0002912D01*
X0033235Y0002909D01*
X0033234Y0002907D01*
X0033233Y0002906D01*
X0033224Y0002897D01*
X0033214Y0002888D01*
X0033203Y000288D01*
X0033192Y0002874D01*
X003317Y0002863D01*
X0033148Y0002855D01*
X0033137Y0002852D01*
X0033127Y000285D01*
X0033119Y0002848D01*
X0033111Y0002846D01*
X0033105Y0002845D01*
X00331D01*
X0033098Y0002844D01*
X0033097D01*
X0033088Y0002924D01*
X003311Y0002926D01*
X0033128Y000293D01*
X0033145Y0002936D01*
X0033158Y0002942D01*
X0033169Y0002948D01*
X0033176Y0002953D01*
X0033181Y0002957D01*
X0033183Y0002959D01*
X0033194Y0002973D01*
X0033202Y0002987D01*
X0033209Y0003003D01*
X0033212Y0003017D01*
X0033215Y000303D01*
X0033216Y0003041D01*
X0033217Y0003045D01*
Y000305D01*
X0033216Y000307D01*
X0033212Y0003087D01*
X0033207Y0003102D01*
X0033201Y0003115D01*
X0033195Y0003125D01*
X003319Y0003132D01*
X0033186Y0003136D01*
X0033184Y0003138D01*
X0033172Y0003149D01*
X0033159Y0003157D01*
X0033146Y0003164D01*
X0033133Y0003168D01*
X0033123Y000317D01*
X0033113Y0003171D01*
X0033108Y0003172D01*
X0033107D01*
X0033106D01*
X0033089Y000317D01*
X0033072Y0003167D01*
X0033056Y000316D01*
X0033041Y0003154D01*
X0033029Y0003146D01*
X0033019Y000314D01*
X0033015Y0003138D01*
X0033013Y0003136D01*
X0033012Y0003134D01*
X0033011D01*
X0033Y0003127D01*
X003299Y0003118D01*
X0032979Y0003108D01*
X0032968Y0003096D01*
X0032946Y0003073D01*
X0032924Y000305D01*
X0032914Y0003038D01*
X0032904Y0003028D01*
X0032896Y0003018D01*
X0032889Y000301D01*
X0032883Y0003003D01*
X0032878Y0002998D01*
X0032876Y0002994D01*
X0032875Y0002993D01*
X0032855Y000297D01*
X0032837Y0002949D01*
X003282Y0002931D01*
X0032806Y0002917D01*
X0032794Y0002905D01*
X0032786Y0002897D01*
X003278Y0002892D01*
X003278Y000289D01*
X0032779D01*
X0032763Y0002877D01*
X0032748Y0002867D01*
X0032733Y0002858D01*
X003272Y0002851D01*
X0032709Y0002845D01*
X0032701Y0002841D01*
X0032695Y0002839D01*
X0032694Y0002839D01*
X0032694D01*
X0032683Y0002835D01*
X0032674Y0002833D01*
X0032665Y0002831D01*
X0032657Y000283D01*
X0032649Y0002829D01*
X0032644D01*
X003264D01*
X0032639D01*
Y0003254D01*
X0032715D01*
Y0002938D01*
D02*
G37*
G36*
X0033279Y000271D02*
X0032814Y0002536D01*
X0032794Y0002529D01*
X0032776Y0002522D01*
X0032758Y0002517D01*
X0032743Y0002512D01*
X0032729Y0002508D01*
X0032719Y0002505D01*
X0032715Y0002504D01*
X0032712Y0002503D01*
X003271Y0002502D01*
X0032709D01*
X0032746Y0002491D01*
X0032764Y0002485D01*
X003278Y000248D01*
X0032793Y0002475D01*
X0032799Y0002473D01*
X0032805Y0002472D01*
X0032808Y0002471D01*
X0032811Y000247D01*
X0032813Y0002469D01*
X0032814D01*
X0033279Y0002302D01*
Y000221D01*
X0032639Y0002458D01*
Y0002546D01*
X0033279Y0002796D01*
Y000271D01*
D02*
G37*
G36*
X0028677Y0004096D02*
Y0004007D01*
X0028037Y0003757D01*
Y0003843D01*
X0028502Y0004017D01*
X0028521Y0004024D01*
X002854Y0004031D01*
X0028557Y0004036D01*
X0028573Y0004041D01*
X0028587Y0004046D01*
X0028597Y0004048D01*
X0028601Y0004049D01*
X0028604Y000405D01*
X0028605Y0004051D01*
X0028606D01*
X0028569Y0004062D01*
X0028552Y0004068D01*
X0028536Y0004073D01*
X0028522Y0004078D01*
X0028517Y000408D01*
X0028511Y0004081D01*
X0028507Y0004083D01*
X0028505Y0004084D01*
X0028503Y0004085D01*
X0028502D01*
X0028037Y0004251D01*
Y0004343D01*
X0028677Y0004096D01*
D02*
G37*
G36*
X0028265Y0003639D02*
X0028259Y0003625D01*
X0028252Y0003611D01*
X0028246Y0003598D01*
X002824Y0003587D01*
X0028236Y0003578D01*
X0028232Y0003572D01*
X0028231Y0003571D01*
Y000357D01*
X0028221Y0003554D01*
X0028211Y0003539D01*
X0028201Y0003526D01*
X0028193Y0003516D01*
X0028187Y0003507D01*
X0028181Y0003501D01*
X0028177Y0003497D01*
X0028176Y0003496D01*
X0028677D01*
Y0003417D01*
X0028034D01*
Y0003468D01*
X002805Y0003477D01*
X0028065Y0003487D01*
X0028079Y0003499D01*
X0028092Y000351D01*
X0028103Y0003521D01*
X0028113Y000353D01*
X0028115Y0003533D01*
X0028118Y0003536D01*
X0028119Y0003537D01*
X002812Y0003538D01*
X0028136Y0003558D01*
X0028151Y0003577D01*
X0028163Y0003595D01*
X0028174Y0003614D01*
X0028183Y000363D01*
X0028187Y0003636D01*
X0028189Y0003642D01*
X0028192Y0003646D01*
X0028193Y000365D01*
X0028195Y0003652D01*
Y0003653D01*
X0028271D01*
X0028265Y0003639D01*
D02*
G37*
G36*
X0028677Y0003103D02*
X0028175D01*
X0028677Y0002768D01*
Y000268D01*
X0028037D01*
Y0002761D01*
X002854D01*
X0028037Y0003097D01*
Y0003184D01*
X0028677D01*
Y0003103D01*
D02*
G37*
G36*
X0027127Y0004096D02*
Y0004007D01*
X0026487Y0003757D01*
Y0003843D01*
X0026952Y0004017D01*
X0026972Y0004024D01*
X002699Y0004031D01*
X0027008Y0004036D01*
X0027024Y0004041D01*
X0027038Y0004046D01*
X0027048Y0004048D01*
X0027051Y0004049D01*
X0027054Y000405D01*
X0027056Y0004051D01*
X0027057D01*
X002702Y0004062D01*
X0027002Y0004068D01*
X0026987Y0004073D01*
X0026973Y0004078D01*
X0026967Y000408D01*
X0026962Y0004081D01*
X0026958Y0004083D01*
X0026955Y0004084D01*
X0026953Y0004085D01*
X0026952D01*
X0026487Y0004251D01*
Y0004343D01*
X0027127Y0004096D01*
D02*
G37*
G36*
X0026716Y0003639D02*
X0026709Y0003625D01*
X0026703Y0003611D01*
X0026696Y0003598D01*
X0026691Y0003587D01*
X0026686Y0003578D01*
X0026682Y0003572D01*
X0026682Y0003571D01*
Y000357D01*
X0026671Y0003554D01*
X0026661Y0003539D01*
X0026652Y0003526D01*
X0026644Y0003516D01*
X0026637Y0003507D01*
X0026632Y0003501D01*
X0026628Y0003497D01*
X0026627Y0003496D01*
X0027127D01*
Y0003417D01*
X0026485D01*
Y0003468D01*
X00265Y0003477D01*
X0026515Y0003487D01*
X002653Y0003499D01*
X0026543Y000351D01*
X0026554Y0003521D01*
X0026563Y000353D01*
X0026566Y0003533D01*
X0026569Y0003536D01*
X002657Y0003537D01*
X0026571Y0003538D01*
X0026586Y0003558D01*
X0026601Y0003577D01*
X0026614Y0003595D01*
X0026624Y0003614D01*
X0026633Y000363D01*
X0026637Y0003636D01*
X002664Y0003642D01*
X0026643Y0003646D01*
X0026644Y000365D01*
X0026646Y0003652D01*
Y0003653D01*
X0026721D01*
X0026716Y0003639D01*
D02*
G37*
G36*
X0027127Y0003098D02*
X0026867D01*
Y0002934D01*
X0026866Y000291D01*
X0026865Y0002887D01*
X0026862Y0002867D01*
X0026858Y0002848D01*
X0026854Y0002831D01*
X002685Y0002816D01*
X0026844Y0002802D01*
X0026839Y000279D01*
X0026834Y000278D01*
X0026829Y0002771D01*
X0026824Y0002763D01*
X0026819Y0002758D01*
X0026817Y0002753D01*
X0026814Y000275D01*
X0026812Y0002749D01*
X0026811Y0002748D01*
X00268Y0002738D01*
X0026789Y000273D01*
X0026778Y0002724D01*
X0026766Y0002717D01*
X0026754Y0002712D01*
X0026743Y0002708D01*
X0026721Y0002701D01*
X0026711Y00027D01*
X0026702Y0002698D01*
X0026694Y0002697D01*
X0026687Y0002696D01*
X0026681Y0002695D01*
X0026677D01*
X0026674D01*
X0026673D01*
X0026656Y0002696D01*
X0026639Y0002698D01*
X0026624Y0002701D01*
X0026611Y0002704D01*
X00266Y0002708D01*
X0026592Y0002712D01*
X0026587Y0002713D01*
X0026585Y0002714D01*
X0026572Y0002722D01*
X002656Y0002731D01*
X0026548Y0002739D01*
X002654Y0002748D01*
X0026534Y0002755D01*
X0026528Y0002761D01*
X0026525Y0002764D01*
X0026524Y0002766D01*
X0026517Y0002778D01*
X0026511Y0002792D01*
X0026505Y0002805D01*
X00265Y0002817D01*
X0026498Y0002828D01*
X0026496Y0002836D01*
X0026494Y0002843D01*
Y0002845D01*
X0026492Y0002859D01*
X002649Y0002874D01*
X0026489Y0002891D01*
X0026488Y0002907D01*
X0026487Y0002921D01*
Y0003183D01*
X0027127D01*
Y0003098D01*
D02*
G37*
G36*
X0016229Y0011409D02*
X0016216Y001139D01*
X0016204Y0011373D01*
X0016192Y001136D01*
X0016182Y0011347D01*
X0016173Y0011337D01*
X0016165Y001133D01*
X0016161Y0011325D01*
X0016159Y0011324D01*
X0016151Y0011318D01*
X0016143Y0011311D01*
X0016126Y0011301D01*
X0016119Y0011298D01*
X0016113Y0011294D01*
X001611Y0011292D01*
X0016108Y0011291D01*
X0016124Y0011288D01*
X001614Y0011286D01*
X0016154Y0011281D01*
X0016168Y0011277D01*
X001618Y0011273D01*
X0016191Y0011267D01*
X0016201Y0011262D01*
X001621Y0011258D01*
X0016218Y0011252D01*
X0016225Y0011248D01*
X0016231Y0011244D01*
X0016235Y001124D01*
X0016239Y0011238D01*
X0016242Y0011235D01*
X0016243Y0011234D01*
X0016244Y0011233D01*
X0016251Y0011224D01*
X0016259Y0011214D01*
X001627Y0011195D01*
X0016277Y0011176D01*
X0016283Y0011157D01*
X0016286Y0011141D01*
X0016287Y0011135D01*
Y0011128D01*
X0016288Y0011124D01*
Y001112D01*
Y0011118D01*
Y0011117D01*
X0016287Y0011098D01*
X0016284Y001108D01*
X001628Y0011064D01*
X0016275Y001105D01*
X001627Y0011038D01*
X0016266Y0011029D01*
X0016262Y0011023D01*
X0016261Y0011022D01*
Y0011021D01*
X001625Y0011006D01*
X0016239Y0010993D01*
X0016227Y0010982D01*
X0016216Y0010974D01*
X0016206Y0010968D01*
X0016198Y0010964D01*
X0016192Y0010961D01*
X0016191Y001096D01*
X001619D01*
X0016182Y0010957D01*
X0016172Y0010955D01*
X0016151Y001095D01*
X0016129Y0010947D01*
X0016109Y0010944D01*
X0016089Y0010944D01*
X0016081D01*
X0016074Y0010943D01*
X0015777D01*
Y0011582D01*
X0015862D01*
Y0011299D01*
X0015971D01*
X0015981Y0011299D01*
X0015989D01*
X0015995Y00113D01*
X0016Y0011301D01*
X0016003D01*
X0016005Y0011302D01*
X0016006D01*
X0016021Y0011307D01*
X0016027Y001131D01*
X0016033Y0011312D01*
X0016038Y0011315D01*
X0016042Y0011317D01*
X0016044Y0011318D01*
X0016045Y0011319D01*
X0016052Y0011324D01*
X001606Y0011331D01*
X0016074Y0011345D01*
X001608Y0011351D01*
X0016085Y0011357D01*
X0016087Y0011361D01*
X0016088Y0011361D01*
X0016098Y0011374D01*
X0016108Y0011388D01*
X0016118Y0011403D01*
X0016128Y0011417D01*
X0016136Y001143D01*
X0016143Y001144D01*
X0016146Y0011444D01*
X0016148Y0011446D01*
X0016149Y0011448D01*
Y0011449D01*
X0016234Y0011582D01*
X0016339D01*
X0016229Y0011409D01*
D02*
G37*
G36*
X0017106Y0011292D02*
X0017407D01*
Y0011216D01*
X0017106D01*
Y0011018D01*
X0017454D01*
Y0010943D01*
X0017021D01*
Y0011582D01*
X0017106D01*
Y0011292D01*
D02*
G37*
G36*
X00169Y0011507D02*
X0016507D01*
Y0011289D01*
X0016861D01*
Y0011214D01*
X0016507D01*
Y0011018D01*
X0016885D01*
Y0010943D01*
X0016422D01*
Y0011582D01*
X00169D01*
Y0011507D01*
D02*
G37*
G36*
X0015699Y0010943D02*
X0015613D01*
X0015439Y0011408D01*
X0015432Y0011427D01*
X0015425Y0011446D01*
X001542Y0011463D01*
X0015415Y0011479D01*
X0015411Y0011493D01*
X0015408Y0011503D01*
X0015407Y0011507D01*
X0015406Y0011509D01*
X0015405Y0011511D01*
Y0011512D01*
X0015394Y0011475D01*
X0015389Y0011458D01*
X0015383Y0011442D01*
X0015378Y0011428D01*
X0015377Y0011422D01*
X0015376Y0011417D01*
X0015374Y0011413D01*
X0015373Y001141D01*
X0015372Y0011409D01*
Y0011408D01*
X0015205Y0010943D01*
X0015113D01*
X0015361Y0011582D01*
X001545D01*
X0015699Y0010943D01*
D02*
G37*
G36*
X0007142Y0030556D02*
X0007157D01*
X0007172Y0030555D01*
X0007185Y0030553D01*
X0007198Y0030552D01*
X0007209Y0030551D01*
X0007219Y0030549D01*
X0007228Y0030549D01*
X0007237Y0030547D01*
X0007243Y0030546D01*
X0007249Y0030545D01*
X0007253Y0030544D01*
X0007256Y0030543D01*
X0007258Y0030542D01*
X0007259D01*
X0007279Y0030537D01*
X0007298Y003053D01*
X0007313Y0030523D01*
X0007327Y0030517D01*
X0007339Y0030511D01*
X0007348Y0030507D01*
X0007352Y0030503D01*
X0007354Y0030502D01*
X0007368Y0030492D01*
X000738Y0030482D01*
X000739Y0030471D01*
X0007399Y0030461D01*
X0007406Y0030451D01*
X0007411Y0030444D01*
X0007413Y0030439D01*
X0007414Y0030439D01*
Y0030438D01*
X0007422Y0030423D01*
X0007426Y0030407D01*
X000743Y0030392D01*
X0007433Y0030378D01*
X0007435Y0030366D01*
X0007435Y0030356D01*
Y0030348D01*
X0007434Y0030323D01*
X000743Y00303D01*
X0007423Y003028D01*
X0007417Y0030264D01*
X000741Y003025D01*
X0007407Y0030244D01*
X0007403Y003024D01*
X0007401Y0030236D01*
X0007399Y0030233D01*
X0007398Y0030232D01*
Y0030231D01*
X0007383Y0030215D01*
X0007365Y0030201D01*
X0007348Y0030189D01*
X0007331Y003018D01*
X0007315Y0030172D01*
X0007309Y0030169D01*
X0007302Y0030167D01*
X0007298Y0030165D01*
X0007294Y0030163D01*
X0007292Y0030162D01*
X0007291D01*
X0007277Y0030158D01*
X0007264Y0030155D01*
X0007233Y0030149D01*
X0007202Y0030145D01*
X0007174Y0030142D01*
X000716Y0030141D01*
X0007148Y003014D01*
X0007137D01*
X0007127Y0030139D01*
X0007119D01*
X0007113D01*
X0007109D01*
X0007108D01*
X0007076Y003014D01*
X0007045Y0030142D01*
X0007018Y0030145D01*
X0006992Y0030149D01*
X0006968Y0030154D01*
X0006946Y0030159D01*
X0006927Y0030165D01*
X000691Y003017D01*
X0006896Y0030176D01*
X0006883Y0030182D01*
X0006871Y0030187D01*
X0006863Y0030192D01*
X0006856Y0030196D01*
X0006851Y0030199D01*
X0006848Y0030201D01*
X0006847Y0030202D01*
X0006836Y0030212D01*
X0006826Y0030223D01*
X0006817Y0030235D01*
X000681Y0030247D01*
X0006803Y0030259D01*
X0006798Y0030271D01*
X0006794Y0030283D01*
X000679Y0030294D01*
X0006787Y0030305D01*
X0006786Y0030316D01*
X0006784Y0030325D01*
X0006783Y0030332D01*
X0006782Y0030339D01*
Y0030348D01*
X0006784Y0030373D01*
X0006787Y0030396D01*
X0006794Y0030415D01*
X00068Y0030432D01*
X0006807Y0030446D01*
X000681Y0030451D01*
X0006813Y0030455D01*
X0006815Y0030459D01*
X0006817Y0030462D01*
X0006819Y0030463D01*
Y0030464D01*
X0006834Y003048D01*
X0006851Y0030494D01*
X000687Y0030506D01*
X0006886Y0030515D01*
X0006902Y0030523D01*
X0006908Y0030526D01*
X0006915Y0030528D01*
X000692Y003053D01*
X0006923Y0030532D01*
X0006925Y0030533D01*
X0006926D01*
X000694Y0030537D01*
X0006954Y0030541D01*
X0006983Y0030547D01*
X0007014Y0030551D01*
X0007043Y0030554D01*
X0007056Y0030555D01*
X0007068Y0030556D01*
X000708D01*
X000709Y0030557D01*
X0007097D01*
X0007104D01*
X0007107D01*
X0007108D01*
X0007126D01*
X0007142Y0030556D01*
D02*
G37*
G36*
X0007129Y0029856D02*
X0007433Y0030078D01*
Y0029986D01*
X0007263Y0029858D01*
X0007249Y0029847D01*
X0007236Y0029838D01*
X0007223Y0029828D01*
X0007213Y0029821D01*
X0007203Y0029814D01*
X0007196Y002981D01*
X0007192Y0029807D01*
X000719Y0029806D01*
X0007202Y00298D01*
X0007214Y0029792D01*
X0007227Y0029784D01*
X0007239Y0029776D01*
X0007251Y0029767D01*
X000726Y0029762D01*
X0007264Y0029759D01*
X0007266Y0029757D01*
X0007267Y0029755D01*
X0007268D01*
X0007433Y0029639D01*
Y0029538D01*
X0007124Y0029756D01*
X0006793Y0029509D01*
Y0029611D01*
X0007015Y0029773D01*
X000702Y0029777D01*
X0007027Y0029781D01*
X0007042Y0029791D01*
X0007049Y0029796D01*
X0007055Y00298D01*
X0007058Y0029802D01*
X0007059Y0029803D01*
X0007045Y0029813D01*
X0007032Y0029821D01*
X0007028Y0029825D01*
X0007024Y0029826D01*
X0007021Y0029828D01*
X000702Y0029829D01*
X0006793Y0029991D01*
Y0030096D01*
X0007129Y0029856D01*
D02*
G37*
G36*
X0006967Y0029383D02*
X0006985Y002937D01*
X0007002Y0029358D01*
X0007016Y0029346D01*
X0007029Y0029336D01*
X0007038Y0029326D01*
X0007045Y0029319D01*
X000705Y0029314D01*
X0007052Y0029312D01*
X0007057Y0029305D01*
X0007064Y0029297D01*
X0007074Y002928D01*
X0007078Y0029273D01*
X0007081Y0029267D01*
X0007083Y0029263D01*
X0007084Y0029262D01*
X0007087Y0029278D01*
X000709Y0029294D01*
X0007094Y0029308D01*
X0007098Y0029322D01*
X0007103Y0029334D01*
X0007108Y0029345D01*
X0007113Y0029355D01*
X0007117Y0029364D01*
X0007123Y0029372D01*
X0007128Y0029379D01*
X0007131Y0029385D01*
X0007135Y0029389D01*
X0007138Y0029393D01*
X0007141Y0029396D01*
X0007141Y0029397D01*
X0007142Y0029397D01*
X0007152Y0029405D01*
X0007161Y0029412D01*
X000718Y0029423D01*
X00072Y0029431D01*
X0007218Y0029436D01*
X0007234Y002944D01*
X000724Y0029441D01*
X0007247D01*
X0007251Y0029442D01*
X0007255D01*
X0007257D01*
X0007258D01*
X0007277Y0029441D01*
X0007295Y0029438D01*
X0007312Y0029434D01*
X0007325Y0029429D01*
X0007337Y0029423D01*
X0007347Y002942D01*
X0007352Y0029416D01*
X0007353Y0029415D01*
X0007354D01*
X0007369Y0029404D01*
X0007382Y0029393D01*
X0007393Y0029381D01*
X0007401Y002937D01*
X0007408Y002936D01*
X0007411Y0029351D01*
X0007414Y0029346D01*
X0007415Y0029345D01*
Y0029344D01*
X0007418Y0029336D01*
X0007421Y0029325D01*
X0007425Y0029305D01*
X0007428Y0029283D01*
X0007431Y0029263D01*
X0007432Y0029243D01*
Y0029235D01*
X0007433Y0029227D01*
Y0028931D01*
X0006793D01*
Y0029016D01*
X0007077D01*
Y0029125D01*
X0007076Y0029135D01*
Y0029142D01*
X0007075Y0029149D01*
X0007074Y0029153D01*
Y0029157D01*
X0007073Y0029159D01*
Y002916D01*
X0007068Y0029175D01*
X0007066Y0029181D01*
X0007063Y0029187D01*
X000706Y0029192D01*
X0007058Y0029196D01*
X0007057Y0029198D01*
X0007056Y0029199D01*
X0007051Y0029206D01*
X0007044Y0029214D01*
X0007031Y0029227D01*
X0007024Y0029234D01*
X0007018Y0029238D01*
X0007015Y0029241D01*
X0007014Y0029242D01*
X0007001Y0029251D01*
X0006987Y0029262D01*
X0006972Y0029272D01*
X0006958Y0029282D01*
X0006945Y002929D01*
X0006935Y0029297D01*
X0006932Y0029299D01*
X0006929Y0029301D01*
X0006927Y0029303D01*
X0006926D01*
X0006793Y0029387D01*
Y0029493D01*
X0006967Y0029383D01*
D02*
G37*
G36*
X0005847Y0030557D02*
X0005862D01*
X0005877Y0030556D01*
X000589Y0030554D01*
X0005902Y0030553D01*
X0005914Y0030552D01*
X0005924Y003055D01*
X0005933Y0030549D01*
X0005941Y0030548D01*
X0005948Y0030547D01*
X0005953Y0030546D01*
X0005958Y0030545D01*
X0005961Y0030544D01*
X0005963Y0030543D01*
X0005963D01*
X0005984Y0030537D01*
X0006002Y0030531D01*
X0006018Y0030524D01*
X0006032Y0030518D01*
X0006044Y0030512D01*
X0006052Y0030508D01*
X0006057Y0030504D01*
X0006059Y0030503D01*
X0006073Y0030493D01*
X0006085Y0030483D01*
X0006095Y0030472D01*
X0006104Y0030462D01*
X000611Y0030452D01*
X0006115Y0030445D01*
X0006118Y003044D01*
X0006119Y0030439D01*
Y0030439D01*
X0006126Y0030424D01*
X0006131Y0030408D01*
X0006135Y0030393D01*
X0006137Y0030379D01*
X0006139Y0030367D01*
X000614Y0030357D01*
Y0030349D01*
X0006138Y0030324D01*
X0006135Y0030301D01*
X0006128Y0030281D01*
X0006122Y0030265D01*
X0006114Y0030251D01*
X0006111Y0030245D01*
X0006108Y0030241D01*
X0006106Y0030237D01*
X0006104Y0030234D01*
X0006102Y0030233D01*
Y0030232D01*
X0006087Y0030216D01*
X000607Y0030202D01*
X0006052Y003019D01*
X0006036Y0030181D01*
X000602Y0030173D01*
X0006013Y0030169D01*
X0006007Y0030168D01*
X0006002Y0030166D01*
X0005999Y0030164D01*
X0005997Y0030163D01*
X0005996D01*
X0005982Y0030159D01*
X0005968Y0030156D01*
X0005938Y003015D01*
X0005907Y0030145D01*
X0005878Y0030143D01*
X0005865Y0030142D01*
X0005853Y0030141D01*
X0005841D01*
X0005831Y003014D01*
X0005824D01*
X0005817D01*
X0005814D01*
X0005813D01*
X000578Y0030141D01*
X000575Y0030143D01*
X0005722Y0030145D01*
X0005696Y003015D01*
X0005672Y0030155D01*
X0005651Y003016D01*
X0005632Y0030166D01*
X0005615Y0030171D01*
X00056Y0030177D01*
X0005587Y0030183D01*
X0005576Y0030188D01*
X0005568Y0030193D01*
X000556Y0030197D01*
X0005556Y00302D01*
X0005553Y0030202D01*
X0005552Y0030203D01*
X0005541Y0030213D01*
X0005531Y0030224D01*
X0005522Y0030236D01*
X0005514Y0030248D01*
X0005508Y003026D01*
X0005502Y0030272D01*
X0005498Y0030284D01*
X0005495Y0030295D01*
X0005492Y0030306D01*
X000549Y0030316D01*
X0005488Y0030326D01*
X0005487Y0030333D01*
X0005486Y003034D01*
Y0030349D01*
X0005488Y0030374D01*
X0005492Y0030397D01*
X0005498Y0030416D01*
X0005505Y0030433D01*
X0005511Y0030447D01*
X0005515Y0030451D01*
X0005518Y0030456D01*
X000552Y003046D01*
X0005522Y0030463D01*
X0005523Y0030463D01*
Y0030464D01*
X0005539Y0030481D01*
X0005556Y0030495D01*
X0005574Y0030507D01*
X0005591Y0030516D01*
X0005607Y0030524D01*
X0005613Y0030527D01*
X000562Y0030529D01*
X0005624Y0030531D01*
X0005628Y0030533D01*
X000563Y0030534D01*
X0005631D01*
X0005644Y0030538D01*
X0005658Y0030542D01*
X0005688Y0030548D01*
X0005718Y0030552D01*
X0005748Y0030555D01*
X0005761Y0030556D01*
X0005773Y0030557D01*
X0005784D01*
X0005794Y0030558D01*
X0005802D01*
X0005808D01*
X0005812D01*
X0005813D01*
X000583D01*
X0005847Y0030557D01*
D02*
G37*
G36*
X0005833Y0029857D02*
X0006137Y0030079D01*
Y0029986D01*
X0005967Y0029859D01*
X0005953Y0029848D01*
X000594Y0029838D01*
X0005927Y0029829D01*
X0005917Y0029822D01*
X0005908Y0029815D01*
X0005901Y0029811D01*
X0005897Y0029808D01*
X0005895Y0029807D01*
X0005906Y0029801D01*
X0005918Y0029793D01*
X0005931Y0029785D01*
X0005944Y0029777D01*
X0005955Y0029768D01*
X0005964Y0029763D01*
X0005968Y002976D01*
X0005971Y0029758D01*
X0005972Y0029756D01*
X0005973D01*
X0006137Y002964D01*
Y0029539D01*
X0005828Y0029757D01*
X0005497Y002951D01*
Y0029612D01*
X0005719Y0029774D01*
X0005725Y0029777D01*
X0005731Y0029782D01*
X0005746Y0029792D01*
X0005754Y0029797D01*
X0005759Y0029801D01*
X0005763Y0029803D01*
X0005764Y0029804D01*
X000575Y0029813D01*
X0005737Y0029822D01*
X0005732Y0029826D01*
X0005729Y0029827D01*
X0005726Y0029829D01*
X0005725Y002983D01*
X0005497Y0029992D01*
Y0030096D01*
X0005833Y0029857D01*
D02*
G37*
G36*
X0006137Y0028981D02*
X0006061D01*
Y0029192D01*
X0005497D01*
Y0029277D01*
X0006061D01*
Y0029488D01*
X0006137D01*
Y0028981D01*
D02*
G37*
G36*
X0004918Y001699D02*
X0004842D01*
Y0017201D01*
X0004278D01*
Y0017286D01*
X0004842D01*
Y0017497D01*
X0004918D01*
Y001699D01*
D02*
G37*
G36*
X0004354Y0016528D02*
X0004571D01*
Y0016882D01*
X0004647D01*
Y0016528D01*
X0004842D01*
Y0016906D01*
X0004918D01*
Y0016443D01*
X0004278D01*
Y0016921D01*
X0004354D01*
Y0016528D01*
D02*
G37*
G36*
X0004476Y0016325D02*
X0004494Y0016322D01*
X0004509Y0016317D01*
X0004522Y0016313D01*
X0004533Y0016307D01*
X0004542Y0016303D01*
X0004546Y00163D01*
X0004548Y0016299D01*
X0004562Y0016288D01*
X0004575Y0016275D01*
X0004586Y0016261D01*
X0004596Y0016247D01*
X0004604Y0016235D01*
X0004609Y0016225D01*
X0004611Y0016221D01*
X0004613Y0016218D01*
X0004614Y0016217D01*
Y0016216D01*
X0004618Y0016208D01*
X000462Y0016199D01*
X0004624Y0016189D01*
X0004628Y0016178D01*
X0004634Y0016155D01*
X0004641Y0016131D01*
X0004643Y0016119D01*
X0004646Y0016109D01*
X0004649Y0016099D01*
X0004651Y0016091D01*
X0004653Y0016084D01*
X0004654Y0016079D01*
X0004655Y0016075D01*
Y0016074D01*
X0004659Y0016056D01*
X0004663Y0016039D01*
X0004668Y0016024D01*
X0004671Y0016011D01*
X0004676Y0015999D01*
X000468Y0015989D01*
X0004683Y001598D01*
X0004686Y0015972D01*
X000469Y0015965D01*
X0004693Y0015959D01*
X0004694Y0015956D01*
X0004697Y0015952D01*
X00047Y0015947D01*
X0004701Y0015947D01*
X000471Y0015938D01*
X0004719Y0015933D01*
X0004729Y0015928D01*
X0004738Y0015925D01*
X0004745Y0015923D01*
X0004752Y0015922D01*
X0004755D01*
X0004757D01*
X0004772Y0015924D01*
X0004785Y0015928D01*
X0004796Y0015934D01*
X0004806Y001594D01*
X0004814Y0015946D01*
X000482Y0015951D01*
X0004824Y0015955D01*
X0004825Y0015957D01*
X0004829Y0015964D01*
X0004834Y0015972D01*
X0004841Y0015989D01*
X0004846Y0016008D01*
X000485Y0016026D01*
X0004852Y0016043D01*
X0004852Y001605D01*
X0004853Y0016056D01*
Y0016069D01*
X0004852Y0016094D01*
X0004849Y0016118D01*
X0004843Y0016136D01*
X0004838Y0016152D01*
X0004832Y0016164D01*
X0004827Y0016173D01*
X0004823Y0016178D01*
X0004822Y001618D01*
X0004809Y0016192D01*
X0004795Y0016203D01*
X000478Y0016211D01*
X0004766Y0016217D01*
X0004752Y001622D01*
X0004741Y0016223D01*
X0004737Y0016224D01*
X0004734Y0016225D01*
X0004732D01*
X0004731D01*
X0004738Y0016306D01*
X0004758Y0016304D01*
X0004777Y00163D01*
X0004794Y0016295D01*
X0004809Y0016289D01*
X0004821Y0016283D01*
X000483Y0016278D01*
X0004833Y0016277D01*
X0004836Y0016275D01*
X0004837Y0016274D01*
X0004838D01*
X0004853Y0016262D01*
X0004867Y0016249D01*
X0004879Y0016235D01*
X0004889Y0016221D01*
X0004897Y0016209D01*
X0004901Y00162D01*
X0004903Y0016196D01*
X0004905Y0016193D01*
X0004906Y0016192D01*
Y0016191D01*
X0004913Y001617D01*
X0004919Y0016148D01*
X0004924Y0016128D01*
X0004926Y0016108D01*
X0004928Y0016091D01*
Y0016084D01*
X0004929Y0016078D01*
Y0016066D01*
X0004928Y0016042D01*
X0004925Y0016021D01*
X0004922Y0016D01*
X0004918Y0015983D01*
X0004914Y0015969D01*
X0004913Y0015962D01*
X0004911Y0015958D01*
X0004909Y0015954D01*
X0004908Y0015951D01*
X0004907Y0015949D01*
Y0015948D01*
X0004898Y001593D01*
X0004888Y0015913D01*
X0004876Y0015899D01*
X0004866Y0015888D01*
X0004857Y001588D01*
X000485Y0015873D01*
X0004844Y0015869D01*
X0004843Y0015868D01*
X0004842D01*
X0004827Y0015859D01*
X0004811Y0015852D01*
X0004795Y0015848D01*
X0004781Y0015845D01*
X0004769Y0015843D01*
X000476Y0015841D01*
X0004756D01*
X0004754D01*
X0004753D01*
X0004752D01*
X0004736Y0015842D01*
X0004721Y0015845D01*
X0004707Y0015849D01*
X0004695Y0015852D01*
X0004686Y0015856D01*
X0004679Y001586D01*
X0004674Y0015862D01*
X0004672Y0015863D01*
X0004659Y0015873D01*
X0004647Y0015884D01*
X0004637Y0015895D01*
X0004629Y0015906D01*
X0004621Y0015915D01*
X0004617Y0015923D01*
X0004613Y0015929D01*
X0004612Y001593D01*
Y0015931D01*
X0004608Y0015938D01*
X0004605Y0015947D01*
X0004598Y0015965D01*
X0004592Y0015986D01*
X0004585Y0016007D01*
X000458Y0016025D01*
X0004578Y0016033D01*
X0004576Y0016041D01*
X0004574Y0016046D01*
X0004573Y0016051D01*
X0004572Y0016054D01*
Y0016055D01*
X0004569Y001607D01*
X0004565Y0016085D01*
X0004561Y0016098D01*
X0004558Y0016109D01*
X0004556Y001612D01*
X0004553Y001613D01*
X0004551Y0016138D01*
X0004548Y0016144D01*
X0004546Y0016151D01*
X0004545Y0016155D01*
X0004543Y0016163D01*
X0004542Y0016168D01*
X0004541Y0016168D01*
X0004535Y0016182D01*
X0004529Y0016194D01*
X0004522Y0016204D01*
X0004517Y0016212D01*
X0004511Y0016218D01*
X0004508Y0016222D01*
X0004505Y0016225D01*
X0004504Y0016226D01*
X0004496Y0016232D01*
X0004486Y0016237D01*
X0004477Y001624D01*
X000447Y0016242D01*
X0004462Y0016243D01*
X0004457Y0016244D01*
X0004452D01*
X0004451D01*
X000444Y0016243D01*
X000443Y0016241D01*
X0004421Y0016239D01*
X0004413Y0016235D01*
X0004406Y0016231D01*
X0004401Y0016229D01*
X0004398Y0016227D01*
X0004397Y0016226D01*
X0004387Y0016218D01*
X000438Y0016209D01*
X0004374Y00162D01*
X0004367Y0016192D01*
X0004363Y0016183D01*
X000436Y0016177D01*
X0004358Y0016172D01*
X0004357Y001617D01*
X0004352Y0016156D01*
X0004349Y0016142D01*
X0004347Y0016127D01*
X0004345Y0016114D01*
X0004344Y0016103D01*
X0004343Y0016094D01*
Y0016085D01*
X0004344Y0016065D01*
X0004346Y0016046D01*
X0004349Y001603D01*
X0004352Y0016015D01*
X0004356Y0016003D01*
X0004359Y0015994D01*
X000436Y0015991D01*
X0004361Y0015988D01*
X0004362Y0015987D01*
Y0015986D01*
X0004369Y0015972D01*
X0004377Y0015958D01*
X0004386Y0015947D01*
X0004394Y0015938D01*
X00044Y0015931D01*
X0004407Y0015926D01*
X0004411Y0015923D01*
X0004411Y0015922D01*
X0004423Y0015916D01*
X0004436Y001591D01*
X000445Y0015906D01*
X0004462Y0015902D01*
X0004474Y0015899D01*
X0004483Y0015898D01*
X0004486D01*
X0004489Y0015897D01*
X000449D01*
X0004491D01*
X0004484Y0015817D01*
X000446Y0015819D01*
X0004438Y0015823D01*
X0004419Y0015828D01*
X0004401Y0015835D01*
X0004387Y0015841D01*
X0004382Y0015844D01*
X0004377Y0015846D01*
X0004374Y0015849D01*
X0004371Y0015849D01*
X0004369Y0015851D01*
X0004368D01*
X000435Y0015865D01*
X0004335Y001588D01*
X0004322Y0015896D01*
X0004311Y001591D01*
X0004302Y0015923D01*
X0004297Y0015935D01*
X0004295Y0015938D01*
X0004293Y0015941D01*
X0004292Y0015943D01*
Y0015944D01*
X0004284Y0015967D01*
X0004277Y0015991D01*
X0004274Y0016015D01*
X000427Y0016038D01*
X0004269Y0016049D01*
X0004268Y0016058D01*
Y0016067D01*
X0004267Y0016074D01*
Y0016089D01*
X0004268Y0016114D01*
X0004271Y0016137D01*
X0004276Y0016158D01*
X000428Y0016176D01*
X0004284Y0016191D01*
X0004287Y0016197D01*
X0004288Y0016203D01*
X000429Y0016206D01*
X0004291Y0016209D01*
X0004292Y0016211D01*
Y0016212D01*
X0004302Y0016231D01*
X0004313Y0016248D01*
X0004325Y0016263D01*
X0004337Y0016275D01*
X0004346Y0016284D01*
X0004354Y001629D01*
X000436Y0016295D01*
X0004361Y0016296D01*
X0004362D01*
X0004379Y0016306D01*
X0004396Y0016314D01*
X0004411Y0016318D01*
X0004426Y0016322D01*
X0004439Y0016324D01*
X0004449Y0016326D01*
X0004453D01*
X0004456D01*
X0004457D01*
X0004458D01*
X0004476Y0016325D01*
D02*
G37*
G36*
X0004354Y0015335D02*
X0004571D01*
Y001569D01*
X0004647D01*
Y0015335D01*
X0004842D01*
Y0015714D01*
X0004918D01*
Y001525D01*
X0004278D01*
Y0015728D01*
X0004354D01*
Y0015335D01*
D02*
G37*
G36*
X0004452Y0015057D02*
X0004471Y0015044D01*
X0004487Y0015032D01*
X0004501Y001502D01*
X0004514Y001501D01*
X0004523Y0015001D01*
X0004531Y0014993D01*
X0004535Y0014989D01*
X0004537Y0014987D01*
X0004543Y0014979D01*
X0004549Y0014971D01*
X0004559Y0014954D01*
X0004563Y0014947D01*
X0004567Y0014942D01*
X0004569Y0014938D01*
X000457Y0014936D01*
X0004572Y0014953D01*
X0004575Y0014968D01*
X000458Y0014982D01*
X0004583Y0014996D01*
X0004588Y0015008D01*
X0004594Y0015019D01*
X0004598Y0015029D01*
X0004603Y0015039D01*
X0004608Y0015046D01*
X0004613Y0015053D01*
X0004617Y0015059D01*
X000462Y0015064D01*
X0004623Y0015067D01*
X0004626Y001507D01*
X0004627Y0015071D01*
X0004628Y0015072D01*
X0004637Y0015079D01*
X0004646Y0015087D01*
X0004666Y0015098D01*
X0004685Y0015105D01*
X0004704Y0015111D01*
X0004719Y0015114D01*
X0004726Y0015115D01*
X0004732D01*
X0004737Y0015116D01*
X0004741D01*
X0004742D01*
X0004743D01*
X0004763Y0015115D01*
X000478Y0015113D01*
X0004797Y0015108D01*
X0004811Y0015103D01*
X0004823Y0015098D01*
X0004832Y0015094D01*
X0004838Y001509D01*
X0004839Y0015089D01*
X0004839D01*
X0004854Y0015078D01*
X0004867Y0015067D01*
X0004878Y0015055D01*
X0004887Y0015044D01*
X0004893Y0015034D01*
X0004897Y0015026D01*
X00049Y001502D01*
X0004901Y0015019D01*
Y0015018D01*
X0004903Y001501D01*
X0004906Y0015D01*
X0004911Y0014979D01*
X0004913Y0014957D01*
X0004916Y0014937D01*
X0004917Y0014917D01*
Y0014909D01*
X0004918Y0014902D01*
Y0014605D01*
X0004278D01*
Y001469D01*
X0004562D01*
Y0014799D01*
X0004561Y0014809D01*
Y0014817D01*
X000456Y0014823D01*
X0004559Y0014828D01*
Y0014832D01*
X0004558Y0014833D01*
Y0014834D01*
X0004554Y0014849D01*
X0004551Y0014856D01*
X0004548Y0014861D01*
X0004545Y0014867D01*
X0004544Y001487D01*
X0004543Y0014872D01*
X0004542Y0014873D01*
X0004536Y0014881D01*
X000453Y0014888D01*
X0004516Y0014902D01*
X0004509Y0014908D01*
X0004504Y0014913D01*
X00045Y0014916D01*
X0004499Y0014917D01*
X0004486Y0014926D01*
X0004472Y0014936D01*
X0004458Y0014946D01*
X0004444Y0014956D01*
X0004431Y0014965D01*
X0004421Y0014971D01*
X0004417Y0014974D01*
X0004414Y0014976D01*
X0004412Y0014978D01*
X0004411D01*
X0004278Y0015062D01*
Y0015167D01*
X0004452Y0015057D01*
D02*
G37*
G36*
X0003219Y0016091D02*
X0003239Y0016088D01*
X0003257Y0016082D01*
X0003272Y0016076D01*
X0003284Y0016071D01*
X0003293Y0016065D01*
X0003299Y0016062D01*
X00033Y0016061D01*
X0003314Y0016048D01*
X0003326Y0016034D01*
X0003336Y0016019D01*
X0003343Y0016004D01*
X0003349Y0015991D01*
X0003352Y0015981D01*
X0003353Y0015978D01*
X0003354Y0015975D01*
X0003355Y0015973D01*
Y0015972D01*
X0003363Y0015988D01*
X0003372Y0016001D01*
X0003381Y0016012D01*
X0003389Y0016021D01*
X0003397Y0016028D01*
X0003403Y0016034D01*
X0003407Y0016037D01*
X0003409Y0016038D01*
X0003422Y0016045D01*
X0003435Y0016051D01*
X0003447Y0016055D01*
X0003459Y0016058D01*
X000347Y001606D01*
X0003477Y0016061D01*
X0003483D01*
X0003484D01*
X00035Y001606D01*
X0003516Y0016057D01*
X000353Y0016053D01*
X0003542Y0016049D01*
X0003552Y0016044D01*
X000356Y001604D01*
X0003565Y0016038D01*
X0003567Y0016037D01*
X0003581Y0016027D01*
X0003593Y0016016D01*
X0003603Y0016005D01*
X0003612Y0015994D01*
X0003618Y0015985D01*
X0003624Y0015977D01*
X0003627Y0015971D01*
X0003628Y001597D01*
Y0015969D01*
X0003635Y0015953D01*
X0003641Y0015936D01*
X0003645Y0015919D01*
X0003648Y0015904D01*
X000365Y0015892D01*
X0003651Y0015882D01*
Y0015859D01*
X0003649Y0015846D01*
X0003644Y0015821D01*
X0003637Y00158D01*
X000363Y0015782D01*
X0003625Y0015773D01*
X0003621Y0015767D01*
X0003618Y001576D01*
X0003614Y0015756D01*
X0003611Y0015752D01*
X0003609Y0015749D01*
X0003608Y0015747D01*
X0003607Y0015746D01*
X000359Y0015729D01*
X000357Y0015715D01*
X000355Y0015704D01*
X000353Y0015695D01*
X0003512Y0015689D01*
X0003505Y0015686D01*
X0003498Y0015684D01*
X0003493Y0015684D01*
X0003489Y0015683D01*
X0003486Y0015682D01*
X0003485D01*
X0003471Y001576D01*
X0003492Y0015764D01*
X0003509Y001577D01*
X0003524Y0015776D01*
X0003536Y0015782D01*
X0003545Y0015789D01*
X0003552Y0015794D01*
X0003557Y0015798D01*
X0003557Y0015799D01*
X0003567Y0015811D01*
X0003574Y0015824D01*
X0003579Y0015836D01*
X0003582Y0015848D01*
X0003584Y0015859D01*
X0003586Y0015868D01*
Y0015875D01*
X0003585Y0015892D01*
X0003582Y0015906D01*
X0003577Y0015919D01*
X0003572Y001593D01*
X0003567Y0015939D01*
X0003562Y0015945D01*
X0003558Y001595D01*
X0003557Y0015951D01*
X0003546Y0015961D01*
X0003534Y0015968D01*
X0003522Y0015973D01*
X0003511Y0015977D01*
X0003501Y0015978D01*
X0003494Y001598D01*
X0003488D01*
X0003487D01*
X0003486D01*
X0003476D01*
X0003467Y0015978D01*
X0003451Y0015974D01*
X0003437Y0015967D01*
X0003425Y001596D01*
X0003417Y0015953D01*
X000341Y0015946D01*
X0003407Y0015941D01*
X0003406Y0015941D01*
Y001594D01*
X0003398Y0015924D01*
X0003391Y0015909D01*
X0003386Y0015893D01*
X0003384Y001588D01*
X0003382Y0015868D01*
X000338Y0015857D01*
Y0015845D01*
X0003381Y0015842D01*
Y0015837D01*
X0003312Y0015828D01*
X0003314Y001584D01*
X0003316Y0015851D01*
X0003318Y001586D01*
X0003319Y0015868D01*
X000332Y0015875D01*
Y0015883D01*
X0003318Y0015903D01*
X0003314Y001592D01*
X0003309Y0015936D01*
X0003302Y0015949D01*
X0003296Y0015959D01*
X000329Y0015966D01*
X0003287Y0015971D01*
X0003285Y0015973D01*
X0003271Y0015985D01*
X0003256Y0015994D01*
X0003241Y0016001D01*
X0003226Y0016004D01*
X0003214Y0016007D01*
X0003204Y0016008D01*
X0003201Y0016009D01*
X0003198D01*
X0003196D01*
X0003195D01*
X0003175Y0016007D01*
X0003156Y0016003D01*
X0003141Y0015997D01*
X0003127Y001599D01*
X0003116Y0015982D01*
X0003107Y0015977D01*
X0003102Y0015972D01*
X00031Y001597D01*
X0003087Y0015955D01*
X0003078Y001594D01*
X0003071Y0015924D01*
X0003067Y0015909D01*
X0003064Y0015896D01*
X0003063Y0015886D01*
X0003062Y0015882D01*
Y0015877D01*
X0003063Y001586D01*
X0003067Y0015844D01*
X0003071Y0015831D01*
X0003077Y0015819D01*
X0003081Y001581D01*
X0003086Y0015803D01*
X000309Y0015799D01*
X0003091Y0015797D01*
X0003104Y0015786D01*
X0003118Y0015777D01*
X0003134Y0015769D01*
X0003151Y0015762D01*
X0003165Y0015757D01*
X0003171Y0015756D01*
X0003177Y0015755D01*
X0003181Y0015754D01*
X0003185Y0015753D01*
X0003187Y0015752D01*
X0003188D01*
X0003177Y0015673D01*
X0003163Y0015675D01*
X0003149Y0015678D01*
X0003123Y0015686D01*
X0003101Y0015696D01*
X0003092Y0015702D01*
X0003082Y0015708D01*
X0003074Y0015713D01*
X0003067Y0015719D01*
X0003061Y0015723D01*
X0003056Y0015728D01*
X0003053Y0015731D01*
X000305Y0015733D01*
X0003048Y0015735D01*
X0003047Y0015736D01*
X0003039Y0015747D01*
X000303Y0015758D01*
X0003024Y001577D01*
X0003018Y0015782D01*
X0003009Y0015805D01*
X0003004Y0015827D01*
X0003002Y0015837D01*
X0003Y0015846D01*
X0002999Y0015855D01*
X0002998Y0015862D01*
X0002997Y0015868D01*
Y0015876D01*
X0002998Y0015893D01*
X0003Y0015909D01*
X0003003Y0015925D01*
X0003006Y001594D01*
X0003011Y0015953D01*
X0003016Y0015966D01*
X0003021Y0015978D01*
X0003027Y0015988D01*
X0003031Y0015998D01*
X0003037Y0016006D01*
X0003042Y0016014D01*
X0003046Y0016019D01*
X000305Y0016024D01*
X0003053Y0016027D01*
X0003055Y0016029D01*
X0003055Y001603D01*
X0003067Y0016041D01*
X0003079Y0016051D01*
X0003091Y0016059D01*
X0003103Y0016066D01*
X0003114Y0016072D01*
X0003126Y0016077D01*
X0003148Y0016085D01*
X0003158Y0016087D01*
X0003167Y0016088D01*
X0003176Y001609D01*
X0003183Y0016091D01*
X0003189Y0016092D01*
X0003193D01*
X0003196D01*
X0003197D01*
X0003219Y0016091D01*
D02*
G37*
G36*
X0003648Y0015542D02*
X0003183Y0015368D01*
X0003164Y0015361D01*
X0003145Y0015354D01*
X0003128Y0015349D01*
X0003112Y0015344D01*
X0003098Y001534D01*
X0003088Y0015337D01*
X0003084Y0015336D01*
X0003081Y0015335D01*
X0003079Y0015334D01*
X0003079D01*
X0003116Y0015323D01*
X0003133Y0015317D01*
X0003149Y0015312D01*
X0003163Y0015307D01*
X0003168Y0015305D01*
X0003174Y0015304D01*
X0003177Y0015303D01*
X000318Y0015302D01*
X0003182Y0015301D01*
X0003183D01*
X0003648Y0015134D01*
Y0015042D01*
X0003008Y001529D01*
Y0015378D01*
X0003648Y0015628D01*
Y0015542D01*
D02*
G37*
G36*
X0003219Y0014998D02*
X0003239Y0014994D01*
X0003257Y0014988D01*
X0003272Y0014983D01*
X0003284Y0014977D01*
X0003293Y0014972D01*
X0003299Y0014968D01*
X00033Y0014967D01*
X0003314Y0014954D01*
X0003326Y001494D01*
X0003336Y0014925D01*
X0003343Y0014911D01*
X0003349Y0014898D01*
X0003352Y0014887D01*
X0003353Y0014884D01*
X0003354Y0014881D01*
X0003355Y0014879D01*
Y0014878D01*
X0003363Y0014894D01*
X0003372Y0014907D01*
X0003381Y0014918D01*
X0003389Y0014927D01*
X0003397Y0014935D01*
X0003403Y001494D01*
X0003407Y0014943D01*
X0003409Y0014944D01*
X0003422Y0014951D01*
X0003435Y0014957D01*
X0003447Y0014961D01*
X0003459Y0014964D01*
X000347Y0014966D01*
X0003477Y0014967D01*
X0003483D01*
X0003484D01*
X00035Y0014966D01*
X0003516Y0014963D01*
X000353Y001496D01*
X0003542Y0014955D01*
X0003552Y001495D01*
X000356Y0014947D01*
X0003565Y0014944D01*
X0003567Y0014943D01*
X0003581Y0014934D01*
X0003593Y0014923D01*
X0003603Y0014912D01*
X0003612Y00149D01*
X0003618Y0014891D01*
X0003624Y0014883D01*
X0003627Y0014877D01*
X0003628Y0014876D01*
Y0014875D01*
X0003635Y0014859D01*
X0003641Y0014842D01*
X0003645Y0014826D01*
X0003648Y0014811D01*
X000365Y0014799D01*
X0003651Y0014789D01*
Y0014765D01*
X0003649Y0014752D01*
X0003644Y0014728D01*
X0003637Y0014706D01*
X000363Y0014688D01*
X0003625Y0014679D01*
X0003621Y0014673D01*
X0003618Y0014667D01*
X0003614Y0014662D01*
X0003611Y0014658D01*
X0003609Y0014655D01*
X0003608Y0014654D01*
X0003607Y0014653D01*
X000359Y0014635D01*
X000357Y0014621D01*
X000355Y001461D01*
X000353Y0014601D01*
X0003512Y0014595D01*
X0003505Y0014593D01*
X0003498Y0014591D01*
X0003493Y001459D01*
X0003489Y0014589D01*
X0003486Y0014588D01*
X0003485D01*
X0003471Y0014667D01*
X0003492Y001467D01*
X0003509Y0014676D01*
X0003524Y0014682D01*
X0003536Y0014689D01*
X0003545Y0014695D01*
X0003552Y0014701D01*
X0003557Y0014704D01*
X0003557Y0014705D01*
X0003567Y0014717D01*
X0003574Y001473D01*
X0003579Y0014742D01*
X0003582Y0014754D01*
X0003584Y0014765D01*
X0003586Y0014774D01*
Y0014781D01*
X0003585Y0014798D01*
X0003582Y0014813D01*
X0003577Y0014826D01*
X0003572Y0014837D01*
X0003567Y0014845D01*
X0003562Y0014851D01*
X0003558Y0014856D01*
X0003557Y0014857D01*
X0003546Y0014867D01*
X0003534Y0014875D01*
X0003522Y0014879D01*
X0003511Y0014883D01*
X0003501Y0014885D01*
X0003494Y0014887D01*
X0003488D01*
X0003487D01*
X0003486D01*
X0003476D01*
X0003467Y0014885D01*
X0003451Y001488D01*
X0003437Y0014874D01*
X0003425Y0014866D01*
X0003417Y0014859D01*
X000341Y0014852D01*
X0003407Y0014848D01*
X0003406Y0014847D01*
Y0014846D01*
X0003398Y001483D01*
X0003391Y0014815D01*
X0003386Y00148D01*
X0003384Y0014786D01*
X0003382Y0014774D01*
X000338Y0014764D01*
Y0014752D01*
X0003381Y0014748D01*
Y0014743D01*
X0003312Y0014734D01*
X0003314Y0014746D01*
X0003316Y0014757D01*
X0003318Y0014766D01*
X0003319Y0014775D01*
X000332Y0014781D01*
Y0014789D01*
X0003318Y0014809D01*
X0003314Y0014826D01*
X0003309Y0014842D01*
X0003302Y0014855D01*
X0003296Y0014865D01*
X000329Y0014873D01*
X0003287Y0014877D01*
X0003285Y0014879D01*
X0003271Y0014891D01*
X0003256Y00149D01*
X0003241Y0014907D01*
X0003226Y0014911D01*
X0003214Y0014913D01*
X0003204Y0014914D01*
X0003201Y0014915D01*
X0003198D01*
X0003196D01*
X0003195D01*
X0003175Y0014913D01*
X0003156Y0014909D01*
X0003141Y0014903D01*
X0003127Y0014896D01*
X0003116Y0014888D01*
X0003107Y0014883D01*
X0003102Y0014878D01*
X00031Y0014876D01*
X0003087Y0014862D01*
X0003078Y0014846D01*
X0003071Y001483D01*
X0003067Y0014815D01*
X0003064Y0014802D01*
X0003063Y0014792D01*
X0003062Y0014789D01*
Y0014783D01*
X0003063Y0014766D01*
X0003067Y0014751D01*
X0003071Y0014737D01*
X0003077Y0014726D01*
X0003081Y0014716D01*
X0003086Y0014709D01*
X000309Y0014705D01*
X0003091Y0014703D01*
X0003104Y0014692D01*
X0003118Y0014683D01*
X0003134Y0014675D01*
X0003151Y0014668D01*
X0003165Y0014664D01*
X0003171Y0014662D01*
X0003177Y0014661D01*
X0003181Y001466D01*
X0003185Y0014659D01*
X0003187Y0014658D01*
X0003188D01*
X0003177Y001458D01*
X0003163Y0014581D01*
X0003149Y0014584D01*
X0003123Y0014593D01*
X0003101Y0014603D01*
X0003092Y0014608D01*
X0003082Y0014614D01*
X0003074Y0014619D01*
X0003067Y0014625D01*
X0003061Y001463D01*
X0003056Y0014634D01*
X0003053Y0014637D01*
X000305Y001464D01*
X0003048Y0014642D01*
X0003047Y0014642D01*
X0003039Y0014654D01*
X000303Y0014665D01*
X0003024Y0014676D01*
X0003018Y0014688D01*
X0003009Y0014711D01*
X0003004Y0014733D01*
X0003002Y0014743D01*
X0003Y0014752D01*
X0002999Y0014761D01*
X0002998Y0014768D01*
X0002997Y0014774D01*
Y0014782D01*
X0002998Y00148D01*
X0003Y0014815D01*
X0003003Y0014831D01*
X0003006Y0014846D01*
X0003011Y001486D01*
X0003016Y0014872D01*
X0003021Y0014884D01*
X0003027Y0014894D01*
X0003031Y0014904D01*
X0003037Y0014912D01*
X0003042Y001492D01*
X0003046Y0014925D01*
X000305Y001493D01*
X0003053Y0014934D01*
X0003055Y0014936D01*
X0003055Y0014936D01*
X0003067Y0014948D01*
X0003079Y0014957D01*
X0003091Y0014965D01*
X0003103Y0014973D01*
X0003114Y0014978D01*
X0003126Y0014984D01*
X0003148Y0014991D01*
X0003158Y0014993D01*
X0003167Y0014995D01*
X0003176Y0014997D01*
X0003183Y0014998D01*
X0003189Y0014998D01*
X0003193D01*
X0003196D01*
X0003197D01*
X0003219Y0014998D01*
D02*
G37*
G36*
X0001883Y0000593D02*
X0002094D01*
Y0000518D01*
X0001587D01*
Y0000593D01*
X0001798D01*
Y0001157D01*
X0001883D01*
Y0000593D01*
D02*
G37*
G36*
X-0000089Y0001156D02*
X-000007Y0001155D01*
X-0000052Y0001154D01*
X-0000038Y0001152D01*
X-0000026Y000115D01*
X-0000016Y0001149D01*
X-0000011Y0001147D01*
X-0000009D01*
X0000007Y0001143D01*
X000002Y0001138D01*
X0000032Y0001132D01*
X0000042Y0001127D01*
X000005Y0001123D01*
X0000057Y0001119D01*
X000006Y0001117D01*
X0000061Y0001116D01*
X0000072Y0001107D01*
X0000081Y0001097D01*
X0000088Y0001087D01*
X0000096Y0001078D01*
X0000101Y0001069D01*
X0000105Y0001062D01*
X0000108Y0001057D01*
X0000109Y0001056D01*
X0000115Y0001041D01*
X000012Y0001026D01*
X0000123Y0001012D01*
X0000125Y0000999D01*
X0000127Y0000988D01*
X0000128Y0000979D01*
Y0000973D01*
Y0000972D01*
Y0000971D01*
X0000127Y0000951D01*
X0000123Y0000933D01*
X0000118Y0000917D01*
X0000112Y0000902D01*
X0000107Y0000891D01*
X0000101Y0000883D01*
X0000097Y0000877D01*
X0000097Y0000875D01*
X0000084Y0000861D01*
X000007Y0000849D01*
X0000054Y0000838D01*
X000004Y000083D01*
X0000027Y0000824D01*
X0000016Y000082D01*
X0000012Y0000818D01*
X000001Y0000817D01*
X0000008Y0000816D01*
X0000007D01*
X0000023Y0000807D01*
X0000036Y0000798D01*
X0000048Y0000787D01*
X0000057Y0000778D01*
X0000064Y0000771D01*
X000007Y0000763D01*
X0000072Y000076D01*
X0000073Y0000758D01*
X0000081Y0000744D01*
X0000086Y0000731D01*
X0000091Y0000718D01*
X0000094Y0000706D01*
X0000096Y0000696D01*
X0000097Y0000688D01*
Y0000683D01*
Y0000681D01*
X0000096Y0000665D01*
X0000093Y000065D01*
X0000088Y0000636D01*
X0000084Y0000623D01*
X0000079Y0000612D01*
X0000074Y0000604D01*
X0000072Y0000599D01*
X0000071Y0000597D01*
X000006Y0000583D01*
X0000049Y000057D01*
X0000037Y000056D01*
X0000026Y0000552D01*
X0000017Y0000545D01*
X0000009Y0000541D01*
X0000003Y0000538D01*
X0000002Y0000537D01*
X0000001D01*
X-0000016Y000053D01*
X-0000036Y0000526D01*
X-0000055Y0000522D01*
X-0000074Y000052D01*
X-000009Y0000518D01*
X-0000098D01*
X-0000104Y0000518D01*
X-0000356D01*
Y0001157D01*
X-0000112D01*
X-0000089Y0001156D01*
D02*
G37*
G36*
X000125Y0001167D02*
X0001279Y0001162D01*
X0001306Y0001156D01*
X0001318Y0001153D01*
X0001329Y0001149D01*
X0001339Y0001145D01*
X0001348Y0001142D01*
X0001356Y0001139D01*
X0001362Y0001136D01*
X0001368Y0001133D01*
X0001372Y0001131D01*
X0001374Y000113D01*
X0001375D01*
X0001401Y0001113D01*
X0001423Y0001094D01*
X0001442Y0001075D01*
X0001457Y0001057D01*
X000147Y0001039D01*
X0001475Y0001032D01*
X0001479Y0001026D01*
X0001482Y000102D01*
X0001484Y0001017D01*
X0001486Y0001014D01*
Y0001013D01*
X0001494Y0000998D01*
X0001499Y0000983D01*
X0001509Y0000954D01*
X0001517Y0000924D01*
X0001521Y0000897D01*
X0001522Y0000885D01*
X0001524Y0000874D01*
X0001525Y0000864D01*
Y0000856D01*
X0001526Y0000849D01*
Y0000844D01*
Y000084D01*
Y0000839D01*
X0001524Y0000804D01*
X000152Y0000772D01*
X0001518Y0000757D01*
X0001514Y0000742D01*
X000151Y0000729D01*
X0001507Y0000717D01*
X0001504Y0000706D01*
X00015Y0000696D01*
X0001497Y0000688D01*
X0001494Y000068D01*
X0001492Y0000675D01*
X000149Y0000671D01*
X0001488Y0000668D01*
Y0000667D01*
X0001473Y000064D01*
X0001456Y0000616D01*
X0001437Y0000596D01*
X000142Y0000579D01*
X0001405Y0000567D01*
X0001397Y0000561D01*
X0001392Y0000556D01*
X0001386Y0000554D01*
X0001383Y0000551D01*
X0001381Y000055D01*
X000138Y0000549D01*
X0001366Y0000542D01*
X0001352Y0000535D01*
X0001325Y0000524D01*
X0001298Y0000517D01*
X0001273Y0000512D01*
X0001262Y000051D01*
X0001251Y0000508D01*
X0001243Y0000507D01*
X0001235D01*
X0001228Y0000506D01*
X000122D01*
X0001195Y0000507D01*
X0001172Y000051D01*
X000115Y0000515D01*
X0001128Y000052D01*
X0001109Y0000528D01*
X000109Y0000535D01*
X0001074Y0000543D01*
X0001059Y0000552D01*
X0001045Y000056D01*
X0001033Y0000568D01*
X0001023Y0000576D01*
X0001015Y0000583D01*
X0001008Y0000589D01*
X0001003Y0000593D01*
X0001Y0000596D01*
X0000999Y0000597D01*
X0000984Y0000615D01*
X0000971Y0000633D01*
X0000959Y0000653D01*
X000095Y0000674D01*
X0000942Y0000695D01*
X0000934Y0000715D01*
X0000929Y0000736D01*
X0000925Y0000755D01*
X0000921Y0000774D01*
X0000918Y0000791D01*
X0000917Y0000807D01*
X0000915Y000082D01*
Y0000831D01*
X0000914Y0000839D01*
Y0000845D01*
Y0000846D01*
Y0000847D01*
X0000916Y0000878D01*
X0000919Y0000907D01*
X0000925Y0000934D01*
X0000929Y0000947D01*
X0000932Y0000959D01*
X0000935Y0000969D01*
X0000939Y0000978D01*
X0000942Y0000986D01*
X0000944Y0000994D01*
X0000946Y0000999D01*
X0000948Y0001003D01*
X000095Y0001006D01*
Y0001007D01*
X0000966Y0001033D01*
X0000982Y0001057D01*
X0001001Y0001077D01*
X0001018Y0001094D01*
X0001034Y0001107D01*
X000104Y0001113D01*
X0001046Y0001117D01*
X0001052Y000112D01*
X0001055Y0001123D01*
X0001057Y0001124D01*
X0001058Y0001125D01*
X0001072Y0001132D01*
X0001086Y0001139D01*
X0001114Y000115D01*
X000114Y0001157D01*
X0001165Y0001163D01*
X0001177Y0001165D01*
X0001187Y0001166D01*
X0001197Y0001167D01*
X0001205D01*
X0001211Y0001168D01*
X000122D01*
X000125Y0001167D01*
D02*
G37*
G36*
X0000555D02*
X0000584Y0001162D01*
X0000611Y0001156D01*
X0000623Y0001153D01*
X0000634Y0001149D01*
X0000644Y0001145D01*
X0000653Y0001142D01*
X000066Y0001139D01*
X0000667Y0001136D01*
X0000673Y0001133D01*
X0000677Y0001131D01*
X0000679Y000113D01*
X000068D01*
X0000706Y0001113D01*
X0000728Y0001094D01*
X0000746Y0001075D01*
X0000762Y0001057D01*
X0000775Y0001039D01*
X000078Y0001032D01*
X0000783Y0001026D01*
X0000787Y000102D01*
X0000789Y0001017D01*
X0000791Y0001014D01*
Y0001013D01*
X0000798Y0000998D01*
X0000804Y0000983D01*
X0000814Y0000954D01*
X0000821Y0000924D01*
X0000826Y0000897D01*
X0000827Y0000885D01*
X0000829Y0000874D01*
X000083Y0000864D01*
Y0000856D01*
X0000831Y0000849D01*
Y0000844D01*
Y000084D01*
Y0000839D01*
X0000829Y0000804D01*
X0000825Y0000772D01*
X0000822Y0000757D01*
X0000819Y0000742D01*
X0000815Y0000729D01*
X0000812Y0000717D01*
X0000808Y0000706D01*
X0000805Y0000696D01*
X0000802Y0000688D01*
X0000798Y000068D01*
X0000796Y0000675D01*
X0000795Y0000671D01*
X0000793Y0000668D01*
Y0000667D01*
X0000778Y000064D01*
X000076Y0000616D01*
X0000742Y0000596D01*
X0000725Y0000579D01*
X0000709Y0000567D01*
X0000702Y0000561D01*
X0000697Y0000556D01*
X0000691Y0000554D01*
X0000687Y0000551D01*
X0000685Y000055D01*
X0000685Y0000549D01*
X0000671Y0000542D01*
X0000657Y0000535D01*
X000063Y0000524D01*
X0000602Y0000517D01*
X0000578Y0000512D01*
X0000567Y000051D01*
X0000556Y0000508D01*
X0000548Y0000507D01*
X0000539D01*
X0000533Y0000506D01*
X0000525D01*
X00005Y0000507D01*
X0000477Y000051D01*
X0000454Y0000515D01*
X0000433Y000052D01*
X0000414Y0000528D01*
X0000395Y0000535D01*
X0000379Y0000543D01*
X0000364Y0000552D01*
X000035Y000056D01*
X0000338Y0000568D01*
X0000328Y0000576D01*
X0000319Y0000583D01*
X0000313Y0000589D01*
X0000307Y0000593D01*
X0000305Y0000596D01*
X0000304Y0000597D01*
X0000289Y0000615D01*
X0000276Y0000633D01*
X0000264Y0000653D01*
X0000255Y0000674D01*
X0000246Y0000695D01*
X0000239Y0000715D01*
X0000233Y0000736D01*
X000023Y0000755D01*
X0000226Y0000774D01*
X0000223Y0000791D01*
X0000221Y0000807D01*
X0000219Y000082D01*
Y0000831D01*
X0000219Y0000839D01*
Y0000845D01*
Y0000846D01*
Y0000847D01*
X000022Y0000878D01*
X0000224Y0000907D01*
X000023Y0000934D01*
X0000233Y0000947D01*
X0000237Y0000959D01*
X000024Y0000969D01*
X0000244Y0000978D01*
X0000246Y0000986D01*
X0000249Y0000994D01*
X0000251Y0000999D01*
X0000253Y0001003D01*
X0000255Y0001006D01*
Y0001007D01*
X000027Y0001033D01*
X0000287Y0001057D01*
X0000305Y0001077D01*
X0000323Y0001094D01*
X0000339Y0001107D01*
X0000345Y0001113D01*
X0000351Y0001117D01*
X0000356Y000112D01*
X000036Y0001123D01*
X0000362Y0001124D01*
X0000363Y0001125D01*
X0000377Y0001132D01*
X0000391Y0001139D01*
X0000418Y000115D01*
X0000445Y0001157D01*
X000047Y0001163D01*
X0000482Y0001165D01*
X0000492Y0001166D01*
X0000501Y0001167D01*
X000051D01*
X0000515Y0001168D01*
X0000525D01*
X0000555Y0001167D01*
D02*
G37*
%LPC*%
G36*
X0011489Y0026418D02*
X0011472Y0026416D01*
X0011462Y0026391D01*
X0011457Y0026372D01*
X0011449Y0026344D01*
X0011437Y0026303D01*
X001143Y0026271D01*
X0011422Y0026244D01*
X0011413Y0026205D01*
X0011393Y0026136D01*
X0011383Y0026096D01*
X0011344Y0025969D01*
X0011339Y0025949D01*
X0011332Y0025917D01*
X0011319Y0025875D01*
X0011312Y0025839D01*
X00113Y0025807D01*
X0011307Y0025785D01*
X0011327Y002578D01*
X0011597Y0025785D01*
X0011641Y0025789D01*
X0011648Y0025812D01*
X0011641Y0025839D01*
X0011631Y0025878D01*
X0011626Y0025902D01*
X0011621Y0025922D01*
X0011609Y0025964D01*
X0011604Y0025983D01*
Y0025988D01*
X0011589Y0026038D01*
X0011575Y0026096D01*
X0011567Y0026128D01*
X0011553Y0026187D01*
X0011548Y0026212D01*
X0011538Y0026236D01*
X0011531Y0026263D01*
X0011518Y0026315D01*
X0011506Y0026347D01*
X0011499Y0026394D01*
X0011489Y0026418D01*
D02*
G37*
G36*
X0011685Y0025568D02*
X0011592Y0025564D01*
X001141Y0025568D01*
X0011253Y0025564D01*
X0011246Y0025556D01*
X0011236Y0025532D01*
X0011221Y0025482D01*
X0011209Y0025451D01*
X0011194Y0025396D01*
X0011182Y0025355D01*
X0011177Y0025335D01*
X001117Y0025303D01*
X0011155Y0025244D01*
X0011142Y0025202D01*
X0011113Y0025099D01*
X0011103Y002506D01*
X0011091Y0025008D01*
X0011084Y0024981D01*
X0011074Y0024942D01*
X0011088Y0024918D01*
X0011106Y002491D01*
X001112Y0024915D01*
X0011368Y0024913D01*
X0011717Y0024918D01*
X0011828Y002492D01*
X0011842Y0024915D01*
X001186Y0024927D01*
X0011865Y0024947D01*
X001186Y0024967D01*
X0011852Y0024994D01*
X0011845Y0025016D01*
X0011835Y0025055D01*
X001182Y0025104D01*
X0011815Y0025124D01*
X0011808Y0025156D01*
X0011793Y0025215D01*
X0011786Y0025242D01*
X0011781Y0025261D01*
X0011771Y0025296D01*
X0011761Y0025335D01*
Y002534D01*
X0011759Y0025342D01*
X0011747Y0025374D01*
X0011742Y0025394D01*
X0011734Y0025426D01*
X0011729Y0025446D01*
X0011717Y0025487D01*
X0011705Y0025544D01*
X0011693Y0025561D01*
X0011685Y0025568D01*
D02*
G37*
G36*
X0009043Y0026222D02*
X0009001Y0026219D01*
X0008994Y0026222D01*
X0008979Y0026217D01*
X0008915Y0026222D01*
X0008812Y0026217D01*
X0008797Y0026212D01*
X0008777Y0026207D01*
X0008738Y0026202D01*
X0008704Y0026182D01*
X0008679Y0026168D01*
X0008637Y0026126D01*
X0008618Y0026077D01*
X0008608Y0026038D01*
X0008606Y0025976D01*
X0008615Y0025922D01*
X000862Y0025902D01*
X0008633Y0025875D01*
X0008652Y0025841D01*
X0008689Y0025804D01*
X0008763Y002577D01*
X0008812Y0025755D01*
X0008831Y002575D01*
X0008944Y0025745D01*
X0008959Y002575D01*
X0009053Y0025755D01*
X0009057Y0025765D01*
X000906Y0025767D01*
X0009062Y0025789D01*
X000906Y0025802D01*
X0009065Y0025807D01*
X000906Y0025812D01*
X0009065Y0025826D01*
X0009062Y0025888D01*
X0009065Y0026028D01*
X000906Y0026042D01*
X0009055Y0026209D01*
X0009043Y0026222D01*
D02*
G37*
G36*
X0007525Y0023093D02*
X0007478Y0023085D01*
X0007459Y0023081D01*
X0007432Y0023068D01*
X0007422Y0023063D01*
X0007387Y0023049D01*
X0007368Y0023054D01*
X0007343Y0023068D01*
X0007319Y0023078D01*
X0007284Y0023088D01*
X0007265Y0023093D01*
X0007206Y0023088D01*
X0007181Y0023078D01*
X0007117Y0023044D01*
X0007098Y0023024D01*
X0007088Y0023019D01*
X0007046Y0022928D01*
X0007041Y0022909D01*
X0007029Y0022891D01*
X0007019Y0022887D01*
X0006975Y0022852D01*
X0006958Y0022835D01*
X0006953Y0022825D01*
X0006943Y0022815D01*
X0006938Y0022806D01*
X0006918Y0022761D01*
X0006909Y0022727D01*
X0006904Y0022678D01*
X0006909Y0022643D01*
X0006913Y0022614D01*
X0006923Y0022589D01*
X0006918Y0022545D01*
X0006909Y0022521D01*
X0006904Y0022457D01*
X0006909Y0022437D01*
X0006911Y0022415D01*
X0006913Y0022413D01*
X0006918Y0022393D01*
X0006948Y0022339D01*
X000696Y0022322D01*
X000697Y0022317D01*
X0007004Y0022282D01*
X0007014Y0022278D01*
X0007041Y0022255D01*
X0007048Y0022223D01*
X0007058Y0022199D01*
X000708Y0022157D01*
X0007095Y0022142D01*
X00071Y0022133D01*
X0007117Y0022115D01*
X0007127Y002211D01*
X0007166Y0022086D01*
X0007193Y0022079D01*
X0007213Y0022074D01*
X0007289Y0022071D01*
X0007304Y0022076D01*
X0007358Y0022101D01*
X0007383Y002211D01*
X0007412Y0022106D01*
X0007422Y0022096D01*
X0007446Y0022086D01*
X0007481Y0022076D01*
X00075Y0022071D01*
X0007535Y0022066D01*
X0007549Y0022071D01*
X0007581Y0022079D01*
X0007613Y0022091D01*
X0007648Y002211D01*
X0007658Y002212D01*
X0007667Y0022125D01*
X0007689Y0022147D01*
X0007694Y0022157D01*
X0007704Y0022167D01*
X0007719Y0022201D01*
X0007741Y0022263D01*
X0007751Y0022273D01*
X0007761Y0022278D01*
X0007788Y00223D01*
X0007795Y0022307D01*
X0007805Y0022312D01*
X0007817Y0022329D01*
X0007827Y0022339D01*
X0007832Y0022349D01*
X0007842Y0022359D01*
X0007847Y0022368D01*
X0007861Y0022403D01*
X0007869Y0022435D01*
X0007871Y0022511D01*
X0007866Y0022526D01*
X0007856Y002256D01*
X0007852Y0022584D01*
X0007856Y0022599D01*
X0007866Y0022634D01*
X0007871Y0022653D01*
X0007866Y0022742D01*
X0007856Y0022766D01*
X0007822Y002283D01*
X00078Y0022852D01*
X000779Y0022857D01*
X0007783Y0022864D01*
X0007778Y0022874D01*
X0007739Y0022899D01*
X0007734Y0022914D01*
X0007729Y0022933D01*
X0007719Y0022958D01*
X0007694Y0023002D01*
X0007672Y0023029D01*
X0007653Y0023049D01*
X0007643Y0023054D01*
X0007613Y0023073D01*
X0007579Y0023083D01*
X0007559Y0023088D01*
X0007525Y0023093D01*
D02*
G37*
%LPD*%
G36*
X0007274Y0022941D02*
X0007301Y0022918D01*
X0007311Y0022894D01*
Y0022889D01*
X0007316Y0022869D01*
X0007311Y002226D01*
X0007287Y0022226D01*
X0007265Y0022219D01*
X0007215Y0022223D01*
X0007203Y0022236D01*
X0007198Y002225D01*
X0007211Y0022263D01*
X0007274Y0022297D01*
X0007287Y0022324D01*
X0007282Y0022344D01*
X000726Y0022366D01*
X000725Y0022371D01*
X0007206Y0022415D01*
X0007171Y002241D01*
X0007137Y0022395D01*
X0007098Y00224D01*
X0007071Y0022422D01*
X0007056Y0022437D01*
X0007051Y0022457D01*
X0007056Y0022467D01*
X0007078Y0022469D01*
X0007103Y0022459D01*
X0007127Y0022469D01*
X0007134Y0022491D01*
X000713Y0022589D01*
X0007112Y0022607D01*
X0007078Y0022626D01*
X0007056Y0022648D01*
X0007051Y0022668D01*
X0007056Y0022722D01*
X0007063Y0022734D01*
X0007073Y0022739D01*
X0007088Y0022744D01*
X0007115Y0022722D01*
X0007127Y002271D01*
X0007137Y0022705D01*
X0007171Y002269D01*
X0007184Y0022693D01*
X0007193Y0022717D01*
X0007198Y0022737D01*
X0007218Y0022781D01*
X0007223Y0022801D01*
X0007218Y002282D01*
X0007198Y002284D01*
X0007188Y0022864D01*
X0007193Y0022909D01*
X0007215Y0022936D01*
X000724Y0022945D01*
X0007274Y0022941D01*
D02*
G37*
G36*
X0007549D02*
X0007577Y0022918D01*
X0007586Y0022894D01*
X0007589Y0022877D01*
X0007584Y0022852D01*
X0007577Y0022845D01*
X0007574Y0022837D01*
X0007564Y0022833D01*
X0007552Y0022806D01*
X0007557Y0022766D01*
X0007596Y0022693D01*
X0007608Y0022685D01*
X0007643Y002271D01*
X0007653Y0022715D01*
X0007677Y0022739D01*
X0007697Y0022744D01*
X0007707Y0022739D01*
X0007724Y0022697D01*
X0007719Y0022653D01*
X0007697Y0022621D01*
X0007643Y0022592D01*
X0007638Y0022562D01*
X0007635Y0022535D01*
X000764Y0022521D01*
X0007635Y0022501D01*
X0007648Y0022469D01*
X0007658Y0022459D01*
X000767Y0022457D01*
X0007694Y0022467D01*
X0007712Y0022469D01*
X0007719Y0022462D01*
X0007714Y0022432D01*
X0007687Y0022405D01*
X000766Y0022398D01*
X0007628Y0022395D01*
X0007579Y002242D01*
X0007552Y0022398D01*
X000752Y0022366D01*
X000751Y0022361D01*
X00075Y0022351D01*
X0007493Y0022349D01*
X0007488Y0022329D01*
X0007493Y0022309D01*
X000752Y0022282D01*
X0007572Y0022255D01*
X0007567Y0022236D01*
X0007554Y0022223D01*
X0007535Y0022219D01*
X0007495Y0022223D01*
X0007478Y0022236D01*
X0007473Y0022246D01*
X0007459Y002228D01*
Y0022796D01*
Y0022801D01*
X0007464Y0022899D01*
X0007491Y0022936D01*
X0007515Y0022945D01*
X0007549Y0022941D01*
D02*
G37*
%LPC*%
G36*
X0012211Y0023427D02*
X0012169Y002342D01*
X0012125Y0023395D01*
X001212Y0023385D01*
X0012095Y0023361D01*
X0012076Y0023316D01*
X0012071Y0023282D01*
X0012076Y0023233D01*
X00121Y0023189D01*
X0012127Y0023162D01*
X0012137Y0023157D01*
X0012147Y0023147D01*
X0012196Y0023132D01*
X001226Y0023137D01*
X0012294Y0023157D01*
X0012304Y0023167D01*
X0012314Y0023171D01*
X0012326Y0023184D01*
X0012331Y0023194D01*
X0012341Y0023203D01*
X0012346Y0023213D01*
X0012356Y0023238D01*
X0012358Y0023294D01*
X0012353Y0023324D01*
X0012343Y0023348D01*
X0012336Y0023356D01*
Y0023361D01*
X0012304Y0023392D01*
X0012294Y0023397D01*
X0012265Y0023417D01*
X0012245Y0023422D01*
X0012211Y0023427D01*
D02*
G37*
G36*
X0010801D02*
X0010747Y0023422D01*
X0010703Y0023397D01*
X0010666Y0023361D01*
X0010661Y0023351D01*
X0010651Y0023326D01*
X0010641Y0023292D01*
X0010646Y0023238D01*
X0010656Y0023213D01*
X0010671Y0023189D01*
X0010688Y0023171D01*
X0010698Y0023167D01*
X0010705Y0023159D01*
X0010708Y0023157D01*
X0010718Y0023152D01*
X0010762Y0023132D01*
X0010831Y0023137D01*
X0010875Y0023162D01*
X0010897Y0023184D01*
X0010902Y0023194D01*
X0010912Y0023203D01*
X0010926Y0023238D01*
X0010936Y0023272D01*
X0010924Y0023324D01*
X0010914Y0023348D01*
X0010902Y0023365D01*
X0010865Y0023402D01*
X0010821Y0023422D01*
X0010801Y0023427D01*
D02*
G37*
G36*
X0013061Y0022061D02*
X0013014Y0022054D01*
X0012994Y0022049D01*
X0012967Y0022032D01*
X0012955Y0022025D01*
X001295Y0022015D01*
X001294Y0022005D01*
X0012935Y0021995D01*
X0012911Y0021941D01*
X0012916Y0021862D01*
X0012948Y0021816D01*
X0012972Y0021791D01*
X0013004Y0021779D01*
X0013026Y0021772D01*
X0013073Y0021769D01*
X0013092Y0021774D01*
X0013117Y0021784D01*
X0013144Y0021801D01*
X0013166Y0021823D01*
X0013171Y0021833D01*
X0013181Y0021843D01*
Y0021848D01*
X0013183Y002185D01*
X0013196Y0021892D01*
X0013198Y0021924D01*
X0013193Y0021948D01*
X0013183Y0021973D01*
X0013176Y002199D01*
X0013154Y0022017D01*
X0013134Y0022037D01*
X0013124Y0022042D01*
X00131Y0022052D01*
X0013061Y0022061D01*
D02*
G37*
G36*
X001143D02*
X0011415Y0022056D01*
X0011386Y0022052D01*
X0011351Y0022032D01*
X0011324Y0022005D01*
X0011319Y0021995D01*
X0011295Y0021941D01*
X00113Y0021872D01*
X0011329Y0021818D01*
X0011351Y0021796D01*
X0011405Y0021772D01*
X0011427Y0021769D01*
X0011481Y0021774D01*
X0011494Y0021781D01*
X0011499D01*
X0011545Y0021813D01*
X001157Y0021848D01*
X001158Y0021887D01*
X0011582Y0021919D01*
X0011572Y0021973D01*
X0011553Y0022002D01*
X001154Y002202D01*
X0011533Y0022027D01*
X0011499Y0022047D01*
X0011474Y0022056D01*
X001143Y0022061D01*
D02*
G37*
G36*
X000556Y0023157D02*
X0005462D01*
X0005334Y0023152D01*
X000532Y0023147D01*
X00053Y0023142D01*
X0005258Y0023135D01*
X0005197Y0023098D01*
X000517Y0023071D01*
X0005165Y0023061D01*
X0005145Y0023031D01*
X0005135Y0022992D01*
X000513Y0022914D01*
X0005138Y0022857D01*
X0005148Y0022818D01*
X0005172Y0022778D01*
X0005184Y0022761D01*
X0005207Y0022739D01*
X000529Y00227D01*
X0005339Y0022685D01*
X0005359Y002268D01*
X0005452Y0022675D01*
X0005558Y0022678D01*
X0005565Y0022675D01*
X0005587Y0022693D01*
X0005582Y0023149D01*
X000556Y0023157D01*
D02*
G37*
G36*
X0005374Y0020421D02*
X0005364Y0020416D01*
X0005356Y0020409D01*
X0005351Y0020359D01*
X0005356Y002033D01*
X0005369Y0020313D01*
X0005378Y0020308D01*
X0005393Y0020293D01*
X0005432Y0020273D01*
X0005435Y0020271D01*
X0005462Y0020264D01*
X0005526Y0020269D01*
X0005553Y0020291D01*
X0005563Y0020315D01*
X0005558Y0020355D01*
X0005536Y0020382D01*
X0005526Y0020391D01*
X0005491Y0020401D01*
X0005452Y0020411D01*
X0005388Y0020416D01*
X0005374Y0020421D01*
D02*
G37*
G36*
X0011867Y0020607D02*
X0011828Y0020603D01*
X0011783Y0020578D01*
X0011776Y0020571D01*
X0011774Y0020568D01*
X0011766Y0020561D01*
X0011761Y0020551D01*
X0011747Y0020517D01*
X0011752Y0020502D01*
X0011759Y0020495D01*
X0011973Y0020497D01*
X0011978Y0020517D01*
X0011973Y0020536D01*
X0011958Y0020551D01*
X0011943Y0020576D01*
X0011936Y0020583D01*
X0011887Y0020603D01*
X0011867Y0020607D01*
D02*
G37*
G36*
X0012722Y0020789D02*
X0012564Y0020784D01*
X001255Y0020779D01*
X001251Y0020765D01*
X0012464Y0020733D01*
X0012444Y0020713D01*
X0012439Y0020703D01*
X0012429Y0020693D01*
X0012417Y0020662D01*
X0012412Y0020657D01*
X001241Y0020654D01*
X0012405Y0020634D01*
X00124Y0020585D01*
X0012395Y0020551D01*
X00124Y0020463D01*
X0012405Y0020448D01*
X001241Y0020423D01*
X0012434Y0020379D01*
X0012444Y0020369D01*
X0012449Y0020359D01*
X0012476Y0020332D01*
X001253Y0020308D01*
X0012589Y0020293D01*
X0012719Y0020291D01*
X0012729Y0020296D01*
X0012739Y0020335D01*
X0012734Y0020777D01*
X0012722Y0020789D01*
D02*
G37*
G36*
X0008949Y0020794D02*
X000894D01*
X0008827Y0020789D01*
X0008802Y0020779D01*
X0008792Y0020774D01*
X000878Y0020767D01*
X000877Y0020743D01*
X000876Y0020708D01*
X0008768Y0020671D01*
X0008777Y0020647D01*
X0008787Y0020637D01*
X0008797Y0020632D01*
X0008841Y0020612D01*
X0008959Y0020617D01*
X0008967Y0020639D01*
X0008962Y0020782D01*
X0008949Y0020794D01*
D02*
G37*
G36*
Y0020495D02*
X0008787Y002049D01*
X0008763Y002048D01*
X0008753Y0020475D01*
X0008731Y0020458D01*
X0008726Y0020448D01*
X0008716Y0020423D01*
X0008711Y0020404D01*
X0008716Y0020359D01*
X0008736Y0020325D01*
X0008748Y0020313D01*
X0008773Y0020303D01*
X00088Y0020296D01*
X0008876Y0020293D01*
X0008881D01*
X0008947Y0020291D01*
X0008957Y0020296D01*
X0008967Y002033D01*
X0008962Y0020482D01*
X0008949Y0020495D01*
D02*
G37*
G36*
X0006199Y0020794D02*
X0006135D01*
X0006071Y0020789D01*
X0006037Y002077D01*
X0006019Y0020752D01*
X000601Y0020713D01*
X0006015Y0020664D01*
X0006037Y0020637D01*
X0006066Y0020617D01*
X0006115Y0020612D01*
X0006204Y0020617D01*
X0006216Y002063D01*
X0006211Y0020782D01*
X0006199Y0020794D01*
D02*
G37*
G36*
X0006184Y0020495D02*
X0006032Y002049D01*
X0005988Y0020465D01*
X000597Y0020448D01*
X0005965Y0020428D01*
X0005961Y0020394D01*
X0005968Y0020347D01*
X000597Y0020345D01*
Y002034D01*
X0006002Y0020308D01*
X0006034Y00203D01*
X0006061Y0020293D01*
X0006182Y0020291D01*
X0006201Y0020296D01*
X0006211Y0020305D01*
X0006216Y0020325D01*
X0006211Y0020482D01*
X0006204Y002049D01*
X0006184Y0020495D01*
D02*
G37*
G36*
X0010398Y0020617D02*
X0010344Y0020612D01*
X0010317Y002059D01*
X0010307Y002058D01*
X0010298Y0020556D01*
X0010293Y0020536D01*
X0010298Y0020497D01*
X0010312Y0020472D01*
X0010335Y002045D01*
X0010374Y002044D01*
X0010428Y0020445D01*
X0010455Y0020467D01*
X001047Y0020482D01*
X0010479Y0020517D01*
X0010474Y0020561D01*
X001047Y0020576D01*
X0010467Y0020578D01*
X0010438Y0020607D01*
X0010398Y0020617D01*
D02*
G37*
G36*
X0010413Y0020195D02*
X0010411Y0020192D01*
X0010393Y002019D01*
X0010379Y0020195D01*
X0010342Y0020192D01*
X001032Y0020195D01*
X0010305Y002019D01*
X001028Y0020185D01*
X0010258Y0020168D01*
X0010253Y0020158D01*
X0010249Y0020143D01*
X0010253Y0020109D01*
X001028Y0020082D01*
X0010305Y0020072D01*
X0010362Y002007D01*
X0010384Y0020072D01*
X0010398Y0020067D01*
X0010413Y0020072D01*
X0010457Y0020077D01*
X0010484Y0020099D01*
X0010494Y0020109D01*
X0010499Y0020129D01*
X0010494Y0020163D01*
X0010467Y002019D01*
X001043Y0020192D01*
X0010418Y002019D01*
X0010413Y0020195D01*
D02*
G37*
G36*
X0035839Y0017718D02*
X0035687D01*
Y001723D01*
X0035835D01*
X0035847Y0017231D01*
X0035859D01*
X003587Y0017232D01*
X0035889Y0017235D01*
X0035903Y0017237D01*
X0035915Y001724D01*
X0035924Y0017242D01*
X0035928Y0017243D01*
X003593Y0017244D01*
X0035947Y0017253D01*
X0035963Y0017263D01*
X0035976Y0017275D01*
X0035988Y0017287D01*
X0035998Y0017298D01*
X0036005Y0017307D01*
X0036007Y0017311D01*
X0036009Y0017314D01*
X0036011Y0017315D01*
Y0017316D01*
X0036016Y0017326D01*
X0036022Y0017338D01*
X003603Y0017363D01*
X0036036Y0017388D01*
X003604Y0017413D01*
X0036041Y0017424D01*
X0036042Y0017436D01*
X0036043Y0017445D01*
Y0017453D01*
X0036044Y0017461D01*
Y0017465D01*
Y0017469D01*
Y001747D01*
X0036043Y0017496D01*
X0036041Y001752D01*
X0036038Y0017541D01*
X0036036Y0017559D01*
X0036034Y0017567D01*
X0036032Y0017573D01*
X003603Y001758D01*
X0036029Y0017584D01*
X0036028Y0017588D01*
X0036027Y0017591D01*
X0036026Y0017593D01*
Y0017594D01*
X003602Y0017611D01*
X0036013Y0017627D01*
X0036004Y0017641D01*
X0035997Y0017653D01*
X003599Y0017662D01*
X0035985Y0017669D01*
X0035981Y0017672D01*
X003598Y0017674D01*
X0035971Y0017682D01*
X0035962Y0017688D01*
X0035952Y0017694D01*
X0035943Y0017699D01*
X0035935Y0017703D01*
X0035928Y0017706D01*
X0035924Y0017706D01*
X0035922Y0017707D01*
X0035908Y0017711D01*
X0035891Y0017714D01*
X0035875Y0017716D01*
X0035859Y0017717D01*
X0035845Y0017718D01*
X0035839Y0017718D01*
D02*
G37*
G36*
X0034875Y0003822D02*
X003487D01*
X0034869D01*
X0034868D01*
X0034849Y000382D01*
X0034832Y0003817D01*
X0034817Y0003811D01*
X0034805Y0003805D01*
X0034796Y0003798D01*
X0034789Y0003793D01*
X0034785Y0003789D01*
X0034783Y0003787D01*
X0034778Y0003781D01*
X0034773Y0003772D01*
X0034766Y0003755D01*
X003476Y0003735D01*
X0034756Y0003716D01*
X0034754Y0003698D01*
X0034754Y0003691D01*
Y0003684D01*
X0034753Y0003678D01*
Y0003506D01*
X0034981D01*
Y0003689D01*
X003498Y0003706D01*
X0034979Y000372D01*
X0034978Y0003731D01*
X0034976Y0003738D01*
X0034975Y0003744D01*
X0034975Y0003747D01*
Y0003748D01*
X003497Y000376D01*
X0034964Y000377D01*
X0034959Y000378D01*
X0034952Y0003788D01*
X0034946Y0003794D01*
X0034941Y0003798D01*
X0034938Y0003801D01*
X0034937Y0003802D01*
X0034926Y0003808D01*
X0034914Y0003814D01*
X0034902Y0003818D01*
X0034892Y0003819D01*
X0034883Y0003821D01*
X0034875Y0003822D01*
D02*
G37*
G36*
X0026792Y0003098D02*
X0026563D01*
Y0002915D01*
X0026564Y0002898D01*
X0026565Y0002884D01*
X0026566Y0002873D01*
X0026568Y0002866D01*
X0026569Y000286D01*
X002657Y0002857D01*
Y0002856D01*
X0026574Y0002844D01*
X002658Y0002834D01*
X0026585Y0002824D01*
X0026592Y0002816D01*
X0026598Y000281D01*
X0026603Y0002806D01*
X0026607Y0002803D01*
X0026608Y0002802D01*
X0026619Y0002796D01*
X002663Y000279D01*
X0026642Y0002786D01*
X0026652Y0002785D01*
X0026661Y0002783D01*
X002667Y0002782D01*
X0026674D01*
X0026675D01*
X0026676D01*
X0026695Y0002784D01*
X0026712Y0002787D01*
X0026727Y0002793D01*
X0026739Y0002799D01*
X0026748Y0002806D01*
X0026756Y0002811D01*
X0026759Y0002815D01*
X0026761Y0002817D01*
X0026767Y0002823D01*
X0026771Y0002832D01*
X0026779Y0002849D01*
X0026784Y0002869D01*
X0026788Y0002888D01*
X002679Y0002906D01*
X0026791Y0002913D01*
Y000292D01*
X0026792Y0002926D01*
Y0003098D01*
D02*
G37*
G36*
X0016052Y0011226D02*
X0015862D01*
Y0011014D01*
X0016063D01*
X0016088Y0011015D01*
X001611Y0011018D01*
X0016128Y0011023D01*
X0016142Y0011029D01*
X0016154Y0011034D01*
X0016161Y0011039D01*
X0016166Y0011042D01*
X0016168Y0011043D01*
X0016179Y0011055D01*
X0016187Y0011067D01*
X0016193Y001108D01*
X0016198Y0011091D01*
X0016199Y0011103D01*
X00162Y0011111D01*
X0016201Y0011116D01*
Y0011117D01*
Y0011118D01*
X00162Y0011129D01*
X0016198Y001114D01*
X0016196Y001115D01*
X0016193Y0011158D01*
X0016189Y0011165D01*
X0016186Y0011171D01*
X0016185Y0011175D01*
X0016184Y0011176D01*
X0016177Y0011185D01*
X0016169Y0011193D01*
X0016161Y00112D01*
X0016152Y0011205D01*
X0016145Y0011209D01*
X0016139Y0011212D01*
X0016136Y0011214D01*
X0016134Y0011214D01*
X0016121Y0011218D01*
X0016106Y0011221D01*
X0016091Y0011223D01*
X0016076Y0011224D01*
X0016063Y0011225D01*
X0016052Y0011226D01*
D02*
G37*
G36*
X0007123Y0030476D02*
X0007115D01*
X000711D01*
X0007109D01*
X0007108D01*
X000708D01*
X0007054Y0030475D01*
X0007031Y0030473D01*
X0007008Y0030471D01*
X000699Y0030468D01*
X0006972Y0030464D01*
X0006957Y0030461D01*
X0006944Y0030458D01*
X0006932Y0030454D01*
X0006923Y0030451D01*
X0006915Y0030448D01*
X0006908Y0030444D01*
X0006904Y0030442D01*
X0006901Y003044D01*
X0006899Y0030439D01*
X0006898D01*
X0006889Y0030431D01*
X0006882Y0030424D01*
X0006874Y0030416D01*
X0006869Y0030409D01*
X0006859Y0030393D01*
X0006853Y0030379D01*
X0006849Y0030366D01*
X0006847Y0030357D01*
X0006847Y0030354D01*
Y0030348D01*
X0006847Y0030338D01*
X0006848Y0030329D01*
X0006855Y0030311D01*
X0006863Y0030295D01*
X0006872Y0030281D01*
X0006882Y0030271D01*
X000689Y0030263D01*
X0006896Y0030258D01*
X0006897Y0030256D01*
X0006898D01*
X0006909Y003025D01*
X0006922Y0030244D01*
X0006937Y0030239D01*
X0006953Y0030235D01*
X0006969Y0030231D01*
X0006987Y0030229D01*
X0007023Y0030224D01*
X000704Y0030222D01*
X0007055Y0030221D01*
X000707Y003022D01*
X0007082D01*
X0007093Y0030219D01*
X0007102D01*
X0007106D01*
X0007108D01*
X0007137Y003022D01*
X0007163Y0030221D01*
X0007187Y0030223D01*
X0007209Y0030226D01*
X0007228Y0030229D01*
X0007246Y0030232D01*
X0007262Y0030236D01*
X0007276Y003024D01*
X0007288Y0030243D01*
X0007298Y0030246D01*
X0007306Y003025D01*
X0007313Y0030253D01*
X0007318Y0030255D01*
X0007322Y0030257D01*
X0007324Y0030259D01*
X0007325D01*
X0007333Y0030266D01*
X000734Y0030272D01*
X0007346Y003028D01*
X0007351Y0030287D01*
X000736Y0030302D01*
X0007365Y0030316D01*
X0007368Y0030328D01*
X000737Y0030338D01*
X0007371Y0030341D01*
Y0030347D01*
X000737Y0030357D01*
X0007369Y0030367D01*
X0007366Y0030377D01*
X0007362Y0030385D01*
X0007354Y0030401D01*
X0007345Y0030415D01*
X0007335Y0030425D01*
X0007326Y0030433D01*
X0007323Y0030436D01*
X000732Y0030438D01*
X0007319Y0030439D01*
X0007318D01*
X0007307Y0030446D01*
X0007294Y0030451D01*
X0007279Y0030457D01*
X0007264Y0030461D01*
X0007247Y0030464D01*
X0007229Y0030467D01*
X0007194Y0030472D01*
X0007177Y0030474D01*
X0007161Y0030475D01*
X0007146Y0030476D01*
X0007134D01*
X0007123Y0030476D01*
D02*
G37*
G36*
X0007259Y0029355D02*
X0007258D01*
X0007257D01*
X0007246Y0029354D01*
X0007235Y0029352D01*
X0007226Y0029349D01*
X0007217Y0029347D01*
X000721Y0029343D01*
X0007204Y002934D01*
X0007201Y0029338D01*
X00072Y0029337D01*
X000719Y0029331D01*
X0007182Y0029323D01*
X0007176Y0029314D01*
X000717Y0029306D01*
X0007166Y0029299D01*
X0007164Y0029293D01*
X0007162Y0029289D01*
X0007161Y0029287D01*
X0007157Y0029275D01*
X0007154Y002926D01*
X0007153Y0029245D01*
X0007152Y002923D01*
X0007151Y0029217D01*
X000715Y0029206D01*
Y0029016D01*
X0007361D01*
Y0029217D01*
X0007361Y0029242D01*
X0007357Y0029263D01*
X0007352Y0029282D01*
X0007347Y0029296D01*
X0007341Y0029308D01*
X0007337Y0029315D01*
X0007333Y002932D01*
X0007332Y0029322D01*
X000732Y0029333D01*
X0007308Y0029341D01*
X0007295Y0029347D01*
X0007284Y0029351D01*
X0007273Y0029353D01*
X0007264Y0029354D01*
X0007259Y0029355D01*
D02*
G37*
G36*
X0005828Y0030477D02*
X0005819D01*
X0005815D01*
X0005814D01*
X0005813D01*
X0005784D01*
X0005758Y0030475D01*
X0005735Y0030474D01*
X0005713Y0030472D01*
X0005694Y0030469D01*
X0005677Y0030465D01*
X0005662Y0030462D01*
X0005648Y0030459D01*
X0005637Y0030455D01*
X0005628Y0030451D01*
X000562Y0030449D01*
X0005613Y0030445D01*
X0005608Y0030443D01*
X0005606Y0030441D01*
X0005604Y0030439D01*
X0005603D01*
X0005594Y0030432D01*
X0005586Y0030425D01*
X0005579Y0030417D01*
X0005573Y003041D01*
X0005564Y0030394D01*
X0005558Y003038D01*
X0005554Y0030367D01*
X0005552Y0030358D01*
X0005551Y0030354D01*
Y0030349D01*
X0005552Y0030339D01*
X0005553Y0030329D01*
X0005559Y0030312D01*
X0005568Y0030296D01*
X0005577Y0030282D01*
X0005586Y0030272D01*
X0005595Y0030264D01*
X0005601Y0030259D01*
X0005602Y0030257D01*
X0005603D01*
X0005614Y0030251D01*
X0005627Y0030245D01*
X0005642Y003024D01*
X0005657Y0030236D01*
X0005674Y0030232D01*
X0005692Y003023D01*
X0005728Y0030225D01*
X0005744Y0030223D01*
X000576Y0030222D01*
X0005775Y0030221D01*
X0005787D01*
X0005798Y003022D01*
X0005806D01*
X0005811D01*
X0005813D01*
X0005841Y0030221D01*
X0005867Y0030222D01*
X0005891Y0030224D01*
X0005914Y0030227D01*
X0005933Y003023D01*
X0005951Y0030233D01*
X0005966Y0030237D01*
X000598Y0030241D01*
X0005992Y0030244D01*
X0006002Y0030247D01*
X0006011Y0030251D01*
X0006018Y0030254D01*
X0006023Y0030256D01*
X0006026Y0030258D01*
X0006028Y003026D01*
X0006029D01*
X0006037Y0030267D01*
X0006045Y0030273D01*
X000605Y003028D01*
X0006056Y0030288D01*
X0006064Y0030303D01*
X000607Y0030316D01*
X0006073Y0030328D01*
X0006074Y0030339D01*
X0006075Y0030342D01*
Y0030348D01*
X0006074Y0030358D01*
X0006074Y0030368D01*
X0006071Y0030377D01*
X0006067Y0030386D01*
X0006059Y0030402D01*
X0006049Y0030415D01*
X0006039Y0030426D01*
X0006031Y0030434D01*
X0006027Y0030437D01*
X0006024Y0030439D01*
X0006024Y003044D01*
X0006023D01*
X0006012Y0030447D01*
X0005999Y0030452D01*
X0005984Y0030458D01*
X0005968Y0030462D01*
X0005951Y0030465D01*
X0005934Y0030468D01*
X0005899Y0030473D01*
X0005881Y0030475D01*
X0005865Y0030475D01*
X0005851Y0030476D01*
X0005839D01*
X0005828Y0030477D01*
D02*
G37*
G36*
X0004744Y0015029D02*
X0004743D01*
X0004742D01*
X0004731Y0015028D01*
X000472Y0015027D01*
X0004711Y0015024D01*
X0004703Y0015021D01*
X0004695Y0015017D01*
X000469Y0015015D01*
X0004686Y0015013D01*
X0004685Y0015012D01*
X0004676Y0015005D01*
X0004668Y0014997D01*
X0004661Y0014989D01*
X0004656Y001498D01*
X0004652Y0014973D01*
X0004649Y0014967D01*
X0004647Y0014964D01*
X0004646Y0014962D01*
X0004643Y0014949D01*
X000464Y0014934D01*
X0004638Y0014919D01*
X0004637Y0014905D01*
X0004636Y0014892D01*
X0004635Y0014881D01*
Y001469D01*
X0004847D01*
Y0014892D01*
X0004846Y0014917D01*
X0004842Y0014938D01*
X0004838Y0014956D01*
X0004832Y001497D01*
X0004827Y0014982D01*
X0004822Y001499D01*
X0004818Y0014994D01*
X0004817Y0014996D01*
X0004805Y0015007D01*
X0004793Y0015016D01*
X000478Y0015021D01*
X0004769Y0015026D01*
X0004758Y0015028D01*
X000475Y0015028D01*
X0004744Y0015029D01*
D02*
G37*
G36*
X-0000088Y0001081D02*
X-0000271D01*
Y0000861D01*
X-0000102D01*
X-0000083Y0000863D01*
X-0000067Y0000865D01*
X-0000054Y0000867D01*
X-0000044Y0000869D01*
X-0000036Y0000871D01*
X-0000032Y0000872D01*
X-000003Y0000873D01*
X-0000018Y0000877D01*
X-0000008Y0000883D01*
X0000001Y0000889D01*
X0000009Y0000896D01*
X0000014Y0000901D01*
X0000018Y0000906D01*
X0000021Y000091D01*
X0000022Y000091D01*
X0000028Y0000921D01*
X0000033Y0000931D01*
X0000036Y0000941D01*
X0000038Y000095D01*
X000004Y0000959D01*
X0000041Y0000966D01*
Y000097D01*
Y0000971D01*
X000004Y0000983D01*
X0000039Y0000994D01*
X0000037Y0001003D01*
X0000035Y000101D01*
X0000032Y0001017D01*
X000003Y0001022D01*
X0000029Y0001025D01*
X0000028Y0001026D01*
X0000023Y0001034D01*
X0000018Y0001042D01*
X0000011Y0001047D01*
X0000007Y0001053D01*
X0000002Y0001057D01*
X-0000001Y0001059D01*
X-0000004Y0001061D01*
X-0000005Y0001062D01*
X-0000021Y0001069D01*
X-0000037Y0001075D01*
X-0000043Y0001077D01*
X-0000049Y0001078D01*
X-0000052Y0001079D01*
X-0000053D01*
X-0000061Y000108D01*
X-0000069Y0001081D01*
X-0000088Y0001081D01*
D02*
G37*
G36*
X-0000113Y0000786D02*
X-0000271D01*
Y0000593D01*
X-0000119D01*
X-0000099Y0000595D01*
X-0000083Y0000596D01*
X-0000069Y0000598D01*
X-0000059Y00006D01*
X-0000052Y0000601D01*
X-0000048Y0000603D01*
X-0000047D01*
X-0000037Y0000606D01*
X-0000027Y0000612D01*
X-000002Y0000617D01*
X-0000014Y0000623D01*
X-0000009Y0000628D01*
X-0000005Y0000632D01*
X-0000003Y0000635D01*
X-0000002Y0000636D01*
X0000003Y0000645D01*
X0000007Y0000654D01*
X000001Y0000664D01*
X0000011Y0000673D01*
X0000012Y000068D01*
X0000013Y0000686D01*
Y0000689D01*
Y0000691D01*
X0000012Y0000703D01*
X0000011Y0000714D01*
X0000008Y0000724D01*
X0000005Y0000731D01*
X0000002Y0000738D01*
X-0000001Y0000743D01*
X-0000002Y0000746D01*
X-0000003Y0000747D01*
X-000001Y0000754D01*
X-0000018Y0000762D01*
X-0000026Y0000767D01*
X-0000034Y0000771D01*
X-0000041Y0000775D01*
X-0000047Y0000777D01*
X-0000051Y0000778D01*
X-0000052Y0000779D01*
X-0000063Y0000781D01*
X-0000075Y0000783D01*
X-0000088Y0000784D01*
X-0000101Y0000785D01*
X-0000113Y0000786D01*
D02*
G37*
G36*
X0001224Y0001096D02*
X0001219D01*
X0001201Y0001095D01*
X0001185Y0001094D01*
X000117Y000109D01*
X0001155Y0001086D01*
X0001141Y0001081D01*
X0001128Y0001075D01*
X0001116Y0001069D01*
X0001105Y0001063D01*
X0001096Y0001057D01*
X0001088Y0001051D01*
X000108Y0001045D01*
X0001074Y000104D01*
X0001069Y0001036D01*
X0001065Y0001032D01*
X0001064Y0001031D01*
X0001063Y000103D01*
X0001052Y0001017D01*
X0001042Y0001003D01*
X0001034Y0000988D01*
X0001027Y0000973D01*
X0001021Y0000958D01*
X0001016Y0000943D01*
X0001008Y0000913D01*
X0001006Y00009D01*
X0001004Y0000887D01*
X0001003Y0000876D01*
X0001002Y0000867D01*
X0001001Y0000859D01*
Y0000852D01*
Y0000849D01*
Y0000848D01*
X0001002Y0000822D01*
X0001003Y0000798D01*
X0001006Y0000775D01*
X0001011Y0000754D01*
X0001016Y0000736D01*
X0001021Y0000719D01*
X0001028Y0000703D01*
X0001033Y000069D01*
X000104Y0000678D01*
X0001045Y0000668D01*
X0001051Y000066D01*
X0001055Y0000653D01*
X000106Y0000648D01*
X0001063Y0000644D01*
X0001065Y0000642D01*
X0001065Y0000641D01*
X0001077Y000063D01*
X000109Y0000621D01*
X0001103Y0000613D01*
X0001117Y0000605D01*
X000113Y00006D01*
X0001143Y0000594D01*
X0001167Y0000587D01*
X0001178Y0000585D01*
X0001188Y0000583D01*
X0001197Y0000581D01*
X0001205Y000058D01*
X0001212Y0000579D01*
X000122D01*
X0001243Y000058D01*
X0001265Y0000584D01*
X0001285Y000059D01*
X0001301Y0000595D01*
X0001315Y0000602D01*
X0001321Y0000604D01*
X0001325Y0000606D01*
X000133Y0000609D01*
X0001333Y000061D01*
X0001334Y0000612D01*
X0001334D01*
X0001352Y0000625D01*
X0001368Y000064D01*
X0001382Y0000654D01*
X0001393Y0000669D01*
X0001401Y0000682D01*
X0001408Y0000693D01*
X0001409Y0000697D01*
X0001411Y00007D01*
X0001412Y0000701D01*
Y0000702D01*
X0001421Y0000725D01*
X0001428Y0000749D01*
X0001433Y0000771D01*
X0001435Y0000792D01*
X0001437Y0000802D01*
X0001438Y0000811D01*
Y0000819D01*
X0001439Y0000825D01*
Y0000831D01*
Y0000835D01*
Y0000837D01*
Y0000838D01*
X0001438Y0000861D01*
X0001436Y0000882D01*
X0001433Y0000902D01*
X000143Y0000921D01*
X0001424Y0000937D01*
X000142Y0000953D01*
X0001414Y0000968D01*
X0001408Y0000981D01*
X0001402Y0000992D01*
X0001396Y0001002D01*
X0001392Y000101D01*
X0001387Y0001017D01*
X0001383Y0001022D01*
X000138Y0001027D01*
X0001378Y0001029D01*
X0001377Y000103D01*
X0001365Y0001042D01*
X0001352Y0001052D01*
X0001339Y000106D01*
X0001326Y0001069D01*
X0001313Y0001075D01*
X0001299Y000108D01*
X0001287Y0001084D01*
X0001274Y0001088D01*
X0001263Y0001091D01*
X0001252Y0001093D01*
X0001243Y0001094D01*
X0001235Y0001095D01*
X0001228D01*
X0001224Y0001096D01*
D02*
G37*
G36*
X0000528D02*
X0000524D01*
X0000506Y0001095D01*
X0000489Y0001094D01*
X0000475Y000109D01*
X000046Y0001086D01*
X0000446Y0001081D01*
X0000433Y0001075D01*
X0000421Y0001069D01*
X000041Y0001063D01*
X0000401Y0001057D01*
X0000392Y0001051D01*
X0000385Y0001045D01*
X0000379Y000104D01*
X0000374Y0001036D01*
X000037Y0001032D01*
X0000368Y0001031D01*
X0000367Y000103D01*
X0000356Y0001017D01*
X0000347Y0001003D01*
X0000339Y0000988D01*
X0000331Y0000973D01*
X0000326Y0000958D01*
X000032Y0000943D01*
X0000313Y0000913D01*
X0000311Y00009D01*
X0000309Y0000887D01*
X0000307Y0000876D01*
X0000306Y0000867D01*
X0000305Y0000859D01*
Y0000852D01*
Y0000849D01*
Y0000848D01*
X0000306Y0000822D01*
X0000308Y0000798D01*
X0000311Y0000775D01*
X0000316Y0000754D01*
X000032Y0000736D01*
X0000326Y0000719D01*
X0000332Y0000703D01*
X0000338Y000069D01*
X0000344Y0000678D01*
X000035Y0000668D01*
X0000355Y000066D01*
X000036Y0000653D01*
X0000365Y0000648D01*
X0000367Y0000644D01*
X0000369Y0000642D01*
X000037Y0000641D01*
X0000382Y000063D01*
X0000395Y0000621D01*
X0000408Y0000613D01*
X0000422Y0000605D01*
X0000435Y00006D01*
X0000448Y0000594D01*
X0000472Y0000587D01*
X0000483Y0000585D01*
X0000493Y0000583D01*
X0000501Y0000581D01*
X000051Y000058D01*
X0000516Y0000579D01*
X0000525D01*
X0000548Y000058D01*
X000057Y0000584D01*
X0000589Y000059D01*
X0000606Y0000595D01*
X000062Y0000602D01*
X0000625Y0000604D01*
X000063Y0000606D01*
X0000635Y0000609D01*
X0000637Y000061D01*
X0000638Y0000612D01*
X0000639D01*
X0000657Y0000625D01*
X0000673Y000064D01*
X0000686Y0000654D01*
X0000697Y0000669D01*
X0000706Y0000682D01*
X0000712Y0000693D01*
X0000714Y0000697D01*
X0000716Y00007D01*
X0000717Y0000701D01*
Y0000702D01*
X0000726Y0000725D01*
X0000733Y0000749D01*
X0000737Y0000771D01*
X000074Y0000792D01*
X0000742Y0000802D01*
X0000743Y0000811D01*
Y0000819D01*
X0000744Y0000825D01*
Y0000831D01*
Y0000835D01*
Y0000837D01*
Y0000838D01*
X0000743Y0000861D01*
X0000741Y0000882D01*
X0000738Y0000902D01*
X0000734Y0000921D01*
X0000729Y0000937D01*
X0000724Y0000953D01*
X0000719Y0000968D01*
X0000713Y0000981D01*
X0000707Y0000992D01*
X0000701Y0001002D01*
X0000697Y000101D01*
X0000692Y0001017D01*
X0000687Y0001022D01*
X0000685Y0001027D01*
X0000683Y0001029D01*
X0000682Y000103D01*
X000067Y0001042D01*
X0000657Y0001052D01*
X0000644Y000106D01*
X0000631Y0001069D01*
X0000618Y0001075D01*
X0000604Y000108D01*
X0000592Y0001084D01*
X0000579Y0001088D01*
X0000568Y0001091D01*
X0000557Y0001093D01*
X0000548Y0001094D01*
X0000539Y0001095D01*
X0000533D01*
X0000528Y0001096D01*
D02*
G37*
%LPD*%
D10*
X0023394Y0003728D02*
G03*
X0023394Y0003728I-00001J0D01*
G01*
D11*
X0Y0000025D02*
X0037389D01*
X0Y-0002819D02*
Y0000025D01*
Y-0002819D02*
X0037389D01*
Y0000025D01*
D12*
X0023928Y000633D02*
X0024344D01*
Y001003D01*
X0022773D02*
X0024344D01*
X0017644Y000633D02*
X0018061D01*
X0017644D02*
Y001003D01*
X0019216D01*
D36*
X-0002245Y0001781D02*
X-0000885D01*
X-0002245Y0011021D02*
X-0000885D01*
X-0005915D02*
X-0005085D01*
X-0005915Y0001781D02*
Y0011021D01*
Y0001781D02*
X-0005085D01*
D48*
X0005097Y0013866D02*
G03*
X0005097Y0013866I-00005J0D01*
G01*
X0037377Y0017476D02*
G03*
X0037377Y0017476I-00005J0D01*
G01*
X0006367Y0031366D02*
G03*
X0006367Y0031366I-00005J0D01*
G01*
X0007637D02*
G03*
X0007637Y0031366I-00005J0D01*
G01*
X0003827Y0013866D02*
G03*
X0003827Y0013866I-00005J0D01*
G01*
X0027258Y0004978D02*
G03*
X0027258Y0004978I-00005J0D01*
G01*
X0028848D02*
G03*
X0028848Y0004978I-00005J0D01*
G01*
X0033404Y00016D02*
G03*
X0033404Y00016I-00005J0D01*
G01*
X0035273D02*
G03*
X0035273Y00016I-00005J0D01*
G01*
X-0000509Y0000838D02*
G03*
X-0000509Y0000838I-00005J0D01*
G01*
X0018687Y0011241D02*
G03*
X0018687Y0011241I-00005J0D01*
G01*
M02*
