G04*
G04 #@! TF.GenerationSoftware,Altium Limited,Altium Designer,23.0.1 (38)*
G04*
G04 Layer_Physical_Order=2*
G04 Layer_Color=16711680*
%FSTAX44Y44*%
%MOMM*%
G71*
G04*
G04 #@! TF.SameCoordinates,70A70F08-58DB-409B-8D52-4F46F491BF6E*
G04*
G04*
G04 #@! TF.FilePolarity,Positive*
G04*
G01*
G75*
G04:AMPARAMS|DCode=27|XSize=1.5mm|YSize=2.5mm|CornerRadius=0.375mm|HoleSize=0mm|Usage=FLASHONLY|Rotation=180.000|XOffset=0mm|YOffset=0mm|HoleType=Round|Shape=RoundedRectangle|*
%AMROUNDEDRECTD27*
21,1,1.5000,1.7500,0,0,180.0*
21,1,0.7500,2.5000,0,0,180.0*
1,1,0.7500,-0.3750,0.8750*
1,1,0.7500,0.3750,0.8750*
1,1,0.7500,0.3750,-0.8750*
1,1,0.7500,-0.3750,-0.8750*
%
%ADD27ROUNDEDRECTD27*%
%ADD35C,0.7000*%
%ADD36C,0.1500*%
%ADD38O,1.8000X1.0000*%
%ADD39O,2.2000X1.0000*%
%ADD40C,0.5000*%
%ADD41R,1.1500X0.2980*%
%ADD42R,1.1500X0.5900*%
%ADD43C,1.0000*%
%ADD44R,3.1900X1.8600*%
%ADD45R,0.9000X1.8600*%
G36*
X00184143Y00312702D02*
X00183945Y00312892D01*
X00183745Y00313062D01*
X00183542Y00313212D01*
X00183336Y00313342D01*
X00183128Y00313452D01*
X00182916Y00313542D01*
X00182702Y00313612D01*
X00182485Y00313662D01*
X00182266Y00313692D01*
X00182043Y00313702D01*
Y00315202D01*
X00182266Y00315212D01*
X00182485Y00315242D01*
X00182702Y00315292D01*
X00182916Y00315362D01*
X00183128Y00315452D01*
X00183336Y00315562D01*
X00183542Y00315692D01*
X00183745Y00315842D01*
X00183945Y00316012D01*
X00184143Y00316202D01*
Y00312702D01*
D02*
G37*
G36*
X00226468Y00224323D02*
X00226944Y00223175D01*
X00228092Y002227D01*
X00239864D01*
X00240051Y00222249D01*
X00240816Y00221932D01*
X00370816D01*
X00371581Y00222249D01*
X00371768Y002227D01*
X00381916D01*
Y00001878D01*
X00373888D01*
X00373446Y00002173D01*
Y00117094D01*
X00373129Y00117859D01*
X00371097Y00119891D01*
X00370332Y00120208D01*
X00232858Y00120208D01*
X00230444Y00122622D01*
X00230444Y0015113D01*
X00230127Y00151896D01*
X00230127Y00151896D01*
X00228095Y00153927D01*
X00228095Y00153927D01*
X0022733Y00154244D01*
X00210252Y00154244D01*
X00209362Y00155134D01*
Y00165861D01*
X00209363Y00165861D01*
X00209045Y00166626D01*
X00209045Y00166626D01*
X00203907Y00171765D01*
X00204393Y00172938D01*
X00251357D01*
X00254922Y00169373D01*
Y00136249D01*
X00254892Y00136157D01*
X00254838Y0013603D01*
X00254768Y00135898D01*
X00254682Y00135761D01*
X00254577Y0013562D01*
X00254453Y00135473D01*
X00254286Y001353D01*
X00254211Y00135109D01*
X00253316Y00134214D01*
Y00131314D01*
X00255366Y00129264D01*
X00258266D01*
X00260316Y00131314D01*
Y00134214D01*
X00259421Y00135109D01*
X00259346Y001353D01*
X00259179Y00135473D01*
X00259055Y0013562D01*
X0025895Y00135762D01*
X00258864Y00135898D01*
X00258794Y0013603D01*
X0025874Y00136157D01*
X0025871Y00136249D01*
Y00170158D01*
X0025871Y00170158D01*
X00258155Y00171497D01*
X00258155Y00171497D01*
X00255388Y00174265D01*
X00255874Y00175438D01*
X00261303D01*
X00268922Y00167819D01*
Y00136249D01*
X00268892Y00136157D01*
X00268838Y0013603D01*
X00268768Y00135898D01*
X00268682Y00135761D01*
X00268577Y0013562D01*
X00268453Y00135473D01*
X00268286Y001353D01*
X00268211Y00135109D01*
X00267316Y00134214D01*
Y00131314D01*
X00269366Y00129264D01*
X00272266D01*
X00274316Y00131314D01*
Y00134214D01*
X00273421Y00135109D01*
X00273346Y001353D01*
X00273179Y00135473D01*
X00273055Y0013562D01*
X0027295Y00135762D01*
X00272864Y00135898D01*
X00272794Y0013603D01*
X0027274Y00136157D01*
X0027271Y00136249D01*
Y00168604D01*
X00272155Y00169943D01*
X00272155Y00169943D01*
X00265334Y00176765D01*
X0026582Y00177938D01*
X00274805D01*
X00282922Y00169821D01*
Y00136249D01*
X00282892Y00136157D01*
X00282838Y0013603D01*
X00282768Y00135898D01*
X00282682Y00135761D01*
X00282577Y0013562D01*
X00282453Y00135473D01*
X00282286Y001353D01*
X00282211Y00135109D01*
X00281316Y00134214D01*
Y00131314D01*
X00283366Y00129264D01*
X00286266D01*
X00288316Y00131314D01*
Y00134214D01*
X00287421Y00135109D01*
X00287346Y001353D01*
X00287179Y00135473D01*
X00287055Y0013562D01*
X0028695Y00135762D01*
X00286864Y00135898D01*
X00286794Y0013603D01*
X0028674Y00136157D01*
X0028671Y00136249D01*
Y00170606D01*
X00286155Y00171945D01*
X00276929Y00181171D01*
X0027559Y00181726D01*
X00204061D01*
X00203708Y00181872D01*
X00182757D01*
X00180456Y00184173D01*
Y00225529D01*
X00184905Y00229978D01*
X00195079D01*
X0019516Y00229958D01*
X00195538Y00229834D01*
X00195705Y00229764D01*
X00196134Y00229552D01*
X00196251Y00229485D01*
X00196724Y00229012D01*
X00199624D01*
X00201674Y00231062D01*
Y00233962D01*
X00199624Y00236012D01*
X00196724D01*
X00194674Y00233962D01*
Y00233839D01*
X00194656Y00233826D01*
X00194579Y00233785D01*
X00194532Y00233766D01*
X0018412D01*
X00182781Y00233211D01*
X0017913Y0022956D01*
X00177956Y00230046D01*
Y00235781D01*
X00185493Y00243318D01*
X0019469D01*
X00194781Y00243288D01*
X00194908Y00243234D01*
X0019504Y00243164D01*
X00195177Y00243078D01*
X00195318Y00242973D01*
X00195465Y00242849D01*
X00195638Y00242682D01*
X00195829Y00242607D01*
X00196724Y00241712D01*
X00199624D01*
X00201674Y00243762D01*
Y00246662D01*
X00199624Y00248712D01*
X00196724D01*
X00195829Y00247817D01*
X00195638Y00247742D01*
X00195465Y00247575D01*
X00195318Y00247451D01*
X00195176Y00247346D01*
X0019504Y0024726D01*
X00194908Y0024719D01*
X00194781Y00247136D01*
X0019469Y00247106D01*
X00184708D01*
X00183369Y00246551D01*
X0017663Y00239812D01*
X00175456Y00240298D01*
Y0024681D01*
X00184664Y00256018D01*
X0019469D01*
X00194781Y00255988D01*
X00194908Y00255934D01*
X0019504Y00255864D01*
X00195177Y00255778D01*
X00195318Y00255673D01*
X00195465Y00255549D01*
X00195638Y00255382D01*
X00195829Y00255307D01*
X00196724Y00254412D01*
X00199624D01*
X00201674Y00256462D01*
Y00259362D01*
X00199624Y00261412D01*
X00196724D01*
X00195829Y00260517D01*
X00195638Y00260442D01*
X00195465Y00260275D01*
X00195318Y00260151D01*
X00195176Y00260046D01*
X0019504Y0025996D01*
X00194908Y0025989D01*
X00194781Y00259836D01*
X0019469Y00259806D01*
X0018388D01*
X0018254Y00259251D01*
X00174009Y00250721D01*
X00172836Y00251206D01*
Y00307571D01*
X00177823Y00312558D01*
X00182444D01*
X00182535Y00312528D01*
X00182662Y00312474D01*
X00182794Y00312404D01*
X00182931Y00312318D01*
X00183072Y00312213D01*
X00183219Y00312089D01*
X00183392Y00311922D01*
X00183583Y00311847D01*
X00184478Y00310952D01*
X00187378D01*
X00189428Y00313002D01*
Y00315902D01*
X00187378Y00317952D01*
X00184478D01*
X00183583Y00317057D01*
X00183392Y00316982D01*
X00183219Y00316815D01*
X00183072Y00316691D01*
X0018293Y00316586D01*
X00182794Y003165D01*
X00182662Y0031643D01*
X00182535Y00316376D01*
X00182444Y00316346D01*
X00177038D01*
X00175699Y00315791D01*
X00169603Y00309695D01*
X00169048Y00308356D01*
Y00181633D01*
X00164287Y00176872D01*
X00029436D01*
X00028097Y00176317D01*
X00015497Y00163718D01*
X00014324Y00164204D01*
Y00321718D01*
X00226468D01*
Y00224323D01*
D02*
G37*
G36*
X00196389Y00256162D02*
X00196191Y00256352D01*
X00195991Y00256522D01*
X00195788Y00256672D01*
X00195582Y00256802D01*
X00195374Y00256912D01*
X00195162Y00257002D01*
X00194948Y00257072D01*
X00194731Y00257122D01*
X00194512Y00257152D01*
X00194289Y00257162D01*
Y00258662D01*
X00194512Y00258672D01*
X00194731Y00258702D01*
X00194948Y00258752D01*
X00195162Y00258822D01*
X00195374Y00258912D01*
X00195582Y00259022D01*
X00195788Y00259152D01*
X00195991Y00259302D01*
X00196191Y00259472D01*
X00196389Y00259662D01*
Y00256162D01*
D02*
G37*
G36*
Y00243462D02*
X00196191Y00243652D01*
X00195991Y00243822D01*
X00195788Y00243972D01*
X00195582Y00244102D01*
X00195374Y00244212D01*
X00195162Y00244302D01*
X00194948Y00244372D01*
X00194731Y00244422D01*
X00194512Y00244452D01*
X00194289Y00244462D01*
Y00245962D01*
X00194512Y00245972D01*
X00194731Y00246002D01*
X00194948Y00246052D01*
X00195162Y00246122D01*
X00195374Y00246212D01*
X00195582Y00246322D01*
X00195788Y00246452D01*
X00195991Y00246602D01*
X00196191Y00246772D01*
X00196389Y00246962D01*
Y00243462D01*
D02*
G37*
G36*
X00196896Y00230363D02*
X00196644Y00230507D01*
X00196153Y0023075D01*
X00195916Y00230849D01*
X00195456Y00231001D01*
X00195233Y00231054D01*
X00195016Y00231092D01*
X00194803Y00231114D01*
X00194596Y00231122D01*
X00194176Y00232622D01*
X00194408Y00232633D01*
X00194629Y00232667D01*
X00194838Y00232723D01*
X00195037Y00232802D01*
X00195225Y00232903D01*
X00195402Y00233027D01*
X00195568Y00233173D01*
X00195723Y00233342D01*
X00195867Y00233533D01*
X00196Y00233747D01*
X00196896Y00230363D01*
D02*
G37*
G36*
X00066584Y00147715D02*
X00066414Y00147515D01*
X00066264Y00147312D01*
X00066134Y00147106D01*
X00066024Y00146898D01*
X00065934Y00146686D01*
X00065864Y00146472D01*
X00065814Y00146255D01*
X00065784Y00146036D01*
X00065774Y00145813D01*
X00064274D01*
X00064264Y00146036D01*
X00064234Y00146255D01*
X00064184Y00146472D01*
X00064114Y00146686D01*
X00064024Y00146898D01*
X00063914Y00147106D01*
X00063784Y00147312D01*
X00063634Y00147515D01*
X00063464Y00147715D01*
X00063274Y00147913D01*
X00066774D01*
X00066584Y00147715D01*
D02*
G37*
G36*
X00054646D02*
X00054476Y00147515D01*
X00054326Y00147312D01*
X00054196Y00147106D01*
X00054086Y00146898D01*
X00053996Y00146686D01*
X00053926Y00146472D01*
X00053876Y00146255D01*
X00053846Y00146036D01*
X00053836Y00145813D01*
X00052336D01*
X00052326Y00146036D01*
X00052296Y00146255D01*
X00052246Y00146472D01*
X00052176Y00146686D01*
X00052086Y00146898D01*
X00051976Y00147106D01*
X00051846Y00147312D01*
X00051696Y00147515D01*
X00051526Y00147715D01*
X00051336Y00147913D01*
X00054836D01*
X00054646Y00147715D01*
D02*
G37*
G36*
X00186434Y00142324D02*
X00186464Y00142105D01*
X00186514Y00141888D01*
X00186584Y00141674D01*
X00186674Y00141462D01*
X00186784Y00141254D01*
X00186914Y00141048D01*
X00187064Y00140845D01*
X00187234Y00140645D01*
X00187424Y00140447D01*
X00183924D01*
X00184114Y00140645D01*
X00184284Y00140845D01*
X00184434Y00141048D01*
X00184564Y00141254D01*
X00184674Y00141462D01*
X00184764Y00141674D01*
X00184834Y00141888D01*
X00184884Y00142105D01*
X00184914Y00142324D01*
X00184924Y00142547D01*
X00186424D01*
X00186434Y00142324D01*
D02*
G37*
G36*
X00173978Y00142451D02*
X00173987Y00142234D01*
X00174015Y00142016D01*
X00174061Y00141798D01*
X00174125Y00141579D01*
X00174208Y0014136D01*
X00174309Y00141141D01*
X00174428Y00140921D01*
X00174566Y00140701D01*
X00174722Y00140481D01*
X00174896Y0014026D01*
X00171414Y00140616D01*
X00171616Y00140789D01*
X00171797Y00140967D01*
X00171957Y00141152D01*
X00172095Y00141343D01*
X00172212Y00141539D01*
X00172308Y00141742D01*
X00172382Y00141951D01*
X00172435Y00142165D01*
X00172467Y00142386D01*
X00172478Y00142612D01*
X00173978Y00142451D01*
D02*
G37*
G36*
X0018378Y00148313D02*
Y00142147D01*
X0018375Y00142055D01*
X00183696Y00141928D01*
X00183626Y00141796D01*
X0018354Y00141659D01*
X00183435Y00141518D01*
X00183311Y00141371D01*
X00183144Y00141198D01*
X00183069Y00141007D01*
X00182174Y00140112D01*
Y00137212D01*
X00184224Y00135162D01*
X00187124D01*
X00187721Y00135759D01*
X00188894Y00135274D01*
X00188914Y00115433D01*
X00187644Y00115119D01*
X00184351Y00118412D01*
X00179381D01*
X00175866Y00114897D01*
Y00109927D01*
X00179381Y00106412D01*
X00184351D01*
X0018765Y0010971D01*
X0018892Y00109405D01*
X00188922Y00107176D01*
X00188922Y00107176D01*
X00188922Y00107175D01*
Y00107175D01*
X00189079Y00106796D01*
X00189239Y0010641D01*
X0018924Y0010641D01*
X0018924Y00106409D01*
X0018924Y00106409D01*
X00192994Y00102655D01*
X00192994Y00102254D01*
X00192216Y00101306D01*
X0018535D01*
X00185259Y00101336D01*
X00185132Y0010139D01*
X00185Y0010146D01*
X00184863Y00101546D01*
X00184722Y00101651D01*
X00184575Y00101775D01*
X00184402Y00101942D01*
X00184211Y00102017D01*
X00183316Y00102912D01*
X00180416D01*
X00178366Y00100862D01*
Y00097962D01*
X00180166Y00096162D01*
X00178366Y00094362D01*
Y00091462D01*
X00180166Y00089662D01*
X00178366Y00087862D01*
Y00084962D01*
X00180166Y00083162D01*
X00178366Y00081362D01*
Y00078462D01*
X00180416Y00076412D01*
X00183316D01*
X00184211Y00077307D01*
X00184402Y00077382D01*
X00184575Y00077549D01*
X00184722Y00077673D01*
X00184864Y00077778D01*
X00185Y00077864D01*
X00185132Y00077934D01*
X00185259Y00077988D01*
X0018535Y00078018D01*
X00263981D01*
X00265686Y00076313D01*
Y00055784D01*
X00265095D01*
X0026158Y00052269D01*
Y00047299D01*
X00265095Y00043784D01*
X00270065D01*
X0027358Y00047299D01*
Y00052269D01*
X00270065Y00055784D01*
X00269474D01*
Y00077098D01*
X00268919Y00078437D01*
X00266105Y00081251D01*
X00264766Y00081806D01*
X0018535D01*
X00185259Y00081836D01*
X00185132Y0008189D01*
X00185Y0008196D01*
X00184863Y00082046D01*
X00184722Y00082151D01*
X00184575Y00082275D01*
X00184524Y00082324D01*
X00184345Y0008267D01*
X00184223Y00083162D01*
X00184345Y00083653D01*
X00184524Y00084D01*
X00184575Y00084049D01*
X00184722Y00084173D01*
X00184864Y00084278D01*
X00185Y00084364D01*
X00185132Y00084434D01*
X00185259Y00084488D01*
X0018535Y00084518D01*
X00277039D01*
X00281588Y00079969D01*
Y00055784D01*
X00280997D01*
X00277482Y00052269D01*
Y00047299D01*
X00280997Y00043784D01*
X00285967D01*
X00289482Y00047299D01*
Y00052269D01*
X00285967Y00055784D01*
X00285376D01*
Y00080754D01*
X00284821Y00082093D01*
X00279163Y00087751D01*
X00277824Y00088306D01*
X0018535D01*
X00185259Y00088336D01*
X00185132Y0008839D01*
X00185Y0008846D01*
X00184863Y00088546D01*
X00184722Y00088651D01*
X00184575Y00088775D01*
X00184524Y00088824D01*
X00184345Y00089171D01*
X00184223Y00089662D01*
X00184345Y00090153D01*
X00184524Y000905D01*
X00184575Y00090549D01*
X00184722Y00090673D01*
X00184864Y00090778D01*
X00185Y00090864D01*
X00185132Y00090934D01*
X00185259Y00090988D01*
X0018535Y00091018D01*
X00320577D01*
X0032715Y00084445D01*
Y00022002D01*
X00326559D01*
X00323044Y00018487D01*
Y00013517D01*
X00326559Y00010002D01*
X00331529D01*
X00335044Y00013517D01*
Y00018487D01*
X00331529Y00022002D01*
X00330938D01*
Y0008523D01*
X00330383Y00086569D01*
X00322701Y00094251D01*
X00321362Y00094806D01*
X0018535D01*
X00185259Y00094836D01*
X00185132Y0009489D01*
X00185Y0009496D01*
X00184863Y00095046D01*
X00184722Y00095151D01*
X00184575Y00095275D01*
X00184524Y00095324D01*
X00184345Y00095671D01*
X00184223Y00096162D01*
X00184345Y00096654D01*
X00184524Y00097D01*
X00184575Y00097049D01*
X00184722Y00097173D01*
X00184864Y00097278D01*
X00185Y00097364D01*
X00185132Y00097434D01*
X00185259Y00097488D01*
X0018535Y00097518D01*
X00339731D01*
X00345832Y00091417D01*
Y00022002D01*
X00345241D01*
X00341726Y00018487D01*
Y00013517D01*
X00345241Y00010002D01*
X00350211D01*
X00353726Y00013517D01*
Y00018487D01*
X00350211Y00022002D01*
X0034962D01*
Y00092202D01*
X00349065Y00093541D01*
X0034209Y00100517D01*
X00342377Y00101617D01*
X00342479Y00101787D01*
X00352866Y00101787D01*
X00356042Y00098612D01*
X00356042Y00000254D01*
X00195646D01*
Y00061214D01*
X00195646Y00061214D01*
X00195329Y00061979D01*
X00191773Y00065535D01*
X00191008Y00065852D01*
X00182626D01*
X00182626Y00065852D01*
X00181861Y00065535D01*
X00181861Y00065535D01*
X00178559Y00062233D01*
X00178242Y00061468D01*
Y00000254D01*
X00163438D01*
Y00076427D01*
X00163468Y00076519D01*
X00163522Y00076646D01*
X00163592Y00076778D01*
X00163678Y00076915D01*
X00163783Y00077056D01*
X00163907Y00077203D01*
X00164074Y00077376D01*
X00164149Y00077567D01*
X00165044Y00078462D01*
Y00081362D01*
X00162994Y00083412D01*
X00160094D01*
X00158044Y00081362D01*
Y00078462D01*
X00158939Y00077567D01*
X00159014Y00077376D01*
X00159181Y00077203D01*
X00159305Y00077056D01*
X0015941Y00076915D01*
X00159496Y00076778D01*
X00159566Y00076646D01*
X0015962Y00076519D01*
X0015965Y00076427D01*
Y00000254D01*
X00138038D01*
Y00076427D01*
X00138068Y00076519D01*
X00138122Y00076646D01*
X00138192Y00076778D01*
X00138278Y00076915D01*
X00138383Y00077056D01*
X00138507Y00077203D01*
X00138674Y00077376D01*
X00138749Y00077567D01*
X00139644Y00078462D01*
Y00081362D01*
X00139237Y00081769D01*
X00139723Y00082942D01*
X00146812D01*
X00148151Y00083497D01*
X00161613Y00096959D01*
X00162168Y00098298D01*
Y00135177D01*
X00162198Y00135269D01*
X00162252Y00135396D01*
X00162322Y00135528D01*
X00162408Y00135665D01*
X00162513Y00135806D01*
X00162637Y00135953D01*
X00162804Y00136126D01*
X00162879Y00136317D01*
X00163774Y00137212D01*
Y00140112D01*
X00161724Y00142162D01*
X00158824D01*
X00156774Y00140112D01*
Y00137212D01*
X00157669Y00136317D01*
X00157744Y00136126D01*
X00157911Y00135953D01*
X00158035Y00135806D01*
X0015814Y00135664D01*
X00158226Y00135528D01*
X00158296Y00135396D01*
X0015835Y00135269D01*
X0015838Y00135177D01*
Y00099083D01*
X00146027Y0008673D01*
X0014009D01*
X00139604Y00087903D01*
X00148913Y00097213D01*
X00149468Y00098552D01*
Y00135177D01*
X00149498Y00135269D01*
X00149552Y00135396D01*
X00149622Y00135528D01*
X00149708Y00135665D01*
X00149813Y00135806D01*
X00149937Y00135953D01*
X00150104Y00136126D01*
X00150179Y00136317D01*
X00151074Y00137212D01*
Y00140112D01*
X00149024Y00142162D01*
X00146124D01*
X00144074Y00140112D01*
Y00137212D01*
X00144969Y00136317D01*
X00145044Y00136126D01*
X00145211Y00135953D01*
X00145335Y00135806D01*
X0014544Y00135664D01*
X00145526Y00135528D01*
X00145596Y00135396D01*
X0014565Y00135269D01*
X0014568Y00135177D01*
Y00099337D01*
X00135693Y0008935D01*
X00130772D01*
X00130286Y00090524D01*
X00136213Y00096451D01*
X00136768Y0009779D01*
Y00135177D01*
X00136798Y00135269D01*
X00136852Y00135396D01*
X00136922Y00135528D01*
X00137008Y00135665D01*
X00137113Y00135806D01*
X00137237Y00135953D01*
X00137404Y00136126D01*
X00137479Y00136317D01*
X00138374Y00137212D01*
Y00140112D01*
X00136324Y00142162D01*
X00133424D01*
X00131374Y00140112D01*
Y00137212D01*
X00132269Y00136317D01*
X00132344Y00136126D01*
X00132511Y00135953D01*
X00132635Y00135806D01*
X0013274Y00135664D01*
X00132826Y00135528D01*
X00132896Y00135396D01*
X0013295Y00135269D01*
X0013298Y00135177D01*
Y00098575D01*
X00126255Y0009185D01*
X0011981D01*
X00119324Y00093024D01*
X00123513Y00097213D01*
X00124068Y00098552D01*
Y00135177D01*
X00124098Y00135269D01*
X00124152Y00135396D01*
X00124222Y00135528D01*
X00124308Y00135665D01*
X00124413Y00135806D01*
X00124537Y00135953D01*
X00124704Y00136126D01*
X00124779Y00136317D01*
X00125674Y00137212D01*
Y00140112D01*
X00123624Y00142162D01*
X00120724D01*
X00118674Y00140112D01*
Y00137212D01*
X00119569Y00136317D01*
X00119644Y00136126D01*
X00119811Y00135953D01*
X00119935Y00135806D01*
X0012004Y00135664D01*
X00120126Y00135528D01*
X00120196Y00135396D01*
X0012025Y00135269D01*
X0012028Y00135177D01*
Y00099337D01*
X00115293Y0009435D01*
X00102019D01*
X00102019Y0009435D01*
X00100679Y00093795D01*
X00090729Y00083845D01*
X00090174Y00082505D01*
Y00043804D01*
X00085113D01*
X00084007Y00044909D01*
Y00048471D01*
X00084037Y00048563D01*
X00084092Y0004869D01*
X00084161Y00048822D01*
X00084247Y00048959D01*
X00084352Y000491D01*
X00084477Y00049247D01*
X00084643Y0004942D01*
X00084718Y00049611D01*
X00085613Y00050506D01*
Y00053406D01*
X00083563Y00055456D01*
X00080663D01*
X00078613Y00053406D01*
Y00050506D01*
X00079509Y00049611D01*
X00079583Y0004942D01*
X0007975Y00049247D01*
X00079875Y000491D01*
X00079979Y00048958D01*
X00080065Y00048822D01*
X00080135Y0004869D01*
X00080189Y00048563D01*
X00080219Y00048471D01*
Y00044125D01*
X00080774Y00042785D01*
X00081082Y00042477D01*
X00080596Y00041304D01*
X00074484D01*
X00072977Y00042811D01*
Y00048471D01*
X00073007Y00048563D01*
X00073061Y0004869D01*
X0007313Y00048822D01*
X00073217Y00048959D01*
X00073321Y000491D01*
X00073446Y00049247D01*
X00073613Y0004942D01*
X00073688Y00049611D01*
X00074583Y00050506D01*
Y00053406D01*
X00072533Y00055456D01*
X00069633D01*
X00067583Y00053406D01*
Y00050506D01*
X00068478Y00049611D01*
X00068553Y0004942D01*
X00068719Y00049247D01*
X00068844Y000491D01*
X00068949Y00048958D01*
X00069035Y00048822D01*
X00069104Y0004869D01*
X00069159Y00048563D01*
X00069189Y00048471D01*
Y00042027D01*
X00069743Y00040687D01*
X00070453Y00039978D01*
X00069967Y00038804D01*
X00066491D01*
X00061947Y00043348D01*
Y00064071D01*
X00061977Y00064163D01*
X00062031Y0006429D01*
X000621Y00064422D01*
X00062186Y00064559D01*
X00062291Y000647D01*
X00062416Y00064847D01*
X00062582Y0006502D01*
X00062657Y00065211D01*
X00063552Y00066106D01*
Y00069006D01*
X00061502Y00071056D01*
X00058603D01*
X00056552Y00069006D01*
Y00066106D01*
X00057448Y00065211D01*
X00057523Y0006502D01*
X00057689Y00064847D01*
X00057814Y000647D01*
X00057919Y00064559D01*
X00058005Y00064422D01*
X00058074Y0006429D01*
X00058128Y00064163D01*
X00058158Y00064071D01*
Y00042564D01*
X00058713Y00041224D01*
X0006246Y00037478D01*
X00061974Y00036304D01*
X00056037D01*
X00050916Y00041425D01*
Y00064071D01*
X00050946Y00064163D01*
X00051Y0006429D01*
X0005107Y00064422D01*
X00051156Y00064559D01*
X00051261Y000647D01*
X00051385Y00064847D01*
X00051552Y0006502D01*
X00051627Y00065211D01*
X00052522Y00066106D01*
Y00069006D01*
X00050472Y00071056D01*
X00047572D01*
X00045522Y00069006D01*
Y00066106D01*
X00046417Y00065211D01*
X00046492Y0006502D01*
X00046659Y00064847D01*
X00046783Y000647D01*
X00046888Y00064559D01*
X00046974Y00064422D01*
X00047044Y0006429D01*
X00047098Y00064163D01*
X00047128Y00064071D01*
Y0004064D01*
X00047683Y00039301D01*
X00053913Y00033071D01*
X00055252Y00032516D01*
X00055252Y00032516D01*
X00094296D01*
X00095635Y00033071D01*
X00100907Y00038343D01*
X00101462Y00039682D01*
Y00078614D01*
X0010579Y00082942D01*
X00132565D01*
X00133051Y00081769D01*
X00132644Y00081362D01*
Y00078462D01*
X00133539Y00077567D01*
X00133614Y00077376D01*
X00133781Y00077203D01*
X00133905Y00077056D01*
X0013401Y00076915D01*
X00134096Y00076778D01*
X00134166Y00076646D01*
X0013422Y00076519D01*
X0013425Y00076427D01*
Y00000254D01*
X00028984D01*
X00028682Y00000641D01*
X00028305Y00001524D01*
X00028514Y00002029D01*
X00028514Y00041148D01*
X00028514Y00041148D01*
X00028197Y00041913D01*
X00028197Y00041913D01*
X00026165Y00043945D01*
X00026165Y00043945D01*
X000254Y00044262D01*
X00015854Y00044262D01*
Y00048998D01*
X00015854D01*
Y00049018D01*
X00015854D01*
Y00053998D01*
X00016869Y00054614D01*
X00017155D01*
X00018495Y00055169D01*
X00021289Y00057963D01*
X00021844Y00059303D01*
X00021844Y00059303D01*
Y00091883D01*
X0002275Y00092258D01*
X0002565D01*
X000277Y00094308D01*
Y00097208D01*
X00026472Y00098435D01*
X00026385Y00098596D01*
X00026212Y00098737D01*
X0002609Y00098851D01*
X00025991Y00098962D01*
X0002591Y00099069D01*
X00025846Y00099173D01*
X00025796Y00099275D01*
X0002577Y00099347D01*
Y00103355D01*
X00054425Y00132011D01*
X00054425Y00132011D01*
X0005498Y0013335D01*
X0005498Y0013335D01*
Y00146214D01*
X0005501Y00146305D01*
X00055064Y00146432D01*
X00055134Y00146564D01*
X0005522Y001467D01*
X00055325Y00146842D01*
X00055449Y00146989D01*
X00055616Y00147162D01*
X00055691Y00147353D01*
X00056586Y00148248D01*
Y00151148D01*
X00055636Y00152098D01*
X00056162Y00153368D01*
X00061948D01*
X00062474Y00152098D01*
X00061524Y00151148D01*
Y00148248D01*
X00062419Y00147353D01*
X00062494Y00147162D01*
X00062661Y00146989D01*
X00062785Y00146842D01*
X0006289Y001467D01*
X00062976Y00146564D01*
X00063046Y00146432D01*
X000631Y00146305D01*
X0006313Y00146214D01*
Y00133881D01*
X00032697Y00103447D01*
X00032142Y00102108D01*
Y00098634D01*
X00032116Y00098533D01*
X00032063Y0009837D01*
X00031995Y00098199D01*
X00031918Y00098031D01*
X00031693Y00097623D01*
X00031557Y00097411D01*
X00031554Y00097393D01*
X00031044Y00096884D01*
Y00093984D01*
X00033094Y00091934D01*
X00035994D01*
X00038044Y00093984D01*
Y00096884D01*
X00036535Y00098393D01*
X00036514Y00098425D01*
X00036475Y00098452D01*
X00035994Y00098934D01*
X00035987D01*
X00035952Y00099002D01*
X0003593Y0009906D01*
Y00101323D01*
X00066363Y00131757D01*
X00066363Y00131757D01*
X00066918Y00133096D01*
X00066918Y00133096D01*
Y00146214D01*
X00066948Y00146305D01*
X00067002Y00146432D01*
X00067072Y00146564D01*
X00067158Y001467D01*
X00067263Y00146842D01*
X00067387Y00146989D01*
X00067554Y00147162D01*
X00067629Y00147353D01*
X00068524Y00148248D01*
Y00151148D01*
X00067574Y00152098D01*
X000681Y00153368D01*
X00165264D01*
X00171334Y00147297D01*
Y00142233D01*
X00171306Y00142156D01*
X00171255Y00142048D01*
X0017119Y00141938D01*
X00171108Y00141825D01*
X00171006Y00141707D01*
X00170883Y00141586D01*
X00170711Y00141439D01*
X00170618Y00141256D01*
X00169474Y00140112D01*
Y00137212D01*
X00171524Y00135162D01*
X00174424D01*
X00176474Y00137212D01*
Y00140112D01*
X00175782Y00140804D01*
X00175746Y00140932D01*
X00175589Y0014113D01*
X00175467Y00141302D01*
X00175363Y00141468D01*
X00175277Y00141627D01*
X00175207Y00141778D01*
X00175152Y00141924D01*
X00175122Y00142025D01*
Y00148082D01*
X00174567Y00149421D01*
X00169294Y00154694D01*
X0016978Y00155868D01*
X00176225D01*
X0018378Y00148313D01*
D02*
G37*
G36*
X00161834Y00136679D02*
X00161664Y00136479D01*
X00161514Y00136276D01*
X00161384Y0013607D01*
X00161274Y00135862D01*
X00161184Y0013565D01*
X00161114Y00135436D01*
X00161064Y00135219D01*
X00161034Y00135D01*
X00161024Y00134777D01*
X00159524D01*
X00159514Y00135D01*
X00159484Y00135219D01*
X00159434Y00135436D01*
X00159364Y0013565D01*
X00159274Y00135862D01*
X00159164Y0013607D01*
X00159034Y00136276D01*
X00158884Y00136479D01*
X00158714Y00136679D01*
X00158524Y00136877D01*
X00162024D01*
X00161834Y00136679D01*
D02*
G37*
G36*
X00149134D02*
X00148964Y00136479D01*
X00148814Y00136276D01*
X00148684Y0013607D01*
X00148574Y00135862D01*
X00148484Y0013565D01*
X00148414Y00135436D01*
X00148364Y00135219D01*
X00148334Y00135D01*
X00148324Y00134777D01*
X00146824D01*
X00146814Y00135D01*
X00146784Y00135219D01*
X00146734Y00135436D01*
X00146664Y0013565D01*
X00146574Y00135862D01*
X00146464Y0013607D01*
X00146334Y00136276D01*
X00146184Y00136479D01*
X00146014Y00136679D01*
X00145824Y00136877D01*
X00149324D01*
X00149134Y00136679D01*
D02*
G37*
G36*
X00136434D02*
X00136264Y00136479D01*
X00136114Y00136276D01*
X00135984Y0013607D01*
X00135874Y00135862D01*
X00135784Y0013565D01*
X00135714Y00135436D01*
X00135664Y00135219D01*
X00135634Y00135D01*
X00135624Y00134777D01*
X00134124D01*
X00134114Y00135D01*
X00134084Y00135219D01*
X00134034Y00135436D01*
X00133964Y0013565D01*
X00133874Y00135862D01*
X00133764Y0013607D01*
X00133634Y00136276D01*
X00133484Y00136479D01*
X00133314Y00136679D01*
X00133124Y00136877D01*
X00136624D01*
X00136434Y00136679D01*
D02*
G37*
G36*
X00123734D02*
X00123564Y00136479D01*
X00123414Y00136276D01*
X00123284Y0013607D01*
X00123174Y00135862D01*
X00123084Y0013565D01*
X00123014Y00135436D01*
X00122964Y00135219D01*
X00122934Y00135D01*
X00122924Y00134777D01*
X00121424D01*
X00121414Y00135D01*
X00121384Y00135219D01*
X00121334Y00135436D01*
X00121264Y0013565D01*
X00121174Y00135862D01*
X00121064Y0013607D01*
X00120934Y00136276D01*
X00120784Y00136479D01*
X00120614Y00136679D01*
X00120424Y00136877D01*
X00123924D01*
X00123734Y00136679D01*
D02*
G37*
G36*
X00285576Y00136426D02*
X00285606Y00136207D01*
X00285656Y0013599D01*
X00285726Y00135776D01*
X00285816Y00135564D01*
X00285926Y00135356D01*
X00286056Y0013515D01*
X00286206Y00134947D01*
X00286376Y00134747D01*
X00286566Y00134549D01*
X00283066D01*
X00283256Y00134747D01*
X00283426Y00134947D01*
X00283576Y0013515D01*
X00283706Y00135356D01*
X00283816Y00135564D01*
X00283906Y00135776D01*
X00283976Y0013599D01*
X00284026Y00136207D01*
X00284056Y00136426D01*
X00284066Y00136649D01*
X00285566D01*
X00285576Y00136426D01*
D02*
G37*
G36*
X00271576D02*
X00271606Y00136207D01*
X00271656Y0013599D01*
X00271726Y00135776D01*
X00271816Y00135564D01*
X00271926Y00135356D01*
X00272056Y0013515D01*
X00272206Y00134947D01*
X00272376Y00134747D01*
X00272566Y00134549D01*
X00269066D01*
X00269256Y00134747D01*
X00269426Y00134947D01*
X00269576Y0013515D01*
X00269706Y00135356D01*
X00269816Y00135564D01*
X00269906Y00135776D01*
X00269976Y0013599D01*
X00270026Y00136207D01*
X00270056Y00136426D01*
X00270066Y00136649D01*
X00271566D01*
X00271576Y00136426D01*
D02*
G37*
G36*
X00257576D02*
X00257606Y00136207D01*
X00257656Y0013599D01*
X00257726Y00135776D01*
X00257816Y00135564D01*
X00257926Y00135356D01*
X00258056Y0013515D01*
X00258206Y00134947D01*
X00258376Y00134747D01*
X00258566Y00134549D01*
X00255066D01*
X00255256Y00134747D01*
X00255426Y00134947D01*
X00255576Y0013515D01*
X00255706Y00135356D01*
X00255816Y00135564D01*
X00255906Y00135776D01*
X00255976Y0013599D01*
X00256026Y00136207D01*
X00256056Y00136426D01*
X00256066Y00136649D01*
X00257566D01*
X00257576Y00136426D01*
D02*
G37*
G36*
X00013056Y00127933D02*
Y0011876D01*
X00010998Y00116702D01*
X-00008128D01*
X-00008128Y00116702D01*
X-00009467Y00116147D01*
X-00009467Y00116147D01*
X-00011429Y00114185D01*
X-00011984Y00112846D01*
Y00014382D01*
X-00012575D01*
X-0001609Y00010867D01*
Y00005897D01*
X-00013087Y00002894D01*
X-00013613Y00001624D01*
X-00054256D01*
Y0012817D01*
X000127D01*
X00013056Y00127933D01*
D02*
G37*
G36*
X00183849Y00100972D02*
X00184049Y00100802D01*
X00184252Y00100652D01*
X00184458Y00100522D01*
X00184666Y00100412D01*
X00184878Y00100322D01*
X00185092Y00100252D01*
X00185309Y00100202D01*
X00185528Y00100172D01*
X00185751Y00100162D01*
Y00098662D01*
X00185528Y00098652D01*
X00185309Y00098622D01*
X00185092Y00098572D01*
X00184878Y00098502D01*
X00184666Y00098412D01*
X00184458Y00098302D01*
X00184252Y00098172D01*
X00184049Y00098022D01*
X00183849Y00097852D01*
X00183651Y00097662D01*
Y00101162D01*
X00183849Y00100972D01*
D02*
G37*
G36*
X00024637Y00099494D02*
X00024669Y00099273D01*
X00024723Y00099059D01*
X00024799Y00098853D01*
X00024896Y00098652D01*
X00025014Y00098459D01*
X00025154Y00098273D01*
X00025316Y00098094D01*
X00025499Y00097921D01*
X00025704Y00097755D01*
X00022233Y00097302D01*
X00022403Y00097528D01*
X00022689Y00097978D01*
X00022805Y00098202D01*
X00022903Y00098424D01*
X00022983Y00098645D01*
X00023046Y00098864D01*
X0002309Y00099082D01*
X00023117Y000993D01*
X00023126Y00099515D01*
X00024626Y00099721D01*
X00024637Y00099494D01*
D02*
G37*
G36*
X00034797Y00099192D02*
X0003483Y00098972D01*
X00034886Y0009876D01*
X00034963Y00098558D01*
X00035063Y00098365D01*
X00035185Y00098181D01*
X00035329Y00098006D01*
X00035496Y00097841D01*
X00035684Y00097685D01*
X00035895Y00097538D01*
X00032468Y00096826D01*
X00032623Y00097069D01*
X00032885Y00097543D01*
X00032991Y00097775D01*
X00033081Y00098004D01*
X00033155Y00098229D01*
X00033212Y0009845D01*
X00033253Y00098668D01*
X00033278Y00098883D01*
X00033286Y00099094D01*
X00034786Y00099422D01*
X00034797Y00099192D01*
D02*
G37*
G36*
X00015556Y00114243D02*
Y00093302D01*
X00015503Y00093195D01*
X00014732Y00092269D01*
X00014732Y00092268D01*
X-0000635Y00092268D01*
X-0000635Y00092268D01*
X-00006926Y0009203D01*
X-00008196Y0009253D01*
Y00112061D01*
X-00007343Y00112914D01*
X00011782D01*
X00013122Y00113469D01*
X00014382Y00114729D01*
X00015556Y00114243D01*
D02*
G37*
G36*
X00183849Y00094472D02*
X00184049Y00094302D01*
X00184252Y00094152D01*
X00184458Y00094022D01*
X00184666Y00093912D01*
X00184878Y00093822D01*
X00185092Y00093752D01*
X00185309Y00093702D01*
X00185528Y00093672D01*
X00185751Y00093662D01*
Y00092162D01*
X00185528Y00092152D01*
X00185309Y00092122D01*
X00185092Y00092072D01*
X00184878Y00092002D01*
X00184666Y00091912D01*
X00184458Y00091802D01*
X00184252Y00091672D01*
X00184049Y00091522D01*
X00183849Y00091352D01*
X00183651Y00091162D01*
Y00094662D01*
X00183849Y00094472D01*
D02*
G37*
G36*
Y00087972D02*
X00184049Y00087802D01*
X00184252Y00087652D01*
X00184458Y00087522D01*
X00184666Y00087412D01*
X00184878Y00087322D01*
X00185092Y00087252D01*
X00185309Y00087202D01*
X00185528Y00087172D01*
X00185751Y00087162D01*
Y00085662D01*
X00185528Y00085652D01*
X00185309Y00085622D01*
X00185092Y00085572D01*
X00184878Y00085502D01*
X00184666Y00085412D01*
X00184458Y00085302D01*
X00184252Y00085172D01*
X00184049Y00085022D01*
X00183849Y00084852D01*
X00183651Y00084662D01*
Y00088162D01*
X00183849Y00087972D01*
D02*
G37*
G36*
Y00081472D02*
X00184049Y00081302D01*
X00184252Y00081152D01*
X00184458Y00081022D01*
X00184666Y00080912D01*
X00184878Y00080822D01*
X00185092Y00080752D01*
X00185309Y00080702D01*
X00185528Y00080672D01*
X00185751Y00080662D01*
Y00079162D01*
X00185528Y00079152D01*
X00185309Y00079122D01*
X00185092Y00079072D01*
X00184878Y00079002D01*
X00184666Y00078912D01*
X00184458Y00078802D01*
X00184252Y00078672D01*
X00184049Y00078522D01*
X00183849Y00078352D01*
X00183651Y00078162D01*
Y00081662D01*
X00183849Y00081472D01*
D02*
G37*
G36*
X00163104Y00077929D02*
X00162934Y00077729D01*
X00162784Y00077526D01*
X00162654Y0007732D01*
X00162544Y00077112D01*
X00162454Y000769D01*
X00162384Y00076686D01*
X00162334Y00076469D01*
X00162304Y0007625D01*
X00162294Y00076027D01*
X00160794D01*
X00160784Y0007625D01*
X00160754Y00076469D01*
X00160704Y00076686D01*
X00160634Y000769D01*
X00160544Y00077112D01*
X00160434Y0007732D01*
X00160304Y00077526D01*
X00160154Y00077729D01*
X00159984Y00077929D01*
X00159794Y00078127D01*
X00163294D01*
X00163104Y00077929D01*
D02*
G37*
G36*
X00137704D02*
X00137534Y00077729D01*
X00137384Y00077526D01*
X00137254Y0007732D01*
X00137144Y00077112D01*
X00137054Y000769D01*
X00136984Y00076686D01*
X00136934Y00076469D01*
X00136904Y0007625D01*
X00136894Y00076027D01*
X00135394D01*
X00135384Y0007625D01*
X00135354Y00076469D01*
X00135304Y00076686D01*
X00135234Y000769D01*
X00135144Y00077112D01*
X00135034Y0007732D01*
X00134904Y00077526D01*
X00134754Y00077729D01*
X00134584Y00077929D01*
X00134394Y00078127D01*
X00137894D01*
X00137704Y00077929D01*
D02*
G37*
G36*
X000182Y00071374D02*
X000167Y00069124D01*
X00016685Y00069409D01*
X0001664Y00069664D01*
X00016565Y00069889D01*
X0001646Y00070084D01*
X00016325Y00070249D01*
X0001616Y00070384D01*
X00015965Y00070489D01*
X0001574Y00070564D01*
X00015646Y00070581D01*
X00015559Y00070572D01*
X00015364Y00070532D01*
X00015199Y0007048D01*
X00015064Y00070417D01*
X00014958Y00070342D01*
X00014884Y00070256D01*
X00014839Y00070158D01*
X00014823Y00070048D01*
Y00072874D01*
X00014839Y00072731D01*
X00014884Y00072604D01*
X00014958Y00072491D01*
X00015064Y00072394D01*
X00015199Y00072312D01*
X00015364Y00072244D01*
X00015559Y00072192D01*
X00015674Y00072172D01*
X0001574Y00072184D01*
X00015965Y00072259D01*
X0001616Y00072364D01*
X00016325Y00072499D01*
X0001646Y00072664D01*
X00016565Y00072859D01*
X0001664Y00073084D01*
X00016685Y00073339D01*
X000167Y00073624D01*
X000182Y00071374D01*
D02*
G37*
G36*
X00003385Y00065048D02*
X0000337Y00065183D01*
X00003325Y00065304D01*
X0000325Y0006541D01*
X00003144Y00065503D01*
X00003009Y00065581D01*
X00002844Y00065644D01*
X0000265Y00065694D01*
X00002424Y0006573D01*
X00002169Y00065751D01*
X00001884Y00065758D01*
Y00067258D01*
X00002169Y00067265D01*
X00002424Y00067286D01*
X0000265Y00067322D01*
X00002844Y00067372D01*
X00003009Y00067435D01*
X00003144Y00067513D01*
X0000325Y00067606D01*
X00003325Y00067712D01*
X0000337Y00067833D01*
X00003385Y00067968D01*
Y00065048D01*
D02*
G37*
G36*
X00061612Y00065573D02*
X00061442Y00065373D01*
X00061292Y0006517D01*
X00061162Y00064964D01*
X00061052Y00064756D01*
X00060962Y00064544D01*
X00060892Y0006433D01*
X00060842Y00064113D01*
X00060812Y00063894D01*
X00060802Y00063671D01*
X00059302D01*
X00059292Y00063894D01*
X00059262Y00064113D01*
X00059212Y0006433D01*
X00059142Y00064544D01*
X00059052Y00064756D01*
X00058942Y00064964D01*
X00058812Y0006517D01*
X00058662Y00065373D01*
X00058492Y00065573D01*
X00058302Y00065771D01*
X00061802D01*
X00061612Y00065573D01*
D02*
G37*
G36*
X00050582D02*
X00050412Y00065373D01*
X00050262Y0006517D01*
X00050132Y00064964D01*
X00050022Y00064756D01*
X00049932Y00064544D01*
X00049862Y0006433D01*
X00049812Y00064113D01*
X00049782Y00063894D01*
X00049772Y00063671D01*
X00048272D01*
X00048262Y00063894D01*
X00048232Y00064113D01*
X00048182Y0006433D01*
X00048112Y00064544D01*
X00048022Y00064756D01*
X00047912Y00064964D01*
X00047782Y0006517D01*
X00047632Y00065373D01*
X00047462Y00065573D01*
X00047272Y00065771D01*
X00050772D01*
X00050582Y00065573D01*
D02*
G37*
G36*
X00014838Y00062771D02*
X00014881Y00062655D01*
X00014952Y00062552D01*
X00015053Y00062464D01*
X00015182Y00062389D01*
X00015339Y00062327D01*
X00015525Y00062279D01*
X0001574Y00062245D01*
X00015984Y00062225D01*
X00016256Y00062218D01*
Y00060718D01*
X00015984Y00060711D01*
X0001574Y00060691D01*
X00015525Y00060658D01*
X00015339Y00060611D01*
X00015182Y00060551D01*
X00015053Y00060477D01*
X00014952Y0006039D01*
X00014881Y0006029D01*
X00014838Y00060176D01*
X00014823Y00060048D01*
Y00062901D01*
X00014838Y00062771D01*
D02*
G37*
G36*
X00014839Y00057833D02*
X00014884Y00057712D01*
X00014958Y00057606D01*
X00015064Y00057513D01*
X00015199Y00057435D01*
X00015364Y00057372D01*
X00015559Y00057322D01*
X00015783Y00057286D01*
X00016039Y00057265D01*
X00016323Y00057258D01*
Y00055758D01*
X00016039Y00055751D01*
X00015783Y0005573D01*
X00015559Y00055694D01*
X00015364Y00055644D01*
X00015199Y00055581D01*
X00015064Y00055503D01*
X00014958Y0005541D01*
X00014884Y00055304D01*
X00014839Y00055183D01*
X00014823Y00055048D01*
Y00057968D01*
X00014839Y00057833D01*
D02*
G37*
G36*
X00003385Y00055048D02*
X0000337Y00055183D01*
X00003325Y00055304D01*
X0000325Y0005541D01*
X00003144Y00055503D01*
X00003009Y00055581D01*
X00002844Y00055644D01*
X0000265Y00055694D01*
X00002424Y0005573D01*
X00002169Y00055751D01*
X00001884Y00055758D01*
Y00057258D01*
X00002169Y00057265D01*
X00002424Y00057286D01*
X0000265Y00057322D01*
X00002844Y00057372D01*
X00003009Y00057435D01*
X00003144Y00057513D01*
X0000325Y00057606D01*
X00003325Y00057712D01*
X0000337Y00057833D01*
X00003385Y00057968D01*
Y00055048D01*
D02*
G37*
G36*
X0028424Y00055952D02*
X00284262Y000557D01*
X002843Y00055473D01*
X00284352Y00055269D01*
X00284419Y0005509D01*
X00284502Y00054935D01*
X00284599Y00054803D01*
X00284712Y00054696D01*
X00284839Y00054613D01*
X00284982Y00054554D01*
X00281982D01*
X00282125Y00054613D01*
X00282252Y00054696D01*
X00282365Y00054803D01*
X00282462Y00054935D01*
X00282544Y0005509D01*
X00282612Y00055269D01*
X00282665Y00055473D01*
X00282702Y000557D01*
X00282724Y00055952D01*
X00282732Y00056227D01*
X00284232D01*
X0028424Y00055952D01*
D02*
G37*
G36*
X00268337D02*
X0026836Y000557D01*
X00268398Y00055473D01*
X0026845Y00055269D01*
X00268517Y0005509D01*
X002686Y00054935D01*
X00268697Y00054803D01*
X0026881Y00054696D01*
X00268937Y00054613D01*
X0026908Y00054554D01*
X0026608D01*
X00266222Y00054613D01*
X0026635Y00054696D01*
X00266462Y00054803D01*
X0026656Y00054935D01*
X00266642Y0005509D01*
X0026671Y00055269D01*
X00266763Y00055473D01*
X002668Y000557D01*
X00266822Y00055952D01*
X0026683Y00056227D01*
X0026833D01*
X00268337Y00055952D01*
D02*
G37*
G36*
X00284242Y00053446D02*
X00284272Y00053227D01*
X00284322Y0005301D01*
X00284392Y00052796D01*
X00284482Y00052584D01*
X00284592Y00052376D01*
X00284722Y0005217D01*
X00284872Y00051967D01*
X00285042Y00051767D01*
X00285232Y00051569D01*
X00281732D01*
X00281922Y00051767D01*
X00282092Y00051967D01*
X00282242Y0005217D01*
X00282372Y00052376D01*
X00282482Y00052584D01*
X00282572Y00052796D01*
X00282642Y0005301D01*
X00282692Y00053227D01*
X00282722Y00053446D01*
X00282732Y00053669D01*
X00284232D01*
X00284242Y00053446D01*
D02*
G37*
G36*
X0026834D02*
X0026837Y00053227D01*
X0026842Y0005301D01*
X0026849Y00052796D01*
X0026858Y00052584D01*
X0026869Y00052376D01*
X0026882Y0005217D01*
X0026897Y00051967D01*
X0026914Y00051767D01*
X0026933Y00051569D01*
X0026583D01*
X0026602Y00051767D01*
X0026619Y00051967D01*
X0026634Y0005217D01*
X0026647Y00052376D01*
X0026658Y00052584D01*
X0026667Y00052796D01*
X0026674Y0005301D01*
X0026679Y00053227D01*
X0026682Y00053446D01*
X0026683Y00053669D01*
X0026833D01*
X0026834Y00053446D01*
D02*
G37*
G36*
X00083673Y00049973D02*
X00083503Y00049773D01*
X00083353Y0004957D01*
X00083223Y00049364D01*
X00083113Y00049156D01*
X00083023Y00048944D01*
X00082953Y0004873D01*
X00082903Y00048513D01*
X00082873Y00048294D01*
X00082863Y00048071D01*
X00081363D01*
X00081353Y00048294D01*
X00081323Y00048513D01*
X00081273Y0004873D01*
X00081203Y00048944D01*
X00081113Y00049156D01*
X00081003Y00049364D01*
X00080873Y0004957D01*
X00080723Y00049773D01*
X00080553Y00049973D01*
X00080363Y00050171D01*
X00083863D01*
X00083673Y00049973D01*
D02*
G37*
G36*
X00072643D02*
X00072473Y00049773D01*
X00072323Y0004957D01*
X00072193Y00049364D01*
X00072083Y00049156D01*
X00071993Y00048944D01*
X00071923Y0004873D01*
X00071873Y00048513D01*
X00071843Y00048294D01*
X00071833Y00048071D01*
X00070333D01*
X00070323Y00048294D01*
X00070293Y00048513D01*
X00070243Y0004873D01*
X00070173Y00048944D01*
X00070083Y00049156D01*
X00069973Y00049364D01*
X00069843Y0004957D01*
X00069693Y00049773D01*
X00069523Y00049973D01*
X00069333Y00050171D01*
X00072833D01*
X00072643Y00049973D01*
D02*
G37*
G36*
X00348484Y0002217D02*
X00348506Y00021918D01*
X00348544Y00021691D01*
X00348596Y00021488D01*
X00348663Y00021308D01*
X00348746Y00021153D01*
X00348843Y00021021D01*
X00348956Y00020914D01*
X00349084Y00020831D01*
X00349226Y00020772D01*
X00346226D01*
X00346368Y00020831D01*
X00346496Y00020914D01*
X00346609Y00021021D01*
X00346706Y00021153D01*
X00346788Y00021308D01*
X00346856Y00021488D01*
X00346908Y00021691D01*
X00346946Y00021918D01*
X00346968Y0002217D01*
X00346976Y00022445D01*
X00348476D01*
X00348484Y0002217D01*
D02*
G37*
G36*
X00329801D02*
X00329824Y00021918D01*
X00329861Y00021691D01*
X00329914Y00021488D01*
X00329981Y00021308D01*
X00330064Y00021153D01*
X00330162Y00021021D01*
X00330274Y00020914D01*
X00330401Y00020831D01*
X00330544Y00020772D01*
X00327544D01*
X00327687Y00020831D01*
X00327814Y00020914D01*
X00327926Y00021021D01*
X00328024Y00021153D01*
X00328106Y00021308D01*
X00328174Y00021488D01*
X00328227Y00021691D01*
X00328264Y00021918D01*
X00328287Y0002217D01*
X00328294Y00022445D01*
X00329794D01*
X00329801Y0002217D01*
D02*
G37*
G36*
X00329804Y00019664D02*
X00329834Y00019445D01*
X00329884Y00019228D01*
X00329954Y00019014D01*
X00330044Y00018802D01*
X00330154Y00018594D01*
X00330284Y00018388D01*
X00330434Y00018185D01*
X00330604Y00017985D01*
X00330794Y00017787D01*
X00327294D01*
X00327484Y00017985D01*
X00327654Y00018185D01*
X00327804Y00018388D01*
X00327934Y00018594D01*
X00328044Y00018802D01*
X00328134Y00019014D01*
X00328204Y00019228D01*
X00328254Y00019445D01*
X00328284Y00019664D01*
X00328294Y00019887D01*
X00329794D01*
X00329804Y00019664D01*
D02*
G37*
G36*
X00348486Y0001967D02*
X00348516Y0001945D01*
X00348567Y00019233D01*
X00348637Y00019019D01*
X00348727Y00018809D01*
X00348838Y00018601D01*
X00348969Y00018396D01*
X00349119Y00018194D01*
X0034929Y00017996D01*
X00349481Y000178D01*
X00345981Y00017775D01*
X0034617Y00017974D01*
X00346339Y00018175D01*
X00346488Y0001838D01*
X00346618Y00018587D01*
X00346727Y00018796D01*
X00346817Y00019008D01*
X00346886Y00019222D01*
X00346936Y00019439D01*
X00346966Y00019659D01*
X00346976Y00019881D01*
X00348476Y00019892D01*
X00348486Y0001967D01*
D02*
G37*
G36*
X-00009333Y0001455D02*
X-0000931Y00014298D01*
X-00009273Y00014071D01*
X-0000922Y00013867D01*
X-00009153Y00013688D01*
X-0000907Y00013533D01*
X-00008972Y00013401D01*
X-0000886Y00013294D01*
X-00008733Y00013211D01*
X-0000859Y00013152D01*
X-0001159D01*
X-00011447Y00013211D01*
X-0001132Y00013294D01*
X-00011207Y00013401D01*
X-0001111Y00013533D01*
X-00011027Y00013688D01*
X-0001096Y00013867D01*
X-00010907Y00014071D01*
X-0001087Y00014298D01*
X-00010848Y0001455D01*
X-0001084Y00014825D01*
X-0000934D01*
X-00009333Y0001455D01*
D02*
G37*
G36*
X-0000933Y00012044D02*
X-000093Y00011825D01*
X-0000925Y00011608D01*
X-0000918Y00011394D01*
X-0000909Y00011182D01*
X-0000898Y00010974D01*
X-0000885Y00010768D01*
X-000087Y00010565D01*
X-0000853Y00010365D01*
X-0000834Y00010167D01*
X-0001184D01*
X-0001165Y00010365D01*
X-0001148Y00010565D01*
X-0001133Y00010768D01*
X-000112Y00010974D01*
X-0001109Y00011182D01*
X-00011Y00011394D01*
X-0001093Y00011608D01*
X-0001088Y00011825D01*
X-0001085Y00012044D01*
X-0001084Y00012267D01*
X-0000934D01*
X-0000933Y00012044D01*
D02*
G37*
G36*
X00014986Y00090932D02*
X00014986Y0008509D01*
X00014732Y00084836D01*
X-00000254D01*
X-00001524Y00083566D01*
X-00001524Y00043688D01*
X-00001016Y0004318D01*
X000254Y0004318D01*
X00027432Y00041148D01*
X00027432Y00002029D01*
X00026927Y00001524D01*
X00018542D01*
X0001778Y00002286D01*
Y00036322D01*
X00017272Y0003683D01*
X-00007112Y0003683D01*
X-00007874Y00037592D01*
Y00089662D01*
X-0000635Y00091186D01*
X00014732Y00091186D01*
X00014986Y00090932D01*
D02*
G37*
G36*
X00162302Y-00000259D02*
X00162324Y-00000519D01*
X00162362Y-00000749D01*
X00162414Y-00000948D01*
X00162481Y-00001116D01*
X00162564Y-00001254D01*
X00162661Y-00001361D01*
X00162774Y-00001438D01*
X00162901Y-00001484D01*
X00163044Y-00001499D01*
X00160044D01*
X00160187Y-00001484D01*
X00160314Y-00001438D01*
X00160427Y-00001361D01*
X00160524Y-00001254D01*
X00160606Y-00001116D01*
X00160674Y-00000948D01*
X00160727Y-00000749D01*
X00160764Y-00000519D01*
X00160786Y-00000259D01*
X00160794Y00000032D01*
X00162294D01*
X00162302Y-00000259D01*
D02*
G37*
G36*
X00136902D02*
X00136924Y-00000519D01*
X00136961Y-00000749D01*
X00137014Y-00000948D01*
X00137081Y-00001116D01*
X00137164Y-00001254D01*
X00137261Y-00001361D01*
X00137374Y-00001438D01*
X00137501Y-00001484D01*
X00137644Y-00001499D01*
X00134644D01*
X00134787Y-00001484D01*
X00134914Y-00001438D01*
X00135027Y-00001361D01*
X00135124Y-00001254D01*
X00135206Y-00001116D01*
X00135274Y-00000948D01*
X00135326Y-00000749D01*
X00135364Y-00000519D01*
X00135386Y-00000259D01*
X00135394Y00000032D01*
X00136894D01*
X00136902Y-00000259D01*
D02*
G37*
G36*
X00162304Y-00010308D02*
X00162334Y-00010527D01*
X00162384Y-00010744D01*
X00162454Y-00010958D01*
X00162544Y-0001117D01*
X00162654Y-00011378D01*
X00162784Y-00011584D01*
X00162934Y-00011787D01*
X00163104Y-00011987D01*
X00163294Y-00012185D01*
X00159794D01*
X00159984Y-00011987D01*
X00160154Y-00011787D01*
X00160304Y-00011584D01*
X00160434Y-00011378D01*
X00160544Y-0001117D01*
X00160634Y-00010958D01*
X00160704Y-00010744D01*
X00160754Y-00010527D01*
X00160784Y-00010308D01*
X00160794Y-00010085D01*
X00162294D01*
X00162304Y-00010308D01*
D02*
G37*
G36*
X00136904D02*
X00136934Y-00010527D01*
X00136984Y-00010744D01*
X00137054Y-00010958D01*
X00137144Y-0001117D01*
X00137254Y-00011378D01*
X00137384Y-00011584D01*
X00137534Y-00011787D01*
X00137704Y-00011987D01*
X00137894Y-00012185D01*
X00134394D01*
X00134584Y-00011987D01*
X00134754Y-00011787D01*
X00134904Y-00011584D01*
X00135034Y-00011378D01*
X00135144Y-0001117D01*
X00135234Y-00010958D01*
X00135304Y-00010744D01*
X00135354Y-00010527D01*
X00135384Y-00010308D01*
X00135394Y-00010085D01*
X00136894D01*
X00136904Y-00010308D01*
D02*
G37*
G36*
X00200913Y00173228D02*
X0020828Y00165861D01*
Y00154686D01*
X00209804Y00153162D01*
X0022733Y00153162D01*
X00229362Y0015113D01*
X00229362Y00122174D01*
X0023241Y00119126D01*
X00370332Y00119126D01*
X00372364Y00117094D01*
Y-00024638D01*
X00370586Y-00026416D01*
X00359156D01*
X00357124Y-00024384D01*
X00357124Y0009906D01*
X00353315Y0010287D01*
X0019431Y0010287D01*
X00190005Y00107176D01*
X00189961Y0015167D01*
X00182111Y00159512D01*
X00030226Y00159512D01*
X00028702Y00161036D01*
X00028702Y0017145D01*
X0003048Y00173228D01*
X00200913Y00173228D01*
D02*
G37*
G36*
X00194564Y00061214D02*
Y-00024892D01*
X00192786Y-0002667D01*
X00180848D01*
X00179324Y-00025146D01*
Y00061468D01*
X00182626Y0006477D01*
X00191008D01*
X00194564Y00061214D01*
D02*
G37*
G36*
X00016698Y00035748D02*
Y00004826D01*
X00016764D01*
Y00002126D01*
X00017015Y00001521D01*
X00017015Y00001521D01*
X00016764Y00000921D01*
X00016764Y-00025654D01*
X00015494Y-00026924D01*
X00002794Y-00026924D01*
X00001509Y-0002564D01*
X0000151Y00000275D01*
X00001148Y00001148D01*
X0Y00001624D01*
X-00006567D01*
X-00007093Y00002894D01*
X-0000409Y00005897D01*
Y00010867D01*
X-00007605Y00014382D01*
X-00008196D01*
Y00034822D01*
X-00007785Y00035309D01*
X-00007333Y00035603D01*
X-00006926Y00035748D01*
X00016698Y00035748D01*
D02*
G37*
%LPC*%
G36*
X00073859Y00319662D02*
X00068889D01*
X00065777Y0031655D01*
X00065024Y00316275D01*
X00064271Y0031655D01*
X00061159Y00319662D01*
X00056189D01*
X00052674Y00316147D01*
Y00311177D01*
X00056189Y00307662D01*
X00061159D01*
X00064271Y00310774D01*
X00065024Y00311049D01*
X00065777Y00310774D01*
X00068889Y00307662D01*
X00073859D01*
X00077374Y00311177D01*
Y00316147D01*
X00073859Y00319662D01*
D02*
G37*
G36*
X00113724Y00122412D02*
X00110824D01*
X00109929Y00121517D01*
X00109738Y00121442D01*
X00109565Y00121275D01*
X00109418Y00121151D01*
X00109277Y00121046D01*
X0010914Y0012096D01*
X00109008Y0012089D01*
X00108881Y00120836D01*
X0010879Y00120806D01*
X00064603D01*
X00063263Y00120251D01*
X00047683Y00104671D01*
X00047128Y00103331D01*
Y00093747D01*
X00047098Y00093655D01*
X00047044Y00093528D01*
X00046974Y00093396D01*
X00046888Y00093259D01*
X00046783Y00093118D01*
X00046659Y00092971D01*
X00046492Y00092798D01*
X00046417Y00092607D01*
X00045522Y00091712D01*
Y00088812D01*
X00047572Y00086762D01*
X00050472D01*
X00052522Y00088812D01*
Y00091712D01*
X00051627Y00092607D01*
X00051552Y00092798D01*
X00051385Y00092971D01*
X00051261Y00093118D01*
X00051156Y0009326D01*
X0005107Y00093396D01*
X00051Y00093528D01*
X00050946Y00093655D01*
X00050916Y00093747D01*
Y00102547D01*
X00065387Y00117018D01*
X0010879D01*
X00108881Y00116988D01*
X00109008Y00116934D01*
X0010914Y00116864D01*
X00109277Y00116778D01*
X00109418Y00116673D01*
X00109478Y00116622D01*
X00109574Y00116486D01*
X00109719Y00115447D01*
X00109493Y00114948D01*
X00109478Y00114942D01*
X00109305Y00114775D01*
X00109158Y00114651D01*
X00109016Y00114546D01*
X0010888Y0011446D01*
X00108748Y0011439D01*
X00108621Y00114336D01*
X0010853Y00114306D01*
X0006847D01*
X00067131Y00113751D01*
X00058713Y00105334D01*
X00058158Y00103994D01*
Y00093747D01*
X00058128Y00093655D01*
X00058074Y00093528D01*
X00058005Y00093396D01*
X00057918Y00093259D01*
X00057814Y00093118D01*
X00057689Y00092971D01*
X00057523Y00092798D01*
X00057448Y00092607D01*
X00056552Y00091712D01*
Y00088812D01*
X00058603Y00086762D01*
X00061502D01*
X00063552Y00088812D01*
Y00091712D01*
X00062657Y00092607D01*
X00062582Y00092798D01*
X00062416Y00092971D01*
X00062291Y00093118D01*
X00062186Y0009326D01*
X000621Y00093396D01*
X00062031Y00093528D01*
X00061977Y00093655D01*
X00061947Y00093747D01*
Y0010321D01*
X00069255Y00110518D01*
X0010853D01*
X00108621Y00110488D01*
X00108748Y00110434D01*
X0010888Y00110364D01*
X00109017Y00110278D01*
X00109158Y00110173D01*
X00109305Y00110049D01*
X00109478Y00109882D01*
X00109493Y00109876D01*
X0010972Y00109376D01*
X00109574Y00108339D01*
X00109478Y00108202D01*
X00109418Y00108151D01*
X00109277Y00108046D01*
X0010914Y0010796D01*
X00109008Y0010789D01*
X00108881Y00107836D01*
X0010879Y00107806D01*
X00071961D01*
X00070622Y00107251D01*
X00069743Y00106373D01*
X00069189Y00105033D01*
Y00078646D01*
X00069159Y00078555D01*
X00069104Y00078428D01*
X00069035Y00078296D01*
X00068949Y00078159D01*
X00068844Y00078018D01*
X00068719Y00077871D01*
X00068553Y00077698D01*
X00068478Y00077507D01*
X00067583Y00076612D01*
Y00073712D01*
X00069633Y00071662D01*
X00072533D01*
X00074583Y00073712D01*
Y00076612D01*
X00073688Y00077507D01*
X00073613Y00077698D01*
X00073446Y00077871D01*
X00073321Y00078018D01*
X00073217Y0007816D01*
X0007313Y00078296D01*
X00073061Y00078428D01*
X00073007Y00078555D01*
X00072977Y00078646D01*
Y00104018D01*
X0010879D01*
X00108881Y00103988D01*
X00109008Y00103934D01*
X0010914Y00103864D01*
X00109277Y00103778D01*
X00109353Y00103721D01*
X00109426Y0010364D01*
X00109579Y00103031D01*
X00109597Y00102412D01*
X00109555Y00102127D01*
X00109359Y00101931D01*
X00109302Y00101895D01*
X00109249Y00101821D01*
X00108806Y00101378D01*
X00108802Y00101375D01*
X00108712Y00101329D01*
X00108652Y00101306D01*
X00082992D01*
X00081652Y00100751D01*
X00080774Y00099873D01*
X00080219Y00098533D01*
Y00078646D01*
X00080189Y00078555D01*
X00080135Y00078428D01*
X00080066Y00078296D01*
X00079979Y00078159D01*
X00079875Y00078018D01*
X0007975Y00077871D01*
X00079583Y00077698D01*
X00079509Y00077507D01*
X00078613Y00076612D01*
Y00073712D01*
X00080663Y00071662D01*
X00083563D01*
X00085613Y00073712D01*
Y00076612D01*
X00084718Y00077507D01*
X00084643Y00077698D01*
X00084477Y00077871D01*
X00084352Y00078018D01*
X00084247Y0007816D01*
X00084161Y00078296D01*
X00084092Y00078428D01*
X00084037Y00078555D01*
X00084007Y00078646D01*
Y00097518D01*
X00109057D01*
X00109158Y00097491D01*
X00109319Y00097438D01*
X00109489Y0009737D01*
X00109655Y00097292D01*
X00110058Y00097065D01*
X00110268Y00096928D01*
X00110298Y00096922D01*
X00110824Y00096396D01*
X00113724D01*
X00115774Y00098446D01*
Y00101346D01*
X00114216Y00102904D01*
X00115774Y00104462D01*
Y00107362D01*
X00113844Y00109292D01*
X00115514Y00110962D01*
Y00113862D01*
X00113844Y00115532D01*
X00115774Y00117462D01*
Y00120362D01*
X00113724Y00122412D01*
D02*
G37*
G36*
X00215444Y00061354D02*
X00204444D01*
Y00040754D01*
X00215444D01*
Y00061354D01*
D02*
G37*
%LPD*%
G36*
X00110489Y00117162D02*
X00110291Y00117352D01*
X00110091Y00117522D01*
X00109888Y00117672D01*
X00109682Y00117802D01*
X00109474Y00117912D01*
X00109262Y00118002D01*
X00109048Y00118072D01*
X00108831Y00118122D01*
X00108612Y00118152D01*
X00108389Y00118162D01*
Y00119662D01*
X00108612Y00119672D01*
X00108831Y00119702D01*
X00109048Y00119752D01*
X00109262Y00119822D01*
X00109474Y00119912D01*
X00109682Y00120022D01*
X00109888Y00120152D01*
X00110091Y00120302D01*
X00110291Y00120472D01*
X00110489Y00120662D01*
Y00117162D01*
D02*
G37*
G36*
X00110229Y00110662D02*
X00110031Y00110852D01*
X00109831Y00111022D01*
X00109628Y00111172D01*
X00109422Y00111302D01*
X00109214Y00111412D01*
X00109002Y00111502D01*
X00108788Y00111572D01*
X00108571Y00111622D01*
X00108352Y00111652D01*
X00108129Y00111662D01*
Y00113162D01*
X00108352Y00113172D01*
X00108571Y00113202D01*
X00108788Y00113252D01*
X00109002Y00113322D01*
X00109214Y00113412D01*
X00109422Y00113522D01*
X00109628Y00113652D01*
X00109831Y00113802D01*
X00110031Y00113972D01*
X00110229Y00114162D01*
Y00110662D01*
D02*
G37*
G36*
X00110489Y00104162D02*
X00110291Y00104352D01*
X00110091Y00104522D01*
X00109888Y00104672D01*
X00109682Y00104802D01*
X00109474Y00104912D01*
X00109262Y00105002D01*
X00109048Y00105072D01*
X00108831Y00105122D01*
X00108612Y00105152D01*
X00108389Y00105162D01*
Y00106662D01*
X00108612Y00106672D01*
X00108831Y00106702D01*
X00109048Y00106752D01*
X00109262Y00106822D01*
X00109474Y00106912D01*
X00109682Y00107022D01*
X00109888Y00107152D01*
X00110091Y00107302D01*
X00110291Y00107472D01*
X00110489Y00107662D01*
Y00104162D01*
D02*
G37*
G36*
X00110861Y00097833D02*
X00110621Y00097991D01*
X0011015Y00098256D01*
X00109919Y00098364D01*
X00109691Y00098455D01*
X00109466Y00098529D01*
X00109245Y00098587D01*
X00109027Y00098629D01*
X00108812Y00098654D01*
X001086Y00098662D01*
X00108288Y00100162D01*
X00108518Y00100173D01*
X00108739Y00100206D01*
X0010895Y00100261D01*
X00109153Y00100339D01*
X00109347Y00100438D01*
X00109532Y0010056D01*
X00109708Y00100704D01*
X00109876Y00100869D01*
X00110034Y00101057D01*
X00110184Y00101267D01*
X00110861Y00097833D01*
D02*
G37*
G36*
X00060812Y00093924D02*
X00060842Y00093705D01*
X00060892Y00093488D01*
X00060962Y00093274D01*
X00061052Y00093062D01*
X00061162Y00092854D01*
X00061292Y00092648D01*
X00061442Y00092445D01*
X00061612Y00092245D01*
X00061802Y00092047D01*
X00058302D01*
X00058492Y00092245D01*
X00058662Y00092445D01*
X00058812Y00092648D01*
X00058942Y00092854D01*
X00059052Y00093062D01*
X00059142Y00093274D01*
X00059212Y00093488D01*
X00059262Y00093705D01*
X00059292Y00093924D01*
X00059302Y00094147D01*
X00060802D01*
X00060812Y00093924D01*
D02*
G37*
G36*
X00049782D02*
X00049812Y00093705D01*
X00049862Y00093488D01*
X00049932Y00093274D01*
X00050022Y00093062D01*
X00050132Y00092854D01*
X00050262Y00092648D01*
X00050412Y00092445D01*
X00050582Y00092245D01*
X00050772Y00092047D01*
X00047272D01*
X00047462Y00092245D01*
X00047632Y00092445D01*
X00047782Y00092648D01*
X00047912Y00092854D01*
X00048022Y00093062D01*
X00048112Y00093274D01*
X00048182Y00093488D01*
X00048232Y00093705D01*
X00048262Y00093924D01*
X00048272Y00094147D01*
X00049772D01*
X00049782Y00093924D01*
D02*
G37*
G36*
X00082873Y00078824D02*
X00082903Y00078605D01*
X00082953Y00078388D01*
X00083023Y00078174D01*
X00083113Y00077962D01*
X00083223Y00077754D01*
X00083353Y00077548D01*
X00083503Y00077345D01*
X00083673Y00077145D01*
X00083863Y00076947D01*
X00080363D01*
X00080553Y00077145D01*
X00080723Y00077345D01*
X00080873Y00077548D01*
X00081003Y00077754D01*
X00081113Y00077962D01*
X00081203Y00078174D01*
X00081273Y00078388D01*
X00081323Y00078605D01*
X00081353Y00078824D01*
X00081363Y00079047D01*
X00082863D01*
X00082873Y00078824D01*
D02*
G37*
G36*
X00071843D02*
X00071873Y00078605D01*
X00071923Y00078388D01*
X00071993Y00078174D01*
X00072083Y00077962D01*
X00072193Y00077754D01*
X00072323Y00077548D01*
X00072473Y00077345D01*
X00072643Y00077145D01*
X00072833Y00076947D01*
X00069333D01*
X00069523Y00077145D01*
X00069693Y00077345D01*
X00069843Y00077548D01*
X00069973Y00077754D01*
X00070083Y00077962D01*
X00070173Y00078174D01*
X00070243Y00078388D01*
X00070293Y00078605D01*
X00070323Y00078824D01*
X00070333Y00079047D01*
X00071833D01*
X00071843Y00078824D01*
D02*
G37*
%LPC*%
G36*
X-00025966Y00084764D02*
X-00029694D01*
X-0003233Y00082128D01*
Y000784D01*
X-00029694Y00075764D01*
X-00025966D01*
X-0002333Y000784D01*
Y00082128D01*
X-00025966Y00084764D01*
D02*
G37*
G36*
X-00043966D02*
X-00047694D01*
X-0005033Y00082128D01*
Y000784D01*
X-00047694Y00075764D01*
X-00043966D01*
X-0004133Y000784D01*
Y00082128D01*
X-00043966Y00084764D01*
D02*
G37*
%LPD*%
D27*
X00034544Y-0001397D02*
D03*
X00059944D02*
D03*
X00085344D02*
D03*
X00110744D02*
D03*
X00009144D02*
D03*
X00136144D02*
D03*
X00339344D02*
D03*
X00313944D02*
D03*
X00288544D02*
D03*
X00263144D02*
D03*
X00237744D02*
D03*
X00212344D02*
D03*
X00186944D02*
D03*
X00161544D02*
D03*
X00364744D02*
D03*
D35*
X-0004583Y00080264D02*
D03*
X-0002783D02*
D03*
D36*
X00161544Y-0001397D02*
Y00079912D01*
X00136144D02*
Y00080741D01*
Y-0001397D02*
Y00079912D01*
X00065024Y00133096D02*
Y00149698D01*
X0001995Y00059303D02*
Y00151522D01*
X00023876Y00096082D02*
Y0010414D01*
Y00096082D02*
X000242Y00095758D01*
X00009104Y00061508D02*
X00013364D01*
X0001745Y00071374D02*
Y00152557D01*
X00017155Y00056508D02*
X0001995Y00059303D01*
X00082113Y00075162D02*
Y00098533D01*
X00071083Y00075162D02*
Y00105033D01*
X00060052Y00090262D02*
Y00103994D01*
X00049022Y00090262D02*
Y00103331D01*
X00178562Y00183388D02*
Y00226314D01*
X0018412Y00231872D01*
X00197534D01*
X00105005Y00084836D02*
X00146812D01*
X00160274Y00098298D02*
Y00138662D01*
X00146812Y00084836D02*
X00160274Y00098298D01*
X0001745Y00062662D02*
Y00071374D01*
X00009238D02*
X0001745D01*
X00009104Y00071508D02*
X00009238Y00071374D01*
X00016256Y00061468D02*
X0001745Y00062662D01*
X0001995Y00151522D02*
X0002369Y00155262D01*
X00009144Y00061468D02*
X00016256D01*
X00009104Y00061508D02*
X00009144Y00061468D01*
X0001745Y00152557D02*
X00022654Y00157762D01*
X0002369Y00155262D02*
X00166048D01*
X00022654Y00157762D02*
X0017701D01*
X00185674Y00149098D01*
X00166048Y00155262D02*
X00173228Y00148082D01*
X0001495Y00117976D02*
Y00160492D01*
X00029436Y00174978D02*
X00165072D01*
X0001495Y00160492D02*
X00029436Y00174978D01*
X00011782Y00114808D02*
X0001495Y00117976D01*
X00203854Y00179832D02*
X0027559D01*
X00284816Y00170606D01*
X00252142Y00174832D02*
X00256816Y00170158D01*
Y00132764D02*
Y00170158D01*
X00201783Y00174832D02*
X00252142D01*
X00262088Y00177332D02*
X00270816Y00168604D01*
X00202819Y00177332D02*
X00262088D01*
X00170942Y00180848D02*
Y00308356D01*
X00165072Y00174978D02*
X00170942Y00180848D01*
X00176062Y00182353D02*
X00180937Y00177478D01*
X00188556D01*
X00173562Y00181317D02*
Y00188937D01*
Y00181317D02*
X00179901Y00174978D01*
X00187521D01*
X00181972Y00179978D02*
X00203708D01*
X00178562Y00183388D02*
X00181972Y00179978D01*
X00176062Y00182353D02*
Y00189972D01*
X00188556Y00177478D02*
X00202673D01*
X00187521Y00174978D02*
X00201637D01*
X00173562Y00188937D02*
Y00247594D01*
X00176062Y00189972D02*
Y00236566D01*
X00170942Y00308356D02*
X00177038Y00314452D01*
X00203708Y00179978D02*
X00203854Y00179832D01*
X00201637Y00174978D02*
X00201783Y00174832D01*
X00202673Y00177478D02*
X00202819Y00177332D01*
X-0001009Y00112846D02*
X-00008128Y00114808D01*
X00011782D01*
X-0001009Y00008382D02*
Y00112846D01*
X00092225Y0003941D02*
X00094568Y00041753D01*
X00099568Y00039682D02*
Y00079399D01*
X00055252Y0003441D02*
X00094296D01*
X00065706Y0003691D02*
X0009326D01*
X00084328Y0004191D02*
X00091189D01*
X00097068Y00040718D02*
Y00080434D01*
X00091189Y0004191D02*
X00092068Y00042789D01*
X00073699Y0003941D02*
X00092225D01*
X00094296Y0003441D02*
X00099568Y00039682D01*
X00049022Y0004064D02*
X00055252Y0003441D01*
X00082113Y00044125D02*
Y00051956D01*
Y00044125D02*
X00084328Y0004191D01*
X00060052Y00042564D02*
X00065706Y0003691D01*
X00092068Y00042789D02*
Y00082505D01*
X00094568Y00041753D02*
Y0008147D01*
X0009326Y0003691D02*
X00097068Y00040718D01*
X00071083Y00042027D02*
X00073699Y0003941D01*
X00060052Y00042564D02*
Y00067556D01*
X00049022Y0004064D02*
Y00067556D01*
X00092068Y00082505D02*
X00102019Y00092456D01*
X00094568Y0008147D02*
X00103054Y00089956D01*
X00097068Y00080434D02*
X0010409Y00087456D01*
X00099568Y00079399D02*
X00105005Y00084836D01*
X00071083Y00042027D02*
Y00051956D01*
X00102019Y00092456D02*
X00116078D01*
X00122174Y00098552D01*
X00136478Y00087456D02*
X00147574Y00098552D01*
X0010409Y00087456D02*
X00136478D01*
X0012704Y00089956D02*
X00134874Y0009779D01*
X00103054Y00089956D02*
X0012704D01*
X00122174Y00098552D02*
Y00138662D01*
X00134874Y0009779D02*
Y00138662D01*
X00082992Y00099412D02*
X0011179D01*
X00112274Y00099896D01*
X00147574Y00098552D02*
Y00138662D01*
X00082113Y00098533D02*
X00082992Y00099412D01*
X00064603Y00118912D02*
X00112274D01*
X00049022Y00103331D02*
X00064603Y00118912D01*
X0006847Y00112412D02*
X00112014D01*
X00060052Y00103994D02*
X0006847Y00112412D01*
X00071961Y00105912D02*
X00112274D01*
X00071083Y00105033D02*
X00071961Y00105912D01*
X00034036Y00095942D02*
X00034544Y00095434D01*
X00034036Y00095942D02*
Y00102108D01*
X00023876Y0010414D02*
X00053086Y0013335D01*
Y00149698D01*
X00173562Y00247594D02*
X0018388Y00257912D01*
X00176062Y00236566D02*
X00184708Y00245212D01*
X00197534Y00231872D02*
X00198174Y00232512D01*
X00184708Y00245212D02*
X00198174D01*
X00000226Y00057404D02*
X00001122Y00056508D01*
X00009104D01*
X00000226Y00065629D02*
X00001105Y00066508D01*
X00000226Y00057404D02*
Y00065629D01*
X00001105Y00066508D02*
X00009104D01*
Y00056508D02*
X00017155D01*
X00177038Y00314452D02*
X00185928D01*
X00034036Y00102108D02*
X00065024Y00133096D01*
X00181866Y00099412D02*
X00340516D01*
X00181866Y00092912D02*
X00321362D01*
X00181866Y00086412D02*
X00277824D01*
X00181866Y00079912D02*
X00264766D01*
X0026758Y00077098D01*
X00277824Y00086412D02*
X00283482Y00080754D01*
X00321362Y00092912D02*
X00329044Y0008523D01*
X00340516Y00099412D02*
X00347726Y00092202D01*
X00270816Y00132764D02*
Y00168604D01*
X0018388Y00257912D02*
X00198174D01*
X00172974Y00138662D02*
X00173228Y00138916D01*
Y00148082D01*
X00284816Y00132764D02*
Y00170606D01*
X00185674Y00138662D02*
Y00149098D01*
X00329044Y00016002D02*
Y0008523D01*
X00347726Y00016002D02*
Y00092202D01*
X00283482Y00049784D02*
Y00080754D01*
X0026758Y00049784D02*
Y00077098D01*
D38*
X00003354Y00107208D02*
D03*
Y00020808D02*
D03*
D39*
X-00036646Y00107208D02*
D03*
Y00020808D02*
D03*
D40*
X00276606Y00071374D02*
D03*
X00226568Y00027178D02*
D03*
X00221488Y0004445D02*
D03*
X00166566Y00090753D02*
D03*
Y00110753D02*
D03*
X00126268Y00230454D02*
D03*
X00146268Y00210454D02*
D03*
X00106268Y00250454D02*
D03*
X00086385Y00270571D02*
D03*
X00146566Y00090753D02*
D03*
X00376567Y00010753D02*
D03*
X00351567Y00200753D02*
D03*
Y00180753D02*
D03*
Y00140753D02*
D03*
X00346567Y00210753D02*
D03*
X00341567Y00200753D02*
D03*
X00346567Y00190753D02*
D03*
X00341567Y00180753D02*
D03*
X00346567Y00170753D02*
D03*
X00341567Y00040753D02*
D03*
X00336567Y00210753D02*
D03*
X00331567Y00200753D02*
D03*
X00336567Y00190753D02*
D03*
X00331567Y00180753D02*
D03*
X00336567Y00170753D02*
D03*
X00331567Y00140753D02*
D03*
X00336567Y00050753D02*
D03*
X00326567Y00210753D02*
D03*
X00321567Y00200753D02*
D03*
X00326567Y00190753D02*
D03*
X00321567Y00180753D02*
D03*
X00326567Y00170753D02*
D03*
X00321567Y00140753D02*
D03*
Y00060753D02*
D03*
X00316567Y00210753D02*
D03*
X00311567Y00200753D02*
D03*
X00316567Y00190753D02*
D03*
X00311567Y00180753D02*
D03*
X00316567Y00130753D02*
D03*
X00306567Y00210753D02*
D03*
X00301567Y00200753D02*
D03*
X00306567Y00190753D02*
D03*
X00301567Y00160753D02*
D03*
X00296567Y00210753D02*
D03*
X00291567Y00200753D02*
D03*
X00296567Y00150753D02*
D03*
X00291567Y00140753D02*
D03*
X00296567Y00130753D02*
D03*
X00286567Y00210753D02*
D03*
X00281567Y00180753D02*
D03*
X00276567Y00170753D02*
D03*
Y00150753D02*
D03*
X00271567Y00080753D02*
D03*
X00261567Y00160753D02*
D03*
Y00140753D02*
D03*
X00256567Y00190753D02*
D03*
X00196567Y00310753D02*
D03*
X00181567Y00300753D02*
D03*
X00186567Y00290753D02*
D03*
X00181567Y00280753D02*
D03*
X00186567Y00270753D02*
D03*
Y00250753D02*
D03*
X00176566Y00290753D02*
D03*
Y00270753D02*
D03*
X00171567Y00040753D02*
D03*
X00161567Y00300753D02*
D03*
Y00280753D02*
D03*
Y00260753D02*
D03*
Y00240753D02*
D03*
Y00180753D02*
D03*
X00166566Y00070753D02*
D03*
Y00050753D02*
D03*
X00151566Y00300753D02*
D03*
X00156566Y00290753D02*
D03*
X00151566Y00280753D02*
D03*
X00156566Y00270753D02*
D03*
X00151566Y00260753D02*
D03*
X00156566Y00250753D02*
D03*
X00151566Y00240753D02*
D03*
X00156566Y00230753D02*
D03*
X00151566Y00200753D02*
D03*
X00156566Y00190753D02*
D03*
X00151566Y00180753D02*
D03*
X00141566Y00300753D02*
D03*
X00146566Y00290753D02*
D03*
X00141566Y00280753D02*
D03*
X00146566Y00270753D02*
D03*
X00141566Y00260753D02*
D03*
X00146566Y00250753D02*
D03*
X00141566Y00240753D02*
D03*
Y00200753D02*
D03*
X00146566Y00190753D02*
D03*
X00141566Y00180753D02*
D03*
X00131566Y00300753D02*
D03*
X00136566Y00290753D02*
D03*
X00131566Y00280753D02*
D03*
X00136566Y00270753D02*
D03*
X00131566Y00260753D02*
D03*
X00136566Y00250753D02*
D03*
X00131566Y00220753D02*
D03*
X00136566Y00210753D02*
D03*
X00131566Y00200753D02*
D03*
X00136566Y00190753D02*
D03*
X00131566Y00180753D02*
D03*
X00121566Y00220753D02*
D03*
X00126566Y00210753D02*
D03*
X00121566Y00200753D02*
D03*
X00126566Y00190753D02*
D03*
X00121566Y00180753D02*
D03*
Y00040753D02*
D03*
X00111566Y00240753D02*
D03*
Y00180753D02*
D03*
X00116566Y00050753D02*
D03*
X00111566Y00040753D02*
D03*
X00101566Y00240753D02*
D03*
Y00180753D02*
D03*
X00106566Y00050753D02*
D03*
X00091566Y00260753D02*
D03*
X00096566Y00250753D02*
D03*
X00091566Y00240753D02*
D03*
Y00180753D02*
D03*
X00081566Y00260753D02*
D03*
X00086566Y00250753D02*
D03*
X00081566Y00240753D02*
D03*
Y00180753D02*
D03*
X00071566Y00300753D02*
D03*
X00076566Y00290753D02*
D03*
X00071566Y00280753D02*
D03*
X00076566Y00270753D02*
D03*
X00071566Y00260753D02*
D03*
X00076566Y00250753D02*
D03*
X00071566Y00240753D02*
D03*
Y00220753D02*
D03*
Y00200753D02*
D03*
Y00180753D02*
D03*
X00061566Y00300753D02*
D03*
X00066566Y00290753D02*
D03*
X00061566Y00280753D02*
D03*
X00066566Y00270753D02*
D03*
X00061566Y00260753D02*
D03*
X00066566Y00250753D02*
D03*
X00061566Y00240753D02*
D03*
X00066566Y00230753D02*
D03*
X00061566Y00220753D02*
D03*
X00066566Y00210753D02*
D03*
X00061566Y00200753D02*
D03*
X00051566Y00300753D02*
D03*
X00056566Y00290753D02*
D03*
X00051566Y00280753D02*
D03*
X00056566Y00270753D02*
D03*
X00051566Y00260753D02*
D03*
X00056566Y00250753D02*
D03*
X00051566Y00240753D02*
D03*
X00056566Y00230753D02*
D03*
X00051566Y00220753D02*
D03*
X00056566Y00210753D02*
D03*
X00031566Y00200753D02*
D03*
X00036566Y00190753D02*
D03*
X00031566Y00040753D02*
D03*
X00021566Y00300753D02*
D03*
X00026566Y00290753D02*
D03*
X00021566Y00280753D02*
D03*
X00026566Y00270753D02*
D03*
X00021566Y00260753D02*
D03*
X00026566Y00250753D02*
D03*
X00021566Y00240753D02*
D03*
X00026566Y00230753D02*
D03*
X00021566Y00220753D02*
D03*
X00026566Y00210753D02*
D03*
X00021566Y00200753D02*
D03*
X00026566Y00190753D02*
D03*
X00021566Y00180753D02*
D03*
X-00018434Y00040753D02*
D03*
Y00020753D02*
D03*
X-00023434Y00050753D02*
D03*
X-00028434Y00040753D02*
D03*
X-00023434Y00030753D02*
D03*
X-00038434Y00080753D02*
D03*
X-00033434Y00050753D02*
D03*
X-00038434Y00040753D02*
D03*
X-00033434Y00030753D02*
D03*
X-00043434Y00050753D02*
D03*
X00097774Y00211162D02*
D03*
X00128778Y00104394D02*
D03*
X00128524Y00118618D02*
D03*
X000242Y00095758D02*
D03*
X00082113Y00075162D02*
D03*
X00071083D02*
D03*
X00060052Y00090262D02*
D03*
X00049022D02*
D03*
X00250952Y00008128D02*
D03*
X00276098D02*
D03*
X0030099D02*
D03*
X00315214Y0002667D02*
D03*
X00276098Y00023184D02*
D03*
Y00038284D02*
D03*
X00162306Y00219812D02*
D03*
X00185928D02*
D03*
X00103579Y00270965D02*
D03*
X00368766Y00216764D02*
D03*
Y00202764D02*
D03*
X00103378Y00285242D02*
D03*
X00090678D02*
D03*
Y00297688D02*
D03*
X00103378D02*
D03*
X00116332Y00270764D02*
D03*
Y00285242D02*
D03*
Y00297688D02*
D03*
X00059182Y00184404D02*
D03*
X00047498Y00200152D02*
D03*
X00039624Y00225044D02*
D03*
Y00242824D02*
D03*
Y00257302D02*
D03*
Y00270764D02*
D03*
Y00285242D02*
D03*
Y00297688D02*
D03*
X00342138Y00126238D02*
D03*
X00310134Y00137414D02*
D03*
X00290576Y00157226D02*
D03*
X00342138Y00139954D02*
D03*
Y00153416D02*
D03*
X00310134Y001524D02*
D03*
Y00168148D02*
D03*
X00290576Y00171704D02*
D03*
Y00188468D02*
D03*
X0026543D02*
D03*
Y00203708D02*
D03*
X0003429Y00163322D02*
D03*
Y00169418D02*
D03*
X-00000231Y00119634D02*
D03*
X-00005935Y0011938D02*
D03*
X00005472Y00119634D02*
D03*
X00112274Y00099896D02*
D03*
X00034544Y00095434D02*
D03*
X00185928Y00194564D02*
D03*
Y00207518D02*
D03*
X00065024Y00149698D02*
D03*
X00053086D02*
D03*
X00020574Y00313662D02*
D03*
X00263144Y-0001397D02*
D03*
X00288544D02*
D03*
X00313944D02*
D03*
X00368766Y00174764D02*
D03*
X00219202Y0016256D02*
D03*
X00224409D02*
D03*
X00213995D02*
D03*
Y00157226D02*
D03*
X00224409D02*
D03*
X00219202D02*
D03*
X0004699Y00108458D02*
D03*
X00339598Y-0001397D02*
D03*
X00009144D02*
D03*
Y-00006858D02*
D03*
Y-00021082D02*
D03*
X00004064D02*
D03*
Y-00006858D02*
D03*
Y-0001397D02*
D03*
X00014224Y-00021082D02*
D03*
Y-00006858D02*
D03*
Y-0001397D02*
D03*
X00112274Y00105912D02*
D03*
X00112014Y00112412D02*
D03*
X00181866D02*
D03*
Y00099412D02*
D03*
Y00092912D02*
D03*
Y00086412D02*
D03*
Y00079912D02*
D03*
X00136144D02*
D03*
X00161544D02*
D03*
Y-0001397D02*
D03*
X00136144D02*
D03*
X00071083Y00051956D02*
D03*
X00049022Y00067556D02*
D03*
X00082113Y00051956D02*
D03*
X00060052Y00067556D02*
D03*
X00083774Y00197162D02*
D03*
X00097774D02*
D03*
X00111774D02*
D03*
Y00211162D02*
D03*
Y00225162D02*
D03*
X00097774D02*
D03*
X00083774D02*
D03*
Y00211162D02*
D03*
X00033274Y00138662D02*
D03*
X00045974D02*
D03*
X00185928Y00314452D02*
D03*
X00005472Y00125222D02*
D03*
X00198174Y00232512D02*
D03*
Y00245212D02*
D03*
Y00257912D02*
D03*
X00284816Y00132764D02*
D03*
X00270816D02*
D03*
X00256816D02*
D03*
X00211074Y00234149D02*
D03*
X00217551D02*
D03*
X00224028D02*
D03*
X-0001009Y00008382D02*
D03*
X00112274Y00118912D02*
D03*
X00361188Y-00007874D02*
D03*
X00368808D02*
D03*
Y-0001524D02*
D03*
X00361188Y-00022606D02*
D03*
X00368808D02*
D03*
X00361188Y-0001524D02*
D03*
X00213614Y00149352D02*
D03*
X00219456D02*
D03*
X00225298D02*
D03*
Y00143002D02*
D03*
X00219456D02*
D03*
X00213614D02*
D03*
X00192024Y-0001397D02*
D03*
Y-00006858D02*
D03*
Y-00021082D02*
D03*
X00181864Y-0001397D02*
D03*
Y-00006858D02*
D03*
Y-00021082D02*
D03*
X00186944D02*
D03*
Y-00006858D02*
D03*
Y-0001397D02*
D03*
X00020828Y00009652D02*
D03*
Y00005588D02*
D03*
X00024892D02*
D03*
Y00009652D02*
D03*
X00185674Y00138662D02*
D03*
X00172974D02*
D03*
X00122174D02*
D03*
X00147574D02*
D03*
X00134874D02*
D03*
X00160274D02*
D03*
X00071374Y00313662D02*
D03*
X00058674D02*
D03*
X00347744Y00016002D02*
D03*
X00329044D02*
D03*
X00283482Y00049784D02*
D03*
X0026758D02*
D03*
X-00051562Y00120142D02*
D03*
X-00045859D02*
D03*
X-00040155Y00119888D02*
D03*
X-00034452D02*
D03*
X-00028748D02*
D03*
X-00023045Y00119634D02*
D03*
X-00017341D02*
D03*
X-00011638Y0011938D02*
D03*
X-00000231Y00125222D02*
D03*
X-00005935Y00124968D02*
D03*
X-00011638D02*
D03*
X-00017341Y00125222D02*
D03*
X-00023045D02*
D03*
X-00028748Y00125476D02*
D03*
X-00034452D02*
D03*
X-00040155D02*
D03*
X-00045859Y0012573D02*
D03*
X-00051562D02*
D03*
X00211074Y00319024D02*
D03*
Y00311951D02*
D03*
Y00304878D02*
D03*
Y00297805D02*
D03*
Y00290732D02*
D03*
Y00283659D02*
D03*
Y00276586D02*
D03*
Y00269513D02*
D03*
Y0026244D02*
D03*
Y00255368D02*
D03*
Y00248295D02*
D03*
Y00241222D02*
D03*
X00217551Y00319024D02*
D03*
Y00311951D02*
D03*
Y00304878D02*
D03*
Y00297805D02*
D03*
Y00290732D02*
D03*
Y00283659D02*
D03*
Y00276586D02*
D03*
Y00269513D02*
D03*
Y0026244D02*
D03*
Y00255368D02*
D03*
Y00248295D02*
D03*
Y00241222D02*
D03*
X00224028D02*
D03*
Y00248295D02*
D03*
Y00255368D02*
D03*
Y0026244D02*
D03*
Y00269513D02*
D03*
Y00276586D02*
D03*
Y00283659D02*
D03*
Y00290732D02*
D03*
Y00297805D02*
D03*
Y00304878D02*
D03*
Y00311951D02*
D03*
Y00319024D02*
D03*
D41*
X00009104Y00061508D02*
D03*
Y00066508D02*
D03*
Y00071508D02*
D03*
Y00056508D02*
D03*
Y00051508D02*
D03*
Y00076508D02*
D03*
Y00081508D02*
D03*
Y00046508D02*
D03*
D42*
Y00040008D02*
D03*
Y00088008D02*
D03*
Y00096008D02*
D03*
Y00032008D02*
D03*
D43*
X00045974Y00138662D02*
D03*
X00368766Y00174764D02*
D03*
X00058674Y00313662D02*
D03*
X00071374D02*
D03*
X00033274Y00138662D02*
D03*
X0026758Y00049784D02*
D03*
X00283482D02*
D03*
X00329044Y00016002D02*
D03*
X00347726D02*
D03*
X-0001009Y00008382D02*
D03*
X00181866Y00112412D02*
D03*
D44*
X00209944Y00112554D02*
D03*
D45*
X00186944Y00051054D02*
D03*
X00209944D02*
D03*
X00232944D02*
D03*
M02*
