G04*
G04 #@! TF.GenerationSoftware,Altium Limited,Altium Designer,23.0.1 (38)*
G04*
G04 Layer_Color=65535*
%FSTAX44Y44*%
%MOMM*%
G71*
G04*
G04 #@! TF.SameCoordinates,819F8F0F-2E7A-4D06-A50E-73C9B09E9D71*
G04*
G04*
G04 #@! TF.FilePolarity,Positive*
G04*
G01*
G75*
%ADD10C,0.1000*%
%ADD11C,0.2000*%
%ADD12C,0.1270*%
%ADD13C,0.0500*%
G36*
X00036952Y00425021D02*
X00039754Y00421221D01*
X00038635D01*
X00036361Y00424448D01*
X00035316Y0042344D01*
Y00421221D01*
X00034465D01*
Y00427619D01*
X00035316D01*
Y00424439D01*
X00038478Y00427619D01*
X00039634D01*
X00036952Y00425021D01*
D02*
G37*
G36*
X00042416Y00427638D02*
X0004249Y00427628D01*
X00042583Y00427619D01*
X00042684Y00427601D01*
X00042786Y00427582D01*
X00043027Y00427517D01*
X00043267Y00427425D01*
X00043387Y00427369D01*
X00043507Y00427305D01*
X00043618Y00427221D01*
X0004372Y00427129D01*
X00043729Y0042712D01*
X00043748Y00427111D01*
X00043766Y00427074D01*
X00043803Y00427037D01*
X0004385Y0042699D01*
X00043896Y00426926D01*
X00043942Y00426861D01*
X00043997Y00426778D01*
X0004409Y00426602D01*
X00044182Y0042638D01*
X00044219Y00426269D01*
X00044238Y0042614D01*
X00044256Y0042601D01*
X00044265Y00425872D01*
Y00425853D01*
Y00425807D01*
X00044256Y00425733D01*
X00044247Y00425631D01*
X00044229Y0042552D01*
X00044192Y00425391D01*
X00044155Y00425252D01*
X00044099Y00425114D01*
X0004409Y00425095D01*
X00044071Y00425049D01*
X00044034Y00424975D01*
X00043979Y00424873D01*
X00043905Y00424762D01*
X00043812Y00424623D01*
X00043702Y00424485D01*
X00043572Y00424328D01*
X00043554Y00424309D01*
X00043507Y00424254D01*
X00043461Y00424207D01*
X00043415Y00424161D01*
X00043359Y00424106D01*
X00043285Y00424032D01*
X00043211Y00423958D01*
X00043119Y00423875D01*
X00043027Y00423782D01*
X00042916Y0042368D01*
X00042796Y00423579D01*
X00042666Y00423459D01*
X00042518Y00423338D01*
X0004237Y00423209D01*
X00042361Y004232D01*
X00042343Y00423181D01*
X00042305Y00423153D01*
X00042259Y00423116D01*
X00042204Y00423061D01*
X00042139Y00423006D01*
X00041991Y00422885D01*
X00041834Y00422747D01*
X00041686Y00422608D01*
X00041557Y00422488D01*
X00041501Y00422442D01*
X00041455Y00422395D01*
X00041446Y00422386D01*
X00041418Y00422358D01*
X00041381Y00422321D01*
X00041335Y00422266D01*
X00041288Y00422201D01*
X00041233Y00422136D01*
X00041122Y00421979D01*
X00044275D01*
Y00421221D01*
X00040031D01*
Y0042123D01*
Y00421267D01*
Y00421323D01*
X0004004Y00421397D01*
X0004005Y0042148D01*
X00040068Y00421572D01*
X00040086Y00421665D01*
X00040124Y00421767D01*
Y00421776D01*
X00040133Y00421785D01*
X00040151Y00421841D01*
X00040188Y00421924D01*
X00040244Y00422035D01*
X00040318Y00422164D01*
X0004041Y00422312D01*
X00040512Y0042246D01*
X00040641Y00422617D01*
Y00422626D01*
X0004066Y00422636D01*
X00040706Y00422691D01*
X00040789Y00422774D01*
X00040909Y00422895D01*
X00041048Y00423033D01*
X00041224Y004232D01*
X00041436Y00423385D01*
X00041667Y00423579D01*
X00041677Y00423588D01*
X00041714Y00423616D01*
X00041769Y00423662D01*
X00041834Y00423717D01*
X00041917Y00423791D01*
X00042019Y00423875D01*
X00042121Y00423967D01*
X00042241Y00424069D01*
X00042472Y00424291D01*
X00042703Y00424513D01*
X00042814Y00424623D01*
X00042916Y00424734D01*
X00043008Y00424836D01*
X00043082Y00424938D01*
Y00424947D01*
X00043101Y00424956D01*
X00043119Y00424984D01*
X00043138Y00425021D01*
X00043202Y00425123D01*
X00043276Y00425243D01*
X00043341Y00425391D01*
X00043406Y00425548D01*
X00043443Y00425724D01*
X00043461Y0042589D01*
Y00425899D01*
Y00425909D01*
X00043452Y00425964D01*
X00043443Y00426057D01*
X00043415Y00426158D01*
X00043378Y00426288D01*
X00043313Y00426417D01*
X0004323Y00426547D01*
X00043119Y00426676D01*
X00043101Y00426694D01*
X00043054Y00426731D01*
X0004299Y00426778D01*
X00042888Y00426842D01*
X00042758Y00426898D01*
X00042611Y00426953D01*
X00042435Y0042699D01*
X00042241Y00427D01*
X00042185D01*
X00042148Y0042699D01*
X00042037Y00426981D01*
X00041908Y00426953D01*
X00041769Y00426916D01*
X00041612Y00426852D01*
X00041464Y00426768D01*
X00041325Y00426658D01*
X00041307Y00426639D01*
X0004127Y00426593D01*
X00041214Y00426519D01*
X00041159Y00426408D01*
X00041094Y00426278D01*
X00041039Y00426112D01*
X00041002Y00425927D01*
X00040983Y00425714D01*
X00040179Y00425798D01*
Y00425807D01*
X00040188Y00425835D01*
Y00425881D01*
X00040198Y00425946D01*
X00040216Y0042602D01*
X00040234Y00426103D01*
X00040262Y00426204D01*
X0004029Y00426306D01*
X00040364Y00426528D01*
X00040475Y0042675D01*
X0004054Y00426861D01*
X00040623Y00426972D01*
X00040706Y00427074D01*
X00040798Y00427166D01*
X00040808Y00427175D01*
X00040826Y00427185D01*
X00040854Y00427212D01*
X000409Y0042724D01*
X00040956Y00427277D01*
X0004102Y00427314D01*
X00041094Y0042736D01*
X00041187Y00427407D01*
X00041288Y00427453D01*
X00041399Y00427499D01*
X0004152Y00427536D01*
X00041649Y00427573D01*
X00041788Y00427601D01*
X00041936Y00427628D01*
X00042093Y00427638D01*
X00042259Y00427647D01*
X00042352D01*
X00042416Y00427638D01*
D02*
G37*
G36*
X00225407Y00202141D02*
X00225527Y00202123D01*
X00225675Y00202095D01*
X00225841Y00202049D01*
X00226008Y00201993D01*
X00226174Y00201919D01*
X00226183D01*
X00226192Y0020191D01*
X00226248Y00201882D01*
X00226331Y00201827D01*
X00226424Y00201762D01*
X00226535Y0020167D01*
X00226646Y00201568D01*
X00226756Y00201448D01*
X00226849Y00201309D01*
X00226858Y0020129D01*
X00226886Y00201244D01*
X00226923Y00201161D01*
X00226969Y00201059D01*
X00227015Y00200939D01*
X00227052Y002008D01*
X0022708Y00200643D01*
X00227089Y00200486D01*
Y00200468D01*
Y00200412D01*
X0022708Y00200338D01*
X00227062Y00200236D01*
X00227034Y00200116D01*
X00226988Y00199987D01*
X00226932Y00199857D01*
X00226858Y00199728D01*
X00226849Y00199709D01*
X00226821Y00199673D01*
X00226766Y00199608D01*
X00226692Y00199534D01*
X00226599Y00199451D01*
X00226488Y00199358D01*
X00226359Y00199275D01*
X00226202Y00199192D01*
X00226211D01*
X00226229Y00199182D01*
X00226257Y00199173D01*
X00226294Y00199164D01*
X00226396Y00199127D01*
X00226525Y00199072D01*
X00226673Y00198998D01*
X00226821Y00198905D01*
X0022696Y00198785D01*
X00227089Y00198646D01*
X00227099Y00198628D01*
X00227136Y00198572D01*
X00227191Y0019848D01*
X00227246Y0019836D01*
X00227302Y00198212D01*
X00227357Y00198036D01*
X00227394Y00197833D01*
X00227404Y00197611D01*
Y00197602D01*
Y00197574D01*
Y00197528D01*
X00227394Y00197472D01*
X00227385Y00197398D01*
X00227367Y00197315D01*
X00227348Y00197222D01*
X0022733Y00197121D01*
X00227256Y00196899D01*
X002272Y00196779D01*
X00227145Y00196668D01*
X00227071Y00196548D01*
X00226988Y00196427D01*
X00226895Y00196307D01*
X00226784Y00196196D01*
X00226775Y00196187D01*
X00226756Y00196168D01*
X00226719Y00196141D01*
X00226673Y00196104D01*
X00226618Y00196057D01*
X00226544Y00196011D01*
X00226461Y00195956D01*
X00226359Y0019591D01*
X00226257Y00195854D01*
X00226137Y00195799D01*
X00226017Y00195752D01*
X00225878Y00195706D01*
X0022573Y00195669D01*
X00225573Y00195641D01*
X00225416Y00195623D01*
X0022524Y00195614D01*
X00225157D01*
X00225102Y00195623D01*
X00225028Y00195632D01*
X00224944Y00195641D01*
X00224852Y0019566D01*
X0022475Y00195678D01*
X00224528Y00195734D01*
X00224297Y00195826D01*
X00224177Y00195882D01*
X00224066Y00195947D01*
X00223955Y0019603D01*
X00223844Y00196113D01*
X00223835Y00196122D01*
X00223816Y00196141D01*
X00223789Y00196168D01*
X00223761Y00196205D01*
X00223715Y00196252D01*
X00223668Y00196316D01*
X00223613Y00196381D01*
X00223557Y00196464D01*
X00223502Y00196557D01*
X00223447Y00196649D01*
X00223345Y00196871D01*
X00223262Y0019713D01*
X00223234Y00197269D01*
X00223215Y00197417D01*
X00224001Y00197518D01*
Y00197509D01*
X00224011Y00197491D01*
X0022402Y00197454D01*
X00224029Y00197407D01*
X00224038Y00197352D01*
X00224057Y00197287D01*
X00224103Y00197148D01*
X00224168Y00196982D01*
X00224251Y00196825D01*
X00224343Y00196677D01*
X00224454Y00196548D01*
X00224473Y00196538D01*
X0022451Y00196501D01*
X00224584Y00196455D01*
X00224676Y00196409D01*
X00224787Y00196353D01*
X00224926Y00196307D01*
X00225083Y0019627D01*
X00225249Y00196261D01*
X00225305D01*
X00225342Y0019627D01*
X00225444Y00196279D01*
X00225573Y00196307D01*
X00225721Y00196353D01*
X00225878Y00196418D01*
X00226035Y00196511D01*
X00226183Y0019664D01*
X00226202Y00196658D01*
X00226248Y00196714D01*
X00226303Y00196797D01*
X00226377Y00196908D01*
X00226451Y00197047D01*
X00226507Y00197204D01*
X00226553Y00197389D01*
X00226572Y00197592D01*
Y00197602D01*
Y0019762D01*
Y00197648D01*
X00226562Y00197685D01*
X00226553Y00197786D01*
X00226525Y00197907D01*
X00226488Y00198055D01*
X00226424Y00198202D01*
X00226331Y0019835D01*
X00226211Y00198489D01*
X00226192Y00198508D01*
X00226146Y00198545D01*
X00226072Y001986D01*
X00225971Y00198665D01*
X00225841Y00198729D01*
X00225684Y00198785D01*
X00225508Y00198822D01*
X00225314Y0019884D01*
X00225231D01*
X00225166Y00198831D01*
X00225083Y00198822D01*
X00224991Y00198803D01*
X0022488Y00198785D01*
X00224759Y00198757D01*
X00224852Y00199451D01*
X00224898D01*
X00224935Y00199441D01*
X00225055D01*
X00225157Y0019946D01*
X00225277Y00199478D01*
X00225416Y00199506D01*
X00225573Y00199552D01*
X00225721Y00199617D01*
X00225878Y001997D01*
X00225887D01*
X00225897Y00199709D01*
X00225943Y00199746D01*
X00226008Y00199811D01*
X00226082Y00199894D01*
X00226155Y00200015D01*
X0022622Y00200153D01*
X00226266Y0020031D01*
X00226285Y00200403D01*
Y00200505D01*
Y00200514D01*
Y00200523D01*
Y00200579D01*
X00226266Y00200653D01*
X00226248Y00200754D01*
X00226211Y00200865D01*
X00226165Y00200985D01*
X00226091Y00201106D01*
X00225989Y00201217D01*
X0022598Y00201226D01*
X00225934Y00201263D01*
X00225869Y00201309D01*
X00225786Y00201364D01*
X00225675Y00201411D01*
X00225545Y00201457D01*
X00225397Y00201494D01*
X00225231Y00201503D01*
X00225157D01*
X00225074Y00201485D01*
X00224963Y00201466D01*
X00224843Y00201429D01*
X00224722Y00201383D01*
X00224593Y00201309D01*
X00224473Y00201217D01*
X00224464Y00201207D01*
X00224427Y00201161D01*
X00224371Y00201096D01*
X00224306Y00201004D01*
X00224242Y00200884D01*
X00224177Y00200736D01*
X00224121Y0020056D01*
X00224084Y00200357D01*
X00223299Y00200495D01*
Y00200505D01*
X00223308Y00200532D01*
X00223317Y00200569D01*
X00223326Y00200625D01*
X00223345Y0020069D01*
X00223373Y00200763D01*
X00223428Y00200939D01*
X00223521Y00201143D01*
X00223631Y00201346D01*
X0022377Y0020154D01*
X00223946Y00201716D01*
X00223955Y00201725D01*
X00223974Y00201734D01*
X00224001Y00201753D01*
X00224038Y0020178D01*
X00224084Y00201817D01*
X00224149Y00201854D01*
X00224214Y00201891D01*
X00224297Y00201938D01*
X00224482Y00202012D01*
X00224695Y00202086D01*
X00224944Y00202132D01*
X00225074Y0020215D01*
X00225305D01*
X00225407Y00202141D01*
D02*
G37*
G36*
X00222143Y00197759D02*
Y00197749D01*
Y00197722D01*
Y00197685D01*
Y00197629D01*
X00222134Y00197555D01*
Y00197481D01*
X00222115Y00197306D01*
X00222097Y00197102D01*
X0022206Y0019689D01*
X00222004Y00196695D01*
X0022194Y00196511D01*
Y00196501D01*
X0022193Y00196492D01*
X00221903Y00196437D01*
X00221856Y00196363D01*
X00221792Y00196261D01*
X00221699Y00196159D01*
X00221597Y00196048D01*
X00221468Y00195937D01*
X0022132Y00195845D01*
X00221302Y00195836D01*
X00221246Y00195808D01*
X00221163Y00195771D01*
X00221043Y00195734D01*
X00220895Y00195688D01*
X00220728Y00195651D01*
X00220543Y00195623D01*
X0022034Y00195614D01*
X00220257D01*
X00220201Y00195623D01*
X00220127Y00195632D01*
X00220053Y00195641D01*
X00219859Y00195678D01*
X00219656Y00195734D01*
X00219443Y00195817D01*
X00219332Y00195873D01*
X0021923Y00195937D01*
X00219138Y00196011D01*
X00219046Y00196094D01*
X00219036Y00196104D01*
X00219027Y00196113D01*
X00219009Y0019615D01*
X00218981Y00196187D01*
X00218944Y00196233D01*
X00218907Y00196298D01*
X0021887Y00196372D01*
X00218824Y00196455D01*
X00218787Y00196548D01*
X0021875Y00196658D01*
X00218713Y00196769D01*
X00218676Y00196899D01*
X00218657Y00197038D01*
X0021863Y00197195D01*
X0021862Y00197352D01*
Y00197528D01*
X00219388Y00197638D01*
Y00197629D01*
Y00197611D01*
Y00197574D01*
X00219397Y00197518D01*
X00219406Y00197463D01*
Y00197398D01*
X00219434Y00197241D01*
X00219462Y00197075D01*
X00219517Y00196908D01*
X00219573Y0019676D01*
X0021961Y00196695D01*
X00219656Y0019664D01*
X00219665Y00196631D01*
X00219702Y00196603D01*
X00219757Y00196557D01*
X00219832Y00196511D01*
X00219933Y00196455D01*
X00220044Y00196418D01*
X00220183Y00196381D01*
X00220331Y00196372D01*
X00220386D01*
X00220442Y00196381D01*
X00220525Y0019639D01*
X00220608Y00196409D01*
X00220701Y00196427D01*
X00220793Y00196464D01*
X00220886Y00196511D01*
X00220895Y0019652D01*
X00220923Y00196538D01*
X00220959Y00196575D01*
X00221015Y00196612D01*
X00221061Y00196677D01*
X00221117Y00196742D01*
X00221163Y00196816D01*
X002212Y00196908D01*
Y00196917D01*
X00221218Y00196954D01*
X00221228Y00197019D01*
X00221246Y00197102D01*
X00221265Y00197213D01*
X00221274Y00197352D01*
X00221292Y00197518D01*
Y00197712D01*
Y00202123D01*
X00222143D01*
Y00197759D01*
D02*
G37*
G36*
X00067112Y00486499D02*
X00066234D01*
X00062887Y0049152D01*
Y00486499D01*
X00062074D01*
Y00492897D01*
X00062943D01*
X00066299Y00487868D01*
Y00492897D01*
X00067112D01*
Y00486499D01*
D02*
G37*
G36*
X00070487Y00492916D02*
X00070561Y00492906D01*
X00070654Y00492897D01*
X00070755Y00492879D01*
X00070857Y0049286D01*
X00071097Y00492795D01*
X00071338Y00492703D01*
X00071458Y00492648D01*
X00071578Y00492583D01*
X00071689Y004925D01*
X00071791Y00492407D01*
X000718Y00492398D01*
X00071818Y00492389D01*
X00071837Y00492352D01*
X00071874Y00492315D01*
X0007192Y00492268D01*
X00071966Y00492204D01*
X00072013Y00492139D01*
X00072068Y00492056D01*
X00072161Y0049188D01*
X00072253Y00491658D01*
X0007229Y00491547D01*
X00072309Y00491418D01*
X00072327Y00491288D01*
X00072336Y0049115D01*
Y00491131D01*
Y00491085D01*
X00072327Y00491011D01*
X00072318Y00490909D01*
X00072299Y00490798D01*
X00072262Y00490669D01*
X00072225Y0049053D01*
X0007217Y00490392D01*
X00072161Y00490373D01*
X00072142Y00490327D01*
X00072105Y00490253D01*
X0007205Y00490151D01*
X00071976Y0049004D01*
X00071883Y00489902D01*
X00071772Y00489763D01*
X00071643Y00489606D01*
X00071624Y00489587D01*
X00071578Y00489532D01*
X00071532Y00489486D01*
X00071486Y00489439D01*
X0007143Y00489384D01*
X00071356Y0048931D01*
X00071282Y00489236D01*
X0007119Y00489153D01*
X00071097Y0048906D01*
X00070986Y00488959D01*
X00070866Y00488857D01*
X00070737Y00488737D01*
X00070589Y00488616D01*
X00070441Y00488487D01*
X00070432Y00488478D01*
X00070413Y00488459D01*
X00070376Y00488432D01*
X0007033Y00488395D01*
X00070275Y00488339D01*
X0007021Y00488284D01*
X00070062Y00488163D01*
X00069905Y00488025D01*
X00069757Y00487886D01*
X00069627Y00487766D01*
X00069572Y0048772D01*
X00069526Y00487673D01*
X00069516Y00487664D01*
X00069489Y00487636D01*
X00069452Y00487599D01*
X00069405Y00487544D01*
X00069359Y00487479D01*
X00069304Y00487415D01*
X00069193Y00487257D01*
X00072345D01*
Y00486499D01*
X00068102D01*
Y00486508D01*
Y00486545D01*
Y00486601D01*
X00068111Y00486675D01*
X0006812Y00486758D01*
X00068139Y00486851D01*
X00068157Y00486943D01*
X00068194Y00487045D01*
Y00487054D01*
X00068204Y00487063D01*
X00068222Y00487119D01*
X00068259Y00487202D01*
X00068314Y00487313D01*
X00068388Y00487442D01*
X00068481Y0048759D01*
X00068583Y00487738D01*
X00068712Y00487895D01*
Y00487905D01*
X00068731Y00487914D01*
X00068777Y00487969D01*
X0006886Y00488052D01*
X0006898Y00488173D01*
X00069119Y00488311D01*
X00069295Y00488478D01*
X00069507Y00488663D01*
X00069738Y00488857D01*
X00069748Y00488866D01*
X00069784Y00488894D01*
X0006984Y0048894D01*
X00069905Y00488996D01*
X00069988Y00489069D01*
X0007009Y00489153D01*
X00070191Y00489245D01*
X00070311Y00489347D01*
X00070543Y00489569D01*
X00070774Y00489791D01*
X00070885Y00489902D01*
X00070986Y00490013D01*
X00071079Y00490114D01*
X00071153Y00490216D01*
Y00490225D01*
X00071171Y00490234D01*
X0007119Y00490262D01*
X00071208Y00490299D01*
X00071273Y00490401D01*
X00071347Y00490521D01*
X00071412Y00490669D01*
X00071476Y00490826D01*
X00071513Y00491002D01*
X00071532Y00491168D01*
Y00491177D01*
Y00491187D01*
X00071523Y00491242D01*
X00071513Y00491335D01*
X00071486Y00491436D01*
X00071449Y00491566D01*
X00071384Y00491695D01*
X00071301Y00491825D01*
X0007119Y00491954D01*
X00071171Y00491973D01*
X00071125Y0049201D01*
X0007106Y00492056D01*
X00070959Y00492121D01*
X00070829Y00492176D01*
X00070681Y00492231D01*
X00070506Y00492268D01*
X00070311Y00492278D01*
X00070256D01*
X00070219Y00492268D01*
X00070108Y00492259D01*
X00069979Y00492231D01*
X0006984Y00492194D01*
X00069683Y0049213D01*
X00069535Y00492047D01*
X00069396Y00491936D01*
X00069378Y00491917D01*
X00069341Y00491871D01*
X00069285Y00491797D01*
X0006923Y00491686D01*
X00069165Y00491557D01*
X0006911Y0049139D01*
X00069073Y00491205D01*
X00069054Y00490993D01*
X0006825Y00491076D01*
Y00491085D01*
X00068259Y00491113D01*
Y00491159D01*
X00068268Y00491224D01*
X00068287Y00491298D01*
X00068305Y00491381D01*
X00068333Y00491483D01*
X00068361Y00491584D01*
X00068435Y00491806D01*
X00068546Y00492028D01*
X0006861Y00492139D01*
X00068693Y0049225D01*
X00068777Y00492352D01*
X00068869Y00492444D01*
X00068878Y00492453D01*
X00068897Y00492463D01*
X00068925Y0049249D01*
X00068971Y00492518D01*
X00069026Y00492555D01*
X00069091Y00492592D01*
X00069165Y00492638D01*
X00069257Y00492685D01*
X00069359Y00492731D01*
X0006947Y00492777D01*
X0006959Y00492814D01*
X0006972Y00492851D01*
X00069858Y00492879D01*
X00070006Y00492906D01*
X00070163Y00492916D01*
X0007033Y00492925D01*
X00070422D01*
X00070487Y00492916D01*
D02*
G37*
G36*
X00060585Y00486499D02*
X00059735D01*
Y00492897D01*
X00060585D01*
Y00486499D01*
D02*
G37*
G36*
X00233628Y00533399D02*
X00233711Y00533389D01*
X00233813Y0053338D01*
X00233915Y00533371D01*
X00234035Y00533343D01*
X00234285Y00533288D01*
X00234562Y00533204D01*
X00234701Y00533149D01*
X0023483Y00533084D01*
X0023496Y00533001D01*
X00235089Y00532918D01*
X00235098Y00532909D01*
X00235117Y00532899D01*
X00235154Y00532872D01*
X002352Y00532826D01*
X00235246Y00532779D01*
X00235311Y00532715D01*
X00235376Y0053264D01*
X0023545Y00532567D01*
X00235523Y00532474D01*
X00235597Y00532363D01*
X00235681Y00532252D01*
X00235755Y00532132D01*
X00235819Y00531993D01*
X00235893Y00531855D01*
X00235949Y00531707D01*
X00236004Y0053154D01*
X00235172Y00531346D01*
Y00531355D01*
X00235163Y00531374D01*
X00235144Y00531411D01*
X00235126Y00531457D01*
X00235107Y00531513D01*
X0023508Y00531586D01*
X00235006Y00531735D01*
X00234913Y00531901D01*
X00234802Y00532067D01*
X00234664Y00532225D01*
X00234516Y00532363D01*
X00234497Y00532382D01*
X00234442Y00532419D01*
X00234349Y00532465D01*
X00234229Y0053253D01*
X00234072Y00532585D01*
X00233896Y0053264D01*
X00233684Y00532677D01*
X00233452Y00532687D01*
X00233379D01*
X00233332Y00532677D01*
X00233268D01*
X00233194Y00532668D01*
X00233018Y0053264D01*
X00232824Y00532604D01*
X0023262Y00532539D01*
X00232408Y00532446D01*
X00232214Y00532326D01*
X00232204D01*
X00232195Y00532308D01*
X0023213Y00532262D01*
X00232047Y00532188D01*
X00231945Y00532077D01*
X00231825Y00531938D01*
X00231714Y00531781D01*
X00231613Y00531586D01*
X0023152Y00531374D01*
Y00531365D01*
X00231511Y00531346D01*
X00231502Y00531318D01*
X00231492Y00531272D01*
X00231474Y00531217D01*
X00231455Y00531152D01*
X00231428Y00530995D01*
X00231391Y0053081D01*
X00231354Y00530606D01*
X00231335Y00530385D01*
X00231326Y00530144D01*
Y00530135D01*
Y00530107D01*
Y00530061D01*
Y00530005D01*
X00231335Y00529941D01*
Y00529858D01*
X00231345Y00529765D01*
X00231354Y00529664D01*
X00231381Y00529442D01*
X00231428Y00529201D01*
X00231483Y00528961D01*
X00231557Y0052872D01*
Y00528711D01*
X00231566Y00528693D01*
X00231585Y00528665D01*
X00231603Y00528619D01*
X00231659Y00528508D01*
X00231742Y00528378D01*
X00231844Y0052823D01*
X00231973Y00528073D01*
X00232121Y00527934D01*
X00232297Y00527805D01*
X00232306D01*
X00232325Y00527796D01*
X00232352Y00527777D01*
X00232389Y00527759D01*
X00232435Y0052774D01*
X00232491Y00527713D01*
X0023262Y00527657D01*
X00232787Y00527602D01*
X00232972Y00527556D01*
X00233175Y00527519D01*
X00233388Y00527509D01*
X00233452D01*
X00233508Y00527519D01*
X00233573D01*
X00233637Y00527528D01*
X00233804Y00527565D01*
X00233998Y00527611D01*
X00234192Y00527685D01*
X00234396Y00527787D01*
X00234497Y00527842D01*
X0023459Y00527916D01*
X00234599Y00527925D01*
X00234608Y00527934D01*
X00234636Y00527962D01*
X00234673Y0052799D01*
X0023471Y00528036D01*
X00234756Y00528092D01*
X00234812Y00528147D01*
X00234858Y00528221D01*
X00234913Y00528304D01*
X00234978Y00528397D01*
X00235033Y00528489D01*
X00235089Y005286D01*
X00235135Y0052872D01*
X00235181Y0052885D01*
X00235228Y00528988D01*
X00235265Y00529137D01*
X00236115Y00528924D01*
Y00528915D01*
X00236106Y00528878D01*
X00236087Y00528822D01*
X0023606Y00528748D01*
X00236032Y00528665D01*
X00235995Y00528563D01*
X00235949Y00528452D01*
X00235893Y00528332D01*
X00235764Y00528073D01*
X00235597Y00527814D01*
X00235496Y00527685D01*
X00235394Y00527556D01*
X00235283Y00527444D01*
X00235154Y00527334D01*
X00235144Y00527324D01*
X00235126Y00527306D01*
X0023508Y00527287D01*
X00235033Y0052725D01*
X0023496Y00527204D01*
X00234886Y00527158D01*
X00234784Y00527112D01*
X00234682Y00527065D01*
X00234562Y0052701D01*
X00234433Y00526964D01*
X00234294Y00526917D01*
X00234146Y00526871D01*
X00233989Y00526834D01*
X00233822Y00526816D01*
X00233647Y00526797D01*
X00233462Y00526788D01*
X0023336D01*
X00233286Y00526797D01*
X00233203D01*
X00233101Y00526807D01*
X0023299Y00526825D01*
X00232861Y00526843D01*
X00232593Y0052689D01*
X00232315Y00526964D01*
X00232038Y00527065D01*
X00231908Y0052713D01*
X00231779Y00527204D01*
X0023177Y00527213D01*
X00231751Y00527223D01*
X00231714Y0052725D01*
X00231677Y00527287D01*
X00231622Y00527324D01*
X00231557Y0052738D01*
X00231483Y00527444D01*
X00231409Y00527519D01*
X00231335Y00527602D01*
X00231252Y00527685D01*
X00231086Y00527897D01*
X00230928Y00528147D01*
X0023079Y00528424D01*
Y00528434D01*
X00230771Y00528461D01*
X00230762Y00528508D01*
X00230734Y00528563D01*
X00230716Y00528637D01*
X00230688Y0052873D01*
X00230651Y00528831D01*
X00230623Y00528942D01*
X00230596Y00529062D01*
X00230559Y00529201D01*
X00230512Y00529488D01*
X00230475Y00529811D01*
X00230457Y00530144D01*
Y00530154D01*
Y00530191D01*
Y00530246D01*
X00230466Y00530311D01*
Y00530403D01*
X00230475Y00530496D01*
X00230485Y00530616D01*
X00230503Y00530736D01*
X00230549Y00531004D01*
X00230614Y005313D01*
X00230707Y00531596D01*
X00230836Y00531882D01*
X00230845Y00531892D01*
X00230854Y00531919D01*
X00230873Y00531956D01*
X0023091Y00532003D01*
X00230947Y00532067D01*
X00230993Y00532141D01*
X00231113Y00532308D01*
X00231271Y00532493D01*
X00231455Y00532677D01*
X00231668Y00532862D01*
X00231918Y0053302D01*
X00231927Y00533029D01*
X00231955Y00533038D01*
X00231992Y00533057D01*
X00232038Y00533084D01*
X00232112Y00533112D01*
X00232186Y0053314D01*
X00232278Y00533177D01*
X0023238Y00533214D01*
X00232491Y00533251D01*
X00232611Y00533288D01*
X0023287Y00533343D01*
X00233166Y00533389D01*
X00233471Y00533408D01*
X00233563D01*
X00233628Y00533399D01*
D02*
G37*
G36*
X00239037Y00533316D02*
X00239157Y00533297D01*
X00239305Y00533269D01*
X00239471Y00533223D01*
X00239638Y00533167D01*
X00239804Y00533094D01*
X00239813D01*
X00239823Y00533084D01*
X00239878Y00533057D01*
X00239961Y00533001D01*
X00240054Y00532936D01*
X00240165Y00532844D01*
X00240276Y00532742D01*
X00240387Y00532622D01*
X00240479Y00532483D01*
X00240488Y00532465D01*
X00240516Y00532419D01*
X00240553Y00532335D01*
X00240599Y00532234D01*
X00240646Y00532113D01*
X00240683Y00531975D01*
X0024071Y00531818D01*
X0024072Y0053166D01*
Y00531642D01*
Y00531586D01*
X0024071Y00531513D01*
X00240692Y00531411D01*
X00240664Y00531291D01*
X00240618Y00531161D01*
X00240562Y00531032D01*
X00240488Y00530902D01*
X00240479Y00530884D01*
X00240451Y00530847D01*
X00240396Y00530782D01*
X00240322Y00530708D01*
X00240229Y00530625D01*
X00240119Y00530532D01*
X00239989Y00530449D01*
X00239832Y00530366D01*
X00239841D01*
X0023986Y00530357D01*
X00239887Y00530348D01*
X00239924Y00530338D01*
X00240026Y00530301D01*
X00240156Y00530246D01*
X00240303Y00530172D01*
X00240451Y00530079D01*
X0024059Y00529959D01*
X0024072Y00529821D01*
X00240729Y00529802D01*
X00240766Y00529747D01*
X00240821Y00529654D01*
X00240877Y00529534D01*
X00240932Y00529386D01*
X00240988Y0052921D01*
X00241025Y00529007D01*
X00241034Y00528785D01*
Y00528776D01*
Y00528748D01*
Y00528702D01*
X00241025Y00528646D01*
X00241015Y00528573D01*
X00240997Y00528489D01*
X00240978Y00528397D01*
X0024096Y00528295D01*
X00240886Y00528073D01*
X0024083Y00527953D01*
X00240775Y00527842D01*
X00240701Y00527722D01*
X00240618Y00527602D01*
X00240525Y00527481D01*
X00240414Y0052737D01*
X00240405Y00527361D01*
X00240387Y00527343D01*
X0024035Y00527315D01*
X00240303Y00527278D01*
X00240248Y00527232D01*
X00240174Y00527186D01*
X00240091Y0052713D01*
X00239989Y00527084D01*
X00239887Y00527029D01*
X00239767Y00526973D01*
X00239647Y00526927D01*
X00239508Y0052688D01*
X0023936Y00526843D01*
X00239203Y00526816D01*
X00239046Y00526797D01*
X0023887Y00526788D01*
X00238787D01*
X00238732Y00526797D01*
X00238658Y00526807D01*
X00238575Y00526816D01*
X00238482Y00526834D01*
X0023838Y00526853D01*
X00238158Y00526908D01*
X00237927Y00527001D01*
X00237807Y00527056D01*
X00237696Y00527121D01*
X00237585Y00527204D01*
X00237474Y00527287D01*
X00237465Y00527297D01*
X00237447Y00527315D01*
X00237419Y00527343D01*
X00237391Y0052738D01*
X00237345Y00527426D01*
X00237299Y00527491D01*
X00237243Y00527556D01*
X00237188Y00527639D01*
X00237132Y00527731D01*
X00237077Y00527824D01*
X00236975Y00528046D01*
X00236892Y00528304D01*
X00236864Y00528443D01*
X00236846Y00528591D01*
X00237631Y00528693D01*
Y00528683D01*
X00237641Y00528665D01*
X0023765Y00528628D01*
X00237659Y00528582D01*
X00237668Y00528526D01*
X00237687Y00528461D01*
X00237733Y00528323D01*
X00237798Y00528156D01*
X00237881Y00527999D01*
X00237974Y00527851D01*
X00238085Y00527722D01*
X00238103Y00527713D01*
X0023814Y00527676D01*
X00238214Y00527629D01*
X00238306Y00527583D01*
X00238417Y00527528D01*
X00238556Y00527481D01*
X00238713Y00527444D01*
X0023888Y00527435D01*
X00238935D01*
X00238972Y00527444D01*
X00239074Y00527454D01*
X00239203Y00527481D01*
X00239351Y00527528D01*
X00239508Y00527592D01*
X00239666Y00527685D01*
X00239813Y00527814D01*
X00239832Y00527833D01*
X00239878Y00527888D01*
X00239934Y00527971D01*
X00240008Y00528083D01*
X00240082Y00528221D01*
X00240137Y00528378D01*
X00240183Y00528563D01*
X00240202Y00528767D01*
Y00528776D01*
Y00528794D01*
Y00528822D01*
X00240193Y00528859D01*
X00240183Y00528961D01*
X00240156Y00529081D01*
X00240119Y00529229D01*
X00240054Y00529377D01*
X00239961Y00529525D01*
X00239841Y00529664D01*
X00239823Y00529682D01*
X00239776Y00529719D01*
X00239702Y00529774D01*
X00239601Y00529839D01*
X00239471Y00529904D01*
X00239314Y00529959D01*
X00239139Y00529996D01*
X00238944Y00530015D01*
X00238861D01*
X00238796Y00530005D01*
X00238713Y00529996D01*
X00238621Y00529978D01*
X0023851Y00529959D01*
X0023839Y00529932D01*
X00238482Y00530625D01*
X00238528D01*
X00238565Y00530616D01*
X00238685D01*
X00238787Y00530634D01*
X00238907Y00530653D01*
X00239046Y00530681D01*
X00239203Y00530727D01*
X00239351Y00530791D01*
X00239508Y00530875D01*
X00239518D01*
X00239527Y00530884D01*
X00239573Y00530921D01*
X00239638Y00530986D01*
X00239712Y00531069D01*
X00239786Y00531189D01*
X0023985Y00531328D01*
X00239897Y00531485D01*
X00239915Y00531577D01*
Y00531679D01*
Y00531688D01*
Y00531698D01*
Y00531753D01*
X00239897Y00531827D01*
X00239878Y00531929D01*
X00239841Y0053204D01*
X00239795Y0053216D01*
X00239721Y0053228D01*
X00239619Y00532391D01*
X0023961Y005324D01*
X00239564Y00532437D01*
X00239499Y00532483D01*
X00239416Y00532539D01*
X00239305Y00532585D01*
X00239175Y00532631D01*
X00239028Y00532668D01*
X00238861Y00532677D01*
X00238787D01*
X00238704Y00532659D01*
X00238593Y0053264D01*
X00238473Y00532604D01*
X00238353Y00532557D01*
X00238223Y00532483D01*
X00238103Y00532391D01*
X00238094Y00532382D01*
X00238057Y00532335D01*
X00238001Y00532271D01*
X00237937Y00532178D01*
X00237872Y00532058D01*
X00237807Y0053191D01*
X00237752Y00531735D01*
X00237715Y00531531D01*
X00236929Y0053167D01*
Y00531679D01*
X00236938Y00531707D01*
X00236947Y00531744D01*
X00236957Y00531799D01*
X00236975Y00531864D01*
X00237003Y00531938D01*
X00237058Y00532113D01*
X00237151Y00532317D01*
X00237262Y0053252D01*
X002374Y00532715D01*
X00237576Y0053289D01*
X00237585Y00532899D01*
X00237604Y00532909D01*
X00237631Y00532927D01*
X00237668Y00532955D01*
X00237715Y00532992D01*
X00237779Y00533029D01*
X00237844Y00533066D01*
X00237927Y00533112D01*
X00238112Y00533186D01*
X00238325Y0053326D01*
X00238575Y00533306D01*
X00238704Y00533325D01*
X00238935D01*
X00239037Y00533316D01*
D02*
G37*
G36*
X00229209Y00526899D02*
X00228358D01*
Y00533297D01*
X00229209D01*
Y00526899D01*
D02*
G37*
G36*
X00052249Y00075063D02*
Y00075053D01*
Y00075026D01*
Y00074989D01*
Y00074933D01*
X0005224Y00074859D01*
Y00074785D01*
X00052221Y0007461D01*
X00052203Y00074406D01*
X00052166Y00074194D01*
X00052111Y00073999D01*
X00052046Y00073815D01*
Y00073805D01*
X00052037Y00073796D01*
X00052009Y00073741D01*
X00051963Y00073667D01*
X00051898Y00073565D01*
X00051806Y00073463D01*
X00051704Y00073352D01*
X00051574Y00073241D01*
X00051426Y00073149D01*
X00051408Y0007314D01*
X00051352Y00073112D01*
X00051269Y00073075D01*
X00051149Y00073038D01*
X00051001Y00072992D01*
X00050835Y00072955D01*
X0005065Y00072927D01*
X00050446Y00072918D01*
X00050363D01*
X00050308Y00072927D01*
X00050234Y00072936D01*
X0005016Y00072945D01*
X00049966Y00072982D01*
X00049762Y00073038D01*
X0004955Y00073121D01*
X00049439Y00073177D01*
X00049337Y00073241D01*
X00049244Y00073315D01*
X00049152Y00073398D01*
X00049143Y00073408D01*
X00049134Y00073417D01*
X00049115Y00073454D01*
X00049087Y00073491D01*
X0004905Y00073537D01*
X00049013Y00073602D01*
X00048976Y00073676D01*
X0004893Y00073759D01*
X00048893Y00073851D01*
X00048856Y00073962D01*
X00048819Y00074073D01*
X00048782Y00074203D01*
X00048764Y00074342D01*
X00048736Y00074499D01*
X00048727Y00074656D01*
Y00074832D01*
X00049494Y00074942D01*
Y00074933D01*
Y00074915D01*
Y00074878D01*
X00049503Y00074822D01*
X00049513Y00074767D01*
Y00074702D01*
X0004954Y00074545D01*
X00049568Y00074378D01*
X00049623Y00074212D01*
X00049679Y00074064D01*
X00049716Y00073999D01*
X00049762Y00073944D01*
X00049771Y00073935D01*
X00049808Y00073907D01*
X00049864Y00073861D01*
X00049938Y00073815D01*
X0005004Y00073759D01*
X0005015Y00073722D01*
X00050289Y00073685D01*
X00050437Y00073676D01*
X00050493D01*
X00050548Y00073685D01*
X00050631Y00073694D01*
X00050715Y00073713D01*
X00050807Y00073731D01*
X00050899Y00073768D01*
X00050992Y00073815D01*
X00051001Y00073824D01*
X00051029Y00073842D01*
X00051066Y00073879D01*
X00051121Y00073916D01*
X00051167Y00073981D01*
X00051223Y00074046D01*
X00051269Y0007412D01*
X00051306Y00074212D01*
Y00074221D01*
X00051325Y00074258D01*
X00051334Y00074323D01*
X00051352Y00074406D01*
X00051371Y00074517D01*
X0005138Y00074656D01*
X00051399Y00074822D01*
Y00075016D01*
Y00079427D01*
X00052249D01*
Y00075063D01*
D02*
G37*
G36*
X00055587Y00079445D02*
X00055661Y00079436D01*
X00055753Y00079427D01*
X00055855Y00079408D01*
X00055957Y0007939D01*
X00056197Y00079325D01*
X00056438Y00079232D01*
X00056558Y00079177D01*
X00056678Y00079112D01*
X00056789Y00079029D01*
X00056891Y00078937D01*
X000569Y00078927D01*
X00056918Y00078918D01*
X00056937Y00078881D01*
X00056974Y00078844D01*
X0005702Y00078798D01*
X00057066Y00078733D01*
X00057112Y00078668D01*
X00057168Y00078585D01*
X0005726Y0007841D01*
X00057353Y00078188D01*
X0005739Y00078077D01*
X00057408Y00077947D01*
X00057427Y00077818D01*
X00057436Y00077679D01*
Y00077661D01*
Y00077614D01*
X00057427Y0007754D01*
X00057418Y00077439D01*
X00057399Y00077328D01*
X00057362Y00077198D01*
X00057325Y0007706D01*
X0005727Y00076921D01*
X0005726Y00076902D01*
X00057242Y00076856D01*
X00057205Y00076782D01*
X00057149Y00076681D01*
X00057076Y0007657D01*
X00056983Y00076431D01*
X00056872Y00076292D01*
X00056743Y00076135D01*
X00056724Y00076117D01*
X00056678Y00076061D01*
X00056632Y00076015D01*
X00056585Y00075969D01*
X0005653Y00075913D01*
X00056456Y00075839D01*
X00056382Y00075765D01*
X0005629Y00075682D01*
X00056197Y0007559D01*
X00056086Y00075488D01*
X00055966Y00075386D01*
X00055837Y00075266D01*
X00055689Y00075146D01*
X00055541Y00075016D01*
X00055532Y00075007D01*
X00055513Y00074989D01*
X00055476Y00074961D01*
X0005543Y00074924D01*
X00055374Y00074868D01*
X0005531Y00074813D01*
X00055162Y00074693D01*
X00055005Y00074554D01*
X00054857Y00074415D01*
X00054727Y00074295D01*
X00054672Y00074249D01*
X00054625Y00074203D01*
X00054616Y00074194D01*
X00054588Y00074166D01*
X00054551Y00074129D01*
X00054505Y00074073D01*
X00054459Y00074009D01*
X00054404Y00073944D01*
X00054293Y00073787D01*
X00057445D01*
Y00073029D01*
X00053202D01*
Y00073038D01*
Y00073075D01*
Y0007313D01*
X00053211Y00073204D01*
X0005322Y00073288D01*
X00053239Y0007338D01*
X00053257Y00073472D01*
X00053294Y00073574D01*
Y00073583D01*
X00053303Y00073593D01*
X00053322Y00073648D01*
X00053359Y00073731D01*
X00053414Y00073842D01*
X00053488Y00073972D01*
X00053581Y0007412D01*
X00053682Y00074268D01*
X00053812Y00074425D01*
Y00074434D01*
X0005383Y00074443D01*
X00053877Y00074499D01*
X0005396Y00074582D01*
X0005408Y00074702D01*
X00054219Y00074841D01*
X00054394Y00075007D01*
X00054607Y00075192D01*
X00054838Y00075386D01*
X00054847Y00075395D01*
X00054884Y00075423D01*
X0005494Y00075469D01*
X00055005Y00075525D01*
X00055088Y00075599D01*
X00055189Y00075682D01*
X00055291Y00075775D01*
X00055411Y00075876D01*
X00055642Y00076098D01*
X00055873Y0007632D01*
X00055985Y00076431D01*
X00056086Y00076542D01*
X00056179Y00076644D01*
X00056253Y00076745D01*
Y00076755D01*
X00056271Y00076764D01*
X0005629Y00076792D01*
X00056308Y00076829D01*
X00056373Y0007693D01*
X00056447Y0007705D01*
X00056512Y00077198D01*
X00056576Y00077356D01*
X00056613Y00077531D01*
X00056632Y00077698D01*
Y00077707D01*
Y00077716D01*
X00056622Y00077772D01*
X00056613Y00077864D01*
X00056585Y00077966D01*
X00056549Y00078095D01*
X00056484Y00078225D01*
X000564Y00078354D01*
X0005629Y00078484D01*
X00056271Y00078502D01*
X00056225Y00078539D01*
X0005616Y00078585D01*
X00056059Y0007865D01*
X00055929Y00078705D01*
X00055781Y00078761D01*
X00055605Y00078798D01*
X00055411Y00078807D01*
X00055356D01*
X00055319Y00078798D01*
X00055208Y00078789D01*
X00055078Y00078761D01*
X0005494Y00078724D01*
X00054783Y00078659D01*
X00054635Y00078576D01*
X00054496Y00078465D01*
X00054478Y00078447D01*
X0005444Y000784D01*
X00054385Y00078326D01*
X0005433Y00078215D01*
X00054265Y00078086D01*
X00054209Y0007792D01*
X00054172Y00077735D01*
X00054154Y00077522D01*
X00053349Y00077605D01*
Y00077614D01*
X00053359Y00077642D01*
Y00077688D01*
X00053368Y00077753D01*
X00053387Y00077827D01*
X00053405Y0007791D01*
X00053433Y00078012D01*
X0005346Y00078114D01*
X00053534Y00078336D01*
X00053645Y00078558D01*
X0005371Y00078668D01*
X00053793Y00078779D01*
X00053877Y00078881D01*
X00053969Y00078974D01*
X00053978Y00078983D01*
X00053997Y00078992D01*
X00054024Y0007902D01*
X00054071Y00079047D01*
X00054126Y00079085D01*
X00054191Y00079121D01*
X00054265Y00079168D01*
X00054357Y00079214D01*
X00054459Y0007926D01*
X0005457Y00079306D01*
X0005469Y00079343D01*
X00054819Y0007938D01*
X00054958Y00079408D01*
X00055106Y00079436D01*
X00055263Y00079445D01*
X0005543Y00079454D01*
X00055522D01*
X00055587Y00079445D01*
D02*
G37*
G36*
X00144859Y00445097D02*
X00143971D01*
X00141493Y00451495D01*
X00142418D01*
X00144082Y00446845D01*
Y00446835D01*
X00144091Y00446817D01*
X00144101Y00446789D01*
X00144119Y00446752D01*
X00144128Y00446697D01*
X00144147Y00446641D01*
X00144193Y00446502D01*
X00144248Y00446345D01*
X00144304Y0044617D01*
X00144415Y004458D01*
Y00445809D01*
X00144424Y00445828D01*
X00144433Y00445855D01*
X00144443Y00445892D01*
X0014447Y00445994D01*
X00144517Y00446133D01*
X00144563Y0044629D01*
X00144618Y00446465D01*
X00144683Y0044665D01*
X00144757Y00446845D01*
X00146495Y00451495D01*
X00147355D01*
X00144859Y00445097D01*
D02*
G37*
G36*
X00157211D02*
X00156425D01*
Y00450099D01*
X00156416Y0045009D01*
X00156369Y00450053D01*
X00156314Y00449997D01*
X00156222Y00449933D01*
X0015612Y00449849D01*
X0015599Y00449757D01*
X00155842Y00449655D01*
X00155676Y00449553D01*
X00155667D01*
X00155658Y00449544D01*
X00155602Y00449507D01*
X0015551Y00449461D01*
X00155399Y00449406D01*
X00155269Y00449341D01*
X00155131Y00449276D01*
X00154992Y00449211D01*
X00154853Y00449156D01*
Y00449914D01*
X00154862D01*
X00154881Y00449933D01*
X00154918Y00449942D01*
X00154964Y0044997D01*
X0015502Y00449997D01*
X00155084Y00450034D01*
X00155241Y00450127D01*
X00155426Y00450229D01*
X00155611Y00450358D01*
X00155805Y00450506D01*
X00156Y00450663D01*
X00156009Y00450672D01*
X00156018Y00450681D01*
X00156046Y00450709D01*
X00156083Y00450737D01*
X00156166Y00450829D01*
X00156277Y0045094D01*
X00156388Y0045107D01*
X00156508Y00451218D01*
X0015661Y00451366D01*
X00156702Y00451523D01*
X00157211D01*
Y00445097D01*
D02*
G37*
G36*
X00151173Y00451486D02*
X00151257D01*
X00151451Y00451477D01*
X00151654Y00451449D01*
X00151876Y00451421D01*
X00152079Y00451375D01*
X00152181Y00451347D01*
X00152264Y00451319D01*
X00152274D01*
X00152283Y0045131D01*
X00152338Y00451283D01*
X00152422Y00451245D01*
X00152523Y00451181D01*
X00152634Y00451097D01*
X00152754Y00450987D01*
X00152865Y00450857D01*
X00152976Y00450709D01*
Y004507D01*
X00152985Y00450691D01*
X00153022Y00450635D01*
X0015306Y00450543D01*
X00153115Y00450423D01*
X00153161Y00450284D01*
X00153207Y00450117D01*
X00153235Y00449942D01*
X00153244Y00449748D01*
Y00449738D01*
Y0044972D01*
Y00449683D01*
X00153235Y00449637D01*
Y00449572D01*
X00153226Y00449507D01*
X00153189Y0044935D01*
X00153133Y00449165D01*
X0015306Y00448971D01*
X00152949Y00448777D01*
X00152875Y00448684D01*
X00152801Y00448592D01*
X00152791Y00448583D01*
X00152782Y00448573D01*
X00152754Y00448546D01*
X00152717Y00448518D01*
X00152671Y00448481D01*
X00152616Y00448444D01*
X00152542Y00448398D01*
X00152468Y00448342D01*
X00152375Y00448296D01*
X00152274Y0044825D01*
X00152163Y00448194D01*
X00152043Y00448148D01*
X00151904Y00448111D01*
X00151765Y00448065D01*
X00151608Y00448037D01*
X00151441Y00448009D01*
X0015146Y00448D01*
X00151497Y00447982D01*
X00151552Y00447945D01*
X00151626Y00447908D01*
X00151793Y00447806D01*
X00151876Y00447741D01*
X0015195Y00447686D01*
X00151968Y00447667D01*
X00152015Y00447621D01*
X00152089Y00447547D01*
X00152181Y00447455D01*
X00152283Y00447325D01*
X00152403Y00447187D01*
X00152523Y0044702D01*
X00152653Y00446835D01*
X00153753Y00445097D01*
X00152699D01*
X00151858Y00446428D01*
Y00446438D01*
X00151839Y00446456D01*
X00151821Y00446484D01*
X00151793Y00446521D01*
X00151728Y00446623D01*
X00151645Y00446752D01*
X00151543Y00446891D01*
X00151441Y00447039D01*
X0015134Y00447177D01*
X00151247Y00447307D01*
X00151238Y00447316D01*
X0015121Y00447353D01*
X00151164Y00447409D01*
X00151099Y00447473D01*
X00150961Y00447612D01*
X00150887Y00447677D01*
X00150813Y00447732D01*
X00150804Y00447741D01*
X00150785Y00447751D01*
X00150748Y00447769D01*
X00150693Y00447797D01*
X00150637Y00447825D01*
X00150572Y00447852D01*
X00150424Y00447899D01*
X00150415D01*
X00150397Y00447908D01*
X0015036D01*
X00150314Y00447917D01*
X00150249Y00447926D01*
X00150175D01*
X00150073Y00447936D01*
X00148982D01*
Y00445097D01*
X00148132D01*
Y00451495D01*
X00151099D01*
X00151173Y00451486D01*
D02*
G37*
G36*
X00292773Y00693368D02*
X00287771D01*
X0028778Y00693359D01*
X00287817Y00693313D01*
X00287873Y00693257D01*
X00287937Y00693165D01*
X00288021Y00693063D01*
X00288113Y00692934D01*
X00288215Y00692786D01*
X00288316Y00692619D01*
Y0069261D01*
X00288326Y00692601D01*
X00288363Y00692545D01*
X00288409Y00692453D01*
X00288464Y00692342D01*
X00288529Y00692212D01*
X00288594Y00692074D01*
X00288659Y00691935D01*
X00288714Y00691796D01*
X00287956D01*
Y00691806D01*
X00287937Y00691824D01*
X00287928Y00691861D01*
X002879Y00691907D01*
X00287873Y00691963D01*
X00287836Y00692028D01*
X00287743Y00692185D01*
X00287642Y0069237D01*
X00287512Y00692554D01*
X00287364Y00692749D01*
X00287207Y00692943D01*
X00287198Y00692952D01*
X00287188Y00692961D01*
X00287161Y00692989D01*
X00287133Y00693026D01*
X00287041Y00693109D01*
X0028693Y0069322D01*
X002868Y00693331D01*
X00286652Y00693451D01*
X00286504Y00693553D01*
X00286347Y00693645D01*
Y00694154D01*
X00292773D01*
Y00693368D01*
D02*
G37*
G36*
X00287133Y00688533D02*
X00292773D01*
Y00687682D01*
X00287133D01*
Y00685574D01*
X00286375D01*
Y00690641D01*
X00287133D01*
Y00688533D01*
D02*
G37*
G36*
X00364183Y00424259D02*
X00366985Y00420459D01*
X00365866D01*
X00363592Y00423686D01*
X00362547Y00422678D01*
Y00420459D01*
X00361696D01*
Y00426857D01*
X00362547D01*
Y00423677D01*
X00365709Y00426857D01*
X00366865D01*
X00364183Y00424259D01*
D02*
G37*
G36*
X00370332Y00420459D02*
X00369546D01*
Y00425461D01*
X00369537Y00425452D01*
X0036949Y00425415D01*
X00369435Y00425359D01*
X00369342Y00425295D01*
X00369241Y00425211D01*
X00369111Y00425119D01*
X00368963Y00425017D01*
X00368797Y00424916D01*
X00368788D01*
X00368778Y00424906D01*
X00368723Y00424869D01*
X0036863Y00424823D01*
X0036852Y00424768D01*
X0036839Y00424703D01*
X00368251Y00424638D01*
X00368113Y00424573D01*
X00367974Y00424518D01*
Y00425276D01*
X00367983D01*
X00368002Y00425295D01*
X00368039Y00425304D01*
X00368085Y00425332D01*
X0036814Y00425359D01*
X00368205Y00425396D01*
X00368362Y00425489D01*
X00368547Y00425591D01*
X00368732Y0042572D01*
X00368926Y00425868D01*
X0036912Y00426025D01*
X0036913Y00426034D01*
X00369139Y00426044D01*
X00369167Y00426071D01*
X00369204Y00426099D01*
X00369287Y00426191D01*
X00369398Y00426302D01*
X00369509Y00426432D01*
X00369629Y0042658D01*
X00369731Y00426728D01*
X00369823Y00426885D01*
X00370332D01*
Y00420459D01*
D02*
G37*
G36*
X00420506Y00446621D02*
X00419627D01*
X0041628Y00451642D01*
Y00446621D01*
X00415467D01*
Y00453019D01*
X00416336D01*
X00419692Y0044799D01*
Y00453019D01*
X00420506D01*
Y00446621D01*
D02*
G37*
G36*
X00424564D02*
X00423778D01*
Y00451623D01*
X00423769Y00451614D01*
X00423723Y00451577D01*
X00423668Y00451521D01*
X00423575Y00451457D01*
X00423473Y00451373D01*
X00423344Y00451281D01*
X00423196Y00451179D01*
X0042303Y00451077D01*
X0042302D01*
X00423011Y00451068D01*
X00422956Y00451031D01*
X00422863Y00450985D01*
X00422752Y0045093D01*
X00422623Y00450865D01*
X00422484Y004508D01*
X00422346Y00450735D01*
X00422207Y0045068D01*
Y00451438D01*
X00422216D01*
X00422234Y00451457D01*
X00422271Y00451466D01*
X00422318Y00451494D01*
X00422373Y00451521D01*
X00422438Y00451558D01*
X00422595Y00451651D01*
X0042278Y00451753D01*
X00422965Y00451882D01*
X00423159Y0045203D01*
X00423353Y00452187D01*
X00423363Y00452196D01*
X00423372Y00452206D01*
X004234Y00452233D01*
X00423436Y00452261D01*
X0042352Y00452353D01*
X00423631Y00452464D01*
X00423741Y00452594D01*
X00423862Y00452742D01*
X00423963Y0045289D01*
X00424056Y00453047D01*
X00424564D01*
Y00446621D01*
D02*
G37*
G36*
X00413978D02*
X00413128D01*
Y00453019D01*
X00413978D01*
Y00446621D01*
D02*
G37*
G36*
X00287748Y004538D02*
X00287822Y0045379D01*
X00287914Y00453781D01*
X00288016Y00453763D01*
X00288118Y00453744D01*
X00288358Y00453679D01*
X00288598Y00453587D01*
X00288719Y00453531D01*
X00288839Y00453467D01*
X0028895Y00453383D01*
X00289051Y00453291D01*
X00289061Y00453282D01*
X00289079Y00453273D01*
X00289098Y00453236D01*
X00289135Y00453199D01*
X00289181Y00453152D01*
X00289227Y00453088D01*
X00289273Y00453023D01*
X00289329Y0045294D01*
X00289421Y00452764D01*
X00289514Y00452542D01*
X00289551Y00452431D01*
X00289569Y00452302D01*
X00289588Y00452172D01*
X00289597Y00452034D01*
Y00452015D01*
Y00451969D01*
X00289588Y00451895D01*
X00289578Y00451793D01*
X0028956Y00451682D01*
X00289523Y00451553D01*
X00289486Y00451414D01*
X00289431Y00451276D01*
X00289421Y00451257D01*
X00289403Y00451211D01*
X00289366Y00451137D01*
X0028931Y00451035D01*
X00289236Y00450924D01*
X00289144Y00450785D01*
X00289033Y00450647D01*
X00288904Y0045049D01*
X00288885Y00450471D01*
X00288839Y00450416D01*
X00288793Y00450369D01*
X00288746Y00450323D01*
X00288691Y00450268D01*
X00288617Y00450194D01*
X00288543Y0045012D01*
X00288451Y00450037D01*
X00288358Y00449944D01*
X00288247Y00449842D01*
X00288127Y00449741D01*
X00287997Y00449621D01*
X0028785Y004495D01*
X00287702Y00449371D01*
X00287692Y00449362D01*
X00287674Y00449343D01*
X00287637Y00449315D01*
X00287591Y00449278D01*
X00287535Y00449223D01*
X0028747Y00449168D01*
X00287323Y00449047D01*
X00287165Y00448909D01*
X00287017Y0044877D01*
X00286888Y0044865D01*
X00286833Y00448604D01*
X00286786Y00448557D01*
X00286777Y00448548D01*
X00286749Y0044852D01*
X00286712Y00448483D01*
X00286666Y00448428D01*
X0028662Y00448363D01*
X00286564Y00448298D01*
X00286453Y00448141D01*
X00289606D01*
Y00447383D01*
X00285362D01*
Y00447392D01*
Y00447429D01*
Y00447485D01*
X00285372Y00447559D01*
X00285381Y00447642D01*
X00285399Y00447734D01*
X00285418Y00447827D01*
X00285455Y00447929D01*
Y00447938D01*
X00285464Y00447947D01*
X00285483Y00448003D01*
X0028552Y00448086D01*
X00285575Y00448197D01*
X00285649Y00448326D01*
X00285742Y00448474D01*
X00285843Y00448622D01*
X00285973Y00448779D01*
Y00448788D01*
X00285991Y00448798D01*
X00286037Y00448853D01*
X00286121Y00448936D01*
X00286241Y00449057D01*
X0028638Y00449195D01*
X00286555Y00449362D01*
X00286768Y00449547D01*
X00286999Y00449741D01*
X00287008Y0044975D01*
X00287045Y00449778D01*
X00287101Y00449824D01*
X00287165Y00449879D01*
X00287248Y00449953D01*
X0028735Y00450037D01*
X00287452Y00450129D01*
X00287572Y00450231D01*
X00287803Y00450453D01*
X00288034Y00450675D01*
X00288145Y00450785D01*
X00288247Y00450896D01*
X0028834Y00450998D01*
X00288414Y004511D01*
Y00451109D01*
X00288432Y00451118D01*
X00288451Y00451146D01*
X00288469Y00451183D01*
X00288534Y00451285D01*
X00288608Y00451405D01*
X00288672Y00451553D01*
X00288737Y0045171D01*
X00288774Y00451886D01*
X00288793Y00452052D01*
Y00452061D01*
Y00452071D01*
X00288783Y00452126D01*
X00288774Y00452219D01*
X00288746Y0045232D01*
X00288709Y0045245D01*
X00288645Y00452579D01*
X00288561Y00452709D01*
X00288451Y00452838D01*
X00288432Y00452856D01*
X00288386Y00452893D01*
X00288321Y0045294D01*
X00288219Y00453004D01*
X0028809Y0045306D01*
X00287942Y00453115D01*
X00287766Y00453152D01*
X00287572Y00453162D01*
X00287517D01*
X0028748Y00453152D01*
X00287369Y00453143D01*
X00287239Y00453115D01*
X00287101Y00453078D01*
X00286943Y00453014D01*
X00286796Y0045293D01*
X00286657Y0045282D01*
X00286638Y00452801D01*
X00286601Y00452755D01*
X00286546Y00452681D01*
X0028649Y0045257D01*
X00286426Y0045244D01*
X0028637Y00452274D01*
X00286333Y00452089D01*
X00286315Y00451876D01*
X0028551Y0045196D01*
Y00451969D01*
X0028552Y00451997D01*
Y00452043D01*
X00285529Y00452108D01*
X00285547Y00452182D01*
X00285566Y00452265D01*
X00285594Y00452366D01*
X00285621Y00452468D01*
X00285695Y0045269D01*
X00285806Y00452912D01*
X00285871Y00453023D01*
X00285954Y00453134D01*
X00286037Y00453236D01*
X0028613Y00453328D01*
X00286139Y00453337D01*
X00286158Y00453347D01*
X00286185Y00453374D01*
X00286231Y00453402D01*
X00286287Y00453439D01*
X00286352Y00453476D01*
X00286426Y00453522D01*
X00286518Y00453568D01*
X0028662Y00453615D01*
X00286731Y00453661D01*
X00286851Y00453698D01*
X0028698Y00453735D01*
X00287119Y00453763D01*
X00287267Y0045379D01*
X00287424Y004538D01*
X00287591Y00453809D01*
X00287683D01*
X00287748Y004538D01*
D02*
G37*
G36*
X00284697Y00453023D02*
X0028122D01*
Y00451044D01*
X00284225D01*
Y00450286D01*
X0028122D01*
Y00447383D01*
X0028037D01*
Y00453781D01*
X00284697D01*
Y00453023D01*
D02*
G37*
G36*
X00087287Y00489147D02*
X00082285D01*
X00082294Y00489138D01*
X00082331Y00489092D01*
X00082387Y00489036D01*
X00082451Y00488944D01*
X00082535Y00488842D01*
X00082627Y00488713D01*
X00082729Y00488565D01*
X0008283Y00488398D01*
Y00488389D01*
X0008284Y0048838D01*
X00082877Y00488324D01*
X00082923Y00488232D01*
X00082978Y00488121D01*
X00083043Y00487991D01*
X00083108Y00487853D01*
X00083173Y00487714D01*
X00083228Y00487575D01*
X0008247D01*
Y00487585D01*
X00082451Y00487603D01*
X00082442Y0048764D01*
X00082414Y00487686D01*
X00082387Y00487742D01*
X0008235Y00487807D01*
X00082257Y00487964D01*
X00082156Y00488149D01*
X00082026Y00488334D01*
X00081878Y00488528D01*
X00081721Y00488722D01*
X00081712Y00488731D01*
X00081702Y0048874D01*
X00081675Y00488768D01*
X00081647Y00488805D01*
X00081555Y00488888D01*
X00081444Y00488999D01*
X00081314Y0048911D01*
X00081166Y0048923D01*
X00081018Y00489332D01*
X00080861Y00489425D01*
Y00489933D01*
X00087287D01*
Y00489147D01*
D02*
G37*
G36*
X00081647Y00482721D02*
X00083626D01*
Y00485726D01*
X00084384D01*
Y00482721D01*
X00087287D01*
Y00481871D01*
X00080889D01*
Y00486198D01*
X00081647D01*
Y00482721D01*
D02*
G37*
G36*
X00156134Y00527329D02*
X00156217D01*
X00156319Y00527319D01*
X0015643Y00527301D01*
X00156559Y00527282D01*
X00156827Y00527236D01*
X00157105Y00527162D01*
X00157382Y00527061D01*
X00157512Y00526996D01*
X00157641Y00526922D01*
X0015765Y00526912D01*
X00157669Y00526903D01*
X00157706Y00526876D01*
X00157743Y00526839D01*
X00157798Y00526802D01*
X00157863Y00526746D01*
X00157937Y00526681D01*
X00158011Y00526607D01*
X00158085Y00526524D01*
X00158168Y00526441D01*
X00158334Y00526228D01*
X00158492Y00525979D01*
X0015863Y00525701D01*
Y00525692D01*
X00158649Y00525664D01*
X00158658Y00525618D01*
X00158686Y00525563D01*
X00158704Y00525489D01*
X00158732Y00525396D01*
X00158769Y00525295D01*
X00158797Y00525184D01*
X00158824Y00525063D01*
X00158861Y00524925D01*
X00158908Y00524638D01*
X00158945Y00524314D01*
X00158963Y00523982D01*
Y00523972D01*
Y00523936D01*
Y0052388D01*
X00158954Y00523815D01*
Y00523723D01*
X00158945Y0052363D01*
X00158935Y0052351D01*
X00158917Y0052339D01*
X00158871Y00523122D01*
X00158806Y00522826D01*
X00158714Y0052253D01*
X00158584Y00522243D01*
X00158575Y00522234D01*
X00158566Y00522206D01*
X00158547Y00522169D01*
X0015851Y00522123D01*
X00158473Y00522059D01*
X00158427Y00521985D01*
X00158307Y00521818D01*
X00158149Y00521633D01*
X00157965Y00521448D01*
X00157752Y00521264D01*
X00157502Y00521106D01*
X00157493Y00521097D01*
X00157465Y00521088D01*
X00157428Y00521069D01*
X00157382Y00521042D01*
X00157308Y00521014D01*
X00157234Y00520986D01*
X00157142Y00520949D01*
X0015704Y00520912D01*
X00156929Y00520875D01*
X00156809Y00520838D01*
X0015655Y00520783D01*
X00156254Y00520737D01*
X00155949Y00520718D01*
X00155857D01*
X00155792Y00520727D01*
X00155709Y00520737D01*
X00155607Y00520746D01*
X00155505Y00520755D01*
X00155385Y00520783D01*
X00155135Y00520838D01*
X00154858Y00520921D01*
X00154719Y00520977D01*
X0015459Y00521042D01*
X0015446Y00521125D01*
X00154331Y00521208D01*
X00154322Y00521217D01*
X00154303Y00521227D01*
X00154266Y00521254D01*
X0015422Y00521301D01*
X00154174Y00521347D01*
X00154109Y00521411D01*
X00154044Y00521485D01*
X0015397Y00521559D01*
X00153897Y00521652D01*
X00153823Y00521763D01*
X00153739Y00521874D01*
X00153665Y00521994D01*
X00153601Y00522133D01*
X00153527Y00522271D01*
X00153471Y00522419D01*
X00153416Y00522586D01*
X00154248Y0052278D01*
Y00522771D01*
X00154257Y00522752D01*
X00154276Y00522715D01*
X00154294Y00522669D01*
X00154313Y00522613D01*
X0015434Y00522539D01*
X00154414Y00522391D01*
X00154507Y00522225D01*
X00154618Y00522059D01*
X00154756Y00521901D01*
X00154904Y00521763D01*
X00154923Y00521744D01*
X00154978Y00521707D01*
X00155071Y00521661D01*
X00155191Y00521596D01*
X00155348Y00521541D01*
X00155524Y00521485D01*
X00155736Y00521448D01*
X00155968Y00521439D01*
X00156041D01*
X00156088Y00521448D01*
X00156152D01*
X00156226Y00521458D01*
X00156402Y00521485D01*
X00156596Y00521522D01*
X001568Y00521587D01*
X00157012Y00521679D01*
X00157206Y005218D01*
X00157216D01*
X00157225Y00521818D01*
X0015729Y00521864D01*
X00157373Y00521938D01*
X00157475Y00522049D01*
X00157595Y00522188D01*
X00157706Y00522345D01*
X00157807Y00522539D01*
X001579Y00522752D01*
Y00522761D01*
X00157909Y0052278D01*
X00157918Y00522808D01*
X00157928Y00522854D01*
X00157946Y00522909D01*
X00157965Y00522974D01*
X00157992Y00523131D01*
X00158029Y00523316D01*
X00158066Y00523519D01*
X00158085Y00523741D01*
X00158094Y00523982D01*
Y00523991D01*
Y00524019D01*
Y00524065D01*
Y0052412D01*
X00158085Y00524185D01*
Y00524268D01*
X00158076Y00524361D01*
X00158066Y00524463D01*
X00158039Y00524684D01*
X00157992Y00524925D01*
X00157937Y00525165D01*
X00157863Y00525406D01*
Y00525415D01*
X00157854Y00525433D01*
X00157835Y00525461D01*
X00157817Y00525507D01*
X00157761Y00525618D01*
X00157678Y00525748D01*
X00157576Y00525896D01*
X00157447Y00526053D01*
X00157299Y00526191D01*
X00157123Y00526321D01*
X00157114D01*
X00157095Y0052633D01*
X00157068Y00526349D01*
X00157031Y00526367D01*
X00156985Y00526385D01*
X00156929Y00526413D01*
X001568Y00526469D01*
X00156633Y00526524D01*
X00156448Y0052657D01*
X00156245Y00526607D01*
X00156032Y00526617D01*
X00155968D01*
X00155912Y00526607D01*
X00155847D01*
X00155783Y00526598D01*
X00155616Y00526561D01*
X00155422Y00526515D01*
X00155228Y00526441D01*
X00155024Y00526339D01*
X00154923Y00526284D01*
X0015483Y0052621D01*
X00154821Y00526201D01*
X00154812Y00526191D01*
X00154784Y00526164D01*
X00154747Y00526136D01*
X0015471Y0052609D01*
X00154664Y00526034D01*
X00154608Y00525979D01*
X00154562Y00525905D01*
X00154507Y00525822D01*
X00154442Y00525729D01*
X00154387Y00525637D01*
X00154331Y00525526D01*
X00154285Y00525406D01*
X00154239Y00525276D01*
X00154192Y00525137D01*
X00154155Y0052499D01*
X00153305Y00525202D01*
Y00525211D01*
X00153314Y00525248D01*
X00153333Y00525304D01*
X0015336Y00525378D01*
X00153388Y00525461D01*
X00153425Y00525563D01*
X00153471Y00525674D01*
X00153527Y00525794D01*
X00153656Y00526053D01*
X00153823Y00526312D01*
X00153924Y00526441D01*
X00154026Y0052657D01*
X00154137Y00526681D01*
X00154266Y00526792D01*
X00154276Y00526802D01*
X00154294Y0052682D01*
X0015434Y00526839D01*
X00154387Y00526876D01*
X0015446Y00526922D01*
X00154535Y00526968D01*
X00154636Y00527014D01*
X00154738Y00527061D01*
X00154858Y00527116D01*
X00154987Y00527162D01*
X00155126Y00527208D01*
X00155274Y00527255D01*
X00155431Y00527292D01*
X00155598Y0052731D01*
X00155773Y00527329D01*
X00155958Y00527338D01*
X0015606D01*
X00156134Y00527329D01*
D02*
G37*
G36*
X00150642D02*
X00150725Y00527319D01*
X00150818Y0052731D01*
X00150919Y00527292D01*
X0015103Y00527264D01*
X0015128Y00527199D01*
X0015141Y00527153D01*
X0015153Y00527107D01*
X00151659Y00527042D01*
X00151789Y00526968D01*
X00151909Y00526885D01*
X0015202Y00526783D01*
X00152029Y00526774D01*
X00152047Y00526755D01*
X00152075Y00526728D01*
X00152112Y00526681D01*
X00152149Y00526626D01*
X00152205Y00526561D01*
X00152251Y00526487D01*
X00152306Y00526395D01*
X00152362Y00526302D01*
X00152408Y00526191D01*
X001525Y0052596D01*
X00152537Y00525822D01*
X00152565Y00525683D01*
X00152584Y00525535D01*
X00152593Y00525387D01*
Y00525378D01*
Y00525359D01*
Y00525322D01*
X00152584Y00525285D01*
Y0052523D01*
X00152574Y00525165D01*
X00152556Y00525017D01*
X00152519Y00524851D01*
X00152463Y00524684D01*
X0015238Y00524509D01*
X00152278Y00524342D01*
Y00524333D01*
X0015226Y00524324D01*
X00152223Y00524277D01*
X00152149Y00524204D01*
X00152047Y00524111D01*
X00151918Y00524019D01*
X00151761Y00523917D01*
X00151585Y00523834D01*
X00151372Y00523769D01*
X00151382D01*
X00151391Y0052376D01*
X00151419Y0052375D01*
X00151456Y00523732D01*
X00151539Y00523695D01*
X0015165Y0052364D01*
X0015177Y00523566D01*
X0015189Y00523473D01*
X00152001Y00523372D01*
X00152103Y0052326D01*
X00152112Y00523242D01*
X0015214Y00523205D01*
X00152177Y00523131D01*
X00152214Y00523039D01*
X0015226Y00522918D01*
X00152297Y0052278D01*
X00152325Y00522623D01*
X00152334Y00522456D01*
Y00522447D01*
Y00522428D01*
Y00522391D01*
X00152325Y00522336D01*
X00152316Y00522281D01*
X00152306Y00522206D01*
X00152269Y00522049D01*
X00152214Y00521864D01*
X00152121Y0052167D01*
X00152066Y00521569D01*
X00152001Y00521467D01*
X00151918Y00521374D01*
X00151835Y00521282D01*
X00151826Y00521273D01*
X00151807Y00521264D01*
X00151779Y00521236D01*
X00151742Y00521208D01*
X00151696Y00521171D01*
X00151631Y00521134D01*
X00151557Y00521088D01*
X00151483Y00521042D01*
X00151391Y00520995D01*
X00151289Y00520949D01*
X00151178Y00520912D01*
X00151058Y00520875D01*
X00150799Y0052082D01*
X00150651Y0052081D01*
X00150503Y00520801D01*
X0015042D01*
X00150365Y0052081D01*
X00150291Y0052082D01*
X00150208Y00520829D01*
X00150115Y00520838D01*
X00150023Y00520866D01*
X00149801Y00520921D01*
X00149579Y00521005D01*
X00149468Y0052106D01*
X00149357Y00521125D01*
X00149255Y00521208D01*
X00149153Y00521291D01*
X00149144Y00521301D01*
X00149135Y0052131D01*
X00149107Y00521337D01*
X0014907Y00521374D01*
X00149033Y0052143D01*
X00148987Y00521485D01*
X00148895Y00521624D01*
X00148802Y005218D01*
X00148719Y00522003D01*
X00148654Y00522234D01*
X00148645Y00522355D01*
X00148636Y00522484D01*
Y00522493D01*
Y00522502D01*
Y00522558D01*
X00148645Y00522641D01*
X00148664Y00522743D01*
X00148691Y00522872D01*
X00148737Y00523002D01*
X00148793Y00523131D01*
X00148876Y0052326D01*
X00148885Y00523279D01*
X00148922Y00523316D01*
X00148978Y00523372D01*
X00149052Y00523445D01*
X00149153Y00523529D01*
X00149274Y00523612D01*
X00149412Y00523695D01*
X00149579Y00523769D01*
X0014957D01*
X00149551Y00523778D01*
X00149523Y00523787D01*
X00149486Y00523806D01*
X00149375Y00523852D01*
X00149246Y00523917D01*
X00149107Y00524009D01*
X00148959Y00524111D01*
X00148821Y00524241D01*
X00148691Y00524389D01*
Y00524398D01*
X00148682Y00524407D01*
X00148645Y00524463D01*
X00148589Y00524555D01*
X00148534Y00524675D01*
X00148479Y00524823D01*
X00148423Y00524999D01*
X00148386Y00525193D01*
X00148377Y00525406D01*
Y00525415D01*
Y00525443D01*
Y00525489D01*
X00148386Y00525544D01*
X00148395Y00525609D01*
X00148405Y00525692D01*
X00148423Y00525785D01*
X00148451Y00525886D01*
X00148516Y00526099D01*
X00148562Y00526219D01*
X00148626Y0052633D01*
X00148691Y0052645D01*
X00148765Y00526561D01*
X00148858Y00526672D01*
X00148959Y00526783D01*
X00148969Y00526792D01*
X00148987Y00526811D01*
X00149015Y00526839D01*
X00149061Y00526866D01*
X00149126Y00526912D01*
X00149191Y00526959D01*
X00149274Y00527005D01*
X00149366Y00527061D01*
X00149468Y00527116D01*
X00149588Y00527162D01*
X00149718Y00527208D01*
X00149847Y00527255D01*
X00149995Y00527282D01*
X00150152Y0052731D01*
X00150309Y00527329D01*
X00150485Y00527338D01*
X00150577D01*
X00150642Y00527329D01*
D02*
G37*
G36*
X00075607Y00595883D02*
X0007569Y00595873D01*
X00075792Y00595864D01*
X00075893Y00595855D01*
X00076014Y00595827D01*
X00076263Y00595772D01*
X00076541Y00595689D01*
X00076679Y00595633D01*
X00076809Y00595568D01*
X00076938Y00595485D01*
X00077068Y00595402D01*
X00077077Y00595393D01*
X00077095Y00595383D01*
X00077132Y00595356D01*
X00077179Y00595309D01*
X00077225Y00595263D01*
X0007729Y00595199D01*
X00077354Y00595125D01*
X00077428Y00595051D01*
X00077502Y00594958D01*
X00077576Y00594847D01*
X00077659Y00594736D01*
X00077733Y00594616D01*
X00077798Y00594477D01*
X00077872Y00594339D01*
X00077927Y00594191D01*
X00077983Y00594024D01*
X00077151Y0059383D01*
Y00593839D01*
X00077141Y00593858D01*
X00077123Y00593895D01*
X00077105Y00593941D01*
X00077086Y00593997D01*
X00077058Y00594071D01*
X00076984Y00594218D01*
X00076892Y00594385D01*
X00076781Y00594551D01*
X00076642Y00594709D01*
X00076494Y00594847D01*
X00076476Y00594866D01*
X0007642Y00594903D01*
X00076328Y00594949D01*
X00076208Y00595014D01*
X00076051Y00595069D01*
X00075875Y00595125D01*
X00075662Y00595162D01*
X00075431Y00595171D01*
X00075357D01*
X00075311Y00595162D01*
X00075246D01*
X00075172Y00595152D01*
X00074997Y00595125D01*
X00074802Y00595088D01*
X00074599Y00595023D01*
X00074386Y0059493D01*
X00074192Y0059481D01*
X00074183D01*
X00074174Y00594792D01*
X00074109Y00594745D01*
X00074026Y00594672D01*
X00073924Y00594561D01*
X00073804Y00594422D01*
X00073693Y00594265D01*
X00073591Y00594071D01*
X00073499Y00593858D01*
Y00593849D01*
X00073489Y0059383D01*
X0007348Y00593802D01*
X00073471Y00593756D01*
X00073453Y00593701D01*
X00073434Y00593636D01*
X00073406Y00593479D01*
X00073369Y00593294D01*
X00073332Y00593091D01*
X00073314Y00592869D01*
X00073305Y00592628D01*
Y00592619D01*
Y00592591D01*
Y00592545D01*
Y0059249D01*
X00073314Y00592425D01*
Y00592342D01*
X00073323Y00592249D01*
X00073332Y00592147D01*
X0007336Y00591926D01*
X00073406Y00591685D01*
X00073462Y00591445D01*
X00073536Y00591204D01*
Y00591195D01*
X00073545Y00591177D01*
X00073563Y00591149D01*
X00073582Y00591103D01*
X00073637Y00590992D01*
X00073721Y00590862D01*
X00073822Y00590714D01*
X00073952Y00590557D01*
X000741Y00590419D01*
X00074275Y00590289D01*
X00074285D01*
X00074303Y0059028D01*
X00074331Y00590261D01*
X00074368Y00590243D01*
X00074414Y00590224D01*
X00074469Y00590197D01*
X00074599Y00590141D01*
X00074765Y00590086D01*
X0007495Y00590039D01*
X00075154Y00590003D01*
X00075366Y00589993D01*
X00075431D01*
X00075487Y00590003D01*
X00075551D01*
X00075616Y00590012D01*
X00075782Y00590049D01*
X00075977Y00590095D01*
X00076171Y00590169D01*
X00076374Y00590271D01*
X00076476Y00590326D01*
X00076568Y005904D01*
X00076578Y00590409D01*
X00076587Y00590419D01*
X00076614Y00590446D01*
X00076652Y00590474D01*
X00076688Y0059052D01*
X00076735Y00590576D01*
X0007679Y00590631D01*
X00076836Y00590705D01*
X00076892Y00590788D01*
X00076957Y00590881D01*
X00077012Y00590973D01*
X00077068Y00591084D01*
X00077114Y00591204D01*
X0007716Y00591334D01*
X00077206Y00591473D01*
X00077243Y0059162D01*
X00078094Y00591408D01*
Y00591399D01*
X00078085Y00591362D01*
X00078066Y00591306D01*
X00078038Y00591232D01*
X00078011Y00591149D01*
X00077974Y00591047D01*
X00077927Y00590936D01*
X00077872Y00590816D01*
X00077743Y00590557D01*
X00077576Y00590298D01*
X00077474Y00590169D01*
X00077373Y00590039D01*
X00077262Y00589929D01*
X00077132Y00589818D01*
X00077123Y00589808D01*
X00077105Y0058979D01*
X00077058Y00589771D01*
X00077012Y00589734D01*
X00076938Y00589688D01*
X00076864Y00589642D01*
X00076762Y00589596D01*
X00076661Y00589549D01*
X00076541Y00589494D01*
X00076411Y00589448D01*
X00076272Y00589402D01*
X00076125Y00589355D01*
X00075967Y00589318D01*
X00075801Y005893D01*
X00075625Y00589281D01*
X0007544Y00589272D01*
X00075339D01*
X00075265Y00589281D01*
X00075181D01*
X0007508Y00589291D01*
X00074969Y00589309D01*
X00074839Y00589328D01*
X00074571Y00589374D01*
X00074294Y00589448D01*
X00074016Y00589549D01*
X00073887Y00589614D01*
X00073758Y00589688D01*
X00073748Y00589697D01*
X0007373Y00589707D01*
X00073693Y00589734D01*
X00073656Y00589771D01*
X00073601Y00589808D01*
X00073536Y00589864D01*
X00073462Y00589929D01*
X00073388Y00590003D01*
X00073314Y00590086D01*
X00073231Y00590169D01*
X00073064Y00590382D01*
X00072907Y00590631D01*
X00072768Y00590909D01*
Y00590918D01*
X0007275Y00590946D01*
X00072741Y00590992D01*
X00072713Y00591047D01*
X00072694Y00591121D01*
X00072667Y00591214D01*
X0007263Y00591315D01*
X00072602Y00591426D01*
X00072574Y00591547D01*
X00072537Y00591685D01*
X00072491Y00591972D01*
X00072454Y00592295D01*
X00072435Y00592628D01*
Y00592637D01*
Y00592674D01*
Y0059273D01*
X00072445Y00592795D01*
Y00592887D01*
X00072454Y0059298D01*
X00072463Y005931D01*
X00072482Y0059322D01*
X00072528Y00593488D01*
X00072593Y00593784D01*
X00072685Y0059408D01*
X00072815Y00594366D01*
X00072824Y00594376D01*
X00072833Y00594403D01*
X00072852Y0059444D01*
X00072889Y00594487D01*
X00072926Y00594551D01*
X00072972Y00594625D01*
X00073092Y00594792D01*
X00073249Y00594977D01*
X00073434Y00595162D01*
X00073647Y00595346D01*
X00073896Y00595504D01*
X00073906Y00595513D01*
X00073933Y00595522D01*
X0007397Y00595541D01*
X00074016Y00595568D01*
X0007409Y00595596D01*
X00074164Y00595624D01*
X00074257Y00595661D01*
X00074359Y00595698D01*
X00074469Y00595735D01*
X0007459Y00595772D01*
X00074849Y00595827D01*
X00075145Y00595873D01*
X0007545Y00595892D01*
X00075542D01*
X00075607Y00595883D01*
D02*
G37*
G36*
X00083013Y00595078D02*
X00083003Y00595069D01*
X00082985Y00595051D01*
X00082948Y00595014D01*
X00082911Y00594958D01*
X00082855Y00594893D01*
X00082781Y00594819D01*
X00082707Y00594727D01*
X00082624Y00594616D01*
X00082541Y00594505D01*
X00082439Y00594376D01*
X00082338Y00594228D01*
X00082236Y0059408D01*
X00082125Y00593913D01*
X00082014Y00593738D01*
X00081903Y00593544D01*
X00081792Y00593349D01*
X00081783Y0059334D01*
X00081764Y00593303D01*
X00081737Y00593248D01*
X0008169Y00593164D01*
X00081644Y00593063D01*
X00081589Y00592952D01*
X00081524Y00592822D01*
X00081459Y00592674D01*
X00081385Y00592508D01*
X00081302Y00592342D01*
X00081228Y00592157D01*
X00081154Y00591963D01*
X00081006Y00591565D01*
X00080868Y0059114D01*
Y0059113D01*
X00080858Y00591103D01*
X00080849Y00591057D01*
X0008083Y00591001D01*
X00080812Y00590927D01*
X00080794Y00590835D01*
X00080766Y00590733D01*
X00080747Y00590622D01*
X0008072Y00590493D01*
X00080692Y00590354D01*
X00080646Y00590058D01*
X00080599Y00589734D01*
X00080572Y00589383D01*
X00079767D01*
Y00589392D01*
Y0058942D01*
Y00589457D01*
X00079777Y00589512D01*
Y00589586D01*
X00079786Y00589679D01*
X00079795Y00589781D01*
X00079804Y00589892D01*
X00079823Y00590021D01*
X00079841Y0059015D01*
X00079869Y00590308D01*
X00079897Y00590465D01*
X00079925Y00590631D01*
X00079961Y00590816D01*
X00080054Y00591195D01*
Y00591204D01*
X00080063Y00591241D01*
X00080082Y00591297D01*
X00080109Y0059138D01*
X00080137Y00591473D01*
X00080174Y00591584D01*
X00080211Y00591713D01*
X00080267Y00591852D01*
X00080322Y00592009D01*
X00080378Y00592166D01*
X00080516Y00592517D01*
X00080683Y00592887D01*
X00080868Y00593257D01*
X00080877Y00593266D01*
X00080895Y00593303D01*
X00080923Y00593349D01*
X0008096Y00593423D01*
X00081006Y00593507D01*
X00081071Y00593608D01*
X00081136Y00593719D01*
X0008121Y00593839D01*
X00081385Y00594108D01*
X0008157Y00594385D01*
X00081783Y00594672D01*
X00082005Y0059494D01*
X00078871D01*
Y00595698D01*
X00083013D01*
Y00595078D01*
D02*
G37*
G36*
X00163997Y00539464D02*
X00164071Y00539455D01*
X00164155Y00539446D01*
X00164256Y00539427D01*
X00164358Y00539409D01*
X00164598Y00539353D01*
X00164848Y00539261D01*
X00164977Y00539206D01*
X00165098Y00539132D01*
X00165227Y00539058D01*
X00165347Y00538965D01*
X00165357Y00538956D01*
X00165384Y00538937D01*
X00165421Y005389D01*
X00165467Y00538854D01*
X00165523Y00538789D01*
X00165597Y00538716D01*
X00165662Y00538623D01*
X00165736Y00538521D01*
X0016581Y0053841D01*
X00165874Y00538281D01*
X00165939Y00538142D01*
X00166004Y00537994D01*
X0016605Y00537837D01*
X00166087Y00537662D01*
X00166115Y00537477D01*
X00166124Y00537282D01*
Y00537199D01*
X00166115Y00537135D01*
X00166105Y00537061D01*
X00166096Y00536977D01*
X00166087Y00536876D01*
X00166059Y00536774D01*
X00166004Y00536543D01*
X00165921Y00536312D01*
X00165865Y00536191D01*
X001658Y00536071D01*
X00165726Y0053596D01*
X00165643Y00535849D01*
X00165634Y0053584D01*
X00165625Y00535822D01*
X00165588Y00535803D01*
X00165551Y00535766D01*
X00165504Y0053572D01*
X00165449Y00535674D01*
X00165375Y00535618D01*
X00165292Y00535572D01*
X00165209Y00535517D01*
X00165107Y00535461D01*
X00164885Y00535359D01*
X00164626Y00535276D01*
X00164487Y00535248D01*
X0016434Y0053523D01*
X00164275Y00536053D01*
X00164284D01*
X00164303D01*
X0016433Y00536062D01*
X00164377Y00536071D01*
X00164478Y00536099D01*
X00164617Y00536136D01*
X00164756Y00536191D01*
X00164913Y00536265D01*
X00165051Y00536358D01*
X00165181Y00536469D01*
X0016519Y00536487D01*
X00165227Y00536524D01*
X00165273Y00536598D01*
X00165329Y005367D01*
X00165384Y00536811D01*
X00165431Y0053695D01*
X00165467Y00537107D01*
X00165477Y00537282D01*
Y00537338D01*
X00165467Y00537375D01*
X00165458Y00537486D01*
X00165421Y00537615D01*
X00165375Y00537772D01*
X00165301Y0053793D01*
X0016519Y00538096D01*
X00165125Y0053817D01*
X00165051Y00538244D01*
X00165042Y00538253D01*
X00165033Y00538262D01*
X00165005Y00538281D01*
X00164977Y00538309D01*
X00164876Y00538373D01*
X00164746Y00538447D01*
X00164589Y00538512D01*
X00164395Y00538577D01*
X00164164Y00538623D01*
X00164044Y00538642D01*
X00163914D01*
X00163905D01*
X00163887D01*
X0016385D01*
X00163803Y00538632D01*
X00163748D01*
X00163683Y00538623D01*
X00163535Y00538595D01*
X0016336Y00538549D01*
X00163184Y00538484D01*
X00163017Y00538392D01*
X0016286Y00538262D01*
X00162851D01*
X00162842Y00538244D01*
X00162796Y00538198D01*
X00162731Y00538115D01*
X00162657Y00538004D01*
X00162592Y00537856D01*
X00162527Y00537689D01*
X00162481Y00537495D01*
X00162463Y00537384D01*
Y00537208D01*
X00162472Y00537135D01*
X00162481Y00537042D01*
X00162509Y00536931D01*
X00162537Y0053682D01*
X00162583Y005367D01*
X00162638Y0053658D01*
X00162648Y00536571D01*
X00162666Y00536534D01*
X00162712Y00536478D01*
X00162759Y00536404D01*
X00162823Y0053633D01*
X00162906Y00536256D01*
X0016299Y00536173D01*
X00163091Y00536108D01*
X0016299Y00535369D01*
X00159698Y00535988D01*
Y00539169D01*
X00160447D01*
Y00536608D01*
X00162176Y00536265D01*
X00162167Y00536275D01*
X00162158Y00536293D01*
X00162139Y00536321D01*
X00162111Y00536367D01*
X00162084Y00536423D01*
X00162047Y00536487D01*
X00161973Y00536635D01*
X00161899Y0053682D01*
X00161834Y00537024D01*
X00161788Y00537245D01*
X00161769Y00537356D01*
Y0053756D01*
X00161779Y00537615D01*
X00161788Y00537689D01*
X00161797Y00537772D01*
X00161815Y00537865D01*
X00161843Y00537967D01*
X00161908Y00538189D01*
X00161954Y00538309D01*
X00162019Y00538429D01*
X00162084Y00538549D01*
X00162158Y00538669D01*
X0016225Y0053878D01*
X00162352Y00538891D01*
X00162361Y005389D01*
X00162379Y00538919D01*
X00162407Y00538947D01*
X00162453Y00538984D01*
X00162518Y0053903D01*
X00162583Y00539076D01*
X00162666Y00539132D01*
X00162759Y00539187D01*
X0016286Y00539233D01*
X00162971Y00539289D01*
X00163101Y00539335D01*
X0016323Y00539381D01*
X00163369Y00539418D01*
X00163526Y00539446D01*
X00163683Y00539464D01*
X0016385Y00539474D01*
X00163859D01*
X00163887D01*
X00163933D01*
X00163997Y00539464D01*
D02*
G37*
G36*
X00164034Y005345D02*
X0016409Y00534481D01*
X00164164Y00534453D01*
X00164247Y00534426D01*
X00164349Y00534389D01*
X0016446Y00534342D01*
X0016458Y00534287D01*
X00164839Y00534157D01*
X00165098Y00533991D01*
X00165227Y00533889D01*
X00165357Y00533788D01*
X00165467Y00533677D01*
X00165578Y00533547D01*
X00165588Y00533538D01*
X00165606Y00533519D01*
X00165625Y00533473D01*
X00165662Y00533427D01*
X00165708Y00533353D01*
X00165754Y00533279D01*
X001658Y00533177D01*
X00165847Y00533076D01*
X00165902Y00532955D01*
X00165948Y00532826D01*
X00165994Y00532687D01*
X00166041Y00532539D01*
X00166078Y00532382D01*
X00166096Y00532216D01*
X00166115Y0053204D01*
X00166124Y00531855D01*
Y00531754D01*
X00166115Y0053168D01*
Y00531596D01*
X00166105Y00531495D01*
X00166087Y00531384D01*
X00166068Y00531254D01*
X00166022Y00530986D01*
X00165948Y00530709D01*
X00165847Y00530431D01*
X00165782Y00530302D01*
X00165708Y00530173D01*
X00165699Y00530163D01*
X00165689Y00530145D01*
X00165662Y00530108D01*
X00165625Y00530071D01*
X00165588Y00530015D01*
X00165532Y00529951D01*
X00165467Y00529877D01*
X00165394Y00529803D01*
X0016531Y00529729D01*
X00165227Y00529646D01*
X00165014Y00529479D01*
X00164765Y00529322D01*
X00164487Y00529183D01*
X00164478D01*
X0016445Y00529165D01*
X00164404Y00529156D01*
X00164349Y00529128D01*
X00164275Y00529109D01*
X00164182Y00529081D01*
X00164081Y00529045D01*
X0016397Y00529017D01*
X0016385Y00528989D01*
X00163711Y00528952D01*
X00163424Y00528906D01*
X00163101Y00528869D01*
X00162768Y0052885D01*
X00162759D01*
X00162722D01*
X00162666D01*
X00162601Y0052886D01*
X00162509D01*
X00162416Y00528869D01*
X00162296Y00528878D01*
X00162176Y00528897D01*
X00161908Y00528943D01*
X00161612Y00529008D01*
X00161316Y005291D01*
X0016103Y0052923D01*
X0016102Y00529239D01*
X00160993Y00529248D01*
X00160956Y00529267D01*
X00160909Y00529303D01*
X00160845Y0052934D01*
X00160771Y00529387D01*
X00160604Y00529507D01*
X00160419Y00529664D01*
X00160235Y00529849D01*
X0016005Y00530062D01*
X00159892Y00530311D01*
X00159883Y00530321D01*
X00159874Y00530348D01*
X00159855Y00530385D01*
X00159828Y00530431D01*
X001598Y00530505D01*
X00159772Y00530579D01*
X00159735Y00530672D01*
X00159698Y00530774D01*
X00159661Y00530884D01*
X00159624Y00531005D01*
X00159569Y00531264D01*
X00159523Y00531559D01*
X00159504Y00531865D01*
Y00531957D01*
X00159513Y00532022D01*
X00159523Y00532105D01*
X00159532Y00532207D01*
X00159541Y00532308D01*
X00159569Y00532428D01*
X00159624Y00532678D01*
X00159707Y00532955D01*
X00159763Y00533094D01*
X00159828Y00533224D01*
X00159911Y00533353D01*
X00159994Y00533482D01*
X00160003Y00533492D01*
X00160013Y0053351D01*
X0016004Y00533547D01*
X00160086Y00533593D01*
X00160133Y0053364D01*
X00160198Y00533704D01*
X00160271Y00533769D01*
X00160345Y00533843D01*
X00160438Y00533917D01*
X00160549Y00533991D01*
X0016066Y00534074D01*
X0016078Y00534148D01*
X00160919Y00534213D01*
X00161057Y00534287D01*
X00161205Y00534342D01*
X00161372Y00534398D01*
X00161566Y00533566D01*
X00161557D01*
X00161538Y00533556D01*
X00161501Y00533538D01*
X00161455Y00533519D01*
X00161399Y00533501D01*
X00161325Y00533473D01*
X00161178Y00533399D01*
X00161011Y00533307D01*
X00160845Y00533196D01*
X00160688Y00533057D01*
X00160549Y00532909D01*
X0016053Y00532891D01*
X00160493Y00532835D01*
X00160447Y00532743D01*
X00160382Y00532623D01*
X00160327Y00532465D01*
X00160271Y0053229D01*
X00160235Y00532077D01*
X00160225Y00531846D01*
Y00531772D01*
X00160235Y00531726D01*
Y00531661D01*
X00160244Y00531587D01*
X00160271Y00531411D01*
X00160308Y00531217D01*
X00160373Y00531014D01*
X00160466Y00530801D01*
X00160586Y00530607D01*
Y00530598D01*
X00160604Y00530589D01*
X00160651Y00530524D01*
X00160725Y00530441D01*
X00160835Y00530339D01*
X00160974Y00530219D01*
X00161131Y00530108D01*
X00161325Y00530006D01*
X00161538Y00529914D01*
X00161547D01*
X00161566Y00529904D01*
X00161594Y00529895D01*
X0016164Y00529886D01*
X00161695Y00529867D01*
X0016176Y00529849D01*
X00161917Y00529821D01*
X00162102Y00529784D01*
X00162306Y00529747D01*
X00162527Y00529729D01*
X00162768Y0052972D01*
X00162777D01*
X00162805D01*
X00162851D01*
X00162906D01*
X00162971Y00529729D01*
X00163054D01*
X00163147Y00529738D01*
X00163249Y00529747D01*
X0016347Y00529775D01*
X00163711Y00529821D01*
X00163951Y00529877D01*
X00164192Y00529951D01*
X00164201D01*
X00164219Y0052996D01*
X00164247Y00529978D01*
X00164293Y00529997D01*
X00164404Y00530052D01*
X00164534Y00530135D01*
X00164682Y00530237D01*
X00164839Y00530367D01*
X00164977Y00530515D01*
X00165107Y0053069D01*
Y005307D01*
X00165116Y00530718D01*
X00165135Y00530746D01*
X00165153Y00530783D01*
X00165172Y00530829D01*
X00165199Y00530884D01*
X00165255Y00531014D01*
X0016531Y0053118D01*
X00165357Y00531365D01*
X00165394Y00531569D01*
X00165403Y00531781D01*
Y00531846D01*
X00165394Y00531902D01*
Y00531966D01*
X00165384Y00532031D01*
X00165347Y00532197D01*
X00165301Y00532392D01*
X00165227Y00532586D01*
X00165125Y00532789D01*
X0016507Y00532891D01*
X00164996Y00532983D01*
X00164987Y00532992D01*
X00164977Y00533002D01*
X0016495Y00533029D01*
X00164922Y00533066D01*
X00164876Y00533103D01*
X0016482Y0053315D01*
X00164765Y00533205D01*
X00164691Y00533251D01*
X00164608Y00533307D01*
X00164515Y00533372D01*
X00164423Y00533427D01*
X00164312Y00533482D01*
X00164192Y00533529D01*
X00164062Y00533575D01*
X00163923Y00533621D01*
X00163776Y00533658D01*
X00163988Y00534509D01*
X00163997D01*
X00164034Y005345D01*
D02*
G37*
G36*
X00148265Y00693419D02*
X00148348Y00693409D01*
X00148449Y006934D01*
X00148551Y00693391D01*
X00148671Y00693363D01*
X00148921Y00693308D01*
X00149198Y00693224D01*
X00149337Y00693169D01*
X00149467Y00693104D01*
X00149596Y00693021D01*
X00149725Y00692938D01*
X00149735Y00692929D01*
X00149753Y00692919D01*
X0014979Y00692892D01*
X00149836Y00692846D01*
X00149883Y00692799D01*
X00149947Y00692735D01*
X00150012Y00692661D01*
X00150086Y00692587D01*
X0015016Y00692494D01*
X00150234Y00692383D01*
X00150317Y00692272D01*
X00150391Y00692152D01*
X00150456Y00692013D01*
X0015053Y00691875D01*
X00150585Y00691727D01*
X00150641Y0069156D01*
X00149809Y00691366D01*
Y00691375D01*
X00149799Y00691394D01*
X00149781Y00691431D01*
X00149762Y00691477D01*
X00149744Y00691533D01*
X00149716Y00691607D01*
X00149642Y00691755D01*
X0014955Y00691921D01*
X00149439Y00692087D01*
X001493Y00692244D01*
X00149152Y00692383D01*
X00149134Y00692402D01*
X00149078Y00692439D01*
X00148986Y00692485D01*
X00148866Y0069255D01*
X00148708Y00692605D01*
X00148533Y00692661D01*
X0014832Y00692698D01*
X00148089Y00692707D01*
X00148015D01*
X00147969Y00692698D01*
X00147904D01*
X0014783Y00692688D01*
X00147654Y00692661D01*
X0014746Y00692624D01*
X00147257Y00692559D01*
X00147044Y00692466D01*
X0014685Y00692346D01*
X00146841D01*
X00146832Y00692328D01*
X00146767Y00692281D01*
X00146684Y00692207D01*
X00146582Y00692097D01*
X00146462Y00691958D01*
X00146351Y00691801D01*
X00146249Y00691607D01*
X00146157Y00691394D01*
Y00691385D01*
X00146147Y00691366D01*
X00146138Y00691338D01*
X00146129Y00691292D01*
X0014611Y00691237D01*
X00146092Y00691172D01*
X00146064Y00691015D01*
X00146027Y0069083D01*
X0014599Y00690627D01*
X00145972Y00690405D01*
X00145962Y00690164D01*
Y00690155D01*
Y00690127D01*
Y00690081D01*
Y00690025D01*
X00145972Y00689961D01*
Y00689878D01*
X00145981Y00689785D01*
X0014599Y00689684D01*
X00146018Y00689462D01*
X00146064Y00689221D01*
X0014612Y00688981D01*
X00146194Y0068874D01*
Y00688731D01*
X00146203Y00688713D01*
X00146221Y00688685D01*
X0014624Y00688639D01*
X00146295Y00688528D01*
X00146378Y00688398D01*
X0014648Y0068825D01*
X0014661Y00688093D01*
X00146758Y00687954D01*
X00146933Y00687825D01*
X00146943D01*
X00146961Y00687816D01*
X00146989Y00687797D01*
X00147026Y00687779D01*
X00147072Y0068776D01*
X00147127Y00687733D01*
X00147257Y00687677D01*
X00147423Y00687622D01*
X00147608Y00687576D01*
X00147812Y00687539D01*
X00148024Y00687529D01*
X00148089D01*
X00148144Y00687539D01*
X00148209D01*
X00148274Y00687548D01*
X0014844Y00687585D01*
X00148634Y00687631D01*
X00148829Y00687705D01*
X00149032Y00687807D01*
X00149134Y00687862D01*
X00149226Y00687936D01*
X00149235Y00687945D01*
X00149245Y00687954D01*
X00149272Y00687982D01*
X00149309Y0068801D01*
X00149346Y00688056D01*
X00149393Y00688112D01*
X00149448Y00688167D01*
X00149494Y00688241D01*
X0014955Y00688324D01*
X00149614Y00688417D01*
X0014967Y00688509D01*
X00149725Y0068862D01*
X00149772Y0068874D01*
X00149818Y0068887D01*
X00149864Y00689008D01*
X00149901Y00689156D01*
X00150752Y00688944D01*
Y00688935D01*
X00150742Y00688898D01*
X00150724Y00688842D01*
X00150696Y00688768D01*
X00150668Y00688685D01*
X00150632Y00688583D01*
X00150585Y00688472D01*
X0015053Y00688352D01*
X001504Y00688093D01*
X00150234Y00687834D01*
X00150132Y00687705D01*
X0015003Y00687576D01*
X0014992Y00687465D01*
X0014979Y00687354D01*
X00149781Y00687344D01*
X00149762Y00687326D01*
X00149716Y00687307D01*
X0014967Y0068727D01*
X00149596Y00687224D01*
X00149522Y00687178D01*
X0014942Y00687132D01*
X00149319Y00687085D01*
X00149198Y0068703D01*
X00149069Y00686984D01*
X0014893Y00686937D01*
X00148782Y00686891D01*
X00148625Y00686854D01*
X00148459Y00686836D01*
X00148283Y00686817D01*
X00148098Y00686808D01*
X00147997D01*
X00147922Y00686817D01*
X00147839D01*
X00147738Y00686827D01*
X00147627Y00686845D01*
X00147497Y00686863D01*
X00147229Y0068691D01*
X00146952Y00686984D01*
X00146674Y00687085D01*
X00146545Y0068715D01*
X00146416Y00687224D01*
X00146406Y00687233D01*
X00146388Y00687243D01*
X00146351Y0068727D01*
X00146314Y00687307D01*
X00146258Y00687344D01*
X00146194Y006874D01*
X0014612Y00687465D01*
X00146046Y00687539D01*
X00145972Y00687622D01*
X00145889Y00687705D01*
X00145722Y00687917D01*
X00145565Y00688167D01*
X00145426Y00688445D01*
Y00688454D01*
X00145408Y00688482D01*
X00145399Y00688528D01*
X00145371Y00688583D01*
X00145352Y00688657D01*
X00145324Y0068875D01*
X00145288Y00688851D01*
X0014526Y00688962D01*
X00145232Y00689082D01*
X00145195Y00689221D01*
X00145149Y00689508D01*
X00145112Y00689831D01*
X00145093Y00690164D01*
Y00690173D01*
Y0069021D01*
Y00690266D01*
X00145103Y00690331D01*
Y00690423D01*
X00145112Y00690516D01*
X00145121Y00690636D01*
X0014514Y00690756D01*
X00145186Y00691024D01*
X00145251Y0069132D01*
X00145343Y00691616D01*
X00145472Y00691902D01*
X00145482Y00691912D01*
X00145491Y00691939D01*
X00145509Y00691976D01*
X00145546Y00692023D01*
X00145583Y00692087D01*
X0014563Y00692161D01*
X0014575Y00692328D01*
X00145907Y00692513D01*
X00146092Y00692698D01*
X00146305Y00692882D01*
X00146554Y0069304D01*
X00146563Y00693049D01*
X00146591Y00693058D01*
X00146628Y00693077D01*
X00146674Y00693104D01*
X00146748Y00693132D01*
X00146822Y0069316D01*
X00146915Y00693197D01*
X00147016Y00693234D01*
X00147127Y00693271D01*
X00147248Y00693308D01*
X00147507Y00693363D01*
X00147802Y00693409D01*
X00148108Y00693428D01*
X001482D01*
X00148265Y00693419D01*
D02*
G37*
G36*
X00154774Y00689175D02*
X00155643D01*
Y00688454D01*
X00154774D01*
Y00686919D01*
X00153988D01*
Y00688454D01*
X00151205D01*
Y00689175D01*
X00154136Y00693317D01*
X00154774D01*
Y00689175D01*
D02*
G37*
G36*
X00007535Y00694943D02*
X00007618Y00694933D01*
X0000772Y00694924D01*
X00007821Y00694915D01*
X00007942Y00694887D01*
X00008191Y00694832D01*
X00008469Y00694749D01*
X00008607Y00694693D01*
X00008737Y00694628D01*
X00008866Y00694545D01*
X00008996Y00694462D01*
X00009005Y00694453D01*
X00009023Y00694443D01*
X0000906Y00694416D01*
X00009107Y0069437D01*
X00009153Y00694323D01*
X00009218Y00694258D01*
X00009282Y00694184D01*
X00009356Y00694111D01*
X0000943Y00694018D01*
X00009504Y00693907D01*
X00009587Y00693796D01*
X00009661Y00693676D01*
X00009726Y00693537D01*
X000098Y00693399D01*
X00009855Y00693251D01*
X00009911Y00693084D01*
X00009079Y0069289D01*
Y00692899D01*
X00009069Y00692918D01*
X00009051Y00692955D01*
X00009032Y00693001D01*
X00009014Y00693057D01*
X00008986Y0069313D01*
X00008912Y00693279D01*
X0000882Y00693445D01*
X00008709Y00693611D01*
X0000857Y00693768D01*
X00008422Y00693907D01*
X00008404Y00693926D01*
X00008348Y00693963D01*
X00008256Y00694009D01*
X00008136Y00694074D01*
X00007979Y00694129D01*
X00007803Y00694184D01*
X0000759Y00694221D01*
X00007359Y00694231D01*
X00007285D01*
X00007239Y00694221D01*
X00007174D01*
X000071Y00694212D01*
X00006924Y00694184D01*
X0000673Y00694148D01*
X00006527Y00694083D01*
X00006314Y0069399D01*
X0000612Y0069387D01*
X00006111D01*
X00006102Y00693852D01*
X00006037Y00693805D01*
X00005954Y00693732D01*
X00005852Y00693621D01*
X00005732Y00693482D01*
X00005621Y00693325D01*
X00005519Y0069313D01*
X00005427Y00692918D01*
Y00692909D01*
X00005418Y0069289D01*
X00005408Y00692862D01*
X00005399Y00692816D01*
X0000538Y00692761D01*
X00005362Y00692696D01*
X00005334Y00692539D01*
X00005297Y00692354D01*
X0000526Y0069215D01*
X00005242Y00691929D01*
X00005233Y00691688D01*
Y00691679D01*
Y00691651D01*
Y00691605D01*
Y0069155D01*
X00005242Y00691485D01*
Y00691402D01*
X00005251Y00691309D01*
X0000526Y00691208D01*
X00005288Y00690986D01*
X00005334Y00690745D01*
X0000539Y00690505D01*
X00005464Y00690264D01*
Y00690255D01*
X00005473Y00690237D01*
X00005491Y00690209D01*
X0000551Y00690163D01*
X00005565Y00690052D01*
X00005649Y00689922D01*
X0000575Y00689774D01*
X0000588Y00689617D01*
X00006028Y00689479D01*
X00006203Y00689349D01*
X00006213D01*
X00006231Y0068934D01*
X00006259Y00689321D01*
X00006296Y00689303D01*
X00006342Y00689284D01*
X00006398Y00689257D01*
X00006527Y00689201D01*
X00006693Y00689146D01*
X00006878Y006891D01*
X00007082Y00689062D01*
X00007294Y00689053D01*
X00007359D01*
X00007415Y00689062D01*
X00007479D01*
X00007544Y00689072D01*
X0000771Y00689109D01*
X00007905Y00689155D01*
X00008099Y00689229D01*
X00008302Y00689331D01*
X00008404Y00689386D01*
X00008496Y0068946D01*
X00008505Y00689469D01*
X00008515Y00689479D01*
X00008543Y00689506D01*
X00008579Y00689534D01*
X00008616Y0068958D01*
X00008663Y00689636D01*
X00008718Y00689691D01*
X00008764Y00689765D01*
X0000882Y00689848D01*
X00008885Y00689941D01*
X0000894Y00690033D01*
X00008996Y00690144D01*
X00009042Y00690264D01*
X00009088Y00690394D01*
X00009134Y00690533D01*
X00009171Y0069068D01*
X00010022Y00690468D01*
Y00690459D01*
X00010013Y00690422D01*
X00009994Y00690366D01*
X00009966Y00690292D01*
X00009939Y00690209D01*
X00009902Y00690107D01*
X00009855Y00689996D01*
X000098Y00689876D01*
X00009671Y00689617D01*
X00009504Y00689358D01*
X00009402Y00689229D01*
X00009301Y006891D01*
X0000919Y00688988D01*
X0000906Y00688878D01*
X00009051Y00688868D01*
X00009032Y0068885D01*
X00008986Y00688831D01*
X0000894Y00688794D01*
X00008866Y00688748D01*
X00008792Y00688702D01*
X00008691Y00688656D01*
X00008589Y00688609D01*
X00008469Y00688554D01*
X00008339Y00688508D01*
X000082Y00688462D01*
X00008052Y00688415D01*
X00007895Y00688378D01*
X00007729Y0068836D01*
X00007553Y00688341D01*
X00007368Y00688332D01*
X00007267D01*
X00007193Y00688341D01*
X0000711D01*
X00007008Y00688351D01*
X00006897Y00688369D01*
X00006767Y00688388D01*
X00006499Y00688434D01*
X00006222Y00688508D01*
X00005944Y00688609D01*
X00005815Y00688674D01*
X00005686Y00688748D01*
X00005676Y00688757D01*
X00005658Y00688767D01*
X00005621Y00688794D01*
X00005584Y00688831D01*
X00005529Y00688868D01*
X00005464Y00688924D01*
X0000539Y00688988D01*
X00005316Y00689062D01*
X00005242Y00689146D01*
X00005159Y00689229D01*
X00004992Y00689442D01*
X00004835Y00689691D01*
X00004696Y00689968D01*
Y00689978D01*
X00004678Y00690005D01*
X00004669Y00690052D01*
X00004641Y00690107D01*
X00004622Y00690181D01*
X00004595Y00690274D01*
X00004558Y00690375D01*
X0000453Y00690486D01*
X00004502Y00690607D01*
X00004465Y00690745D01*
X00004419Y00691032D01*
X00004382Y00691355D01*
X00004363Y00691688D01*
Y00691697D01*
Y00691734D01*
Y0069179D01*
X00004373Y00691855D01*
Y00691947D01*
X00004382Y0069204D01*
X00004391Y0069216D01*
X0000441Y0069228D01*
X00004456Y00692548D01*
X00004521Y00692844D01*
X00004613Y0069314D01*
X00004743Y00693426D01*
X00004752Y00693436D01*
X00004761Y00693463D01*
X0000478Y006935D01*
X00004817Y00693547D01*
X00004854Y00693611D01*
X000049Y00693685D01*
X0000502Y00693852D01*
X00005177Y00694037D01*
X00005362Y00694221D01*
X00005575Y00694406D01*
X00005824Y00694564D01*
X00005834Y00694573D01*
X00005861Y00694582D01*
X00005898Y00694601D01*
X00005944Y00694628D01*
X00006018Y00694656D01*
X00006092Y00694684D01*
X00006185Y00694721D01*
X00006287Y00694758D01*
X00006398Y00694795D01*
X00006518Y00694832D01*
X00006777Y00694887D01*
X00007072Y00694933D01*
X00007378Y00694952D01*
X0000747D01*
X00007535Y00694943D01*
D02*
G37*
G36*
X00012943Y00694859D02*
X00013064Y00694841D01*
X00013212Y00694813D01*
X00013378Y00694767D01*
X00013544Y00694712D01*
X00013711Y00694638D01*
X0001372D01*
X00013729Y00694628D01*
X00013785Y00694601D01*
X00013868Y00694545D01*
X0001396Y0069448D01*
X00014071Y00694388D01*
X00014182Y00694286D01*
X00014293Y00694166D01*
X00014386Y00694027D01*
X00014395Y00694009D01*
X00014423Y00693963D01*
X0001446Y00693879D01*
X00014506Y00693778D01*
X00014552Y00693658D01*
X00014589Y00693519D01*
X00014617Y00693362D01*
X00014626Y00693204D01*
Y00693186D01*
Y0069313D01*
X00014617Y00693057D01*
X00014598Y00692955D01*
X00014571Y00692835D01*
X00014524Y00692705D01*
X00014469Y00692576D01*
X00014395Y00692446D01*
X00014386Y00692428D01*
X00014358Y00692391D01*
X00014303Y00692326D01*
X00014229Y00692252D01*
X00014136Y00692169D01*
X00014025Y00692076D01*
X00013896Y00691993D01*
X00013739Y0069191D01*
X00013748D01*
X00013766Y00691901D01*
X00013794Y00691892D01*
X00013831Y00691882D01*
X00013933Y00691845D01*
X00014062Y0069179D01*
X0001421Y00691716D01*
X00014358Y00691624D01*
X00014497Y00691503D01*
X00014626Y00691365D01*
X00014635Y00691346D01*
X00014672Y00691291D01*
X00014728Y00691198D01*
X00014783Y00691078D01*
X00014839Y0069093D01*
X00014894Y00690754D01*
X00014931Y00690551D01*
X00014941Y00690329D01*
Y0069032D01*
Y00690292D01*
Y00690246D01*
X00014931Y0069019D01*
X00014922Y00690117D01*
X00014904Y00690033D01*
X00014885Y00689941D01*
X00014866Y00689839D01*
X00014793Y00689617D01*
X00014737Y00689497D01*
X00014682Y00689386D01*
X00014608Y00689266D01*
X00014524Y00689146D01*
X00014432Y00689025D01*
X00014321Y00688914D01*
X00014312Y00688905D01*
X00014293Y00688887D01*
X00014256Y00688859D01*
X0001421Y00688822D01*
X00014155Y00688776D01*
X00014081Y0068873D01*
X00013997Y00688674D01*
X00013896Y00688628D01*
X00013794Y00688572D01*
X00013674Y00688517D01*
X00013554Y00688471D01*
X00013415Y00688425D01*
X00013267Y00688388D01*
X0001311Y0068836D01*
X00012953Y00688341D01*
X00012777Y00688332D01*
X00012694D01*
X00012638Y00688341D01*
X00012564Y00688351D01*
X00012481Y0068836D01*
X00012389Y00688378D01*
X00012287Y00688397D01*
X00012065Y00688452D01*
X00011834Y00688545D01*
X00011714Y006886D01*
X00011603Y00688665D01*
X00011492Y00688748D01*
X00011381Y00688831D01*
X00011372Y00688841D01*
X00011353Y00688859D01*
X00011326Y00688887D01*
X00011298Y00688924D01*
X00011251Y0068897D01*
X00011205Y00689035D01*
X0001115Y006891D01*
X00011094Y00689183D01*
X00011039Y00689275D01*
X00010983Y00689368D01*
X00010882Y00689589D01*
X00010798Y00689848D01*
X00010771Y00689987D01*
X00010752Y00690135D01*
X00011538Y00690237D01*
Y00690227D01*
X00011547Y00690209D01*
X00011557Y00690172D01*
X00011566Y00690126D01*
X00011575Y0069007D01*
X00011594Y00690005D01*
X0001164Y00689867D01*
X00011704Y006897D01*
X00011788Y00689543D01*
X0001188Y00689395D01*
X00011991Y00689266D01*
X0001201Y00689257D01*
X00012047Y0068922D01*
X00012121Y00689173D01*
X00012213Y00689127D01*
X00012324Y00689072D01*
X00012463Y00689025D01*
X0001262Y00688988D01*
X00012786Y00688979D01*
X00012842D01*
X00012879Y00688988D01*
X0001298Y00688998D01*
X0001311Y00689025D01*
X00013258Y00689072D01*
X00013415Y00689136D01*
X00013572Y00689229D01*
X0001372Y00689358D01*
X00013739Y00689377D01*
X00013785Y00689432D01*
X0001384Y00689516D01*
X00013914Y00689626D01*
X00013988Y00689765D01*
X00014044Y00689922D01*
X0001409Y00690107D01*
X00014108Y00690311D01*
Y0069032D01*
Y00690338D01*
Y00690366D01*
X00014099Y00690403D01*
X0001409Y00690505D01*
X00014062Y00690625D01*
X00014025Y00690773D01*
X0001396Y00690921D01*
X00013868Y00691069D01*
X00013748Y00691208D01*
X00013729Y00691226D01*
X00013683Y00691263D01*
X00013609Y00691318D01*
X00013507Y00691383D01*
X00013378Y00691448D01*
X00013221Y00691503D01*
X00013045Y0069154D01*
X00012851Y00691559D01*
X00012768D01*
X00012703Y0069155D01*
X0001262Y0069154D01*
X00012527Y00691522D01*
X00012416Y00691503D01*
X00012296Y00691476D01*
X00012389Y00692169D01*
X00012435D01*
X00012472Y0069216D01*
X00012592D01*
X00012694Y00692178D01*
X00012814Y00692197D01*
X00012953Y00692225D01*
X0001311Y00692271D01*
X00013258Y00692335D01*
X00013415Y00692419D01*
X00013424D01*
X00013434Y00692428D01*
X0001348Y00692465D01*
X00013544Y0069253D01*
X00013618Y00692613D01*
X00013692Y00692733D01*
X00013757Y00692872D01*
X00013803Y00693029D01*
X00013822Y00693121D01*
Y00693223D01*
Y00693232D01*
Y00693242D01*
Y00693297D01*
X00013803Y00693371D01*
X00013785Y00693473D01*
X00013748Y00693584D01*
X00013702Y00693704D01*
X00013628Y00693824D01*
X00013526Y00693935D01*
X00013517Y00693944D01*
X0001347Y00693981D01*
X00013406Y00694027D01*
X00013322Y00694083D01*
X00013212Y00694129D01*
X00013082Y00694175D01*
X00012934Y00694212D01*
X00012768Y00694221D01*
X00012694D01*
X00012611Y00694203D01*
X000125Y00694184D01*
X00012379Y00694148D01*
X00012259Y00694101D01*
X0001213Y00694027D01*
X0001201Y00693935D01*
X00012Y00693926D01*
X00011963Y00693879D01*
X00011908Y00693815D01*
X00011843Y00693722D01*
X00011779Y00693602D01*
X00011714Y00693454D01*
X00011658Y00693279D01*
X00011621Y00693075D01*
X00010835Y00693214D01*
Y00693223D01*
X00010845Y00693251D01*
X00010854Y00693288D01*
X00010863Y00693343D01*
X00010882Y00693408D01*
X00010909Y00693482D01*
X00010965Y00693658D01*
X00011057Y00693861D01*
X00011168Y00694064D01*
X00011307Y00694258D01*
X00011483Y00694434D01*
X00011492Y00694443D01*
X0001151Y00694453D01*
X00011538Y00694471D01*
X00011575Y00694499D01*
X00011621Y00694536D01*
X00011686Y00694573D01*
X00011751Y0069461D01*
X00011834Y00694656D01*
X00012019Y0069473D01*
X00012232Y00694804D01*
X00012481Y0069485D01*
X00012611Y00694869D01*
X00012842D01*
X00012943Y00694859D01*
D02*
G37*
G36*
X00081481Y00694689D02*
X00081564Y00694679D01*
X00081666Y0069467D01*
X00081768Y00694661D01*
X00081888Y00694633D01*
X00082138Y00694578D01*
X00082415Y00694494D01*
X00082554Y00694439D01*
X00082683Y00694374D01*
X00082812Y00694291D01*
X00082942Y00694208D01*
X00082951Y00694199D01*
X0008297Y00694189D01*
X00083007Y00694162D01*
X00083053Y00694116D01*
X00083099Y00694069D01*
X00083164Y00694005D01*
X00083229Y00693931D01*
X00083302Y00693857D01*
X00083377Y00693764D01*
X0008345Y00693653D01*
X00083534Y00693542D01*
X00083608Y00693422D01*
X00083672Y00693283D01*
X00083746Y00693145D01*
X00083802Y00692997D01*
X00083857Y0069283D01*
X00083025Y00692636D01*
Y00692645D01*
X00083016Y00692664D01*
X00082997Y00692701D01*
X00082979Y00692747D01*
X0008296Y00692803D01*
X00082933Y00692877D01*
X00082859Y00693025D01*
X00082766Y00693191D01*
X00082655Y00693357D01*
X00082517Y00693514D01*
X00082369Y00693653D01*
X0008235Y00693672D01*
X00082295Y00693709D01*
X00082202Y00693755D01*
X00082082Y0069382D01*
X00081925Y00693875D01*
X00081749Y00693931D01*
X00081537Y00693968D01*
X00081306Y00693977D01*
X00081231D01*
X00081185Y00693968D01*
X00081121D01*
X00081047Y00693958D01*
X00080871Y00693931D01*
X00080677Y00693894D01*
X00080473Y00693829D01*
X00080261Y00693736D01*
X00080066Y00693616D01*
X00080057D01*
X00080048Y00693598D01*
X00079983Y00693551D01*
X000799Y00693477D01*
X00079798Y00693367D01*
X00079678Y00693228D01*
X00079567Y00693071D01*
X00079466Y00692877D01*
X00079373Y00692664D01*
Y00692655D01*
X00079364Y00692636D01*
X00079355Y00692608D01*
X00079345Y00692562D01*
X00079327Y00692507D01*
X00079308Y00692442D01*
X00079281Y00692285D01*
X00079244Y006921D01*
X00079207Y00691897D01*
X00079188Y00691675D01*
X00079179Y00691434D01*
Y00691425D01*
Y00691397D01*
Y00691351D01*
Y00691295D01*
X00079188Y00691231D01*
Y00691148D01*
X00079198Y00691055D01*
X00079207Y00690954D01*
X00079234Y00690732D01*
X00079281Y00690491D01*
X00079336Y00690251D01*
X0007941Y0069001D01*
Y00690001D01*
X00079419Y00689983D01*
X00079438Y00689955D01*
X00079456Y00689909D01*
X00079512Y00689798D01*
X00079595Y00689668D01*
X00079697Y0068952D01*
X00079826Y00689363D01*
X00079974Y00689224D01*
X0008015Y00689095D01*
X00080159D01*
X00080177Y00689086D01*
X00080205Y00689067D01*
X00080242Y00689049D01*
X00080288Y0068903D01*
X00080344Y00689003D01*
X00080473Y00688947D01*
X0008064Y00688892D01*
X00080825Y00688846D01*
X00081028Y00688809D01*
X00081241Y00688799D01*
X00081306D01*
X00081361Y00688809D01*
X00081426D01*
X0008149Y00688818D01*
X00081657Y00688855D01*
X00081851Y00688901D01*
X00082045Y00688975D01*
X00082248Y00689077D01*
X0008235Y00689132D01*
X00082443Y00689206D01*
X00082452Y00689215D01*
X00082461Y00689224D01*
X00082489Y00689252D01*
X00082526Y0068928D01*
X00082563Y00689326D01*
X00082609Y00689382D01*
X00082665Y00689437D01*
X00082711Y00689511D01*
X00082766Y00689594D01*
X00082831Y00689687D01*
X00082886Y00689779D01*
X00082942Y0068989D01*
X00082988Y0069001D01*
X00083034Y0069014D01*
X00083081Y00690278D01*
X00083118Y00690426D01*
X00083968Y00690214D01*
Y00690205D01*
X00083959Y00690168D01*
X0008394Y00690112D01*
X00083913Y00690038D01*
X00083885Y00689955D01*
X00083848Y00689853D01*
X00083802Y00689742D01*
X00083746Y00689622D01*
X00083617Y00689363D01*
X0008345Y00689104D01*
X00083349Y00688975D01*
X00083247Y00688846D01*
X00083136Y00688735D01*
X00083007Y00688624D01*
X00082997Y00688614D01*
X00082979Y00688596D01*
X00082933Y00688577D01*
X00082886Y0068854D01*
X00082812Y00688494D01*
X00082739Y00688448D01*
X00082637Y00688402D01*
X00082535Y00688355D01*
X00082415Y006883D01*
X00082285Y00688254D01*
X00082147Y00688207D01*
X00081999Y00688161D01*
X00081842Y00688124D01*
X00081675Y00688106D01*
X000815Y00688087D01*
X00081315Y00688078D01*
X00081213D01*
X00081139Y00688087D01*
X00081056D01*
X00080954Y00688097D01*
X00080843Y00688115D01*
X00080714Y00688133D01*
X00080446Y0068818D01*
X00080168Y00688254D01*
X00079891Y00688355D01*
X00079761Y0068842D01*
X00079632Y00688494D01*
X00079623Y00688503D01*
X00079604Y00688513D01*
X00079567Y0068854D01*
X0007953Y00688577D01*
X00079475Y00688614D01*
X0007941Y0068867D01*
X00079336Y00688735D01*
X00079262Y00688809D01*
X00079188Y00688892D01*
X00079105Y00688975D01*
X00078939Y00689187D01*
X00078781Y00689437D01*
X00078643Y00689715D01*
Y00689724D01*
X00078624Y00689752D01*
X00078615Y00689798D01*
X00078587Y00689853D01*
X00078569Y00689927D01*
X00078541Y0069002D01*
X00078504Y00690121D01*
X00078476Y00690232D01*
X00078449Y00690352D01*
X00078412Y00690491D01*
X00078365Y00690778D01*
X00078328Y00691101D01*
X0007831Y00691434D01*
Y00691443D01*
Y0069148D01*
Y00691536D01*
X00078319Y00691601D01*
Y00691693D01*
X00078328Y00691786D01*
X00078338Y00691906D01*
X00078356Y00692026D01*
X00078402Y00692294D01*
X00078467Y0069259D01*
X00078559Y00692886D01*
X00078689Y00693172D01*
X00078698Y00693182D01*
X00078707Y00693209D01*
X00078726Y00693246D01*
X00078763Y00693293D01*
X000788Y00693357D01*
X00078846Y00693431D01*
X00078966Y00693598D01*
X00079124Y00693783D01*
X00079308Y00693968D01*
X00079521Y00694152D01*
X00079771Y0069431D01*
X0007978Y00694319D01*
X00079808Y00694328D01*
X00079845Y00694347D01*
X00079891Y00694374D01*
X00079965Y00694402D01*
X00080039Y0069443D01*
X00080131Y00694467D01*
X00080233Y00694504D01*
X00080344Y00694541D01*
X00080464Y00694578D01*
X00080723Y00694633D01*
X00081019Y00694679D01*
X00081324Y00694698D01*
X00081416D01*
X00081481Y00694689D01*
D02*
G37*
G36*
X00086964Y00694605D02*
X00087038Y00694596D01*
X0008713Y00694587D01*
X00087232Y00694568D01*
X00087334Y0069455D01*
X00087574Y00694485D01*
X00087814Y00694393D01*
X00087935Y00694337D01*
X00088055Y00694273D01*
X00088166Y00694189D01*
X00088267Y00694097D01*
X00088277Y00694088D01*
X00088295Y00694079D01*
X00088314Y00694042D01*
X00088351Y00694005D01*
X00088397Y00693958D01*
X00088443Y00693894D01*
X00088489Y00693829D01*
X00088545Y00693746D01*
X00088637Y0069357D01*
X0008873Y00693348D01*
X00088767Y00693237D01*
X00088785Y00693108D01*
X00088804Y00692978D01*
X00088813Y0069284D01*
Y00692821D01*
Y00692775D01*
X00088804Y00692701D01*
X00088794Y00692599D01*
X00088776Y00692488D01*
X00088739Y00692359D01*
X00088702Y0069222D01*
X00088646Y00692081D01*
X00088637Y00692063D01*
X00088619Y00692017D01*
X00088582Y00691943D01*
X00088526Y00691841D01*
X00088452Y0069173D01*
X0008836Y00691591D01*
X00088249Y00691453D01*
X00088119Y00691295D01*
X00088101Y00691277D01*
X00088055Y00691222D01*
X00088008Y00691175D01*
X00087962Y00691129D01*
X00087907Y00691074D01*
X00087833Y00691D01*
X00087759Y00690926D01*
X00087666Y00690843D01*
X00087574Y0069075D01*
X00087463Y00690648D01*
X00087343Y00690547D01*
X00087213Y00690426D01*
X00087065Y00690306D01*
X00086917Y00690177D01*
X00086908Y00690168D01*
X0008689Y00690149D01*
X00086853Y00690121D01*
X00086807Y00690084D01*
X00086751Y00690029D01*
X00086686Y00689973D01*
X00086538Y00689853D01*
X00086381Y00689715D01*
X00086233Y00689576D01*
X00086104Y00689456D01*
X00086048Y00689409D01*
X00086002Y00689363D01*
X00085993Y00689354D01*
X00085965Y00689326D01*
X00085928Y00689289D01*
X00085882Y00689234D01*
X00085836Y00689169D01*
X0008578Y00689104D01*
X00085669Y00688947D01*
X00088822D01*
Y00688189D01*
X00084578D01*
Y00688198D01*
Y00688235D01*
Y00688291D01*
X00084588Y00688365D01*
X00084597Y00688448D01*
X00084615Y0068854D01*
X00084634Y00688633D01*
X00084671Y00688735D01*
Y00688744D01*
X0008468Y00688753D01*
X00084699Y00688809D01*
X00084736Y00688892D01*
X00084791Y00689003D01*
X00084865Y00689132D01*
X00084958Y0068928D01*
X00085059Y00689428D01*
X00085189Y00689585D01*
Y00689594D01*
X00085207Y00689604D01*
X00085253Y00689659D01*
X00085337Y00689742D01*
X00085457Y00689863D01*
X00085595Y00690001D01*
X00085771Y00690168D01*
X00085984Y00690352D01*
X00086215Y00690547D01*
X00086224Y00690556D01*
X00086261Y00690584D01*
X00086317Y0069063D01*
X00086381Y00690685D01*
X00086465Y00690759D01*
X00086566Y00690843D01*
X00086668Y00690935D01*
X00086788Y00691037D01*
X00087019Y00691259D01*
X0008725Y0069148D01*
X00087361Y00691591D01*
X00087463Y00691702D01*
X00087556Y00691804D01*
X00087629Y00691906D01*
Y00691915D01*
X00087648Y00691924D01*
X00087666Y00691952D01*
X00087685Y00691989D01*
X0008775Y00692091D01*
X00087824Y00692211D01*
X00087888Y00692359D01*
X00087953Y00692516D01*
X0008799Y00692692D01*
X00088008Y00692858D01*
Y00692867D01*
Y00692877D01*
X00087999Y00692932D01*
X0008799Y00693025D01*
X00087962Y00693126D01*
X00087925Y00693256D01*
X00087861Y00693385D01*
X00087777Y00693514D01*
X00087666Y00693644D01*
X00087648Y00693662D01*
X00087602Y00693699D01*
X00087537Y00693746D01*
X00087435Y0069381D01*
X00087306Y00693866D01*
X00087158Y00693921D01*
X00086982Y00693958D01*
X00086788Y00693968D01*
X00086733D01*
X00086696Y00693958D01*
X00086585Y00693949D01*
X00086455Y00693921D01*
X00086317Y00693884D01*
X00086159Y0069382D01*
X00086011Y00693736D01*
X00085873Y00693625D01*
X00085854Y00693607D01*
X00085817Y00693561D01*
X00085762Y00693487D01*
X00085706Y00693376D01*
X00085642Y00693246D01*
X00085586Y0069308D01*
X00085549Y00692895D01*
X00085531Y00692682D01*
X00084726Y00692766D01*
Y00692775D01*
X00084736Y00692803D01*
Y00692849D01*
X00084745Y00692914D01*
X00084763Y00692988D01*
X00084782Y00693071D01*
X0008481Y00693172D01*
X00084837Y00693274D01*
X00084911Y00693496D01*
X00085022Y00693718D01*
X00085087Y00693829D01*
X0008517Y0069394D01*
X00085253Y00694042D01*
X00085346Y00694134D01*
X00085355Y00694143D01*
X00085373Y00694152D01*
X00085401Y0069418D01*
X00085448Y00694208D01*
X00085503Y00694245D01*
X00085568Y00694282D01*
X00085642Y00694328D01*
X00085734Y00694374D01*
X00085836Y00694421D01*
X00085947Y00694467D01*
X00086067Y00694504D01*
X00086196Y00694541D01*
X00086335Y00694568D01*
X00086483Y00694596D01*
X0008664Y00694605D01*
X00086807Y00694615D01*
X00086899D01*
X00086964Y00694605D01*
D02*
G37*
G36*
X0033937Y00496823D02*
X00339453Y00496813D01*
X00339555Y00496804D01*
X00339657Y00496795D01*
X00339777Y00496767D01*
X00340027Y00496712D01*
X00340304Y00496628D01*
X00340443Y00496573D01*
X00340572Y00496508D01*
X00340702Y00496425D01*
X00340831Y00496342D01*
X0034084Y00496333D01*
X00340859Y00496323D01*
X00340896Y00496296D01*
X00340942Y0049625D01*
X00340988Y00496203D01*
X00341053Y00496138D01*
X00341118Y00496064D01*
X00341192Y00495991D01*
X00341266Y00495898D01*
X00341339Y00495787D01*
X00341423Y00495676D01*
X00341497Y00495556D01*
X00341561Y00495417D01*
X00341635Y00495279D01*
X00341691Y00495131D01*
X00341746Y00494964D01*
X00340914Y0049477D01*
Y00494779D01*
X00340905Y00494798D01*
X00340886Y00494835D01*
X00340868Y00494881D01*
X00340849Y00494937D01*
X00340822Y0049501D01*
X00340748Y00495159D01*
X00340655Y00495325D01*
X00340544Y00495491D01*
X00340406Y00495648D01*
X00340258Y00495787D01*
X00340239Y00495806D01*
X00340184Y00495843D01*
X00340091Y00495889D01*
X00339971Y00495954D01*
X00339814Y00496009D01*
X00339638Y00496064D01*
X00339426Y00496101D01*
X00339194Y00496111D01*
X00339121D01*
X00339074Y00496101D01*
X0033901D01*
X00338936Y00496092D01*
X0033876Y00496064D01*
X00338566Y00496028D01*
X00338362Y00495963D01*
X0033815Y0049587D01*
X00337956Y0049575D01*
X00337946D01*
X00337937Y00495732D01*
X00337872Y00495686D01*
X00337789Y00495611D01*
X00337687Y00495501D01*
X00337567Y00495362D01*
X00337456Y00495205D01*
X00337355Y0049501D01*
X00337262Y00494798D01*
Y00494789D01*
X00337253Y0049477D01*
X00337244Y00494742D01*
X00337234Y00494696D01*
X00337216Y00494641D01*
X00337197Y00494576D01*
X0033717Y00494419D01*
X00337133Y00494234D01*
X00337096Y0049403D01*
X00337077Y00493809D01*
X00337068Y00493568D01*
Y00493559D01*
Y00493531D01*
Y00493485D01*
Y00493429D01*
X00337077Y00493365D01*
Y00493282D01*
X00337086Y00493189D01*
X00337096Y00493088D01*
X00337123Y00492866D01*
X0033717Y00492625D01*
X00337225Y00492385D01*
X00337299Y00492144D01*
Y00492135D01*
X00337308Y00492117D01*
X00337327Y00492089D01*
X00337345Y00492043D01*
X00337401Y00491932D01*
X00337484Y00491802D01*
X00337586Y00491654D01*
X00337715Y00491497D01*
X00337863Y00491358D01*
X00338039Y00491229D01*
X00338048D01*
X00338067Y0049122D01*
X00338094Y00491201D01*
X00338131Y00491183D01*
X00338177Y00491164D01*
X00338233Y00491137D01*
X00338362Y00491081D01*
X00338529Y00491026D01*
X00338714Y00490979D01*
X00338917Y00490942D01*
X0033913Y00490933D01*
X00339194D01*
X0033925Y00490942D01*
X00339315D01*
X0033938Y00490952D01*
X00339546Y00490989D01*
X0033974Y00491035D01*
X00339934Y00491109D01*
X00340138Y00491211D01*
X00340239Y00491266D01*
X00340332Y0049134D01*
X00340341Y00491349D01*
X0034035Y00491358D01*
X00340378Y00491386D01*
X00340415Y00491414D01*
X00340452Y0049146D01*
X00340498Y00491516D01*
X00340554Y00491571D01*
X003406Y00491645D01*
X00340655Y00491728D01*
X0034072Y00491821D01*
X00340775Y00491913D01*
X00340831Y00492024D01*
X00340877Y00492144D01*
X00340924Y00492274D01*
X0034097Y00492412D01*
X00341007Y00492561D01*
X00341857Y00492348D01*
Y00492339D01*
X00341848Y00492302D01*
X00341829Y00492246D01*
X00341802Y00492172D01*
X00341774Y00492089D01*
X00341737Y00491987D01*
X00341691Y00491876D01*
X00341635Y00491756D01*
X00341506Y00491497D01*
X00341339Y00491238D01*
X00341238Y00491109D01*
X00341136Y00490979D01*
X00341025Y00490868D01*
X00340896Y00490758D01*
X00340886Y00490748D01*
X00340868Y0049073D01*
X00340822Y00490711D01*
X00340775Y00490674D01*
X00340702Y00490628D01*
X00340628Y00490582D01*
X00340526Y00490536D01*
X00340424Y00490489D01*
X00340304Y00490434D01*
X00340175Y00490388D01*
X00340036Y00490341D01*
X00339888Y00490295D01*
X00339731Y00490258D01*
X00339564Y0049024D01*
X00339389Y00490221D01*
X00339204Y00490212D01*
X00339102D01*
X00339028Y00490221D01*
X00338945D01*
X00338843Y00490231D01*
X00338732Y00490249D01*
X00338603Y00490267D01*
X00338335Y00490314D01*
X00338057Y00490388D01*
X0033778Y00490489D01*
X0033765Y00490554D01*
X00337521Y00490628D01*
X00337512Y00490637D01*
X00337493Y00490647D01*
X00337456Y00490674D01*
X00337419Y00490711D01*
X00337364Y00490748D01*
X00337299Y00490804D01*
X00337225Y00490868D01*
X00337151Y00490942D01*
X00337077Y00491026D01*
X00336994Y00491109D01*
X00336828Y00491321D01*
X0033667Y00491571D01*
X00336532Y00491848D01*
Y00491858D01*
X00336513Y00491885D01*
X00336504Y00491932D01*
X00336476Y00491987D01*
X00336458Y00492061D01*
X0033643Y00492154D01*
X00336393Y00492255D01*
X00336365Y00492366D01*
X00336338Y00492486D01*
X00336301Y00492625D01*
X00336254Y00492912D01*
X00336217Y00493235D01*
X00336199Y00493568D01*
Y00493577D01*
Y00493615D01*
Y0049367D01*
X00336208Y00493735D01*
Y00493827D01*
X00336217Y0049392D01*
X00336227Y0049404D01*
X00336245Y0049416D01*
X00336291Y00494428D01*
X00336356Y00494724D01*
X00336449Y0049502D01*
X00336578Y00495306D01*
X00336587Y00495316D01*
X00336596Y00495343D01*
X00336615Y0049538D01*
X00336652Y00495427D01*
X00336689Y00495491D01*
X00336735Y00495565D01*
X00336855Y00495732D01*
X00337013Y00495917D01*
X00337197Y00496101D01*
X0033741Y00496286D01*
X0033766Y00496444D01*
X00337669Y00496453D01*
X00337697Y00496462D01*
X00337734Y00496481D01*
X0033778Y00496508D01*
X00337854Y00496536D01*
X00337928Y00496564D01*
X0033802Y00496601D01*
X00338122Y00496638D01*
X00338233Y00496675D01*
X00338353Y00496712D01*
X00338612Y00496767D01*
X00338908Y00496813D01*
X00339213Y00496832D01*
X00339305D01*
X0033937Y00496823D01*
D02*
G37*
G36*
X00345537Y00490323D02*
X00344751D01*
Y00495325D01*
X00344742Y00495316D01*
X00344696Y00495279D01*
X0034464Y00495223D01*
X00344548Y00495159D01*
X00344446Y00495075D01*
X00344317Y00494983D01*
X00344169Y00494881D01*
X00344002Y00494779D01*
X00343993D01*
X00343984Y0049477D01*
X00343928Y00494733D01*
X00343836Y00494687D01*
X00343725Y00494632D01*
X00343596Y00494567D01*
X00343457Y00494502D01*
X00343318Y00494437D01*
X00343179Y00494382D01*
Y0049514D01*
X00343189D01*
X00343207Y00495159D01*
X00343244Y00495168D01*
X0034329Y00495196D01*
X00343346Y00495223D01*
X0034341Y0049526D01*
X00343568Y00495353D01*
X00343753Y00495454D01*
X00343937Y00495584D01*
X00344132Y00495732D01*
X00344326Y00495889D01*
X00344335Y00495898D01*
X00344344Y00495907D01*
X00344372Y00495935D01*
X00344409Y00495963D01*
X00344492Y00496055D01*
X00344603Y00496166D01*
X00344714Y00496296D01*
X00344834Y00496444D01*
X00344936Y00496591D01*
X00345028Y00496749D01*
X00345537D01*
Y00490323D01*
D02*
G37*
%LPC*%
G36*
X00150998Y00450783D02*
X00148982D01*
Y00448666D01*
X00150887D01*
X00150998Y00448675D01*
X00151127Y00448684D01*
X00151275Y00448694D01*
X00151423Y00448712D01*
X00151571Y0044874D01*
X001517Y00448777D01*
X00151719Y00448786D01*
X00151756Y00448805D01*
X00151811Y00448832D01*
X00151885Y00448869D01*
X00151968Y00448925D01*
X00152052Y0044899D01*
X00152135Y00449073D01*
X001522Y00449165D01*
X00152209Y00449174D01*
X00152227Y00449211D01*
X00152255Y00449267D01*
X00152292Y00449341D01*
X0015232Y00449424D01*
X00152348Y00449517D01*
X00152366Y00449627D01*
X00152375Y00449738D01*
Y00449748D01*
Y00449757D01*
X00152366Y00449812D01*
X00152357Y00449896D01*
X00152338Y00450007D01*
X00152292Y00450117D01*
X00152237Y00450247D01*
X00152153Y00450367D01*
X00152043Y00450487D01*
X00152024Y00450497D01*
X00151978Y00450534D01*
X00151904Y0045058D01*
X00151784Y00450635D01*
X00151645Y00450691D01*
X0015146Y00450737D01*
X00151247Y00450774D01*
X00150998Y00450783D01*
D02*
G37*
G36*
X00150485Y00526691D02*
X00150429D01*
X00150392Y00526681D01*
X00150281Y00526672D01*
X00150152Y00526644D01*
X00150004Y00526598D01*
X00149847Y00526543D01*
X00149699Y0052645D01*
X00149551Y0052633D01*
X00149533Y00526312D01*
X00149496Y00526265D01*
X00149431Y00526182D01*
X00149366Y0052608D01*
X00149302Y00525951D01*
X00149237Y00525794D01*
X001492Y00525609D01*
X00149181Y00525415D01*
Y00525406D01*
Y00525387D01*
Y00525359D01*
X00149191Y00525322D01*
X001492Y00525221D01*
X00149228Y00525082D01*
X00149274Y00524943D01*
X00149338Y00524786D01*
X00149431Y00524629D01*
X0014956Y00524481D01*
X00149579Y00524463D01*
X00149625Y00524426D01*
X00149708Y00524361D01*
X00149819Y00524287D01*
X00149958Y00524222D01*
X00150124Y00524157D01*
X00150309Y0052412D01*
X00150513Y00524102D01*
X00150568D01*
X00150605Y00524111D01*
X00150707Y0052412D01*
X00150836Y00524148D01*
X00150984Y00524194D01*
X00151132Y00524259D01*
X00151289Y00524352D01*
X00151428Y00524472D01*
X00151446Y0052449D01*
X00151483Y00524536D01*
X00151539Y0052462D01*
X00151604Y00524721D01*
X00151678Y0052486D01*
X00151733Y00525017D01*
X0015177Y00525193D01*
X00151789Y00525387D01*
Y00525406D01*
Y00525443D01*
X00151779Y00525507D01*
X0015177Y0052559D01*
X00151751Y00525692D01*
X00151724Y00525803D01*
X00151687Y00525914D01*
X00151641Y00526034D01*
X00151631Y00526043D01*
X00151613Y0052609D01*
X00151576Y00526145D01*
X0015152Y0052621D01*
X00151456Y00526293D01*
X00151372Y00526376D01*
X0015128Y0052645D01*
X00151169Y00526524D01*
X00151151Y00526534D01*
X00151114Y00526552D01*
X00151049Y0052658D01*
X00150966Y00526607D01*
X00150864Y00526635D01*
X00150744Y00526663D01*
X00150614Y00526681D01*
X00150485Y00526691D01*
D02*
G37*
G36*
Y00523464D02*
X00150466D01*
X00150411Y00523455D01*
X00150328Y00523445D01*
X00150217Y00523427D01*
X00150097Y0052339D01*
X00149976Y00523344D01*
X00149847Y0052327D01*
X00149736Y00523177D01*
X00149727Y00523168D01*
X0014969Y00523122D01*
X00149643Y00523066D01*
X00149588Y00522983D01*
X00149533Y00522882D01*
X00149486Y00522761D01*
X00149449Y00522623D01*
X0014944Y00522475D01*
Y00522465D01*
Y00522456D01*
Y00522401D01*
X00149459Y00522318D01*
X00149477Y00522216D01*
X00149514Y00522105D01*
X0014957Y00521985D01*
X00149643Y00521864D01*
X00149745Y00521744D01*
X00149754Y00521735D01*
X00149801Y00521698D01*
X00149865Y00521652D01*
X00149949Y00521596D01*
X0015006Y00521541D01*
X0015018Y00521495D01*
X00150328Y00521458D01*
X00150485Y00521448D01*
X00150559D01*
X00150642Y00521467D01*
X00150753Y00521485D01*
X00150873Y00521522D01*
X00151003Y00521569D01*
X00151123Y00521642D01*
X00151243Y00521744D01*
X00151252Y00521754D01*
X00151289Y00521791D01*
X00151335Y00521855D01*
X00151382Y00521938D01*
X00151437Y0052204D01*
X00151483Y0052216D01*
X0015152Y0052229D01*
X0015153Y00522438D01*
Y00522447D01*
Y00522456D01*
X0015152Y00522512D01*
X00151511Y00522595D01*
X00151493Y00522696D01*
X00151456Y00522817D01*
X0015141Y00522937D01*
X00151335Y00523066D01*
X00151243Y00523177D01*
X00151234Y00523187D01*
X00151188Y00523223D01*
X00151123Y0052327D01*
X0015104Y00523316D01*
X00150929Y00523372D01*
X00150799Y00523418D01*
X00150651Y00523455D01*
X00150485Y00523464D01*
D02*
G37*
G36*
X00153988Y00692041D02*
X00151972Y00689175D01*
X00153988D01*
Y00692041D01*
D02*
G37*
%LPD*%
D10*
X00163576Y0056035D02*
G03*
X00163576Y0056035I-0004064J0D01*
G01*
X00081788Y00560324D02*
G03*
X00081788Y00560324I-0004064J0D01*
G01*
X00204089Y00458216D02*
Y00468376D01*
Y004318D02*
Y0044196D01*
X00358267Y00458216D02*
Y00468376D01*
Y004318D02*
Y0044196D01*
X00204089Y004318D02*
X00358267D01*
X00204089Y00468376D02*
X00358267D01*
D11*
X00156958Y00607756D02*
G03*
X00156958Y00607756I-00001J0D01*
G01*
X00172648Y00566446D02*
G03*
X00172648Y00566446I-00001J0D01*
G01*
X00433816Y00029958D02*
G03*
X00433816Y00029958I-00001J0D01*
G01*
X00088124Y00607756D02*
G03*
X00088124Y00607756I-00001J0D01*
G01*
X00019544D02*
G03*
X00019544Y00607756I-00001J0D01*
G01*
D12*
X002143Y00341562D02*
Y00396562D01*
X001118Y00419062D02*
X001943D01*
X000343D02*
X000905D01*
X000143Y00319062D02*
X000418D01*
X000593D02*
X001943D01*
X000143D02*
Y00396562D01*
X0007236Y00475088D02*
X0022736D01*
X0007236Y00425088D02*
X0022736D01*
X0007236D02*
Y00475088D01*
X0022736Y00425088D02*
Y00475088D01*
X00321992Y00480006D02*
X00361992D01*
X00321992Y00505006D02*
X00361992D01*
X00321992Y00480006D02*
Y00483556D01*
X00361992Y00480006D02*
Y00483556D01*
X00321992Y00501456D02*
Y00505006D01*
X00361992Y00501456D02*
Y00505006D01*
X00183458Y00684256D02*
X00204958D01*
Y00631756D02*
Y00684256D01*
X00191458Y00618256D02*
X00204958Y00631756D01*
X00183458Y00618256D02*
X00191458D01*
X00138958Y00684256D02*
X00160458D01*
X00138958Y00631756D02*
Y00684256D01*
Y00631756D02*
X00152458Y00618256D01*
X00160458D01*
X00199898Y00482245D02*
X00263398D01*
X00199898Y00578003D02*
X00263398D01*
X00199898Y00482245D02*
Y00484824D01*
Y00575424D02*
Y00578003D01*
X00263398Y00482245D02*
Y00484824D01*
Y00575424D02*
Y00578003D01*
X00174834Y00478602D02*
Y00518602D01*
X00089834D02*
X00174834D01*
X00089834Y00478602D02*
Y00518602D01*
Y00478602D02*
X00174834D01*
X00440934Y00505084D02*
Y00697284D01*
X00293634D02*
X00440934D01*
X00293634Y00505084D02*
Y00697284D01*
Y00505084D02*
X00440934D01*
X00114624Y00684256D02*
X00136124D01*
Y00631756D02*
Y00684256D01*
X00122624Y00618256D02*
X00136124Y00631756D01*
X00114624Y00618256D02*
X00122624D01*
X00070124Y00684256D02*
X00091624D01*
X00070124Y00631756D02*
Y00684256D01*
Y00631756D02*
X00083624Y00618256D01*
X00091624D01*
X00046044Y00684256D02*
X00067544D01*
Y00631756D02*
Y00684256D01*
X00054044Y00618256D02*
X00067544Y00631756D01*
X00046044Y00618256D02*
X00054044D01*
X00001544Y00684256D02*
X00023044D01*
X00001544Y00631756D02*
Y00684256D01*
Y00631756D02*
X00015044Y00618256D01*
X00023044D01*
X00176712Y00532824D02*
Y00535824D01*
X00167712Y00532824D02*
Y00535824D01*
X00215468Y00341562D02*
Y00396562D01*
X00235468Y00319062D02*
X00317968D01*
X00339268D02*
X00395468D01*
X00387968Y00419062D02*
X00415468D01*
X00235468D02*
X00370468D01*
X00415468Y00341562D02*
Y00419062D01*
D13*
X00053848Y0002437D02*
Y00067042D01*
X00430276D01*
Y0002437D02*
Y00067042D01*
X00053848Y0002437D02*
X00430276D01*
M02*
