G04*
G04 #@! TF.GenerationSoftware,Altium Limited,Altium Designer,23.0.1 (38)*
G04*
G04 Layer_Color=128*
%FSTAX43Y43*%
%MOMM*%
G71*
G04*
G04 #@! TF.SameCoordinates,251AB1EA-40F0-4E74-92E7-BAF76BE2301E*
G04*
G04*
G04 #@! TF.FilePolarity,Positive*
G04*
G01*
G75*
%ADD17R,1.800X1.000*%
%ADD34R,3.000X1.600*%
%ADD36R,0.600X1.230*%
G04:AMPARAMS|DCode=37|XSize=0.65mm|YSize=1mm|CornerRadius=0.081mm|HoleSize=0mm|Usage=FLASHONLY|Rotation=0.000|XOffset=0mm|YOffset=0mm|HoleType=Round|Shape=RoundedRectangle|*
%AMROUNDEDRECTD37*
21,1,0.650,0.838,0,0,0.0*
21,1,0.488,1.000,0,0,0.0*
1,1,0.163,0.244,-0.419*
1,1,0.163,-0.244,-0.419*
1,1,0.163,-0.244,0.419*
1,1,0.163,0.244,0.419*
%
%ADD37ROUNDEDRECTD37*%
%ADD38R,1.860X0.900*%
%ADD39R,1.860X3.190*%
G04:AMPARAMS|DCode=40|XSize=1.93mm|YSize=0.59mm|CornerRadius=0.074mm|HoleSize=0mm|Usage=FLASHONLY|Rotation=270.000|XOffset=0mm|YOffset=0mm|HoleType=Round|Shape=RoundedRectangle|*
%AMROUNDEDRECTD40*
21,1,1.930,0.443,0,0,270.0*
21,1,1.783,0.590,0,0,270.0*
1,1,0.148,-0.221,-0.891*
1,1,0.148,-0.221,0.891*
1,1,0.148,0.221,0.891*
1,1,0.148,0.221,-0.891*
%
%ADD40ROUNDEDRECTD40*%
%ADD41R,0.990X1.120*%
%ADD42R,1.620X3.400*%
%ADD43R,1.130X1.770*%
%ADD44R,0.930X0.870*%
%ADD45R,1.100X3.700*%
G04:AMPARAMS|DCode=46|XSize=2.17mm|YSize=1.57mm|CornerRadius=0.196mm|HoleSize=0mm|Usage=FLASHONLY|Rotation=0.000|XOffset=0mm|YOffset=0mm|HoleType=Round|Shape=RoundedRectangle|*
%AMROUNDEDRECTD46*
21,1,2.170,1.178,0,0,0.0*
21,1,1.778,1.570,0,0,0.0*
1,1,0.393,0.889,-0.589*
1,1,0.393,-0.889,-0.589*
1,1,0.393,-0.889,0.589*
1,1,0.393,0.889,0.589*
%
%ADD46ROUNDEDRECTD46*%
%ADD47R,1.100X1.000*%
%ADD48R,0.900X1.500*%
%ADD49R,1.120X0.990*%
%ADD50R,3.700X1.100*%
%ADD51R,0.870X0.930*%
%ADD62R,1.410X1.410*%
G36*
X0018621Y0068049D02*
X0017211D01*
Y0069459D01*
X0018621D01*
Y0068049D01*
D02*
G37*
G36*
X0016161D02*
X0014751D01*
Y0069459D01*
X0016161D01*
Y0068049D01*
D02*
G37*
G36*
X0013701D02*
X0012291D01*
Y0069459D01*
X0013701D01*
Y0068049D01*
D02*
G37*
G36*
X0018621Y0065589D02*
X0017211D01*
Y0066999D01*
X0018621D01*
Y0065589D01*
D02*
G37*
G36*
X0013701D02*
X0012291D01*
Y0066999D01*
X0013701D01*
Y0065589D01*
D02*
G37*
G36*
X0018621Y0063129D02*
X0017211D01*
Y0064539D01*
X0018621D01*
Y0063129D01*
D02*
G37*
G36*
X0016161D02*
X0014751D01*
Y0064539D01*
X0016161D01*
Y0063129D01*
D02*
G37*
G36*
X0013701D02*
X0012291D01*
Y0064539D01*
X0013701D01*
Y0063129D01*
D02*
G37*
D17*
X0006426Y0003071D02*
D03*
Y0006071D02*
D03*
X0008966Y0003071D02*
D03*
Y0006071D02*
D03*
X0011506Y0003071D02*
D03*
Y0006071D02*
D03*
X0014046Y0003071D02*
D03*
Y0006071D02*
D03*
X0016586Y0003071D02*
D03*
Y0006071D02*
D03*
X0019126Y0003071D02*
D03*
Y0006071D02*
D03*
X0021666Y0003071D02*
D03*
Y0006071D02*
D03*
X0024206Y0003071D02*
D03*
Y0006071D02*
D03*
X0026746Y0003071D02*
D03*
Y0006071D02*
D03*
X0029286Y0003071D02*
D03*
Y0006071D02*
D03*
X0031826Y0003071D02*
D03*
Y0006071D02*
D03*
X0034366Y0003071D02*
D03*
Y0006071D02*
D03*
X0036906D02*
D03*
Y0003071D02*
D03*
X0039446D02*
D03*
Y0006071D02*
D03*
X0041986Y0003071D02*
D03*
Y0006071D02*
D03*
D34*
X0022106Y0063994D02*
D03*
Y0068594D02*
D03*
D36*
X0022596Y0039331D02*
D03*
X0023546Y0037211D02*
D03*
X0021646D02*
D03*
D37*
X0026252Y0062427D02*
D03*
X0028292D02*
D03*
X0027272Y0064827D02*
D03*
D38*
X0007317Y0068594D02*
D03*
Y0066294D02*
D03*
Y0063994D02*
D03*
D39*
X0001167Y0066294D02*
D03*
D40*
X0022022Y0054669D02*
D03*
X0024562D02*
D03*
Y0060749D02*
D03*
X0022022D02*
D03*
D41*
X002032Y0038823D02*
D03*
Y0035683D02*
D03*
D42*
X001016Y0035154D02*
D03*
X0015906D02*
D03*
X001016Y0038405D02*
D03*
X0015906D02*
D03*
D43*
X0032896Y0049225D02*
D03*
X0035836D02*
D03*
D44*
X0024613Y0037211D02*
D03*
Y0035701D02*
D03*
X0040437Y0029609D02*
D03*
Y0028049D02*
D03*
X0026252Y0065083D02*
D03*
Y0066643D02*
D03*
X0028292D02*
D03*
Y0065133D02*
D03*
X0040437Y0023731D02*
D03*
Y0025291D02*
D03*
Y001663D02*
D03*
Y001507D02*
D03*
Y0020973D02*
D03*
Y0019413D02*
D03*
D45*
X0009399Y0054282D02*
D03*
X0006399D02*
D03*
D46*
X0031728Y006858D02*
D03*
X0027598D02*
D03*
D47*
X0027952Y0061282D02*
D03*
X0026252D02*
D03*
D48*
X0001074Y0047369D02*
D03*
X0005174Y0053089D02*
D03*
X0001074D02*
D03*
X0005174Y0047369D02*
D03*
D49*
X0034168Y0051689D02*
D03*
X0037308D02*
D03*
D50*
X0015011Y0057782D02*
D03*
Y0060782D02*
D03*
D51*
X0027952Y0059995D02*
D03*
X0026442D02*
D03*
D62*
X0015456Y0066294D02*
D03*
M02*
