G04*
G04 #@! TF.GenerationSoftware,Altium Limited,Altium Designer,23.0.1 (38)*
G04*
G04 Layer_Color=128*
%FSTAX44Y44*%
%MOMM*%
G71*
G04*
G04 #@! TF.SameCoordinates,819F8F0F-2E7A-4D06-A50E-73C9B09E9D71*
G04*
G04*
G04 #@! TF.FilePolarity,Positive*
G04*
G01*
G75*
%ADD12C,0.1270*%
D12*
X001962Y00407162D02*
X002102D01*
X002032Y00400162D02*
Y00414162D01*
X001962Y00330962D02*
X002102D01*
X002032Y00323962D02*
Y00337962D01*
X000946Y00407162D02*
X001086D01*
X001016Y00400162D02*
Y00414162D01*
X000184Y00407162D02*
X000324D01*
X000254Y00400162D02*
Y00414162D01*
X000438Y00330962D02*
X000578D01*
X000508Y00323962D02*
Y00337962D01*
X00128226Y00121422D02*
X00153226D01*
X00140726Y00108922D02*
Y00133922D01*
X00288226Y00281422D02*
X00313226D01*
X00300726Y00268922D02*
Y00293922D01*
X00288226Y00121422D02*
X00313226D01*
X00300726Y00108922D02*
Y00133922D01*
X00128226Y00281422D02*
X00153226D01*
X00140726Y00268922D02*
Y00293922D01*
X0018211Y00441088D02*
X0019261D01*
X0018736Y00435838D02*
Y00446338D01*
X0010711Y00459088D02*
X0011761D01*
X0011236Y00453838D02*
Y00464338D01*
X00362992Y00492506D02*
X00370992D01*
X00366992Y00488506D02*
Y00496506D01*
X00312992Y00492506D02*
X00320992D01*
X00316992Y00488506D02*
Y00496506D01*
X00118686Y0054285D02*
X00127186D01*
X00122936Y005386D02*
Y005471D01*
X00118686Y0057785D02*
X00127186D01*
X00122936Y005736D02*
Y005821D01*
X00038247Y00447953D02*
X00042247D01*
X00040247Y00445953D02*
Y00449953D01*
X0003374Y00459342D02*
X0003774D01*
X0003574Y00457342D02*
Y00461342D01*
X00038606Y00470583D02*
X00042606D01*
X00040606Y00468583D02*
Y00472583D01*
X00049996Y0047509D02*
X00053996D01*
X00051996Y0047309D02*
Y0047709D01*
X00061237Y00470224D02*
X00065237D01*
X00063237Y00468224D02*
Y00472224D01*
X00065744Y00458834D02*
X00069744D01*
X00067744Y00456834D02*
Y00460834D01*
X00060877Y00447593D02*
X00064877D01*
X00062877Y00445593D02*
Y00449594D01*
X00049488Y00443086D02*
X00053488D01*
X00051488Y00441086D02*
Y00445086D01*
X00039242Y00459088D02*
X00064242D01*
X00051742Y00446588D02*
Y00471588D01*
X00101434Y00498602D02*
X00112434D01*
X00106934Y00493102D02*
Y00504102D01*
X00152234Y00498602D02*
X00163234D01*
X00157734Y00493102D02*
Y00504102D01*
X00350946Y00450088D02*
X00359746D01*
X00355346Y00445688D02*
Y00454488D01*
X00202864Y00450088D02*
X00211664D01*
X00207264Y00445688D02*
Y00454488D01*
X00411284Y00666284D02*
X00423284D01*
X00417284Y00660284D02*
Y00672284D01*
X00411284Y00621284D02*
X00423284D01*
X00417284Y00615284D02*
Y00627284D01*
X00386284Y00666284D02*
X00398284D01*
X00392284Y00660284D02*
Y00672284D01*
X00361284Y00666284D02*
X00373284D01*
X00367284Y00660284D02*
Y00672284D01*
X00336284Y00666284D02*
X00348284D01*
X00342284Y00660284D02*
Y00672284D01*
X00311284Y00666284D02*
X00323284D01*
X00317284Y00660284D02*
Y00672284D01*
X00386284Y00621284D02*
X00398284D01*
X00392284Y00615284D02*
Y00627284D01*
X00361284Y00621284D02*
X00373284D01*
X00367284Y00615284D02*
Y00627284D01*
X00336284Y00621284D02*
X00348284D01*
X00342284Y00615284D02*
Y00627284D01*
X00311284Y00621284D02*
X00323284D01*
X00317284Y00615284D02*
Y00627284D01*
X00311284Y00536184D02*
X00323284D01*
X00317284Y00530184D02*
Y00542184D01*
X00336284Y00536184D02*
X00348284D01*
X00342284Y00530184D02*
Y00542184D01*
X00361284Y00536184D02*
X00373284D01*
X00367284Y00530184D02*
Y00542184D01*
X00386284Y00536184D02*
X00398284D01*
X00392284Y00530184D02*
Y00542184D01*
X00411284Y00536184D02*
X00423284D01*
X00417284Y00530184D02*
Y00542184D01*
X00036898Y00577824D02*
X00045398D01*
X00041148Y00573574D02*
Y00582074D01*
X00036898Y00542824D02*
X00045398D01*
X00041148Y00538574D02*
Y00547074D01*
X0037244Y00438953D02*
X0037644D01*
X0037444Y00436953D02*
Y00440953D01*
X00367932Y00450342D02*
X00371932D01*
X00369932Y00448342D02*
Y00452342D01*
X00372799Y00461582D02*
X00376799D01*
X00374799Y00459582D02*
Y00463582D01*
X00384188Y0046609D02*
X00388188D01*
X00386188Y0046409D02*
Y0046809D01*
X00395429Y00461223D02*
X00399429D01*
X00397429Y00459223D02*
Y00463223D01*
X00399936Y00449834D02*
X00403936D01*
X00401936Y00447834D02*
Y00451834D01*
X0039507Y00438593D02*
X0039907D01*
X0039707Y00436594D02*
Y00440593D01*
X0038368Y00434086D02*
X0038768D01*
X0038568Y00432086D02*
Y00436086D01*
X00373434Y00450088D02*
X00398434D01*
X00385934Y00437588D02*
Y00462588D01*
X00219568Y00330962D02*
X00233568D01*
X00226568Y00323962D02*
Y00337962D01*
X00219568Y00407162D02*
X00233568D01*
X00226568Y00400162D02*
Y00414162D01*
X00321168Y00330962D02*
X00335168D01*
X00328168Y00323962D02*
Y00337962D01*
X00397368Y00330962D02*
X00411368D01*
X00404368Y00323962D02*
Y00337962D01*
X00371968Y00407162D02*
X00385968D01*
X00378968Y00400162D02*
Y00414162D01*
X000035Y0066294D02*
X000085D01*
X00006Y0066044D02*
Y0066544D01*
X00225322Y00199136D02*
X00228322D01*
X00226822Y00197636D02*
Y00200636D01*
X00244626Y0035701D02*
X00247626D01*
X00246126Y0035551D02*
Y0035851D01*
X00215162Y00060706D02*
X00218162D01*
X00216662Y00059206D02*
Y00062206D01*
X0024161Y00637032D02*
X0024861D01*
X0024511Y00633532D02*
Y00640532D01*
X00062762Y00060706D02*
X00065762D01*
X00064262Y00059206D02*
Y00062206D01*
X00189762Y00060706D02*
X00192762D01*
X00191262Y00059206D02*
Y00062206D01*
X00240562Y00060706D02*
X00243562D01*
X00242062Y00059206D02*
Y00062206D01*
X00316762Y00060706D02*
X00319762D01*
X00318262Y00059206D02*
Y00062206D01*
X00342162Y00060706D02*
X00345162D01*
X00343662Y00059206D02*
Y00062206D01*
X00367562Y00060706D02*
X00370562D01*
X00369062Y00059206D02*
Y00062206D01*
X00392962Y00060706D02*
X00395962D01*
X00394462Y00059206D02*
Y00062206D01*
X00418362Y00030706D02*
X00421362D01*
X00419862Y00029206D02*
Y00032206D01*
X00270718Y0064827D02*
X00274718D01*
X00272718Y0064627D02*
Y0065027D01*
X00168458Y00679256D02*
X00175458D01*
X00171958Y00675756D02*
Y00682756D01*
X00069668Y00679256D02*
X00076668D01*
X00073168Y00675756D02*
Y00682756D01*
X00243618Y00493802D02*
X00247618D01*
X00245618Y00491802D02*
Y00495802D01*
X00218218Y00517424D02*
X00222218D01*
X00220218Y00515424D02*
Y00519424D01*
X00099624Y0063994D02*
X00106624D01*
X00103124Y0063644D02*
Y0064344D01*
X00217562Y00652018D02*
X00224562D01*
X00221062Y00648518D02*
Y00655518D01*
M02*
