G04*
G04 #@! TF.GenerationSoftware,Altium Limited,Altium Designer,23.0.1 (38)*
G04*
G04 Layer_Color=128*
%FSTAX43Y43*%
%MOMM*%
G71*
G04*
G04 #@! TF.SameCoordinates,251AB1EA-40F0-4E74-92E7-BAF76BE2301E*
G04*
G04*
G04 #@! TF.FilePolarity,Positive*
G04*
G01*
G75*
%ADD12C,0.127*%
D12*
X0010711Y0045909D02*
X0011761D01*
X0011236Y0045384D02*
Y0046434D01*
X0018211Y0044109D02*
X0019261D01*
X0018736Y0043584D02*
Y0044634D01*
X0031299Y0049251D02*
X0032099D01*
X0031699Y0048851D02*
Y0049651D01*
X0036299Y0049251D02*
X0037099D01*
X0036699Y0048851D02*
Y0049651D01*
X0011869Y0057785D02*
X0012719D01*
X0012294Y005736D02*
Y005821D01*
X0011869Y0054285D02*
X0012719D01*
X0012294Y005386D02*
Y005471D01*
X0012823Y0012142D02*
X0015323D01*
X0014073Y0010892D02*
Y0013392D01*
X0028823Y0028142D02*
X0031323D01*
X0030073Y0026892D02*
Y0029392D01*
X0028823Y0012142D02*
X0031323D01*
X0030073Y0010892D02*
Y0013392D01*
X0012823Y0028142D02*
X0015323D01*
X0014073Y0026892D02*
Y0029392D01*
X001962Y0040716D02*
X002102D01*
X002032Y0040016D02*
Y0041416D01*
X001962Y0033096D02*
X002102D01*
X002032Y0032396D02*
Y0033796D01*
X000946Y0040716D02*
X001086D01*
X001016Y0040016D02*
Y0041416D01*
X000184Y0040716D02*
X000324D01*
X000254Y0040016D02*
Y0041416D01*
X000438Y0033096D02*
X000578D01*
X000508Y0032396D02*
Y0033796D01*
X0003924Y0045909D02*
X0006424D01*
X0005174Y0044659D02*
Y0047159D01*
X0004949Y0044309D02*
X0005349D01*
X0005149Y0044109D02*
Y0044509D01*
X0006088Y0044759D02*
X0006488D01*
X0006288Y0044559D02*
Y0044959D01*
X0006574Y0045883D02*
X0006974D01*
X0006774Y0045683D02*
Y0046083D01*
X0006124Y0047022D02*
X0006524D01*
X0006324Y0046822D02*
Y0047222D01*
X0005Y0047509D02*
X00054D01*
X00052Y0047309D02*
Y0047709D01*
X0003861Y0047058D02*
X0004261D01*
X0004061Y0046858D02*
Y0047258D01*
X0003374Y0045934D02*
X0003774D01*
X0003574Y0045734D02*
Y0046134D01*
X0003825Y0044795D02*
X0004225D01*
X0004025Y0044595D02*
Y0044995D01*
X0015223Y004986D02*
X0016323D01*
X0015773Y004931D02*
Y005041D01*
X0010143Y004986D02*
X0011243D01*
X0010693Y004931D02*
Y005041D01*
X0020286Y0045009D02*
X0021166D01*
X0020726Y0044569D02*
Y0045449D01*
X0035095Y0045009D02*
X0035975D01*
X0035535Y0044569D02*
Y0045449D01*
X0041128Y0053618D02*
X0042328D01*
X0041728Y0053018D02*
Y0054218D01*
X0038628Y0053618D02*
X0039828D01*
X0039228Y0053018D02*
Y0054218D01*
X0036128Y0053618D02*
X0037328D01*
X0036728Y0053018D02*
Y0054218D01*
X0033628Y0053618D02*
X0034828D01*
X0034228Y0053018D02*
Y0054218D01*
X0031128Y0053618D02*
X0032328D01*
X0031728Y0053018D02*
Y0054218D01*
X0031128Y0062128D02*
X0032328D01*
X0031728Y0061528D02*
Y0062728D01*
X0033628Y0062128D02*
X0034828D01*
X0034228Y0061528D02*
Y0062728D01*
X0036128Y0062128D02*
X0037328D01*
X0036728Y0061528D02*
Y0062728D01*
X0038628Y0062128D02*
X0039828D01*
X0039228Y0061528D02*
Y0062728D01*
X0031128Y0066628D02*
X0032328D01*
X0031728Y0066028D02*
Y0067228D01*
X0033628Y0066628D02*
X0034828D01*
X0034228Y0066028D02*
Y0067228D01*
X0036128Y0066628D02*
X0037328D01*
X0036728Y0066028D02*
Y0067228D01*
X0038628Y0066628D02*
X0039828D01*
X0039228Y0066028D02*
Y0067228D01*
X0041128Y0062128D02*
X0042328D01*
X0041728Y0061528D02*
Y0062728D01*
X0041128Y0066628D02*
X0042328D01*
X0041728Y0066028D02*
Y0067228D01*
X000369Y0054282D02*
X000454D01*
X0004115Y0053857D02*
Y0054707D01*
X000369Y0057782D02*
X000454D01*
X0004115Y0057357D02*
Y0058207D01*
X0037343Y0045009D02*
X0039843D01*
X0038593Y0043759D02*
Y0046259D01*
X0038368Y0043409D02*
X0038768D01*
X0038568Y0043209D02*
Y0043609D01*
X0039507Y0043859D02*
X0039907D01*
X0039707Y0043659D02*
Y0044059D01*
X0039994Y0044983D02*
X0040394D01*
X0040194Y0044783D02*
Y0045183D01*
X0039543Y0046122D02*
X0039943D01*
X0039743Y0045922D02*
Y0046322D01*
X0038419Y0046609D02*
X0038819D01*
X0038619Y0046409D02*
Y0046809D01*
X003728Y0046158D02*
X003768D01*
X003748Y0045958D02*
Y0046358D01*
X0036793Y0045034D02*
X0037193D01*
X0036993Y0044834D02*
Y0045234D01*
X0037244Y0043895D02*
X0037644D01*
X0037444Y0043695D02*
Y0044095D01*
X0037197Y0040716D02*
X0038597D01*
X0037897Y0040016D02*
Y0041416D01*
X0039737Y0033096D02*
X0041137D01*
X0040437Y0032396D02*
Y0033796D01*
X0032117Y0033096D02*
X0033517D01*
X0032817Y0032396D02*
Y0033796D01*
X0021957Y0040716D02*
X0023357D01*
X0022657Y0040016D02*
Y0041416D01*
X0021957Y0033096D02*
X0023357D01*
X0022657Y0032396D02*
Y0033796D01*
X000035Y0066294D02*
X000085D01*
X00006Y0066044D02*
Y0066544D01*
X0022532Y0019914D02*
X0022832D01*
X0022682Y0019764D02*
Y0020064D01*
X0024463Y0035701D02*
X0024763D01*
X0024613Y0035551D02*
Y0035851D01*
X0021516Y0006071D02*
X0021816D01*
X0021666Y0005921D02*
Y0006221D01*
X0024161Y0063703D02*
X0024861D01*
X0024511Y0063353D02*
Y0064053D01*
X0006276Y0006071D02*
X0006576D01*
X0006426Y0005921D02*
Y0006221D01*
X0018976Y0006071D02*
X0019276D01*
X0019126Y0005921D02*
Y0006221D01*
X0024056Y0006071D02*
X0024356D01*
X0024206Y0005921D02*
Y0006221D01*
X0031676Y0006071D02*
X0031976D01*
X0031826Y0005921D02*
Y0006221D01*
X0034216Y0006071D02*
X0034516D01*
X0034366Y0005921D02*
Y0006221D01*
X0036756Y0006071D02*
X0037056D01*
X0036906Y0005921D02*
Y0006221D01*
X0039296Y0006071D02*
X0039596D01*
X0039446Y0005921D02*
Y0006221D01*
X0041836Y0003071D02*
X0042136D01*
X0041986Y0002921D02*
Y0003221D01*
X0027072Y0064827D02*
X0027472D01*
X0027272Y0064627D02*
Y0065027D01*
X0016846Y0067926D02*
X0017546D01*
X0017196Y0067576D02*
Y0068276D01*
X0006967Y0067926D02*
X0007667D01*
X0007317Y0067576D02*
Y0068276D01*
X0024362Y004938D02*
X0024762D01*
X0024562Y004918D02*
Y004958D01*
X0021822Y0051742D02*
X0022222D01*
X0022022Y0051542D02*
Y0051942D01*
X0009962Y0063994D02*
X0010662D01*
X0010312Y0063644D02*
Y0064344D01*
X0021756Y0065202D02*
X0022456D01*
X0022106Y0064852D02*
Y0065552D01*
M02*
