G04*
G04 #@! TF.GenerationSoftware,Altium Limited,Altium Designer,23.0.1 (38)*
G04*
G04 Layer_Physical_Order=1*
G04 Layer_Color=255*
%FSTAX44Y44*%
%MOMM*%
G71*
G04*
G04 #@! TF.SameCoordinates,819F8F0F-2E7A-4D06-A50E-73C9B09E9D71*
G04*
G04*
G04 #@! TF.FilePolarity,Positive*
G04*
G01*
G75*
%ADD11C,0.2000*%
%ADD14R,1.6000X3.5000*%
%ADD15R,2.0320X1.1684*%
%ADD16R,2.0320X1.5240*%
%ADD17R,1.8000X1.0000*%
%ADD18R,1.0000X1.1000*%
%ADD19C,2.1000*%
%ADD20C,4.0000*%
%ADD21C,1.4000*%
%ADD22C,1.1500*%
%ADD23C,1.2000*%
%ADD24R,1.2000X1.2000*%
%ADD25C,0.7000*%
%ADD26C,1.6500*%
%ADD27C,1.3880*%
%ADD28R,1.8000X1.8000*%
%ADD29C,1.8000*%
%ADD30C,0.5000*%
%ADD31C,0.8000*%
%ADD32C,1.0000*%
%ADD33C,0.8000*%
D11*
X00191262Y00060706D02*
Y00075438D01*
X00216154Y0010033D02*
Y00301498D01*
X00191262Y00075438D02*
X00216154Y0010033D01*
X00246126Y0033147D02*
Y0035701D01*
X00216154Y00301498D02*
X00246126Y0033147D01*
X00245535Y00495554D02*
X00246888D01*
X00244701Y0049472D02*
X00245535Y00495554D01*
X00188468Y00493802D02*
X00245618D01*
X00188468Y00517424D02*
X00220218D01*
X00175304Y00522732D02*
X0018316D01*
X00172212Y00525824D02*
X00175304Y00522732D01*
X0018316D02*
X00188468Y00517424D01*
D14*
X00171958Y00679256D02*
D03*
Y00623256D02*
D03*
X00103124Y00679256D02*
D03*
Y00623256D02*
D03*
X00034544Y00679256D02*
D03*
Y00623256D02*
D03*
D15*
X00188468Y00566446D02*
D03*
Y00493802D02*
D03*
X00274828D02*
D03*
Y00566446D02*
D03*
D16*
X00188468Y00542824D02*
D03*
X00274828D02*
D03*
X00188468Y00517424D02*
D03*
D17*
X00419862Y00060706D02*
D03*
Y00030706D02*
D03*
X00394462Y00060706D02*
D03*
Y00030706D02*
D03*
X00369062D02*
D03*
Y00060706D02*
D03*
X00343662D02*
D03*
Y00030706D02*
D03*
X00318262Y00060706D02*
D03*
Y00030706D02*
D03*
X00292862Y00060706D02*
D03*
Y00030706D02*
D03*
X00267462Y00060706D02*
D03*
Y00030706D02*
D03*
X00242062Y00060706D02*
D03*
Y00030706D02*
D03*
X00216662Y00060706D02*
D03*
Y00030706D02*
D03*
X00191262Y00060706D02*
D03*
Y00030706D02*
D03*
X00165862Y00060706D02*
D03*
Y00030706D02*
D03*
X00140462Y00060706D02*
D03*
Y00030706D02*
D03*
X00115062Y00060706D02*
D03*
Y00030706D02*
D03*
X00089662Y00060706D02*
D03*
Y00030706D02*
D03*
X00064262Y00060706D02*
D03*
Y00030706D02*
D03*
D18*
X00172212Y00542824D02*
D03*
Y00525824D02*
D03*
D19*
X002032Y00407162D02*
D03*
Y00330962D02*
D03*
X001016Y00407162D02*
D03*
X000254D02*
D03*
X000508Y00330962D02*
D03*
X00226568D02*
D03*
Y00407162D02*
D03*
X00328168Y00330962D02*
D03*
X00404368D02*
D03*
X00378968Y00407162D02*
D03*
D20*
X00140726Y00121422D02*
D03*
X00300726Y00281422D02*
D03*
Y00121422D02*
D03*
X00140726Y00281422D02*
D03*
X00051742Y00459088D02*
D03*
X00385934Y00450088D02*
D03*
D21*
X0018736Y00441088D02*
D03*
X0011236Y00459088D02*
D03*
D22*
X00366992Y00492506D02*
D03*
X00316992D02*
D03*
D23*
X00122936Y0054285D02*
D03*
X00041148Y00542824D02*
D03*
X0024511Y00637032D02*
D03*
X00171958Y00679256D02*
D03*
X00073168D02*
D03*
X00103124Y0063994D02*
D03*
X00221062Y00652018D02*
D03*
D24*
X00122936Y0057785D02*
D03*
X00041148Y00577824D02*
D03*
D25*
X00040247Y00447953D02*
D03*
X0003574Y00459342D02*
D03*
X00040606Y00470583D02*
D03*
X00051996Y0047509D02*
D03*
X00063237Y00470224D02*
D03*
X00067744Y00458834D02*
D03*
X00062877Y00447593D02*
D03*
X00051488Y00443086D02*
D03*
X0037444Y00438953D02*
D03*
X00369932Y00450342D02*
D03*
X00374799Y00461582D02*
D03*
X00386188Y0046609D02*
D03*
X00397429Y00461223D02*
D03*
X00401936Y00449834D02*
D03*
X0039707Y00438593D02*
D03*
X0038568Y00434086D02*
D03*
X00272718Y0064827D02*
D03*
X00245618Y00493802D02*
D03*
X00220218Y00517424D02*
D03*
D26*
X00106934Y00498602D02*
D03*
X00157734D02*
D03*
D27*
X00355346Y00450088D02*
D03*
X00207264D02*
D03*
D28*
X00417284Y00666284D02*
D03*
Y00621284D02*
D03*
D29*
X00392284Y00666284D02*
D03*
X00367284D02*
D03*
X00342284D02*
D03*
X00317284D02*
D03*
X00392284Y00621284D02*
D03*
X00367284D02*
D03*
X00342284D02*
D03*
X00317284D02*
D03*
Y00536184D02*
D03*
X00342284D02*
D03*
X00367284D02*
D03*
X00392284D02*
D03*
X00417284D02*
D03*
D30*
X00226822Y00199136D02*
D03*
X00246126Y0035701D02*
D03*
X00216662Y00060706D02*
D03*
X00064262D02*
D03*
X00191262D02*
D03*
X00242062D02*
D03*
X00318262D02*
D03*
X00343662D02*
D03*
X00369062D02*
D03*
X00394462D02*
D03*
X00419862Y00030706D02*
D03*
D31*
X00006Y00023874D02*
Y00622808D01*
Y0066294D01*
X00226822Y00199136D02*
X00322326D01*
X00226568Y00198882D02*
X00226822Y00199136D01*
X00226568Y00090424D02*
Y00198882D01*
X00322326Y00199136D02*
X0032258Y00198882D01*
X00428752D01*
X0043596Y0020609D01*
Y00577754D01*
X00226568Y00090424D02*
X00242062Y0007493D01*
Y00060706D02*
Y0007493D01*
X00006Y00023874D02*
X0001928Y00010594D01*
X00415176D01*
X00419862Y0001528D01*
Y00030706D01*
X0034037Y00534271D02*
X00342284Y00536184D01*
X0034037Y00522021D02*
Y00534271D01*
X00333938Y00515588D02*
X0034037Y00522021D01*
X00281261Y00515588D02*
X00333938D01*
X00274828Y00509156D02*
X00281261Y00515588D01*
X00271018Y00603504D02*
X0041021D01*
X0043596Y00577754D01*
X00260096Y00614426D02*
X00271018Y00603504D01*
X00260096Y00614426D02*
Y00647332D01*
X00221062Y00652018D02*
X0025541D01*
X00260096Y00647332D01*
X00274828Y00493802D02*
Y00509156D01*
X00006448Y00623256D02*
X00034544D01*
X00006Y00622808D02*
X00006448Y00623256D01*
D32*
X00171958D02*
X00230793D01*
X00244569Y00637032D02*
X0024511D01*
X00230793Y00623256D02*
X00244569Y00637032D01*
X00171958Y00679256D02*
X0026156D01*
X00103124D02*
X00171958D01*
X00051742Y00459088D02*
Y00496242D01*
X00122962Y00542824D02*
X00172212D01*
X00122936Y0054285D02*
X00122962Y00542824D01*
X00272718Y0064827D02*
Y00668098D01*
X0026156Y00679256D02*
X00272718Y00668098D01*
X00073168Y00517668D02*
Y00679256D01*
X00051742Y00496242D02*
X00073168Y00517668D01*
X00034544Y00679256D02*
X00073168D01*
X00417284Y00648462D02*
Y00666284D01*
X00417092Y0064827D02*
X00417284Y00648462D01*
Y00621284D02*
Y00648462D01*
X00272718Y0064827D02*
X00417092D01*
X00073168Y00679256D02*
X00103124D01*
X00154178Y00652018D02*
X00221062D01*
X00188468Y00542824D02*
X00274828D01*
Y00566446D01*
X00188468Y00542824D02*
Y00566446D01*
X00172212Y00542824D02*
X00188468D01*
X00103124Y00623256D02*
Y0063994D01*
Y00623256D02*
X00125416D01*
X00154178Y00652018D01*
D33*
X00006Y0066294D02*
D03*
M02*
