G04*
G04 #@! TF.GenerationSoftware,Altium Limited,Altium Designer,23.0.1 (38)*
G04*
G04 Layer_Color=2752767*
%FSTAX44Y44*%
%MOMM*%
G71*
G04*
G04 #@! TF.SameCoordinates,819F8F0F-2E7A-4D06-A50E-73C9B09E9D71*
G04*
G04*
G04 #@! TF.FilePolarity,Positive*
G04*
G01*
G75*
%ADD12C,0.1270*%
%ADD63C,0.1693*%
%ADD64C,0.1016*%
D12*
X00135646Y00121422D02*
X00140726Y00126502D01*
X00145806Y00121422D01*
X00140726Y00116342D01*
X00135646Y00121422D01*
X00295646Y00281422D02*
X00300726Y00286502D01*
X00305806Y00281422D01*
X00300726Y00276342D01*
X00295646Y00281422D01*
Y00121422D02*
X00300726Y00126502D01*
X00305806Y00121422D01*
X00300726Y00116342D01*
X00295646Y00121422D01*
X00135646Y00281422D02*
X00140726Y00286502D01*
X00145806Y00281422D01*
X00140726Y00276342D01*
X00135646Y00281422D01*
X0018482Y00438548D02*
Y00436008D01*
X001899D01*
Y00438548D01*
X0019244D01*
Y00443628D01*
X001899D01*
Y00446168D01*
X0018482D01*
Y00443628D01*
X0018228D01*
Y00438548D01*
X0018482D01*
X0010982Y00456548D02*
Y00454008D01*
X001149D01*
Y00456548D01*
X0011744D01*
Y00461628D01*
X001149D01*
Y00464168D01*
X0010982D01*
Y00461628D01*
X0010728D01*
Y00456548D01*
X0010982D01*
X00117856Y0053777D02*
X00120396Y0054285D01*
X00117856Y0054793D01*
X00122936Y0054539D01*
X00128016Y0054793D01*
X00125476Y0054285D01*
X00128016Y0053777D01*
X00122936Y0054031D01*
X00117856Y0053777D01*
Y0057277D02*
X00120396Y0057785D01*
X00117856Y0058293D01*
X00122936Y0058039D01*
X00128016Y0058293D01*
X00125476Y0057785D01*
X00128016Y0057277D01*
X00122936Y0057531D01*
X00117856Y0057277D01*
X00035167Y00442873D02*
Y00453033D01*
X00045327D01*
Y00442873D01*
X00035167D01*
X00037199Y00444905D02*
Y00451001D01*
X00043295D01*
Y00444905D01*
X00037199D01*
X0003066Y00454262D02*
Y00464422D01*
X0004082D01*
Y00454262D01*
X0003066D01*
X00032692Y00456294D02*
Y0046239D01*
X00038788D01*
Y00456294D01*
X00032692D01*
X00035526Y00465503D02*
Y00475663D01*
X00045686D01*
Y00465503D01*
X00035526D01*
X00037558Y00467535D02*
Y00473631D01*
X00043654D01*
Y00467535D01*
X00037558D01*
X00046916Y0047001D02*
Y0048017D01*
X00057076D01*
Y0047001D01*
X00046916D01*
X00048948Y00472042D02*
Y00478138D01*
X00055044D01*
Y00472042D01*
X00048948D01*
X00058157Y00465144D02*
Y00475304D01*
X00068317D01*
Y00465144D01*
X00058157D01*
X00060189Y00467176D02*
Y00473272D01*
X00066285D01*
Y00467176D01*
X00060189D01*
X00062664Y00453754D02*
Y00463914D01*
X00072824D01*
Y00453754D01*
X00062664D01*
X00064696Y00455786D02*
Y00461882D01*
X00070792D01*
Y00455786D01*
X00064696D01*
X00057797Y00442514D02*
Y00452673D01*
X00067957D01*
Y00442514D01*
X00057797D01*
X00059829Y00444546D02*
Y00450642D01*
X00065925D01*
Y00444546D01*
X00059829D01*
X00046408Y00438006D02*
Y00448166D01*
X00056568D01*
Y00438006D01*
X00046408D01*
X0004844Y00440038D02*
Y00446134D01*
X00054536D01*
Y00440038D01*
X0004844D01*
X00046662Y00459088D02*
X00051742Y00464168D01*
X00056822Y00459088D01*
X00051742Y00454008D01*
X00046662Y00459088D01*
X00106934Y00493522D02*
X00101854Y00503682D01*
X00112014D01*
X00106934Y00493522D01*
X00157734D02*
X00152654Y00503682D01*
X00162814D01*
X00157734Y00493522D01*
X00350266Y00445008D02*
X00352806D01*
X00355346Y00447548D01*
X00357886Y00445008D01*
X00360426D01*
Y00447548D01*
X00357886Y00450088D01*
X00360426Y00452628D01*
Y00455168D01*
X00357886D01*
X00355346Y00452628D01*
X00352806Y00455168D01*
X00350266D01*
Y00452628D01*
X00352806Y00450088D01*
X00350266Y00447548D01*
Y00445008D01*
X00202184D02*
X00204724D01*
X00207264Y00447548D01*
X00209804Y00445008D01*
X00212344D01*
Y00447548D01*
X00209804Y00450088D01*
X00212344Y00452628D01*
Y00455168D01*
X00209804D01*
X00207264Y00452628D01*
X00204724Y00455168D01*
X00202184D01*
Y00452628D01*
X00204724Y00450088D01*
X00202184Y00447548D01*
Y00445008D01*
X00417284Y00661204D02*
X00419824Y00663744D01*
X00422364D01*
X00419824Y00666284D01*
X00422364Y00668824D01*
X00419824D01*
X00417284Y00671364D01*
X00414744Y00668824D01*
X00412204D01*
X00414744Y00666284D01*
X00412204Y00663744D01*
X00414744D01*
X00417284Y00661204D01*
Y00616204D02*
X00419824Y00618744D01*
X00422364D01*
X00419824Y00621284D01*
X00422364Y00623824D01*
X00419824D01*
X00417284Y00626364D01*
X00414744Y00623824D01*
X00412204D01*
X00414744Y00621284D01*
X00412204Y00618744D01*
X00414744D01*
X00417284Y00616204D01*
X00392284Y00661204D02*
X00394824Y00663744D01*
X00397364D01*
X00394824Y00666284D01*
X00397364Y00668824D01*
X00394824D01*
X00392284Y00671364D01*
X00389744Y00668824D01*
X00387204D01*
X00389744Y00666284D01*
X00387204Y00663744D01*
X00389744D01*
X00392284Y00661204D01*
X00367284D02*
X00369824Y00663744D01*
X00372364D01*
X00369824Y00666284D01*
X00372364Y00668824D01*
X00369824D01*
X00367284Y00671364D01*
X00364744Y00668824D01*
X00362204D01*
X00364744Y00666284D01*
X00362204Y00663744D01*
X00364744D01*
X00367284Y00661204D01*
X00342284D02*
X00344824Y00663744D01*
X00347364D01*
X00344824Y00666284D01*
X00347364Y00668824D01*
X00344824D01*
X00342284Y00671364D01*
X00339744Y00668824D01*
X00337204D01*
X00339744Y00666284D01*
X00337204Y00663744D01*
X00339744D01*
X00342284Y00661204D01*
X00317284D02*
X00319824Y00663744D01*
X00322364D01*
X00319824Y00666284D01*
X00322364Y00668824D01*
X00319824D01*
X00317284Y00671364D01*
X00314744Y00668824D01*
X00312204D01*
X00314744Y00666284D01*
X00312204Y00663744D01*
X00314744D01*
X00317284Y00661204D01*
X00392284Y00616204D02*
X00394824Y00618744D01*
X00397364D01*
X00394824Y00621284D01*
X00397364Y00623824D01*
X00394824D01*
X00392284Y00626364D01*
X00389744Y00623824D01*
X00387204D01*
X00389744Y00621284D01*
X00387204Y00618744D01*
X00389744D01*
X00392284Y00616204D01*
X00367284D02*
X00369824Y00618744D01*
X00372364D01*
X00369824Y00621284D01*
X00372364Y00623824D01*
X00369824D01*
X00367284Y00626364D01*
X00364744Y00623824D01*
X00362204D01*
X00364744Y00621284D01*
X00362204Y00618744D01*
X00364744D01*
X00367284Y00616204D01*
X00342284D02*
X00344824Y00618744D01*
X00347364D01*
X00344824Y00621284D01*
X00347364Y00623824D01*
X00344824D01*
X00342284Y00626364D01*
X00339744Y00623824D01*
X00337204D01*
X00339744Y00621284D01*
X00337204Y00618744D01*
X00339744D01*
X00342284Y00616204D01*
X00317284D02*
X00319824Y00618744D01*
X00322364D01*
X00319824Y00621284D01*
X00322364Y00623824D01*
X00319824D01*
X00317284Y00626364D01*
X00314744Y00623824D01*
X00312204D01*
X00314744Y00621284D01*
X00312204Y00618744D01*
X00314744D01*
X00317284Y00616204D01*
Y00531104D02*
X00319824Y00533644D01*
X00322364D01*
X00319824Y00536184D01*
X00322364Y00538724D01*
X00319824D01*
X00317284Y00541264D01*
X00314744Y00538724D01*
X00312204D01*
X00314744Y00536184D01*
X00312204Y00533644D01*
X00314744D01*
X00317284Y00531104D01*
X00342284D02*
X00344824Y00533644D01*
X00347364D01*
X00344824Y00536184D01*
X00347364Y00538724D01*
X00344824D01*
X00342284Y00541264D01*
X00339744Y00538724D01*
X00337204D01*
X00339744Y00536184D01*
X00337204Y00533644D01*
X00339744D01*
X00342284Y00531104D01*
X00367284D02*
X00369824Y00533644D01*
X00372364D01*
X00369824Y00536184D01*
X00372364Y00538724D01*
X00369824D01*
X00367284Y00541264D01*
X00364744Y00538724D01*
X00362204D01*
X00364744Y00536184D01*
X00362204Y00533644D01*
X00364744D01*
X00367284Y00531104D01*
X00392284D02*
X00394824Y00533644D01*
X00397364D01*
X00394824Y00536184D01*
X00397364Y00538724D01*
X00394824D01*
X00392284Y00541264D01*
X00389744Y00538724D01*
X00387204D01*
X00389744Y00536184D01*
X00387204Y00533644D01*
X00389744D01*
X00392284Y00531104D01*
X00417284D02*
X00419824Y00533644D01*
X00422364D01*
X00419824Y00536184D01*
X00422364Y00538724D01*
X00419824D01*
X00417284Y00541264D01*
X00414744Y00538724D01*
X00412204D01*
X00414744Y00536184D01*
X00412204Y00533644D01*
X00414744D01*
X00417284Y00531104D01*
X00036068Y00572744D02*
X00038608Y00577824D01*
X00036068Y00582904D01*
X00041148Y00580364D01*
X00046228Y00582904D01*
X00043688Y00577824D01*
X00046228Y00572744D01*
X00041148Y00575284D01*
X00036068Y00572744D01*
Y00537744D02*
X00038608Y00542824D01*
X00036068Y00547904D01*
X00041148Y00545364D01*
X00046228Y00547904D01*
X00043688Y00542824D01*
X00046228Y00537744D01*
X00041148Y00540284D01*
X00036068Y00537744D01*
X0036936Y00433873D02*
Y00444033D01*
X0037952D01*
Y00433873D01*
X0036936D01*
X00371392Y00435905D02*
Y00442001D01*
X00377488D01*
Y00435905D01*
X00371392D01*
X00364852Y00445262D02*
Y00455422D01*
X00375012D01*
Y00445262D01*
X00364852D01*
X00366884Y00447294D02*
Y0045339D01*
X0037298D01*
Y00447294D01*
X00366884D01*
X00369719Y00456502D02*
Y00466662D01*
X00379879D01*
Y00456502D01*
X00369719D01*
X00371751Y00458535D02*
Y00464631D01*
X00377847D01*
Y00458535D01*
X00371751D01*
X00381108Y0046101D02*
Y0047117D01*
X00391268D01*
Y0046101D01*
X00381108D01*
X0038314Y00463042D02*
Y00469138D01*
X00389236D01*
Y00463042D01*
X0038314D01*
X00392349Y00456143D02*
Y00466303D01*
X00402509D01*
Y00456143D01*
X00392349D01*
X00394381Y00458175D02*
Y00464271D01*
X00400477D01*
Y00458175D01*
X00394381D01*
X00396856Y00444754D02*
Y00454914D01*
X00407016D01*
Y00444754D01*
X00396856D01*
X00398888Y00446786D02*
Y00452882D01*
X00404984D01*
Y00446786D01*
X00398888D01*
X0039199Y00433513D02*
Y00443674D01*
X0040215D01*
Y00433513D01*
X0039199D01*
X00394022Y00435546D02*
Y00441642D01*
X00400118D01*
Y00435546D01*
X00394022D01*
X003806Y00429006D02*
Y00439166D01*
X0039076D01*
Y00429006D01*
X003806D01*
X00382632Y00431038D02*
Y00437134D01*
X00388728D01*
Y00431038D01*
X00382632D01*
X00380854Y00450088D02*
X00385934Y00455168D01*
X00391014Y00450088D01*
X00385934Y00445008D01*
X00380854Y00450088D01*
X0000092Y0065786D02*
X0000346Y0066294D01*
X0000092Y0066802D01*
X00006Y0066548D01*
X0001108Y0066802D01*
X0000854Y0066294D01*
X0001108Y0065786D01*
X00006Y006604D01*
X0000092Y0065786D01*
X00002952Y00659892D02*
X00004476Y0066294D01*
X00002952Y00665988D01*
X00006Y00664464D01*
X00009048Y00665988D01*
X00007524Y0066294D01*
X00009048Y00659892D01*
X00006Y00661416D01*
X00002952Y00659892D01*
X00221742Y00194056D02*
Y00204216D01*
X00231902D01*
Y00194056D01*
X00221742D01*
X00241046Y0035193D02*
Y0036209D01*
X00251206D01*
Y0035193D01*
X00241046D01*
X00211582Y00055626D02*
Y00065786D01*
X00221742D01*
Y00055626D01*
X00211582D01*
X0024511Y00631952D02*
X0024765Y00634492D01*
X0025019D01*
X0024765Y00637032D01*
X0025019Y00639572D01*
X0024765D01*
X0024511Y00642112D01*
X0024257Y00639572D01*
X0024003D01*
X0024257Y00637032D01*
X0024003Y00634492D01*
X0024257D01*
X0024511Y00631952D01*
Y00633984D02*
X00246634Y00635508D01*
X00248158D01*
X00246634Y00637032D01*
X00248158Y00638556D01*
X00246634D01*
X0024511Y0064008D01*
X00243586Y00638556D01*
X00242062D01*
X00243586Y00637032D01*
X00242062Y00635508D01*
X00243586D01*
X0024511Y00633984D01*
X00059182Y00055626D02*
Y00065786D01*
X00069342D01*
Y00055626D01*
X00059182D01*
X00186182D02*
Y00065786D01*
X00196342D01*
Y00055626D01*
X00186182D01*
X00236982D02*
Y00065786D01*
X00247142D01*
Y00055626D01*
X00236982D01*
X00313182D02*
Y00065786D01*
X00323342D01*
Y00055626D01*
X00313182D01*
X00338582D02*
Y00065786D01*
X00348742D01*
Y00055626D01*
X00338582D01*
X00363982D02*
Y00065786D01*
X00374142D01*
Y00055626D01*
X00363982D01*
X00389382D02*
Y00065786D01*
X00399542D01*
Y00055626D01*
X00389382D01*
X00414782Y00025626D02*
Y00035786D01*
X00424942D01*
Y00025626D01*
X00414782D01*
X00267638Y0064319D02*
Y0065335D01*
X00277798D01*
Y0064319D01*
X00267638D01*
X0026967Y00645222D02*
Y00651318D01*
X00275766D01*
Y00645222D01*
X0026967D01*
X00171958Y00674176D02*
X00174498Y00676716D01*
X00177038D01*
X00174498Y00679256D01*
X00177038Y00681796D01*
X00174498D01*
X00171958Y00684336D01*
X00169418Y00681796D01*
X00166878D01*
X00169418Y00679256D01*
X00166878Y00676716D01*
X00169418D01*
X00171958Y00674176D01*
Y00676208D02*
X00173482Y00677732D01*
X00175006D01*
X00173482Y00679256D01*
X00175006Y0068078D01*
X00173482D01*
X00171958Y00682304D01*
X00170434Y0068078D01*
X0016891D01*
X00170434Y00679256D01*
X0016891Y00677732D01*
X00170434D01*
X00171958Y00676208D01*
X00073168Y00674176D02*
X00075708Y00676716D01*
X00078248D01*
X00075708Y00679256D01*
X00078248Y00681796D01*
X00075708D01*
X00073168Y00684336D01*
X00070628Y00681796D01*
X00068088D01*
X00070628Y00679256D01*
X00068088Y00676716D01*
X00070628D01*
X00073168Y00674176D01*
Y00676208D02*
X00074692Y00677732D01*
X00076216D01*
X00074692Y00679256D01*
X00076216Y0068078D01*
X00074692D01*
X00073168Y00682304D01*
X00071644Y0068078D01*
X0007012D01*
X00071644Y00679256D01*
X0007012Y00677732D01*
X00071644D01*
X00073168Y00676208D01*
X00240538Y00488722D02*
Y00498882D01*
X00250698D01*
Y00488722D01*
X00240538D01*
X0024257Y00490754D02*
Y0049685D01*
X00248666D01*
Y00490754D01*
X0024257D01*
X00215138Y00512344D02*
Y00522504D01*
X00225298D01*
Y00512344D01*
X00215138D01*
X0021717Y00514376D02*
Y00520472D01*
X00223266D01*
Y00514376D01*
X0021717D01*
X00103124Y0063486D02*
X00105664Y006374D01*
X00108204D01*
X00105664Y0063994D01*
X00108204Y0064248D01*
X00105664D01*
X00103124Y0064502D01*
X00100584Y0064248D01*
X00098044D01*
X00100584Y0063994D01*
X00098044Y006374D01*
X00100584D01*
X00103124Y0063486D01*
Y00636892D02*
X00104648Y00638416D01*
X00106172D01*
X00104648Y0063994D01*
X00106172Y00641464D01*
X00104648D01*
X00103124Y00642988D01*
X001016Y00641464D01*
X00100076D01*
X001016Y0063994D01*
X00100076Y00638416D01*
X001016D01*
X00103124Y00636892D01*
X00221062Y00646938D02*
X00223602Y00649478D01*
X00226142D01*
X00223602Y00652018D01*
X00226142Y00654558D01*
X00223602D01*
X00221062Y00657098D01*
X00218522Y00654558D01*
X00215982D01*
X00218522Y00652018D01*
X00215982Y00649478D01*
X00218522D01*
X00221062Y00646938D01*
Y0064897D02*
X00222586Y00650494D01*
X0022411D01*
X00222586Y00652018D01*
X0022411Y00653542D01*
X00222586D01*
X00221062Y00655066D01*
X00219538Y00653542D01*
X00218014D01*
X00219538Y00652018D01*
X00218014Y00650494D01*
X00219538D01*
X00221062Y0064897D01*
D63*
X0020828Y00407162D02*
G03*
X0020828Y00407162I-0000508J0D01*
G01*
Y00330962D02*
G03*
X0020828Y00330962I-0000508J0D01*
G01*
X0010668Y00407162D02*
G03*
X0010668Y00407162I-0000508J0D01*
G01*
X0003048D02*
G03*
X0003048Y00407162I-0000508J0D01*
G01*
X0005588Y00330962D02*
G03*
X0005588Y00330962I-0000508J0D01*
G01*
X00372072Y00492506D02*
G03*
X00372072Y00492506I-0000508J0D01*
G01*
X00322072D02*
G03*
X00322072Y00492506I-0000508J0D01*
G01*
X00231648Y00330962D02*
G03*
X00231648Y00330962I-0000508J0D01*
G01*
Y00407162D02*
G03*
X00231648Y00407162I-0000508J0D01*
G01*
X00333248Y00330962D02*
G03*
X00333248Y00330962I-0000508J0D01*
G01*
X00409448D02*
G03*
X00409448Y00330962I-0000508J0D01*
G01*
X00384048Y00407162D02*
G03*
X00384048Y00407162I-0000508J0D01*
G01*
D64*
X00206248D02*
G03*
X00206248Y00407162I-00003048J0D01*
G01*
Y00330962D02*
G03*
X00206248Y00330962I-00003048J0D01*
G01*
X00104648Y00407162D02*
G03*
X00104648Y00407162I-00003048J0D01*
G01*
X00028448D02*
G03*
X00028448Y00407162I-00003048J0D01*
G01*
X00053848Y00330962D02*
G03*
X00053848Y00330962I-00003048J0D01*
G01*
X00229616D02*
G03*
X00229616Y00330962I-00003048J0D01*
G01*
Y00407162D02*
G03*
X00229616Y00407162I-00003048J0D01*
G01*
X00331216Y00330962D02*
G03*
X00331216Y00330962I-00003048J0D01*
G01*
X00407416D02*
G03*
X00407416Y00330962I-00003048J0D01*
G01*
X00382016Y00407162D02*
G03*
X00382016Y00407162I-00003048J0D01*
G01*
M02*
