G04*
G04 #@! TF.GenerationSoftware,Altium Limited,Altium Designer,23.0.1 (38)*
G04*
G04 Layer_Color=8388736*
%FSTAX43Y43*%
%MOMM*%
G71*
G04*
G04 #@! TF.SameCoordinates,251AB1EA-40F0-4E74-92E7-BAF76BE2301E*
G04*
G04*
G04 #@! TF.FilePolarity,Negative*
G04*
G01*
G75*
%ADD14R,1.600X3.500*%
%ADD15R,2.032X1.524*%
%ADD16R,2.032X1.168*%
%ADD17R,1.800X1.000*%
%ADD18R,1.000X1.100*%
%ADD19C,1.400*%
%ADD20C,1.150*%
%ADD21R,1.200X1.200*%
%ADD22C,1.200*%
%ADD23C,4.000*%
%ADD24C,2.100*%
%ADD25C,0.700*%
%ADD26C,1.650*%
%ADD27C,1.388*%
%ADD28C,1.800*%
%ADD29R,1.800X1.800*%
%ADD30C,0.500*%
D14*
X0017196Y0062326D02*
D03*
Y0067926D02*
D03*
X0010312Y0062326D02*
D03*
Y0067926D02*
D03*
X0003454Y0062326D02*
D03*
Y0067926D02*
D03*
D15*
X0018847Y0051742D02*
D03*
X0027483Y0054282D02*
D03*
X0018847D02*
D03*
D16*
X0027483Y0056645D02*
D03*
Y004938D02*
D03*
X0018847D02*
D03*
Y0056645D02*
D03*
D17*
X0006426Y0003071D02*
D03*
Y0006071D02*
D03*
X0008966Y0003071D02*
D03*
Y0006071D02*
D03*
X0011506Y0003071D02*
D03*
Y0006071D02*
D03*
X0014046Y0003071D02*
D03*
Y0006071D02*
D03*
X0016586Y0003071D02*
D03*
Y0006071D02*
D03*
X0019126Y0003071D02*
D03*
Y0006071D02*
D03*
X0021666Y0003071D02*
D03*
Y0006071D02*
D03*
X0024206Y0003071D02*
D03*
Y0006071D02*
D03*
X0026746Y0003071D02*
D03*
Y0006071D02*
D03*
X0029286Y0003071D02*
D03*
Y0006071D02*
D03*
X0031826Y0003071D02*
D03*
Y0006071D02*
D03*
X0034366Y0003071D02*
D03*
Y0006071D02*
D03*
X0036906D02*
D03*
Y0003071D02*
D03*
X0039446D02*
D03*
Y0006071D02*
D03*
X0041986Y0003071D02*
D03*
Y0006071D02*
D03*
D18*
X0017221Y0052582D02*
D03*
Y0054282D02*
D03*
D19*
X0011236Y0045909D02*
D03*
X0018736Y0044109D02*
D03*
D20*
X0031699Y0049251D02*
D03*
X0036699D02*
D03*
D21*
X0012294Y0057785D02*
D03*
X0004115Y0057782D02*
D03*
D22*
X0012294Y0054285D02*
D03*
X0004115Y0054282D02*
D03*
D23*
X0014073Y0012142D02*
D03*
X0030073Y0028142D02*
D03*
Y0012142D02*
D03*
X0014073Y0028142D02*
D03*
X0005174Y0045909D02*
D03*
X0038593Y0045009D02*
D03*
D24*
X002032Y0040716D02*
D03*
Y0033096D02*
D03*
X001016Y0040716D02*
D03*
X000254D02*
D03*
X000508Y0033096D02*
D03*
X0037897Y0040716D02*
D03*
X0040437Y0033096D02*
D03*
X0032817D02*
D03*
X0022657Y0040716D02*
D03*
Y0033096D02*
D03*
D25*
X0005149Y0044309D02*
D03*
X0006288Y0044759D02*
D03*
X0006774Y0045883D02*
D03*
X0006324Y0047022D02*
D03*
X00052Y0047509D02*
D03*
X0004061Y0047058D02*
D03*
X0003574Y0045934D02*
D03*
X0004025Y0044795D02*
D03*
X0038568Y0043409D02*
D03*
X0039707Y0043859D02*
D03*
X0040194Y0044983D02*
D03*
X0039743Y0046122D02*
D03*
X0038619Y0046609D02*
D03*
X003748Y0046158D02*
D03*
X0036993Y0045034D02*
D03*
X0037444Y0043895D02*
D03*
D26*
X0015773Y004986D02*
D03*
X0010693D02*
D03*
D27*
X0020726Y0045009D02*
D03*
X0035535D02*
D03*
D28*
X0041728Y0053618D02*
D03*
X0039228D02*
D03*
X0036728D02*
D03*
X0034228D02*
D03*
X0031728D02*
D03*
Y0062128D02*
D03*
X0034228D02*
D03*
X0036728D02*
D03*
X0039228D02*
D03*
X0031728Y0066628D02*
D03*
X0034228D02*
D03*
X0036728D02*
D03*
X0039228D02*
D03*
D29*
X0041728Y0062128D02*
D03*
Y0066628D02*
D03*
D30*
X0021666Y0006071D02*
D03*
M02*
