M48
;Layer_Color=9474304
;FILE_FORMAT=4:3
METRIC,LZ
;TYPE=PLATED
T1F00S00C0.300
T2F00S00C0.400
T3F00S00C0.500
T4F00S00C0.700
T5F00S00C0.800
T6F00S00C0.850
T7F00S00C0.880
T8F00S00C1.050
T9F00S00C1.100
T10F00S00C1.200
T11F00S00C1.400
T12F00S00C2.500
%
T01
X0021107Y0023241
X0033807
X0036347
X0038887
X0037363Y0037084
X0046507Y0023241
X0049047
X0051587
X0054127
X0056667Y0020241
X0039294Y0052871
T02
X0052125Y0061066
X0051674Y0062205
X0052161Y0063329
X00533Y0063779
X0054424Y0063293
X0054875Y0062154
X0054388Y006103
X0053249Y0060579
X0039243Y0066551
X0036703Y0068913
X0021005Y0064193
X0021456Y0063054
X0020969Y006193
X001983Y0061479
X0018706Y0061966
X0018255Y0063105
X0018742Y0064229
X0019881Y0064679
X0041953Y0081997
T03
X0015281Y0083464
T04
X0024994Y0081164
X0021998Y0085096
X0031877
X0036787Y0082372
X0039192Y0080874
T05
X004638Y0066421
X005138
T06
X0018796Y0071453
Y0074953
X0026975Y0074955
Y0071455
T07
X0050216Y0062179
X0035408
T08
X0025917Y0063079
X0033417Y0061279
T09
X0025375Y0067031
X0030455
T10
X004641Y0070789
X004891
X005141
X005391
X005641
Y0079299
X005391
X005141
X004891
X004641
Y0083799
X004891
X005141
X005391
X005641
T11
X0047498Y0050267
X0055118
X0052578Y0057887
X0037338
X0035001
Y0050267
X0037338
X0019761
X0017221Y0057887
X0024841
T12
X0028754Y0029313
X0044754
Y0045313
X0053275Y0062179
X0019855Y0063079
X0028754Y0045313
M30
