G04*
G04 #@! TF.GenerationSoftware,Altium Limited,Altium Designer,23.0.1 (38)*
G04*
G04 Layer_Color=8388736*
%FSTAX44Y44*%
%MOMM*%
G71*
G04*
G04 #@! TF.SameCoordinates,819F8F0F-2E7A-4D06-A50E-73C9B09E9D71*
G04*
G04*
G04 #@! TF.FilePolarity,Negative*
G04*
G01*
G75*
%ADD14R,1.6000X3.5000*%
%ADD15R,2.0320X1.1684*%
%ADD16R,2.0320X1.5240*%
%ADD17R,1.8000X1.0000*%
%ADD18R,1.0000X1.1000*%
%ADD19C,2.1000*%
%ADD20C,4.0000*%
%ADD21C,1.4000*%
%ADD22C,1.1500*%
%ADD23C,1.2000*%
%ADD24R,1.2000X1.2000*%
%ADD25C,0.7000*%
%ADD26C,1.6500*%
%ADD27C,1.3880*%
%ADD28R,1.8000X1.8000*%
%ADD29C,1.8000*%
%ADD30C,0.5000*%
D14*
X00171958Y00679256D02*
D03*
Y00623256D02*
D03*
X00103124Y00679256D02*
D03*
Y00623256D02*
D03*
X00034544Y00679256D02*
D03*
Y00623256D02*
D03*
D15*
X00188468Y00566446D02*
D03*
Y00493802D02*
D03*
X00274828D02*
D03*
Y00566446D02*
D03*
D16*
X00188468Y00542824D02*
D03*
X00274828D02*
D03*
X00188468Y00517424D02*
D03*
D17*
X00419862Y00060706D02*
D03*
Y00030706D02*
D03*
X00394462Y00060706D02*
D03*
Y00030706D02*
D03*
X00369062D02*
D03*
Y00060706D02*
D03*
X00343662D02*
D03*
Y00030706D02*
D03*
X00318262Y00060706D02*
D03*
Y00030706D02*
D03*
X00292862Y00060706D02*
D03*
Y00030706D02*
D03*
X00267462Y00060706D02*
D03*
Y00030706D02*
D03*
X00242062Y00060706D02*
D03*
Y00030706D02*
D03*
X00216662Y00060706D02*
D03*
Y00030706D02*
D03*
X00191262Y00060706D02*
D03*
Y00030706D02*
D03*
X00165862Y00060706D02*
D03*
Y00030706D02*
D03*
X00140462Y00060706D02*
D03*
Y00030706D02*
D03*
X00115062Y00060706D02*
D03*
Y00030706D02*
D03*
X00089662Y00060706D02*
D03*
Y00030706D02*
D03*
X00064262Y00060706D02*
D03*
Y00030706D02*
D03*
D18*
X00172212Y00542824D02*
D03*
Y00525824D02*
D03*
D19*
X002032Y00407162D02*
D03*
Y00330962D02*
D03*
X001016Y00407162D02*
D03*
X000254D02*
D03*
X000508Y00330962D02*
D03*
X00226568D02*
D03*
Y00407162D02*
D03*
X00328168Y00330962D02*
D03*
X00404368D02*
D03*
X00378968Y00407162D02*
D03*
D20*
X00140726Y00121422D02*
D03*
X00300726Y00281422D02*
D03*
Y00121422D02*
D03*
X00140726Y00281422D02*
D03*
X00051742Y00459088D02*
D03*
X00385934Y00450088D02*
D03*
D21*
X0018736Y00441088D02*
D03*
X0011236Y00459088D02*
D03*
D22*
X00366992Y00492506D02*
D03*
X00316992D02*
D03*
D23*
X00122936Y0054285D02*
D03*
X00041148Y00542824D02*
D03*
D24*
X00122936Y0057785D02*
D03*
X00041148Y00577824D02*
D03*
D25*
X00040247Y00447953D02*
D03*
X0003574Y00459342D02*
D03*
X00040606Y00470583D02*
D03*
X00051996Y0047509D02*
D03*
X00063237Y00470224D02*
D03*
X00067744Y00458834D02*
D03*
X00062877Y00447593D02*
D03*
X00051488Y00443086D02*
D03*
X0037444Y00438953D02*
D03*
X00369932Y00450342D02*
D03*
X00374799Y00461582D02*
D03*
X00386188Y0046609D02*
D03*
X00397429Y00461223D02*
D03*
X00401936Y00449834D02*
D03*
X0039707Y00438593D02*
D03*
X0038568Y00434086D02*
D03*
D26*
X00106934Y00498602D02*
D03*
X00157734D02*
D03*
D27*
X00355346Y00450088D02*
D03*
X00207264D02*
D03*
D28*
X00417284Y00666284D02*
D03*
Y00621284D02*
D03*
D29*
X00392284Y00666284D02*
D03*
X00367284D02*
D03*
X00342284D02*
D03*
X00317284D02*
D03*
X00392284Y00621284D02*
D03*
X00367284D02*
D03*
X00342284D02*
D03*
X00317284D02*
D03*
Y00536184D02*
D03*
X00342284D02*
D03*
X00367284D02*
D03*
X00392284D02*
D03*
X00417284D02*
D03*
D30*
X00216662Y00060706D02*
D03*
M02*
