G04*
G04 #@! TF.GenerationSoftware,Altium Limited,Altium Designer,23.0.1 (38)*
G04*
G04 Layer_Color=2752767*
%FSTAX43Y43*%
%MOMM*%
G71*
G04*
G04 #@! TF.SameCoordinates,251AB1EA-40F0-4E74-92E7-BAF76BE2301E*
G04*
G04*
G04 #@! TF.FilePolarity,Positive*
G04*
G01*
G75*
%ADD12C,0.127*%
%ADD63C,0.169*%
%ADD64C,0.102*%
D12*
X0010982Y0045655D02*
Y0045401D01*
X001149D01*
Y0045655D01*
X0011744D01*
Y0046163D01*
X001149D01*
Y0046417D01*
X0010982D01*
Y0046163D01*
X0010728D01*
Y0045655D01*
X0010982D01*
X0018482Y0043855D02*
Y0043601D01*
X001899D01*
Y0043855D01*
X0019244D01*
Y0044363D01*
X001899D01*
Y0044617D01*
X0018482D01*
Y0044363D01*
X0018228D01*
Y0043855D01*
X0018482D01*
X0011786Y0057277D02*
X001204Y0057785D01*
X0011786Y0058293D01*
X0012294Y0058039D01*
X0012802Y0058293D01*
X0012548Y0057785D01*
X0012802Y0057277D01*
X0012294Y0057531D01*
X0011786Y0057277D01*
Y0053777D02*
X001204Y0054285D01*
X0011786Y0054793D01*
X0012294Y0054539D01*
X0012802Y0054793D01*
X0012548Y0054285D01*
X0012802Y0053777D01*
X0012294Y0054031D01*
X0011786Y0053777D01*
X0013565Y0012142D02*
X0014073Y001265D01*
X0014581Y0012142D01*
X0014073Y0011634D01*
X0013565Y0012142D01*
X0029565Y0028142D02*
X0030073Y002865D01*
X0030581Y0028142D01*
X0030073Y0027634D01*
X0029565Y0028142D01*
Y0012142D02*
X0030073Y001265D01*
X0030581Y0012142D01*
X0030073Y0011634D01*
X0029565Y0012142D01*
X0013565Y0028142D02*
X0014073Y002865D01*
X0014581Y0028142D01*
X0014073Y0027634D01*
X0013565Y0028142D01*
X0004666Y0045909D02*
X0005174Y0046417D01*
X0005682Y0045909D01*
X0005174Y0045401D01*
X0004666Y0045909D01*
X0004641Y0043801D02*
Y0044817D01*
X0005657D01*
Y0043801D01*
X0004641D01*
X0004844Y0044004D02*
Y0044613D01*
X0005454D01*
Y0044004D01*
X0004844D01*
X000578Y0044251D02*
Y0045267D01*
X0006796D01*
Y0044251D01*
X000578D01*
X0005983Y0044455D02*
Y0045064D01*
X0006593D01*
Y0044455D01*
X0005983D01*
X0006266Y0045375D02*
Y0046391D01*
X0007282D01*
Y0045375D01*
X0006266D01*
X000647Y0045579D02*
Y0046188D01*
X0007079D01*
Y0045579D01*
X000647D01*
X0005816Y0046514D02*
Y004753D01*
X0006832D01*
Y0046514D01*
X0005816D01*
X0006019Y0046718D02*
Y0047327D01*
X0006628D01*
Y0046718D01*
X0006019D01*
X0004692Y0047001D02*
Y0048017D01*
X0005708D01*
Y0047001D01*
X0004692D01*
X0004895Y0047204D02*
Y0047814D01*
X0005504D01*
Y0047204D01*
X0004895D01*
X0003553Y004655D02*
Y0047566D01*
X0004569D01*
Y004655D01*
X0003553D01*
X0003756Y0046754D02*
Y0047363D01*
X0004365D01*
Y0046754D01*
X0003756D01*
X0003066Y0045426D02*
Y0046442D01*
X0004082D01*
Y0045426D01*
X0003066D01*
X0003269Y0045629D02*
Y0046239D01*
X0003879D01*
Y0045629D01*
X0003269D01*
X0003517Y0044287D02*
Y0045303D01*
X0004533D01*
Y0044287D01*
X0003517D01*
X000372Y004449D02*
Y00451D01*
X000433D01*
Y004449D01*
X000372D01*
X0015773Y0049352D02*
X0015265Y0050368D01*
X0016281D01*
X0015773Y0049352D01*
X0010693D02*
X0010185Y0050368D01*
X0011201D01*
X0010693Y0049352D01*
X0020218Y0044501D02*
X0020472D01*
X0020726Y0044755D01*
X002098Y0044501D01*
X0021234D01*
Y0044755D01*
X002098Y0045009D01*
X0021234Y0045263D01*
Y0045517D01*
X002098D01*
X0020726Y0045263D01*
X0020472Y0045517D01*
X0020218D01*
Y0045263D01*
X0020472Y0045009D01*
X0020218Y0044755D01*
Y0044501D01*
X0035027D02*
X0035281D01*
X0035535Y0044755D01*
X0035789Y0044501D01*
X0036043D01*
Y0044755D01*
X0035789Y0045009D01*
X0036043Y0045263D01*
Y0045517D01*
X0035789D01*
X0035535Y0045263D01*
X0035281Y0045517D01*
X0035027D01*
Y0045263D01*
X0035281Y0045009D01*
X0035027Y0044755D01*
Y0044501D01*
X0041728Y005311D02*
X0041982Y0053364D01*
X0042236D01*
X0041982Y0053618D01*
X0042236Y0053872D01*
X0041982D01*
X0041728Y0054126D01*
X0041474Y0053872D01*
X004122D01*
X0041474Y0053618D01*
X004122Y0053364D01*
X0041474D01*
X0041728Y005311D01*
X0039228D02*
X0039482Y0053364D01*
X0039736D01*
X0039482Y0053618D01*
X0039736Y0053872D01*
X0039482D01*
X0039228Y0054126D01*
X0038974Y0053872D01*
X003872D01*
X0038974Y0053618D01*
X003872Y0053364D01*
X0038974D01*
X0039228Y005311D01*
X0036728D02*
X0036982Y0053364D01*
X0037236D01*
X0036982Y0053618D01*
X0037236Y0053872D01*
X0036982D01*
X0036728Y0054126D01*
X0036474Y0053872D01*
X003622D01*
X0036474Y0053618D01*
X003622Y0053364D01*
X0036474D01*
X0036728Y005311D01*
X0034228D02*
X0034482Y0053364D01*
X0034736D01*
X0034482Y0053618D01*
X0034736Y0053872D01*
X0034482D01*
X0034228Y0054126D01*
X0033974Y0053872D01*
X003372D01*
X0033974Y0053618D01*
X003372Y0053364D01*
X0033974D01*
X0034228Y005311D01*
X0031728D02*
X0031982Y0053364D01*
X0032236D01*
X0031982Y0053618D01*
X0032236Y0053872D01*
X0031982D01*
X0031728Y0054126D01*
X0031474Y0053872D01*
X003122D01*
X0031474Y0053618D01*
X003122Y0053364D01*
X0031474D01*
X0031728Y005311D01*
Y006162D02*
X0031982Y0061874D01*
X0032236D01*
X0031982Y0062128D01*
X0032236Y0062382D01*
X0031982D01*
X0031728Y0062636D01*
X0031474Y0062382D01*
X003122D01*
X0031474Y0062128D01*
X003122Y0061874D01*
X0031474D01*
X0031728Y006162D01*
X0034228D02*
X0034482Y0061874D01*
X0034736D01*
X0034482Y0062128D01*
X0034736Y0062382D01*
X0034482D01*
X0034228Y0062636D01*
X0033974Y0062382D01*
X003372D01*
X0033974Y0062128D01*
X003372Y0061874D01*
X0033974D01*
X0034228Y006162D01*
X0036728D02*
X0036982Y0061874D01*
X0037236D01*
X0036982Y0062128D01*
X0037236Y0062382D01*
X0036982D01*
X0036728Y0062636D01*
X0036474Y0062382D01*
X003622D01*
X0036474Y0062128D01*
X003622Y0061874D01*
X0036474D01*
X0036728Y006162D01*
X0039228D02*
X0039482Y0061874D01*
X0039736D01*
X0039482Y0062128D01*
X0039736Y0062382D01*
X0039482D01*
X0039228Y0062636D01*
X0038974Y0062382D01*
X003872D01*
X0038974Y0062128D01*
X003872Y0061874D01*
X0038974D01*
X0039228Y006162D01*
X0031728Y006612D02*
X0031982Y0066374D01*
X0032236D01*
X0031982Y0066628D01*
X0032236Y0066882D01*
X0031982D01*
X0031728Y0067136D01*
X0031474Y0066882D01*
X003122D01*
X0031474Y0066628D01*
X003122Y0066374D01*
X0031474D01*
X0031728Y006612D01*
X0034228D02*
X0034482Y0066374D01*
X0034736D01*
X0034482Y0066628D01*
X0034736Y0066882D01*
X0034482D01*
X0034228Y0067136D01*
X0033974Y0066882D01*
X003372D01*
X0033974Y0066628D01*
X003372Y0066374D01*
X0033974D01*
X0034228Y006612D01*
X0036728D02*
X0036982Y0066374D01*
X0037236D01*
X0036982Y0066628D01*
X0037236Y0066882D01*
X0036982D01*
X0036728Y0067136D01*
X0036474Y0066882D01*
X003622D01*
X0036474Y0066628D01*
X003622Y0066374D01*
X0036474D01*
X0036728Y006612D01*
X0039228D02*
X0039482Y0066374D01*
X0039736D01*
X0039482Y0066628D01*
X0039736Y0066882D01*
X0039482D01*
X0039228Y0067136D01*
X0038974Y0066882D01*
X003872D01*
X0038974Y0066628D01*
X003872Y0066374D01*
X0038974D01*
X0039228Y006612D01*
X0041728Y006162D02*
X0041982Y0061874D01*
X0042236D01*
X0041982Y0062128D01*
X0042236Y0062382D01*
X0041982D01*
X0041728Y0062636D01*
X0041474Y0062382D01*
X004122D01*
X0041474Y0062128D01*
X004122Y0061874D01*
X0041474D01*
X0041728Y006162D01*
Y006612D02*
X0041982Y0066374D01*
X0042236D01*
X0041982Y0066628D01*
X0042236Y0066882D01*
X0041982D01*
X0041728Y0067136D01*
X0041474Y0066882D01*
X004122D01*
X0041474Y0066628D01*
X004122Y0066374D01*
X0041474D01*
X0041728Y006612D01*
X0003607Y0053774D02*
X0003861Y0054282D01*
X0003607Y005479D01*
X0004115Y0054536D01*
X0004623Y005479D01*
X0004369Y0054282D01*
X0004623Y0053774D01*
X0004115Y0054028D01*
X0003607Y0053774D01*
Y0057274D02*
X0003861Y0057782D01*
X0003607Y005829D01*
X0004115Y0058036D01*
X0004623Y005829D01*
X0004369Y0057782D01*
X0004623Y0057274D01*
X0004115Y0057528D01*
X0003607Y0057274D01*
X0038085Y0045009D02*
X0038593Y0045517D01*
X0039101Y0045009D01*
X0038593Y0044501D01*
X0038085Y0045009D01*
X003806Y0042901D02*
Y0043917D01*
X0039076D01*
Y0042901D01*
X003806D01*
X0038263Y0043104D02*
Y0043713D01*
X0038873D01*
Y0043104D01*
X0038263D01*
X0039199Y0043351D02*
Y0044367D01*
X0040215D01*
Y0043351D01*
X0039199D01*
X0039402Y0043555D02*
Y0044164D01*
X0040012D01*
Y0043555D01*
X0039402D01*
X0039686Y0044475D02*
Y0045491D01*
X0040702D01*
Y0044475D01*
X0039686D01*
X0039889Y0044679D02*
Y0045288D01*
X0040498D01*
Y0044679D01*
X0039889D01*
X0039235Y0045614D02*
Y004663D01*
X0040251D01*
Y0045614D01*
X0039235D01*
X0039438Y0045818D02*
Y0046427D01*
X0040048D01*
Y0045818D01*
X0039438D01*
X0038111Y0046101D02*
Y0047117D01*
X0039127D01*
Y0046101D01*
X0038111D01*
X0038314Y0046304D02*
Y0046914D01*
X0038924D01*
Y0046304D01*
X0038314D01*
X0036972Y004565D02*
Y0046666D01*
X0037988D01*
Y004565D01*
X0036972D01*
X0037175Y0045853D02*
Y0046463D01*
X0037785D01*
Y0045853D01*
X0037175D01*
X0036485Y0044526D02*
Y0045542D01*
X0037501D01*
Y0044526D01*
X0036485D01*
X0036688Y0044729D02*
Y0045339D01*
X0037298D01*
Y0044729D01*
X0036688D01*
X0036936Y0043387D02*
Y0044403D01*
X0037952D01*
Y0043387D01*
X0036936D01*
X0037139Y004359D02*
Y00442D01*
X0037749D01*
Y004359D01*
X0037139D01*
X0000092Y0065786D02*
X0000346Y0066294D01*
X0000092Y0066802D01*
X00006Y0066548D01*
X0001108Y0066802D01*
X0000854Y0066294D01*
X0001108Y0065786D01*
X00006Y006604D01*
X0000092Y0065786D01*
X0000295Y0065989D02*
X0000448Y0066294D01*
X0000295Y0066599D01*
X00006Y0066446D01*
X0000905Y0066599D01*
X0000752Y0066294D01*
X0000905Y0065989D01*
X00006Y0066142D01*
X0000295Y0065989D01*
X0022174Y0019406D02*
Y0020422D01*
X002319D01*
Y0019406D01*
X0022174D01*
X0024105Y0035193D02*
Y0036209D01*
X0025121D01*
Y0035193D01*
X0024105D01*
X0021158Y0005563D02*
Y0006579D01*
X0022174D01*
Y0005563D01*
X0021158D01*
X0024511Y0063195D02*
X0024765Y0063449D01*
X0025019D01*
X0024765Y0063703D01*
X0025019Y0063957D01*
X0024765D01*
X0024511Y0064211D01*
X0024257Y0063957D01*
X0024003D01*
X0024257Y0063703D01*
X0024003Y0063449D01*
X0024257D01*
X0024511Y0063195D01*
Y0063398D02*
X0024663Y0063551D01*
X0024816D01*
X0024663Y0063703D01*
X0024816Y0063856D01*
X0024663D01*
X0024511Y0064008D01*
X0024359Y0063856D01*
X0024206D01*
X0024359Y0063703D01*
X0024206Y0063551D01*
X0024359D01*
X0024511Y0063398D01*
X0005918Y0005563D02*
Y0006579D01*
X0006934D01*
Y0005563D01*
X0005918D01*
X0018618D02*
Y0006579D01*
X0019634D01*
Y0005563D01*
X0018618D01*
X0023698D02*
Y0006579D01*
X0024714D01*
Y0005563D01*
X0023698D01*
X0031318D02*
Y0006579D01*
X0032334D01*
Y0005563D01*
X0031318D01*
X0033858D02*
Y0006579D01*
X0034874D01*
Y0005563D01*
X0033858D01*
X0036398D02*
Y0006579D01*
X0037414D01*
Y0005563D01*
X0036398D01*
X0038938D02*
Y0006579D01*
X0039954D01*
Y0005563D01*
X0038938D01*
X0041478Y0002563D02*
Y0003579D01*
X0042494D01*
Y0002563D01*
X0041478D01*
X0026764Y0064319D02*
Y0065335D01*
X002778D01*
Y0064319D01*
X0026764D01*
X0026967Y0064522D02*
Y0065132D01*
X0027577D01*
Y0064522D01*
X0026967D01*
X0017196Y0067418D02*
X001745Y0067672D01*
X0017704D01*
X001745Y0067926D01*
X0017704Y006818D01*
X001745D01*
X0017196Y0068434D01*
X0016942Y006818D01*
X0016688D01*
X0016942Y0067926D01*
X0016688Y0067672D01*
X0016942D01*
X0017196Y0067418D01*
Y0067621D02*
X0017348Y0067773D01*
X0017501D01*
X0017348Y0067926D01*
X0017501Y0068078D01*
X0017348D01*
X0017196Y006823D01*
X0017043Y0068078D01*
X0016891D01*
X0017043Y0067926D01*
X0016891Y0067773D01*
X0017043D01*
X0017196Y0067621D01*
X0007317Y0067418D02*
X0007571Y0067672D01*
X0007825D01*
X0007571Y0067926D01*
X0007825Y006818D01*
X0007571D01*
X0007317Y0068434D01*
X0007063Y006818D01*
X0006809D01*
X0007063Y0067926D01*
X0006809Y0067672D01*
X0007063D01*
X0007317Y0067418D01*
Y0067621D02*
X0007469Y0067773D01*
X0007622D01*
X0007469Y0067926D01*
X0007622Y0068078D01*
X0007469D01*
X0007317Y006823D01*
X0007164Y0068078D01*
X0007012D01*
X0007164Y0067926D01*
X0007012Y0067773D01*
X0007164D01*
X0007317Y0067621D01*
X0024054Y0048872D02*
Y0049888D01*
X002507D01*
Y0048872D01*
X0024054D01*
X0024257Y0049075D02*
Y0049685D01*
X0024867D01*
Y0049075D01*
X0024257D01*
X0021514Y0051234D02*
Y005225D01*
X002253D01*
Y0051234D01*
X0021514D01*
X0021717Y0051438D02*
Y0052047D01*
X0022327D01*
Y0051438D01*
X0021717D01*
X0010312Y0063486D02*
X0010566Y006374D01*
X001082D01*
X0010566Y0063994D01*
X001082Y0064248D01*
X0010566D01*
X0010312Y0064502D01*
X0010058Y0064248D01*
X0009804D01*
X0010058Y0063994D01*
X0009804Y006374D01*
X0010058D01*
X0010312Y0063486D01*
Y0063689D02*
X0010465Y0063842D01*
X0010617D01*
X0010465Y0063994D01*
X0010617Y0064146D01*
X0010465D01*
X0010312Y0064299D01*
X001016Y0064146D01*
X0010008D01*
X001016Y0063994D01*
X0010008Y0063842D01*
X001016D01*
X0010312Y0063689D01*
X0022106Y0064694D02*
X002236Y0064948D01*
X0022614D01*
X002236Y0065202D01*
X0022614Y0065456D01*
X002236D01*
X0022106Y006571D01*
X0021852Y0065456D01*
X0021598D01*
X0021852Y0065202D01*
X0021598Y0064948D01*
X0021852D01*
X0022106Y0064694D01*
Y0064897D02*
X0022259Y0065049D01*
X0022411D01*
X0022259Y0065202D01*
X0022411Y0065354D01*
X0022259D01*
X0022106Y0065507D01*
X0021954Y0065354D01*
X0021801D01*
X0021954Y0065202D01*
X0021801Y0065049D01*
X0021954D01*
X0022106Y0064897D01*
D63*
X0032207Y0049251D02*
G03*
X0032207Y0049251I-0000508J0D01*
G01*
X0037207D02*
G03*
X0037207Y0049251I-0000508J0D01*
G01*
X0020828Y0040716D02*
G03*
X0020828Y0040716I-0000508J0D01*
G01*
Y0033096D02*
G03*
X0020828Y0033096I-0000508J0D01*
G01*
X0010668Y0040716D02*
G03*
X0010668Y0040716I-0000508J0D01*
G01*
X0003048D02*
G03*
X0003048Y0040716I-0000508J0D01*
G01*
X0005588Y0033096D02*
G03*
X0005588Y0033096I-0000508J0D01*
G01*
X0038405Y0040716D02*
G03*
X0038405Y0040716I-0000508J0D01*
G01*
X0040945Y0033096D02*
G03*
X0040945Y0033096I-0000508J0D01*
G01*
X0033325D02*
G03*
X0033325Y0033096I-0000508J0D01*
G01*
X0023165Y0040716D02*
G03*
X0023165Y0040716I-0000508J0D01*
G01*
Y0033096D02*
G03*
X0023165Y0033096I-0000508J0D01*
G01*
D64*
X0020625Y0040716D02*
G03*
X0020625Y0040716I-0000305J0D01*
G01*
Y0033096D02*
G03*
X0020625Y0033096I-0000305J0D01*
G01*
X0010465Y0040716D02*
G03*
X0010465Y0040716I-0000305J0D01*
G01*
X0002845D02*
G03*
X0002845Y0040716I-0000305J0D01*
G01*
X0005385Y0033096D02*
G03*
X0005385Y0033096I-0000305J0D01*
G01*
X0038202Y0040716D02*
G03*
X0038202Y0040716I-0000305J0D01*
G01*
X0040742Y0033096D02*
G03*
X0040742Y0033096I-0000305J0D01*
G01*
X0033122D02*
G03*
X0033122Y0033096I-0000305J0D01*
G01*
X0022962Y0040716D02*
G03*
X0022962Y0040716I-0000305J0D01*
G01*
Y0033096D02*
G03*
X0022962Y0033096I-0000305J0D01*
G01*
M02*
