G04*
G04 #@! TF.GenerationSoftware,Altium Limited,Altium Designer,23.0.1 (38)*
G04*
G04 Layer_Color=8421504*
%FSTAX43Y43*%
%MOMM*%
G71*
G04*
G04 #@! TF.SameCoordinates,251AB1EA-40F0-4E74-92E7-BAF76BE2301E*
G04*
G04*
G04 #@! TF.FilePolarity,Positive*
G04*
G01*
G75*
%ADD14R,1.600X3.500*%
%ADD15R,2.032X1.524*%
%ADD16R,2.032X1.168*%
%ADD17R,1.800X1.000*%
%ADD18R,1.000X1.100*%
D14*
X0017196Y0062326D02*
D03*
Y0067926D02*
D03*
X0010312Y0062326D02*
D03*
Y0067926D02*
D03*
X0003454Y0062326D02*
D03*
Y0067926D02*
D03*
D15*
X0018847Y0051742D02*
D03*
X0027483Y0054282D02*
D03*
X0018847D02*
D03*
D16*
X0027483Y0056645D02*
D03*
Y004938D02*
D03*
X0018847D02*
D03*
Y0056645D02*
D03*
D17*
X0006426Y0003071D02*
D03*
Y0006071D02*
D03*
X0008966Y0003071D02*
D03*
Y0006071D02*
D03*
X0011506Y0003071D02*
D03*
Y0006071D02*
D03*
X0014046Y0003071D02*
D03*
Y0006071D02*
D03*
X0016586Y0003071D02*
D03*
Y0006071D02*
D03*
X0019126Y0003071D02*
D03*
Y0006071D02*
D03*
X0021666Y0003071D02*
D03*
Y0006071D02*
D03*
X0024206Y0003071D02*
D03*
Y0006071D02*
D03*
X0026746Y0003071D02*
D03*
Y0006071D02*
D03*
X0029286Y0003071D02*
D03*
Y0006071D02*
D03*
X0031826Y0003071D02*
D03*
Y0006071D02*
D03*
X0034366Y0003071D02*
D03*
Y0006071D02*
D03*
X0036906D02*
D03*
Y0003071D02*
D03*
X0039446D02*
D03*
Y0006071D02*
D03*
X0041986Y0003071D02*
D03*
Y0006071D02*
D03*
D18*
X0017221Y0052582D02*
D03*
Y0054282D02*
D03*
M02*
