G04*
G04 #@! TF.GenerationSoftware,Altium Limited,Altium Designer,23.0.1 (38)*
G04*
G04 Layer_Physical_Order=2*
G04 Layer_Color=16711680*
%FSTAX44Y44*%
%MOMM*%
G71*
G04*
G04 #@! TF.SameCoordinates,819F8F0F-2E7A-4D06-A50E-73C9B09E9D71*
G04*
G04*
G04 #@! TF.FilePolarity,Positive*
G04*
G01*
G75*
%ADD11C,0.2000*%
%ADD17R,1.8000X1.0000*%
%ADD19C,2.1000*%
%ADD20C,4.0000*%
%ADD21C,1.4000*%
%ADD22C,1.1500*%
%ADD23C,1.2000*%
%ADD24R,1.2000X1.2000*%
%ADD25C,0.7000*%
%ADD26C,1.6500*%
%ADD27C,1.3880*%
%ADD28R,1.8000X1.8000*%
%ADD29C,1.8000*%
%ADD30C,0.5000*%
%ADD31C,0.8000*%
%ADD32C,1.0000*%
%ADD33C,0.8000*%
%ADD34R,6.7000X6.7000*%
%ADD35R,3.0000X1.6000*%
%ADD36R,0.6000X1.2300*%
G04:AMPARAMS|DCode=37|XSize=0.65mm|YSize=1mm|CornerRadius=0.0813mm|HoleSize=0mm|Usage=FLASHONLY|Rotation=0.000|XOffset=0mm|YOffset=0mm|HoleType=Round|Shape=RoundedRectangle|*
%AMROUNDEDRECTD37*
21,1,0.6500,0.8375,0,0,0.0*
21,1,0.4875,1.0000,0,0,0.0*
1,1,0.1625,0.2438,-0.4188*
1,1,0.1625,-0.2438,-0.4188*
1,1,0.1625,-0.2438,0.4188*
1,1,0.1625,0.2438,0.4188*
%
%ADD37ROUNDEDRECTD37*%
%ADD38R,1.8600X3.1900*%
%ADD39R,1.8600X0.9000*%
G04:AMPARAMS|DCode=40|XSize=1.93mm|YSize=0.59mm|CornerRadius=0.0738mm|HoleSize=0mm|Usage=FLASHONLY|Rotation=270.000|XOffset=0mm|YOffset=0mm|HoleType=Round|Shape=RoundedRectangle|*
%AMROUNDEDRECTD40*
21,1,1.9300,0.4425,0,0,270.0*
21,1,1.7825,0.5900,0,0,270.0*
1,1,0.1475,-0.2213,-0.8913*
1,1,0.1475,-0.2213,0.8913*
1,1,0.1475,0.2213,0.8913*
1,1,0.1475,0.2213,-0.8913*
%
%ADD40ROUNDEDRECTD40*%
%ADD41R,0.9900X1.1200*%
%ADD42R,1.6200X3.4000*%
%ADD43R,1.1300X1.7700*%
%ADD44R,0.9300X0.8700*%
%ADD45R,1.1000X3.7000*%
G04:AMPARAMS|DCode=46|XSize=2.17mm|YSize=1.57mm|CornerRadius=0.1963mm|HoleSize=0mm|Usage=FLASHONLY|Rotation=0.000|XOffset=0mm|YOffset=0mm|HoleType=Round|Shape=RoundedRectangle|*
%AMROUNDEDRECTD46*
21,1,2.1700,1.1775,0,0,0.0*
21,1,1.7775,1.5700,0,0,0.0*
1,1,0.3925,0.8888,-0.5888*
1,1,0.3925,-0.8888,-0.5888*
1,1,0.3925,-0.8888,0.5888*
1,1,0.3925,0.8888,0.5888*
%
%ADD46ROUNDEDRECTD46*%
%ADD47R,1.1000X1.0000*%
%ADD48R,0.9000X1.5000*%
%ADD49R,1.1200X0.9900*%
%ADD50R,3.7000X1.1000*%
%ADD51R,0.8700X0.9300*%
%ADD52C,1.5000*%
%ADD53C,1.8000*%
%ADD54C,4.0000*%
%ADD55C,2.0000*%
%ADD56C,0.5000*%
%ADD57C,1.2000*%
%ADD58C,0.9000*%
D11*
X00152214Y00362458D02*
X0015906Y00355612D01*
X0013335Y00330962D02*
Y00361286D01*
X00134522Y00362458D02*
X00152214D01*
X0013335Y00361286D02*
X00134522Y00362458D01*
X00128082Y00362392D02*
X00129318Y00361156D01*
X001087Y00362392D02*
X00128082D01*
X00129318Y00330369D02*
Y00361156D01*
X0013433Y00325358D02*
X00176038D01*
X00215366Y0028603D01*
X00135684Y00328628D02*
X00177393D01*
X00129318Y00330369D02*
X0013433Y00325358D01*
X0013335Y00330962D02*
X00135684Y00328628D01*
X00177393D02*
X00220298Y00285723D01*
X00223266Y00074422D02*
X00338582D01*
X00220298Y0007739D02*
Y00285723D01*
Y0007739D02*
X00223266Y00074422D01*
X00338582D02*
X00343662Y00069342D01*
X00215366Y00073941D02*
Y0028603D01*
X00270597Y00606426D02*
Y00623402D01*
X00272718Y00625524D02*
Y0064827D01*
X00270597Y00623402D02*
X00272718Y00625524D01*
X00215366Y00073941D02*
X00218295Y00071012D01*
X00343662Y00060706D02*
Y00069342D01*
X00318262Y00060706D02*
Y00068706D01*
X00315956Y00071012D02*
X00318262Y00068706D01*
X00218295Y00071012D02*
X00315956D01*
X00343662Y00060706D02*
X00369062D01*
X00394462D02*
Y00099568D01*
X00404368Y00109474D01*
Y00150696D01*
X001016Y00355292D02*
X001087Y00362392D01*
X001016Y00351536D02*
Y00355292D01*
X0015906Y00376428D02*
Y00384048D01*
X00220218Y00607488D02*
Y0062357D01*
X00223012Y00626364D02*
X0025273D01*
X00220218Y0062357D02*
X00223012Y00626364D01*
X0025273D02*
X00262518Y00636152D01*
X00404368Y0029609D02*
Y00330962D01*
X00220218Y0051816D02*
X00220726Y00517652D01*
X0015906Y00351536D02*
Y00355612D01*
X00264418Y00600248D02*
X00270597Y00606426D01*
X00264418Y00599948D02*
Y00600248D01*
X00404368Y0025291D02*
Y0028049D01*
Y0020973D02*
Y0023731D01*
Y00166296D02*
Y0019413D01*
X00245618Y00496112D02*
X00246176Y00495554D01*
X00246888D01*
X00245618Y00496112D02*
Y00546688D01*
X00220218Y0051816D02*
Y00546688D01*
X00282918Y0062427D02*
Y00651326D01*
X00262518Y00636152D02*
Y00650826D01*
X00282918Y00616223D02*
Y0062427D01*
X00279518Y00612822D02*
X00282918Y00616223D01*
X00262518Y00612822D02*
Y0062427D01*
X00245618Y00612822D02*
X00262518D01*
D17*
X00419862Y00060706D02*
D03*
Y00030706D02*
D03*
X00394462Y00060706D02*
D03*
Y00030706D02*
D03*
X00369062D02*
D03*
Y00060706D02*
D03*
X00343662D02*
D03*
Y00030706D02*
D03*
X00318262Y00060706D02*
D03*
Y00030706D02*
D03*
X00292862Y00060706D02*
D03*
Y00030706D02*
D03*
X00267462Y00060706D02*
D03*
Y00030706D02*
D03*
X00242062Y00060706D02*
D03*
Y00030706D02*
D03*
X00216662Y00060706D02*
D03*
Y00030706D02*
D03*
X00191262Y00060706D02*
D03*
Y00030706D02*
D03*
X00165862Y00060706D02*
D03*
Y00030706D02*
D03*
X00140462Y00060706D02*
D03*
Y00030706D02*
D03*
X00115062Y00060706D02*
D03*
Y00030706D02*
D03*
X00089662Y00060706D02*
D03*
Y00030706D02*
D03*
X00064262Y00060706D02*
D03*
Y00030706D02*
D03*
D19*
X002032Y00407162D02*
D03*
Y00330962D02*
D03*
X001016Y00407162D02*
D03*
X000254D02*
D03*
X000508Y00330962D02*
D03*
X00226568D02*
D03*
Y00407162D02*
D03*
X00328168Y00330962D02*
D03*
X00404368D02*
D03*
X00378968Y00407162D02*
D03*
D20*
X00140726Y00121422D02*
D03*
X00300726Y00281422D02*
D03*
Y00121422D02*
D03*
X00140726Y00281422D02*
D03*
X00051742Y00459088D02*
D03*
X00385934Y00450088D02*
D03*
D21*
X0018736Y00441088D02*
D03*
X0011236Y00459088D02*
D03*
D22*
X00366992Y00492506D02*
D03*
X00316992D02*
D03*
D23*
X00122936Y0054285D02*
D03*
X00041148Y00542824D02*
D03*
X0024511Y00637032D02*
D03*
X00171958Y00679256D02*
D03*
X00073168D02*
D03*
X00103124Y0063994D02*
D03*
X00221062Y00652018D02*
D03*
D24*
X00122936Y0057785D02*
D03*
X00041148Y00577824D02*
D03*
D25*
X00040247Y00447953D02*
D03*
X0003574Y00459342D02*
D03*
X00040606Y00470583D02*
D03*
X00051996Y0047509D02*
D03*
X00063237Y00470224D02*
D03*
X00067744Y00458834D02*
D03*
X00062877Y00447593D02*
D03*
X00051488Y00443086D02*
D03*
X0037444Y00438953D02*
D03*
X00369932Y00450342D02*
D03*
X00374799Y00461582D02*
D03*
X00386188Y0046609D02*
D03*
X00397429Y00461223D02*
D03*
X00401936Y00449834D02*
D03*
X0039707Y00438593D02*
D03*
X0038568Y00434086D02*
D03*
X00272718Y0064827D02*
D03*
X00245618Y00493802D02*
D03*
X00220218Y00517424D02*
D03*
D26*
X00106934Y00498602D02*
D03*
X00157734D02*
D03*
D27*
X00355346Y00450088D02*
D03*
X00207264D02*
D03*
D28*
X00417284Y00666284D02*
D03*
Y00621284D02*
D03*
D29*
X00392284Y00666284D02*
D03*
X00367284D02*
D03*
X00342284D02*
D03*
X00317284D02*
D03*
X00392284Y00621284D02*
D03*
X00367284D02*
D03*
X00342284D02*
D03*
X00317284D02*
D03*
Y00536184D02*
D03*
X00342284D02*
D03*
X00367284D02*
D03*
X00392284D02*
D03*
X00417284D02*
D03*
D30*
X00226822Y00199136D02*
D03*
X00246126Y0035701D02*
D03*
X00216662Y00060706D02*
D03*
X00064262D02*
D03*
X00191262D02*
D03*
X00242062D02*
D03*
X00318262D02*
D03*
X00343662D02*
D03*
X00369062D02*
D03*
X00394462D02*
D03*
X00419862Y00030706D02*
D03*
D31*
X002032Y00330962D02*
Y00356827D01*
Y00330962D02*
X00226568D01*
X00006Y00075026D02*
Y00438308D01*
X00226568Y0019939D02*
X00226822Y00199136D01*
X00226568Y0019939D02*
Y00330962D01*
X0003574Y00459088D02*
X00051742D01*
X0002678D02*
X0003574D01*
X0002032Y00060706D02*
X00064262D01*
X00006Y00075026D02*
X0002032Y00060706D01*
X00006Y00438308D02*
X0002678Y00459088D01*
X00086106Y00498602D02*
X00106934D01*
X00079248Y0050546D02*
X00086106Y00498602D01*
X00020574Y0050546D02*
X00079248D01*
X00010742Y00495628D02*
X00020574Y0050546D01*
X00010742Y00473686D02*
Y00495628D01*
Y00530886D02*
Y00532918D01*
Y00564462D01*
X00024104Y00577824D01*
X00041148D01*
X00051742Y00530886D02*
Y00532918D01*
Y00542824D01*
X00221062Y0063994D02*
Y00652018D01*
D32*
X002032Y00388227D02*
Y00407162D01*
X00226568D01*
X00221132Y0068587D02*
X0024511D01*
Y006858D02*
X00275984D01*
X00221062Y0068594D02*
X00221132Y0068587D01*
X0024511Y00637032D02*
Y006858D01*
X00373078Y00498998D02*
Y0051689D01*
X00366992Y00492912D02*
X00373078Y00498998D01*
X00366992Y00492506D02*
Y00492912D01*
X00122936Y0057785D02*
X00122949Y00577837D01*
X00150101D01*
X00150114Y00577824D01*
X0009402Y0054285D02*
X00122936D01*
X00093994Y00542824D02*
X0009402Y0054285D01*
X00358616Y00492506D02*
X00366992D01*
X00316992D02*
Y00535892D01*
X00317284Y00536184D02*
Y00563842D01*
X00316992Y00492506D02*
X00328708D01*
X00041148Y00577824D02*
Y00593598D01*
X00055374Y00607824D02*
X00150114D01*
X00041148Y00593598D02*
X00055374Y00607824D01*
X00051742Y00542824D02*
X00063994D01*
X00041148D02*
X00051742D01*
X00150114Y00577824D02*
X00303302D01*
X00317284Y00563842D01*
X00073168Y0063994D02*
X00103124D01*
X00317284Y00621284D02*
Y00666284D01*
Y006858D01*
D33*
X00006Y0066294D02*
D03*
D34*
X00154562D02*
D03*
D35*
X00221062Y0068594D02*
D03*
Y0063994D02*
D03*
D36*
X00216458Y0037211D02*
D03*
X00235458D02*
D03*
X00225958Y0039331D02*
D03*
D37*
X00272718Y0064827D02*
D03*
X00282918Y0062427D02*
D03*
X00262518D02*
D03*
D38*
X00011668Y0066294D02*
D03*
D39*
X00073168Y0063994D02*
D03*
Y0066294D02*
D03*
Y0068594D02*
D03*
D40*
X00220218Y00607488D02*
D03*
X00245618D02*
D03*
Y00546688D02*
D03*
X00220218D02*
D03*
D41*
X002032Y00356827D02*
D03*
Y00388227D02*
D03*
D42*
X0015906Y00351536D02*
D03*
X001016D02*
D03*
X0015906Y00384048D02*
D03*
X001016D02*
D03*
D43*
X00358362Y00492252D02*
D03*
X00328962D02*
D03*
D44*
X00246126Y0035701D02*
D03*
Y0037211D02*
D03*
X00404368Y0028049D02*
D03*
Y0029609D02*
D03*
X00262518Y00666426D02*
D03*
Y00650826D02*
D03*
X00282918Y00651326D02*
D03*
Y00666426D02*
D03*
X00404368Y0025291D02*
D03*
Y0023731D02*
D03*
Y00150696D02*
D03*
Y00166296D02*
D03*
Y0019413D02*
D03*
Y0020973D02*
D03*
D45*
X00063994Y00542824D02*
D03*
X00093994D02*
D03*
D46*
X00275984Y006858D02*
D03*
X00317284D02*
D03*
D47*
X00262518Y00612822D02*
D03*
X00279518D02*
D03*
D48*
X00051742Y00473686D02*
D03*
X00010742Y00530886D02*
D03*
X00051742D02*
D03*
X00010742Y00473686D02*
D03*
D49*
X00373078Y0051689D02*
D03*
X00341678D02*
D03*
D50*
X00150114Y00607824D02*
D03*
Y00577824D02*
D03*
D51*
X00264418Y00599948D02*
D03*
X00279518D02*
D03*
D52*
X001016Y00384048D02*
Y00407162D01*
Y00362392D02*
Y00384048D01*
X0015906Y00362712D02*
Y00376428D01*
Y00384048D02*
Y00412388D01*
X00067744Y00459088D02*
X0011236D01*
X0015906Y00355612D02*
Y00362712D01*
X0011236Y00459088D02*
X0015906Y00412388D01*
X001016Y00351536D02*
Y00362392D01*
D53*
X000254Y00307848D02*
Y00407162D01*
Y00307848D02*
X00051826Y00281422D01*
X00140726D01*
D54*
Y00121422D02*
Y00281422D01*
X00300726Y00121422D02*
Y00281422D01*
D55*
X00328168Y00308864D02*
Y00330962D01*
X00300726Y00281422D02*
X00328168Y00308864D01*
X0019636Y00450088D02*
X00285242D01*
X0018736Y00441088D02*
X0019636Y00450088D01*
X00285242D02*
X00404368Y00330962D01*
X00355346Y00450088D02*
X00385934D01*
D56*
X00235458Y0037211D02*
X00246126D01*
X0016287Y003739D02*
Y00380238D01*
Y003739D02*
X0016466Y0037211D01*
X00216458D01*
X0015906Y00384048D02*
X0016287Y00380238D01*
X00225958Y0039331D02*
X00226263Y00393615D01*
Y00406857D01*
X00226568Y00407162D01*
X00341678Y0051689D02*
X00341981Y00517193D01*
Y00535881D01*
X00342284Y00536184D01*
X00262518Y00666426D02*
X00282918D01*
X00279518Y00599948D02*
Y00612822D01*
X00275984Y0066675D02*
Y006858D01*
D57*
X00157734Y00470714D02*
X0018736Y00441088D01*
X00157734Y00470714D02*
Y00498602D01*
D58*
X00073168Y00679256D02*
Y0068594D01*
M02*
