G04*
G04 #@! TF.GenerationSoftware,Altium Limited,Altium Designer,23.0.1 (38)*
G04*
G04 Layer_Color=128*
%FSTAX44Y44*%
%MOMM*%
G71*
G04*
G04 #@! TF.SameCoordinates,819F8F0F-2E7A-4D06-A50E-73C9B09E9D71*
G04*
G04*
G04 #@! TF.FilePolarity,Positive*
G04*
G01*
G75*
%ADD17R,1.8000X1.0000*%
%ADD35R,3.0000X1.6000*%
%ADD36R,0.6000X1.2300*%
G04:AMPARAMS|DCode=37|XSize=0.65mm|YSize=1mm|CornerRadius=0.0813mm|HoleSize=0mm|Usage=FLASHONLY|Rotation=0.000|XOffset=0mm|YOffset=0mm|HoleType=Round|Shape=RoundedRectangle|*
%AMROUNDEDRECTD37*
21,1,0.6500,0.8375,0,0,0.0*
21,1,0.4875,1.0000,0,0,0.0*
1,1,0.1625,0.2438,-0.4188*
1,1,0.1625,-0.2438,-0.4188*
1,1,0.1625,-0.2438,0.4188*
1,1,0.1625,0.2438,0.4188*
%
%ADD37ROUNDEDRECTD37*%
%ADD38R,1.8600X3.1900*%
%ADD39R,1.8600X0.9000*%
G04:AMPARAMS|DCode=40|XSize=1.93mm|YSize=0.59mm|CornerRadius=0.0738mm|HoleSize=0mm|Usage=FLASHONLY|Rotation=270.000|XOffset=0mm|YOffset=0mm|HoleType=Round|Shape=RoundedRectangle|*
%AMROUNDEDRECTD40*
21,1,1.9300,0.4425,0,0,270.0*
21,1,1.7825,0.5900,0,0,270.0*
1,1,0.1475,-0.2213,-0.8913*
1,1,0.1475,-0.2213,0.8913*
1,1,0.1475,0.2213,0.8913*
1,1,0.1475,0.2213,-0.8913*
%
%ADD40ROUNDEDRECTD40*%
%ADD41R,0.9900X1.1200*%
%ADD42R,1.6200X3.4000*%
%ADD43R,1.1300X1.7700*%
%ADD44R,0.9300X0.8700*%
%ADD45R,1.1000X3.7000*%
G04:AMPARAMS|DCode=46|XSize=2.17mm|YSize=1.57mm|CornerRadius=0.1963mm|HoleSize=0mm|Usage=FLASHONLY|Rotation=0.000|XOffset=0mm|YOffset=0mm|HoleType=Round|Shape=RoundedRectangle|*
%AMROUNDEDRECTD46*
21,1,2.1700,1.1775,0,0,0.0*
21,1,1.7775,1.5700,0,0,0.0*
1,1,0.3925,0.8888,-0.5888*
1,1,0.3925,-0.8888,-0.5888*
1,1,0.3925,-0.8888,0.5888*
1,1,0.3925,0.8888,0.5888*
%
%ADD46ROUNDEDRECTD46*%
%ADD47R,1.1000X1.0000*%
%ADD48R,0.9000X1.5000*%
%ADD49R,1.1200X0.9900*%
%ADD50R,3.7000X1.1000*%
%ADD51R,0.8700X0.9300*%
%ADD62R,1.4100X1.4100*%
G36*
X00186212Y0068049D02*
X00172112D01*
Y0069459D01*
X00186212D01*
Y0068049D01*
D02*
G37*
G36*
X00161612D02*
X00147512D01*
Y0069459D01*
X00161612D01*
Y0068049D01*
D02*
G37*
G36*
X00137012D02*
X00122912D01*
Y0069459D01*
X00137012D01*
Y0068049D01*
D02*
G37*
G36*
X00186212Y0065589D02*
X00172112D01*
Y0066999D01*
X00186212D01*
Y0065589D01*
D02*
G37*
G36*
X00137012D02*
X00122912D01*
Y0066999D01*
X00137012D01*
Y0065589D01*
D02*
G37*
G36*
X00186212Y0063129D02*
X00172112D01*
Y0064539D01*
X00186212D01*
Y0063129D01*
D02*
G37*
G36*
X00161612D02*
X00147512D01*
Y0064539D01*
X00161612D01*
Y0063129D01*
D02*
G37*
G36*
X00137012D02*
X00122912D01*
Y0064539D01*
X00137012D01*
Y0063129D01*
D02*
G37*
D17*
X00419862Y00060706D02*
D03*
Y00030706D02*
D03*
X00394462Y00060706D02*
D03*
Y00030706D02*
D03*
X00369062D02*
D03*
Y00060706D02*
D03*
X00343662D02*
D03*
Y00030706D02*
D03*
X00318262Y00060706D02*
D03*
Y00030706D02*
D03*
X00292862Y00060706D02*
D03*
Y00030706D02*
D03*
X00267462Y00060706D02*
D03*
Y00030706D02*
D03*
X00242062Y00060706D02*
D03*
Y00030706D02*
D03*
X00216662Y00060706D02*
D03*
Y00030706D02*
D03*
X00191262Y00060706D02*
D03*
Y00030706D02*
D03*
X00165862Y00060706D02*
D03*
Y00030706D02*
D03*
X00140462Y00060706D02*
D03*
Y00030706D02*
D03*
X00115062Y00060706D02*
D03*
Y00030706D02*
D03*
X00089662Y00060706D02*
D03*
Y00030706D02*
D03*
X00064262Y00060706D02*
D03*
Y00030706D02*
D03*
D35*
X00221062Y0068594D02*
D03*
Y0063994D02*
D03*
D36*
X00216458Y0037211D02*
D03*
X00235458D02*
D03*
X00225958Y0039331D02*
D03*
D37*
X00272718Y0064827D02*
D03*
X00282918Y0062427D02*
D03*
X00262518D02*
D03*
D38*
X00011668Y0066294D02*
D03*
D39*
X00073168Y0063994D02*
D03*
Y0066294D02*
D03*
Y0068594D02*
D03*
D40*
X00220218Y00607488D02*
D03*
X00245618D02*
D03*
Y00546688D02*
D03*
X00220218D02*
D03*
D41*
X002032Y00356827D02*
D03*
Y00388227D02*
D03*
D42*
X0015906Y00351536D02*
D03*
X001016D02*
D03*
X0015906Y00384048D02*
D03*
X001016D02*
D03*
D43*
X00358362Y00492252D02*
D03*
X00328962D02*
D03*
D44*
X00246126Y0035701D02*
D03*
Y0037211D02*
D03*
X00404368Y0028049D02*
D03*
Y0029609D02*
D03*
X00262518Y00666426D02*
D03*
Y00650826D02*
D03*
X00282918Y00651326D02*
D03*
Y00666426D02*
D03*
X00404368Y0025291D02*
D03*
Y0023731D02*
D03*
Y00150696D02*
D03*
Y00166296D02*
D03*
Y0019413D02*
D03*
Y0020973D02*
D03*
D45*
X00063994Y00542824D02*
D03*
X00093994D02*
D03*
D46*
X00275984Y006858D02*
D03*
X00317284D02*
D03*
D47*
X00262518Y00612822D02*
D03*
X00279518D02*
D03*
D48*
X00051742Y00473686D02*
D03*
X00010742Y00530886D02*
D03*
X00051742D02*
D03*
X00010742Y00473686D02*
D03*
D49*
X00373078Y0051689D02*
D03*
X00341678D02*
D03*
D50*
X00150114Y00607824D02*
D03*
Y00577824D02*
D03*
D51*
X00264418Y00599948D02*
D03*
X00279518D02*
D03*
D62*
X00154562Y0066294D02*
D03*
M02*
